<?xml version="1.0" encoding="UTF-8"?>
<svg width="24px" height="24px" viewBox="0 0 24 24" version="1.1" xmlns="http://www.w3.org/2000/svg" xmlns:xlink="http://www.w3.org/1999/xlink">
    <title>iOS / Icon / Instrument / Guitar</title>
    <g id="iOS-/-Icon-/-Instrument-/-Guitar" stroke="none" stroke-width="1" fill="none" fill-rule="evenodd">
        <polygon id="Path" points="0 0 24 0 24 24 0 24"></polygon>
        <path d="M20.2738125,0.4125 C20.8234219,-0.137015625 21.7131094,-0.136875 22.2625781,0.4125 L22.2625781,0.4125 L23.587875,1.7379375 C24.1374375,2.28754687 24.13725,3.17732812 23.587875,3.72670312 L23.587875,3.72670312 L23.2565625,4.05801562 L23.587875,4.38932812 C23.770875,4.57242187 23.770875,4.8691875 23.587875,5.0521875 C23.4047813,5.2351875 23.1080156,5.2351875 22.9250156,5.0521875 L22.9250156,5.0521875 L22.5937031,4.720875 L21.9309844,5.38359375 L22.2625313,5.715375 C22.4454844,5.89851562 22.4453906,6.19523437 22.2622969,6.3781875 C22.0790625,6.56128125 21.7822969,6.56090625 21.5994844,6.37795312 L21.5994844,6.37795312 L21.2681719,6.04640625 L20.9365313,6.37804687 C20.5041563,6.810375 19.8592969,6.90140625 19.3366875,6.65245312 L19.3366875,6.65245312 L14.8154063,11.1735 C16.1830313,13.3620469 15.9036094,16.1026406 13.8462656,17.2647187 C12.8166563,17.8455 11.516625,18.8654531 11.1688125,20.4272344 C10.9768125,21.2873437 10.5577031,22.0595156 9.9568125,22.6603594 C7.8399375,24.7772812 4.2620625,24.2565469 2.00320313,21.997125 C-0.224671875,19.7697187 -0.8026875,16.1863594 1.3400625,14.0435625 C1.94095313,13.4427187 2.71307813,13.0236094 3.573,12.8316562 C5.13501563,12.4837969 6.15496875,11.1837656 6.73560938,10.1543906 C7.88207813,8.12484375 10.6082344,7.79854687 12.8270156,9.18501562 L12.8270156,9.18501562 L17.3481094,4.6636875 C17.09925,4.14117187 17.1905156,3.49584375 17.6224688,3.06389062 L17.6224688,3.06389062 L17.9541563,2.73220312 L17.6226094,2.40089062 C17.4395625,2.21789062 17.4394219,1.92117187 17.622375,1.73807812 C17.805375,1.55503125 18.1021406,1.5549375 18.2851875,1.73784375 L18.2851875,1.73784375 L18.6169688,2.06939062 L19.2796875,1.40667187 L18.948375,1.07535937 C18.765375,0.892265625 18.7653281,0.5955 18.948375,0.4125 C19.1314688,0.2295 19.4282344,0.2295 19.6112344,0.4125 L19.6112344,0.4125 L19.9425,0.7438125 Z M12.1439531,9.86803125 C10.495125,8.93282812 8.43257813,9.05653125 7.5519375,10.6150781 C6.87792188,11.8101094 5.67567188,13.3236562 3.77709375,13.7464687 C3.0815625,13.9017656 2.48460938,14.2247344 2.00301563,14.7063281 C0.239859375,16.4695312 0.806953125,19.4754844 2.66620313,21.3343125 C4.521375,23.1899062 7.52775,23.7638437 9.29414063,21.9975 C9.77578125,21.5159531 10.09875,20.919 10.2540469,20.2232344 C10.6768125,18.3248906 12.1903594,17.1226406 13.385625,16.4484375 C14.9348906,15.5730937 15.0725156,13.5139219 14.1323438,11.8564687 L14.1323438,11.8564687 L11.2815469,14.707125 C11.3837813,15.4306406 11.1426094,16.171875 10.619625,16.6949062 C9.70373438,17.6107969 8.22117188,17.6106094 7.30546875,16.6949062 C6.38957813,15.7790156 6.38976563,14.2964531 7.30546875,13.38075 C7.82854688,12.8577656 8.56973438,12.6165937 9.29325,12.718875 L9.29325,12.718875 Z M3.32878125,17.3575781 C3.511875,17.1745781 3.80864063,17.1745781 3.99164063,17.3575781 L3.99164063,17.3575781 L6.6429375,20.008875 C6.82598438,20.1919219 6.82598438,20.4886875 6.6429375,20.6717344 C6.45984375,20.8547344 6.16307813,20.8547344 5.98007813,20.6717344 L5.98007813,20.6717344 L3.32878125,18.0204375 C3.14578125,17.8373437 3.14578125,17.5405781 3.32878125,17.3575781 Z M9.95685938,14.0436094 C9.3991875,13.4860781 8.5070625,13.5049219 7.96832813,14.0436094 C7.4188125,14.5931719 7.41890625,15.4827656 7.96832813,16.0321406 C8.51784375,16.5816562 9.40748438,16.5815625 9.95685938,16.0321406 C10.5042656,15.4846875 10.5066094,14.5934531 9.95685938,14.0436094 Z M17.9539688,5.3835 L10.2547031,13.0831875 C10.3854375,13.169625 10.5079219,13.2690937 10.6196719,13.3808437 C10.7314219,13.4925937 10.8308438,13.6150781 10.9173281,13.7458125 L10.9173281,13.7458125 L18.6170156,6.04654687 L17.9539688,5.3835 Z M21.5997656,1.07526562 C21.416625,0.892125 21.1198125,0.892125 20.9367188,1.07526562 C20.8617063,1.15027812 20.7690663,1.24291729 20.6635658,1.34841635 L19.9143728,2.09759512 C19.6386238,2.37333812 19.3495688,2.66238646 19.0853438,2.9266059 L18.7123958,3.29954662 C18.54,3.47193937 18.3922969,3.61964062 18.285375,3.7265625 C18.1027031,3.90923437 18.1027031,4.20651562 18.285375,4.3891875 L18.285375,4.3891875 L18.6170156,4.72059375 L19.6111406,3.72646875 C19.7942344,3.54346875 20.091,3.54346875 20.274,3.72646875 C20.457,3.9095625 20.457,4.20632812 20.274,4.38932812 L20.274,4.38932812 L19.2797344,5.38359375 L19.6112344,5.71509375 C19.794,5.89771875 20.0912344,5.89771875 20.2739063,5.71509375 C20.5375875,5.4514125 21.0161235,4.97286625 21.5058915,4.48308743 L22.1257535,3.86321181 C22.45575,3.53320833 22.7469531,3.242 22.9251563,3.06379687 C23.1083906,2.88070312 23.1083438,2.58384375 22.9252031,2.40070312 L22.9252031,2.40070312 Z M20.9366719,2.40070312 C21.1199531,2.2179375 21.416625,2.2179375 21.5998594,2.40070312 C21.782625,2.58398437 21.782625,2.88065625 21.5998594,3.06389062 C21.4165781,3.24665625 21.1199063,3.24665625 20.9366719,3.06389062 C20.7539063,2.88060937 20.7539063,2.5839375 20.9366719,2.40070312 Z" id="Combined-Shape" fill="#FFFFFF"></path>
    </g>
</svg>