<svg width="16" height="16" viewBox="0 0 16 16" fill="none" xmlns="http://www.w3.org/2000/svg">
<path fill-rule="evenodd" clip-rule="evenodd" d="M7.33335 14L7.3297 13.9005C7.2788 13.2106 6.70293 12.6667 6.00002 12.6667H1.33335C0.965164 12.6667 0.666687 12.3682 0.666687 12V2.00004C0.666687 1.63185 0.965164 1.33337 1.33335 1.33337H5.33335C6.42375 1.33337 7.39187 1.85694 8.00002 2.66638C8.60817 1.85694 9.57629 1.33337 10.6667 1.33337H14.6667C15.0349 1.33337 15.3334 1.63185 15.3334 2.00004V12C15.3334 12.3682 15.0349 12.6667 14.6667 12.6667H10C9.26364 12.6667 8.66669 13.2637 8.66669 14C8.66669 14.0307 8.6651 14.0603 8.66204 14.0888C8.65955 14.112 8.65609 14.1345 8.65171 14.1563C8.50523 14.8855 7.33335 14.8334 7.33335 14ZM7.33335 11.6907V4.66671C7.33335 3.60159 6.50074 2.73093 5.45087 2.6701L5.33335 2.66671H2.00002V11.3334H6.00002C6.44631 11.3334 6.867 11.443 7.23661 11.6368L7.33335 11.6907ZM8.66669 11.69L8.76343 11.6368C9.09608 11.4624 9.4701 11.3561 9.86693 11.3366L10 11.3334H14V2.66671H10.6667C9.56212 2.66671 8.66669 3.56214 8.66669 4.66671V11.69Z" fill="#150F2F"/>
</svg>
