<?xml version="1.0" encoding="UTF-8"?>
<svg width="32px" height="32px" viewBox="0 0 32 32" version="1.1" xmlns="http://www.w3.org/2000/svg" xmlns:xlink="http://www.w3.org/1999/xlink">
    <title>iOS-/-Icon-/-Skip-Lesson</title>
    <g id="Page-1" stroke="none" stroke-width="1" fill="none" fill-rule="evenodd">
        <g id="Child-Safety" transform="translate(-36.000000, -720.000000)">
            <g id="iOS-/-Card-/-Policy-Feature-with-Icon" transform="translate(24.000000, 708.000000)">
                <g id="iOS-/-Icon-/-Skip-Lesson" transform="translate(12.000000, 12.000000)">
                    <g id="close" fill="#6558F5" fill-rule="nonzero">
                        <path d="M30.6666667,14.6666667 C29.9306667,14.6666667 29.3333333,15.264 29.3333333,16 C29.3333333,23.352 23.352,29.3333333 16,29.3333333 C8.648,29.3333333 2.66666667,23.352 2.66666667,16 C2.66666667,8.648 8.648,2.66666667 16,2.66666667 C19.5793333,2.66666667 22.9393333,4.06533333 25.4613333,6.60533333 C25.98,7.12733333 26.8246667,7.13066667 27.3466667,6.612 C27.8693333,6.09333333 27.872,5.24866667 27.3533333,4.726 C24.3273333,1.67866667 20.2946667,0 16,0 C7.17733333,0 0,7.17733333 0,16 C0,24.8226667 7.17733333,32 16,32 C24.822,32 32,24.8226667 32,16 C32,15.264 31.4026667,14.6666667 30.6666667,14.6666667 Z" id="Path"></path>
                    </g>
                    <g id="shield" transform="translate(10.666667, 9.333333)" stroke="#6558F5" stroke-width="1.5">
                        <path d="M10.1277633,1.36986945 L5.50293545,0.0181282272 L5.49341122,0.0154784405 C5.41529251,-0.0051449 5.33269915,-0.0051449 5.25455544,0.0154534425 L5.24975583,0.0167283399 L0.620178364,1.36984446 C0.278655846,1.46263699 0.040625,1.77351197 0.040625,2.12785846 L0.040625,8.72175286 C0.040625,9.58750819 0.518511545,10.3680954 1.28854958,10.7619387 L4.31690589,12.5419205 L4.3379542,12.5533945 C4.6623031,12.7171064 5.01809947,12.7989748 5.37394583,12.7989748 C5.7297422,12.7989748 6.08558857,12.7171314 6.40991247,12.5534195 L6.42063661,12.54802 L9.45934209,10.7619637 C10.2294051,10.3681454 10.7072917,9.58755819 10.7072917,8.72177786 L10.7072917,2.12785846 C10.7072917,1.77351197 10.4692858,1.46268699 10.1277633,1.36986945 Z M9.95730202,8.72175286 L9.95730202,8.72175286 C9.95730202,9.30703076 9.63275313,9.83438833 9.11024518,10.0980921 L9.09952104,10.1034917 L6.06184048,11.888948 C5.63017522,12.1028558 5.11761646,12.1028308 4.6859512,11.888948 L1.6586198,10.1095662 L1.6375465,10.0980921 C1.11511354,9.83438833 0.790564653,9.30700576 0.790564653,8.72175286 L0.790564653,2.12785846 C0.790564653,2.11173476 0.801463776,2.09763589 0.817037523,2.09351122 L5.37392084,0.761743389 L9.92125492,2.09086144 L9.93080415,2.09351122 C9.94640289,2.09763589 9.95730202,2.11173476 9.95730202,2.12785846 L9.95730202,8.72175286 Z" id="Shape"></path>
                    </g>
                </g>
            </g>
        </g>
    </g>
</svg>