<?xml version="1.0" encoding="UTF-8"?>
<svg width="24px" height="24px" viewBox="0 0 24 24" version="1.1" xmlns="http://www.w3.org/2000/svg" xmlns:xlink="http://www.w3.org/1999/xlink">
    <title>iOS / Icon / Instrument / Base Guitar</title>
    <g id="iOS-/-Icon-/-Instrument-/-Base-Guitar" stroke="none" stroke-width="1" fill="none" fill-rule="evenodd">
        <polygon id="Path" points="0 0 24 0 24 24 0 24"></polygon>
        <path d="M21.2770631,0.504798976 C21.5333758,0.467905389 21.7708448,0.647732027 21.8074542,0.90665018 L21.8074542,0.90665018 L21.8738292,1.37570549 L22.8021425,1.24177088 C22.9481582,1.22074295 23.0955334,1.27028171 23.1998772,1.37570549 L23.1998772,1.37570549 L23.8627371,2.04542593 C23.9601903,2.14398248 24.0097841,2.28071135 23.9983935,2.41933462 C23.9870497,2.55809997 23.9158465,2.68478848 23.8037215,2.76572704 L23.8037215,2.76572704 L19.1950145,6.09183312 L13.4457909,11.9181783 C13.2954627,12.158626 13.3531659,12.5377443 13.4494472,12.6350221 C13.6768849,12.864577 13.7457912,12.8618774 13.9507289,12.8537315 C14.3939792,12.8361608 14.7963077,12.9135 15.1080736,13.2266456 C15.6774178,13.8026876 15.6413709,14.8676288 14.8238702,15.4725605 C14.6229169,15.6213662 14.0469633,16.0134139 13.0421968,16.439845 C12.2710087,16.7670565 12.0694929,17.6403311 12.0186335,18.0006474 C11.8336177,19.3164555 11.5844769,20.502923 10.4047728,21.6953578 C7.79936434,24.3277792 4.5519085,23.9453457 2.05548454,21.4231314 C-0.463111311,18.8783738 -0.799439717,15.5996752 1.78595307,12.9874767 C2.63298502,12.1321516 3.86340793,11.5835312 5.44309675,11.3567233 C5.79944079,11.3053848 6.66376964,11.101736 6.98758241,10.3226609 C7.50095784,9.0874598 8.0828177,7.68739789 9.96142865,7.35540297 C11.0463983,7.1635942 12.0834617,7.5098919 12.9860874,8.35853913 L12.9860874,8.35853913 L17.1544972,4.13453123 L17.7825289,2.23050955 C17.8386852,2.06024967 17.9852635,1.93668693 18.1610917,1.91144395 L18.1610917,1.91144395 L19.0892175,1.77750934 L19.0229362,1.30864347 C18.9862799,1.04972531 19.1644051,0.809798594 19.4207178,0.772810286 C19.6767961,0.735774618 19.9144057,0.915743337 19.951062,1.17470885 L19.951062,1.17470885 L20.0173433,1.64357472 L20.9456566,1.50964011 L20.8793284,1.04067952 C20.8426721,0.781714002 21.0207973,0.541787284 21.2770631,0.504798976 Z M12.3240712,9.02949093 C11.6446644,8.39931625 10.9059138,8.15001222 10.1231475,8.28849341 C8.74900576,8.53135646 8.35319293,9.4837225 7.85209876,10.6894182 C7.49331721,11.5527471 6.66344152,12.1377875 5.57528436,12.2945497 C4.18140819,12.4945992 3.15882921,12.9404006 2.44885987,13.6573392 C-0.684408371,16.8229416 1.86306251,19.8889455 2.7184851,20.7531742 C4.85336188,22.9101467 7.5117391,23.2785616 9.74172534,21.0254953 C10.7185074,20.0381774 10.9237263,19.0527066 11.0904608,17.8670443 C11.245711,16.7673407 11.8247115,15.9289233 12.6791497,15.566381 C13.6175411,15.1681766 14.1339634,14.8089495 14.2698541,14.7083565 C14.6160263,14.4521852 14.6129794,14.066247 14.4458699,13.8971712 C14.3393229,13.7902319 14.1312446,13.7946364 13.9875258,13.8002722 C13.6275255,13.8150486 13.2646189,13.7873902 12.7866341,13.3049794 C12.6673372,13.184495 12.5771965,13.0312375 12.5152277,12.8612144 L12.5152277,12.8612144 L11.3376329,14.0545964 C11.1546796,14.2399642 10.857445,14.2402484 10.6741636,14.0551174 L10.6741636,14.0551174 L9.34797501,12.7152029 C9.16511548,12.5304035 9.1648811,12.2308976 9.34750626,12.0458614 L9.34750626,12.0458614 Z M6.69616029,20.0835485 C6.8794417,19.8983702 7.17620757,19.8983702 7.35902022,20.0835485 C7.54230162,20.2682532 7.54230162,20.5685642 7.35902022,20.7532689 C7.17620757,20.9384473 6.8794417,20.9384473 6.69616029,20.7532689 C6.51334764,20.5685642 6.51334764,20.2682532 6.69616029,20.0835485 Z M8.68520883,19.4138281 C8.86802148,19.2286497 9.16525611,19.2286497 9.34806876,19.4138281 C9.53139704,19.5985328 9.53139704,19.8983702 9.34806876,20.0835485 C9.16525611,20.2682532 8.86802148,20.2682532 8.68520883,20.0835485 C8.50192743,19.8983702 8.50192743,19.5985328 8.68520883,19.4138281 Z M3.38129815,16.7344254 C3.56439205,16.5495312 3.86125168,16.5495312 4.0442987,16.7344254 L4.0442987,16.7344254 L6.03334724,18.7440603 C6.21639427,18.9290492 6.21639427,19.2289339 6.03334724,19.4139228 C5.85025334,19.5988643 5.55344059,19.5988643 5.37034669,19.4139228 L5.37034669,19.4139228 L3.38129815,17.4042879 C3.19825112,17.219299 3.19825112,16.9193669 3.38129815,16.7344254 Z M6.03320661,15.3944635 C6.21630052,15.2095694 6.51316014,15.2095694 6.69620717,15.3944635 L6.69620717,15.3944635 L8.02239578,16.734378 C8.2054428,16.9194143 8.2054428,17.219299 8.02239578,17.4042405 C7.83930187,17.5891821 7.54248913,17.5891821 7.35939522,17.4042405 L7.35939522,17.4042405 L6.03320661,16.0643261 C5.85015959,15.8793372 5.85015959,15.5794051 6.03320661,15.3944635 Z M7.35939522,14.0550227 C7.54244225,13.8701285 7.839255,13.8701759 8.0223489,14.0550227 L8.0223489,14.0550227 L9.34806876,15.3944635 C9.53120954,15.5794524 9.53116266,15.8793845 9.34811563,16.0643261 C9.25656868,16.1567731 9.13661546,16.203044 9.01661536,16.203044 C8.89661526,16.203044 8.77666203,16.1567731 8.68511508,16.0643261 L8.68511508,16.0643261 L7.35939522,14.7248852 C7.17630132,14.5398963 7.17634819,14.2399642 7.35939522,14.0550227 Z M17.5650756,5.06028084 L10.3420071,12.3797981 L11.005242,13.0498974 L18.2282168,5.73000128 L17.5650756,5.06028084 Z M22.7026737,2.21303364 C22.3988034,2.25687402 21.2063615,2.4289479 20.180115,2.57705041 L19.7535454,2.63861154 C19.1381793,2.72742053 18.6537672,2.79733713 18.5805296,2.80792497 L18.5805296,2.80792497 L18.1009042,4.26207222 L18.9413268,5.11086153 L22.8085175,2.31992558 Z" id="Combined-Shape" fill="#FFFFFF"></path>
    </g>
</svg>