<?xml version="1.0" encoding="UTF-8"?>
<svg width="24px" height="24px" viewBox="0 0 24 24" version="1.1" xmlns="http://www.w3.org/2000/svg" xmlns:xlink="http://www.w3.org/1999/xlink">
    <title>iOS / Icon / Instrument / Harp</title>
    <g id="iOS-/-Icon-/-Instrument-/-Harp" stroke="none" stroke-width="1" fill="none" fill-rule="evenodd">
        <polygon id="Path" points="0 0 24 0 24 24 0 24"></polygon>
        <path d="M6.83222483,0 C7.53637154,0 8.16706649,0.360281954 8.51718812,0.940173711 C9.96465898,0.95489249 10.8949685,1.022252 11.2845056,1.14070535 C12.1796364,1.41281526 13.4236988,2.08847283 14.2671801,3.76144485 C14.4612108,4.14642997 14.6375331,4.53760261 14.793148,4.88269704 C14.9256753,5.17660386 15.0831467,5.52596392 15.1885402,5.71651117 C15.3442503,5.68937049 15.6387714,5.6182141 16.1505535,5.43301061 C17.6014994,4.90904084 19.2656125,4.89783769 20.1459863,6.15976203 C21.2172966,7.69792129 19.6934702,9.72653462 17.7642072,12.2948209 L17.4883772,12.6623494 C15.9083231,14.7712346 14.0631527,17.3234974 13.1859207,20.1956176 C13.5833123,20.3044147 13.9468105,20.5140401 14.2430452,20.8110875 C14.6826609,21.2519009 14.9247708,21.8350739 14.9247708,22.453122 L14.9247708,22.453122 L14.9247708,23.5312491 C14.9247708,23.7900933 14.7116513,24 14.4487387,24 L14.4487387,24 L3.97603212,24 C3.71311958,24 3.5,23.7900933 3.5,23.5312491 L3.5,23.5312491 L3.5,22.453122 C3.5,21.3212291 4.31901326,20.3743054 5.40412847,20.1565237 L5.40412847,20.1565237 L5.40412847,4.2764146 L4.92804875,2.40164532 C4.61791383,1.18031481 5.55583991,0 6.83222483,0 Z M12.4889621,21.0469161 L5.88016059,21.0469161 C5.09270826,21.0469161 4.45206424,21.6777611 4.45206424,22.4531689 L4.45206424,22.4531689 L4.45206424,23.062545 L13.9727066,23.062545 L13.9727066,22.4531689 C13.9727066,21.6933705 13.3406312,21.055963 12.5799318,21.055963 C12.549799,21.055963 12.5193805,21.0527755 12.4889621,21.0469161 L12.4889621,21.0469161 Z M8.39532389,3.74480419 L8.26032118,4.27646148 L8.26032118,20.1094143 L9.21238542,20.1094143 L9.21238542,12.6562747 C9.21238542,12.3974305 9.425505,12.1875238 9.68841754,12.1875238 C9.95133008,12.1875238 10.1644497,12.3974305 10.1644497,12.6562747 L10.1644497,12.6562747 L10.1644497,17.8059254 C10.4347407,17.2380337 10.7523969,16.648345 11.1165139,16.0390157 L11.1165139,16.0390157 L11.1165139,4.20975822 C10.9251014,4.03782039 10.7124578,3.91458577 10.4702527,3.83691374 C10.4440043,3.83393249 10.3973284,3.82966873 10.3292893,3.82451734 L10.1644497,3.81314807 L10.1644497,8.9062674 C10.1644497,9.16511165 9.95133008,9.37501831 9.68841754,9.37501831 C9.425505,9.37501831 9.21238542,9.16511165 9.21238542,8.9062674 L9.21238542,8.9062674 L9.21238542,3.76767923 C8.97855844,3.75914797 8.70379271,3.75089795 8.39532389,3.74480419 L8.39532389,3.74480419 Z M7.30825695,4.68750916 L6.35619271,4.68750916 L6.35619271,20.1094143 L7.30825695,20.1094143 L7.30825695,4.68750916 Z M8.79471484,1.88147242 C8.79514327,1.89755058 8.79585732,1.91358186 8.79585732,1.92970689 C8.79585732,2.08687908 8.77586397,2.24550439 8.73649611,2.40117656 L8.73649611,2.40117656 L8.63210227,2.81217737 C9.08361873,2.82305239 9.45335288,2.83781804 9.71121948,2.85000557 C10.5857857,2.88975564 10.6764698,2.9178807 10.7252155,2.93297448 C12.0093121,3.32283461 12.525569,4.41872738 13.029449,5.58976092 C13.45426,6.5770441 13.821138,7.42970201 14.742641,7.58293669 C14.7443071,7.58321794 14.7459732,7.58349919 14.7475917,7.58378044 C15.333016,7.68746814 16.0731507,7.4370614 16.640105,7.25162354 C17.3393486,7.02287309 17.9431477,6.82538833 18.4127058,7.07776382 C18.6243021,7.1914828 18.7161286,7.44301454 18.626587,7.66337434 C18.46883,8.05145323 17.9513354,8.67203256 16.8893554,9.92711314 C16.5836476,10.2884263 16.2371438,10.697974 15.8791676,11.1287092 C14.8094759,12.4152899 13.2468528,14.356903 12.0309716,16.3573444 C11.1968205,17.7300346 10.6105394,18.9892871 10.2830293,20.1094143 L10.2830293,20.1094143 L12.2188139,20.1094143 C13.1694976,16.8355641 15.2861744,14.0172461 16.9987476,11.7373354 C18.7026569,9.46900287 20.0484949,7.67734312 19.361057,6.69020057 C18.7565914,5.82376137 17.4862045,5.94905849 16.4786825,6.31294983 C15.3601022,6.71781 14.9971753,6.69451308 14.8214243,6.6419661 C14.7796286,6.62945045 14.7397848,6.61130979 14.7029875,6.58805974 C14.4574501,6.43295006 14.296218,6.09080877 13.9230089,5.26294778 C13.771345,4.9264315 13.5994022,4.54505575 13.4144637,4.17811754 C12.721123,2.80294297 11.7207891,2.25436378 11.0036943,2.03634773 C10.7949542,1.97292573 10.107421,1.90322247 8.79471484,1.88147242 Z M12.0685781,5.7602925 L12.0685781,14.5527003 C12.3836638,14.0902306 12.7072704,13.6389641 13.0289253,13.205932 C13.023689,13.1781351 13.0206424,13.1496351 13.0206424,13.1203381 L13.0206424,13.1203381 L13.0206424,7.56779603 C12.6421016,7.09168573 12.3893762,6.50509083 12.1528834,5.95548038 C12.1246547,5.889949 12.0966164,5.82493325 12.0685781,5.7602925 L12.0685781,5.7602925 Z M13.9727066,8.32661001 L13.9727066,11.9753203 C14.3097849,11.5484288 14.6318207,11.1525687 14.9247708,10.7977242 L14.9247708,10.7977242 L14.9247708,8.54303231 C14.8066673,8.53820418 14.6924672,8.5264854 14.5815517,8.50698537 C14.3575786,8.46953217 14.1556934,8.4079383 13.9727066,8.32661001 L13.9727066,8.32661001 Z M9.35186283,10.4498642 C9.53751536,10.2665826 9.83931972,10.2665826 10.0249722,10.4498642 C10.2111008,10.632677 10.2111008,10.9298651 10.0249722,11.112678 C9.83931972,11.2959596 9.53751536,11.2959596 9.35186283,11.112678 C9.16573427,10.9298651 9.16573427,10.632677 9.35186283,10.4498642 Z M17.221721,8.05060947 C17.1227063,8.08164078 17.0260718,8.11318772 16.9402432,8.1412659 C16.6113526,8.24889111 16.2501871,8.36654759 15.8768351,8.44721962 L15.8768351,8.44721962 L15.8768351,9.65940949 C15.9734696,9.54503427 16.0676288,9.43370593 16.157932,9.32697134 C16.5497065,8.86398606 16.930199,8.41426643 17.221721,8.05060947 Z M6.83222483,0.937501831 C6.1737772,0.937501831 5.69222311,1.54626865 5.85169387,2.17425425 L5.85169387,2.17425425 L6.22537908,3.64585087 C6.2552739,3.67688218 6.28097964,3.71180412 6.30140141,3.75000732 L6.30140141,3.75000732 L7.36304824,3.75000732 C7.38347002,3.711851 7.40917576,3.67692906 7.43907057,3.64589775 C7.80095019,2.22080707 7.83941758,2.10063106 7.84338005,1.98360428 L7.84380801,1.92984752 C7.84380801,1.39570585 7.40493907,0.937501831 6.83222483,0.937501831 Z" id="Combined-Shape" fill="#FFFFFF"></path>
    </g>
</svg>