<?xml version="1.0" encoding="UTF-8"?>
<svg width="272px" height="340px" viewBox="0 0 272 340" version="1.1" xmlns="http://www.w3.org/2000/svg" xmlns:xlink="http://www.w3.org/1999/xlink">
    <title>rythmico_logo_light</title>
    <g id="rythmico_logo_light" stroke="none" stroke-width="1" fill="none" fill-rule="evenodd">
        <path d="M272,136 C272,134.436 271.958444,132.887111 271.909333,131.334444 L271.882889,131.334444 C269.518,84.7166667 231.932889,47.3808889 185.205556,45.4126667 C183.086222,45.3257778 181.333333,47.0824444 181.333333,49.2017778 L181.333333,134.564444 C181.333333,159.705556 161.484889,181.144444 136.343778,181.333333 C109.430889,181.533556 87.8937778,158.273778 90.9575556,130.786667 C93.0126667,112.373778 106.608889,96.8584444 124.530667,92.1626667 C133.079778,89.9262222 141.239778,90.3266667 148.651778,92.5026667 C149.879556,92.8653333 151.111111,91.9964444 151.111111,90.7157778 L151.111111,7.80866667 C151.111111,3.808 147.994444,0.487333333 143.993778,0.241777778 C141.349333,0.0831111111 138.686,0 136,0 L15.1111111,0 C6.766,0 0,6.766 0,15.1111111 L0,324.888889 C0,333.234 6.766,340 15.1111111,340 L257.882444,340 C263.915556,340 267.515778,333.275556 264.168667,328.254889 L215.507111,255.275778 C213.289556,251.951333 214.037556,247.474667 217.237333,245.087111 C250.462889,220.278444 272,180.638222 272,136" id="Fill-4" fill="#FFFFFF"></path>
    </g>
</svg>