<?xml version="1.0" encoding="UTF-8"?>
<svg width="24px" height="24px" viewBox="0 0 24 24" version="1.1" xmlns="http://www.w3.org/2000/svg" xmlns:xlink="http://www.w3.org/1999/xlink">
    <title>iOS / Icon / Instrument / Flute</title>
    <g id="iOS-/-Icon-/-Instrument-/-Flute" stroke="none" stroke-width="1" fill="none" fill-rule="evenodd">
        <polygon id="Path" points="0 0 24 0 24 24 0 24"></polygon>
        <path d="M18.9484219,0.4111875 C19.4966719,-0.1370625 20.3887969,-0.137015625 20.937,0.4111875 L20.937,0.4111875 L23.5888125,3.063 C24.1370156,3.61120313 24.1370156,4.50332813 23.5888125,5.05157813 L23.5888125,5.05157813 L23.5046035,5.13578784 C23.4302094,5.21018287 23.3199374,5.32045677 23.1775765,5.46282026 L22.5007081,6.13970241 C22.3923771,6.24803578 22.2772079,6.3632074 22.1556743,6.48474361 L21.772454,6.86797234 C21.3041933,7.33624339 20.7637707,7.87667833 20.1714937,8.46896901 L19.3830205,9.25746055 C18.9308822,9.70960938 18.4567281,10.1837747 17.9679589,10.6725554 L16.7706411,11.8699018 C16.6691577,11.9713876 16.5673266,12.0732212 16.4652069,12.1753434 L15.8494994,12.7910658 C15.0252019,13.6153832 14.1900142,14.4505914 13.3742496,15.2663761 L12.4663072,16.174341 C11.4701393,17.1705337 10.522082,18.118615 9.68134137,18.9593774 L8.95524881,19.6854889 C8.49263551,20.1481143 8.07505046,20.5657105 7.71528214,20.9254887 L6.71248576,21.9283141 C6.64333376,21.9974682 6.58226362,22.0585404 6.52974897,22.1110568 L6.35278125,22.2880313 C6.35160937,22.28925 6.35025,22.2902813 6.34903125,22.2914531 C6.30346875,22.3361719 6.24829687,22.3706719 6.19265625,22.3925625 C6.19003125,22.3935938 6.18759375,22.3949063 6.18496875,22.3958906 L6.18496875,22.3958906 L1.95810937,23.9704688 C1.78617187,24.0345 1.59276562,23.9923594 1.46301562,23.8626563 L1.46301562,23.8626563 L0.13734375,22.5369844 C0.007640625,22.4072344 -0.0345,22.2137813 0.02953125,22.0418906 L0.02953125,22.0418906 L1.60410937,17.8150313 C1.6265625,17.75475 1.66542187,17.6949375 1.7085,17.6509688 C1.70967187,17.64975 1.71070312,17.6483906 1.71192187,17.6471719 L1.71192187,17.6471719 Z M2.22792187,18.826125 L1.01320312,22.0869844 L1.91301562,22.9867969 L5.17382812,21.7720313 L2.22792187,18.826125 Z M17.9542031,2.73121875 L2.706375,17.9787188 L3.36951562,18.6418594 L4.36378125,17.6472188 C4.79601562,17.2150313 5.44171875,17.1237188 5.96442187,17.3727188 L5.96442187,17.3727188 L7.01564062,16.3215 C7.19873437,16.1384531 7.49554687,16.1384531 7.67859375,16.3215 C7.86164062,16.5045938 7.86164062,16.8014063 7.67859375,16.9844531 L7.67859375,16.9844531 L6.6279375,18.0351094 C6.87215625,18.54525 6.79575,19.1945156 6.35245312,19.6366875 L6.35245312,19.6366875 L5.35823437,20.6305313 L6.021375,21.2936719 L21.2687812,6.04579688 L17.9542031,2.73121875 Z M5.68978125,18.3099844 C5.506875,18.1272656 5.2095,18.1273594 5.0266875,18.310125 L5.0266875,18.310125 L4.03242187,19.3047656 L4.69528125,19.967625 L5.68992187,18.9732188 C5.8734375,18.7901719 5.872875,18.4932656 5.68996875,18.3102188 L5.68996875,18.3102188 Z M8.3413125,14.9954531 C8.52459375,14.8126406 8.8213125,14.8126406 9.00459375,14.9954531 C9.18740625,15.1787344 9.18740625,15.4754531 9.00459375,15.6587344 C8.8213125,15.8415469 8.52459375,15.8415469 8.3413125,15.6587344 C8.1585,15.4754531 8.1585,15.1787344 8.3413125,14.9954531 Z M9.6673125,12.3440625 C10.2155625,11.7958125 11.1076875,11.7958594 11.6559375,12.3440625 C12.2041875,12.8923125 12.2041875,13.7844375 11.6559375,14.3326875 C11.1077344,14.8808906 10.2156094,14.8808906 9.6673125,14.3326406 C9.11910937,13.7843906 9.11910937,12.8923125 9.6673125,12.3440625 Z M10.9930312,13.0070156 C10.8098437,12.8238281 10.5134531,12.8238281 10.3303125,13.0070156 C10.1475937,13.1897344 10.1475937,13.4870625 10.3303125,13.6697344 C10.5129844,13.8524063 10.8103125,13.8524531 10.9930312,13.6697344 C11.1762187,13.4865469 11.1761719,13.1900625 10.9930312,13.0070156 Z M12.9819375,9.0294375 C13.5301875,8.4811875 14.4223125,8.48123438 14.9705625,9.0294375 C15.5188125,9.5776875 15.5188125,10.4698125 14.9705625,11.0180625 C14.4223594,11.5662656 13.5301875,11.5662656 12.9819375,11.0180156 C12.4337344,10.4697656 12.4337344,9.5776875 12.9819375,9.0294375 Z M14.3076562,9.6924375 C14.1244687,9.50925 13.8280781,9.50925 13.6449375,9.6924375 C13.4622187,9.87510938 13.4622187,10.1724375 13.6449375,10.3551563 C13.8276094,10.5378281 14.1249375,10.537875 14.3076562,10.3551563 C14.4908906,10.1719219 14.4908437,9.87548438 14.3076562,9.6924375 Z M16.2964219,5.71453125 C16.8446719,5.16632813 17.7368437,5.16623438 18.2854687,5.71410938 C18.8338125,6.26320313 18.8337187,7.155375 18.2856562,7.70339063 L18.2856562,7.70339063 L18.1787595,7.79986929 C17.6267543,8.24923517 16.8104619,8.21724023 16.2966094,7.70334375 C15.7485937,7.155375 15.7485,6.26315625 16.2964219,5.71453125 Z M17.6225625,6.3770625 C17.43975,6.1944375 17.1421406,6.19471875 16.9596094,6.37725 C16.7769844,6.56015625 16.7768906,6.85771875 16.9596094,7.04039063 C17.1423281,7.2230625 17.4398437,7.2230625 17.6228906,7.04025 C17.8055156,6.85753125 17.805375,6.5600625 17.6225625,6.3770625 Z M20.2740469,1.07414063 C20.091375,0.891421875 19.7940469,0.89146875 19.611375,1.07414063 L19.611375,1.07414063 L18.6171562,2.06835938 L21.9316875,5.38289063 L22.9259062,4.38867188 C23.1085781,4.20595313 23.1085781,3.908625 22.9259062,3.726 L22.9259062,3.726 Z" id="Combined-Shape" fill="#150F2F"></path>
    </g>
</svg>