<?xml version="1.0" encoding="UTF-8"?>
<svg width="24px" height="24px" viewBox="0 0 24 24" version="1.1" xmlns="http://www.w3.org/2000/svg" xmlns:xlink="http://www.w3.org/1999/xlink">
    <title>iOS / Icon / Instrument / Singing</title>
    <g id="iOS-/-Icon-/-Instrument-/-Singing" stroke="none" stroke-width="1" fill="none" fill-rule="evenodd">
        <polygon id="Path" points="0 0 24 0 24 24 0 24"></polygon>
        <path d="M13.90625,0 C15.7155312,0 17.1875,1.47196875 17.1875,3.28125 L17.1875,3.28125 L17.1875,7.78125 L17.65625,7.78125 C18.4316562,7.78125 19.0625,8.41209375 19.0625,9.1875 L19.0625,9.1875 L19.0625,12.9375 C19.0625,15.793875 16.7403594,18.09375 13.90625,18.09375 L13.90625,18.09375 L13.4375,18.09375 L13.4375,21.1875 L13.90625,21.1875 C15.1985937,21.1875 16.25,22.2389062 16.25,23.53125 C16.25,23.7900938 16.0401406,24 15.78125,24 L15.78125,24 L8.28125,24 C8.02235937,24 7.8125,23.7900938 7.8125,23.53125 C7.8125,22.2363281 8.861375,21.1875 10.15625,21.1875 L10.15625,21.1875 L10.625,21.1875 L10.625,18.09375 L10.15625,18.09375 C7.30540625,18.09375 5,15.7778906 5,12.9375 L5,12.9375 L5,9.1875 C5,8.41209375 5.63084375,7.78125 6.40625,7.78125 L6.40625,7.78125 L6.875,7.78125 L6.875,3.28125 C6.875,1.47196875 8.34696875,0 10.15625,0 L10.15625,0 Z M13.90625,22.125 L10.15625,22.125 C9.53178125,22.125 9.018125,22.5289219 8.82978125,23.0625 L8.82978125,23.0625 L15.2322031,23.0625 C15.0387031,22.5168281 14.5174063,22.125 13.90625,22.125 L13.90625,22.125 Z M12.5,18.09375 L11.5625,18.09375 L11.5625,21.1875 L12.5,21.1875 L12.5,18.09375 Z M6.875,8.71875 L6.40625,8.71875 C6.14778125,8.71875 5.9375,8.92903125 5.9375,9.1875 L5.9375,9.1875 L5.9375,12.9375 C5.9375,15.2685 7.832375,17.15625 10.15625,17.15625 L10.15625,17.15625 L13.90625,17.15625 C16.2380937,17.15625 18.125,15.260625 18.125,12.9375 L18.125,12.9375 L18.125,9.1875 C18.125,8.92903125 17.9147187,8.71875 17.65625,8.71875 L17.65625,8.71875 L17.1875,8.71875 L17.1875,12.9375 C17.1875,14.7467813 15.7155312,16.21875 13.90625,16.21875 L13.90625,16.21875 L10.15625,16.21875 C8.34696875,16.21875 6.875,14.7467813 6.875,12.9375 L6.875,12.9375 L6.875,8.71875 Z M11.5625,0.9375 L10.625,0.9375 L10.625,2.34375 C10.625,2.60259375 10.4151406,2.8125 10.15625,2.8125 C9.89735937,2.8125 9.6875,2.60259375 9.6875,2.34375 L9.6875,2.34375 L9.6875,0.98465625 C8.61903125,1.2024375 7.8125,2.14940625 7.8125,3.28125 L7.8125,3.28125 L7.8125,4.828125 L10.15625,4.828125 C10.4151406,4.828125 10.625,5.03803125 10.625,5.296875 C10.625,5.55571875 10.4151406,5.765625 10.15625,5.765625 L10.15625,5.765625 L7.8125,5.765625 L7.8125,7.78125 L10.15625,7.78125 C10.4151406,7.78125 10.625,7.99115625 10.625,8.25 C10.625,8.50884375 10.4151406,8.71875 10.15625,8.71875 L10.15625,8.71875 L7.8125,8.71875 L7.8125,10.59375 L10.15625,10.59375 C10.4151406,10.59375 10.625,10.8036563 10.625,11.0625 C10.625,11.3213437 10.4151406,11.53125 10.15625,11.53125 L10.15625,11.53125 L7.8125,11.53125 L7.8125,12.9375 C7.8125,14.0693906 8.61903125,15.0163125 9.6875,15.2340938 L9.6875,15.2340938 L9.6875,13.875 C9.6875,13.6161562 9.89735937,13.40625 10.15625,13.40625 C10.4151406,13.40625 10.625,13.6161562 10.625,13.875 L10.625,13.875 L10.625,15.28125 L11.5625,15.28125 L11.5625,13.875 C11.5625,13.6161562 11.7723594,13.40625 12.03125,13.40625 C12.2901406,13.40625 12.5,13.6161562 12.5,13.875 L12.5,13.875 L12.5,15.28125 L13.4375,15.28125 L13.4375,13.875 C13.4375,13.6161562 13.6473594,13.40625 13.90625,13.40625 C14.1651406,13.40625 14.375,13.6161562 14.375,13.875 L14.375,13.875 L14.375,15.2340938 C15.4434687,15.0163125 16.25,14.0693437 16.25,12.9375 L16.25,12.9375 L16.25,11.53125 L13.90625,11.53125 C13.6473594,11.53125 13.4375,11.3213437 13.4375,11.0625 C13.4375,10.8036563 13.6473594,10.59375 13.90625,10.59375 L13.90625,10.59375 L16.25,10.59375 L16.25,8.71875 L13.90625,8.71875 C13.6473594,8.71875 13.4375,8.50884375 13.4375,8.25 C13.4375,7.99115625 13.6473594,7.78125 13.90625,7.78125 L13.90625,7.78125 L16.25,7.78125 L16.25,5.765625 L13.90625,5.765625 C13.6473594,5.765625 13.4375,5.55571875 13.4375,5.296875 C13.4375,5.03803125 13.6473594,4.828125 13.90625,4.828125 L13.90625,4.828125 L16.25,4.828125 L16.25,3.28125 C16.25,2.14935938 15.4434687,1.2024375 14.375,0.98465625 L14.375,0.98465625 L14.375,2.34375 C14.375,2.60259375 14.1651406,2.8125 13.90625,2.8125 C13.6473594,2.8125 13.4375,2.60259375 13.4375,2.34375 L13.4375,2.34375 L13.4375,0.9375 L12.5,0.9375 L12.5,2.34375 C12.5,2.60259375 12.2901406,2.8125 12.03125,2.8125 C11.7723594,2.8125 11.5625,2.60259375 11.5625,2.34375 L11.5625,2.34375 L11.5625,0.9375 Z M12.03125,7.78125 C12.29,7.78125 12.5,7.99125 12.5,8.25 C12.5,8.50875 12.29,8.71875 12.03125,8.71875 C11.7725,8.71875 11.5625,8.50875 11.5625,8.25 C11.5625,7.99125 11.7725,7.78125 12.03125,7.78125 Z" id="Combined-Shape" fill="#150F2F"></path>
    </g>
</svg>