<?xml version="1.0" encoding="UTF-8"?>
<svg width="106px" height="90px" viewBox="0 0 106 90" version="1.1" xmlns="http://www.w3.org/2000/svg" xmlns:xlink="http://www.w3.org/1999/xlink">
    <title>Icon / Singing</title>
    <g id="Icon-/-Singing" stroke="none" stroke-width="1" fill="none" fill-rule="evenodd">
        <path d="M88.7517737,78.2486701 C81.758741,80.0829061 74.1640249,79.4748591 67.5434187,76.5503642 C60.9228125,73.6258694 55.3190118,68.4034734 51.8952404,61.9675657 C49.6599853,57.7659374 48.3445424,52.7379286 49.826127,48.2080957 C50.3686398,46.548996 51.3297555,44.9558659 52.8141245,44.062342 C54.8546969,42.8338053 57.5408085,43.1695224 59.6038889,44.3590877 C61.6669693,45.5481835 63.2149177,47.4648228 64.5892992,49.423955 C68.7507302,55.3553479 71.7909371,62.0861232 76.4556661,67.6207596 C81.120163,73.1556307 88.1057704,77.5042233 95.1969566,76.3071454 L88.7517737,78.2486701 Z" id="shape-blob-yellow" fill="#FFBC65" transform="translate(72.196957, 61.288611) rotate(-90.000000) translate(-72.196957, -61.288611) "></path>
        <path d="M85,28 C84.7317433,19.2973682 80.5324039,10.7939142 73.7991026,5.31927076 C71.7811212,3.67831847 69.4458406,2.26357639 66.8610636,2.02860295 C64.2762866,1.79362952 61.4278321,3.01394668 60.4007459,5.41046779 C59.2894602,8.0033447 60.6239485,11.1171141 62.7505029,12.9608089 C64.8769097,14.8046523 67.634665,15.6919666 70.2764613,16.6489413 C73.5306982,17.8276702 76.7574595,19.1948829 79.556576,21.2382012 C81.4228506,22.6003144 83.2373253,24.8542473 85,28 Z" id="shape-blob-red2" fill="#FF6F6F" transform="translate(72.500000, 15.000000) scale(-1, 1) translate(-72.500000, -15.000000) "></path>
        <path d="M21.8166927,44.6200564 C20.0927908,41.10243 19.6096794,37.0136203 20.4674595,33.2024812 C21.3252395,29.3913421 23.5185865,25.882072 26.5918991,23.40323 C28.598533,21.7850801 31.1443632,20.569074 33.7216081,20.8871331 C34.6656454,21.0035981 35.6187344,21.348815 36.254127,22.043427 C37.1273482,22.9984749 37.2336611,24.4569859 36.8178161,25.6733403 C36.4023261,26.8895205 35.5431262,27.9079365 34.6429274,28.8386121 C31.917306,31.6562297 28.6455663,33.9622022 26.1854608,37.0057863 C23.7253554,40.0493705 22.145748,44.200852 23.5395297,47.8363361 L21.8166927,44.6200564 Z" id="shape-blob-green" fill="#00A19E" transform="translate(28.552577, 34.336336) scale(-1, 1) rotate(34.000000) translate(-28.552577, -34.336336) "></path>
        <g id="iOS-/-Icon-/-Guitar" transform="translate(21.000000, 13.000000)">
            <polygon id="Path" points="0 0 64 0 64 64 0 64"></polygon>
            <path d="M37.0833333,0 C41.9080833,0 45.8333333,3.92525 45.8333333,8.75 L45.8333333,8.75 L45.8333333,20.75 L47.0833333,20.75 C49.1510833,20.75 50.8333333,22.43225 50.8333333,24.5 L50.8333333,24.5 L50.8333333,34.5 C50.8333333,42.117 44.6409583,48.25 37.0833333,48.25 L37.0833333,48.25 L35.8333333,48.25 L35.8333333,56.5 L37.0833333,56.5 C40.5295833,56.5 43.3333333,59.30375 43.3333333,62.75 C43.3333333,63.44025 42.7737083,64 42.0833333,64 L42.0833333,64 L22.0833333,64 C21.3929583,64 20.8333333,63.44025 20.8333333,62.75 C20.8333333,59.296875 23.6303333,56.5 27.0833333,56.5 L27.0833333,56.5 L28.3333333,56.5 L28.3333333,48.25 L27.0833333,48.25 C19.4810833,48.25 13.3333333,42.074375 13.3333333,34.5 L13.3333333,34.5 L13.3333333,24.5 C13.3333333,22.43225 15.0155833,20.75 17.0833333,20.75 L17.0833333,20.75 L18.3333333,20.75 L18.3333333,8.75 C18.3333333,3.92525 22.2585833,0 27.0833333,0 L27.0833333,0 Z M37.0833333,59 L27.0833333,59 C25.4180833,59 24.0483333,60.077125 23.5460833,61.5 L23.5460833,61.5 L40.6192083,61.5 C40.1032083,60.044875 38.7130833,59 37.0833333,59 L37.0833333,59 Z M33.3333333,48.25 L30.8333333,48.25 L30.8333333,56.5 L33.3333333,56.5 L33.3333333,48.25 Z M18.3333333,23.25 L17.0833333,23.25 C16.3940833,23.25 15.8333333,23.81075 15.8333333,24.5 L15.8333333,24.5 L15.8333333,34.5 C15.8333333,40.716 20.8863333,45.75 27.0833333,45.75 L27.0833333,45.75 L37.0833333,45.75 C43.3015833,45.75 48.3333333,40.695 48.3333333,34.5 L48.3333333,34.5 L48.3333333,24.5 C48.3333333,23.81075 47.7725833,23.25 47.0833333,23.25 L47.0833333,23.25 L45.8333333,23.25 L45.8333333,34.5 C45.8333333,39.32475 41.9080833,43.25 37.0833333,43.25 L37.0833333,43.25 L27.0833333,43.25 C22.2585833,43.25 18.3333333,39.32475 18.3333333,34.5 L18.3333333,34.5 L18.3333333,23.25 Z M30.8333333,2.5 L28.3333333,2.5 L28.3333333,6.25 C28.3333333,6.94025 27.7737083,7.5 27.0833333,7.5 C26.3929583,7.5 25.8333333,6.94025 25.8333333,6.25 L25.8333333,6.25 L25.8333333,2.62575 C22.9840833,3.2065 20.8333333,5.73175 20.8333333,8.75 L20.8333333,8.75 L20.8333333,12.875 L27.0833333,12.875 C27.7737083,12.875 28.3333333,13.43475 28.3333333,14.125 C28.3333333,14.81525 27.7737083,15.375 27.0833333,15.375 L27.0833333,15.375 L20.8333333,15.375 L20.8333333,20.75 L27.0833333,20.75 C27.7737083,20.75 28.3333333,21.30975 28.3333333,22 C28.3333333,22.69025 27.7737083,23.25 27.0833333,23.25 L27.0833333,23.25 L20.8333333,23.25 L20.8333333,28.25 L27.0833333,28.25 C27.7737083,28.25 28.3333333,28.80975 28.3333333,29.5 C28.3333333,30.19025 27.7737083,30.75 27.0833333,30.75 L27.0833333,30.75 L20.8333333,30.75 L20.8333333,34.5 C20.8333333,37.518375 22.9840833,40.0435 25.8333333,40.62425 L25.8333333,40.62425 L25.8333333,37 C25.8333333,36.30975 26.3929583,35.75 27.0833333,35.75 C27.7737083,35.75 28.3333333,36.30975 28.3333333,37 L28.3333333,37 L28.3333333,40.75 L30.8333333,40.75 L30.8333333,37 C30.8333333,36.30975 31.3929583,35.75 32.0833333,35.75 C32.7737083,35.75 33.3333333,36.30975 33.3333333,37 L33.3333333,37 L33.3333333,40.75 L35.8333333,40.75 L35.8333333,37 C35.8333333,36.30975 36.3929583,35.75 37.0833333,35.75 C37.7737083,35.75 38.3333333,36.30975 38.3333333,37 L38.3333333,37 L38.3333333,40.62425 C41.1825833,40.0435 43.3333333,37.51825 43.3333333,34.5 L43.3333333,34.5 L43.3333333,30.75 L37.0833333,30.75 C36.3929583,30.75 35.8333333,30.19025 35.8333333,29.5 C35.8333333,28.80975 36.3929583,28.25 37.0833333,28.25 L37.0833333,28.25 L43.3333333,28.25 L43.3333333,23.25 L37.0833333,23.25 C36.3929583,23.25 35.8333333,22.69025 35.8333333,22 C35.8333333,21.30975 36.3929583,20.75 37.0833333,20.75 L37.0833333,20.75 L43.3333333,20.75 L43.3333333,15.375 L37.0833333,15.375 C36.3929583,15.375 35.8333333,14.81525 35.8333333,14.125 C35.8333333,13.43475 36.3929583,12.875 37.0833333,12.875 L37.0833333,12.875 L43.3333333,12.875 L43.3333333,8.75 C43.3333333,5.731625 41.1825833,3.2065 38.3333333,2.62575 L38.3333333,2.62575 L38.3333333,6.25 C38.3333333,6.94025 37.7737083,7.5 37.0833333,7.5 C36.3929583,7.5 35.8333333,6.94025 35.8333333,6.25 L35.8333333,6.25 L35.8333333,2.5 L33.3333333,2.5 L33.3333333,6.25 C33.3333333,6.94025 32.7737083,7.5 32.0833333,7.5 C31.3929583,7.5 30.8333333,6.94025 30.8333333,6.25 L30.8333333,6.25 L30.8333333,2.5 Z M32.0833333,20.75 C32.7733333,20.75 33.3333333,21.31 33.3333333,22 C33.3333333,22.69 32.7733333,23.25 32.0833333,23.25 C31.3933333,23.25 30.8333333,22.69 30.8333333,22 C30.8333333,21.31 31.3933333,20.75 32.0833333,20.75 Z" id="Combined-Shape" fill="#141E29" fill-rule="nonzero"></path>
        </g>
    </g>
</svg>