<svg width="20" height="20" viewBox="0 0 20 20" fill="none" xmlns="http://www.w3.org/2000/svg">
<path fill-rule="evenodd" clip-rule="evenodd" d="M5.83333 5.83317C5.83333 3.53198 7.69881 1.6665 10 1.6665C12.3012 1.6665 14.1667 3.53198 14.1667 5.83317C14.1667 8.13436 12.3012 9.99984 10 9.99984C7.69881 9.99984 5.83333 8.13436 5.83333 5.83317ZM12.5 5.83317C12.5 4.45246 11.3807 3.33317 10 3.33317C8.61929 3.33317 7.5 4.45246 7.5 5.83317C7.5 7.21388 8.61929 8.33317 10 8.33317C11.3807 8.33317 12.5 7.21388 12.5 5.83317ZM17.4962 15.6524C17.4015 13.4351 15.574 11.6665 13.3333 11.6665H6.66667L6.48592 11.6704C4.26859 11.765 2.5 13.5925 2.5 15.8332V17.4998L2.50561 17.597C2.55374 18.0115 2.90597 18.3332 3.33333 18.3332C3.79357 18.3332 4.16667 17.9601 4.16667 17.4998V15.8332L4.17091 15.6863C4.24695 14.3739 5.33527 13.3332 6.66667 13.3332H13.3333L13.4802 13.3374C14.7926 13.4135 15.8333 14.5018 15.8333 15.8332V17.4998L15.8389 17.597C15.8871 18.0115 16.2393 18.3332 16.6667 18.3332C17.1269 18.3332 17.5 17.9601 17.5 17.4998V15.8332L17.4962 15.6524Z" fill="#392396"/>
</svg>
