<?xml version="1.0" encoding="UTF-8"?>
<svg width="40px" height="40px" viewBox="0 0 40 40" version="1.1" xmlns="http://www.w3.org/2000/svg" xmlns:xlink="http://www.w3.org/1999/xlink">
    <title>rythmico-violin-icon</title>
    <g id="High-Fidelity" stroke="none" stroke-width="1" fill="none" fill-rule="evenodd">
        <g id="rythmico-violin-icon" transform="translate(0.000000, 0.000000)">
            <polygon id="Path" points="0 0 40 0 40 40 0 40"></polygon>
            <path d="M37.0092969,-4.20404452e-14 C37.2164844,-4.20404452e-14 37.4152344,0.08234375 37.5617188,0.228828125 L37.5617188,0.228828125 L39.7710938,2.438125 C40.0760156,2.74320312 40.0761719,3.23757812 39.7714063,3.54273437 C39.1894531,4.12539062 38.5219531,5.26085937 38.4946094,5.95859375 C38.4666406,6.68703125 38.2,7.32421875 37.7234375,7.80078125 C36.9802344,8.54398437 35.8885938,8.73039062 34.8460156,8.46804687 L34.8460156,8.46804687 L34.4085156,8.90554687 L36.0657031,10.5632812 C36.3707813,10.8684375 36.3707031,11.363125 36.0655469,11.668125 C35.7603125,11.9732812 35.2655469,11.9729687 34.9607031,11.6678906 L34.9607031,11.6678906 L33.3038281,10.0103906 L32.1989844,11.1152344 L33.85625,12.7725 C34.1613281,13.0776562 34.1613281,13.5723437 33.85625,13.8774219 C33.5511719,14.1824219 33.0565625,14.1825 32.7514063,13.8774219 L32.7514063,13.8774219 L31.0941406,12.2201562 L24.6099219,18.7046875 C25.2033594,19.7129687 25.5955469,20.8200781 25.7570313,21.9521875 L25.7570313,21.9521875 L34.6203125,30.8146875 C36.2380469,32.4324219 36.8646094,34.7358594 36.3124219,36.9263281 L36.3124219,36.9263281 L37.0914063,37.7053906 C37.3964844,38.0105469 37.3964844,38.5052344 37.0914063,38.8103125 C36.9389063,38.9628125 36.7389063,39.0391406 36.5389844,39.0391406 C36.3390625,39.0391406 36.1391406,38.9628125 35.9865625,38.8103125 L35.9865625,38.8103125 L24.5675,27.3911719 C24.4975,27.4946094 24.4250781,27.5964062 24.3499219,27.6959375 C24.1664844,27.93875 23.8588281,28.0529687 23.5613281,27.9885937 C21.8895313,27.6273437 19.9278125,28.4503125 18.6796094,30.0374219 C17.4332813,31.6221875 17.21,33.5460937 18.0671094,35.3157812 C18.1863281,35.5619531 18.168125,35.8525781 18.0190625,36.0819531 C17.6960938,36.5791406 17.3196094,37.0439062 16.9,37.4634375 C13.4309375,40.9307031 7.74023438,40.7675781 3.8321875,37.4367969 C3.81648438,37.4233594 3.80125,37.409375 3.7865625,37.3946875 L3.74835938,37.3564844 L2.090625,39.0142187 C1.78546875,39.3192969 1.29085938,39.3192969 0.985703125,39.0142187 C0.680625,38.7090625 0.680625,38.214375 0.985703125,37.9092969 L0.985703125,37.9092969 L2.6434375,36.2515625 L2.6053125,36.2134375 C2.59070313,36.19875 2.5765625,36.1835156 2.563125,36.1677344 C-0.80625,32.2145312 -0.893125,26.5314062 2.53640625,23.1000781 C2.95617188,22.6803906 3.4209375,22.3039062 3.91804688,21.9808594 C4.14742188,21.8317969 4.43804688,21.8136719 4.68429688,21.9328906 C6.4540625,22.7902344 8.37828125,22.566875 9.96351563,21.3203125 C11.5500781,20.0727344 12.3730469,18.1108594 12.0113281,16.4386719 C11.9470313,16.14125 12.0611719,15.8335937 12.3039063,15.6501562 C12.4033594,15.5749219 12.5051563,15.5025 12.6086719,15.4325 L12.6086719,15.4325 L1.79117188,4.615 C1.48609375,4.30984375 1.48609375,3.81515625 1.79117188,3.51007812 C2.09640625,3.20507812 2.59101563,3.20515625 2.89609375,3.51007812 L2.89609375,3.51007812 L6.9890625,7.60328125 C9.1796875,7.05125 11.4830469,7.67773437 13.1007031,9.2953125 L13.1007031,9.2953125 L18.0475781,14.2429687 C19.1799219,14.4044531 20.2869531,14.7967187 21.2947656,15.3901562 L21.2947656,15.3901562 L27.779375,8.90554687 L26.1224219,7.24859375 C25.8173438,6.9434375 25.8173438,6.44875 26.1224219,6.14367187 C26.4275781,5.83867187 26.9222656,5.83867187 27.2273438,6.14367187 L27.2273438,6.14367187 L28.8842969,7.80070312 L29.9888281,6.69617187 L28.331875,5.03921875 C28.0267188,4.7340625 28.0267969,4.239375 28.331875,3.93429687 C28.6369531,3.62929687 29.1316406,3.629375 29.4367188,3.93429687 L29.4367188,3.93429687 L31.0938281,5.59148437 L31.5319531,5.153125 C31.2547656,4.05140625 31.493125,2.98234375 32.1990625,2.27648437 C32.6755469,1.79992187 33.3127344,1.53320312 34.0417969,1.5053125 C34.7399219,1.47796875 35.8750781,0.810703125 36.456875,0.228828125 C36.6033594,0.08234375 36.8021094,-4.20404452e-14 37.0092969,-4.20404452e-14 Z M17.5996875,15.7610156 C16.4063281,15.6309375 15.2375,15.8195312 14.21875,16.3064062 C14.0138281,16.4039062 13.8149219,16.5136719 13.62375,16.6348437 C13.8553125,18.7464062 12.8167188,21.0641406 10.9291406,22.5484375 C9.0115625,24.0563281 6.61265625,24.4090625 4.42804688,23.5275 C4.14953125,23.7332031 3.88601563,23.9599219 3.64132813,24.2046875 C0.900234375,26.9471094 0.900390625,31.6346094 3.604375,34.9726562 L3.604375,34.9726562 L6.39242188,30.3253125 C6.51617188,30.1190625 6.728125,29.98125 6.966875,29.951875 C7.20554688,29.9219531 7.44460938,30.0046875 7.61476563,30.1748437 L7.61476563,30.1748437 L9.82492188,32.385 C9.995,32.5551562 10.0772656,32.7941406 10.0478906,33.0328906 C10.0184375,33.2717187 9.88070313,33.4836719 9.674375,33.6074219 L9.674375,33.6074219 L5.02695313,36.3954687 C8.365,39.099375 13.0525781,39.0997656 15.7951563,36.3583594 C16.0398438,36.1138281 16.2665625,35.8503125 16.4722656,35.5717969 C15.5907813,33.3872656 15.9436719,30.9885937 17.4513281,29.0715625 C18.9360156,27.1836719 21.25375,26.144375 23.3649219,26.3761719 C23.4860156,26.185 23.5957031,25.9864062 23.6928125,25.7823437 C24.1803906,24.7621875 24.3689844,23.5932812 24.2388281,22.4003125 C24.1433594,21.5225781 23.8773438,20.6567969 23.4610156,19.8535937 L23.4610156,19.8535937 L18.6640625,24.6507812 C18.5175781,24.7973437 18.3189063,24.8796875 18.1116406,24.8796875 C17.904375,24.8796875 17.705625,24.7973437 17.5591406,24.6508594 L17.5591406,24.6508594 L15.3489844,22.4407031 C15.2025,22.2941406 15.1201563,22.0954687 15.1201563,21.8882812 C15.1201563,21.6810937 15.2025,21.4824219 15.3489844,21.3358594 L15.3489844,21.3358594 L20.1459375,16.5388281 C19.343125,16.1225 18.4774219,15.8564844 17.5996875,15.7610156 Z M25.7728906,24.1777344 C25.6930469,24.7854687 25.543125,25.3765625 25.3253125,25.9392187 L25.3253125,25.9392187 L34.9413281,35.5553125 C34.9971094,34.2174219 34.4974219,32.9016406 33.5153906,31.9196094 L33.5153906,31.9196094 Z M7.2175,31.9872656 L6.02546875,33.974375 L8.0125,32.7822656 L7.2175,31.9872656 Z M15.556875,25.6033594 C15.9401562,25.5377344 16.331875,25.7057812 16.5796094,26.0409375 C16.7445312,26.2641406 17.0742187,26.8903906 16.5741406,27.8828125 C16.0291406,28.9660937 15.5183594,29.36875 15.0677344,29.7240625 C14.8746094,29.8763281 14.6921094,30.0202344 14.5035156,30.2244531 C13.6091406,31.1934375 13.8364062,32.1807031 14.1124219,32.344375 C14.4835937,32.5644531 14.6060156,33.0436719 14.3859375,33.4148437 C14.16625,33.7853125 13.6875,33.9088281 13.3154687,33.6883594 C12.1585156,33.0023437 11.7701562,30.8820312 13.3554687,29.1646094 C13.6278125,28.8696875 13.8788281,28.6717187 14.1003125,28.4971094 C14.4852344,28.1936719 14.7892969,27.9539062 15.1785937,27.1801562 C15.2110156,27.1157812 15.2328125,27.0621094 15.2474219,27.0185156 C15.0786719,26.9032031 14.9551562,26.7221875 14.9180469,26.5047656 C14.8455469,26.0794531 15.1315625,25.6758594 15.556875,25.6033594 Z M9.60382812,29.2914062 C9.90851562,28.9859375 10.4038281,28.9859375 10.7085156,29.2914062 C11.0139844,29.5960937 11.0139844,30.0914062 10.7085156,30.3960937 C10.4038281,30.7015625 9.90851562,30.7015625 9.60382812,30.3960937 C9.29835937,30.0914062 9.29835937,29.5960937 9.60382812,29.2914062 Z M12.0932031,23.4021875 C13.0861719,22.9023438 13.7125,23.2321094 13.9357031,23.3970313 C14.2708594,23.6448438 14.4384375,24.0367188 14.3732031,24.4196094 C14.300625,24.845 13.8971094,25.1314063 13.4717188,25.0584375 C13.2542187,25.0213281 13.0732813,24.8977344 12.9578906,24.7289844 C12.9142187,24.7435156 12.8603906,24.7653125 12.7958594,24.7978906 C12.0223437,25.1873438 11.7825,25.49125 11.4789063,25.8761719 C11.3042969,26.0975 11.1064844,26.3482813 10.8119531,26.6201563 C9.0859375,28.214375 6.96851563,27.8083594 6.288125,26.6610156 C6.06804688,26.2898438 6.19054688,25.810625 6.56164063,25.5905469 C6.93265625,25.370625 7.41203125,25.4929688 7.63210938,25.8640625 C7.79632813,26.1410938 8.78734375,26.363125 9.751875,25.4721875 C9.9559375,25.28375 10.0997656,25.1014063 10.2520312,24.9084375 C10.6073438,24.4579688 11.0100781,23.9474219 12.0932031,23.4021875 Z M32.2436719,6.65140625 L30.4822767,8.41251274 C30.4070449,8.48773314 30.3343181,8.56044919 30.2634636,8.6312936 L30.1240636,8.77067437 C30.0096648,8.88505788 29.899295,8.99541411 29.7900249,9.10467234 L29.659241,9.23544266 C29.6156973,9.27898206 29.5721421,9.32253326 29.5283879,9.36628373 L29.3295175,9.56513861 C29.2847443,9.6099087 29.2394909,9.65515926 29.1935697,9.70107778 L29.0536155,9.84102466 C28.8638388,10.0307922 28.6603786,10.2342466 28.4312358,10.4633861 L28.2543756,10.6402442 C28.0419833,10.8526347 27.807631,11.0869869 27.5432804,11.3513388 L27.0592219,11.8354006 C26.9731478,11.9214754 26.8842499,12.0103741 26.7923408,12.1022842 L26.5073919,12.3872361 C26.1639745,12.7306572 25.7813721,13.1132641 25.3515461,13.5430949 L24.772259,14.1223885 C24.6374648,14.2571841 24.4985344,14.396116 24.3552804,14.5393715 L23.9123596,14.9822966 C23.2279595,15.6667034 22.4522081,16.4424612 21.568021,17.3266536 L18.1956812,20.6990055 C17.8135987,21.0810885 17.4173586,21.4773289 17.0063281,21.8883594 L17.0063281,21.8883594 L18.1115625,22.9935937 C18.9672703,22.1378906 19.761667,21.3434992 20.4998382,20.6053336 L21.9027198,19.2024633 C22.1245411,18.9806439 22.3404918,18.7646951 22.5507603,18.5544286 L23.7456912,17.3595091 C23.9339841,17.1712181 24.1169715,16.9882325 24.2948418,16.8103641 L25.0613527,16.0438612 C25.2242952,15.8809204 25.3824031,15.7228141 25.5358646,15.5693542 L27.677666,13.4275719 C27.731691,13.3735472 27.7848134,13.3204251 27.8370567,13.268182 L28.2841482,12.821092 C28.3313291,12.7739111 28.3777017,12.7275385 28.4232893,12.6819508 L28.6875852,12.4176544 C28.7301276,12.3751119 28.7719322,12.3333071 28.8130225,12.2922165 L29.1641868,11.9410488 C29.2012036,11.9040315 29.2375768,11.8676578 29.2733299,11.8319041 L29.4805963,11.6246335 C29.5139634,11.5912657 29.5467575,11.5584708 29.5790021,11.5262253 L29.9410721,11.1641423 C30.0257498,11.0794607 30.1063303,10.9988759 30.1834491,10.9217521 L30.3332597,10.7719311 C30.4303075,10.6748757 30.5219548,10.58322 30.6097084,10.4954569 L31.1015593,10.0035352 C31.1993166,9.90576016 31.2956987,9.8093584 31.3936487,9.71138672 L31.8879038,9.21701046 C31.9321043,9.17279848 31.9773089,9.12758187 32.0237062,9.08117227 L32.2411799,8.86364055 C32.5435734,8.561166 32.8990719,8.20557187 33.3483594,7.75617187 C33.1380469,7.60414062 32.9374219,7.4346875 32.7513281,7.24851562 C32.5651563,7.06234375 32.3957031,6.86171875 32.2436719,6.65140625 L32.2436719,6.65140625 Z M8.6107408,8.97023754 L8.36023438,8.97421875 L14.0605469,14.6746094 C14.6230469,14.4567187 15.2142969,14.306875 15.8221875,14.2269531 L15.8221875,14.2269531 L11.9958594,10.4 C11.0139063,9.41804687 9.69804688,8.91835937 8.36023438,8.97421875 Z M36.9688281,1.84578125 C36.2088281,2.425625 35.1103125,3.02726562 34.1022656,3.06664062 C33.8725,3.07546875 33.5480469,3.1371875 33.3039063,3.38132812 C32.6714844,4.01375 33.0096875,5.29703125 33.85625,6.14375 C34.6878906,6.97539062 35.97375,7.34054687 36.6185938,6.69601562 C36.8627344,6.45179687 36.9244531,6.12734375 36.9332813,5.898125 C36.9727344,4.89054687 37.5746094,3.79171875 38.154375,3.03140625 L38.154375,3.03140625 Z" id="Combined-Shape" fill="#141E29" fill-rule="nonzero"></path>
        </g>
    </g>
</svg>