<?xml version="1.0" encoding="UTF-8"?>
<svg width="106px" height="90px" viewBox="0 0 106 90" version="1.1" xmlns="http://www.w3.org/2000/svg" xmlns:xlink="http://www.w3.org/1999/xlink">
    <title>Icon / Violin</title>
    <g id="Icon-/-Violin" stroke="none" stroke-width="1" fill="none" fill-rule="evenodd">
        <path d="M40.4739213,82.6083489 C34.0238259,84.289732 27.0187616,83.7323555 20.9121776,81.0515686 C14.8055936,78.3707817 9.63687065,73.5835853 6.47892004,67.6840033 C4.41720956,63.8325107 3.20389732,59.2235026 4.57045203,55.0711558 C5.07084434,53.5503144 5.95733918,52.0899451 7.32646219,51.2708815 C9.20860503,50.1447229 11.6861676,50.4524636 13.589071,51.5428985 C15.4919743,52.6329029 16.9197404,54.3898223 18.1874152,56.1856935 C22.0257538,61.6228037 24.8299198,67.7926809 29.1324803,72.8660976 C33.4348269,77.9397296 39.8780734,81.9259394 46.4187017,80.828618 L40.4739213,82.6083489 Z" id="shape-blob-yellow" fill-opacity="0.6" fill="#FFBC65"></path>
        <path d="M91.05,67 C90.6626374,54.2807688 84.5987913,41.8526438 74.8759042,33.8512419 C71.961939,31.452927 68.5897938,29.385227 64.8573758,29.0418043 C61.1249578,28.6983816 57.0117896,30.4819221 55.5286771,33.9845298 C53.9239805,37.7741192 55.8509816,42.3250128 58.9217262,45.0196438 C61.9922576,47.7144918 65.9744562,49.0113359 69.7892101,50.4099911 C74.4883283,52.1327488 79.1477716,54.1309827 83.1896957,57.117371 C85.8845963,59.1081518 88.5046977,62.4023615 91.05,67 Z" id="shape-blob-red2" fill="#FF6F6F" fill-opacity="0.6" transform="translate(73.000000, 48.000000) scale(-1, -1) rotate(-45.000000) translate(-73.000000, -48.000000) "></path>
        <path d="M41.0188441,36.8706632 C38.6865063,32.3107772 38.032885,27.0104683 39.193411,22.0701028 C40.3539369,17.1297373 43.3214064,12.5806835 47.4794176,9.36736977 C50.1942752,7.26976804 53.6386337,5.69346379 57.1254944,6.1057627 C58.4027213,6.25673586 59.6921946,6.70423927 60.5518435,7.60466218 C61.7332604,8.84268725 61.8770955,10.7333497 61.3144817,12.3101053 C60.7523482,13.8866352 59.5899012,15.2068041 58.3719853,16.4132354 C54.6843797,20.0657028 50.2579084,23.0549263 46.9295305,27.0003131 C43.6011525,30.9457 41.4640366,36.3272501 43.3497412,41.0399147 L41.0188441,36.8706632 Z" id="shape-blob-green" fill-opacity="0.6" fill="#00A19E"></path>
        <g id="iOS-/-Icon-/-Guitar" transform="translate(20.999997, 13.000000)">
            <polygon id="Path" points="3.40543579e-06 0 64.0000034 0 64.0000034 64 3.40543579e-06 64"></polygon>
            <path d="M59.2148784,0 C59.5463784,0 59.8643784,0.13175 60.0987534,0.366125 L60.0987534,0.366125 L63.6337534,3.901 C64.1216284,4.389125 64.1218784,5.180125 63.6342534,5.668375 C62.7031284,6.600625 61.6351284,8.417375 61.5913784,9.53375 C61.5466284,10.69925 61.1200034,11.71875 60.3575034,12.48125 C59.1683784,13.670375 57.4217534,13.968625 55.7536284,13.548875 L55.7536284,13.548875 L55.0536284,14.248875 L57.7051284,16.90125 C58.1932534,17.3895 58.1931284,18.181 57.7048784,18.669 C57.2165034,19.15725 56.4248784,19.15675 55.9371284,18.668625 L55.9371284,18.668625 L53.2861284,16.016625 L51.5183784,17.784375 L54.1700034,20.436 C54.6581284,20.92425 54.6581284,21.71575 54.1700034,22.203875 C53.6818784,22.691875 52.8905034,22.692 52.4022534,22.203875 L52.4022534,22.203875 L49.7506284,19.55225 L39.3758784,29.9275 C40.3253784,31.54075 40.9528784,33.312125 41.2112534,35.1235 L41.2112534,35.1235 L55.3925034,49.3035 C57.9808784,51.891875 58.9833784,55.577375 58.0998784,59.082125 L58.0998784,59.082125 L59.3462534,60.328625 C59.8343784,60.816875 59.8343784,61.608375 59.3462534,62.0965 C59.1022534,62.3405 58.7822534,62.462625 58.4623784,62.462625 C58.1425034,62.462625 57.8226284,62.3405 57.5785034,62.0965 L57.5785034,62.0965 L39.3080034,43.825875 C39.1960034,43.991375 39.0801284,44.15425 38.9598784,44.3135 C38.6663784,44.702 38.1741284,44.88475 37.6981284,44.78175 C35.0232534,44.20375 31.8845034,45.5205 29.8873784,48.059875 C27.8932534,50.5955 27.5360034,53.67375 28.9073784,56.50525 C29.0981284,56.899125 29.0690034,57.364125 28.8305034,57.731125 C28.3137534,58.526625 27.7113784,59.27025 27.0400034,59.9415 C21.4895034,65.489125 12.3843784,65.228125 6.13150341,59.898875 C6.10637841,59.877375 6.08200341,59.855 6.05850341,59.8315 L6.05850341,59.8315 L5.99737841,59.770375 L3.34500341,62.42275 C2.85675341,62.910875 2.06537841,62.910875 1.57712841,62.42275 C1.08900341,61.9345 1.08900341,61.143 1.57712841,60.654875 L1.57712841,60.654875 L4.22950341,58.0025 L4.16850341,57.9415 C4.14512841,57.918 4.12250341,57.893625 4.10100341,57.868375 C-1.28999659,51.54325 -1.42899659,42.45025 4.05825341,36.960125 C4.72987841,36.288625 5.47350341,35.68625 6.26887841,35.169375 C6.63587841,34.930875 7.10087841,34.901875 7.49487841,35.092625 C10.3265034,36.464375 13.4052534,36.107 15.9416284,34.1125 C18.4801284,32.116375 19.7968784,28.977375 19.2181284,26.301875 C19.1152534,25.826 19.2978784,25.33375 19.6862534,25.04025 C19.8453784,24.919875 20.0082534,24.804 20.1738784,24.692 L20.1738784,24.692 L2.86587841,7.384 C2.37775341,6.89575 2.37775341,6.10425 2.86587841,5.616125 C3.35425341,5.128125 4.14562841,5.12825 4.63375341,5.616125 L4.63375341,5.616125 L11.1825034,12.16525 C14.6875034,11.282 18.3728784,12.284375 20.9611284,14.8725 L20.9611284,14.8725 L28.8761284,22.78875 C30.6878784,23.047125 32.4591284,23.67475 34.0716284,24.62425 L34.0716284,24.62425 L44.4470034,14.248875 L41.7958784,11.59775 C41.3077534,11.1095 41.3077534,10.318 41.7958784,9.829875 C42.2841284,9.341875 43.0756284,9.341875 43.5637534,9.829875 L43.5637534,9.829875 L46.2148784,12.481125 L47.9821284,10.713875 L45.3310034,8.06275 C44.8427534,7.5745 44.8428784,6.783 45.3310034,6.294875 C45.8191284,5.806875 46.6106284,5.807 47.0987534,6.294875 L47.0987534,6.294875 L49.7501284,8.946375 L50.4511284,8.245 C50.0076284,6.48225 50.3890034,4.77175 51.5185034,3.642375 C52.2808784,2.879875 53.3003784,2.453125 54.4668784,2.4085 C55.5838784,2.36475 57.4001284,1.297125 58.3310034,0.366125 C58.5653784,0.13175 58.8833784,0 59.2148784,0 Z M28.1595034,25.217625 C26.2501284,25.0095 24.3800034,25.31125 22.7500034,26.09025 C22.4221284,26.24625 22.1038784,26.421875 21.7980034,26.61575 C22.1685034,29.99425 20.5067534,33.702625 17.4866284,36.0775 C14.4185034,38.490125 10.5802534,39.0545 7.08487841,37.644 C6.63925341,37.973125 6.21762841,38.335875 5.82612841,38.7275 C1.44037841,43.115375 1.44062841,50.615375 5.76700341,55.95625 L5.76700341,55.95625 L10.2278784,48.5205 C10.4258784,48.1905 10.7650034,47.97 11.1470034,47.923 C11.5288784,47.875125 11.9113784,48.0075 12.1836284,48.27975 L12.1836284,48.27975 L15.7198784,51.816 C15.9920034,52.08825 16.1236284,52.470625 16.0766284,52.852625 C16.0295034,53.23475 15.8091284,53.573875 15.4790034,53.771875 L15.4790034,53.771875 L8.04312841,58.23275 C13.3840034,62.559 20.8841284,62.559625 25.2722534,58.173375 C25.6637534,57.782125 26.0265034,57.3605 26.3556284,56.914875 C24.9452534,53.419625 25.5098784,49.58175 27.9221284,46.5145 C30.2976284,43.493875 34.0060034,41.831 37.3838784,42.201875 C37.5776284,41.896 37.7531284,41.57825 37.9085034,41.25175 C38.6886284,39.6195 38.9903784,37.74925 38.7821284,35.8405 C38.6293784,34.436125 38.2037534,33.050875 37.5376284,31.76575 L37.5376284,31.76575 L29.8625034,39.44125 C29.6281284,39.67575 29.3102534,39.8075 28.9786284,39.8075 C28.6470034,39.8075 28.3290034,39.67575 28.0946284,39.441375 L28.0946284,39.441375 L24.5583784,35.905125 C24.3240034,35.670625 24.1922534,35.35275 24.1922534,35.02125 C24.1922534,34.68975 24.3240034,34.371875 24.5583784,34.137375 L24.5583784,34.137375 L32.2335034,26.462125 C30.9490034,25.796 29.5638784,25.370375 28.1595034,25.217625 Z M41.2366284,38.684375 C41.1088784,39.65675 40.8690034,40.6025 40.5205034,41.50275 L40.5205034,41.50275 L55.9061284,56.8885 C55.9953784,54.747875 55.1958784,52.642625 53.6246284,51.071375 L53.6246284,51.071375 Z M11.5480034,51.179625 L9.64075341,54.359 L12.8200034,52.451625 L11.5480034,51.179625 Z M24.8910034,40.965375 C25.5042534,40.860375 26.1310034,41.12925 26.5273784,41.6655 C26.7912534,42.022625 27.3187534,43.024625 26.5186284,44.6125 C25.6466284,46.34575 24.8293784,46.99 24.1083784,47.5585 C23.7993784,47.802125 23.5073784,48.032375 23.2056284,48.359125 C21.7746284,49.9095 22.1382534,51.489125 22.5798784,51.751 C23.1737534,52.103125 23.3696284,52.869875 23.0175034,53.46375 C22.6660034,54.0565 21.9000034,54.254125 21.3047534,53.901375 C19.4536284,52.80375 18.8322534,49.41125 21.3687534,46.663375 C21.8045034,46.1915 22.2061284,45.87475 22.5605034,45.595375 C23.1763784,45.109875 23.6628784,44.72625 24.2857534,43.48825 C24.3376284,43.38525 24.3725034,43.299375 24.3958784,43.229625 C24.1258784,43.045125 23.9282534,42.7555 23.8688784,42.407625 C23.7528784,41.727125 24.2105034,41.081375 24.8910034,40.965375 Z M15.3661284,46.86625 C15.8536284,46.3775 16.6461284,46.3775 17.1336284,46.86625 C17.6223784,47.35375 17.6223784,48.14625 17.1336284,48.63375 C16.6461284,49.1225 15.8536284,49.1225 15.3661284,48.63375 C14.8773784,48.14625 14.8773784,47.35375 15.3661284,46.86625 Z M19.3491284,37.4435 C20.9378784,36.64375 21.9400034,37.171375 22.2971284,37.43525 C22.8333784,37.83175 23.1015034,38.45875 22.9971284,39.071375 C22.8810034,39.752 22.2353784,40.21025 21.5547534,40.0935 C21.2067534,40.034125 20.9172534,39.836375 20.7326284,39.566375 C20.6627534,39.589625 20.5766284,39.6245 20.4733784,39.676625 C19.2357534,40.29975 18.8520034,40.786 18.3662534,41.401875 C18.0868784,41.756 17.7703784,42.15725 17.2991284,42.59225 C14.5375034,45.143 11.1496284,44.493375 10.0610034,42.657625 C9.70887841,42.06375 9.90487841,41.297 10.4986284,40.944875 C11.0922534,40.593 11.8592534,40.78875 12.2113784,41.3825 C12.4741284,41.82575 14.0597534,42.181 15.6030034,40.7555 C15.9295034,40.454 16.1596284,40.16225 16.4032534,39.8535 C16.9717534,39.13275 17.6161284,38.315875 19.3491284,37.4435 Z M51.5898784,10.64225 L49.4115885,12.8201788 C49.275045,12.9567002 49.144197,13.0875273 49.018032,13.2136725 L48.6525737,13.5790749 C48.5740328,13.6576041 48.4971233,13.7345024 48.4215452,13.8100698 L48.0894184,14.1421514 C47.9810302,14.2505256 47.8746253,14.3569175 47.7691912,14.4623395 L47.5593175,14.6721903 C47.4895911,14.7419095 47.4199962,14.8114976 47.3502329,14.8812545 L46.819162,15.4122841 C46.7829218,15.448522 46.7464519,15.4849896 46.709715,15.5217244 L46.0115041,16.2199055 C45.9289201,16.302487 45.8443678,16.3870372 45.7575472,16.473856 L45.3505312,16.8808654 C45.2090806,17.0223144 45.0615139,17.1698799 44.9068188,17.3245745 L44.5876239,17.6437688 C44.3132077,17.918185 44.0171153,18.2142787 43.6946596,18.5367367 L42.1724682,20.0589426 C41.8481005,20.3833139 41.5026606,20.7287577 41.1337489,21.0976737 L40.5624772,21.6689518 C39.4817721,22.7496692 38.2144861,24.0169689 36.7107109,25.5207563 L35.4265666,26.8049102 C35.1290245,27.1024544 34.8232146,27.4082662 34.508837,27.7226457 L33.5397008,28.6917873 C31.7147285,30.5167689 29.6215072,32.6099963 27.2101284,35.021375 L27.2101284,35.021375 L28.9785034,36.78975 C29.6630697,36.1051875 30.3231115,35.4451497 30.9596459,34.8086193 L33.3828223,32.3854603 C33.7665932,32.0016924 34.1405192,31.6277694 34.5049015,31.2633901 L35.5697191,30.1985818 C36.6065086,29.1618016 37.5601177,28.2082018 38.4386834,27.329645 L39.2925359,26.4758012 C39.9837366,25.7846077 40.6247072,25.1436439 41.2201567,24.5482006 L41.9131472,23.8552171 C43.3685904,22.3997883 44.5290429,21.2393452 45.4772663,20.2911214 L45.9001398,19.868247 C45.9682075,19.800179 46.0350949,19.7332913 46.1008394,19.6675464 L46.6627023,19.1056781 C46.8403829,18.9279951 47.0087956,18.7595793 47.1689575,18.5994137 L47.6257078,18.1426501 C47.9150624,17.8532851 48.1754821,17.5928521 48.4151036,17.3532137 L48.6480938,17.1202055 C48.7614239,17.0068658 48.8702325,16.8980467 48.9755368,16.792731 L49.7624983,16.0056562 C49.91891,15.8492162 50.0731214,15.6949734 50.2298413,15.5382187 L51.0206496,14.7472167 C51.4096133,14.3581514 51.8471831,13.9204616 52.3834984,13.3840052 L53.0101522,12.7571889 C53.1219268,12.6453859 53.2375684,12.529715 53.3573784,12.409875 C53.0208784,12.166625 52.6998784,11.8955 52.4021284,11.597625 C52.1042534,11.29975 51.8331284,10.97875 51.5898784,10.64225 L51.5898784,10.64225 Z M13.6680002,14.352061 L13.3763784,14.35875 L22.4968784,23.479375 C23.3968784,23.13075 24.3428784,22.891 25.3155034,22.763125 L25.3155034,22.763125 L19.1933784,16.64 C17.6222534,15.068875 15.5168784,14.269375 13.3763784,14.35875 Z M59.1501284,2.95325 C57.9341284,3.881 56.1765034,4.843625 54.5636284,4.906625 C54.1960034,4.92075 53.6768784,5.0195 53.2862534,5.410125 C52.2743784,6.422 52.8155034,8.47525 54.1700034,9.83 C55.5006284,11.160625 57.5580034,11.744875 58.5897534,10.713625 C58.9803784,10.322875 59.0791284,9.80375 59.0932534,9.437 C59.1563784,7.824875 60.1193784,6.06675 61.0470034,4.85025 L61.0470034,4.85025 Z" id="Combined-Shape" fill="#E7E8E9" fill-rule="nonzero"></path>
        </g>
    </g>
</svg>
