<?xml version="1.0" encoding="UTF-8"?>
<svg width="24px" height="40px" viewBox="0 0 24 40" version="1.1" xmlns="http://www.w3.org/2000/svg" xmlns:xlink="http://www.w3.org/1999/xlink">
    <title>rythmico-singing-icon</title>
    <g id="High-Fidelity" stroke="none" stroke-width="1" fill="none" fill-rule="evenodd">
        <g id="rythmico-singing-icon" transform="translate(-8.000000, 0.000000)">
            <polygon id="Path" points="0 0 40 0 40 40 0 40"></polygon>
            <path d="M23.1770833,0 C26.1925521,0 28.6458333,2.45328125 28.6458333,5.46875 L28.6458333,5.46875 L28.6458333,12.96875 L29.4270833,12.96875 C30.7194271,12.96875 31.7708333,14.0201562 31.7708333,15.3125 L31.7708333,15.3125 L31.7708333,21.5625 C31.7708333,26.323125 27.900599,30.15625 23.1770833,30.15625 L23.1770833,30.15625 L22.3958333,30.15625 L22.3958333,35.3125 L23.1770833,35.3125 C25.3309896,35.3125 27.0833333,37.0648438 27.0833333,39.21875 C27.0833333,39.6501563 26.7335677,40 26.3020833,40 L26.3020833,40 L13.8020833,40 C13.370599,40 13.0208333,39.6501563 13.0208333,39.21875 C13.0208333,37.0605469 14.7689583,35.3125 16.9270833,35.3125 L16.9270833,35.3125 L17.7083333,35.3125 L17.7083333,30.15625 L16.9270833,30.15625 C12.1756771,30.15625 8.33333333,26.2964844 8.33333333,21.5625 L8.33333333,21.5625 L8.33333333,15.3125 C8.33333333,14.0201562 9.38473958,12.96875 10.6770833,12.96875 L10.6770833,12.96875 L11.4583333,12.96875 L11.4583333,5.46875 C11.4583333,2.45328125 13.9116146,0 16.9270833,0 L16.9270833,0 Z M23.1770833,36.875 L16.9270833,36.875 C15.8863021,36.875 15.0302083,37.5482031 14.7163021,38.4375 L14.7163021,38.4375 L25.3870052,38.4375 C25.0645052,37.5280469 24.1956771,36.875 23.1770833,36.875 L23.1770833,36.875 Z M20.8333333,30.15625 L19.2708333,30.15625 L19.2708333,35.3125 L20.8333333,35.3125 L20.8333333,30.15625 Z M11.4583333,14.53125 L10.6770833,14.53125 C10.2463021,14.53125 9.89583333,14.8817187 9.89583333,15.3125 L9.89583333,15.3125 L9.89583333,21.5625 C9.89583333,25.4475 13.0539583,28.59375 16.9270833,28.59375 L16.9270833,28.59375 L23.1770833,28.59375 C27.0634896,28.59375 30.2083333,25.434375 30.2083333,21.5625 L30.2083333,21.5625 L30.2083333,15.3125 C30.2083333,14.8817187 29.8578646,14.53125 29.4270833,14.53125 L29.4270833,14.53125 L28.6458333,14.53125 L28.6458333,21.5625 C28.6458333,24.5779688 26.1925521,27.03125 23.1770833,27.03125 L23.1770833,27.03125 L16.9270833,27.03125 C13.9116146,27.03125 11.4583333,24.5779688 11.4583333,21.5625 L11.4583333,21.5625 L11.4583333,14.53125 Z M19.2708333,1.5625 L17.7083333,1.5625 L17.7083333,3.90625 C17.7083333,4.33765625 17.3585677,4.6875 16.9270833,4.6875 C16.495599,4.6875 16.1458333,4.33765625 16.1458333,3.90625 L16.1458333,3.90625 L16.1458333,1.64109375 C14.3650521,2.0040625 13.0208333,3.58234375 13.0208333,5.46875 L13.0208333,5.46875 L13.0208333,8.046875 L16.9270833,8.046875 C17.3585677,8.046875 17.7083333,8.39671875 17.7083333,8.828125 C17.7083333,9.25953125 17.3585677,9.609375 16.9270833,9.609375 L16.9270833,9.609375 L13.0208333,9.609375 L13.0208333,12.96875 L16.9270833,12.96875 C17.3585677,12.96875 17.7083333,13.3185938 17.7083333,13.75 C17.7083333,14.1814062 17.3585677,14.53125 16.9270833,14.53125 L16.9270833,14.53125 L13.0208333,14.53125 L13.0208333,17.65625 L16.9270833,17.65625 C17.3585677,17.65625 17.7083333,18.0060938 17.7083333,18.4375 C17.7083333,18.8689062 17.3585677,19.21875 16.9270833,19.21875 L16.9270833,19.21875 L13.0208333,19.21875 L13.0208333,21.5625 C13.0208333,23.4489844 14.3650521,25.0271875 16.1458333,25.3901563 L16.1458333,25.3901563 L16.1458333,23.125 C16.1458333,22.6935938 16.495599,22.34375 16.9270833,22.34375 C17.3585677,22.34375 17.7083333,22.6935938 17.7083333,23.125 L17.7083333,23.125 L17.7083333,25.46875 L19.2708333,25.46875 L19.2708333,23.125 C19.2708333,22.6935938 19.620599,22.34375 20.0520833,22.34375 C20.4835677,22.34375 20.8333333,22.6935938 20.8333333,23.125 L20.8333333,23.125 L20.8333333,25.46875 L22.3958333,25.46875 L22.3958333,23.125 C22.3958333,22.6935938 22.745599,22.34375 23.1770833,22.34375 C23.6085677,22.34375 23.9583333,22.6935938 23.9583333,23.125 L23.9583333,23.125 L23.9583333,25.3901563 C25.7391146,25.0271875 27.0833333,23.4489063 27.0833333,21.5625 L27.0833333,21.5625 L27.0833333,19.21875 L23.1770833,19.21875 C22.745599,19.21875 22.3958333,18.8689062 22.3958333,18.4375 C22.3958333,18.0060938 22.745599,17.65625 23.1770833,17.65625 L23.1770833,17.65625 L27.0833333,17.65625 L27.0833333,14.53125 L23.1770833,14.53125 C22.745599,14.53125 22.3958333,14.1814062 22.3958333,13.75 C22.3958333,13.3185938 22.745599,12.96875 23.1770833,12.96875 L23.1770833,12.96875 L27.0833333,12.96875 L27.0833333,9.609375 L23.1770833,9.609375 C22.745599,9.609375 22.3958333,9.25953125 22.3958333,8.828125 C22.3958333,8.39671875 22.745599,8.046875 23.1770833,8.046875 L23.1770833,8.046875 L27.0833333,8.046875 L27.0833333,5.46875 C27.0833333,3.58226563 25.7391146,2.0040625 23.9583333,1.64109375 L23.9583333,1.64109375 L23.9583333,3.90625 C23.9583333,4.33765625 23.6085677,4.6875 23.1770833,4.6875 C22.745599,4.6875 22.3958333,4.33765625 22.3958333,3.90625 L22.3958333,3.90625 L22.3958333,1.5625 L20.8333333,1.5625 L20.8333333,3.90625 C20.8333333,4.33765625 20.4835677,4.6875 20.0520833,4.6875 C19.620599,4.6875 19.2708333,4.33765625 19.2708333,3.90625 L19.2708333,3.90625 L19.2708333,1.5625 Z M20.0520833,12.96875 C20.4833333,12.96875 20.8333333,13.31875 20.8333333,13.75 C20.8333333,14.18125 20.4833333,14.53125 20.0520833,14.53125 C19.6208333,14.53125 19.2708333,14.18125 19.2708333,13.75 C19.2708333,13.31875 19.6208333,12.96875 20.0520833,12.96875 Z" id="Combined-Shape" fill="#141E29" fill-rule="nonzero"></path>
        </g>
    </g>
</svg>