<svg xmlns="http://www.w3.org/2000/svg" width="32" height="32" viewBox="0 0 32 32">
    <g fill="none" fill-rule="evenodd">
        <g>
            <g>
                <g>
                    <path d="M0 0L32 0 32 32 0 32z" transform="translate(-295 -525) translate(24 505) translate(271 20)"/>
                    <path fill="#1C1D21" d="M27.501 4.778c-1.83-1.843-4.606-2.372-6.985-1.33-2.38 1.041-3.875 3.439-3.763 6.034L4.857 22c-.44.416-.469 1.107-.065 1.558l.404.404-2.103 2.104c-.568.569-.568 1.49 0 2.059l.537.537c.569.568 1.49.568 2.059 0l2.104-2.104.73.743c.19.187.445.29.711.287.312-.004.61-.125.836-.34l9.97-9.286 2.656-2.472c.117 0 .235.02.352.02 2.543-.002 4.836-1.535 5.808-3.886.972-2.351.433-5.056-1.367-6.854l.012.008zM19.22 15.41l-2.451-2.423.86-.909 2.503 2.504-.912.828zm-9.917 9.242l-1.858-1.857 7.672-8.076 2.342 2.342-8.156 7.591zm16.47-12.695c-.949.954-2.327 1.343-3.634 1.026-.062-.013-.126-.021-.19-.024l-2.644-2.641c-.004-.06-.012-.12-.025-.178-.443-1.813.472-3.684 2.175-4.448 1.703-.763 3.709-.202 4.768 1.335 1.06 1.537.87 3.61-.45 4.93z" transform="translate(-295 -525) translate(24 505) translate(271 20)"/>
                </g>
            </g>
        </g>
    </g>
</svg>
