<svg width="32" height="32" viewBox="0 0 32 32" fill="none" xmlns="http://www.w3.org/2000/svg">
<path fill-rule="evenodd" clip-rule="evenodd" d="M30.6667 14.6667C29.9307 14.6667 29.3333 15.264 29.3333 16C29.3333 23.352 23.352 29.3333 16 29.3333C8.648 29.3333 2.66667 23.352 2.66667 16C2.66667 8.648 8.648 2.66667 16 2.66667C19.5793 2.66667 22.9393 4.06533 25.4613 6.60533C25.98 7.12733 26.8247 7.13067 27.3467 6.612C27.8693 6.09333 27.872 5.24867 27.3533 4.726C24.3273 1.67867 20.2947 0 16 0C7.17733 0 0 7.17733 0 16C0 24.8227 7.17733 32 16 32C24.822 32 32 24.8227 32 16C32 15.264 31.4027 14.6667 30.6667 14.6667ZM18 11.6667C18 11.1144 18.4477 10.6667 19 10.6667H19.6667C20.219 10.6667 20.6667 11.1144 20.6667 11.6667V20.3333C20.6667 20.8856 20.219 21.3333 19.6667 21.3333H19C18.4477 21.3333 18 20.8856 18 20.3333V11.6667ZM12.3333 10.6667C11.781 10.6667 11.3333 11.1144 11.3333 11.6667V20.3333C11.3333 20.8856 11.781 21.3333 12.3333 21.3333H13C13.5523 21.3333 14 20.8856 14 20.3333V11.6667C14 11.1144 13.5523 10.6667 13 10.6667H12.3333Z" fill="#392396"/>
</svg>
