<svg width="16" height="16" viewBox="0 0 16 16" fill="none" xmlns="http://www.w3.org/2000/svg">
<path fill-rule="evenodd" clip-rule="evenodd" d="M7.99999 0.666748C3.9499 0.666748 0.666656 3.94999 0.666656 8.00008C0.666656 12.0502 3.9499 15.3334 7.99999 15.3334C12.0501 15.3334 15.3333 12.0502 15.3333 8.00008C15.3333 3.94999 12.0501 0.666748 7.99999 0.666748ZM7.99999 2.00008C11.3137 2.00008 14 4.68637 14 8.00008C14 11.3138 11.3137 14.0001 7.99999 14.0001C4.68628 14.0001 1.99999 11.3138 1.99999 8.00008C1.99999 4.68637 4.68628 2.00008 7.99999 2.00008ZM7.99999 7.33342C8.34188 7.33342 8.62366 7.59078 8.66217 7.92233L8.66666 8.00008V10.6667C8.66666 11.0349 8.36818 11.3334 7.99999 11.3334C7.6581 11.3334 7.37632 11.0761 7.33781 10.7445L7.33332 10.6667V8.00008C7.33332 7.63189 7.6318 7.33342 7.99999 7.33342ZM8.67332 5.33341C8.67332 4.96522 8.37485 4.66675 8.00666 4.66675L7.92224 4.67123C7.59068 4.70974 7.33332 4.99152 7.33332 5.33341C7.33332 5.7016 7.6318 6.00008 7.99999 6.00008L8.0844 5.9956C8.41596 5.95709 8.67332 5.67531 8.67332 5.33341Z" fill="#150F2F"/>
</svg>
