<svg xmlns="http://www.w3.org/2000/svg" width="16" height="16" viewBox="0 0 16 16">
    <g fill="none" fill-rule="evenodd">
        <g fill="#4B5C6B">
            <g>
                <g>
                    <path d="M7.875 0C3.526 0 0 3.526 0 7.875c0 4.348 3.526 7.875 7.875 7.875 4.348 0 7.875-3.527 7.875-7.875C15.75 3.526 12.223 0 7.875 0zm1.639 12.205c-.405.16-.728.281-.97.365-.241.084-.522.126-.841.126-.491 0-.873-.12-1.145-.36-.272-.239-.407-.542-.407-.91 0-.144.01-.29.03-.44.02-.15.053-.317.098-.506l.507-1.792c.045-.172.083-.335.114-.487.03-.154.045-.294.045-.422 0-.228-.047-.388-.141-.478-.095-.09-.275-.134-.542-.134-.13 0-.265.019-.403.06-.137.042-.256.08-.353.117l.134-.552c.332-.135.65-.251.953-.347.304-.098.59-.146.86-.146.488 0 .864.119 1.128.354.264.235.396.541.396.917 0 .078-.009.215-.027.411-.018.197-.052.376-.101.541l-.505 1.787c-.041.143-.078.307-.111.49-.033.184-.049.324-.049.418 0 .237.053.399.16.485.105.086.29.13.55.13.124 0 .262-.023.418-.065.155-.043.267-.081.337-.114l-.135.552zm-.09-7.252c-.235.218-.518.328-.85.328-.33 0-.615-.11-.853-.328-.236-.219-.355-.485-.355-.796 0-.31.12-.576.355-.797.238-.221.523-.331.854-.331.331 0 .615.11.85.331.235.22.353.487.353.797 0 .312-.118.577-.353.796z" transform="translate(-46 -355) translate(46 351) translate(0 4)"/>
                </g>
            </g>
        </g>
    </g>
</svg>
