<?xml version="1.0" encoding="UTF-8"?>
<svg width="311px" height="280px" viewBox="0 0 311 280" version="1.1" xmlns="http://www.w3.org/2000/svg" xmlns:xlink="http://www.w3.org/1999/xlink">
    <title>iOS/Sign Up/DBS Failure</title>
    <g id="iOS/Sign-Up/DBS-Failure" stroke="none" stroke-width="1" fill="none" fill-rule="evenodd">
        <g id="Feeling-sorry-rafiki" transform="translate(0.000000, 24.000000)" fill-rule="nonzero">
            <g id="freepik--background-complete--inject-6">
                <rect id="Rectangle" fill="#EBEBEB" x="0" y="224" width="311" height="1"></rect>
                <rect id="Rectangle" fill="#EBEBEB" x="276.988124" y="235.015858" width="14.833456" height="1"></rect>
                <rect id="Rectangle" fill="#EBEBEB" x="196.485152" y="231.471702" width="23.338062" height="1"></rect>
                <rect id="Rectangle" fill="#EBEBEB" x="255.346878" y="228.666482" width="30.467426" height="1"></rect>
                <rect id="Rectangle" fill="#EBEBEB" x="94.758296" y="232.11485" width="7.621988" height="1"></rect>
                <rect id="Rectangle" fill="#EBEBEB" x="62.395636" y="232.11485" width="26.266438" height="1"></rect>
                <rect id="Rectangle" fill="#EBEBEB" x="29.369302" y="229.227526" width="18.95234" height="1"></rect>
                <path d="M146.1554,193.49176 L14.043222,193.49176 C11.8882383,193.487986 10.143282,191.739965 10.143282,189.584978 L10.143282,3.872572 C10.1620328,1.73095197 11.901523,0.00366870758 14.043222,0 L146.1554,0 C148.313056,0 150.062182,1.74912588 150.062182,3.906782 L150.062182,189.584978 C150.062182,191.742634 148.313056,193.49176 146.1554,193.49176 Z M14.043222,0.13684 C11.9827067,0.140613844 10.314332,1.8120532 10.314332,3.872572 L10.314332,189.584978 C10.314332,191.645497 11.9827067,193.316936 14.043222,193.32071 L146.1554,193.32071 C148.217026,193.316944 149.887366,191.646604 149.891132,189.584978 L149.891132,3.872572 C149.887366,1.81094594 148.217026,0.140605536 146.1554,0.13684 L14.043222,0.13684 Z" id="Shape" fill="#EBEBEB"></path>
                <path d="M294.154702,193.49176 L162.035682,193.49176 C159.879588,193.487994 158.132666,191.741072 158.1289,189.584978 L158.1289,3.872572 C158.151374,1.72984942 159.892845,0.00362836534 162.035682,0 L294.154702,0 C296.293732,0.00741037306 298.029082,1.73361067 298.0478,3.872572 L298.0478,189.584978 C298.0478,191.737301 296.307012,193.484221 294.154702,193.49176 Z M162.035682,0.13684 C159.974056,0.140605536 158.303716,1.81094594 158.29995,3.872572 L158.29995,189.584978 C158.303716,191.646604 159.974056,193.316944 162.035682,193.32071 L294.154702,193.32071 C296.216328,193.316944 297.886668,191.646604 297.890434,189.584978 L297.890434,3.872572 C297.886668,1.81094594 296.216328,0.140605536 294.154702,0.13684 L162.035682,0.13684 Z" id="Shape" fill="#EBEBEB"></path>
                <rect id="Rectangle" fill="#E6E6E6" transform="translate(83.896621, 60.678277) rotate(180.000000) translate(-83.896621, -60.678277) " x="28.254056" y="13.868734" width="111.28513" height="93.619086"></rect>
                <rect id="Rectangle" fill="#F0F0F0" transform="translate(81.960335, 60.678277) rotate(180.000000) translate(-81.960335, -60.678277) " x="25.613044" y="13.868734" width="112.694582" height="93.619086"></rect>
                <rect id="Rectangle" fill="#E6E6E6" transform="translate(83.896621, 109.495947) rotate(180.000000) translate(-83.896621, -109.495947) " x="28.254056" y="107.48782" width="111.28513" height="4.016254"></rect>
                <rect id="Rectangle" fill="#F0F0F0" transform="translate(77.547245, 109.495947) rotate(180.000000) translate(-77.547245, -109.495947) " x="21.199954" y="107.48782" width="112.694582" height="4.016254"></rect>
                <polygon id="Rectangle" fill="#FAFAFA" transform="translate(81.960335, 60.685119) rotate(90.000000) translate(-81.960335, -60.685119) " points="38.859156 8.046192 125.061514 8.046192 125.061514 113.324046 38.859156 113.324046"></polygon>
                <polygon id="Path" fill="#FFFFFF" points="91.877814 103.786298 81.560078 17.58394 65.460852 17.58394 75.778588 103.786298"></polygon>
                <path d="M132.88192,100.09846 C133.027772,100.094857 133.145155,99.9774741 133.148758,99.831622 L133.148758,19.992324 C133.148758,19.8449534 133.029291,19.725486 132.88192,19.725486 C132.734549,19.725486 132.615082,19.8449534 132.615082,19.992324 L132.615082,99.831622 C132.618685,99.9774741 132.736068,100.094857 132.88192,100.09846 L132.88192,100.09846 Z" id="Path" fill="#F0F0F0"></path>
                <polygon id="Path" fill="#FFFFFF" points="72.323378 103.786298 62.005642 17.58394 55.724686 17.58394 66.042422 103.786298"></polygon>
                <polygon id="Rectangle" fill="#E6E6E6" transform="translate(29.550615, 60.678277) rotate(90.000000) translate(-29.550615, -60.678277) " points="-13.550564 60.442228 72.651794 60.442228 72.651794 60.914326 -13.550564 60.914326"></polygon>
                <polygon id="Path" fill="#EBEBEB" opacity="0.6" points="24.737268 24.569622 136.015556 24.569622 136.357656 19.02076 25.079368 19.02076"></polygon>
                <polygon id="Path" fill="#EBEBEB" opacity="0.6" points="24.737268 33.669482 136.015556 33.669482 136.357656 28.12062 25.079368 28.12062"></polygon>
                <polygon id="Path" fill="#EBEBEB" opacity="0.6" points="24.737268 42.769342 136.015556 42.769342 136.357656 37.22048 25.079368 37.22048"></polygon>
                <polygon id="Path" fill="#EBEBEB" opacity="0.6" points="24.737268 51.869202 136.015556 51.869202 136.357656 46.32034 25.079368 46.32034"></polygon>
                <polygon id="Path" fill="#EBEBEB" opacity="0.6" points="24.737268 60.975904 136.015556 60.975904 136.357656 55.427042 25.079368 55.427042"></polygon>
                <polygon id="Path" fill="#EBEBEB" opacity="0.6" points="24.737268 70.075764 136.015556 70.075764 136.357656 64.526902 25.079368 64.526902"></polygon>
                <rect id="Rectangle" fill="#F5F5F5" x="163.239874" y="29.783226" width="111.504074" height="74.88569"></rect>
                <rect id="Rectangle" fill="#E0E0E0" transform="translate(276.054191, 67.226071) rotate(180.000000) translate(-276.054191, -67.226071) " x="274.743948" y="29.783226" width="2.620486" height="74.88569"></rect>
                <rect id="Rectangle" fill="#FFFFFF" x="179.865934" y="44.520894" width="22.2365" height="33.847374"></rect>
                <polygon id="Path" fill="#FFFFFF" points="214.903816 87.30392 192.667316 87.30392 193.22836 53.456546 215.46486 53.456546"></polygon>
                <rect id="Rectangle" fill="#FFFFFF" x="239.090286" y="36.748382" width="22.2365" height="33.847374"></rect>
                <polygon id="Path" fill="#FFFFFF" points="241.553406 95.17222 221.00688 95.17222 222.395806 63.897438 242.942332 63.897438"></polygon>
                <path d="M228.888864,125.24281 C228.888864,125.24281 229.415698,140.514154 249.544862,140.514154 C269.674026,140.514154 270.20086,125.24281 270.20086,125.24281 L228.888864,125.24281 Z" id="Path" fill="#F0F0F0"></path>
                <rect id="Rectangle" fill="#F0F0F0" transform="translate(272.855556, 182.144303) rotate(180.000000) translate(-272.855556, -182.144303) " x="258.26157" y="146.843004" width="29.187972" height="70.602598"></rect>
                <rect id="Rectangle" fill="#F0F0F0" transform="translate(209.885209, 220.729762) rotate(180.000000) translate(-209.885209, -220.729762) " x="137.917632" y="217.452444" width="143.935154" height="6.554636"></rect>
                <rect id="Rectangle" fill="#F5F5F5" x="132.307192" y="146.849846" width="125.954378" height="70.602598"></rect>
                <rect id="Rectangle" fill="#F0F0F0" x="143.781226" y="155.436556" width="103.00631" height="21.72335"></rect>
                <rect id="Rectangle" fill="#F0F0F0" x="143.781226" y="183.351916" width="103.00631" height="21.72335"></rect>
                <path d="M183.20483,159.151762 L207.370774,159.151762 C208.653983,159.148004 209.693296,158.108691 209.697054,156.825482 L209.697054,156.825482 C209.693296,155.542273 208.653983,154.50296 207.370774,154.499202 L183.20483,154.499202 C181.921621,154.50296 180.882308,155.542273 180.87855,156.825482 L180.87855,156.825482 C180.882308,158.108691 181.921621,159.148004 183.20483,159.151762 L183.20483,159.151762 Z" id="Path" fill="#F5F5F5"></path>
                <path d="M183.20483,187.067122 L207.370774,187.067122 C208.653983,187.063364 209.693296,186.024051 209.697054,184.740842 L209.697054,184.740842 C209.693296,183.457633 208.653983,182.41832 207.370774,182.414562 L183.20483,182.414562 C181.921621,182.41832 180.882308,183.457633 180.87855,184.740842 L180.87855,184.740842 C180.882308,186.024051 181.921621,187.063364 183.20483,187.067122 L183.20483,187.067122 Z" id="Path" fill="#F5F5F5"></path>
                <rect id="Rectangle" fill="#F0F0F0" transform="translate(193.337832, 143.685421) rotate(180.000000) translate(-193.337832, -143.685421) " x="128.414094" y="140.520996" width="129.847476" height="6.32885"></rect>
                <rect id="Rectangle" fill="#E6E6E6" x="258.268412" y="140.514154" width="33.265804" height="6.32885"></rect>
                <rect id="Rectangle" fill="#F5F5F5" x="28.308792" y="137.264204" width="41.236734" height="86.742876"></rect>
                <polygon id="Rectangle" fill="#E6E6E6" transform="translate(32.595305, 180.635642) rotate(90.000000) translate(-32.595305, -180.635642) " points="-5.801999 180.276437 70.992609 180.276437 70.992609 180.994847 -5.801999 180.994847"></polygon>
                <rect id="Rectangle" fill="#E6E6E6" x="32.2361" y="142.238338" width="32.732128" height="1"></rect>
                <rect id="Rectangle" fill="#F5F5F5" x="70.263936" y="137.264204" width="41.236734" height="86.742876"></rect>
                <rect id="Rectangle" fill="#E0E0E0" transform="translate(113.563533, 180.635642) rotate(180.000000) translate(-113.563533, -180.635642) " x="111.507512" y="137.264204" width="4.112042" height="86.742876"></rect>
                <polygon id="Rectangle" fill="#E6E6E6" transform="translate(74.550449, 180.635642) rotate(90.000000) translate(-74.550449, -180.635642) " points="36.153145 180.276437 112.947753 180.276437 112.947753 180.994847 36.153145 180.994847"></polygon>
                <polygon id="Rectangle" fill="#E6E6E6" transform="translate(69.904731, 180.998268) rotate(90.000000) translate(-69.904731, -180.998268) " points="26.895919 180.639063 112.913543 180.639063 112.913543 181.357473 26.895919 181.357473"></polygon>
                <rect id="Rectangle" fill="#E6E6E6" x="74.191244" y="142.238338" width="32.732128" height="1"></rect>
                <path d="M67.417664,142.68991 L67.417664,142.68991 C67.8431121,142.693626 68.1870941,143.037608 68.19081,143.463056 L68.19081,156.03181 C68.1870941,156.457258 67.8431121,156.80124 67.417664,156.804956 L67.417664,156.804956 C66.9922159,156.80124 66.6482339,156.457258 66.644518,156.03181 L66.644518,143.463056 C66.6482339,143.037608 66.9922159,142.693626 67.417664,142.68991 Z" id="Path" fill="#E0E0E0"></path>
                <path d="M72.39864,142.68991 L72.39864,142.68991 C72.8256367,142.68991 73.171786,143.036059 73.171786,143.463056 L73.171786,156.03181 C73.171786,156.458807 72.8256367,156.804956 72.39864,156.804956 L72.39864,156.804956 C71.9731919,156.80124 71.6292099,156.457258 71.625494,156.03181 L71.625494,143.463056 C71.6292099,143.037608 71.9731919,142.693626 72.39864,142.68991 Z" id="Path" fill="#E0E0E0"></path>
            </g>
            <g id="freepik--Shadow--inject-6" transform="translate(22.315200, 238.785800)" fill="#F5F5F5">
                <ellipse id="freepik--path--inject-6" cx="132.7348" cy="8.374608" rx="132.659538" ry="7.745144"></ellipse>
            </g>
            <g id="freepik--Plant--inject-6" transform="translate(154.365800, 104.682600)">
                <path d="M37.726788,44.561946 C40.09412,55.707564 27.395368,60.421702 22.120186,55.509146 C16.845004,50.59659 17.105,35.5784 9.98932,35.181564 C20.259162,27.23116 35.421034,33.717376 37.726788,44.561946 Z" id="Path" fill="#263238"></path>
                <path d="M27.368,114.097193 C26.7668004,114.097193 26.2606786,113.647535 26.191176,113.050366 C23.563848,90.943864 26.875376,38.137308 53.956012,15.996596 C54.2816436,15.699998 54.744427,15.6074275 55.1590947,15.7559433 C55.5737624,15.9044591 55.8725457,16.2697896 55.9358317,16.7056808 C55.9991177,17.141572 55.8165637,17.5767867 55.461252,17.837094 C29.160604,39.348342 25.972232,91.087546 28.551666,112.769844 C28.6241358,113.42026 28.1609664,114.008363 27.511682,114.09035 L27.368,114.097193 Z" id="Path" fill="#6558F5"></path>
                <path d="M17.72078,142.477808 L37.001536,142.477808 C38.3337853,142.477808 39.4879585,141.554141 39.779388,140.254158 L47.82558,104.586812 C48.0145917,103.741557 47.809409,102.856205 47.2678549,102.180261 C46.7263009,101.504316 45.9070164,101.111075 45.040886,101.111075 L9.68143,101.111075 C8.81557847,101.11045 7.99652282,101.503987 7.45595432,102.180363 C6.91538582,102.856739 6.71209133,103.7424 6.903578,104.586812 L14.942928,140.261 C15.2393919,141.55683 16.3914708,142.476223 17.72078,142.477808 L17.72078,142.477808 Z" id="Path" fill="#6558F5"></path>
                <path d="M17.72078,142.477808 L37.001536,142.477808 C38.3337853,142.477808 39.4879585,141.554141 39.779388,140.254158 L47.82558,104.586812 C48.0145917,103.741557 47.809409,102.856205 47.2678549,102.180261 C46.7263009,101.504316 45.9070164,101.111075 45.040886,101.111075 L9.68143,101.111075 C8.81557847,101.11045 7.99652282,101.503987 7.45595432,102.180363 C6.91538582,102.856739 6.71209133,103.7424 6.903578,104.586812 L14.942928,140.261 C15.2393919,141.55683 16.3914708,142.476223 17.72078,142.477808 L17.72078,142.477808 Z" id="Path" fill="#FFFFFF" opacity="0.6"></path>
                <path d="M35.5784,46.7857477 C35.4862183,46.7839298 35.3944754,46.772462 35.30472,46.751386 C34.9988931,46.6798203 34.7340491,46.4896376 34.5685062,46.2227157 C34.4029633,45.9557938 34.3502962,45.6340206 34.422102,45.32825 C34.422102,45.1572 38.287832,28.332722 32.410554,18.446032 C32.0761362,17.8792222 32.2645272,17.1486328 32.831337,16.814215 C33.3981468,16.4797972 34.1287362,16.6681882 34.463154,17.234998 C40.853582,27.942728 36.9468,45.1572 36.762066,45.8414 C36.6442635,46.3988132 36.1480536,46.7946338 35.5784,46.7857477 Z" id="Path" fill="#6558F5"></path>
                <path d="M45.581404,11.877712 C45.102464,22.619652 68.42,27.74431 75.891464,23.201222 C83.362928,18.658134 78.087746,4.043622 90.163876,3.93415 C69.973134,-4.24204 46.04666,1.423136 45.581404,11.877712 Z" id="Path" fill="#6558F5"></path>
                <path d="M39.936754,13.44453 C44.37037,22.195448 32.1574,27.368 25.89697,23.947 C19.63654,20.526 17.152894,8.360924 9.790902,8.805654 C18.897604,1.29998 35.619452,4.92624 39.936754,13.44453 Z" id="Path" fill="#6558F5"></path>
                <path d="M26.6838,96.0274702 L26.635906,96.0274702 C25.9826234,95.9978615 25.473937,95.4495768 25.493292,94.79591 C25.493292,94.618018 26.020126,76.897238 16.065016,74.755692 C15.6506883,74.666471 15.3154325,74.3629862 15.1855364,73.9595574 C15.0556402,73.5561286 15.1508378,73.1140462 15.4352694,72.7998384 C15.7197009,72.4856306 16.1501543,72.347033 16.564482,72.436254 C28.46272,74.98832 27.901676,94.070658 27.867466,94.884856 C27.8453383,95.522491 27.3218188,96.0278538 26.6838,96.0274702 L26.6838,96.0274702 Z" id="Path" fill="#6558F5"></path>
                <path d="M23.33122,70.67786 C26.423804,76.411456 16.940792,83.397138 12.254022,82.30926 C7.567252,81.221382 6.096222,72.306256 0.465256,74.454644 C7.676724,66.3674 20.32074,65.10163 23.33122,70.67786 Z" id="Path" fill="#6558F5"></path>
                <path d="M27.908518,79.26457 C27.8221454,79.2746444 27.7348946,79.2746444 27.648522,79.26457 C27.0112743,79.1182451 26.6092365,78.4877767 26.745378,77.848276 C26.92327,77.04092 31.261098,58.040686 44.219846,52.984448 C44.6206657,52.8071217 45.0865028,52.8643727 45.4324565,53.1334769 C45.7784102,53.4025811 45.9485215,53.84001 45.8752694,54.2721386 C45.8020173,54.7042673 45.4972507,55.0611975 45.081938,55.201256 C33.293172,59.79908 29.105868,78.176692 29.064816,78.361426 C28.9349408,78.8938579 28.4565533,79.2675097 27.908518,79.26457 L27.908518,79.26457 Z" id="Path" fill="#6558F5"></path>
                <path d="M42.139878,46.744544 C32.800548,51.629732 39.10203,62.070624 46.381918,62.481144 C53.661806,62.891664 63.692178,54.209166 69.282092,58.32805 C66.996864,47.565584 51.239738,41.989354 42.139878,46.744544 Z" id="Path" fill="#6558F5"></path>
            </g>
            <g id="freepik--Character--inject-6" transform="translate(92.103600, 7.526200)">
                <path d="M27.210634,102.691578 L27.210634,102.691578 C26.5907584,102.231424 26.4592667,101.356852 26.916428,100.734766 L85.79868,20.62863 C86.2588336,20.0087544 87.1334063,19.8772627 87.755492,20.334424 L87.755492,20.334424 C88.3753676,20.7945776 88.5068593,21.6691503 88.049698,22.291236 L29.167446,102.39053 C28.9533731,102.697203 28.6231071,102.902893 28.2534566,102.959762 C27.8838061,103.016631 27.5069868,102.919724 27.210634,102.691578 Z" id="Path" fill="#6558F5"></path>
                <polygon id="Rectangle" fill="#6558F5" transform="translate(115.727675, 57.794545) rotate(-53.930590) translate(-115.727675, -57.794545) " points="113.873031 57.444871 117.582318 57.444871 117.582318 58.1442191 113.873031 58.1442191"></polygon>
                <path d="M119.440794,54.736 L118.872908,54.32548 C120.321496,52.3476714 119.899501,49.5710676 117.928712,48.112944 L102.931048,37.090482 L103.341568,36.529438 L118.3666,47.531374 C119.465685,48.3434001 120.196593,49.5592948 120.39811,50.9108733 C120.599627,52.2624518 120.255199,53.6386768 119.440794,54.736 L119.440794,54.736 Z" id="Path" fill="#6558F5"></path>
                <path d="M94.4196,80.112978 L28.7364,31.842668 C28.1600821,31.4190893 27.7757187,30.7838431 27.6679265,30.0767772 C27.5601342,29.3697114 27.7377499,28.6487914 28.161672,28.072726 L47.469796,1.806288 C47.8922349,1.22843972 48.5276375,0.842874414 49.2352574,0.734997702 C49.9428772,0.62712099 50.6643046,0.805837435 51.239738,1.23156 L116.922938,49.50187 C117.498808,49.9241995 117.883022,50.5582618 117.99084,51.2642106 C118.098657,51.9701594 117.921221,52.690001 117.497666,53.26497 L98.189542,79.53825 C97.7671031,80.1160983 97.1317005,80.5016636 96.4240806,80.6095403 C95.7164608,80.717417 94.9950334,80.5387006 94.4196,80.112978 Z" id="Path" fill="#FFFFFF"></path>
                <path d="M95.979576,80.988754 C95.3326233,80.9878764 94.702613,80.7818655 94.18013,80.400342 L28.49693,32.12319 C27.8434478,31.6472357 27.4071843,30.9299435 27.2851245,30.1307733 C27.1630648,29.3316032 27.3653246,28.5167873 27.84694,27.867466 L47.155064,1.594186 C48.1424507,0.231911605 50.0461646,-0.0741517235 51.410788,0.909986 L117.093988,49.187138 C117.742034,49.6662314 118.174788,50.3817498 118.29818,51.17816 C118.42319,51.977786 118.220969,52.7940673 117.737136,53.442862 L98.429012,79.716142 C97.9499186,80.3641885 97.2344002,80.7969419 96.43799,80.920334 C96.2867973,80.9528744 96.1336812,80.9757275 95.979576,80.988754 Z M94.611176,79.832456 C95.6351555,80.5809901 97.0695565,80.3743391 97.8406,79.3672 L117.155566,53.09392 C117.920426,52.0527972 117.696847,50.5888152 116.6561,49.823444 L50.9729,1.546292 C50.4735524,1.17718517 49.8476656,1.02236397 49.2338255,1.11610942 C48.6199854,1.20985487 48.0688394,1.54443214 47.702424,2.045758 L28.387458,28.319038 C28.0197498,28.8185966 27.8647751,29.4434154 27.956412,30.056906 C28.0478645,30.6721199 28.3832757,31.2245618 28.886924,31.589514 L94.611176,79.832456 Z" id="Shape" fill="#6558F5"></path>
                <path d="M41.305154,20.820206 L44.534578,22.872806 C44.2635562,23.3068535 44.1124602,23.8049982 44.09669,24.316468 C44.1256324,25.0027756 44.4851513,25.6325711 45.061412,26.006442 C45.4272055,26.3123311 45.8915098,26.4752022 46.368234,26.464856 C46.7349359,26.454387 47.0771265,26.2782595 47.298746,25.985916 C47.5011225,25.6975001 47.5661963,25.3345889 47.476638,24.993826 C47.2107905,24.3039733 46.7974817,23.6805076 46.265604,23.167012 C45.2997943,22.1768044 44.5782375,20.9749905 44.158268,19.657066 C43.9203096,18.7049287 44.132132,17.6962506 44.732996,16.920266 C45.136662,16.3793145 45.6913288,15.9698609 46.327182,15.743442 C47.0593831,15.5124087 47.844608,15.510022 48.5782,15.7366 C49.629328,16.0304923 50.6094659,16.535694 51.458682,17.221314 C52.5841812,17.9398269 53.4628156,18.9855928 53.976538,20.21811 C54.3028764,21.3387504 54.1229054,22.5460557 53.483914,23.522796 L50.295542,21.470196 C50.5673034,21.0626506 50.6582467,20.5607935 50.5467757,20.0838011 C50.4353047,19.6068087 50.1313637,19.1972344 49.70713,18.95234 C49.4189845,18.7054703 49.0533905,18.5674646 48.673988,18.562346 C48.4003954,18.5766237 48.1483572,18.7152447 47.989788,18.938656 C47.8585336,19.1182813 47.8228066,19.3505069 47.894,19.561278 C48.0682705,20.0110958 48.3419217,20.4157253 48.694514,20.744944 C49.6066963,21.703075 50.4014136,22.7665262 51.061846,23.91279 C51.4206719,24.5670313 51.5867348,25.30957 51.540786,26.054336 C51.4778783,26.7291425 51.2292076,27.3733182 50.822376,27.91536 C50.3391226,28.5812942 49.6669086,29.0866465 48.892932,29.365864 C48.0909066,29.660935 47.2192715,29.7109469 46.38876,29.509546 C45.3487319,29.2432712 44.3765435,28.760674 43.535646,28.093252 C41.749884,26.78643 40.798846,25.534344 40.586744,24.343836 C40.3882654,23.12098 40.6437779,21.8677518 41.305154,20.820206 Z" id="Path" fill="#263238"></path>
                <path d="M53.3676,26.943796 C54.306475,25.3574243 55.9066673,24.2751061 57.728523,23.9942091 C59.5503787,23.7133121 61.4022559,24.2633839 62.77535,25.493292 C64.5223407,26.779588 65.5235533,28.236934 65.778988,29.86533 C65.9899885,31.6591721 65.4529819,33.4607424 64.294274,34.846306 C63.5710801,35.9177098 62.5991872,36.7980475 61.461686,37.412056 C60.4907928,37.8889879 59.4003535,38.0675533 58.32805,37.925206 C57.078757,37.733611 55.9002588,37.2221427 54.90705,36.440492 C53.8709217,35.7311535 53.0098794,34.795238 52.389194,33.703692 C51.883011,32.7272391 51.682733,31.6209417 51.814466,30.529004 C51.9988237,29.215581 52.5355439,27.9766321 53.3676,26.943796 L53.3676,26.943796 Z M56.597024,29.338496 C55.9283133,30.0971977 55.5437897,31.0645526 55.509146,32.075296 C55.5936058,32.8287491 55.9868371,33.5134052 56.5950824,33.9660227 C57.2033278,34.4186402 57.972079,34.5986578 58.718044,34.463154 C59.436454,34.292104 60.223284,33.614746 61.085376,32.410554 C61.7179288,31.6886765 62.0700185,30.7635304 62.077466,29.803752 C62.0078212,29.0425219 61.597941,28.3535208 60.96222,27.929044 C60.3813499,27.476233 59.6279447,27.3079725 58.90962,27.47063 C57.9369252,27.8003683 57.1110854,28.4615246 56.576498,29.338496 L56.597024,29.338496 Z" id="Shape" fill="#263238"></path>
                <path d="M62.152728,41.489888 L69.863662,30.99426 L75.262,34.969462 C76.0579315,35.5078064 76.7683292,36.1628484 77.369336,36.91259 C77.7706345,37.4610443 77.9755044,38.1286793 77.950906,38.807824 C77.8460817,40.2275223 76.9900978,41.4827914 75.70673,42.098826 C75.1470994,42.341309 74.5344467,42.4355632 73.92781,42.372506 C73.4282944,42.3069901 72.9415658,42.166277 72.484148,41.955144 C72.7201619,42.2606208 72.9092598,42.5996133 73.045192,42.960918 C73.1193786,43.2656276 73.1584045,43.5778347 73.161506,43.89143 C73.1898093,44.2192362 73.1898093,44.5488718 73.161506,44.876678 L72.477306,49.070824 L68.816836,46.381918 L69.439458,41.900408 C69.5239084,41.4919265 69.5239084,41.0704875 69.439458,40.662006 C69.3243055,40.3292411 69.1092594,40.0401236 68.823678,39.834124 L68.536314,39.622022 L65.40952,43.877746 L62.152728,41.489888 Z M69.99366,37.631 L71.36206,38.636774 C71.6672853,38.8312019 71.9903144,38.996153 72.326782,39.129398 C72.5672169,39.2396172 72.8394264,39.2590608 73.093086,39.184134 C73.7202732,38.9853013 74.1054014,38.3550916 73.99623,37.706262 C73.7940425,37.2205761 73.4383844,36.814453 72.983614,36.549964 L71.560478,35.503138 L69.99366,37.631 Z" id="Shape" fill="#263238"></path>
                <path d="M73.5515,49.864496 L81.262434,39.37571 L86.660772,43.34407 C87.4559114,43.8861092 88.1661096,44.543273 88.768108,45.29404 C89.1674905,45.843453 89.3721525,46.5104103 89.349678,47.189274 C89.3124379,47.9362117 89.0447344,48.6532745 88.583374,49.241874 C88.2124037,49.7795996 87.7013087,50.2055121 87.105502,50.473434 C86.5449505,50.7127069 85.9331323,50.8068328 85.326582,50.747114 C84.8261571,50.6819915 84.3390277,50.538854 83.88292,50.32291 C84.1162659,50.6301396 84.3051387,50.9687287 84.443964,51.328684 C84.5177349,51.6357901 84.5567512,51.9502155 84.560278,52.266038 C84.5882791,52.5938571 84.5882791,52.9234669 84.560278,53.251286 L83.876078,57.445432 L80.208766,54.736 L80.831388,50.261332 C80.9158197,49.8505442 80.9158197,49.4268758 80.831388,49.016088 C80.7142866,48.6843573 80.4996384,48.3957746 80.215608,48.188206 L79.928244,47.982946 L76.80145,52.23867 L73.5515,49.864496 Z M81.4198,46.019292 L82.7882,47.025066 C83.092541,47.2191617 83.4157659,47.3819203 83.752922,47.510848 C83.9916648,47.6264937 84.26508,47.6484646 84.519226,47.572426 C84.7799547,47.494329 85.0081356,47.3334014 85.169216,47.114012 C85.4042541,46.8303789 85.497422,46.4551893 85.42237,46.094554 C85.221008,45.6066003 84.8653304,45.1980516 84.409754,44.931414 L82.986618,43.884588 L81.4198,46.019292 Z" id="Shape" fill="#263238"></path>
                <polygon id="Path" fill="#263238" points="90.93018 46.484548 94.529072 49.12556 94.036448 54.22285 98.757428 52.23867 102.342636 54.87284 93.783294 57.972266 90.55387 62.36483 87.30392 59.976972 90.533344 55.584408"></polygon>
                <path d="M103.197886,55.502304 L106.310996,57.787532 L104.552602,60.182232 L100.447402,64.540586 L98.5248,63.124292 L101.46686,57.890162 L103.197886,55.502304 Z M97.484816,63.500602 L100.385824,65.635306 L98.5248,68.207898 L95.623792,66.073194 L97.484816,63.500602 Z" id="Shape" fill="#263238"></path>
                <path d="M44.78089,54.968628 C45.047728,55.543356 45.22562,55.953876 45.424038,56.432816 C45.622456,56.911756 45.793506,57.356486 45.971398,57.801216 C46.327182,58.718044 46.655598,59.648556 46.929278,60.579068 C47.5137664,62.4447824 47.9979605,64.340448 48.379782,66.257928 C48.585042,67.215808 48.742408,68.187372 48.899774,69.158936 C49.05714,70.1305 49.15977,71.12259 49.235032,72.11468 C49.4121131,74.116548 49.455542,76.1279944 49.36503,78.13564 L49.36503,78.47774 C49.3581156,78.6973582 49.3259752,78.9154535 49.269242,79.12773 C48.91505,80.4827614 48.3269249,81.7655225 47.531374,82.918198 C46.9122208,83.8278197 46.2261196,84.6900201 45.478774,85.497632 C44.149117,86.9508464 42.7103921,88.3003658 41.175156,89.534412 C39.697284,90.731762 38.185202,91.840166 36.63891,92.873308 C35.0915281,93.9107168 33.4930504,94.8698034 31.84951,95.746948 C30.7175972,96.3545772 29.3120982,96.0520301 28.5304496,95.0324883 C27.7488009,94.0129466 27.8215266,92.5770939 28.70219,91.641748 L28.756926,91.58017 L32.301082,87.755492 C33.471064,86.469196 34.62052,85.189742 35.722082,83.896604 C36.7711253,82.6662676 37.7532306,81.3803948 38.664142,80.044558 C39.0571128,79.4727268 39.404831,78.8710828 39.704126,78.245112 C39.8979853,77.9017127 40.0190924,77.5220885 40.05991,77.129866 L39.95728,78.128798 C39.82044,76.541454 39.656232,74.95411 39.362026,73.339398 C39.06782,71.724686 38.739404,70.137342 38.3152,68.549998 C37.890996,66.962654 37.439424,65.354784 36.9468,63.760598 C36.686804,62.973768 36.406282,62.19378 36.139444,61.420634 L35.71524,60.27802 L35.318404,59.238036 L35.215774,58.971198 C34.2477684,56.3480787 35.515339,53.4276693 38.0925359,52.343305 C40.6697327,51.2589408 43.6439155,52.3946181 44.842468,54.920734 L44.78089,54.968628 Z" id="Path" fill="#B55B52"></path>
                <path d="M10.769308,15.87344 C6.342534,20.11548 6.896736,40.853582 8.716708,60.58591 C10.53668,80.318238 27.251686,77.054604 33.45738,68.502104 C41.66778,57.1307 32.43108,40.107804 33.758428,33.402644 C35.20209,26.115914 36.283126,17.871304 27.53905,12.876644 C18.042354,7.437254 9.811428,11.542454 10.769308,15.87344 Z" id="Path" fill="#263238"></path>
                <path d="M7.649356,62.4606248 L7.615146,62.4606248 C7.40963497,62.4390373 7.25997246,62.2557771 7.279888,62.050098 C7.83409,56.576498 7.327782,49.453976 6.842,42.570924 C5.925172,29.639544 5.056238,17.419732 10.865096,15.517656 C10.9594248,15.485433 11.0627716,15.4926923 11.1516696,15.5377854 C11.2405675,15.5828786 11.3074731,15.6619792 11.337194,15.757126 C11.4002544,15.9535279 11.2934479,16.1640895 11.097724,16.229224 C5.84991,17.946566 6.732528,30.440058 7.587778,42.52303 C8.080402,49.43345 8.58671,56.576498 8.025666,62.12536 C8.00463634,62.3170131 7.84215594,62.4617683 7.649356,62.4606248 L7.649356,62.4606248 Z" id="Path" fill="#263238"></path>
                <path d="M15.846072,58.040686 L14.156098,62.830086 C13.588212,64.45164 13.054536,66.073194 12.527702,67.687906 C12.000868,69.302618 11.521928,70.91733 11.08404,72.477306 C10.646152,74.037282 10.276684,75.645152 10.009846,77.150392 L10.009846,76.370404 C9.97687375,77.2181912 10.0902869,78.0653179 10.345104,78.874576 C10.495628,79.33299 10.67352,79.805088 10.885622,80.297712 C11.097724,80.790336 11.378246,81.262434 11.66561,81.7619 C12.2774363,82.793315 12.9634448,83.7788805 13.71821,84.710802 C14.108204,85.196584 14.518724,85.682366 14.94977,86.154464 L16.201856,87.522864 L16.475536,87.81707 C17.2909426,88.7199693 17.3733755,90.066836 16.6741636,91.0624352 C15.9749516,92.0580343 14.680046,92.4375926 13.554002,91.977006 C13.10243,91.78543 12.774014,91.655432 12.404546,91.484382 C12.035078,91.313332 11.720346,91.149124 11.344036,90.96439 C10.6552747,90.5994833 9.97107467,90.2026473 9.291436,89.773882 C7.93193476,88.8904884 6.6664134,87.8702764 5.514652,86.729192 C4.26852174,85.486387 3.20018023,84.0772814 2.339964,82.541888 C1.88725231,81.7005852 1.50286373,80.8242708 1.190508,79.921402 C0.865293577,78.9635337 0.636100124,77.9757099 0.506308,76.9725 C0.496214654,76.85869 0.496214654,76.74421 0.506308,76.6304 L0.506308,76.192512 C0.783581608,72.3312475 1.43899115,68.5064974 2.46312,64.773214 C2.928376,62.960084 3.482578,61.181164 4.057306,59.415928 C4.632034,57.650692 5.254656,55.953876 6.014118,54.147588 C7.08940444,51.5139373 10.0733088,50.2236427 12.7286912,51.2440842 C15.3840737,52.2645257 16.7359677,55.2210317 15.77081,57.897004 L15.846072,58.040686 Z" id="Path" fill="#B55B52"></path>
                <path d="M13.684,47.743476 C8.2104,48.776618 7.067786,51.00711 3.051532,59.292772 C4.262566,64.766372 11.884554,69.555772 11.884554,69.555772 C11.884554,69.555772 22.660704,54.797578 13.684,47.743476 Z" id="Path" fill="#6558F5"></path>
                <path d="M5.008344,58.068054 C4.919398,60.975904 5.206762,64.492692 5.856752,71.409954 C6.301482,77.273548 4.837294,88.419166 6.684634,89.199154 L36.2626,89.199154 C36.857854,80.80402 36.63891,75.02253 41.948302,56.282292 C42.5824335,54.2976313 42.2853707,52.1326732 41.1400946,50.3921723 C39.9948184,48.6516714 38.1240986,47.5222036 36.050498,47.319272 C34.873674,47.202958 33.635272,47.100328 32.355818,47.03875 C27.8868174,46.7202566 23.4008146,46.7202566 18.931814,47.03875 C17.474468,47.17559 15.962386,47.360324 14.511882,47.558742 C9.23709286,48.3358684 5.2527065,52.7419285 5.008344,58.068054 L5.008344,58.068054 Z" id="Path" fill="#6558F5"></path>
                <path d="M18.4734,54.277586 C18.322876,54.831788 17.99446,55.221782 17.7892,55.153362 C17.58394,55.084942 17.474468,54.585476 17.631834,54.031274 C17.7892,53.477072 18.103932,53.09392 18.350244,53.16234 C18.596556,53.23076 18.637608,53.730226 18.4734,54.277586 Z" id="Path" fill="#FFFFFF"></path>
                <path d="M17.392364,58.8412 C17.317102,59.409086 17.057106,59.846974 16.810794,59.812764 C16.564482,59.778554 16.413958,59.299614 16.482378,58.731728 C16.550798,58.163842 16.810794,57.725954 17.063948,57.760164 C17.317102,57.794374 17.460784,58.280156 17.392364,58.8412 Z" id="Path" fill="#FFFFFF"></path>
                <path d="M29.509546,32.424238 C29.379548,36.892064 28.825346,44.192478 31.616882,47.07296 C31.616882,47.07296 27.511682,46.464022 18.836026,51.86236 C16.31817,48.249784 18.186036,47.07296 18.186036,47.07296 C20.66284,46.621388 22.824912,44.103532 21.470196,40.976738 L29.509546,32.424238 Z" id="Path" fill="#B55B52"></path>
                <path d="M20.66284,50.753956 C23.522796,51.157634 24.419098,55.481778 24.419098,55.481778 C24.419098,55.481778 31.261098,50.617116 33.471064,47.189274 C32.6066079,46.7024047 31.7684385,46.1702699 30.96005,45.595088 C30.96005,45.595088 22.332288,49.098192 20.66284,50.753956 Z" id="Path" fill="#FFFFFF"></path>
                <path d="M17.939724,50.2887 C17.939724,50.2887 15.66818,50.781324 14.518724,53.942328 C13.834524,47.640846 16.851846,47.059276 16.851846,47.059276 C17.6395606,46.6234301 18.5598791,46.491956 19.438122,46.689808 C18.1397543,47.3744438 17.5108626,48.8849327 17.939724,50.2887 Z" id="Path" fill="#FFFFFF"></path>
                <path d="M24.480676,38.3152 L23.351746,38.9994 L21.470196,40.997264 C21.9567554,42.0165595 22.023105,43.1862777 21.65493,44.254056 C23.796476,43.419332 25.958548,41.743042 26.533276,39.929912 L26.533276,39.88886 C26.7173463,39.3353436 26.530296,38.7259922 26.0673696,38.3710819 C25.6044431,38.0161716 24.9674237,37.9937363 24.480676,38.3152 Z" id="Path" fill="#000000" opacity="0.2"></path>
                <path d="M28.0522,21.949136 C30.1048,28.7364 31.1311,31.527936 29.14692,36.36523 C26.17065,43.597224 17.645518,45.047728 13.656632,39.10203 C10.071424,33.751586 7.293572,23.543322 12.602964,18.179194 C17.912356,12.815066 25.9996,15.15503 28.0522,21.949136 Z" id="Path" fill="#B55B52"></path>
                <path d="M18.8155,28.093252 C19.013918,28.654296 18.890762,29.229024 18.54182,29.379548 C18.192878,29.530072 17.748148,29.194814 17.54973,28.63377 C17.351312,28.072726 17.474468,27.491156 17.82341,27.340632 C18.172352,27.190108 18.617082,27.525366 18.8155,28.093252 Z" id="Path" fill="#263238"></path>
                <path d="M12.3156,31.014786 C12.514018,31.57583 12.390862,32.1574 12.04192,32.307924 C11.692978,32.458448 11.25509,32.12319 11.056672,31.555304 C10.858254,30.987418 10.98141,30.419532 11.330352,30.269008 C11.679294,30.118484 12.103498,30.453742 12.3156,31.014786 Z" id="Path" fill="#263238"></path>
                <path d="M11.480876,30.234798 L10.064582,30.392164 C10.064582,30.392164 11.090882,31.16531 11.480876,30.234798 Z" id="Path" fill="#263238"></path>
                <path d="M14.217676,30.693212 C14.1928066,32.1852119 13.9790022,33.6680493 13.58137,35.106302 C14.532408,35.496296 15.63397,34.661572 15.63397,34.661572 L14.217676,30.693212 Z" id="Path" fill="#A02724"></path>
                <path d="M18.692344,34.743676 C19.0147377,34.6801677 19.3421953,34.645819 19.67075,34.6410459 C19.7155125,34.6410071 19.7583507,34.6592436 19.7893502,34.6915347 C19.8203496,34.7238258 19.8368231,34.7673724 19.834958,34.812096 C19.8280053,34.9099438 19.7482644,34.9867313 19.650224,34.989988 C18.1485955,35.0094093 16.7368501,35.7089908 15.811862,36.892064 C15.7788625,36.9409522 15.7222881,36.9685218 15.6634498,36.9643874 C15.6046116,36.9602531 15.5524485,36.925043 15.5266098,36.8720204 C15.5007711,36.8189979 15.5051824,36.7562182 15.538182,36.70733 C16.3091895,35.6837467 17.4335606,34.9837587 18.692344,34.743676 L18.692344,34.743676 Z" id="Path" fill="#263238"></path>
                <path d="M31.57583,26.396436 C31.6574732,27.7632835 31.1609115,29.1015173 30.20743,30.084274 C28.982712,31.226888 27.47063,29.913224 27.080636,28.031674 C26.724852,26.321174 26.936954,23.67332 28.524298,23.283326 C30.111642,22.893332 31.527936,24.569622 31.57583,26.396436 Z" id="Path" fill="#FFB573"></path>
                <path d="M22.5786,15.25766 C17.4471,20.772312 24.330152,33.826848 23.625426,43.214072 C22.770176,54.722316 29.824278,56.41229 34.264736,47.196116 C30.96005,38.479408 34.374208,25.424872 33.484748,20.847574 C32.451606,15.59976 26.225386,12.698752 22.5786,15.25766 Z" id="Path" fill="#263238"></path>
                <path d="M15.935018,23.50227 C16.0262867,23.4899491 16.1184578,23.5173513 16.188172,23.577532 C16.8165019,24.1603847 17.6965193,24.3868219 18.528136,24.179628 C18.612531,24.1522918 18.7044698,24.1610337 18.7822005,24.2037856 C18.8599312,24.2465375 18.916548,24.3195011 18.938656,24.405414 C18.9808861,24.5946232 18.8751353,24.7855621 18.692344,24.850144 C17.6424488,25.1277372 16.5234568,24.8518567 15.722916,24.11805 C15.6252308,24.0199958 15.5918817,23.8748867 15.6369569,23.7440232 C15.6820321,23.6131597 15.7976692,23.519368 15.935018,23.50227 L15.935018,23.50227 Z" id="Path" fill="#263238"></path>
                <path d="M9.181964,29.126394 C9.10096998,29.1602241 9.00980402,29.1602241 8.92881,29.126394 C8.75480792,29.0509828 8.67053835,28.8523474 8.737234,28.674822 C9.09359079,27.5965449 9.93023394,26.744736 11.001936,26.369068 C11.0884719,26.3444758 11.1813952,26.3580904 11.2572392,26.4064736 C11.3330832,26.4548569 11.3845972,26.5333833 11.398772,26.622222 C11.4421909,26.8124534 11.3272963,27.0029365 11.138776,27.053268 C10.2971067,27.3663314 9.64450268,28.0466522 9.366698,28.900608 C9.33944413,28.9984129 9.27243539,29.0803125 9.181964,29.126394 L9.181964,29.126394 Z" id="Path" fill="#263238"></path>
                <path d="M17.987618,27.306422 L16.571324,27.47063 C16.571324,27.47063 17.597624,28.243776 17.987618,27.306422 Z" id="Path" fill="#263238"></path>
                <path d="M36.317336,47.387692 C41.106736,48.13347 43.056706,49.597658 46.990856,59.272246 C45.205094,62.87798 37.213638,72.01205 37.213638,72.01205 C37.213638,72.01205 30.296376,54.434952 36.317336,47.387692 Z" id="Path" fill="#6558F5"></path>
                <path d="M41.270944,234.6806 C44.1309,230.116986 44.260898,228.858058 46.121922,226.4702 C47.709266,224.4176 47.716108,224.574966 49.666078,222.80973 C50.959216,221.639748 49.891864,219.963458 48.482412,219.25189 C47.38085,218.70453 46.1835,218.218748 44.856152,217.486654 L39.779388,222.09132 C40.662006,224.711806 40.169382,230.16488 38.239938,233.784298 C36.864696,236.363732 40.12833,236.500572 41.270944,234.6806 Z" id="Path" fill="#263238"></path>
                <path d="M6.684634,89.233364 C6.684634,89.233364 6.000434,126.118586 5.158868,151.283462 C5.00042288,156.327981 6.09593458,161.333012 8.34724,165.85008 C17.24184,183.7077 39.40992,222.522366 39.40992,222.522366 C40.29938,223.302354 44.54142,218.731898 44.88352,217.47297 C44.88352,217.47297 32.827916,168.422672 22.140712,157.43442 C36.344704,118.12713 32.485816,89.233364 32.485816,89.233364 L6.684634,89.233364 Z" id="Path" fill="#263238"></path>
                <g id="Group" opacity="0.2" transform="translate(18.473400, 90.314400)" fill="#000000">
                    <path d="M14.108204,0 L0.17105,0.985248 C0.17105,0.985248 2.442594,41.49673 4.659402,64.21217 C16.140278,30.789 14.614512,5.4736 14.108204,0 Z" id="Path"></path>
                    <path d="M5.1315,68.878414 C6.376744,80.509814 7.66304,95.68537 8.24461,109.684102 C12.815066,117.894502 16.913424,125.126496 19.150758,129.060646 C20.238636,124.1823 21.401776,118.359758 22.332288,112.188274 C18.213404,97.915862 11.542454,77.38302 5.1315,68.878414 Z" id="Path"></path>
                </g>
                <path d="M36.686804,220.606606 C37.18627,221.23607 38.055204,222.358158 38.698352,223.22025 C38.9170096,223.48415 39.2971839,223.545563 39.587812,223.363932 C41.7415557,221.672191 43.7342218,219.784884 45.540352,217.726124 C45.7195081,217.520654 45.7496661,217.224558 45.615614,216.987188 L44.16511,214.407754 C44.0700846,214.242737 43.9068191,214.128312 43.7192812,214.095295 C43.5317434,214.062277 43.3392156,214.114062 43.193546,214.236704 L36.768908,219.710304 C36.6391334,219.818254 36.5575711,219.973346 36.5421727,220.141446 C36.5267742,220.309545 36.5788017,220.476875 36.686804,220.606606 Z" id="Path" fill="#6558F5"></path>
                <path d="M36.686804,220.606606 C37.18627,221.23607 38.055204,222.358158 38.698352,223.22025 C38.9170096,223.48415 39.2971839,223.545563 39.587812,223.363932 C41.7415557,221.672191 43.7342218,219.784884 45.540352,217.726124 C45.7195081,217.520654 45.7496661,217.224558 45.615614,216.987188 L44.16511,214.407754 C44.0700846,214.242737 43.9068191,214.128312 43.7192812,214.095295 C43.5317434,214.062277 43.3392156,214.114062 43.193546,214.236704 L36.768908,219.710304 C36.6391334,219.818254 36.5575711,219.973346 36.5421727,220.141446 C36.5267742,220.309545 36.5788017,220.476875 36.686804,220.606606 Z" id="Path" fill="#FFFFFF" opacity="0.3"></path>
                <path d="M22.85228,239.627366 C28.32588,239.627366 30.419532,239.53842 33.512116,239.43579 C36.153128,239.346844 36.755224,239.67526 38.876244,239.627366 C40.648322,239.586314 40.737268,237.89634 40.3678,235.94637 C40.183066,234.967964 39.868334,233.770614 39.635706,232.190112 L31.315834,232.190112 C29.988486,234.345342 25.116982,235.966896 21.990188,236.377416 C19.013918,236.774252 20.669682,239.627366 22.85228,239.627366 Z" id="Path" fill="#263238"></path>
                <path d="M14.416094,89.233364 C14.416094,89.233364 23.016488,136.60053 26.17065,158.0502 C29.482178,180.6288 33.56001,217.192448 31.315834,232.169586 C32.53371,232.915364 37.035746,232.963258 39.635706,232.169586 C39.635706,232.169586 51.096056,182.996132 41.80462,159.049132 C48.051366,106.283628 38.807824,103.533144 36.255758,89.212838 L14.416094,89.233364 Z" id="Path" fill="#263238"></path>
                <path d="M30.973734,229.07016 C30.8556473,230.108325 30.6658992,231.13708 30.405848,232.14906 C30.3512613,232.311171 30.3717214,232.489173 30.4616658,232.634671 C30.5516102,232.780169 30.7016904,232.878042 30.871104,232.90168 C33.874742,233.394304 38.342568,232.682736 39.765704,232.436424 C40.0450747,232.391647 40.2680676,232.179532 40.326748,231.902748 L41.045158,229.029108 C41.0982818,228.849197 41.0613624,228.654709 40.9460055,228.506781 C40.8306487,228.358853 40.6510207,228.275651 40.463588,228.28333 L31.657934,228.45438 C31.3052439,228.452613 31.008999,228.719233 30.973734,229.07016 L30.973734,229.07016 Z" id="Path" fill="#6558F5"></path>
                <path d="M30.973734,229.07016 C30.8556473,230.108325 30.6658992,231.13708 30.405848,232.14906 C30.3512613,232.311171 30.3717214,232.489173 30.4616658,232.634671 C30.5516102,232.780169 30.7016904,232.878042 30.871104,232.90168 C33.874742,233.394304 38.342568,232.682736 39.765704,232.436424 C40.0450747,232.391647 40.2680676,232.179532 40.326748,231.902748 L41.045158,229.029108 C41.0982818,228.849197 41.0613624,228.654709 40.9460055,228.506781 C40.8306487,228.358853 40.6510207,228.275651 40.463588,228.28333 L31.657934,228.45438 C31.3052439,228.452613 31.008999,228.719233 30.973734,229.07016 L30.973734,229.07016 Z" id="Path" fill="#FFFFFF" opacity="0.3"></path>
                <path d="M22.469128,14.217676 C28.29167,22.64702 12.206128,19.616014 8.703024,27.53905 C8.716708,19.616014 9.37354,13.499266 22.469128,14.217676 Z" id="Path" fill="#263238"></path>
                <path d="M36.2626,89.233364 C27.771678,91.025968 10.071424,95.144852 6.691476,89.233364 C8.8946,87.721282 31.350044,87.994962 36.2626,89.233364 Z" id="Path" fill="#6558F5"></path>
                <path d="M15.969228,93.87224 C15.408184,93.87224 14.88135,93.87224 14.40241,93.831188 C8.874074,93.543824 7.293572,91.847008 7.231994,91.778588 C7.19597989,91.7449466 7.17553545,91.6978725 7.17553545,91.64859 C7.17553545,91.5993075 7.19597989,91.5522334 7.231994,91.518592 C7.30399095,91.4472831 7.41999305,91.4472831 7.49199,91.518592 C7.49199,91.518592 9.06565,93.167514 14.409252,93.454878 C19.752854,93.742242 31.924772,92.237002 35.619452,90.512818 C35.7141321,90.4722666 35.8240977,90.5109032 35.872606,90.601764 C35.912122,90.6982095 35.8702812,90.8087889 35.776818,90.854918 C32.307924,92.490156 21.969662,93.87224 15.969228,93.87224 Z" id="Path" fill="#FFFFFF"></path>
                <path d="M13.943996,107.241511 C13.7599128,107.235149 13.5826121,107.170458 13.437688,107.056774 C10.700888,105.12733 13.294006,95.692212 14.751352,93.11962 C14.7930044,93.0483399 14.8756361,93.0117605 14.9564065,93.0288465 C15.0371769,93.0459325 15.097917,93.1128406 15.107136,93.194882 C15.209766,94.515388 16.085542,106.112578 14.272412,107.152562 C14.1729098,107.211155 14.0594678,107.241879 13.943996,107.241511 L13.943996,107.241511 Z M14.77872,93.892766 C13.3419,97.033244 11.35772,105.16154 13.64979,106.748884 C13.882418,106.913092 14.012416,106.87204 14.087678,106.830988 C15.250818,106.160472 15.148188,98.96953 14.77872,93.892766 L14.77872,93.892766 Z" id="Shape" fill="#FFFFFF"></path>
                <path d="M16.838162,105.004261 C16.6948555,104.999609 16.553516,104.969487 16.4208,104.915228 C13.259796,103.669984 13.943996,95.904314 14.737668,93.160672 C14.7620593,93.084867 14.8294077,93.0309883 14.908718,93.023832 C14.9891006,93.0251645 15.0613056,93.0733012 15.093452,93.146988 C15.469762,94.200656 18.726554,103.45104 17.323944,104.812598 C17.193712,104.938168 17.0190487,105.00705 16.838162,105.004261 Z M14.942928,93.851714 C14.210834,97.033244 13.930312,103.533144 16.55764,104.566286 C16.89974,104.703126 17.022896,104.566286 17.063948,104.566286 C17.953408,103.683668 16.35238,97.888494 14.942928,93.851714 Z" id="Shape" fill="#FFFFFF"></path>
                <path d="M11.898238,100.420034 C11.8060096,100.421051 11.7271627,100.353885 11.713504,100.262668 C11.385088,98.162174 13.41032,93.502772 14.860824,93.037516 C14.9070349,93.0203238 14.9583085,93.0230818 15.0024086,93.0451318 C15.0465087,93.0671819 15.0794792,93.1065459 15.093452,93.15383 C15.1255366,93.2519542 15.0740991,93.3578551 14.977138,93.3933 C13.704526,93.796978 11.788766,98.31954 12.082972,100.2353 C12.0954172,100.336639 12.0262003,100.429931 11.925606,100.447402 L11.898238,100.420034 Z" id="Path" fill="#FFFFFF"></path>
            </g>
        </g>
    </g>
</svg>