<svg xmlns="http://www.w3.org/2000/svg" width="32" height="32" viewBox="0 0 32 32">
    <g fill="none" fill-rule="evenodd">
        <g>
            <g>
                <g>
                    <path d="M0 0L32 0 32 32 0 32z" transform="translate(-295 -349) translate(24 329) translate(271 20)"/>
                    <path fill="#1C1D21" d="M31.063 16.938h-.938v-2.813c0-.518-.42-.938-.938-.938h-2.875V7.54C29.276 7.388 32 6.509 32 4.75c0-1.758-2.725-2.638-5.688-2.789V.937c0-.517-.42-.937-.937-.937-.518 0-.938.42-.938.938v1.024c-2.93.152-5.625 1.031-5.625 2.788s2.695 2.636 5.625 2.788v5.65H19.75c-.518 0-.938.42-.938.937v1.42c-.597-.212-1.225-.358-1.875-.43v-1.952c2.931-.152 5.625-1.031 5.625-2.788s-2.694-2.636-5.625-2.788v-.962c0-.518-.42-.938-.937-.938-.518 0-.938.42-.938.938v.962c-2.93.152-5.624 1.031-5.624 2.788s2.694 2.636 5.624 2.788v1.952c-.65.072-1.277.218-1.874.43v-1.42c0-.518-.42-.938-.938-.938H7.562V7.538c2.931-.152 5.625-1.031 5.625-2.788s-2.694-2.636-5.624-2.788V.938C7.563.42 7.143 0 6.625 0s-.938.42-.938.938V1.96C2.725 2.112 0 2.991 0 4.75c0 1.758 2.725 2.638 5.688 2.789v5.649H2.813c-.518 0-.938.42-.938.937v2.813H.937c-.517 0-.937.42-.937.937V23.5c0 .518.42.938.938.938h4.75v6.625c0 .517.42.937.937.937.518 0 .938-.42.938-.938v-6.625h.051C8.08 28.686 11.662 32 16 32c4.338 0 7.921-3.315 8.386-7.563h.052v6.625c0 .518.42.938.937.938.518 0 .938-.42.938-.938v-6.625h4.75c.517 0 .937-.42.937-.937v-5.625c0-.518-.42-.938-.938-.938zM20.773 4.75c.44-.347 2.01-.938 4.602-.938 2.6 0 4.193.588 4.655.938-.462.35-2.054.938-4.655.938-2.591 0-4.162-.591-4.602-.938zm-.085 10.313h7.562v1.874h-6.953c-.196-.158-.4-.308-.61-.45v-1.424zm-9.29-4.688c.44-.347 2.01-.938 4.602-.938 2.591 0 4.162.591 4.602.938-.44.347-2.01.938-4.602.938-2.591 0-4.162-.591-4.602-.938zM1.97 4.75c.462-.35 2.054-.938 4.655-.938 2.591 0 4.162.591 4.602.938-.44.347-2.01.938-4.602.938-2.6 0-4.193-.588-4.655-.938zm1.78 10.313h7.563v1.425c-.21.14-.414.29-.61.45H3.75v-1.875zm3.865 7.5h-5.74v-3.757h7.113c-.735 1.097-1.22 2.38-1.373 3.756zM16 30.125c-3.619 0-6.563-2.972-6.563-6.625 0-3.619 2.944-6.563 6.563-6.563 3.619 0 6.563 2.944 6.563 6.563 0 3.653-2.944 6.625-6.563 6.625zm0-9.438c1.55 0 2.813 1.262 2.813 2.813 0 1.55-1.262 2.813-2.813 2.813-1.55 0-2.813-1.262-2.813-2.813 0-1.55 1.262-2.813 2.813-2.813zm0 1.875c-.517 0-.938.421-.938.938 0 .517.421.938.938.938.517 0 .938-.421.938-.938 0-.517-.421-.938-.938-.938zm14.125-3.75v3.75h-5.74c-.153-1.376-.638-2.653-1.373-3.75h7.113z" transform="translate(-295 -349) translate(24 329) translate(271 20)"/>
                </g>
            </g>
        </g>
    </g>
</svg>
