<?xml version="1.0" encoding="UTF-8"?>
<svg width="40px" height="40px" viewBox="0 0 40 40" version="1.1" xmlns="http://www.w3.org/2000/svg" xmlns:xlink="http://www.w3.org/1999/xlink">
    <title>rythmico-drums-icon</title>
    <g id="High-Fidelity" stroke="none" stroke-width="1" fill="none" fill-rule="evenodd">
        <g id="rythmico-drums-icon" transform="translate(0.000000, 0.000000)">
            <polygon id="Path" points="0 0 40 0 40 40 0 40"></polygon>
            <path d="M20,-5.5067062e-14 C20.4314844,-5.5067062e-14 20.78125,0.349765625 20.78125,0.78125 L20.78125,0.78125 L20.78125,1.58484375 C23.8575,1.75507812 26.5021875,2.92367187 27.7878125,4.6875 L27.7878125,4.6875 L29.375,4.6875 C29.8064844,4.6875 30.15625,5.03726562 30.15625,5.46875 C30.15625,5.90023437 29.8064844,6.2421875 29.375,6.2421875 L29.375,6.2421875 L20.78125,6.2421875 L20.78125,7.8125 L29.375,7.8125 C29.8064844,7.8125 30.15625,8.16226562 30.15625,8.59375 C30.15625,9.02523437 29.8064844,9.375 29.375,9.375 L29.375,9.375 L27.7878125,9.375 C26.5021875,11.1388281 23.8575,12.3074219 20.78125,12.4776562 L20.78125,12.4776562 L20.78125,16.1251562 C21.8575,16.2083594 22.9134375,16.4619531 23.90625,16.8763281 L23.90625,16.8763281 C23.90625,15.5826562 24.9576562,14.53125 26.25,14.53125 L26.25,14.53125 L37.65625,14.53125 C38.9485938,14.53125 40,15.5826562 40,16.875 L40,16.875 L40,23.125 C40,24.4173437 38.9485938,25.46875 37.65625,25.46875 L37.65625,25.46875 L33.28125,25.46875 L33.28125,34.2075781 L37.74,38.6663281 C38.0450781,38.9714844 38.0450781,39.4661719 37.74,39.77125 C37.4348437,40.0763281 36.9401562,40.0763281 36.6350781,39.77125 L36.6350781,39.77125 L32.5,35.6361719 L28.365,39.77125 C28.0598437,40.0763281 27.5652344,40.0763281 27.2600781,39.77125 C26.955,39.4660937 26.955,38.9714062 27.2600781,38.6663281 L27.2600781,38.6663281 L31.71875,34.2076562 L31.71875,25.46875 L30.1257813,25.46875 C30.1457031,25.7279687 30.15625,25.9888281 30.15625,26.25 C30.15625,29.8382031 28.2857812,32.9977344 25.46875,34.8048437 L25.46875,34.8048437 L25.46875,39.21875 C25.46875,39.6502344 25.1189844,40.0000586 24.6875,40.0000586 C24.2560156,40.0000586 23.90625,39.6502344 23.90625,39.21875 L23.90625,39.21875 L23.90625,35.6245312 C22.703125,36.1277344 21.3835156,36.40625 20,36.40625 C18.6164844,36.40625 17.296875,36.1277344 16.09375,35.6245312 L16.09375,35.6245312 L16.09375,39.21875 C16.09375,39.6502344 15.7439844,40.0000586 15.3125,40.0000586 C14.8810156,40.0000586 14.53125,39.6502344 14.53125,39.21875 L14.53125,39.21875 L14.53125,34.8048437 C11.7142188,32.9977344 9.84375,29.8382031 9.84375,26.25 C9.84375,25.9888281 9.85429688,25.7201562 9.87421875,25.4609375 L9.87421875,25.4609375 L8.28125,25.4609375 L8.28125,34.2075781 L12.74,38.6663281 C13.0450781,38.9714844 13.0450781,39.4661719 12.74,39.77125 C12.4348437,40.0763281 11.9401563,40.0763281 11.6350781,39.77125 L11.6350781,39.77125 L7.5,35.6361719 L3.365,39.77125 C3.05984375,40.0763281 2.56523438,40.0763281 2.26007813,39.77125 C1.955,39.4660937 1.955,38.9714062 2.26007813,38.6663281 L2.26007813,38.6663281 L6.71875,34.2076562 L6.71875,25.46875 L2.34375,25.46875 C1.05140625,25.46875 0,24.4173437 0,23.125 L0,23.125 L0,16.875 C0,15.5826562 1.05140625,14.53125 2.34375,14.53125 L2.34375,14.53125 L13.75,14.53125 C15.0423438,14.53125 16.09375,15.5826562 16.09375,16.875 L16.09375,16.875 C17.0863281,16.4620312 18.1422656,16.2084375 19.21875,16.1251562 L19.21875,16.1251562 L19.21875,12.4776562 C16.1425,12.3074219 13.4978125,11.1388281 12.2121875,9.375 L12.2121875,9.375 L10.625,9.375 C10.1935156,9.375 9.84375,9.02523437 9.84375,8.59375 C9.84375,8.16226562 10.1935156,7.8125 10.625,7.8125 L10.625,7.8125 L19.21875,7.8125 L19.21875,6.25 L10.625,6.25 C10.1935156,6.25 9.84375,5.90023437 9.84375,5.46875 C9.84375,5.03726562 10.1935156,4.6875 10.625,4.6875 L10.625,4.6875 L12.2121875,4.6875 C13.4978125,2.92367187 16.1425,1.75507812 19.21875,1.58484375 L19.21875,1.58484375 L19.21875,0.78125 C19.21875,0.349765625 19.5685156,-5.5067062e-14 20,-5.5067062e-14 Z M20,17.65625 C15.2719531,17.65625 11.40625,21.5001562 11.40625,26.25 C11.40625,30.9885937 15.2614063,34.84375 20,34.84375 C24.7385937,34.84375 28.59375,30.9885937 28.59375,26.25 C28.59375,21.566875 24.7853906,17.65625 20,17.65625 Z M20,19.21875 C23.8770312,19.21875 27.03125,22.3729687 27.03125,26.25 C27.03125,30.1270312 23.8770312,33.28125 20,33.28125 C16.1229687,33.28125 12.96875,30.1270312 12.96875,26.25 C12.96875,25.5896875 13.0604688,24.9361719 13.2414063,24.3074219 C13.3607031,23.8927344 13.7936719,23.6532812 14.2082031,23.7726562 C14.6228906,23.8919531 14.8622656,24.3248437 14.7429688,24.7394531 C14.6025,25.2277344 14.53125,25.7359375 14.53125,26.25 C14.53125,29.2654687 16.9845312,31.71875 20,31.71875 C23.0154688,31.71875 25.46875,29.2654687 25.46875,26.25 C25.46875,23.2345312 23.0154688,20.78125 20,20.78125 C19.4859375,20.78125 18.9777344,20.8525 18.4894531,20.9929687 C18.0748437,21.1123437 17.6419531,20.8728906 17.5226563,20.4582031 C17.4033594,20.0435937 17.6427344,19.6107031 18.0574219,19.4914062 C18.6861719,19.3104687 19.3396875,19.21875 20,19.21875 Z M12.6807031,19.2109375 L1.5625,19.2109375 L1.5625,23.125 C1.5625,23.5557812 1.91296875,23.90625 2.34375,23.90625 L2.34375,23.90625 L10.1186719,23.90625 C10.5374219,22.1438281 11.4294531,20.5147656 12.6807031,19.2109375 L12.6807031,19.2109375 Z M38.4375,19.21875 L27.3196875,19.21875 C28.5698437,20.5217187 29.4620312,22.1428906 29.8811719,23.90625 L29.8811719,23.90625 L37.65625,23.90625 C38.0870313,23.90625 38.4375,23.5557812 38.4375,23.125 L38.4375,23.125 L38.4375,19.21875 Z M15.028125,21.278125 C15.3335937,20.9734375 15.828125,20.9734375 16.1328125,21.278125 C16.4382812,21.5835937 16.4382812,22.078125 16.1328125,22.3828125 C15.828125,22.6882812 15.3335937,22.6882812 15.028125,22.3828125 C14.7234375,22.078125 14.7234375,21.5835937 15.028125,21.278125 Z M13.75,16.09375 L2.34375,16.09375 C1.91296875,16.09375 1.5625,16.4442187 1.5625,16.875 L1.5625,16.875 L1.5625,17.65625 L14.53125,17.65625 L14.53125,16.875 C14.53125,16.4442187 14.1807813,16.09375 13.75,16.09375 L13.75,16.09375 Z M37.65625,16.09375 L26.25,16.09375 C25.8192187,16.09375 25.46875,16.4442187 25.46875,16.875 L25.46875,16.875 L25.46875,17.65625 L38.4375,17.65625 L38.4375,16.875 C38.4375,16.4442187 38.0870313,16.09375 37.65625,16.09375 L37.65625,16.09375 Z M25.5735938,9.3671875 L14.4264062,9.3671875 C15.7471875,10.3246875 17.8092188,10.9375 20,10.9375 C22.1907813,10.9375 24.2528125,10.3246875 25.5735938,9.3671875 L25.5735938,9.3671875 Z M20,3.125 C17.8092187,3.125 15.7471875,3.73 14.4264062,4.6875 L14.4264062,4.6875 L25.5735938,4.6875 C24.2528125,3.73 22.1907813,3.125 20,3.125 Z" id="Combined-Shape" fill="#141E29" fill-rule="nonzero"></path>
        </g>
    </g>
</svg>