<?xml version="1.0" encoding="UTF-8"?>
<svg width="40px" height="40px" viewBox="0 0 40 40" version="1.1" xmlns="http://www.w3.org/2000/svg" xmlns:xlink="http://www.w3.org/1999/xlink">
    <title>rythmico-trumpet-icon</title>
    <g id="High-Fidelity" stroke="none" stroke-width="1" fill="none" fill-rule="evenodd">
        <g id="rythmico-trumpet-icon" transform="translate(0.000000, 0.000000)">
            <polygon id="Path" points="0 0 40 0 40 40 0 40"></polygon>
            <path d="M25.3851793,0.686953125 C26.3193625,-0.22921875 27.8314741,-0.22890625 28.7655777,0.686953125 L28.7655777,0.686953125 L39.2376892,10.9547656 C40.1720319,11.8709375 40.1719522,13.3532031 39.2375299,14.2692969 C38.3736255,15.1163281 37.0208765,15.1772656 36.0862948,14.4665625 L36.0862948,14.4665625 L33.8035857,14.2183594 C31.2368127,13.9386719 29.3302789,14.6186719 27.5868526,15.8150781 C28.9,15.8944531 30.1882869,16.4267969 31.1885259,17.4075 C33.3685259,19.545 33.3682869,23.0044531 31.1885259,25.1416406 L31.1885259,25.1416406 L30.6250996,25.6941406 L31.1887649,26.2471875 C32.1230279,27.1632812 32.1224701,28.6457031 31.1885259,29.5614062 C30.2565737,30.4752344 28.7401594,30.4750781 27.8082072,29.5614062 L27.8082072,29.5614062 L27.2448606,29.0090625 L26.1176892,30.1138281 L26.6808765,30.6660156 C27.6164143,31.5821875 27.6155378,33.0659375 26.6805578,33.9815625 C25.7484462,34.8954687 24.2318725,34.8944531 23.3004781,33.98125 L23.3004781,33.98125 L22.7370518,33.4288281 L21.6102789,34.5332031 L22.1736255,35.0855469 C23.1084462,36.0021094 23.1078088,37.4851562 22.1737849,38.4009375 C21.2396016,39.3171094 19.7266932,39.3167969 18.7925896,38.4009375 L18.7925896,38.4009375 L18.2293227,37.8486719 L17.6660558,38.4009375 C15.4911554,40.5334375 11.9522709,40.5327344 9.77721116,38.4010156 C8.67705179,37.3219531 8.13442231,35.8942187 8.15067729,34.4711719 L8.15067729,34.4711719 L6.86454183,35.7322656 C7.28007968,36.5833594 7.14860558,37.6640625 6.39705179,38.4009375 C5.46286853,39.3171094 3.94996016,39.3167969 3.01585657,38.4009375 L3.01585657,38.4009375 L0.762310757,36.190625 C-0.172031873,35.2744531 -0.171792829,33.7921875 0.762071713,32.8766406 C1.5123506,32.1410937 2.61298805,32.0096094 3.48318725,32.4182031 L3.48318725,32.4182031 L8.08669323,27.9046094 L7.52342629,27.3523437 C6.78924303,26.6315625 6.63410359,25.555625 7.05697211,24.6846875 L7.05697211,24.6846875 L5.83298805,23.4846094 L5.26908367,24.0375 C4.95760956,24.3425781 4.45314741,24.3421094 4.14215139,24.0370312 C3.8310757,23.7317969 3.83123506,23.2370312 4.1425498,22.9320312 L4.1425498,22.9320312 L6.39649402,20.7219531 C6.70749004,20.4167969 7.21211155,20.4166406 7.52342629,20.7214844 C7.83466135,21.0265625 7.8349004,21.5213281 7.5238247,21.8264844 L7.5238247,21.8264844 L6.95992032,22.379375 L8.18302789,23.5785937 C9.05498008,23.1689844 10.1531474,23.3025781 10.9031873,24.0360156 L10.9031873,24.0360156 L11.4676494,24.589375 L12.5945817,23.4844531 L12.0313944,22.9322656 C11.2968127,22.2117969 11.1415936,21.1357812 11.5647809,20.2646094 L11.5647809,20.2646094 L10.3407171,19.0649219 L9.77721116,19.6171875 C9.46605578,19.9222656 8.96151394,19.9222656 8.65027888,19.6171875 C8.33904382,19.3119531 8.33912351,18.8172656 8.65027888,18.5121875 C9.48390438,17.6950781 10.1433466,17.0488281 10.9047012,16.3025781 C11.2159363,15.9975781 11.7205578,15.9978125 12.0316335,16.3029687 C12.3427092,16.6082031 12.3425498,17.1029687 12.0312351,17.4078906 L12.0312351,17.4078906 L11.4678088,17.9601562 L12.6902789,19.1583594 C13.5591235,18.7504687 14.6625498,18.8803906 15.41251,19.6177344 L15.41251,19.6177344 L15.9753785,20.1696094 L17.1023904,19.0646094 L16.5392032,18.5124219 C15.7894024,17.7771094 15.6551394,16.6972656 16.0716335,15.8438281 L16.0716335,15.8438281 L14.8486056,14.6450781 L14.2850996,15.1973437 C13.9739442,15.5023437 13.4694024,15.5024219 13.1581673,15.1973437 C12.847012,14.8921875 12.847012,14.3974219 13.1581673,14.0923437 C13.9975299,13.2696875 14.6594422,12.6210156 15.4126693,11.8826562 C15.7239044,11.5777344 16.2284462,11.5778125 16.5396016,11.8830469 C16.8506773,12.1882812 16.8505179,12.6830469 16.5392032,12.9879687 L16.5392032,12.9879687 L15.9757769,13.5402344 L17.1987251,14.7389062 C18.0709163,14.3290625 19.169243,14.4629687 19.9190438,15.1964844 L19.9190438,15.1964844 L20.4831076,15.7495312 C23.6725896,12.6139062 25.9133865,10.2128125 25.4371315,6.015 L25.4371315,6.015 L25.1839841,3.77664062 C24.4584861,2.85984375 24.5215936,1.53367187 25.3851793,0.686953125 Z M11.4678884,31.2190625 L10.8776096,31.7974219 C9.35354582,33.3203906 9.3650996,35.7864062 10.9041434,37.2960156 C12.4579283,38.81875 14.9858964,38.8189062 16.5392032,37.2958594 L16.5392032,37.2958594 L17.1024701,36.7435937 L15.9750598,35.6382031 L15.4117928,36.1904687 C14.4789641,37.1064062 12.9642231,37.1050781 12.0313944,36.1904687 C11.0974502,35.2759375 11.0983267,33.7897656 12.0317131,32.8757812 L12.0317131,32.8757812 L12.5946614,32.3238281 L11.4678884,31.2190625 Z M3.01569721,33.9809375 C2.70398406,33.6754687 2.20079681,33.675625 1.88924303,33.9810156 C1.57784861,34.2865625 1.57792829,34.7803125 1.88924303,35.085625 L1.88924303,35.085625 L4.14286853,37.2959375 C4.45426295,37.60125 4.95888446,37.6010156 5.27011952,37.2958594 C5.58159363,36.9905469 5.58151394,36.4959375 5.2701992,36.1904687 L5.2701992,36.1904687 L3.01593625,33.9811719 L3.01593625,33.9811719 Z M21.0266135,36.1709414 L21.0196713,36.1636314 C21.0094655,36.1536376 20.9959381,36.140389 20.9783544,36.1231656 L20.9126992,36.0588507 C20.767327,35.9164388 20.4770208,35.6320095 19.9195219,35.0857812 C17.92,33.1253125 11.8018327,27.1265625 9.77737052,25.1416406 C9.46573705,24.8369531 8.96406375,24.8348437 8.6498008,25.1422656 C8.34,25.4460937 8.34015936,25.9421875 8.65091633,26.2472656 C11.0285259,28.5783594 16.0603187,33.511875 19.9196813,37.2958594 C20.2310757,37.6011719 20.7356175,37.6011719 21.047012,37.2958594 C21.3584861,36.9905469 21.3584861,36.4959375 21.0470916,36.1903906 L21.0470916,36.1903906 L21.0456574,36.1890625 L21.0356135,36.1799414 L21.0386135,36.1819414 L21.0266135,36.1709414 Z M13.7215936,33.4288281 L13.1583267,33.9810937 C12.8469323,34.2860937 12.8487649,34.7824219 13.158008,35.0853125 C13.4694024,35.390625 13.9751394,35.3898437 14.2846215,35.0860156 L14.2846215,35.0860156 L14.8482072,34.5334375 L13.7215936,33.4288281 Z M9.21386454,29.0089844 L4.70629482,33.4285156 L5.83346614,34.5332812 L9.73960159,30.7034375 L9.73960159,30.7034375 L9.77513944,30.6678125 L10.3403984,30.1135156 L9.21386454,29.0089844 Z M20.4830279,31.2186719 L19.3565737,32.3235156 L20.4834263,33.4282812 L21.6102789,32.3239062 L20.4830279,31.2186719 Z M14.2850199,20.721875 C13.9698805,20.4121094 13.4647809,20.4207031 13.1591235,20.7211719 C12.8476494,21.0265625 12.8476494,21.5225 13.1584064,21.8272656 C13.886756,22.5414279 16.1951436,24.8047119 18.5612967,27.1246228 L19.1788635,27.7301202 C21.4407396,29.9477907 23.6343562,32.0985289 24.42749,32.8761719 C24.738008,33.1807812 25.243506,33.180625 25.5541036,32.8761719 C25.8678088,32.5689844 25.8644622,32.0748437 25.5545817,31.7713281 L25.5545817,31.7713281 L24.4274104,30.6660937 C22.2518725,28.533125 16.4662151,22.8604687 14.2850199,20.721875 Z M18.2294821,29.0089844 L17.1027092,30.11375 L18.2296414,31.2185937 L19.3561753,30.1136719 L18.2294821,29.0089844 Z M24.9909163,26.7988281 L23.8641434,27.9040625 L24.9909163,29.0088281 L26.1181673,27.9040625 L24.9909163,26.7988281 Z M15.9758566,26.7994531 L14.8488446,27.9040625 L15.9757769,29.0089062 L17.1025498,27.9041406 L15.9758566,26.7994531 Z M18.79251,16.301875 C18.4856574,16.0017969 17.9842231,15.991875 17.6662151,16.3020312 L17.6662151,16.3020312 C17.3559363,16.6063281 17.3537849,17.1011719 17.6661355,17.4074219 C18.1303586,17.8625781 28.3944223,27.9261719 28.9352191,28.4564062 C29.2458964,28.7609375 29.7513147,28.7609375 30.0618327,28.4564062 C30.3733068,28.1510156 30.3731474,27.6571094 30.0618327,27.351875 C29.6058167,26.9046875 19.4193625,16.9165625 18.79251,16.301875 Z M13.7215936,24.589375 L12.594741,25.6942187 L13.7218327,26.7992969 L14.8488446,25.6946094 L13.7215936,24.589375 Z M22.7371315,24.5892187 L21.6099602,25.6940625 L22.7372112,26.7992969 L23.8639841,25.6940625 L22.7371315,24.5892187 Z M20.4830279,22.3789844 L19.356255,23.4842187 L20.4831076,24.5890625 L21.6102789,23.4842187 L20.4830279,22.3789844 Z M30.0618327,18.5123437 C28.5638247,17.0434375 26.1618327,16.979375 24.5877291,18.3635156 C24.378247,18.564375 24.1671713,18.7690625 23.9537849,18.9774219 C23.9242231,19.00625 23.8941036,19.0358594 23.8644622,19.0648437 L23.8644622,19.0648437 L24.990757,20.1691406 L25.5540239,19.616875 C26.4862948,18.70375 28.0028685,18.7038281 28.9349004,19.6165625 C29.8674104,20.5308594 29.8674104,22.0179687 28.9352191,22.9320312 L28.9352191,22.9320312 L28.3719522,23.4842969 L29.4985657,24.5889062 L30.0618327,24.0366406 C31.6189641,22.51 31.6187251,20.03875 30.0618327,18.5123437 Z M27.8082869,20.721875 C27.4976892,20.4176562 26.9916335,20.4177344 26.6805578,20.7221875 L26.6805578,20.7221875 L26.1176892,21.2740625 L27.2450199,22.3794531 L27.8082869,21.8271875 C28.1190438,21.5225 28.1190438,21.0265625 27.8082869,20.721875 Z M18.2294821,20.1695312 L17.1024701,21.2745312 L18.2294024,22.3794531 L19.3561753,21.2742187 L18.2294821,20.1695312 Z M27.6385657,1.79179687 C27.3270916,1.48648437 26.8233466,1.48648437 26.5119522,1.79179687 C26.2005578,2.0971875 26.2006375,2.59101562 26.5119522,2.89632812 L26.5119522,2.89632812 L29.4938645,5.82085937 C29.8050199,6.12609375 29.8049402,6.62078125 29.4937052,6.92585937 C29.1824701,7.2309375 28.6779283,7.23078125 28.3667729,6.92570312 L28.3667729,6.92570312 L26.9908367,5.57632812 L27.0209562,5.84257812 C27.2898805,8.21304687 26.8388845,10.24875 25.6015139,12.24875 C24.6024701,13.8635156 23.2161753,15.2753906 21.6098805,16.8544531 L21.6098805,16.8544531 L22.7374502,17.96 L22.7374502,17.96 L22.8271713,17.8721875 L22.8271713,17.8721875 L22.82749,17.871875 L23.3,17.4078906 C23.3599203,17.3491406 23.4243825,17.2891406 23.4913147,17.2291406 C25.089004,15.6992969 26.4835857,14.5121875 28.0948207,13.6911719 C29.9083665,12.7671094 31.8333068,12.4314062 33.9795219,12.6652344 L33.9795219,12.6652344 L34.2510757,12.6947656 L32.874741,11.345625 C32.5635857,11.0404687 32.563506,10.5457812 32.8746614,10.240625 C33.1857371,9.93554687 33.6904382,9.93546875 34.0015936,10.2404687 L34.0015936,10.2404687 L36.9842231,13.1640625 C37.2958566,13.4695312 37.7996016,13.469375 38.1109163,13.1641406 C38.4223108,12.8588281 38.4223108,12.3649219 38.110757,12.0595312 L38.110757,12.0595312 Z M30.6212749,8.03039062 C30.9320319,7.72570312 31.436494,7.72570312 31.7480478,8.03039062 C32.0588845,8.3359375 32.0588845,8.83046875 31.7480478,9.13515625 C31.436494,9.440625 30.9320319,9.440625 30.6212749,9.13515625 C30.3097211,8.83046875 30.3097211,8.33585937 30.6212749,8.03039062 Z" id="Combined-Shape" fill="#141E29" fill-rule="nonzero"></path>
        </g>
    </g>
</svg>