<?xml version="1.0" encoding="UTF-8"?>
<svg width="106px" height="90px" viewBox="0 0 106 90" version="1.1" xmlns="http://www.w3.org/2000/svg" xmlns:xlink="http://www.w3.org/1999/xlink">
    <title>Icon / Trumpet</title>
    <g id="Icon-/-Trumpet" stroke="none" stroke-width="1" fill="none" fill-rule="evenodd">
        <path d="M87.6383318,88.3483636 C79.4291195,90.4883057 70.5135831,89.7789175 62.7415671,86.3670068 C54.9695511,82.9550962 48.3911765,76.8623008 44.3719666,69.3537419 C41.7479714,64.4518422 40.2037559,58.5858319 41.9430073,53.3010269 C42.5798702,51.3654106 43.7081364,49.5067588 45.4506566,48.4643142 C47.8461111,47.0310214 50.9993726,47.4226913 53.4212496,48.8105176 C55.8431266,50.197796 57.6602834,52.4338752 59.2736877,54.7195294 C64.1588459,61.6394878 67.7277844,69.4920589 73.2037706,75.9491347 C78.6794844,82.4064844 86.87998,87.4798424 95.204416,86.0832516 L87.6383318,88.3483636 Z" id="shape-blob-yellow" fill="#FFBC65" transform="translate(68.204416, 68.561628) scale(-1, 1) rotate(-63.000000) translate(-68.204416, -68.561628) "></path>
        <path d="M101.05,38 C100.662637,25.2807688 94.5987913,12.8526438 84.8759042,4.85124189 C81.961939,2.452927 78.5897938,0.38522703 74.8573758,0.0418043153 C71.1249578,-0.301618399 67.0117896,1.48192207 65.5286771,4.98452984 C63.9239805,8.77411918 65.8509816,13.3250128 68.9217262,16.0196438 C71.9922576,18.7144918 75.9744562,20.0113359 79.7892101,21.4099911 C84.4883283,23.1327488 89.1477716,25.1309827 93.1896957,28.117371 C95.8845963,30.1081518 98.5046977,33.4023615 101.05,38 Z" id="shape-blob-red2" fill="#FF6F6F" transform="translate(83.000000, 19.000000) scale(-1, 1) translate(-83.000000, -19.000000) "></path>
        <path d="M15.3441019,53.9060376 C12.4105713,48.0433271 11.58847,41.2286441 13.0481378,34.8767457 C14.5078056,28.5248472 18.2401818,22.6760637 23.4699784,18.5446603 C26.8846285,15.8477438 31.2168186,13.8210669 35.6024664,14.3511655 C37.2089164,14.5452739 38.8307695,15.1206354 39.9120048,16.278322 C41.3979485,17.8700685 41.5788591,20.3009202 40.8712237,22.3281774 C40.1641924,24.3551444 38.7021085,26.0525045 37.1702577,27.6036304 C32.5321203,32.2996599 26.9646641,36.1429472 22.7783502,41.2155875 C18.5920363,46.2882278 15.9040489,53.2073636 18.2758203,59.2665038 L15.3441019,53.9060376 Z" id="shape-blob-green" fill="#00A19E" transform="translate(26.806425, 36.766504) scale(-1, 1) rotate(24.000000) translate(-26.806425, -36.766504) "></path>
        <g id="iOS-/-Icon-/-Guitar" transform="translate(21.000000, 12.999906)">
            <polygon id="Path" points="0 9.37579958e-05 64 9.37579958e-05 64 64.0000938 0 64.0000938"></polygon>
            <path d="M40.6162869,1.09921876 C42.1109801,-0.366656242 44.5303586,-0.366156242 46.0249243,1.09921876 L46.0249243,1.09921876 L62.7803028,17.5277188 C64.275251,18.9935938 64.2751235,21.3652188 62.7800478,22.8309688 C61.3978008,24.1862188 59.2334024,24.2837188 57.7380717,23.1465938 L57.7380717,23.1465938 L54.0857371,22.7494688 C49.9789004,22.3019688 46.9284462,23.3899688 44.1389641,25.3042188 C46.24,25.4312188 48.301259,26.2829688 49.9016414,27.8520938 C53.3896414,31.2720938 53.389259,36.8072188 49.9016414,40.2267188 L49.9016414,40.2267188 L49.0001594,41.1107188 L49.9020239,41.9955938 C51.3968446,43.4613438 51.3959522,45.8332188 49.9016414,47.2983438 C48.4105179,48.7604688 45.984255,48.7602188 44.4931315,47.2983438 L44.4931315,47.2983438 L43.5917769,46.4145938 L41.7883028,48.1822188 L42.6894024,49.0657188 C44.1862629,50.5315938 44.1848606,52.9055938 42.6888924,54.3705938 C41.1975139,55.8328438 38.770996,55.8312188 37.2807649,54.3700938 L37.2807649,54.3700938 L36.3792829,53.4862188 L34.5764462,55.2532188 L35.4778008,56.1369688 C36.9735139,57.6034688 36.972494,59.9763438 35.4780558,61.4415938 C33.9833625,62.9074688 31.5627092,62.9069688 30.0681434,61.4415938 L30.0681434,61.4415938 L29.1669163,60.5579688 L28.2656892,61.4415938 C24.7858486,64.8535938 19.1236335,64.8524688 15.6435378,61.4417188 C13.8832829,59.7152188 13.0150757,57.4308438 13.0410837,55.1539688 L13.0410837,55.1539688 L10.9832669,57.1717188 C11.6481275,58.5334688 11.4377689,60.2625938 10.2352829,61.4415938 C8.74058964,62.9074688 6.31993625,62.9069688 4.82537052,61.4415938 L4.82537052,61.4415938 L1.21969721,57.9050938 C-0.275250996,56.4392188 -0.274868526,54.0675938 1.21931474,52.6027188 C2.41976096,51.4258438 4.18078088,51.2154688 5.5730996,51.8692188 L5.5730996,51.8692188 L12.9387092,44.6474688 L12.0374821,43.7638438 C10.8627888,42.6105938 10.6145657,40.8890938 11.2911554,39.4955938 L11.2911554,39.4955938 L9.33278088,37.5754688 L8.43053386,38.4600938 C7.9321753,38.9482188 7.12503586,38.9474688 6.62744223,38.4593438 C6.12972112,37.9709688 6.1299761,37.1793438 6.62807968,36.6913438 L6.62807968,36.6913438 L10.2343904,33.1552188 C10.7319841,32.6669688 11.5393785,32.6667188 12.0374821,33.1544688 C12.5354582,33.6425938 12.5358406,34.4342188 12.0381195,34.9224688 L12.0381195,34.9224688 L11.1358725,35.8070938 L13.0928446,37.7258438 C14.4879681,37.0704688 16.2450359,37.2842188 17.4450996,38.4577188 L17.4450996,38.4577188 L18.348239,39.3430938 L20.1513307,37.5752188 L19.2502311,36.6917188 C18.0749004,35.5389688 17.8265498,33.8173438 18.5036494,32.4234688 L18.5036494,32.4234688 L16.5451474,30.5039688 L15.6435378,31.3875938 C15.1456892,31.8757188 14.3384223,31.8757188 13.8404462,31.3875938 C13.3424701,30.8992188 13.3425976,30.1077188 13.8404462,29.6195938 C15.174247,28.3122188 16.2293546,27.2782188 17.4475219,26.0842188 C17.945498,25.5962188 18.7528924,25.5965938 19.2506135,26.0848438 C19.7483347,26.5732188 19.7480797,27.3648438 19.2499761,27.8527188 L19.2499761,27.8527188 L18.348494,28.7363438 L20.3044462,30.6534688 C21.6945976,30.0008438 23.4600797,30.2087188 24.6600159,31.3884688 L24.6600159,31.3884688 L25.5606056,32.2714688 L27.3638247,30.5034688 L26.4627251,29.6199688 C25.2630438,28.4434688 25.0482231,26.7157188 25.7146135,25.3502188 L25.7146135,25.3502188 L23.7577689,23.4322188 L22.8561594,24.3158438 C22.3583108,24.8038438 21.5510438,24.8039688 21.0530677,24.3158438 C20.5552191,23.8275938 20.5552191,23.0359688 21.0530677,22.5478438 C21.7991678,21.8165938 22.4576381,21.171262 23.1022139,20.5395104 L23.8737546,19.7832975 C24.1318578,19.5303129 24.3924568,19.2748715 24.6602709,19.0123438 C25.158247,18.5244688 25.9655139,18.5245938 26.4633625,19.0129688 C26.9610837,19.5013438 26.9608287,20.2929688 26.4627251,20.7808438 L26.4627251,20.7808438 L25.561243,21.6644688 L27.5179602,23.5823438 C28.9134661,22.9265938 30.6707888,23.1408438 31.8704701,24.3144688 L31.8704701,24.3144688 L32.7729721,25.1993438 C37.8761434,20.1823438 41.4614183,16.3405938 40.6994104,9.62409376 L40.6994104,9.62409376 L40.2943745,6.04271876 C39.1335777,4.57584376 39.2345498,2.45396876 40.6162869,1.09921876 Z M18.3486215,49.9505938 L17.4041753,50.8759688 C14.9656733,53.3127188 14.9841594,57.2583438 17.4466295,59.6737188 C19.9326853,62.1100938 23.9774343,62.1103438 26.4627251,59.6734688 L26.4627251,59.6734688 L27.3639522,58.7898438 L25.5600956,57.0212188 L24.6588685,57.9048438 C23.1663426,59.3703438 20.742757,59.3682188 19.2502311,57.9048438 C17.7559203,56.4415938 17.7573227,54.0637188 19.250741,52.6013438 L19.250741,52.6013438 L20.1514582,51.7182188 L18.3486215,49.9505938 Z M4.72146417,54.2783636 C4.22039062,53.8830476 3.4880425,53.9136688 3.02278884,54.3697188 C2.52455777,54.8585938 2.52468526,55.6485938 3.02278884,56.1370938 L3.02278884,56.1370938 L6.62858964,59.6735938 C7.12682072,60.1620938 7.93421514,60.1617188 8.43219124,59.6734688 C8.9305498,59.1849688 8.93042231,58.3935938 8.43231873,57.9048438 L8.43231873,57.9048438 L4.82549801,54.3699688 L4.82549801,54.3699688 Z M21.9545498,53.4862188 L21.0533227,54.3698438 C20.5550916,54.8578438 20.5580239,55.6519688 21.0528127,56.1365938 C21.5510438,56.6250938 22.3602231,56.6238438 22.8553944,56.1377188 L22.8553944,56.1377188 L23.7571315,55.2535938 L21.9545498,53.4862188 Z M14.7421833,46.4144688 L7.53007171,53.4857188 L9.33354582,55.2533438 L15.5833625,49.1255938 L15.5833625,49.1255938 L15.6402231,49.0685938 L16.5446375,48.1817188 L14.7421833,46.4144688 Z M32.7728446,49.9499688 L30.9705179,51.7177188 L32.7734821,53.4853438 L34.5764462,51.7183438 L32.7728446,49.9499688 Z M22.8560319,33.1550938 C22.3518088,32.6594688 21.5436494,32.6732188 21.0545976,33.1539688 C20.556239,33.6425938 20.556239,34.4360938 21.0534502,34.9237188 C23.4348367,37.2587188 36.3729084,49.9438438 39.0839841,52.6019688 C39.5808127,53.0893438 40.3896096,53.0890938 40.8865657,52.6019688 C41.388494,52.1104688 41.3831394,51.3198438 40.8873307,50.8342188 L40.8873307,50.8342188 L39.0838566,49.0658438 C35.602996,45.6530938 26.3459442,36.5768438 22.8560319,33.1550938 Z M29.1671713,46.4144688 L27.3643347,48.1820938 L29.1674263,49.9498438 L30.9698805,48.1819688 L29.1671713,46.4144688 Z M39.9854661,42.8782188 L38.1826295,44.6465938 L39.9854661,46.4142188 L41.7890677,44.6465938 L39.9854661,42.8782188 Z M25.5613705,42.8792188 L23.7581514,44.6465938 L25.561243,46.4143438 L27.3640797,44.6467188 L25.5613705,42.8792188 Z M30.0680159,26.0830938 C29.5770518,25.6029688 28.774757,25.5870938 28.2659442,26.0833438 C28.2655618,26.0837188 28.2650518,26.0840938 28.2646693,26.0844688 C27.769498,26.5702188 27.7660558,27.3619688 28.2658167,27.8519688 C28.5919052,28.1716883 31.9401455,31.4545333 35.6673083,35.1088999 L36.2915574,35.7209567 C36.3960326,35.8233913 36.5006868,35.9260016 36.6054635,36.0287318 L37.5502294,36.9550452 C41.7502818,41.0730654 45.8742653,45.1165023 46.2963506,45.5303438 C46.7934343,46.0175938 47.6021036,46.0175938 48.0989323,45.5303438 C48.5972908,45.0417188 48.5970359,44.2514688 48.0989323,43.7630938 C47.7608131,43.4315206 44.0792668,39.8216336 40.1258769,35.9451987 L39.4998461,35.3313541 L39.4998461,35.3313541 L38.8719841,34.7157139 C34.6861041,30.6113151 30.5572667,26.5628499 30.0680159,26.0830938 Z M21.9545498,39.3430938 L20.1515857,41.1108438 L21.9549323,42.8789688 L23.7581514,41.1114688 L21.9545498,39.3430938 Z M36.3794104,39.3428438 L34.5759363,41.1105938 L36.3795378,42.8789688 L38.1823745,41.1105938 L36.3794104,39.3428438 Z M48.0989323,29.6198438 C45.7021195,27.2695938 41.8589323,27.1670938 39.3403665,29.3817188 C39.0051952,29.7030938 38.6674741,30.0305938 38.3260558,30.3639688 C38.278757,30.4100938 38.2305657,30.4574688 38.1831394,30.5038438 L38.1831394,30.5038438 L39.9852112,32.2707188 L40.8864382,31.3870938 C42.3780717,29.9260938 44.8045896,29.9262188 46.2958406,31.3865938 C47.7878566,32.8494688 47.7878566,35.2288438 46.2963506,36.6913438 L46.2963506,36.6913438 L45.3951235,37.5749688 L47.1977052,39.3423438 L48.0989323,38.4587188 C50.5903426,36.0160938 50.5899602,32.0620938 48.0989323,29.6198438 Z M32.7728446,35.8064688 L30.970008,37.5748438 L32.7729721,39.3425938 L34.5764462,37.5748438 L32.7728446,35.8064688 Z M44.493259,33.1550938 C43.9963028,32.6683438 43.1866135,32.6684688 42.6888924,33.1555938 L42.6888924,33.1555938 L41.7883028,34.0385938 L43.5920319,35.8072188 L44.493259,34.9235938 C44.9904701,34.4360938 44.9904701,33.6425938 44.493259,33.1550938 Z M29.1671713,32.2713438 L27.3639522,34.0393438 L29.1670438,35.8072188 L30.9698805,34.0388438 L29.1671713,32.2713438 Z M44.2217052,2.86696876 C43.7233466,2.37846876 42.9173546,2.37846876 42.4191235,2.86696876 C41.9208924,3.35559376 41.9210199,4.14571876 42.4191235,4.63421876 L42.4191235,4.63421876 L47.1901833,9.31346876 C47.6880319,9.80184376 47.6879044,10.5933438 47.1899283,11.0814688 C46.6919522,11.5695938 45.8846853,11.5693438 45.3868367,11.0812188 L45.3868367,11.0812188 L43.1853386,8.92221876 L43.2335299,9.34821876 C43.6638088,13.1409688 42.9422151,16.3980938 40.9624223,19.5980938 C39.3639522,22.1817188 37.1458805,24.4407188 34.5758088,26.9672188 L34.5758088,26.9672188 L36.3799203,28.7360938 C36.4276016,28.6894688 36.4759203,28.6418438 36.5234741,28.5955938 C36.5236016,28.5954688 36.5238566,28.5952188 36.5239841,28.5950938 L37.28,27.8527188 C37.3758725,27.7587188 37.479012,27.6627188 37.5861036,27.5667188 C40.1424064,25.1189688 42.3737371,23.2195938 44.9517131,21.9059688 C47.8533865,20.4274688 50.9332908,19.8903438 54.3672351,20.2644688 L54.3672351,20.2644688 L54.8017211,20.3117188 L52.5995857,18.1530938 C52.1017371,17.6648438 52.1016096,16.8733438 52.5994582,16.3850938 C53.0971793,15.8969688 53.9047012,15.8968438 54.4025498,16.3848438 L54.4025498,16.3848438 L59.174757,21.0625938 C59.6733705,21.5513438 60.4793625,21.5510938 60.9774661,21.0627188 C61.4756972,20.5742188 61.4756972,19.7839688 60.9772112,19.2953438 L60.9772112,19.2953438 Z M48.9940398,12.8487188 C49.491251,12.3612188 50.2983904,12.3612188 50.7968765,12.8487188 C51.2942151,13.3375938 51.2942151,14.1288438 50.7968765,14.6163438 C50.2983904,15.1050938 49.491251,15.1050938 48.9940398,14.6163438 C48.4955538,14.1288438 48.4955538,13.3374688 48.9940398,12.8487188 Z M33.5990184,57.8300363 L33.5636711,57.7954976 C33.3796776,57.6152734 32.9221712,57.1670338 31.8712351,56.1373438 C30.3411661,54.637159 27.303782,51.6590701 24.196497,48.6124445 L23.3484026,47.7809063 C20.2402879,44.7334671 17.1929465,41.7456155 15.6437928,40.2267188 C15.1451793,39.7392188 14.342502,39.7358438 13.8396813,40.2277188 C13.344,40.7138438 13.344255,41.5075938 13.8414661,41.9957188 C17.6456414,45.7254688 25.69651,53.6190938 31.87149,59.6734688 C32.3697211,60.1619688 33.176988,60.1619688 33.6752191,59.6734688 C34.1735777,59.1849688 34.1735777,58.3935938 33.6753466,57.9047188 L33.6753466,57.9047188 L33.6730518,57.9025938 L33.6615817,57.892 L33.6108409,57.8416281 C33.6058462,57.8367323 33.6017041,57.8326713 33.5990184,57.8300363 Z" id="Combined-Shape" fill="#141E29" fill-rule="nonzero"></path>
        </g>
    </g>
</svg>