<svg width="311" height="280" viewBox="0 0 311 280" fill="none" xmlns="http://www.w3.org/2000/svg">
<rect x="284.888" y="256.042" width="19.3862" height="0.184534" fill="#EBEBEB"/>
<rect x="210.137" y="253.644" width="25.2989" height="0.184534" fill="#EBEBEB"/>
<rect x="259.508" y="249.192" width="19.5414" height="0.184534" fill="#EBEBEB"/>
<rect x="21.7957" y="250.433" width="31.9211" height="0.184534" fill="#EBEBEB"/>
<rect x="10.532" y="250.433" width="4.67841" height="0.184534" fill="#EBEBEB"/>
<rect x="68.9272" y="253.547" width="41.5366" height="0.184534" fill="#EBEBEB"/>
<path fill-rule="evenodd" clip-rule="evenodd" d="M4.21279 211.245H146.923C149.254 211.245 151.143 209.358 151.143 207.03V6.71476C151.143 4.38701 149.254 2.5 146.923 2.5H4.21279C1.89929 2.50396 0.020255 4.3674 0 6.67785V207.03C-3.56988e-06 209.355 1.88494 211.241 4.21279 211.245ZM0.184772 6.67785C0.184768 4.4549 1.98698 2.6517 4.21279 2.64763H146.923C149.15 2.65169 150.954 4.4537 150.958 6.67785V207.03C150.954 209.254 149.15 211.056 146.923 211.06H4.21279C1.98698 211.056 0.184768 209.253 0.184772 207.03V6.67785Z" fill="#EBEBEB"/>
<path fill-rule="evenodd" clip-rule="evenodd" d="M164.077 211.245H306.795C309.12 211.237 311 209.352 311 207.03V6.67785C310.98 4.37027 309.105 2.50799 306.795 2.5H164.077C161.762 2.50391 159.881 4.36622 159.857 6.67785V207.03C159.861 209.356 161.748 211.241 164.077 211.245ZM160.042 6.67785C160.046 4.4537 161.85 2.65169 164.077 2.64763H306.795C309.022 2.65169 310.826 4.4537 310.83 6.67785V207.03C310.826 209.254 309.022 211.056 306.795 211.06H164.077C161.85 211.056 160.046 209.254 160.042 207.03V6.67785Z" fill="#EBEBEB"/>
<rect x="22.6531" y="15.9858" width="267.852" height="166.383" fill="#FAFAFA"/>
<path d="M169.325 182.369H135.866L187.447 15.9858H220.905L169.325 182.369Z" fill="white"/>
<path d="M188.09 182.369H176.9L228.488 15.9858H239.678L188.09 182.369Z" fill="white"/>
<path d="M73.783 182.369H62.6006L114.181 15.9858H125.371L73.783 182.369Z" fill="white"/>
<path fill-rule="evenodd" clip-rule="evenodd" d="M19.4158 186.215V12.1328H293.735V186.215H19.4158ZM25.2398 180.627H287.911V17.7279H25.2398V180.627Z" fill="#EBEBEB"/>
<rect x="147.285" y="15.3804" width="18.5806" height="168.583" fill="#EBEBEB"/>
<rect x="22.6531" y="132.958" width="267.852" height="6.47345" fill="#EBEBEB"/>
<rect x="150.131" y="15.3804" width="1.67773" height="168.583" fill="#E0E0E0"/>
<rect x="162.318" y="15.3804" width="0.450842" height="168.583" fill="#F0F0F0"/>
<path d="M15.1809 14.4727V229.684C15.212 231.324 15.8945 232.885 17.0782 234.023C18.262 235.161 19.85 235.783 21.4927 235.751C27.181 235.739 32.5717 233.211 36.2136 228.847C39.8556 224.483 41.3745 218.732 40.3616 213.142L29.157 152.187C55.8159 117.288 75.1799 66.718 90.952 8.4052H21.4779C18.0628 8.3476 15.2456 11.0621 15.1809 14.4727Z" fill="#E6E6E6"/>
<path d="M28.1221 157.509H17.3906C14.4346 157.501 12.0403 155.109 12.0322 152.157C12.0403 149.205 14.4346 146.814 17.3906 146.806H28.1221C31.0781 146.814 33.4724 149.205 33.4805 152.157C33.4724 155.109 31.0781 157.501 28.1221 157.509Z" fill="#F5F5F5"/>
<path d="M296.684 14.4727V229.684C296.615 233.101 293.787 235.817 290.365 235.751C284.678 235.737 279.289 233.208 275.649 228.844C272.009 224.481 270.491 218.731 271.503 213.142L282.708 152.187C256.049 117.288 236.685 66.718 220.906 8.4052H290.38C293.796 8.34757 296.615 11.0609 296.684 14.4727Z" fill="#E6E6E6"/>
<path d="M283.742 157.509H294.474C297.43 157.501 299.824 155.109 299.832 152.157C299.824 149.205 297.43 146.814 294.474 146.806H283.742C280.786 146.814 278.392 149.205 278.384 152.157C278.392 155.109 280.786 157.501 283.742 157.509Z" fill="#F5F5F5"/>
<ellipse cx="156.531" cy="269.144" rx="143.301" ry="8.3557" fill="#F5F5F5"/>
<path d="M81.6987 103.049C81.2764 102.773 80.7753 102.644 80.2722 102.68C79.6962 102.719 79.1286 102.525 78.698 102.141L78.6389 101.964C78.6272 101.932 78.6035 101.907 78.573 101.893C78.5424 101.879 78.5076 101.878 78.4763 101.89C78.4085 101.905 78.3635 101.969 78.3728 102.038L80.59 108.836C80.4004 108.754 80.1977 108.706 79.9914 108.696C79.4631 108.676 78.9373 108.777 78.4541 108.991C77.3676 109.463 76.732 110.327 77.035 110.91C77.3381 111.493 78.188 111.552 79.1193 111.279C79.2757 111.236 79.4289 111.182 79.5775 111.117C80.0534 110.927 80.473 110.62 80.797 110.224C81.0575 109.959 81.1385 109.566 81.0039 109.22L79.474 104.451C79.9072 104.748 80.4284 104.889 80.9522 104.85C81.559 104.8 82.1577 105.015 82.593 105.44C82.625 105.459 82.6644 105.459 82.6964 105.44C82.734 105.421 82.7526 105.378 82.7408 105.337L82.2012 103.654C82.1089 103.4 81.9313 103.187 81.6987 103.049Z" fill="#FFBC65"/>
<path d="M286.041 59.2333C285.583 58.6338 284.925 58.2177 284.186 58.0596C283.337 57.8895 282.61 57.3475 282.205 56.5834V56.2955C282.206 56.2439 282.184 56.1945 282.146 56.1595C282.108 56.1244 282.057 56.1068 282.006 56.1109C281.894 56.1057 281.795 56.1849 281.777 56.2955L280.979 67.6111C280.752 67.3988 280.482 67.2377 280.188 67.1387C279.415 66.8797 278.59 66.8138 277.786 66.9468C275.923 67.2051 274.497 68.2459 274.608 69.2719C274.696 70.1577 275.894 70.7482 277.416 70.7482C277.664 70.7453 277.91 70.7256 278.155 70.6891C278.975 70.593 279.76 70.3046 280.446 69.8477C280.984 69.5483 281.322 68.986 281.333 68.3714L281.895 60.4438C282.35 61.0657 283.018 61.4991 283.772 61.6617C284.666 61.842 285.422 62.433 285.812 63.2561C285.839 63.3073 285.895 63.3366 285.953 63.3299H285.99C286.062 63.3182 286.118 63.2617 286.13 63.1897L286.322 60.3921C286.373 59.9846 286.273 59.5727 286.041 59.2333Z" fill="#FFBC65"/>
<path d="M123.804 105.167C124.503 105.43 125.023 106.027 125.186 106.754C125.201 106.8 125.242 106.832 125.29 106.836C125.35 106.836 125.404 106.797 125.423 106.74L125.837 105.263C125.932 104.938 125.906 104.589 125.763 104.282C125.502 103.724 125.036 103.288 124.462 103.064C123.805 102.813 123.305 102.265 123.117 101.587L123.184 101.351C123.195 101.31 123.186 101.265 123.16 101.23C123.134 101.196 123.094 101.175 123.05 101.174C122.956 101.16 122.865 101.212 122.829 101.3L120.227 110.63C120.082 110.425 119.893 110.256 119.673 110.135C119.08 109.826 118.42 109.666 117.751 109.67C117.06 109.652 116.374 109.797 115.748 110.091C115.253 110.275 114.886 110.697 114.773 111.213C114.763 111.709 115.055 112.162 115.512 112.357C115.907 112.577 116.341 112.72 116.79 112.778C117.001 112.804 117.214 112.818 117.426 112.822C118.971 112.822 120.294 112.158 120.382 111.301L121.498 107.315C121.757 107.887 122.229 108.334 122.814 108.563C123.513 108.826 124.032 109.422 124.196 110.15C124.208 110.194 124.246 110.227 124.292 110.231H124.329C124.389 110.229 124.441 110.191 124.462 110.135L124.869 108.659C124.966 108.334 124.942 107.986 124.802 107.677C124.539 107.121 124.074 106.685 123.501 106.459C122.844 106.208 122.344 105.66 122.156 104.983L122.437 103.964C122.72 104.527 123.21 104.958 123.804 105.167Z" fill="#FFBC65"/>
<path fill-rule="evenodd" clip-rule="evenodd" d="M108.986 85.0605L109.577 90.8032C109.74 91.4528 108.919 92.2352 107.751 92.5526C107.582 92.6052 107.409 92.6471 107.234 92.6781C106.229 92.7814 105.401 92.5969 105.209 91.9399C105.017 91.283 105.845 90.4932 107.049 90.1684C107.574 90.0195 108.126 89.9968 108.661 90.102C108.866 90.1421 109.062 90.2224 109.237 90.3382L108.786 85.9094L102.4 86.8099L102.903 91.7406C103.073 92.3976 102.253 93.1726 101.055 93.49C100.893 93.5351 100.727 93.5696 100.56 93.5934C99.5624 93.7041 98.7198 93.5122 98.5351 92.8552C98.3503 92.1983 99.1781 91.4085 100.375 91.0837C101.108 90.8372 101.909 90.9013 102.593 91.2609L102.053 86.0053L101.839 83.8647V83.7466L108.771 82.7944V82.9199L108.986 85.0605ZM102.334 85.9684L102.393 86.5368L108.764 85.6732L108.705 85.0974L102.334 85.9684Z" fill="#FFBC65"/>
<path d="M265.679 71.4275L262.435 66.0243L261.223 64.0018L261.156 63.8911L254.416 67.1241L254.482 67.2349L255.694 69.2574L258.651 74.2029C257.826 74.0747 256.984 74.2763 256.308 74.7639C255.207 75.502 254.719 76.5206 255.214 77.0964C255.709 77.6721 256.692 77.5835 257.631 77.0964C257.792 77.0178 257.947 76.9291 258.096 76.8306C259.183 76.1294 259.678 75.0886 259.205 74.5129L255.96 69.1024L262.154 66.1498L265.11 71.0953C264.283 70.9643 263.438 71.1661 262.76 71.6563C262.284 71.9448 261.893 72.355 261.629 72.8447C261.401 73.1973 261.419 73.6548 261.674 73.9888C262.005 74.3074 262.472 74.4427 262.923 74.3505C263.326 74.3052 263.719 74.1903 264.083 74.011C264.248 73.9353 264.406 73.8464 264.556 73.7452C265.657 73.0366 266.152 72.0032 265.679 71.4275Z" fill="#FFBC65"/>
<path d="M202.827 62.4292C199.213 64.1859 198.711 69.6777 199.472 74.7634C200.233 79.8492 192.82 80.2404 191.423 77.5388C192.628 82.7058 199.258 86.33 203.552 85.3114C200.233 86.6031 194.254 85.7248 194.254 85.7248C197.727 87.4391 201.465 88.5522 205.311 89.0168C210.684 89.5114 222.716 86.7434 224.387 81.6945C224.535 83.2335 224.33 84.7859 223.788 86.2341C227.115 84.3527 228.797 80.501 227.912 76.7859C230.188 79.5687 230.129 80.5357 230.129 80.5357C230.129 80.5357 231.755 70.8144 227.764 64.9315C230.824 68.0759 231.29 69.1241 231.29 69.1241C231.29 69.1241 231.711 57.8896 221.039 56.9596C218.393 52.981 204.956 52.8851 199.568 63.8169C200.534 63.1116 201.649 62.6368 202.827 62.4292Z" fill="#263238"/>
<path d="M200.093 223.284L203.411 228.85L218.289 219.985L214.971 214.412L200.093 223.284Z" fill="#FFC3BD"/>
<path d="M207.24 227.152L203.677 220.759C203.553 220.53 203.278 220.428 203.034 220.523L197.565 222.612C197.291 222.729 197.08 222.957 196.984 223.238C196.888 223.52 196.917 223.829 197.063 224.088C198.341 226.303 199.073 227.292 200.64 230.104C201.608 231.831 203.485 235.795 204.823 238.187C206.161 240.578 208.585 239.382 208.245 238.268C206.715 233.278 206.996 230.495 207.425 228.296C207.499 227.904 207.434 227.499 207.24 227.152Z" fill="#263238"/>
<path opacity="0.2" d="M214.971 214.412L218.289 219.985L211.556 223.993L208.26 218.42L214.971 214.412Z" fill="black"/>
<path d="M238.673 127.776C238.673 127.776 269.929 181.269 262.08 190.016C248.326 205.347 216.855 222.797 216.855 222.797L210.514 216.153C210.514 216.153 236.759 191.426 246.611 181.461C242.672 169.488 220.078 156.468 218.208 130.825L238.673 127.776Z" fill="#FFBC65"/>
<path d="M214.616 225.535L209.036 215.755L212.613 212.994L218.481 223.557L214.616 225.535Z" fill="#263238"/>
<path fill-rule="evenodd" clip-rule="evenodd" d="M209.176 231.174C209.259 231.189 209.344 231.189 209.427 231.174C209.629 231.114 209.804 230.987 209.923 230.813C210.041 230.677 210.08 230.49 210.026 230.318C209.767 229.543 207.498 228.96 207.24 228.894C207.189 228.884 207.137 228.904 207.107 228.945C207.078 228.988 207.078 229.043 207.107 229.086C207.528 229.831 208.363 231.101 209.176 231.174ZM209.198 230.938C208.733 230.901 208.104 230.274 207.484 229.248C208.267 229.469 209.634 229.949 209.79 230.422C209.819 230.51 209.796 230.607 209.73 230.673C209.612 230.848 209.41 230.949 209.198 230.938Z" fill="#FFBC65"/>
<path fill-rule="evenodd" clip-rule="evenodd" d="M207.181 229.145C207.866 229.304 208.579 229.304 209.265 229.145C209.577 229.08 209.859 228.917 210.07 228.68C210.212 228.484 210.197 228.216 210.034 228.038C209.903 227.845 209.69 227.724 209.457 227.713C208.555 227.62 207.238 228.793 207.102 228.915C207.097 228.919 207.094 228.922 207.092 228.923C207.075 228.963 207.075 229.009 207.092 229.049C207.103 229.094 207.136 229.13 207.181 229.145ZM209.9 228.554C209.605 228.975 208.23 229.1 207.491 228.975H207.528C207.89 228.643 208.836 227.919 209.509 227.986C209.667 227.995 209.811 228.077 209.9 228.207C209.989 228.384 209.952 228.488 209.9 228.554Z" fill="#FFBC65"/>
<path d="M243.396 95.5938C244.327 98.502 245.399 101.551 246.559 104.451C247.136 105.928 247.764 107.33 248.422 108.696C249.061 110.036 249.785 111.336 250.587 112.586L251.068 113.324C251.121 113.411 251.188 113.488 251.267 113.553C251.512 113.737 251.81 113.838 252.117 113.84C253.364 113.842 254.599 113.591 255.746 113.102C258.587 111.909 261.297 110.425 263.832 108.674L266.049 111.154C263.698 113.744 260.954 115.951 257.919 117.694C256.161 118.723 254.193 119.344 252.162 119.509C250.824 119.591 249.49 119.305 248.303 118.683C247.672 118.341 247.099 117.903 246.604 117.384C246.478 117.258 246.374 117.133 246.256 117C246.138 116.867 246.101 116.808 246.027 116.704L245.598 116.158C244.511 114.743 243.539 113.242 242.694 111.67C241.836 110.15 241.09 108.607 240.403 107.05C239.715 105.492 239.072 103.92 238.503 102.333C237.934 100.746 237.395 99.1737 236.929 97.4612L243.396 95.5938Z" fill="#FFC3BD"/>
<path d="M238.067 88.9872C245.281 92.1685 247.165 100.989 247.165 100.989L236.914 106.223C236.914 106.223 231.437 98.2139 232.007 94.6634C232.605 90.9506 234.009 87.1935 238.067 88.9872Z" fill="#263238"/>
<path d="M262.464 109.574L266.463 105.344L268.872 111.744C268.872 111.744 265.458 113.715 262.08 112.047L262.464 109.574Z" fill="#FFC3BD"/>
<path d="M272.139 104.54L273.041 109.596L268.865 111.707L266.463 105.345L272.139 104.54Z" fill="#FFC3BD"/>
<path d="M222.672 266.155L229.161 265.956L228.614 248.661L222.125 248.853L222.672 266.155Z" fill="#FFC3BD"/>
<path d="M229.531 261.785H222.206C221.944 261.778 221.719 261.969 221.682 262.228L220.832 268.029C220.8 268.326 220.896 268.622 221.097 268.843C221.297 269.065 221.582 269.19 221.881 269.188C224.431 269.137 225.665 268.989 228.888 268.982C230.868 268.982 235.251 269.255 237.986 269.255C240.72 269.255 240.861 266.546 239.723 266.302C234.608 265.217 232.332 263.623 230.587 262.183C230.292 261.932 229.919 261.791 229.531 261.785Z" fill="#263238"/>
<path opacity="0.2" d="M222.125 248.853L228.614 248.661L228.858 256.478L222.376 256.663L222.125 248.853Z" fill="black"/>
<path d="M236.012 88.5297C236.012 88.5297 239.057 89.0685 238.673 127.776L212.502 131.762C211.32 121.052 210.329 114.49 201.904 93.4383C205.451 92.1225 209.089 91.0666 212.79 90.2791C216.704 89.3964 220.675 88.7921 224.675 88.4706C228.453 88.2994 232.237 88.3191 236.012 88.5297Z" fill="#263238"/>
<path d="M211.963 76.7344C213.293 80.4251 215.111 87.3266 212.82 90.2792C216.198 92.1655 219.808 93.6047 223.559 94.5604C227.254 90.412 224.704 88.4707 224.704 88.4707C220.27 88.1017 219.915 84.9277 220.203 81.8275L211.963 76.7344Z" fill="#FFC3BD"/>
<path opacity="0.2" d="M215.296 78.8232L220.174 81.8422C220.093 82.5603 220.078 83.2842 220.129 84.005C218.969 85.3336 214.956 85.2967 214.498 83.6137C214.283 82.7797 215.214 79.2661 215.296 78.8232Z" fill="black"/>
<path d="M221.837 66.5846C223.315 72.8736 224.091 75.5013 221.933 79.6128C218.681 85.7983 210.617 86.256 207.277 80.5428C204.269 75.3758 202.332 65.9794 207.639 61.6908C210.016 59.781 213.208 59.2252 216.092 60.2191C218.976 61.2131 221.145 63.6173 221.837 66.5846Z" fill="#FFC3BD"/>
<path d="M219.449 59.8679C222.103 63.5586 207.521 71.0138 202.406 72.121C201.504 65.9502 203.788 60.3108 207.92 58.6353C212.051 56.9597 217.646 57.3804 219.449 59.8679Z" fill="#263238"/>
<path d="M215.141 62.2887C214.091 68.0166 224.911 70.9618 225.111 78.0405C227.069 73.9512 227.602 64.2817 224.778 62.178C221.955 60.0743 215.88 58.2216 215.141 62.2887Z" fill="#263238"/>
<path d="M225.266 70.7408C225.267 71.9906 224.773 73.19 223.891 74.0771C222.716 75.2434 221.319 74.3798 220.972 72.8518C220.662 71.4715 220.906 69.2054 222.406 68.6149C223.081 68.3667 223.835 68.4755 224.412 68.9043C224.989 69.3331 225.31 70.0239 225.266 70.7408Z" fill="#FFC3BD"/>
<path d="M224.401 74.5052C224.325 74.841 224.026 75.0793 223.681 75.0793C223.336 75.0793 223.037 74.841 222.96 74.5052C222.893 74.2092 223.013 73.9022 223.264 73.7312C223.516 73.5603 223.846 73.5603 224.097 73.7312C224.348 73.9022 224.469 74.2092 224.401 74.5052Z" fill="#FFBC65"/>
<path opacity="0.2" d="M243.248 148.813L226.16 148.57C226.899 151.22 227.676 154.069 228.429 157.051C230.831 160.387 233.389 163.436 235.82 166.27C236.929 156.032 245.14 153.966 243.248 148.813Z" fill="black"/>
<path opacity="0.2" d="M226.168 201.302C226.907 205.952 227.646 210.964 228.215 216.065L229.331 215.363C230.462 214.625 231.637 213.887 232.842 213.149C233.531 207.226 233.389 201.236 232.42 195.353L226.168 201.302Z" fill="black"/>
<path d="M232.975 128.721C232.975 128.721 231.401 168.337 231.408 193.825C231.408 214.411 230.403 252.293 230.403 252.293L221.297 253.555C221.297 253.555 214.83 212.913 215.466 198.933C217.04 164.617 205.902 144.717 212.509 131.762L232.975 128.721Z" fill="#FFBC65"/>
<path d="M231.689 254.558L220.418 254.691L219.745 250.226H231.837L231.689 254.558Z" fill="#263238"/>
<path d="M211.874 130.286L211.054 132.803C210.987 133.003 211.231 133.158 211.534 133.106L238.984 128.928C239.22 128.891 239.397 128.744 239.39 128.596L239.272 126.219C239.272 126.057 239.035 125.946 238.777 125.99L212.273 130.028C212.105 130.04 211.954 130.138 211.874 130.286Z" fill="#FFBC65"/>
<path opacity="0.3" d="M211.874 130.286L211.054 132.803C210.987 133.003 211.231 133.158 211.534 133.106L238.984 128.928C239.22 128.891 239.397 128.744 239.39 128.596L239.272 126.219C239.272 126.057 239.035 125.946 238.777 125.99L212.273 130.028C212.105 130.04 211.954 130.138 211.874 130.286Z" fill="black"/>
<path d="M215.887 132.707L215.148 132.811C215.008 132.811 214.889 132.811 214.882 132.685L214.756 129.6C214.756 129.504 214.86 129.415 215 129.393L215.739 129.282C215.887 129.282 216.005 129.319 216.005 129.408L216.138 132.501C216.146 132.589 216.028 132.685 215.887 132.707Z" fill="#FFBC65"/>
<path d="M237.025 129.46L236.286 129.57C236.145 129.57 236.027 129.533 236.027 129.445L235.894 126.352C235.894 126.263 236.005 126.175 236.145 126.153L236.884 126.042C237.025 126.042 237.143 126.042 237.15 126.167L237.276 129.26C237.284 129.371 237.173 129.46 237.025 129.46Z" fill="#FFBC65"/>
<path d="M226.456 131.09L225.717 131.201C225.576 131.201 225.458 131.164 225.458 131.076L225.325 127.983C225.325 127.894 225.429 127.806 225.576 127.784L226.316 127.673C226.456 127.673 226.574 127.673 226.574 127.798L226.707 130.891C226.744 130.98 226.596 131.076 226.456 131.09Z" fill="#FFBC65"/>
<path d="M212.376 71.3607C212.524 71.8626 212.376 72.3498 212.051 72.4531C211.726 72.5565 211.312 72.2243 211.179 71.715C211.046 71.2057 211.179 70.7259 211.504 70.6226C211.829 70.5192 212.221 70.8588 212.376 71.3607Z" fill="#263238"/>
<path d="M206.686 73.0804C206.841 73.5824 206.686 74.0695 206.368 74.1729C206.05 74.2762 205.629 73.944 205.496 73.4347C205.363 72.9254 205.496 72.4456 205.813 72.3423C206.131 72.2389 206.53 72.5785 206.686 73.0804Z" fill="#263238"/>
<path d="M205.969 72.335H204.653C204.653 72.335 205.562 73.1101 205.969 72.335Z" fill="#263238"/>
<path d="M209.058 73.2798C208.968 74.5672 208.702 75.8363 208.267 77.0517C208.898 77.262 209.589 77.1865 210.159 76.845L209.058 73.2798Z" fill="#ED847E"/>
<path d="M213.396 77.871C214.362 77.3748 215.102 76.5303 215.466 75.5089C215.475 75.4766 215.471 75.442 215.454 75.4129C215.437 75.3838 215.41 75.3625 215.377 75.3539C215.346 75.3424 215.311 75.3447 215.282 75.3602C215.252 75.3756 215.23 75.4028 215.222 75.4351C214.747 76.684 213.708 77.6342 212.421 77.9964C212.377 78.0096 212.344 78.045 212.334 78.0893C212.323 78.1336 212.337 78.18 212.371 78.2111C212.404 78.2422 212.451 78.2532 212.495 78.24C212.806 78.1448 213.108 78.0212 213.396 77.871Z" fill="#263238"/>
<path d="M214.527 67.9576C214.57 67.9358 214.606 67.9026 214.631 67.8617C214.704 67.7393 214.664 67.5808 214.542 67.5073C213.712 66.9908 212.684 66.903 211.778 67.2711C211.653 67.3339 211.601 67.4842 211.66 67.6107C211.723 67.7391 211.876 67.7945 212.007 67.7362C212.753 67.435 213.599 67.5148 214.276 67.9502C214.354 67.9933 214.447 67.996 214.527 67.9576Z" fill="#263238"/>
<path d="M203.884 71.2644C203.923 71.2431 203.956 71.2127 203.98 71.1759C204.397 70.4905 205.117 70.0459 205.917 69.9801C206.06 69.9801 206.175 69.8644 206.175 69.7217C206.175 69.579 206.06 69.4634 205.917 69.4634C204.942 69.5278 204.06 70.062 203.552 70.8954C203.513 70.9517 203.499 71.0214 203.513 71.0882C203.527 71.1551 203.568 71.2134 203.626 71.2497C203.701 71.3055 203.803 71.3113 203.884 71.2644Z" fill="#263238"/>
<path d="M243.743 150.577C245.383 149.82 246.903 148.825 248.252 147.625C255.931 140.834 254.467 130.603 247.446 123.141C240.691 115.959 231.401 113.634 223.958 120.188C222.603 121.385 221.432 122.776 220.484 124.315C218.426 127.736 214.998 130.112 211.068 130.84C206.525 131.658 202.353 133.878 199.139 137.188C191.549 144.968 193.781 154.74 200.418 163.347C208.304 173.592 220.107 177.497 229.634 169.075C232.685 166.388 234.929 162.908 236.116 159.022C237.332 155.247 240.109 152.173 243.743 150.577Z" fill="#FFBC65"/>
<path opacity="0.7" d="M243.743 150.577C245.383 149.82 246.903 148.825 248.252 147.625C255.931 140.834 254.467 130.603 247.446 123.141C240.691 115.959 231.401 113.634 223.958 120.188C222.603 121.385 221.432 122.776 220.484 124.315C218.426 127.736 214.998 130.112 211.068 130.84C206.525 131.658 202.353 133.878 199.139 137.188C191.549 144.968 193.781 154.74 200.418 163.347C208.304 173.592 220.107 177.497 229.634 169.075C232.685 166.388 234.929 162.908 236.116 159.022C237.332 155.247 240.109 152.173 243.743 150.577Z" fill="white"/>
<path d="M269.884 99.2727L274.62 104.619L230.735 143.395L225.999 138.049L269.884 99.2727Z" fill="#FFBC65"/>
<path opacity="0.3" d="M269.884 99.2727L274.62 104.619L230.735 143.395L225.999 138.049L269.884 99.2727Z" fill="white"/>
<path d="M235.14 144.097C233.018 145.972 229.973 146.386 227.426 145.145C224.879 143.904 223.331 141.253 223.504 138.428C223.678 135.603 225.538 133.16 228.218 132.239C230.897 131.318 233.869 132.1 235.746 134.22C238.309 137.115 238.038 141.536 235.14 144.097Z" fill="#263238"/>
<path d="M269.412 107.389L266.507 104.119C265.582 103.06 265.681 101.455 266.729 100.517L272.353 95.5493C274.315 93.8246 277.304 94.0059 279.042 95.9553C280.744 97.9095 280.563 100.866 278.636 102.598L273.011 107.574C271.964 108.51 270.357 108.428 269.412 107.389Z" fill="#FFBC65"/>
<path opacity="0.3" d="M221.208 153.921L214.394 146.237C214.202 146.02 214.104 145.735 214.122 145.446C214.14 145.157 214.272 144.886 214.49 144.695C214.943 144.297 215.631 144.336 216.035 144.783L222.842 152.474C223.035 152.691 223.134 152.975 223.117 153.264C223.101 153.554 222.97 153.824 222.753 154.017C222.536 154.209 222.251 154.307 221.961 154.289C221.671 154.271 221.4 154.139 221.208 153.921Z" fill="#FFBC65"/>
<path d="M218.193 149.064C218.141 149.062 218.092 149.038 218.06 148.998C217.989 148.926 217.989 148.811 218.06 148.739L275.236 98.2138C275.283 98.1596 275.357 98.1374 275.426 98.1569C275.495 98.1764 275.546 98.234 275.558 98.3048C275.569 98.3755 275.539 98.4465 275.479 98.4869L218.319 149.02C218.283 149.048 218.239 149.064 218.193 149.064Z" fill="white"/>
<path d="M217.35 148.105C217.297 148.107 217.246 148.085 217.21 148.046C217.174 148.012 217.154 147.965 217.154 147.916C217.154 147.868 217.174 147.821 217.21 147.787L268.296 102.636C268.329 102.6 268.376 102.58 268.425 102.58C268.474 102.58 268.521 102.6 268.554 102.636C268.625 102.707 268.625 102.822 268.554 102.894L217.476 148.06C217.441 148.089 217.396 148.105 217.35 148.105Z" fill="white"/>
<path d="M219.043 150.016C218.99 150.016 218.94 149.995 218.903 149.957C218.831 149.883 218.831 149.766 218.903 149.692L276.1 99.1956C276.177 99.1434 276.281 99.1561 276.342 99.2253C276.404 99.2944 276.405 99.3986 276.344 99.4687L219.161 150.002C219.125 150.021 219.083 150.026 219.043 150.016Z" fill="white"/>
<path d="M219.886 150.969C219.834 150.971 219.785 150.949 219.753 150.91C219.715 150.877 219.693 150.83 219.693 150.78C219.693 150.731 219.715 150.684 219.753 150.651L270.838 105.5C270.91 105.429 271.025 105.429 271.097 105.5C271.133 105.534 271.153 105.582 271.153 105.632C271.153 105.683 271.133 105.73 271.097 105.765L220.011 150.91C219.978 150.944 219.933 150.965 219.886 150.969Z" fill="white"/>
<path d="M207.75 102.104C207.092 104.164 206.397 106.289 205.762 108.386C205.126 110.482 204.476 112.6 203.929 114.697C203.382 116.793 202.872 118.904 202.524 120.905C202.436 121.414 202.399 121.879 202.332 122.381C202.295 122.719 202.295 123.061 202.332 123.399C202.457 124.189 202.707 124.954 203.071 125.666C204.008 127.384 205.196 128.954 206.597 130.323C208.104 131.824 209.703 133.229 211.386 134.531C213.086 135.867 214.889 137.114 216.73 138.317C218.57 139.52 220.469 140.687 222.339 141.757L220.942 144.783C216.637 143.075 212.504 140.962 208.6 138.472C206.588 137.208 204.68 135.786 202.894 134.221C200.955 132.569 199.293 130.617 197.972 128.441C197.227 127.193 196.702 125.828 196.42 124.403C196.275 123.632 196.215 122.848 196.242 122.063C196.279 121.436 196.294 120.779 196.36 120.174C196.605 117.815 196.995 115.473 197.528 113.161C198.558 108.681 199.849 104.264 201.394 99.9341L207.75 102.104Z" fill="#FFC3BD"/>
<path d="M220.336 141.499H226.16L223.625 146.665C223.625 146.665 219.834 146.119 218.747 143.647L220.336 141.499Z" fill="#FFC3BD"/>
<path d="M228.732 143.351L225.65 147.47L223.625 146.658L226.16 141.521L228.732 143.351Z" fill="#FFC3BD"/>
<path d="M201.904 93.4384C198.896 94.7523 196.671 104.82 196.671 104.82L208.496 110.888C208.496 110.888 210.987 101.669 209.664 97.6605C208.511 94.2577 205.732 91.7628 201.904 93.4384Z" fill="#263238"/>
<path fill-rule="evenodd" clip-rule="evenodd" d="M232.982 262.523C233.046 262.465 233.101 262.398 233.145 262.324C233.237 262.139 233.268 261.93 233.234 261.726C233.216 261.545 233.103 261.388 232.938 261.313C232.199 260.98 230.203 262.25 229.982 262.398C229.936 262.425 229.915 262.48 229.93 262.53C229.938 262.581 229.976 262.622 230.026 262.634C230.883 262.826 232.384 263.077 232.982 262.523ZM230.468 262.461C230.449 262.457 230.43 262.453 230.41 262.449L230.44 262.479C230.449 262.473 230.458 262.467 230.468 262.461ZM232.812 262.339C232.478 262.643 231.614 262.684 230.468 262.461C231.14 262.032 232.383 261.374 232.834 261.549C232.919 261.586 232.974 261.67 232.975 261.763C233.025 261.97 232.963 262.188 232.812 262.339Z" fill="#FFBC65"/>
<path fill-rule="evenodd" clip-rule="evenodd" d="M230.137 262.649C230.713 262.246 231.19 261.719 231.534 261.106C231.715 260.834 231.801 260.509 231.778 260.183C231.732 259.945 231.525 259.773 231.282 259.77C231.05 259.741 230.817 259.816 230.647 259.977C229.945 260.589 229.945 262.457 229.945 262.538C229.947 262.583 229.972 262.625 230.011 262.649C230.05 262.671 230.098 262.671 230.137 262.649ZM230.212 262.286C230.212 262.286 230.211 262.287 230.211 262.287V262.324C230.211 262.311 230.212 262.299 230.212 262.286ZM231.526 260.228C231.63 260.722 230.811 261.82 230.212 262.286C230.238 261.718 230.354 260.58 230.824 260.161C230.939 260.053 231.097 260.004 231.253 260.028C231.467 260.05 231.526 260.146 231.526 260.228Z" fill="#FFBC65"/>
<path d="M211.652 70.6153H210.344C210.344 70.6153 211.224 71.3903 211.652 70.6153Z" fill="#263238"/>
<rect x="39.2085" y="131.533" width="161.682" height="135.315" fill="#FFBC65"/>
<path opacity="0.05" d="M124.566 132.884H99.7545L63.1401 266.849H87.9586L124.566 132.884Z" fill="white"/>
<path opacity="0.05" d="M140.16 132.884H129.658L93.0435 266.849H103.546L140.16 132.884Z" fill="white"/>
<path opacity="0.05" d="M191.416 132.884H180.906L144.292 266.849H154.802L191.416 132.884Z" fill="white"/>
<rect x="49.6519" y="175.955" width="161.682" height="10.7325" fill="#FFBC65"/>
<rect opacity="0.1" x="49.6519" y="186.694" width="151.239" height="3.38804" fill="black"/>
<path opacity="0.1" d="M53.4655 175.955H49.6519V186.694H58.8017V179.822H53.4655V175.955Z" fill="black"/>
<rect opacity="0.8" x="53.4656" y="175.955" width="154.912" height="3.86783" fill="white"/>
<rect x="64.3892" y="124.698" width="16.8142" height="0.738136" fill="#FFBC65"/>
<rect x="53.6133" y="124.698" width="4.43452" height="0.738136" fill="#FFBC65"/>
<path d="M204.372 131.533H35.7274C34.5519 131.533 33.5989 130.582 33.5989 129.408C33.5989 128.234 34.5519 127.282 35.7274 127.282H204.372C205.548 127.282 206.501 128.234 206.501 129.408C206.501 129.971 206.276 130.512 205.877 130.911C205.478 131.309 204.937 131.533 204.372 131.533Z" fill="#FFBC65"/>
<rect opacity="0.1" x="39.2085" y="131.533" width="10.4433" height="135.315" fill="black"/>
<rect opacity="0.1" x="200.884" y="132.884" width="151.239" height="1.35079" transform="rotate(180 200.884 132.884)" fill="black"/>
<rect opacity="0.1" x="200.884" y="257.541" width="151.239" height="1.35079" transform="rotate(180 200.884 257.541)" fill="black"/>
<g opacity="0.1">
<path d="M108.372 137.52C114.821 136.435 121.406 136.435 127.855 137.52C128.426 147.923 128.99 158.321 129.547 168.714C123.098 167.628 116.513 167.628 110.065 168.714C109.508 158.291 108.944 147.893 108.372 137.52Z" fill="black"/>
<path d="M147.337 137.52C140.888 136.435 134.303 136.435 127.855 137.52C128.426 147.923 128.99 158.321 129.547 168.714C135.996 167.628 142.581 167.628 149.03 168.714C148.468 158.291 147.904 147.893 147.337 137.52Z" fill="black"/>
</g>
<path d="M108.372 137.468C114.826 136.449 121.401 136.449 127.855 137.468C128.796 147.256 129.732 157.044 130.663 166.831C124.21 165.805 117.634 165.805 111.181 166.831C110.25 157.044 109.313 147.256 108.372 137.468Z" fill="white"/>
<path d="M147.337 137.468C140.883 136.449 134.309 136.449 127.854 137.468C128.796 147.256 129.732 157.044 130.663 166.831C137.119 165.805 143.697 165.805 150.153 166.831L147.337 137.468Z" fill="white"/>
<path opacity="0.3" d="M106.591 265.608L97.5595 264.87C96.7318 264.823 96.0839 264.141 96.0813 263.313V262.656C96.0819 262.221 96.2643 261.807 96.5843 261.512C96.9042 261.218 97.3328 261.071 97.7664 261.106L106.717 261.844C107.456 261.903 108.01 262.73 108.01 263.733C108.047 264.811 107.382 265.675 106.591 265.608Z" fill="black"/>
<path opacity="0.3" d="M121.262 265.608L112.223 264.87C111.395 264.823 110.747 264.141 110.745 263.313V262.656C110.745 262.221 110.928 261.807 111.248 261.512C111.568 261.218 111.996 261.071 112.43 261.106L121.38 261.844C122.119 261.903 122.673 262.73 122.673 263.733C122.71 264.811 122.045 265.675 121.262 265.608Z" fill="black"/>
<path d="M187.706 132.567C188.962 134.213 190.019 135.785 191.098 137.446C192.177 139.107 193.175 140.76 194.128 142.487C196.099 145.957 197.749 149.599 199.058 153.368C199.725 155.339 200.219 157.364 200.536 159.42C200.625 159.944 200.677 160.491 200.736 161.029C200.788 161.666 200.788 162.305 200.736 162.941C200.635 164.243 200.308 165.517 199.768 166.706C198.758 168.847 197.206 170.689 195.267 172.05C194.396 172.683 193.468 173.234 192.495 173.696C191.532 174.165 190.531 174.55 189.502 174.847L188.098 171.474C190.825 169.584 193.434 166.912 194.01 164.484C194.17 163.91 194.23 163.314 194.188 162.72C194.166 162.413 194.126 162.107 194.069 161.804C193.995 161.406 193.944 161.015 193.848 160.609C193.48 158.95 192.986 157.321 192.369 155.737C191.041 152.422 189.46 149.214 187.639 146.141C186.723 144.571 185.772 143.019 184.786 141.484C183.811 139.97 182.739 138.413 181.749 137.018L187.706 132.567Z" fill="#FF8B7B"/>
<path d="M188.4 171.001L183.759 171.946L186.501 176.287C186.501 176.287 191.312 177.18 191.815 174.131L188.4 171.001Z" fill="#FF8B7B"/>
<path d="M178.792 174.596L181.187 176.936L186.501 176.287L183.759 171.946L178.792 174.596Z" fill="#FF8B7B"/>
<path d="M176.486 103.794C176.634 104.289 177.019 104.606 177.336 104.532C177.654 104.458 177.802 103.964 177.654 103.469C177.506 102.975 177.129 102.65 176.804 102.731C176.479 102.812 176.346 103.3 176.486 103.794Z" fill="#263238"/>
<path d="M176.974 104.621C178.012 105.954 179.228 107.139 180.588 108.142C179.96 109.212 178.371 109.286 178.371 109.286L176.974 104.621Z" fill="#FF5652"/>
<path d="M173.922 100.96C173.983 100.952 174.042 100.929 174.092 100.893C174.684 100.397 175.479 100.216 176.228 100.406C176.334 100.458 176.46 100.445 176.552 100.371C176.644 100.297 176.685 100.177 176.656 100.062C176.628 99.948 176.536 99.8604 176.42 99.8379C175.481 99.5734 174.471 99.7888 173.722 100.414C173.613 100.493 173.57 100.635 173.617 100.762C173.663 100.888 173.787 100.969 173.922 100.96Z" fill="#263238"/>
<path d="M173.53 109.714C172.614 114.379 171.697 122.927 174.971 126.041C174.971 126.041 173.693 130.773 165.008 130.773C155.459 130.773 160.448 126.041 160.448 126.041C165.659 124.801 165.518 120.941 164.617 117.317L173.53 109.714Z" fill="#FF8B7B"/>
<path d="M176.339 127.606C176.93 125.798 177.565 123.724 175.976 123.178C174.225 122.572 162.577 122.439 159.421 123.96C156.265 125.481 159.613 128.913 159.613 128.913L176.339 127.606Z" fill="#263238"/>
<path d="M152.518 139.121C151.594 141.602 150.604 144.001 149.613 146.429C148.623 148.857 147.551 151.242 146.479 153.641C145.408 156.04 144.262 158.424 143.072 160.786C141.862 163.246 140.502 165.629 139 167.924L138.8 168.219L138.66 168.366C137.241 169.738 135.573 170.828 133.745 171.577C132.143 172.253 130.483 172.784 128.786 173.164C127.16 173.526 125.514 173.792 123.856 173.961C122.213 174.128 120.563 174.202 118.912 174.183L118.564 170.544C119.983 170.167 121.521 169.806 122.932 169.319C124.344 168.831 125.8 168.389 127.16 167.842C128.482 167.334 129.764 166.727 130.996 166.027C132.036 165.453 132.968 164.704 133.752 163.812L133.405 164.255C134.619 162.125 135.724 159.935 136.716 157.693C137.761 155.385 138.786 153.05 139.791 150.688C140.789 148.326 141.749 145.942 142.747 143.565L145.644 136.427L152.518 139.121Z" fill="#FF8B7B"/>
<path d="M186.405 127.489C192.392 128.854 199.258 145.16 199.258 145.16L187.233 153.39C184.241 149.107 181.587 144.598 179.295 139.904C175.747 132.412 180.285 126.086 186.405 127.489Z" fill="#FFBC65"/>
<path opacity="0.6" d="M186.405 127.489C192.392 128.854 199.258 145.16 199.258 145.16L187.233 153.39C184.241 149.107 181.587 144.598 179.295 139.904C175.747 132.412 180.285 126.086 186.405 127.489Z" fill="white"/>
<path opacity="0.2" d="M182.118 137.881L187.802 152.998L187.233 153.39C187.233 153.39 184.779 149.942 182.118 145.27V137.881Z" fill="black"/>
<path d="M150.618 127.813C150.618 127.813 144.573 136.235 150.995 183.705H185.156C185.392 178.464 181.35 152.164 186.405 127.488C182.63 126.751 178.81 126.258 174.971 126.012C170.134 125.735 165.285 125.735 160.448 126.012C157.13 126.358 153.844 126.96 150.618 127.813Z" fill="#FFBC65"/>
<path opacity="0.6" d="M150.618 127.813C150.618 127.813 144.573 136.235 150.995 183.705H185.156C185.392 178.464 181.35 152.164 186.405 127.488C182.63 126.751 178.81 126.258 174.971 126.012C170.134 125.735 165.285 125.735 160.448 126.012C157.13 126.358 153.844 126.96 150.618 127.813Z" fill="white"/>
<path opacity="0.2" d="M154.41 141.542L148.039 147.374C148.039 150.747 148.172 154.667 148.46 159.184C157.012 153.02 154.314 141.675 154.41 141.542Z" fill="black"/>
<path d="M158.009 132.021C159.665 137.926 149.953 154.8 149.953 154.8L136.968 148.267C136.968 148.267 139.103 139.409 143.885 133.113C149.34 125.946 156.199 125.636 158.009 132.021Z" fill="#FFBC65"/>
<path opacity="0.6" d="M158.009 132.021C159.665 137.926 149.953 154.8 149.953 154.8L136.968 148.267C136.968 148.267 139.103 139.409 143.885 133.113C149.34 125.946 156.199 125.636 158.009 132.021Z" fill="white"/>
<path d="M122.799 169.318L115.046 169.806L115.785 176.249C118.458 176.538 121.072 175.332 122.585 173.112L122.799 169.318Z" fill="#FF8B7B"/>
<path d="M111.27 173.349V176.375L115.808 176.235L115.046 169.791L111.27 173.349Z" fill="#FF8B7B"/>
<path d="M149.672 265.446H143.287L140.079 250.676H146.465L149.672 265.446Z" fill="#FF8B7B"/>
<path d="M142.836 263.062H150.005C150.266 263.062 150.493 263.243 150.552 263.498L151.816 269.174C151.874 269.454 151.802 269.745 151.619 269.965C151.436 270.185 151.163 270.309 150.877 270.303C148.372 270.259 147.182 270.119 144.004 270.119C142.06 270.119 139.569 270.318 136.886 270.318C134.203 270.318 133.856 267.668 134.95 267.432C139.872 266.354 140.219 264.87 141.794 263.453C142.082 263.202 142.453 263.063 142.836 263.062Z" fill="#263238"/>
<g opacity="0.2">
<path d="M146.465 250.676H140.079L141.86 258.862L148.128 258.293L146.465 250.676Z" fill="black"/>
</g>
<path d="M159.709 107.625C161.882 113.574 162.85 117.169 166.841 119.369C172.835 122.683 179.502 117.686 179.154 111.212C178.837 105.381 175.341 96.6342 168.682 95.9846C165.701 95.6794 162.775 96.9366 160.947 99.3076C159.12 101.679 158.651 104.826 159.709 107.625Z" fill="#FF8B7B"/>
<path d="M171.431 117.878C173.648 115.523 174.055 110.223 173.316 106.953C174.055 104.001 177.669 98.0958 174.713 95.1433C171.756 92.1907 167.026 90.803 161.409 91.3345C161.269 92.1981 162.887 93.0248 162.887 93.0248C162.887 93.0248 149.732 91.0392 153.457 99.299C148.083 108.039 157.891 112.002 154.75 115.376C155.297 117.022 159.014 119.435 162.836 116.734C163.443 117.971 163.19 119.457 162.207 120.424C165.725 120.388 169.206 120.225 171.431 117.878Z" fill="#263238"/>
<path d="M154.595 99.1292C154.595 99.1292 151.638 98.6937 150.796 101.41C151.91 100.421 153.198 99.6481 154.595 99.1292Z" fill="#263238"/>
<path d="M154.151 99.4612C154.151 99.4612 151.72 100.162 151.239 97.1509C152.01 98.1439 153.009 98.9365 154.151 99.4612Z" fill="#263238"/>
<path d="M170.101 106.88C170.805 108.287 171.956 109.422 173.375 110.105C175.245 110.991 176.228 109.559 175.74 107.736C175.304 106.097 173.804 103.669 171.904 103.536C170.005 103.403 169.266 105.175 170.101 106.88Z" fill="#FF8B7B"/>
<path d="M161.232 183.705C161.232 183.705 131.572 194.415 130.663 208.661C129.052 234.843 139.754 255.053 139.754 255.053H149.362C149.362 255.053 147.884 246.092 146.583 222.376C144.942 192.57 195.592 223.07 185.156 183.705L161.232 183.705Z" fill="#FFBC65"/>
<path opacity="0.5" d="M161.232 183.705C161.232 183.705 131.572 194.415 130.663 208.661C129.052 234.843 139.754 255.053 139.754 255.053H149.362C149.362 255.053 147.884 246.092 146.583 222.376C144.942 192.57 195.592 223.07 185.156 183.705L161.232 183.705Z" fill="black"/>
<path d="M137.788 252.654C137.743 252.654 139.266 257.017 139.266 257.017L150.352 255.932L149.754 251.968L137.788 252.654Z" fill="white"/>
<path d="M121.735 263.018H115.349L113.479 248.248H119.865L121.735 263.018Z" fill="#FF8B7B"/>
<path d="M115.039 258.36L121.757 260.235C122.009 260.301 122.179 260.536 122.164 260.796L121.853 266.597C121.84 266.882 121.696 267.144 121.464 267.31C121.232 267.475 120.937 267.526 120.663 267.446C118.246 266.708 114.788 265.616 111.742 264.767C108.18 263.77 107.441 263.778 103.265 262.611C100.738 261.91 100.752 259.164 101.868 259.223C106.975 259.519 108.52 259.829 113.42 258.426C113.944 258.257 114.503 258.234 115.039 258.36Z" fill="#263238"/>
<path opacity="0.2" d="M113.479 248.248L114.499 256.293L120.833 255.865L119.872 248.248H113.479Z" fill="black"/>
<path d="M150.995 183.705C150.995 183.705 102.386 188.008 102.91 212.389C103.457 237.744 112.275 252.625 112.275 252.625H121.794C121.794 252.625 120.656 241.693 120.974 216.729C121.07 209.252 136.199 206.779 150.981 205.908C163.745 205.17 175.696 197.885 180.655 186.111L181.667 183.705H150.995Z" fill="#FFBC65"/>
<path opacity="0.5" d="M150.995 183.705C150.995 183.705 102.386 188.008 102.91 212.389C103.457 237.744 112.275 252.625 112.275 252.625H121.794C121.794 252.625 120.656 241.693 120.974 216.729C121.07 209.252 136.199 206.779 150.981 205.908C163.745 205.17 175.696 197.885 180.655 186.111L181.667 183.705H150.995Z" fill="black"/>
<path d="M110.057 250.078C110.013 250.078 111.683 254.455 111.683 254.455L123.139 253.643L122.474 249.672L110.057 250.078Z" fill="white"/>
<rect x="128.727" y="207.724" width="62.268" height="5.98628" fill="#FFBC65"/>
<rect opacity="0.6" x="128.727" y="207.724" width="62.268" height="5.98628" fill="white"/>
<rect opacity="0.4" x="128.727" y="207.724" width="14.6043" height="5.98628" fill="#FFBC65"/>
<path d="M146.575 273.64H140.079L139.266 213.71H147.388L146.575 273.64Z" fill="#FFBC65"/>
<path opacity="0.6" d="M146.575 273.64H140.079L139.266 213.71H147.388L146.575 273.64Z" fill="white"/>
<path opacity="0.4" d="M143.331 273.64H140.079L139.266 213.71H143.331V273.64Z" fill="#FFBC65"/>
<path d="M136.036 273.64H129.54L128.727 213.71H136.849L136.036 273.64Z" fill="#FFBC65"/>
<path opacity="0.6" d="M136.036 273.64H129.54L128.727 213.71H136.849L136.036 273.64Z" fill="white"/>
<path opacity="0.4" d="M132.784 273.64H129.54L128.727 213.71H132.784V273.64Z" fill="#FFBC65"/>
<path d="M190.182 273.64H183.685L182.872 213.71H190.995L190.182 273.64Z" fill="#FFBC65"/>
<path opacity="0.6" d="M190.182 273.64H183.685L182.872 213.71H190.995L190.182 273.64Z" fill="white"/>
<path opacity="0.4" d="M186.93 273.64H183.685L182.872 213.71H186.93V273.64Z" fill="#FFBC65"/>
<path d="M179.642 273.64H173.146L172.333 213.71H180.455L179.642 273.64Z" fill="#FFBC65"/>
<path opacity="0.6" d="M179.642 273.64H173.146L172.333 213.71H180.455L179.642 273.64Z" fill="white"/>
<path opacity="0.4" d="M176.39 273.64H173.146L172.333 213.71H176.39V273.64Z" fill="#FFBC65"/>
<path d="M190.876 202.815C180.226 201.634 139.495 201.634 128.845 202.815C128.355 202.87 127.92 203.152 127.671 203.576C127.422 204.001 127.389 204.518 127.581 204.971L128.254 206.602C128.545 207.265 129.199 207.696 129.924 207.702H189.79C190.527 207.704 191.193 207.261 191.475 206.58L192.155 204.949C192.339 204.496 192.299 203.983 192.048 203.564C191.796 203.145 191.363 202.868 190.876 202.815Z" fill="#263238"/>
</svg>
