<svg width="24" height="24" viewBox="0 0 24 24" fill="none" xmlns="http://www.w3.org/2000/svg">
<g clip-path="url(#clip0)">
<path fill-rule="evenodd" clip-rule="evenodd" d="M12 0C15.221 0 18.2455 1.259 20.515 3.5445C20.904 3.9365 20.902 4.57 20.51 4.959C20.1185 5.348 19.485 5.3455 19.096 4.954C17.2045 3.049 14.6845 2 12 2C6.486 2 2 6.486 2 12C2 17.514 6.486 22 12 22C17.514 22 22 17.514 22 12C22 11.448 22.448 11 23 11C23.552 11 24 11.448 24 12C24 18.617 18.6165 24 12 24C5.383 24 0 18.617 0 12C0 5.383 5.383 0 12 0ZM8.293 8.293C8.683 7.9025 9.317 7.9025 9.707 8.293L12 10.586L14.293 8.293C14.6835 7.9025 15.3165 7.9025 15.707 8.293C16.0975 8.6835 16.0975 9.3165 15.707 9.707L13.414 12L15.707 14.293C16.0975 14.6835 16.0975 15.3165 15.707 15.707C15.5115 15.9025 15.256 16 15 16C14.744 16 14.4885 15.9025 14.293 15.707L12 13.414L9.707 15.707C9.512 15.9025 9.256 16 9 16C8.744 16 8.488 15.9025 8.293 15.707C7.9025 15.3165 7.9025 14.6835 8.293 14.293L10.586 12L8.293 9.707C7.9025 9.3165 7.9025 8.6835 8.293 8.293Z" fill="#141E29"/>
</g>
<defs>
<clipPath id="clip0">
<rect width="24" height="24" fill="white"/>
</clipPath>
</defs>
</svg>
