<?xml version="1.0" encoding="UTF-8"?>
<svg width="24px" height="24px" viewBox="0 0 24 24" version="1.1" xmlns="http://www.w3.org/2000/svg" xmlns:xlink="http://www.w3.org/1999/xlink">
    <title>iOS / Icon / Cancel Anytime</title>
    <g id="iOS-/-Icon-/-Cancel-Anytime" stroke="none" stroke-width="1" fill="none" fill-rule="evenodd">
        <path d="M12,0 C15.221,0 18.2455,1.259 20.515,3.5445 C20.904,3.9365 20.902,4.57 20.51,4.959 C20.1185,5.348 19.485,5.3455 19.096,4.954 C17.2045,3.049 14.6845,2 12,2 C6.486,2 2,6.486 2,12 C2,17.514 6.486,22 12,22 C17.514,22 22,17.514 22,12 C22,11.448 22.448,11 23,11 C23.552,11 24,11.448 24,12 C24,18.617 18.6165,24 12,24 C5.383,24 0,18.617 0,12 C0,5.383 5.383,0 12,0 Z M8.293,8.293 C8.683,7.9025 9.317,7.9025 9.707,8.293 L9.707,8.293 L12,10.586 L14.293,8.293 C14.6835,7.9025 15.3165,7.9025 15.707,8.293 C16.0975,8.6835 16.0975,9.3165 15.707,9.707 L15.707,9.707 L13.414,12 L15.707,14.293 C16.0975,14.6835 16.0975,15.3165 15.707,15.707 C15.5115,15.9025 15.256,16 15,16 C14.744,16 14.4885,15.9025 14.293,15.707 L14.293,15.707 L12,13.414 L9.707,15.707 C9.512,15.9025 9.256,16 9,16 C8.744,16 8.488,15.9025 8.293,15.707 C7.9025,15.3165 7.9025,14.6835 8.293,14.293 L8.293,14.293 L10.586,12 L8.293,9.707 C7.9025,9.3165 7.9025,8.6835 8.293,8.293 Z" id="Combined-Shape" fill="#141E29"></path>
    </g>
</svg>