<svg xmlns="http://www.w3.org/2000/svg" width="32" height="32" viewBox="0 0 32 32">
    <g fill="none" fill-rule="evenodd">
        <g>
            <g>
                <g>
                    <path d="M0 0L32 0 32 32 0 32z" transform="translate(-295 -261) translate(24 241) translate(271 20)"/>
                    <path fill="#1C1D21" d="M31.725 8.228L30.577 7.08c.498-1.046.322-2.33-.55-3.2l-1.906-1.908c-.871-.87-2.154-1.047-3.2-.55L23.771.276c-.366-.367-.96-.367-1.326 0-.366.366-.366.96 0 1.325l1.14 1.14-.994 1.657-.808-.809c-.366-.366-.96-.366-1.326 0-.366.367-.366.96 0 1.326l1.14 1.14-.559.93-4.32 4.321c-2.53-2.528-6.734-2.067-8.65.857-.361.55-.97.928-1.628 1.012-1.956.25-3.704 1.248-4.923 2.808-2.362 3.024-1.88 7.405.84 10.125l3.535 3.535c2.712 2.712 7.093 3.208 10.125.84 1.56-1.219 2.557-2.967 2.808-4.924.084-.658.463-1.266 1.013-1.627 2.913-1.91 3.392-6.113.856-8.65l4.32-4.32.931-.559 1.14 1.14c.366.366.96.366 1.325 0 .366-.366.366-.96 0-1.326l-.808-.808 1.657-.994 1.14 1.14c.366.365.96.365 1.325 0 .367-.367.367-.96 0-1.326zM18.811 22.364c-1.002.657-1.692 1.762-1.845 2.956-.187 1.463-.934 2.772-2.102 3.685-2.19 1.71-5.549 1.408-7.646-.689l-3.534-3.534c-2.097-2.097-2.4-5.456-.689-7.646.913-1.168 2.221-1.915 3.685-2.102 1.194-.154 2.3-.843 2.956-1.845 1.26-1.92 4.062-2.253 5.757-.558l-3.552 3.551c-.88.056-1.743.418-2.413 1.088-1.466 1.465-1.466 3.837 0 5.303 1.461 1.461 3.84 1.461 5.302 0 .652-.653 1.034-1.503 1.09-2.416l3.55-3.55c1.694 1.695 1.36 4.498-.56 5.757zm-5.407-1.117c-.73.73-1.92.73-2.65 0-.734-.733-.734-1.919 0-2.651.73-.731 1.92-.731 2.65 0 .733.732.733 1.918 0 2.65zm1.905-3.23c-.159-.27-.353-.52-.58-.747-.228-.229-.48-.422-.746-.579l7.8-7.8 1.326 1.325-7.8 7.8zm-9.858 4.555c.366-.366.96-.366 1.325 0l2.652 2.652c.366.366.366.96 0 1.325-.367.366-.96.366-1.326 0L5.45 23.898c-.366-.366-.366-.96 0-1.326zM26.795 3.298l1.907 1.907c.431.43.343 1.152-.18 1.466L24.58 9.036 22.964 7.42l2.365-3.942c.313-.522 1.035-.612 1.466-.18z" transform="translate(-295 -261) translate(24 241) translate(271 20)"/>
                </g>
            </g>
        </g>
    </g>
</svg>
