<?xml version="1.0" encoding="UTF-8"?>
<svg width="106px" height="90px" viewBox="0 0 106 90" version="1.1" xmlns="http://www.w3.org/2000/svg" xmlns:xlink="http://www.w3.org/1999/xlink">
    <title>Icon / Guitar</title>
    <g id="Icon-/-Guitar" stroke="none" stroke-width="1" fill="none" fill-rule="evenodd">
        <path d="M70.7134703,83.9563597 C63.4163927,85.8703451 55.4914715,85.2358612 48.5830128,82.1842144 C41.6745542,79.1325677 35.82711,73.6831109 32.254479,66.9673812 C29.9220389,62.5830734 28.5494028,57.3364555 30.0954041,52.6096734 C30.6615045,50.8784389 31.6644077,49.2160423 33.2133146,48.2836695 C35.3426075,47.0017182 38.1455066,47.3520316 40.2982862,48.5933172 C42.4510657,49.8341128 44.0663162,51.8340843 45.5004533,53.8783961 C49.8428162,60.0676757 53.015206,67.0910933 57.8827493,72.8663661 C62.7500504,78.6418838 70.0393798,83.1795457 77.4388785,81.9304209 L70.7134703,83.9563597 Z" id="shape-blob-yellow" fill-opacity="0.6" fill="#FFBC65" transform="translate(53.438879, 66.258907) scale(-1, 1) rotate(-76.000000) translate(-53.438879, -66.258907) "></path>
        <path d="M40.725,41 C40.4089937,30.6237851 35.4621718,20.4850515 27.5303429,13.9575921 C25.1531608,12.001072 22.4022002,10.3142642 19.3573329,10.0341035 C16.3124656,9.75394288 12.9569863,11.2089364 11.7470787,14.066327 C10.4379841,17.1578341 12.0100113,20.8704052 14.5150924,23.0686568 C17.0199996,25.2670854 20.2686353,26.3250372 23.3806714,27.4660454 C27.2141625,28.8714529 31.0152873,30.5015912 34.3126465,32.9378553 C36.511118,34.5619133 38.6485692,37.2492949 40.725,41 Z" id="shape-blob-red2" fill-opacity="0.6" fill="#FF6F6F"></path>
        <path d="M69.3649741,33.223364 C67.1340423,28.7937604 66.5088393,23.6448889 67.6189076,18.8456767 C68.728976,14.0464645 71.567425,9.62738363 75.5446531,6.50587888 C78.1414734,4.46820863 81.4360772,2.93694164 84.7713353,3.33746058 C85.9930306,3.48412022 87.2264398,3.91883782 88.0487127,4.79353436 C89.1787636,5.99618729 89.316345,7.83283079 88.7781927,9.36453622 C88.2404998,10.8960224 87.128594,12.1784722 85.9636309,13.3504341 C82.436356,16.8985452 78.20234,19.8023623 75.0186741,23.6350239 C71.8350082,27.4676854 69.7908104,32.6954769 71.5945279,37.2734939 L69.3649741,33.223364 Z" id="shape-blob-green" fill-opacity="0.6" fill="#00A19E" transform="translate(78.082000, 20.273494) rotate(34.000000) translate(-78.082000, -20.273494) "></path>
        <g id="iOS-/-Icon-/-Guitar" transform="translate(20.999944, 13.000000)">
            <polygon id="Path" points="5.63228928e-05 0 64.0000563 0 64.0000563 64 5.63228928e-05 64"></polygon>
            <path d="M54.0635563,1.1 C55.5291813,-0.365375 57.9016813,-0.365 59.3669313,1.1 L59.3669313,1.1 L62.9010563,4.6345 C64.3665563,6.100125 64.3660563,8.472875 62.9010563,9.937875 L62.9010563,9.937875 L62.0175563,10.821375 L62.9010563,11.704875 C63.3890563,12.193125 63.3890563,12.9845 62.9010563,13.4725 C62.4128063,13.9605 61.6214313,13.9605 61.1334313,13.4725 L61.1334313,13.4725 L60.2499313,12.589 L58.4826813,14.35625 L59.3668063,15.241 C59.8546813,15.729375 59.8544313,16.520625 59.3661813,17.0085 C58.8775563,17.49675 58.0861813,17.49575 57.5986813,17.007875 L57.5986813,17.007875 L56.7151813,16.12375 L55.8308063,17.008125 C54.6778063,18.161 52.9581813,18.40375 51.5645563,17.739875 L51.5645563,17.739875 L39.5078063,29.796 C43.1548063,35.632125 42.4096813,42.940375 36.9234313,46.03925 C34.1778063,47.588 30.7110563,50.307875 29.7835563,54.472625 C29.2715563,56.76625 28.1539313,58.825375 26.5515563,60.427625 C20.9065563,66.07275 11.3655563,64.684125 5.34193132,58.659 C-0.599068677,52.71925 -2.14044368,43.163625 3.57355632,37.4495 C5.17593132,35.84725 7.23493132,34.729625 9.52805632,34.21775 C13.6934313,33.290125 16.4133063,29.823375 17.9616813,27.078375 C21.0189313,21.66625 28.2886813,20.796125 34.2054313,24.493375 L34.2054313,24.493375 L46.2616813,12.4365 C45.5980563,11.043125 45.8414313,9.32225 46.9933063,8.170375 L46.9933063,8.170375 L47.8778063,7.285875 L46.9936813,6.402375 C46.5055563,5.914375 46.5051813,5.123125 46.9930563,4.634875 C47.4810563,4.14675 48.2724313,4.1465 48.7605563,4.63425 L48.7605563,4.63425 L49.6453063,5.518375 L51.4125563,3.751125 L50.5290563,2.867625 C50.0410563,2.379375 50.0409313,1.588 50.5290563,1.1 C51.0173063,0.612 51.8086813,0.612 52.2966813,1.1 L52.2966813,1.1 L53.1800563,1.9835 Z M32.3839313,26.31475 C27.9870563,23.820875 22.4869313,24.15075 20.1385563,28.306875 C18.3411813,31.493625 15.1351813,35.52975 10.0723063,36.65725 C8.21755632,37.071375 6.62568132,37.932625 5.34143132,39.216875 C0.639681323,43.91875 2.15193132,51.934625 7.10993132,56.8915 C12.0570563,61.83975 20.0740563,63.37025 24.7844313,58.66 C26.0688063,57.375875 26.9300563,55.784 27.3441813,53.928625 C28.4715563,48.866375 32.5076813,45.660375 35.6950563,43.8625 C39.8264313,41.52825 40.1934313,36.037125 37.6863063,31.61725 L37.6863063,31.61725 L30.0841813,39.219 C30.3568063,41.148375 29.7136813,43.125 28.3190563,44.51975 C25.8766813,46.962125 21.9231813,46.961625 19.4813063,44.51975 C17.0389313,42.077375 17.0394313,38.123875 19.4813063,35.682 C20.8761813,34.287375 22.8526813,33.64425 24.7820563,33.917 L24.7820563,33.917 Z M8.87680632,46.286875 C9.36505632,45.798875 10.1564313,45.798875 10.6444313,46.286875 L10.6444313,46.286875 L17.7145563,53.357 C18.2026813,53.845125 18.2026813,54.6365 17.7145563,55.124625 C17.2263063,55.612625 16.4349313,55.612625 15.9469313,55.124625 L15.9469313,55.124625 L8.87680632,48.0545 C8.38880632,47.56625 8.38880632,46.774875 8.87680632,46.286875 Z M26.5516813,37.449625 C25.0645563,35.962875 22.6855563,36.013125 21.2489313,37.449625 C19.7835563,38.915125 19.7838063,41.287375 21.2489313,42.752375 C22.7143063,44.21775 25.0866813,44.2175 26.5516813,42.752375 C28.0114313,41.2925 28.0176813,38.915875 26.5516813,37.449625 Z M47.8773063,14.356 L27.3459313,34.8885 C27.6945563,35.119 28.0211813,35.38425 28.3191813,35.68225 C28.6171813,35.98025 28.8823063,36.306875 29.1129313,36.6555 L29.1129313,36.6555 L49.6454313,16.124125 L47.8773063,14.356 Z M57.5994313,2.867375 C57.1110563,2.379 56.3195563,2.379 55.8313063,2.867375 C55.7201767,2.97850463 55.5945388,3.1041418 55.4565724,3.24210693 L54.7598626,3.93880749 C54.3347434,4.36391967 53.8530056,4.84564781 53.3487069,5.34993571 L52.1125107,6.58610464 C50.9715927,7.72699725 49.8533518,8.8452135 49.1204353,9.57812301 L48.7610563,9.9375 C48.2739313,10.424625 48.2739313,11.217375 48.7610563,11.7045 L48.7610563,11.7045 L49.6454313,12.58825 L52.2964313,9.93725 C52.7846813,9.44925 53.5760563,9.44925 54.0640563,9.93725 C54.5520563,10.4255 54.5520563,11.216875 54.0640563,11.704875 L54.0640563,11.704875 L51.4126813,14.35625 L52.2966813,15.24025 C52.7840563,15.72725 53.5766813,15.72725 54.0638063,15.24025 L54.0638063,15.24025 L57.784814,11.5191764 C57.9921156,11.3118701 58.1986517,11.1053294 58.4022509,10.9017258 L60.0967109,9.20723174 C60.2631437,9.04079611 60.4201248,8.88381264 60.5654826,8.73845302 L61.1338063,8.170125 C61.6224313,7.681875 61.6223063,6.89025 61.1339313,6.401875 L61.1339313,6.401875 Z M55.8311813,6.401875 C56.3199313,5.9145 57.1110563,5.9145 57.5996813,6.401875 C58.0870563,6.890625 58.0870563,7.68175 57.5996813,8.170375 C57.1109313,8.65775 56.3198063,8.65775 55.8311813,8.170375 C55.3438063,7.681625 55.3438063,6.8905 55.8311813,6.401875 Z" id="Combined-Shape" fill="#E7E8E9" fill-rule="nonzero"></path>
        </g>
    </g>
</svg>
