<?xml version="1.0" encoding="UTF-8"?>
<svg width="40px" height="40px" viewBox="0 0 40 40" version="1.1" xmlns="http://www.w3.org/2000/svg" xmlns:xlink="http://www.w3.org/1999/xlink">
    <title>rythmico-guitar-icon</title>
    <g id="High-Fidelity" stroke="none" stroke-width="1" fill="none" fill-rule="evenodd">
        <g id="rythmico-guitar-icon" transform="translate(0.000000, 0.000000)">
            <polygon id="Path" points="0 0 40 0 40 40 0 40"></polygon>
            <path d="M33.7896875,0.6875 C34.7057031,-0.228359375 36.1885156,-0.228125 37.1042969,0.6875 L37.1042969,0.6875 L39.313125,2.8965625 C40.2290625,3.81257812 40.22875,5.29554687 39.313125,6.21117187 L39.313125,6.21117187 L38.7609375,6.76335937 L39.313125,7.31554687 C39.618125,7.62070312 39.618125,8.1153125 39.313125,8.4203125 C39.0079688,8.7253125 38.5133594,8.7253125 38.2083594,8.4203125 L38.2083594,8.4203125 L37.6561719,7.868125 L36.5516406,8.97265625 L37.1042188,9.525625 C37.4091406,9.83085937 37.4089844,10.3253906 37.1038281,10.6303125 C36.7984375,10.9354687 36.3038281,10.9348437 35.9991406,10.6299219 L35.9991406,10.6299219 L35.4469531,10.0773437 L34.8942188,10.6300781 C34.1735938,11.350625 33.0988281,11.5023437 32.2278125,11.0874219 L32.2278125,11.0874219 L24.6923438,18.6225 C26.9717188,22.2700781 26.5060156,26.8377344 23.0771094,28.7745312 C21.3610938,29.7425 19.194375,31.4424219 18.6146875,34.0453906 C18.2946875,35.4789062 17.5961719,36.7658594 16.5946875,37.7672656 C13.0665625,41.2954687 7.1034375,40.4275781 3.33867188,36.661875 C-0.374453125,32.9495312 -1.3378125,26.9772656 2.2334375,23.4059375 C3.23492188,22.4045312 4.52179688,21.7060156 5.955,21.3860937 C8.55835938,20.8063281 10.2582813,18.6396094 11.2260156,16.9239844 C13.1367969,13.5414062 17.6803906,12.9975781 21.3783594,15.3083594 L21.3783594,15.3083594 L28.9135156,7.7728125 C28.49875,6.90195312 28.6508594,5.82640625 29.3707813,5.10648437 L29.3707813,5.10648437 L29.9235938,4.55367187 L29.3710156,4.00148437 C29.0659375,3.69648437 29.0657031,3.20195312 29.370625,2.89679687 C29.675625,2.59171875 30.1702344,2.5915625 30.4753125,2.89640625 L30.4753125,2.89640625 L31.0282813,3.44898437 L32.1328125,2.34445312 L31.580625,1.79226562 C31.275625,1.48710937 31.2755469,0.9925 31.580625,0.6875 C31.8857813,0.3825 32.3803906,0.3825 32.6853906,0.6875 L32.6853906,0.6875 L33.2375,1.2396875 Z M20.2399219,16.4467187 C17.491875,14.8880469 14.0542969,15.0942187 12.5865625,17.6917969 C11.4632031,19.6835156 9.45945313,22.2060937 6.29515625,22.9107812 C5.1359375,23.1696094 4.14101563,23.7078906 3.33835938,24.5105469 C0.399765625,27.4492187 1.34492188,32.4591406 4.44367188,35.5571875 C7.535625,38.6498437 12.54625,39.6064062 15.4902344,36.6625 C16.2929688,35.8599219 16.83125,34.865 17.0900781,33.7053906 C17.7946875,30.5414844 20.3172656,28.5377344 22.309375,27.4140625 C24.8914844,25.9551562 25.1208594,22.5232031 23.5539063,19.7607812 L23.5539063,19.7607812 L18.8025781,24.511875 C18.9729688,25.7177344 18.5710156,26.953125 17.699375,27.8248437 C16.1728906,29.3513281 13.7019531,29.3510156 12.1757813,27.8248437 C10.6492969,26.2983594 10.6496094,23.8274219 12.1757813,22.30125 C13.0475781,21.4296094 14.2828906,21.0276562 15.48875,21.198125 L15.48875,21.198125 Z M5.54796875,28.9292969 C5.853125,28.6242969 6.34773438,28.6242969 6.65273438,28.9292969 L6.65273438,28.9292969 L11.0715625,33.348125 C11.3766406,33.6532031 11.3766406,34.1478125 11.0715625,34.4528906 C10.7664063,34.7578906 10.2717969,34.7578906 9.96679688,34.4528906 L9.96679688,34.4528906 L5.54796875,30.0340625 C5.24296875,29.7289062 5.24296875,29.2342969 5.54796875,28.9292969 Z M16.5947656,23.4060156 C15.6653125,22.4767969 14.1784375,22.5082031 13.2805469,23.4060156 C12.3646875,24.3219531 12.3648438,25.8046094 13.2805469,26.7202344 C14.1964063,27.6360937 15.6791406,27.6359375 16.5947656,26.7202344 C17.5071094,25.8078125 17.5110156,24.3224219 16.5947656,23.4060156 Z M29.9232813,8.9725 L17.0911719,21.8053125 C17.3090625,21.949375 17.5132031,22.1151562 17.6994531,22.3014062 C17.8857031,22.4876562 18.0514063,22.6917969 18.1955469,22.9096875 L18.1955469,22.9096875 L31.0283594,10.0775781 L29.9232813,8.9725 Z M35.9996094,1.79210937 C35.694375,1.486875 35.1996875,1.486875 34.8945313,1.79210937 L34.8945313,1.79210937 L33.9338025,2.75282593 C33.7783567,2.9082688 33.6147646,3.07185757 33.446378,3.2402406 L32.405339,4.28125673 C32.1441029,4.54248697 31.8871624,4.79942191 31.6458296,5.04074977 L30.475625,6.2109375 C30.1711719,6.51539062 30.1711719,7.01085937 30.475625,7.3153125 L30.475625,7.3153125 L31.0283594,7.86765625 L32.6852344,6.21078125 C32.9903906,5.90578125 33.485,5.90578125 33.79,6.21078125 C34.095,6.5159375 34.095,7.01054687 33.79,7.31554687 L33.79,7.31554687 L32.1328906,8.97265625 L32.6853906,9.52515625 C32.99,9.82953125 33.4853906,9.82953125 33.7898438,9.52515625 C33.8840156,9.43098437 33.9946305,9.32036875 34.118349,9.19664883 L34.5254763,8.78951562 C34.7453561,8.56963203 34.9872058,8.32777754 35.2397552,8.0752228 L35.755781,7.55918579 C35.9303188,7.38464409 36.1062728,7.20868618 36.2803036,7.03465151 L36.7932872,6.52165669 C36.9601324,6.35480796 37.1217151,6.19322192 37.274696,6.04023804 L38.2085938,5.10632812 C38.5139844,4.80117187 38.5139063,4.30640625 38.2086719,4.00117187 L38.2086719,4.00117187 Z M34.8944531,4.00117187 C35.1999219,3.6965625 35.694375,3.6965625 35.9997656,4.00117187 C36.304375,4.30664062 36.304375,4.80109375 35.9997656,5.10648437 C35.6942969,5.41109375 35.1998438,5.41109375 34.8944531,5.10648437 C34.5898438,4.80101562 34.5898438,4.3065625 34.8944531,4.00117187 Z" id="Combined-Shape" fill="#141E29" fill-rule="nonzero"></path>
        </g>
    </g>
</svg>