<?xml version="1.0" encoding="UTF-8"?>
<svg width="24px" height="24px" viewBox="0 0 24 24" version="1.1" xmlns="http://www.w3.org/2000/svg" xmlns:xlink="http://www.w3.org/1999/xlink">
    <title>iOS / Icon / Instrument / Saxophone</title>
    <g id="iOS-/-Icon-/-Instrument-/-Saxophone" stroke="none" stroke-width="1" fill="none" fill-rule="evenodd">
        <polygon id="Path" points="0 0 24 0 24 24 0 24"></polygon>
        <path d="M17.6579062,0.28303125 C18.460125,0.01021875 19.4890313,-0.070078125 20.4274219,0.064125 C20.6775,0.0590625 21.7510781,0.3976875 23.6632031,0.955828125 C23.8628437,1.01442187 24,1.19760937 24,1.40564062 L24,1.40564062 L24,3.28064062 C24,3.53948437 23.7901406,3.74939062 23.53125,3.74939062 L23.53125,3.74939062 L19.21875,3.74939062 C18.9602813,3.74939062 18.75,3.95967187 18.75,4.21814062 L18.75,4.21814062 L18.75,4.76751562 C19.2955781,4.96101562 19.6875,5.48203125 19.6875,6.09314062 C19.6875,6.70425 19.2955781,7.22526562 18.75,7.41876562 L18.75,7.41876562 L18.75,8.65814062 C19.2955781,8.85164062 19.6875,9.37265625 19.6875,9.98376562 C19.6875,10.594875 19.2955781,11.1158906 18.75,11.3093906 L18.75,11.3093906 L18.75,12.5487656 C19.2955781,12.7422656 19.6875,13.2632812 19.6875,13.8743906 C19.6875,14.4855 19.2955781,15.0065156 18.75,15.2000156 L18.75,15.2000156 L18.75,15.7737656 C18.75,20.0351719 15.5289844,23.7091406 11.31075,23.9820937 C9.07973437,24.1265625 6.9571875,23.3684062 5.33282812,21.8459062 C3.73110938,20.3446406 2.8125,18.2250469 2.8125,16.0306875 L2.8125,16.0306875 L2.8125,14.8156875 C2.8125,14.6635781 2.80823438,14.5054219 2.80045313,14.3431875 L2.80045313,14.3431875 L2.34375,14.3431875 C2.08485938,14.3431875 1.875,14.1332812 1.875,13.8744375 C1.875,13.6155937 2.08485938,13.4056875 2.34375,13.4056875 L2.34375,13.4056875 L2.71945313,13.4056875 C2.49417188,11.5508437 1.89960938,9.74709375 1.15598438,8.70553125 L1.15598438,8.70553125 L1.1476875,8.69390625 C0.495421875,8.572125 0,7.9989375 0,7.31189062 C0,6.53489062 0.62934375,5.90564062 1.40625,5.90564062 L1.40625,5.90564062 L10.7812969,5.90564062 C11.5567031,5.90564062 12.1875469,6.53648437 12.1875469,7.31189062 C12.1875469,8.0085 11.6846719,8.57498437 11.039625,8.69423437 L11.039625,8.69423437 L11.0329219,8.70360937 C10.5530625,9.37603125 10.1184375,10.4528437 9.80915625,11.7356719 C9.6785625,12.2780625 9.57309375,12.8468437 9.498375,13.4056406 L9.498375,13.4056406 L9.84375,13.4056406 C10.1026406,13.4056406 10.3125,13.6155469 10.3125,13.8743906 C10.3125,14.1332344 10.1026406,14.3431406 9.84375,14.3431406 L9.84375,14.3431406 L9.40251562,14.3431406 C9.384375,14.6076562 9.375,14.8589062 9.375,15.0931406 C9.375,16.4236875 10.4850937,17.5050469 11.8456875,17.4337969 C13.068,17.3697187 14.0625,16.2482344 14.0625,14.9337656 L14.0625,14.9337656 L14.0625,14.3431406 L13.59375,14.3431406 C13.3348594,14.3431406 13.125,14.1332344 13.125,13.8743906 C13.125,13.6155469 13.3348594,13.4056406 13.59375,13.4056406 L13.59375,13.4056406 L14.0625,13.4056406 L14.0625,10.4525156 L13.59375,10.4525156 C13.3348594,10.4525156 13.125,10.2426094 13.125,9.98376562 C13.125,9.72492187 13.3348594,9.51501562 13.59375,9.51501562 L13.59375,9.51501562 L14.0625,9.51501562 L14.0625,6.56189062 L13.59375,6.56189062 C13.3348594,6.56189062 13.125,6.35198437 13.125,6.09314062 C13.125,5.83429687 13.3348594,5.62439062 13.59375,5.62439062 L13.59375,5.62439062 L14.0625,5.62439062 L14.0625,5.53157812 C14.0625,4.39678125 14.4048281,3.25935937 15.0264375,2.32889062 C15.6775313,1.35421875 16.5875156,0.64678125 17.6579062,0.28303125 Z M8.46290625,14.3384531 L3.73921875,14.3384531 C3.74634375,14.5000312 3.75,14.658 3.75,14.8109531 L3.75,14.8109531 L3.75,16.0306406 C3.75,17.9953594 4.53979687,19.8176719 5.9739375,21.1618594 C7.40676562,22.5048281 9.28082812,23.1743906 11.2501406,23.0464687 C14.9300156,22.8084844 17.8125,19.6139531 17.8125,15.7737656 L17.8125,15.7737656 L17.8125,15.2000156 C17.4136406,15.0585469 17.0970937,14.742 16.955625,14.3431406 L16.955625,14.3431406 L15,14.3431406 L15,14.9337656 C15,16.7122031 13.6617656,18.2773594 11.8946719,18.3699844 C9.99440625,18.4692656 8.4375,16.9587187 8.4375,15.0931406 C8.4375,14.8568906 8.44607812,14.6012344 8.46290625,14.3384531 L8.46290625,14.3384531 Z M14.4271406,19.6764844 C14.6101875,19.4934844 14.907,19.4934844 15.0900469,19.6764844 C15.2730937,19.8595781 15.2730937,20.1563906 15.0900469,20.3394375 C13.9435781,21.4858594 12.4003594,22.1239687 10.7810156,22.1239687 C10.2932812,22.1239687 9.80554687,22.0658906 9.32985937,21.9496875 C9.078375,21.8882344 8.92429687,21.6345937 8.98575,21.3831094 C9.04715625,21.1316719 9.30070312,20.9773125 9.55232812,21.039 C11.3197969,21.4708125 13.14225,20.9614687 14.4271406,19.6764844 Z M7.734375,20.2493906 C7.993125,20.2493906 8.203125,20.4593906 8.203125,20.7181406 C8.203125,20.9768906 7.993125,21.1868906 7.734375,21.1868906 C7.475625,21.1868906 7.265625,20.9768906 7.265625,20.7181406 C7.265625,20.4593906 7.475625,20.2493906 7.734375,20.2493906 Z M18.28125,13.4056406 C18.0227813,13.4056406 17.8125,13.6159219 17.8125,13.8743906 C17.8125,14.1328594 18.0227813,14.3431406 18.28125,14.3431406 C18.5397187,14.3431406 18.75,14.1328594 18.75,13.8743906 C18.75,13.6159219 18.5397187,13.4056406 18.28125,13.4056406 Z M16.955625,10.4525156 L15,10.4525156 L15,13.4056406 L16.955625,13.4056406 C17.0970937,13.0067812 17.4136406,12.6902344 17.8125,12.5487656 L17.8125,12.5487656 L17.8125,11.3093906 C17.4136406,11.1679219 17.0970937,10.851375 16.955625,10.4525156 L16.955625,10.4525156 Z M10.78125,6.84314062 L1.40625,6.84314062 C1.14740625,6.84314062 0.9375,7.05314062 0.9375,7.31189062 C0.9375,7.57035937 1.14778125,7.78064062 1.40625,7.78064062 L1.40625,7.78064062 L4.2196875,7.78064062 C4.47857813,7.78064062 4.6884375,7.99054687 4.6884375,8.24939062 C4.6884375,8.50823437 4.47857813,8.71814062 4.2196875,8.71814062 L4.2196875,8.71814062 L2.27175,8.71814062 C3.05451563,10.1059687 3.49523437,11.9738437 3.66285938,13.4056406 L3.66285938,13.4056406 L8.55342187,13.4056406 C8.6330625,12.7748437 8.75001562,12.1296094 8.89771875,11.5160625 C9.0935625,10.7037187 9.42,9.61884375 9.9200625,8.71345312 L9.9200625,8.71345312 L7.9678125,8.71345312 C7.70892187,8.71345312 7.4990625,8.50823437 7.4990625,8.24939062 C7.4990625,7.99054687 7.70892187,7.78064062 7.9678125,7.78064062 L7.9678125,7.78064062 L10.78125,7.78064062 C11.0400937,7.78064062 11.25,7.57064062 11.25,7.31189062 C11.25,7.05342187 11.0397188,6.84314062 10.78125,6.84314062 L10.78125,6.84314062 Z M18.28125,9.51501562 C18.0227813,9.51501562 17.8125,9.72529687 17.8125,9.98376562 C17.8125,10.2422344 18.0227813,10.4525156 18.28125,10.4525156 C18.5397187,10.4525156 18.75,10.2422344 18.75,9.98376562 C18.75,9.72529687 18.5397187,9.51501562 18.28125,9.51501562 Z M16.955625,6.56189062 L15,6.56189062 L15,9.51501562 L16.955625,9.51501562 C17.0970937,9.11615625 17.4136406,8.79960937 17.8125,8.65814062 L17.8125,8.65814062 L17.8125,7.41876562 C17.4136406,7.27729687 17.0970937,6.96075 16.955625,6.56189062 L16.955625,6.56189062 Z M5.76234375,7.91798437 C5.94515625,7.73470312 6.24234375,7.73470312 6.42515625,7.91798437 C6.6084375,8.10079687 6.6084375,8.39798437 6.42515625,8.58079687 C6.24234375,8.76407812 5.94515625,8.76407812 5.76234375,8.58079687 C5.5790625,8.39798437 5.5790625,8.10079687 5.76234375,7.91798437 Z M18.28125,5.62439062 C18.0227813,5.62439062 17.8125,5.83467187 17.8125,6.09314062 C17.8125,6.35160937 18.0227813,6.56189062 18.28125,6.56189062 C18.5397187,6.56189062 18.75,6.35160937 18.75,6.09314062 C18.75,5.83467187 18.5397187,5.62439062 18.28125,5.62439062 Z M19.96875,0.95559375 C19.2661406,0.89840625 18.5387344,0.97378125 17.9596875,1.17070312 C16.1893594,1.77225 15,3.52471875 15,5.53157812 L15,5.53157812 L15,5.62439062 L16.955625,5.62439062 C17.0970937,5.22553125 17.4136406,4.90898437 17.8125,4.76751562 L17.8125,4.76751562 L17.8125,4.21814062 C17.8125,3.44273437 18.4433437,2.81189062 19.21875,2.81189062 L19.21875,2.81189062 L19.96875,2.81189062 Z M20.90625,1.12195312 L20.90625,2.81189062 L23.0625,2.81189062 L23.0625,1.7566875 C21.7935208,1.38433333 21.2760046,1.2320162 21.070688,1.17128344 L21.0074707,1.15255078 C20.965555,1.14009961 20.9487655,1.1350242 20.9436968,1.13340448 C20.9303404,1.12899508 20.9201458,1.12601302 20.90625,1.12195312 L20.90625,1.12195312 Z" id="Combined-Shape" fill="#FFFFFF"></path>
    </g>
</svg>