<svg width="16" height="16" viewBox="0 0 16 16" fill="none" xmlns="http://www.w3.org/2000/svg">
<path fill-rule="evenodd" clip-rule="evenodd" d="M1.33334 6.66667C1.33334 2.98477 4.31811 0 8.00001 0C11.6819 0 14.6667 2.98477 14.6667 6.66667C14.6667 8.9144 13.4651 11.1173 11.484 13.2085C10.8047 13.9255 10.0788 14.5788 9.35279 15.1569C9.22554 15.2583 9.1027 15.3537 8.98502 15.4431L8.64815 15.6928L8.36981 15.888C8.14588 16.0373 7.85414 16.0373 7.63021 15.888L7.35187 15.6928L7.015 15.4431C6.89732 15.3537 6.77449 15.2583 6.64723 15.1569C5.92118 14.5788 5.19534 13.9255 4.51604 13.2085C2.53494 11.1173 1.33334 8.9144 1.33334 6.66667ZM13.3333 6.66667C13.3333 3.72115 10.9455 1.33333 8.00001 1.33333C5.05449 1.33333 2.66668 3.72115 2.66668 6.66667C2.66668 8.50226 3.71508 10.4243 5.48398 12.2915C6.11718 12.9599 6.7976 13.5723 7.47779 14.1139C7.59663 14.2085 7.7111 14.2975 7.82047 14.3806L8.00001 14.5147L8.34734 14.2516L8.52223 14.1139C9.20242 13.5723 9.88284 12.9599 10.516 12.2915C12.2849 10.4243 13.3333 8.50226 13.3333 6.66667ZM5.33334 6.66667C5.33334 5.19391 6.52725 4 8.00001 4C9.47277 4 10.6667 5.19391 10.6667 6.66667C10.6667 8.13943 9.47277 9.33333 8.00001 9.33333C6.52725 9.33333 5.33334 8.13943 5.33334 6.66667ZM9.33334 6.66667C9.33334 5.93029 8.73639 5.33333 8.00001 5.33333C7.26363 5.33333 6.66668 5.93029 6.66668 6.66667C6.66668 7.40305 7.26363 8 8.00001 8C8.73639 8 9.33334 7.40305 9.33334 6.66667Z" fill="#150F2F"/>
</svg>
