<svg xmlns="http://www.w3.org/2000/svg" width="16" height="16" viewBox="0 0 16 16">
    <g fill="none" fill-rule="evenodd">
        <g fill="#4B5C6B">
            <g>
                <path d="M8 0C4.867 0 2.333 2.572 2.333 5.752c0 3.427 3.578 8.152 5.052 9.952.324.395.915.395 1.238 0 1.466-1.8 5.044-6.525 5.044-9.952C13.667 2.572 11.133 0 8 0zm0 7.807c-1.117 0-2.024-.92-2.024-2.055 0-1.134.907-2.054 2.024-2.054s2.024.92 2.024 2.054S9.117 7.807 8 7.807z" transform="translate(-24 -290) translate(24 290)"/>
            </g>
        </g>
    </g>
</svg>
