<?xml version="1.0" encoding="UTF-8"?>
<svg width="106px" height="90px" viewBox="0 0 106 90" version="1.1" xmlns="http://www.w3.org/2000/svg" xmlns:xlink="http://www.w3.org/1999/xlink">
    <title>Icon / Flute</title>
    <g id="Icon-/-Flute" stroke="none" stroke-width="1" fill="none" fill-rule="evenodd">
        <path d="M60.003708,88.2905891 C51.3384284,90.5324332 41.9275844,89.7892646 33.7237898,86.214882 C25.5199951,82.6404994 18.5761552,76.2575709 14.3336559,68.3914616 C11.5638832,63.2561381 9.93387791,57.110794 11.7697544,51.5743316 C12.4419986,49.5465431 13.6329463,47.599384 15.4722731,46.5072992 C18.0008085,45.0057544 21.3292512,45.4160753 23.8856769,46.8699885 C26.4421026,48.3233278 28.3602126,50.6658869 30.0632504,53.0603818 C35.2198063,60.3098621 38.9870192,68.5363651 44.7672268,75.3009207 C50.5471469,82.0657633 59.2032256,87.3807098 67.9901303,85.9176146 L60.003708,88.2905891 Z" id="shape-blob-yellow" fill-opacity="0.6" fill="#FFBC65" transform="translate(39.490130, 67.561628) rotate(-36.000000) translate(-39.490130, -67.561628) "></path>
        <path d="M95.1717514,66.5353553 C94.7747316,53.4814076 88.5597092,40.7262266 78.5944233,32.5142615 C75.6078108,30.0528331 72.1515955,27.9307199 68.3261255,27.5782598 C64.5006555,27.2257996 60.284943,29.0562754 58.7648554,32.651057 C57.1201525,36.5403724 59.0951952,41.2110264 62.2424958,43.9765687 C65.3895778,46.7423338 69.4710556,48.0733053 73.3809142,49.5087672 C78.1971848,51.2768607 82.9727916,53.3276797 87.1154839,56.3926572 C89.8775703,58.4358269 92.5629928,61.8167263 95.1717514,66.5353553 Z" id="shape-blob-red2" fill-opacity="0.6" fill="#FF6F6F" transform="translate(76.671751, 47.035355) scale(-1, -1) rotate(-45.000000) translate(-76.671751, -47.035355) "></path>
        <path d="M37.3962149,34.9427565 C35.672313,31.5554126 35.1892016,27.6180402 36.0469817,23.9480544 C36.9047618,20.2780687 39.0981088,16.8987715 42.1714214,14.5117385 C44.1780553,12.95352 46.7238855,11.7825512 49.3011304,12.0888303 C50.2451676,12.2009818 51.1982566,12.5334129 51.8336493,13.2022985 C52.7068704,14.1219743 52.8131833,15.5264664 52.3973384,16.6977705 C51.9818484,17.8689071 51.1226484,18.849604 50.2224497,19.7458101 C47.4968282,22.4590715 44.2250885,24.6796376 41.7649831,27.6104964 C39.3048776,30.5413552 37.7252702,34.5390781 39.1190519,38.0399147 L37.3962149,34.9427565 Z" id="shape-blob-green" fill-opacity="0.6" fill="#00A19E" transform="translate(44.132099, 25.039915) rotate(-14.000000) translate(-44.132099, -25.039915) "></path>
        <g id="iOS-/-Icon-/-Guitar" transform="translate(21.000000, 13.000000)">
            <polygon id="Path" points="0 0 64 0 64 64 0 64"></polygon>
            <path d="M50.529125,1.0965 C51.991125,-0.3655 54.370125,-0.365375 55.832,1.0965 L55.832,1.0965 L62.9035,8.168 C64.365375,9.629875 64.365375,12.008875 62.9035,13.470875 C62.8441412,13.5302337 62.7494217,13.6249542 62.6214432,13.7529345 L62.1398322,14.2345532 C62.0757005,14.298686 62.008107,14.3662808 61.9371294,14.4372597 L61.4712774,14.9031205 C61.3870748,14.9873247 61.2996439,15.0747574 61.2090624,15.1653407 L59.6237786,16.7506575 C59.3834967,16.9909446 59.1321694,17.2422774 58.8704195,17.504033 L58.0545247,18.3199458 C57.7725523,18.6019244 57.48078,18.8937032 57.1798306,19.1946594 L55.2689902,21.105543 C55.1014067,21.2731303 54.9318403,21.4427006 54.7603688,21.6141761 L53.7093016,22.6652674 C52.8153995,23.5591902 51.8777626,24.4968489 50.9061214,25.468513 L49.122544,27.2521323 C47.5082342,28.8664803 45.8218188,30.552936 44.1031531,32.271643 L42.1581503,34.2166927 C41.7238381,34.6510154 41.2884444,35.0864197 40.8525919,35.5222828 L38.8902605,37.4846621 C37.8006911,38.5742581 36.7140925,39.6608834 35.6401949,40.7348076 L28.8404975,47.5346752 C28.45213,47.9230525 28.0692198,48.3059724 27.6923896,48.6828122 L23.9858109,52.3894868 C23.659169,52.7161373 23.3407866,53.034528 23.0312866,53.3440363 L21.2858555,55.0895141 C21.0143755,55.3610014 20.7530234,55.6223608 20.5024217,55.8729693 L19.1327996,57.2426299 C18.9276909,57.4477445 18.7345782,57.6408628 18.5540842,57.8213622 L18.0510812,58.3243804 C17.5098629,58.8656153 17.1308525,59.2446387 16.94075,59.43475 L16.9357969,59.4393594 C16.80925,59.563125 16.662125,59.655125 16.51375,59.7135 C16.50675,59.71625 16.50025,59.71975 16.49325,59.722375 L16.49325,59.722375 L5.221625,63.92125 C4.763125,64.092 4.247375,63.979625 3.901375,63.63375 L3.901375,63.63375 L0.36625,60.098625 C0.020375,59.752625 -0.092,59.23675 0.07875,58.778375 L0.07875,58.778375 L4.277625,47.50675 C4.3375,47.346 4.441125,47.1865 4.556,47.06925 L4.556,47.06925 L4.565125,47.059125 Z M5.941125,50.203 L2.701875,58.898625 L5.101375,61.298125 L13.796875,58.05875 L5.941125,50.203 Z M47.877875,7.28325 L7.217,47.94325 L8.985375,49.711625 L11.63675,47.05925 C12.789375,45.90675 14.51125,45.66325 15.905125,46.32725 L15.905125,46.32725 L18.708375,43.524 C19.196625,43.035875 19.988125,43.035875 20.47625,43.524 C20.964375,44.01225 20.964375,44.80375 20.47625,45.291875 L20.47625,45.291875 L17.6745,48.093625 C18.32575,49.454 18.122,51.185375 16.939875,52.3645 L16.939875,52.3645 L14.288625,55.01475 L16.057,56.783125 L56.71675,16.122125 L47.877875,7.28325 Z M15.071311,48.7356749 C14.5806244,48.3415733 13.8595,48.3721167 13.4045,48.827 L13.4045,48.827 L10.753125,51.479375 L12.52075,53.247 L15.173125,50.59525 C15.6625,50.107125 15.661,49.315375 15.17325,48.82725 L15.17325,48.82725 L15.173,48.827 Z M22.2435,39.987875 C22.73225,39.500375 23.5235,39.500375 24.01225,39.987875 C24.49975,40.476625 24.49975,41.267875 24.01225,41.756625 C23.5235,42.244125 22.73225,42.244125 22.2435,41.756625 C21.756,41.267875 21.756,40.476625 22.2435,39.987875 Z M25.7795,32.9175 C27.2415,31.4555 29.6205,31.455625 31.0825,32.9175 C32.5445,34.3795 32.5445,36.7585 31.0825,38.2205 C29.620625,39.682375 27.241625,39.682375 25.7795,38.220375 C24.317625,36.758375 24.317625,34.3795 25.7795,32.9175 Z M29.31475,34.685375 C28.82625,34.196875 28.035875,34.196875 27.5475,34.685375 C27.06025,35.172625 27.06025,35.9655 27.5475,36.452625 C28.034625,36.93975 28.8275,36.939875 29.31475,36.452625 C29.80325,35.964125 29.803125,35.1735 29.31475,34.685375 Z M34.6185,24.0785 C36.0805,22.6165 38.4595,22.616625 39.9215,24.0785 C41.3835,25.5405 41.3835,27.9195 39.9215,29.3815 C38.459625,30.843375 36.0805,30.843375 34.6185,29.381375 C33.156625,27.919375 33.156625,25.5405 34.6185,24.0785 Z M38.15375,25.8465 C37.66525,25.358 36.874875,25.358 36.3865,25.8465 C35.89925,26.333625 35.89925,27.1265 36.3865,27.61375 C36.873625,28.100875 37.6665,28.101 38.15375,27.61375 C38.642375,27.125125 38.64225,26.334625 38.15375,25.8465 Z M43.457125,15.23875 C44.919125,13.776875 47.29825,13.776625 48.76125,15.237625 C50.2235,16.701875 50.22325,19.081 48.76175,20.542375 L48.76175,20.542375 L48.6067369,20.6887776 C47.1355049,22.0019123 44.8688491,21.9535948 43.457625,20.54225 C41.99625,19.081 41.996,16.70175 43.457125,15.23875 Z M46.9935,17.0055 C46.506,16.5185 45.712375,16.51925 45.225625,17.006 C44.738625,17.49375 44.738375,18.28725 45.225625,18.774375 C45.712875,19.2615 46.50625,19.2615 46.994375,18.774 C47.481375,18.28675 47.481,17.4935 46.9935,17.0055 Z M54.064125,2.864375 C53.577,2.377125 52.784125,2.37725 52.297,2.864375 L52.297,2.864375 L49.64575,5.515625 L58.4845,14.354375 L61.13575,11.703125 C61.622875,11.215875 61.622875,10.423 61.13575,9.936 L61.13575,9.936 Z" id="Combined-Shape" fill="#E7E8E9" fill-rule="nonzero"></path>
        </g>
    </g>
</svg>
