<?xml version="1.0" encoding="UTF-8"?>
<svg width="40px" height="40px" viewBox="0 0 40 40" version="1.1" xmlns="http://www.w3.org/2000/svg" xmlns:xlink="http://www.w3.org/1999/xlink">
    <title>rythmico-flute-icon</title>
    <g id="High-Fidelity" stroke="none" stroke-width="1" fill="none" fill-rule="evenodd">
        <g id="rythmico-flute-icon" transform="translate(0.000000, 0.000000)">
            <polygon id="Path" points="0 0 40 0 40 40 0 40"></polygon>
            <path d="M31.5807031,0.6853125 C32.4944531,-0.2284375 33.9813281,-0.228359375 34.895,0.6853125 L34.895,0.6853125 L39.3146875,5.105 C40.2283594,6.01867188 40.2283594,7.50554688 39.3146875,8.41929688 L39.3146875,8.41929688 L37.0344685,10.6995591 C36.8774862,10.8565447 36.7137952,11.0202393 36.5437847,11.1902536 L32.5344663,15.1996634 C32.298746,15.4353891 32.0592362,15.6749046 31.8163258,15.9178206 L29.1574887,18.5767206 C28.8955432,18.8386724 28.6315594,19.1026625 28.3659267,19.3683016 L26.348844,21.3854329 C25.398786,22.3355139 24.4404476,23.2938756 23.4905162,24.2438304 L22.6787373,25.0556292 C22.4090901,25.3252831 22.1405184,25.5938614 21.8734114,25.8609751 L19.5195042,28.214941 C17.7357933,29.9986967 16.0810671,31.6534653 14.6888253,33.0457437 L14.10861,33.6259744 C13.9208212,33.8137682 13.7387784,33.9958158 13.5628709,34.1717281 L12.8140135,34.9206058 C12.6573875,35.0772362 12.5074805,35.2271474 12.3646818,35.3699501 L11.9579997,35.7766437 C11.6375174,36.0971352 11.3638944,36.3707664 11.1432121,36.5914557 L10.646069,37.088616 L10.646069,37.088616 L10.5879687,37.1467188 L10.5879687,37.1467188 C10.5057812,37.2269531 10.4138281,37.2844531 10.3210937,37.3209375 C10.3167187,37.3226563 10.3126562,37.3248438 10.3082812,37.3264844 L10.3082812,37.3264844 L3.26351562,39.9507813 C2.97695312,40.0575 2.65460937,39.9872656 2.43835937,39.7710938 L2.43835937,39.7710938 L0.22890625,37.5616406 C0.012734375,37.3453906 -0.0575,37.0229688 0.04921875,36.7364844 L0.04921875,36.7364844 L2.67351562,29.6917188 C2.7109375,29.59125 2.77570312,29.4915625 2.8475,29.4182813 C2.84945312,29.41625 2.85117187,29.4139844 2.85320312,29.4119531 L2.85320312,29.4119531 Z M3.71320312,31.376875 L1.68867187,36.8116406 L3.18835937,38.3113281 L8.62304687,36.2867188 L3.71320312,31.376875 Z M29.9236719,4.55203125 L4.510625,29.9645313 L5.61585937,31.0697656 L7.27296875,29.4120313 C7.99335937,28.6917188 9.06953125,28.5395313 9.94070312,28.9545313 L9.94070312,28.9545313 L11.6927344,27.2025 C11.9978906,26.8974219 12.4925781,26.8974219 12.7976562,27.2025 C13.1027344,27.5076563 13.1027344,28.0023438 12.7976562,28.3074219 L12.7976562,28.3074219 L11.0465625,30.0585156 C11.4535937,30.90875 11.32625,31.9908594 10.5874219,32.7278125 L10.5874219,32.7278125 L8.93039062,34.3842188 L10.035625,35.4894531 L35.4479687,10.0763281 L29.9236719,4.55203125 Z M9.48296875,30.5166406 C9.178125,30.2121094 8.6825,30.2122656 8.3778125,30.516875 L8.3778125,30.516875 L6.72070312,32.1746094 L7.82546875,33.279375 L9.48320312,31.6220313 C9.7890625,31.3169531 9.788125,30.8221094 9.48328125,30.5170313 C9.48328125,30.5169531 9.48320312,30.5169531 9.483125,30.516875 Z M13.9021875,24.9924219 C14.2076562,24.6877344 14.7021875,24.6877344 15.0076562,24.9924219 C15.3123437,25.2978906 15.3123437,25.7924219 15.0076562,26.0978906 C14.7021875,26.4025781 14.2076562,26.4025781 13.9021875,26.0978906 C13.5975,25.7924219 13.5975,25.2978906 13.9021875,24.9924219 Z M16.1121875,20.5734375 C17.0259375,19.6596875 18.5128125,19.6597656 19.4265625,20.5734375 C20.3403125,21.4871875 20.3403125,22.9740625 19.4265625,23.8878125 C18.5128906,24.8014844 17.0260156,24.8014844 16.1121875,23.8877344 C15.1985156,22.9739844 15.1985156,21.4871875 16.1121875,20.5734375 Z M18.3217187,21.6783594 C18.0164062,21.3730469 17.5224219,21.3730469 17.2171875,21.6783594 C16.9126562,21.9828906 16.9126562,22.4784375 17.2171875,22.7828906 C17.5216406,23.0873438 18.0171875,23.0874219 18.3217187,22.7828906 C18.6270312,22.4775781 18.6269531,21.9834375 18.3217187,21.6783594 Z M21.6365625,15.0490625 C22.5503125,14.1353125 24.0371875,14.1353906 24.9509375,15.0490625 C25.8646875,15.9628125 25.8646875,17.4496875 24.9509375,18.3634375 C24.0372656,19.2771094 22.5503125,19.2771094 21.6365625,18.3633594 C20.7228906,17.4496094 20.7228906,15.9628125 21.6365625,15.0490625 Z M23.8460937,16.1540625 C23.5407812,15.84875 23.0467969,15.84875 22.7415625,16.1540625 C22.4370312,16.4585156 22.4370312,16.9540625 22.7415625,17.2585938 C23.0460156,17.5630469 23.5415625,17.563125 23.8460937,17.2585938 C24.1514844,16.9532031 24.1514062,16.4591406 23.8460937,16.1540625 Z M27.1607031,9.52421875 C28.0744531,8.61054688 29.5614062,8.61039063 30.4757812,9.52351563 C31.3896875,10.4386719 31.3895312,11.925625 30.4760937,12.8389844 C30.4759375,12.8390625 30.4758594,12.8392188 30.4757812,12.8392969 L30.3476722,12.9581351 C29.4275628,13.7503989 28.0330078,13.710973 27.1610156,12.8389063 C26.2476562,11.925625 26.2475,10.4385938 27.1607031,9.52421875 Z M29.3709375,10.6284375 C29.06625,10.3240625 28.5702344,10.3245313 28.2660156,10.62875 C27.9616406,10.9335938 27.9614844,11.4295313 28.2660156,11.7339844 C28.5705469,12.0384375 29.0664062,12.0384375 29.3714844,11.73375 C29.6758594,11.4292188 29.675625,10.9334375 29.3709375,10.6284375 Z M33.7900781,1.79023438 C33.485625,1.48570313 32.9900781,1.48578125 32.685625,1.79023438 L32.685625,1.79023438 L31.0285937,3.44726563 L36.5528125,8.97148438 L38.2098437,7.31445313 C38.5142969,7.00992188 38.5142969,6.514375 38.2098437,6.21 L38.2098437,6.21 Z" id="Combined-Shape" fill="#141E29" fill-rule="nonzero"></path>
        </g>
    </g>
</svg>