<?xml version="1.0" encoding="UTF-8"?>
<svg width="106px" height="90px" viewBox="0 0 106 90" version="1.1" xmlns="http://www.w3.org/2000/svg" xmlns:xlink="http://www.w3.org/1999/xlink">
    <title>Icon / Piano</title>
    <g id="Icon-/-Piano" stroke="none" stroke-width="1" fill="none" fill-rule="evenodd">
        <path d="M40.7517737,79.2486701 C33.758741,81.0829061 26.1640249,80.4748591 19.5434187,77.5503642 C12.9228125,74.6258694 7.31901181,69.4034734 3.89524044,62.9675657 C1.6599853,58.7659374 0.344542412,53.7379286 1.82612697,49.2080957 C2.36863985,47.548996 3.32975547,45.9558659 4.81412452,45.062342 C6.8546969,43.8338053 9.54080855,44.1695224 11.6038889,45.3590877 C13.6669693,46.5481835 15.2149177,48.4648228 16.5892992,50.423955 C20.7507302,56.3553479 23.7909371,63.0861232 28.4556661,68.6207596 C33.120163,74.1556307 40.1057704,78.5042233 47.1969566,77.3071454 L40.7517737,79.2486701 Z" id="shape-blob-yellow" fill-opacity="0.6" fill="#FFBC65" transform="translate(24.196957, 62.288611) rotate(-90.000000) translate(-24.196957, -62.288611) "></path>
        <path d="M44,32 C43.6995525,22.2932183 38.9962924,12.8085966 31.4549949,6.70226354 C29.1948557,4.87197061 26.5793415,3.29398905 23.6843912,3.03190329 C20.7894409,2.76981754 17.599172,4.13094053 16.4488354,6.8039833 C15.2041954,9.69603832 16.6988223,13.1690888 19.0805633,15.2255176 C21.4621388,17.2821122 24.5508248,18.271809 27.5096367,19.3392037 C31.154382,20.6539399 34.7683547,22.1789079 37.9033651,24.4579937 C39.9935927,25.9772738 42.0258043,28.4912759 44,32 Z" id="shape-blob-red2" fill-opacity="0.6" fill="#FF6F6F"></path>
        <path d="M78.8961249,49.5366007 C76.7665991,45.2372796 76.1698144,40.2398454 77.2294251,35.5817865 C78.2890358,30.9237277 80.9984644,26.6346198 84.7949094,23.604924 C87.2736924,21.6271852 90.4185415,20.1409555 93.6021969,20.5296944 C94.7683606,20.6720406 95.9457058,21.0939724 96.7306026,21.9429425 C97.8092876,23.1102233 97.9406153,24.8928479 97.4269245,26.3795032 C96.9136722,27.8659457 95.8523075,29.1106764 94.7402973,30.2481687 C91.3733531,33.6919236 87.3317923,36.5103344 84.2928386,40.2302706 C81.2538848,43.9502068 79.302605,49.0242397 81.0243353,53.4676092 L78.8961249,49.5366007 Z" id="shape-blob-green" fill-opacity="0.6" fill="#00A19E" transform="translate(87.216923, 36.967609) rotate(34.000000) translate(-87.216923, -36.967609) "></path>
        <g id="iOS-/-Icon-/-Guitar" transform="translate(21.000000, 13.000000)">
            <polygon id="Path" points="0 0 64 0 64 64 0 64"></polygon>
            <path d="M22,0 C29.58175,0 35.75,6.16825 35.75,13.75 C35.75,18.57475 39.67525,22.5 44.5,22.5 L44.5,22.5 L52.75,22.5 C58.95325,22.5 64,27.54675 64,33.75 L64,33.75 L64,60.25 C64,62.31775 62.31775,64 60.25,64 L60.25,64 L3.75,64 C1.68225,64 0,62.31775 0,60.25 L0,60.25 L0,13.75 C0,6.16825 6.16825,0 13.75,0 L13.75,0 Z M5.375,45.75 L2.5,45.75 L2.5,60.25 C2.5,60.93925 3.06075,61.5 3.75,61.5 L3.75,61.5 L7.875,61.5 L7.875,56.5 L6.625,56.5 C5.934625,56.5 5.375,55.940375 5.375,55.25 L5.375,55.25 L5.375,45.75 Z M15.375,45.75 L12.875,45.75 L12.875,55.25 C12.875,55.940375 12.315375,56.5 11.625,56.5 L11.625,56.5 L10.375,56.5 L10.375,61.5 L17.875,61.5 L17.875,56.5 L16.625,56.5 C15.934625,56.5 15.375,55.940375 15.375,55.25 L15.375,55.25 L15.375,45.75 Z M25.375,45.75 L22.875,45.75 L22.875,55.25 C22.875,55.940375 22.315375,56.5 21.625,56.5 L21.625,56.5 L20.375,56.5 L20.375,61.5 L27.875,61.5 L27.875,56.5 L26.625,56.5 C25.934625,56.5 25.375,55.940375 25.375,55.25 L25.375,55.25 L25.375,45.75 Z M35.75,45.75 L32.875,45.75 L32.875,55.25 C32.875,55.940375 32.315375,56.5 31.625,56.5 L31.625,56.5 L30.375,56.5 L30.375,61.5 L35.75,61.5 L35.75,45.75 Z M41.125,45.75 L38.25,45.75 L38.25,61.5 L43.625,61.5 L43.625,56.5 L42.375,56.5 C41.684625,56.5 41.125,55.940375 41.125,55.25 L41.125,55.25 L41.125,45.75 Z M51.125,45.75 L48.625,45.75 L48.625,55.25 C48.625,55.940375 48.065375,56.5 47.375,56.5 L47.375,56.5 L46.125,56.5 L46.125,61.5 L53.625,61.5 L53.625,56.5 L52.375,56.5 C51.684625,56.5 51.125,55.940375 51.125,55.25 L51.125,55.25 L51.125,45.75 Z M61.5,45.75 L58.625,45.75 L58.625,55.25 C58.625,55.940375 58.065375,56.5 57.375,56.5 L57.375,56.5 L56.125,56.5 L56.125,61.5 L60.25,61.5 C60.93925,61.5 61.5,60.93925 61.5,60.25 L61.5,60.25 L61.5,45.75 Z M10.375,45.75 L7.875,45.75 L7.875,54 L10.375,54 L10.375,45.75 Z M20.375,45.75 L17.875,45.75 L17.875,54 L20.375,54 L20.375,45.75 Z M30.375,45.75 L27.875,45.75 L27.875,54 L30.375,54 L30.375,45.75 Z M46.125,45.75 L43.625,45.75 L43.625,54 L46.125,54 L46.125,45.75 Z M56.125,45.75 L53.625,45.75 L53.625,54 L56.125,54 L56.125,45.75 Z M61.5,37.5 L2.5,37.5 L2.5,43.25 L61.5,43.25 L61.5,37.5 Z M22,2.5 L13.75,2.5 C7.54675,2.5 2.5,7.54675 2.5,13.75 L2.5,13.75 L2.5,35 L61.5,35 L61.5,33.75 C61.5,28.92525 57.57475,25 52.75,25 L52.75,25 L44.5,25 C38.29675,25 33.25,19.95325 33.25,13.75 C33.25,7.54675 28.20325,2.5 22,2.5 L22,2.5 Z M22,5 C26.82475,5 30.75,8.92525 30.75,13.75 C30.75,14.440375 30.190375,15 29.5,15 C28.809625,15 28.25,14.440375 28.25,13.75 C28.25,10.30375 25.44625,7.5 22,7.5 L22,7.5 L19.5,7.5 C18.809625,7.5 18.25,6.940375 18.25,6.25 C18.25,5.559625 18.809625,5 19.5,5 L19.5,5 Z M14.5,5 C15.19,5 15.75,5.56 15.75,6.25 C15.75,6.94 15.19,7.5 14.5,7.5 C13.81,7.5 13.25,6.94 13.25,6.25 C13.25,5.56 13.81,5 14.5,5 Z" id="Combined-Shape" fill="#E7E8E9" fill-rule="nonzero"></path>
        </g>
    </g>
</svg>
