<svg xmlns="http://www.w3.org/2000/svg" width="32" height="32" viewBox="0 0 32 32">
    <g fill="none" fill-rule="evenodd">
        <g>
            <g>
                <g>
                    <path d="M0 0L32 0 32 32 0 32z" transform="translate(-295 -437) translate(24 417) translate(271 20)"/>
                    <path fill="#1C1D21" d="M29.188 1.875h-4.75V.937c0-.517-.42-.937-.938-.937h-3.75c-1.53 0-2.891.737-3.747 1.875h-.006C15.141.737 13.78 0 12.25 0H8.5c-.518 0-.938.42-.938.938v.937h-4.75C1.262 1.875 0 3.137 0 4.688c0 1.222.784 2.264 1.875 2.65v23.724c0 .518.42.938.938.938h3.812c.518 0 .938-.42.938-.938v-.937h16.875v.938c0 .517.42.937.937.937h3.813c.517 0 .937-.42.937-.938V7.34C31.216 6.952 32 5.909 32 4.687c0-1.55-1.262-2.812-2.813-2.812zm-12.25 2.813c0-1.551 1.261-2.813 2.812-2.813h2.813v7.5h-5.625V4.687zm-7.5-2.813h2.812c1.55 0 2.813 1.262 2.813 2.813v4.687H9.436v-7.5zM1.875 4.688c0-.517.42-.938.938-.938h4.75v1.875h-4.75c-.517 0-.938-.42-.938-.938zM24.438 28.25H7.563v-3.813h16.875v3.813zm0-5.688H7.563v-3.75h1.875v1.875c0 .518.42.938.937.938.518 0 .938-.42.938-.938v-1.875h1.874v1.875c0 .518.42.938.938.938s.938-.42.938-.938v-1.875h1.874v1.875c0 .518.42.938.938.938s.938-.42.938-.938v-1.875h1.875v1.875c0 .518.42.938.937.938.518 0 .938-.42.938-.938v-1.875h1.875v3.75zm3.812 7.563h-1.938v-12.25c0-.388-.236-.721-.572-.864-.112-.047-.236-.073-.365-.073H6.625c-.13 0-.253.026-.365.073-.336.143-.572.476-.572.864v12.25H3.75V15.062h24.5v15.063zm0-16.938H3.75V7.5h3.813v1.875h-.938c-.518 0-.938.42-.938.938 0 .517.42.937.938.937h18.75c.518 0 .938-.42.938-.938 0-.517-.42-.937-.938-.937h-.938V7.5h3.813v5.688zm.938-7.562h-4.75V3.75h4.75c.516 0 .937.42.937.938 0 .516-.42.937-.938.937z" transform="translate(-295 -437) translate(24 417) translate(271 20)"/>
                </g>
            </g>
        </g>
    </g>
</svg>
