<?xml version="1.0" encoding="UTF-8"?>
<svg width="40px" height="40px" viewBox="0 0 40 40" version="1.1" xmlns="http://www.w3.org/2000/svg" xmlns:xlink="http://www.w3.org/1999/xlink">
    <title>rythmico-piano-icon</title>
    <g id="High-Fidelity" stroke="none" stroke-width="1" fill="none" fill-rule="evenodd">
        <g id="rythmico-piano-icon" transform="translate(0.000000, 0.000000)">
            <polygon id="Path" points="0 0 40 0 40 40 0 40"></polygon>
            <path d="M13.75,0 C18.4885937,0 22.34375,3.85515625 22.34375,8.59375 C22.34375,11.6092188 24.7970312,14.0625 27.8125,14.0625 L27.8125,14.0625 L32.96875,14.0625 C36.8457813,14.0625 40,17.2167187 40,21.09375 L40,21.09375 L40,37.65625 C40,38.9485938 38.9485938,40 37.65625,40 L37.65625,40 L2.34375,40 C1.05140625,40 0,38.9485938 0,37.65625 L0,37.65625 L0,8.59375 C0,3.85515625 3.85515625,0 8.59375,0 L8.59375,0 Z M3.359375,28.59375 L1.5625,28.59375 L1.5625,37.65625 C1.5625,38.0870313 1.91296875,38.4375 2.34375,38.4375 L2.34375,38.4375 L4.921875,38.4375 L4.921875,35.3125 L4.140625,35.3125 C3.70914063,35.3125 3.359375,34.9627344 3.359375,34.53125 L3.359375,34.53125 L3.359375,28.59375 Z M9.609375,28.59375 L8.046875,28.59375 L8.046875,34.53125 C8.046875,34.9627344 7.69710938,35.3125 7.265625,35.3125 L7.265625,35.3125 L6.484375,35.3125 L6.484375,38.4375 L11.171875,38.4375 L11.171875,35.3125 L10.390625,35.3125 C9.95914062,35.3125 9.609375,34.9627344 9.609375,34.53125 L9.609375,34.53125 L9.609375,28.59375 Z M15.859375,28.59375 L14.296875,28.59375 L14.296875,34.53125 C14.296875,34.9627344 13.9471094,35.3125 13.515625,35.3125 L13.515625,35.3125 L12.734375,35.3125 L12.734375,38.4375 L17.421875,38.4375 L17.421875,35.3125 L16.640625,35.3125 C16.2091406,35.3125 15.859375,34.9627344 15.859375,34.53125 L15.859375,34.53125 L15.859375,28.59375 Z M22.34375,28.59375 L20.546875,28.59375 L20.546875,34.53125 C20.546875,34.9627344 20.1971094,35.3125 19.765625,35.3125 L19.765625,35.3125 L18.984375,35.3125 L18.984375,38.4375 L22.34375,38.4375 L22.34375,28.59375 Z M25.703125,28.59375 L23.90625,28.59375 L23.90625,38.4375 L27.265625,38.4375 L27.265625,35.3125 L26.484375,35.3125 C26.0528906,35.3125 25.703125,34.9627344 25.703125,34.53125 L25.703125,34.53125 L25.703125,28.59375 Z M31.953125,28.59375 L30.390625,28.59375 L30.390625,34.53125 C30.390625,34.9627344 30.0408594,35.3125 29.609375,35.3125 L29.609375,35.3125 L28.828125,35.3125 L28.828125,38.4375 L33.515625,38.4375 L33.515625,35.3125 L32.734375,35.3125 C32.3028906,35.3125 31.953125,34.9627344 31.953125,34.53125 L31.953125,34.53125 L31.953125,28.59375 Z M38.4375,28.59375 L36.640625,28.59375 L36.640625,34.53125 C36.640625,34.9627344 36.2908594,35.3125 35.859375,35.3125 L35.859375,35.3125 L35.078125,35.3125 L35.078125,38.4375 L37.65625,38.4375 C38.0870313,38.4375 38.4375,38.0870313 38.4375,37.65625 L38.4375,37.65625 L38.4375,28.59375 Z M6.484375,28.59375 L4.921875,28.59375 L4.921875,33.75 L6.484375,33.75 L6.484375,28.59375 Z M12.734375,28.59375 L11.171875,28.59375 L11.171875,33.75 L12.734375,33.75 L12.734375,28.59375 Z M18.984375,28.59375 L17.421875,28.59375 L17.421875,33.75 L18.984375,33.75 L18.984375,28.59375 Z M28.828125,28.59375 L27.265625,28.59375 L27.265625,33.75 L28.828125,33.75 L28.828125,28.59375 Z M35.078125,28.59375 L33.515625,28.59375 L33.515625,33.75 L35.078125,33.75 L35.078125,28.59375 Z M38.4375,23.4375 L1.5625,23.4375 L1.5625,27.03125 L38.4375,27.03125 L38.4375,23.4375 Z M13.75,1.5625 L8.59375,1.5625 C4.71671875,1.5625 1.5625,4.71671875 1.5625,8.59375 L1.5625,8.59375 L1.5625,21.875 L38.4375,21.875 L38.4375,21.09375 C38.4375,18.0782812 35.9842188,15.625 32.96875,15.625 L32.96875,15.625 L27.8125,15.625 C23.9354688,15.625 20.78125,12.4707812 20.78125,8.59375 C20.78125,4.71671875 17.6270313,1.5625 13.75,1.5625 L13.75,1.5625 Z M13.75,3.125 C16.7654688,3.125 19.21875,5.57828125 19.21875,8.59375 C19.21875,9.02523438 18.8689844,9.375 18.4375,9.375 C18.0060156,9.375 17.65625,9.02523438 17.65625,8.59375 C17.65625,6.43984375 15.9039062,4.6875 13.75,4.6875 L13.75,4.6875 L12.1875,4.6875 C11.7560156,4.6875 11.40625,4.33773438 11.40625,3.90625 C11.40625,3.47476563 11.7560156,3.125 12.1875,3.125 L12.1875,3.125 Z M9.0625,3.125 C9.49375,3.125 9.84375,3.475 9.84375,3.90625 C9.84375,4.3375 9.49375,4.6875 9.0625,4.6875 C8.63125,4.6875 8.28125,4.3375 8.28125,3.90625 C8.28125,3.475 8.63125,3.125 9.0625,3.125 Z" id="Combined-Shape" fill="#141E29" fill-rule="nonzero"></path>
        </g>
    </g>
</svg>