<svg xmlns="http://www.w3.org/2000/svg" width="24" height="24" viewBox="0 0 24 24">
    <g fill="none" fill-rule="evenodd">
        <g fill="#4B5C6B">
            <g>
                <g>
                    <path d="M20.99 3.653c-.008-.064-.022-.127-.046-.185v-.005l-.002-.001c-.026-.062-.061-.118-.101-.17l-.03-.035c-.043-.049-.09-.093-.144-.13l-.004-.002c-.053-.035-.11-.06-.17-.081-.016-.006-.03-.01-.046-.014-.063-.018-.128-.03-.197-.03H15c-.414 0-.75.336-.75.75s.336.75.75.75h3.44l-4.477 4.476C12.769 8.022 11.299 7.5 9.75 7.5 6.028 7.5 3 10.528 3 14.25S6.028 21 9.75 21s6.75-3.028 6.75-6.75c0-1.549-.521-3.018-1.477-4.213L19.5 5.561V9c0 .414.336.75.75.75S21 9.414 21 9V3.75c0-.016-.004-.03-.005-.046 0-.017-.003-.034-.005-.05zM9.75 19.5c-2.895 0-5.25-2.355-5.25-5.25S6.855 9 9.75 9c1.402 0 2.721.546 3.714 1.534.99.995 1.536 2.314 1.536 3.716 0 2.895-2.355 5.25-5.25 5.25z" transform="translate(-142 -509) translate(24 493) translate(118 16)"/>
                </g>
            </g>
        </g>
    </g>
</svg>
