<?xml version="1.0" encoding="UTF-8"?>
<svg width="24px" height="24px" viewBox="0 0 24 24" version="1.1" xmlns="http://www.w3.org/2000/svg" xmlns:xlink="http://www.w3.org/1999/xlink">
    <title>iOS / Icon / Instrument / Violin</title>
    <g id="iOS-/-Icon-/-Instrument-/-Violin" stroke="none" stroke-width="1" fill="none" fill-rule="evenodd">
        <polygon id="Path" points="0 0 24 0 24 24 0 24"></polygon>
        <path d="M22.2055781,-2.48689958e-14 C22.3298906,-2.48689958e-14 22.4491406,0.04940625 22.5370313,0.137296875 L22.5370313,0.137296875 L23.8626563,1.462875 C24.0456094,1.64592187 24.0457031,1.94254687 23.8628438,2.12564062 C23.5136719,2.47523437 23.1131719,3.15651562 23.0967656,3.57515625 C23.0799844,4.01221875 22.92,4.39453125 22.6340625,4.68046875 C22.1881406,5.12639062 21.5331563,5.23823437 20.9076094,5.08082812 L20.9076094,5.08082812 L20.6451094,5.34332812 L21.6394219,6.33796875 C21.8224688,6.5210625 21.8224219,6.817875 21.6393281,7.000875 C21.4561875,7.18396875 21.1593281,7.18378125 20.9764219,7.00073437 L20.9764219,7.00073437 L19.9822969,6.00623437 L19.3193906,6.66914062 L20.31375,7.6635 C20.4967969,7.84659375 20.4967969,8.14340625 20.31375,8.32645312 C20.1307031,8.50945312 19.8339375,8.5095 19.6508438,8.32645312 L19.6508438,8.32645312 L18.6564844,7.33209375 L14.7659531,11.2228125 C15.1220156,11.8277812 15.3573281,12.4920469 15.4542188,13.1713125 L15.4542188,13.1713125 L20.7721875,18.4888125 C21.7428281,19.4594531 22.1187656,20.8415156 21.7874531,22.1557969 L21.7874531,22.1557969 L22.2548438,22.6232344 C22.4378906,22.8063281 22.4378906,23.1031406 22.2548438,23.2861875 C22.1633438,23.3776875 22.0433438,23.4234844 21.9233906,23.4234844 C21.8034375,23.4234844 21.6834844,23.3776875 21.5919375,23.2861875 L21.5919375,23.2861875 L14.7405,16.4347031 C14.6985,16.4967656 14.6550469,16.5578437 14.6099531,16.6175625 C14.4998906,16.76325 14.3152969,16.8317812 14.1367969,16.7931562 C13.1337188,16.5764062 11.9566875,17.0701875 11.2077656,18.0224531 C10.4599688,18.9733125 10.326,20.1276562 10.8402656,21.1894687 C10.9117969,21.3371719 10.900875,21.5115469 10.8114375,21.6491719 C10.6176563,21.9474844 10.3917656,22.2263437 10.14,22.4780625 C8.0585625,24.5584219 4.64414063,24.4605469 2.2993125,22.4620781 L2.2993125,22.4620781 L2.2719375,22.4368125 L2.24901563,22.4138906 L1.254375,23.4085312 C1.07128125,23.5915781 0.774515625,23.5915781 0.591421875,23.4085312 C0.408375,23.2254375 0.408375,22.928625 0.591421875,22.7455781 L0.591421875,22.7455781 L1.5860625,21.7509375 L1.5631875,21.7280625 L1.5631875,21.7280625 L1.537875,21.7006406 C-0.48375,19.3287187 -0.535875,15.9188437 1.52184375,13.8600469 C1.77370313,13.6082344 2.0525625,13.3823437 2.35082813,13.1885156 C2.48845313,13.0990781 2.66282813,13.0882031 2.81057813,13.1597344 C3.8724375,13.6741406 5.02696875,13.540125 5.97810938,12.7921875 C6.93004688,12.0436406 7.42382813,10.8665156 7.20679688,9.86320312 C7.16821875,9.68475 7.23670313,9.50015625 7.38234375,9.39009375 C7.44201563,9.34495312 7.50309375,9.3015 7.56520313,9.2595 L7.56520313,9.2595 L1.07470313,2.769 C0.89165625,2.58590625 0.89165625,2.28909375 1.07470313,2.10604687 C1.25784375,1.92304687 1.55460938,1.92309375 1.73765625,2.10604687 L1.73765625,2.10604687 L4.1934375,4.56196875 C5.5078125,4.23075 6.88982813,4.60664062 7.86042188,5.5771875 L7.86042188,5.5771875 L10.8285469,8.54578125 C11.5079531,8.64267187 12.1721719,8.87803125 12.7768594,9.23409375 L12.7768594,9.23409375 L16.667625,5.34332812 L15.6734531,4.34915625 C15.4904063,4.1660625 15.4904063,3.86925 15.6734531,3.68620312 C15.8565469,3.50320312 16.1533594,3.50320312 16.3364063,3.68620312 L16.3364063,3.68620312 L17.3305781,4.68042187 L17.9932969,4.01770312 L16.999125,3.02353125 C16.8160313,2.8404375 16.8160781,2.543625 16.999125,2.36057812 C17.1821719,2.17757812 17.4789844,2.177625 17.6620313,2.36057812 L17.6620313,2.36057812 L18.6562969,3.35489062 L18.9191719,3.091875 C18.7528594,2.43084375 18.895875,1.78940625 19.3194375,1.36589062 C19.6053281,1.07995312 19.9876406,0.919921875 20.4250781,0.9031875 C20.8439531,0.88678125 21.5250469,0.486421875 21.874125,0.137296875 C21.9620156,0.04940625 22.0812656,-2.48689958e-14 22.2055781,-2.48689958e-14 Z M10.5598125,9.45660937 C9.84379688,9.3785625 9.1425,9.49171875 8.53125,9.78384375 C8.40829688,9.84234375 8.28895313,9.90820312 8.17425,9.98090625 C8.3131875,11.2478437 7.69003125,12.6384844 6.55748438,13.5290625 C5.4069375,14.4337969 3.96759375,14.6454375 2.65682813,14.1165 C2.48971875,14.2399219 2.33160938,14.3759531 2.18479688,14.5228125 C0.540140625,16.1682656 0.540234375,18.9807656 2.162625,20.9835937 L2.162625,20.9835937 L3.83545313,18.1951875 C3.90970313,18.0714375 4.036875,17.98875 4.180125,17.971125 C4.32332813,17.9531719 4.46676563,18.0028125 4.56885938,18.1049062 L4.56885938,18.1049062 L5.89495313,19.431 C5.997,19.5330937 6.04635938,19.6764844 6.02873438,19.8197344 C6.0110625,19.9630312 5.92842188,20.0902031 5.804625,20.1644531 L5.804625,20.1644531 L3.01617188,21.8372812 C5.019,23.459625 7.83154688,23.4598594 9.47709375,21.8150156 C9.62390625,21.6682969 9.7599375,21.5101875 9.88335938,21.3430781 C9.35446875,20.0323594 9.56620313,18.5931562 10.4707969,17.4429375 C11.3616094,16.3102031 12.75225,15.686625 14.0189531,15.8257031 C14.0916094,15.711 14.1574219,15.5918437 14.2156875,15.4694062 C14.5082344,14.8573125 14.6213906,14.1559687 14.5432969,13.4401875 C14.4860156,12.9135469 14.3264063,12.3940781 14.0766094,11.9121562 L14.0766094,11.9121562 L11.1984375,14.7904687 C11.1105469,14.8784062 10.9913438,14.9278125 10.8669844,14.9278125 C10.742625,14.9278125 10.623375,14.8784062 10.5354844,14.7905156 L10.5354844,14.7905156 L9.20939063,13.4644219 C9.1215,13.3764844 9.07209375,13.2572812 9.07209375,13.1329687 C9.07209375,13.0086562 9.1215,12.8894531 9.20939063,12.8015156 L9.20939063,12.8015156 L12.0875625,9.92329687 C11.605875,9.6735 11.0864531,9.51389062 10.5598125,9.45660937 Z M15.4637344,14.5066406 C15.4158281,14.8712812 15.325875,15.2259375 15.1951875,15.5635312 L15.1951875,15.5635312 L20.9647969,21.3331875 C20.9982656,20.5304531 20.6984531,19.7409844 20.1092344,19.1517656 L20.1092344,19.1517656 Z M4.3305,19.1923594 L3.61528125,20.384625 L4.8075,19.6693594 L4.3305,19.1923594 Z M9.334125,15.3620156 C9.56409375,15.3226406 9.799125,15.4234687 9.94776562,15.6245625 C10.0467187,15.7584844 10.2445312,16.1342344 9.94448437,16.7296875 C9.61748437,17.3796562 9.31101562,17.62125 9.04064062,17.8344375 C8.92476562,17.9257969 8.81526562,18.0121406 8.70210937,18.1346719 C8.16548437,18.7160625 8.30184375,19.3084219 8.46745312,19.406625 C8.69015625,19.5386719 8.76360937,19.8262031 8.6315625,20.0489062 C8.49975,20.2711875 8.2125,20.3452969 7.98928125,20.2130156 C7.29510937,19.8014062 7.06209375,18.5292187 8.01328125,17.4987656 C8.1766875,17.3218125 8.32729687,17.2030312 8.4601875,17.0982656 C8.69114062,16.9162031 8.87357812,16.7723437 9.10715625,16.3080937 C9.12660937,16.2694687 9.1396875,16.2372656 9.14845312,16.2111094 C9.04720312,16.1419219 8.97309375,16.0333125 8.95082812,15.9028594 C8.90732812,15.6476719 9.0789375,15.4055156 9.334125,15.3620156 Z M5.76229687,17.5748437 C5.94510937,17.3915625 6.24229687,17.3915625 6.42510937,17.5748437 C6.60839062,17.7576562 6.60839062,18.0548437 6.42510937,18.2376562 C6.24229687,18.4209375 5.94510937,18.4209375 5.76229687,18.2376562 C5.57901562,18.0548437 5.57901562,17.7576562 5.76229687,17.5748437 Z M7.25592188,14.0413125 C7.85170313,13.7414063 8.2275,13.9392656 8.36142187,14.0382188 C8.56251562,14.1869063 8.6630625,14.4220313 8.62392187,14.6517656 C8.580375,14.907 8.33826563,15.0788438 8.08303125,15.0350625 C7.95253125,15.0127969 7.84396875,14.9386406 7.77473438,14.8373906 C7.74853125,14.8461094 7.71623437,14.8591875 7.67751562,14.8787344 C7.21340625,15.1124063 7.0695,15.29475 6.88734375,15.5257031 C6.78257813,15.6585 6.66389063,15.8089688 6.48717187,15.9720938 C5.4515625,16.928625 4.18110938,16.6850156 3.772875,15.9966094 C3.64082813,15.7739063 3.71432813,15.486375 3.93698438,15.3543281 C4.15959375,15.222375 4.44721875,15.2957813 4.57926563,15.5184375 C4.67779688,15.6846563 5.27240625,15.817875 5.851125,15.2833125 C5.9735625,15.17025 6.05985938,15.0608438 6.15121875,14.9450625 C6.36440625,14.6747813 6.60604688,14.3684531 7.25592188,14.0413125 Z M19.3462031,3.99084375 L18.3794258,4.95746178 C18.3405334,4.996348 18.3028265,5.03404914 18.2660933,5.07077684 L16.8621277,6.47464363 C16.7441548,6.59261592 16.6150694,6.72170158 16.471564,6.86520777 L16.2922243,7.04454871 C16.1055397,7.23123483 15.8961854,7.44059144 15.6584462,7.67833333 L15.4110337,7.92574865 C15.3252679,8.01151545 15.2361365,8.10064783 15.1434279,8.19335745 L13.4580493,9.87875202 C13.3242768,10.0125255 13.1858687,10.1509345 13.0426134,10.2941907 L11.0773351,12.2594766 C10.7992052,12.5376071 10.5082639,12.8285486 10.2037969,13.1330156 L10.2037969,13.1330156 L10.8669375,13.7961562 L10.8669375,13.7961562 L11.7257414,12.9373576 C11.9085634,12.7545367 12.0861255,12.5769759 12.2586052,12.4044975 L12.7609752,11.9021315 C12.9234679,11.73964 13.0810561,11.5820532 13.2339172,11.4291934 L15.6643598,8.99877503 C15.763277,8.89985876 15.8586222,8.80451451 15.950573,8.71256461 L16.2164197,8.44672025 C16.3017593,8.36138134 16.3838822,8.2792591 16.462966,8.20017582 L17.8684473,6.79468532 C17.9102773,6.75285378 17.9504896,6.71263973 17.989262,6.67386548 L18.1546174,6.50850042 C18.3288782,6.33422739 18.4738021,6.18928641 18.6115984,6.05146686 L19.3616783,5.30120937 C19.3972279,5.26565031 19.4340025,5.22886579 19.47218,5.19067812 L20.0090156,4.65370312 C19.8828281,4.56248437 19.7624531,4.4608125 19.6507969,4.34910937 C19.5390938,4.23740625 19.4374219,4.11703125 19.3462031,3.99084375 L19.3462031,3.99084375 Z M5.21642977,5.38307123 L5.01614063,5.38453125 L8.43632813,8.80476562 C8.77382813,8.67403125 9.12857813,8.584125 9.4933125,8.53617187 L9.4933125,8.53617187 L7.19751563,6.24 C6.60834375,5.65082812 5.81882813,5.35101562 5.01614063,5.38453125 Z M22.1812969,1.10746875 C21.7252969,1.455375 21.0661875,1.81635937 20.4613594,1.83998437 C20.3235,1.84528125 20.1288281,1.8823125 19.9823438,2.02879687 C19.6028906,2.40825 19.8058125,3.17821875 20.31375,3.68625 C20.8127344,4.18523437 21.58425,4.40432812 21.9711563,4.01760937 C22.1176406,3.87107812 22.1546719,3.67640625 22.1599688,3.538875 C22.1836406,2.93432812 22.5447656,2.27503125 22.892625,1.81884375 L22.892625,1.81884375 Z" id="Combined-Shape" fill="#150F2F"></path>
    </g>
</svg>