<svg width="20" height="20" viewBox="0 0 20 20" fill="none" xmlns="http://www.w3.org/2000/svg">
<path fill-rule="evenodd" clip-rule="evenodd" d="M14.161 1.56949C14.1129 1.15504 13.7607 0.833344 13.3333 0.833344C12.8731 0.833344 12.5 1.20644 12.5 1.66668V2.50001H7.49996V1.66668L7.49435 1.56949C7.44622 1.15504 7.09399 0.833344 6.66663 0.833344C6.20639 0.833344 5.83329 1.20644 5.83329 1.66668V2.50001H4.16663C2.78591 2.50001 1.66663 3.6193 1.66663 5.00001V8.33334V16.6667C1.66663 18.0474 2.78591 19.1667 4.16663 19.1667H15.8333C17.214 19.1667 18.3333 18.0474 18.3333 16.6667V8.33334V5.00001C18.3333 3.6193 17.214 2.50001 15.8333 2.50001H14.1666V1.66668L14.161 1.56949ZM16.6666 7.50001V5.00001C16.6666 4.53977 16.2935 4.16668 15.8333 4.16668H14.1666V5.00001C14.1666 5.46025 13.7935 5.83334 13.3333 5.83334C12.9059 5.83334 12.5537 5.51164 12.5056 5.09719L12.5 5.00001V4.16668H7.49996V5.00001C7.49996 5.46025 7.12686 5.83334 6.66663 5.83334C6.23926 5.83334 5.88704 5.51164 5.8389 5.09719L5.83329 5.00001V4.16668H4.16663C3.70639 4.16668 3.33329 4.53977 3.33329 5.00001V7.50001H16.6666ZM3.33329 9.16668H16.6666V16.6667C16.6666 17.1269 16.2935 17.5 15.8333 17.5H4.16663C3.70639 17.5 3.33329 17.1269 3.33329 16.6667V9.16668Z" fill="#392396"/>
</svg>
