<svg xmlns="http://www.w3.org/2000/svg" width="24" height="24" viewBox="0 0 24 24">
    <g fill="none" fill-rule="evenodd">
        <g fill="#4B5C6B">
            <g>
                <g>
                    <path d="M18.261 7.14c-.08-.408-.202-.807-.362-1.192-.16-.386-.357-.755-.59-1.103-.468-.7-1.07-1.302-1.77-1.771-.692-.465-1.47-.789-2.288-.952-.825-.163-1.674-.163-2.5 0-.817.163-1.595.487-2.288.952-.7.468-1.3 1.07-1.77 1.769-.464.693-.788 1.47-.951 2.289-.163.825-.163 1.674 0 2.5.163.817.487 1.595.952 2.288.619.925 1.467 1.673 2.463 2.172.603.309 1.252.519 1.922.622.134.012.234.127.229.261v1.808c0 .14-.113.252-.252.252H8.388c-.18 0-.353.072-.481.2-.257.26-.265.675-.018.944l.013.012c.066.063.144.113.23.146.081.034.169.052.258.053h2.673c.067 0 .131.026.179.073.043.048.067.11.066.174v2.676c0 .09.017.178.05.26.033.086.083.164.147.23.065.063.143.113.229.146.166.068.353.068.52 0 .085-.033.163-.083.228-.147.064-.065.114-.143.147-.228.033-.083.05-.172.05-.261v-2.676c0-.067.026-.13.073-.178.048-.047.112-.074.179-.074h2.67c.09 0 .179-.016.262-.05.085-.033.163-.082.228-.146.064-.066.114-.144.147-.23.068-.166.068-.352 0-.519-.018-.043-.04-.085-.066-.123l-.09-.09c-.128-.127-.3-.198-.48-.199h-2.676c-.067 0-.131-.026-.178-.073-.048-.047-.074-.112-.074-.179v-1.801c0-.06.022-.119.062-.165.04-.045.094-.074.153-.082.68-.096 1.34-.302 1.953-.609 1.382-.69 2.467-1.857 3.057-3.284.16-.385.281-.786.362-1.195.163-.825.163-1.674 0-2.5zm-1.334 2.232v.01c-.561 2.735-3.233 4.498-5.969 3.937-2.735-.561-4.498-3.233-3.937-5.969.561-2.735 3.233-4.498 5.969-3.937 2.361.485 4.053 2.569 4.04 4.98-.002.329-.037.657-.103.98z" transform="translate(-311 -509) translate(193 493) translate(118 16)"/>
                </g>
            </g>
        </g>
    </g>
</svg>
