<?xml version="1.0" encoding="UTF-8"?>
<svg width="32px" height="32px" viewBox="0 0 32 32" version="1.1" xmlns="http://www.w3.org/2000/svg" xmlns:xlink="http://www.w3.org/1999/xlink">
    <title>6CAEB7C2-B55A-4468-8EB4-422ABA6B31CF</title>
    <g id="High-Fidelity" stroke="none" stroke-width="1" fill="none" fill-rule="evenodd">
        <g id="1.0.0-Upcoming-Lessons" transform="translate(-327.000000, -36.000000)">
            <g id="iOS-/-Icon-/-Instrument" transform="translate(327.000000, 36.000000)">
                <path d="M16,0 C7.168,0 0,7.168 0,16 C0,24.832 7.168,32 16,32 C24.832,32 32,24.832 32,16 C32,7.168 24.832,0 16,0 Z" id="Shape" fill="#6558F5"></path>
                <path d="M22,8 C23.1,8 24,8.9 24,10 C24,11.1 23.1,12 22,12 L22,12 L20,12 L20,21.85 C20,23.84 18.61,25.64 16.65,25.95 C13.92,26.38 11.6,24.04 12.06,21.3 C12.3,19.9 13.33,18.71 14.67,18.23 C15.9,17.8 17.06,18.01 18,18.55 L18,18.55 L18,10 C18,8.9 18.9,8 20,8 L20,8 Z M11,8 C11.55,8 12,8.45 12,9 L12,11 L14,11 C14.55,11 15,11.45 15,12 C15,12.55 14.55,13 14,13 L12,13 L12,15 C12,15.55 11.55,16 11,16 C10.45,16 10,15.55 10,15 L10,13 L8,13 C7.45,13 7,12.55 7,12 C7,11.45 7.45,11 8,11 L10,11 L10,9 C10,8.45 10.45,8 11,8 Z" id="Combined-Shape" fill="#FFFFFF"></path>
            </g>
        </g>
    </g>
</svg>