<?xml version="1.0" encoding="UTF-8"?>
<svg width="311px" height="280px" viewBox="0 0 311 280" version="1.1" xmlns="http://www.w3.org/2000/svg" xmlns:xlink="http://www.w3.org/1999/xlink">
    <title>onboard-1</title>
    <g id="High-Fidelity" stroke="none" stroke-width="1" fill="none" fill-rule="evenodd">
        <g id="3.1.0-First-Sign-Up-Screen" transform="translate(-32.000000, -76.000000)" fill-rule="nonzero">
            <g id="Group" transform="translate(32.000000, 76.000000)">
                <g id="freepik--background-simple--inject-40" transform="translate(42.732824, 0.000000)">
                    <path d="M46.7449618,167.683616 C28.7655216,161.925424 12.7881934,149.436158 4.95384224,132.351412 C-5.02506361,110.6 -0.284885496,79.9502825 22.4901272,68.4892655 C32.4532061,63.4666667 43.7220102,61.8689266 54.7217557,60.0180791 C71.3400763,57.2259887 87.910916,53.6903955 103.49257,47.3627119 C118.314529,41.3039548 130.050229,29.700565 142.656412,20.1299435 C153.395013,11.9751412 165.083232,4.56384181 178.203791,1.44745763 C209.105954,-5.88474576 245.753308,17.3457627 259.51486,44.2700565 C274.748321,74.0655367 268.314656,110.528814 242.342595,131.99548 C229.960732,142.174696 214.543236,147.948552 198.51771,148.40791 C178.203791,148.929944 154.067659,138.070056 134.766667,148.40791 C122.421628,155.00452 113.906718,163.096045 100.105598,167.161582 C85.7980153,171.385311 70.5329008,172.785311 55.7900763,170.024859 C52.730245,169.428862 49.7096056,168.646998 46.7449618,167.683616 Z" id="Path" fill="#6558F5"></path>
                    <path d="M46.7449618,167.683616 C28.7655216,161.925424 12.7881934,149.436158 4.95384224,132.351412 C-5.02506361,110.6 -0.284885496,79.9502825 22.4901272,68.4892655 C32.4532061,63.4666667 43.7220102,61.8689266 54.7217557,60.0180791 C71.3400763,57.2259887 87.910916,53.6903955 103.49257,47.3627119 C118.314529,41.3039548 130.050229,29.700565 142.656412,20.1299435 C153.395013,11.9751412 165.083232,4.56384181 178.203791,1.44745763 C209.105954,-5.88474576 245.753308,17.3457627 259.51486,44.2700565 C274.748321,74.0655367 268.314656,110.528814 242.342595,131.99548 C229.960732,142.174696 214.543236,147.948552 198.51771,148.40791 C178.203791,148.929944 154.067659,138.070056 134.766667,148.40791 C122.421628,155.00452 113.906718,163.096045 100.105598,167.161582 C85.7980153,171.385311 70.5329008,172.785311 55.7900763,170.024859 C52.730245,169.428862 49.7096056,168.646998 46.7449618,167.683616 Z" id="Path" fill="#FFFFFF" opacity="0.9"></path>
                </g>
                <g id="freepik--Shadow--inject-40" transform="translate(0.000000, 261.016949)" fill="#F5F5F5">
                    <ellipse id="freepik--path--inject-40" cx="153.521628" cy="9.68135593" rx="153.43458" ry="8.95367232"></ellipse>
                </g>
                <g id="freepik--Notes--inject-40" transform="translate(68.055980, 41.920904)" fill="#6558F5">
                    <path d="M5.34160305,50.7954802 C4.8894778,50.500245 4.35297386,50.3613225 3.81430025,50.4 C3.19756955,50.4422988 2.58984737,50.2341206 2.12872774,49.8225989 L2.06541985,49.6327684 C2.05298174,49.5990856 2.02758294,49.5717737 1.9948813,49.5569166 C1.96217966,49.5420595 1.9248915,49.5408913 1.89132316,49.5536723 C1.81879329,49.569491 1.77057921,49.6383345 1.78053435,49.7118644 L4.15458015,56.9966102 C3.95155914,56.9088099 3.73449389,56.8579184 3.51358779,56.8463277 C2.94796009,56.8249542 2.38493476,56.9331752 1.8675827,57.1627119 C0.704300254,57.6689266 0.023740458,58.5943503 0.348193384,59.219209 C0.67264631,59.8440678 1.5826972,59.9073446 2.57979644,59.6146893 C2.74731189,59.5685419 2.91128201,59.5103875 3.07043257,59.440678 C3.57994172,59.2376901 4.02931431,58.9083118 4.37615776,58.4836158 C4.6550859,58.1997203 4.74177925,57.7788449 4.59773537,57.4079096 L4.59773537,57.4079096 L2.95964377,52.2983051 C3.42341096,52.6161107 3.98156381,52.766738 4.54234097,52.7254237 C5.19204226,52.671688 5.83307354,52.9025769 6.29913486,53.3581921 C6.33341304,53.3779729 6.37564549,53.3779729 6.40992366,53.3581921 L6.40992366,53.3581921 C6.45016325,53.3373374 6.47004692,53.2909649 6.45740458,53.2474576 L5.8797201,51.4440678 C5.78087198,51.1721293 5.59068351,50.9428969 5.34160305,50.7954802 L5.34160305,50.7954802 Z" id="Path"></path>
                    <path d="M224.133664,3.8440678 C223.642586,3.20175674 222.938216,2.75578101 222.147379,2.58644068 C221.238653,2.4041812 220.459988,1.82337322 220.026565,1.00451977 L220.026565,0.696045198 C220.026742,0.640741732 220.003741,0.587891226 219.963141,0.550317414 C219.922541,0.512743601 219.868054,0.493880501 219.812901,0.498305085 C219.692837,0.4926426 219.587482,0.577564177 219.567583,0.696045198 L218.712926,12.8214689 C218.470282,12.5939671 218.181497,12.4213206 217.866183,12.3152542 C217.038581,12.0376817 216.155528,11.9670721 215.2943,12.1096045 C213.300102,12.3864407 211.772799,13.5016949 211.891501,14.6011299 C211.986463,15.5502825 213.268448,16.1830508 214.898626,16.1830508 C215.163541,16.179948 215.427936,16.1588067 215.689975,16.119774 C216.56739,16.0167289 217.40799,15.7077566 218.143155,15.2180791 C218.718798,14.8972599 219.08045,14.294803 219.092774,13.6361582 L219.092774,13.6361582 L219.694198,5.14124294 C220.18163,5.80769353 220.896885,6.27209933 221.704224,6.44632768 C222.661154,6.63953659 223.47073,7.27280752 223.888346,8.15480226 C223.917328,8.20965786 223.977054,8.24107722 224.038702,8.23389831 L224.07827,8.23389831 C224.155498,8.2213156 224.216037,8.1608058 224.228626,8.08361582 L224.434377,5.08587571 C224.488379,4.64917245 224.381487,4.20775358 224.133664,3.8440678 L224.133664,3.8440678 Z" id="Path"></path>
                    <path d="M50.4247328,53.0655367 C51.1730542,53.3471342 51.7292799,53.9863314 51.9045547,54.7661017 C51.9204388,54.8148591 51.9641891,54.8492174 52.0153435,54.8531073 L52.0153435,54.8531073 C52.0800061,54.8530129 52.1373665,54.8116062 52.1577863,54.7502825 L52.6009415,53.1683616 C52.7026131,52.8196654 52.6745015,52.4459644 52.5218066,52.1163842 C52.2422671,51.5188635 51.7436202,51.0516113 51.1290331,50.8112994 C50.4249192,50.5424186 49.8903902,49.9553122 49.6887786,49.2293785 L49.76,48.9762712 C49.7722199,48.9315219 49.7630799,48.88364 49.7352346,48.8465311 C49.7073892,48.8094221 49.6639592,48.7872452 49.6175573,48.7864407 C49.5169212,48.7714662 49.4190149,48.8269192 49.3801527,48.920904 L46.5946056,58.9186441 C46.4393059,58.6995008 46.2364008,58.5183278 46.0010941,58.3887006 C45.3661698,58.0573983 44.6598149,57.8863271 43.9435878,57.8903955 C43.203343,57.8714774 42.4689316,58.0258719 41.7990331,58.3412429 C41.2688219,58.5381938 40.8752466,58.9911795 40.7544529,59.5435028 C40.7437222,60.0751398 41.0567689,60.5601243 41.5458015,60.7694915 C41.9694082,61.0051981 42.4340126,61.1582007 42.9148346,61.220339 C43.1406842,61.2482217 43.3678591,61.2640634 43.5953944,61.2677966 C45.249313,61.2677966 46.665827,60.5559322 46.7607888,59.6384181 L46.7607888,59.6384181 L47.9557252,55.3672316 C48.233099,55.9792089 48.7384928,56.4588137 49.3643257,56.7039548 C50.112647,56.9855523 50.6688728,57.6247495 50.8441476,58.4045198 C50.8570481,58.4520524 50.8979876,58.4866766 50.9470229,58.4915254 L50.9865903,58.4915254 C51.0504941,58.4891602 51.1066952,58.4485904 51.1290331,58.3887006 L51.5642748,56.8067797 C51.6684241,56.4590311 51.6431255,56.0853563 51.4930534,55.7548023 C51.2115289,55.1587234 50.7135554,54.6921022 50.1002799,54.4497175 C49.396166,54.1808366 48.861637,53.5937303 48.6600254,52.8677966 L48.9607379,51.7762712 C49.2637452,52.3789467 49.7884032,52.8409862 50.4247328,53.0655367 Z" id="Path"></path>
                    <path d="M35.1912723,37.6734463 L35.1912723,37.6734463 L34.5581934,31.519774 L34.3287023,29.2259887 L34.3287023,29.0915254 L26.9058524,30.1118644 L26.9058524,30.2384181 L27.1353435,32.5322034 L27.713028,38.1638418 C26.9810097,37.7785247 26.122979,37.7099159 25.3389822,37.9740113 C24.0569975,38.3220339 23.170687,39.1683616 23.3685242,39.8723164 C23.5663613,40.5762712 24.4684987,40.7819209 25.5368193,40.6632768 C25.7157488,40.6377791 25.8928497,40.6007911 26.0670229,40.5525424 C27.3490076,40.2124294 28.2274046,39.3819209 28.0453944,38.6779661 L28.0453944,38.6779661 L27.5072774,33.3943503 L34.3445293,32.4293785 L34.8272519,37.1751412 C34.6401321,37.051067 34.4303867,36.9650599 34.21,36.9220339 C33.6373965,36.8092793 33.0462162,36.8336738 32.4848601,36.9932203 C31.1949618,37.3412429 30.3086514,38.1875706 30.514402,38.8915254 C30.7201527,39.5954802 31.6064631,39.7932203 32.6826972,39.6824859 C32.8699883,39.6493419 33.0550031,39.6044318 33.2366412,39.5480226 C34.486972,39.2079096 35.365369,38.3694915 35.1912723,37.6734463 Z M27.4993639,33.1016949 L27.436056,32.4926554 L34.2574809,31.559322 L34.3207888,32.1762712 L27.4993639,33.1016949 Z" id="Shape"></path>
                    <path d="M202.33201,16.9107345 L202.33201,16.9107345 L198.85799,11.120904 L197.560178,8.95367232 L197.488957,8.83502825 L190.271858,12.299435 L190.343079,12.4180791 L191.640891,14.5853107 L194.806285,19.8847458 C193.923532,19.747406 193.022195,19.9633935 192.29771,20.4858757 C191.118601,21.2768362 190.59631,22.3683616 191.126514,22.9853107 C191.656718,23.6022599 192.709211,23.5073446 193.714224,22.9853107 C193.886319,22.9011319 194.052843,22.806022 194.212774,22.700565 C195.376056,21.9491525 195.90626,20.8338983 195.399796,20.2169492 L195.399796,20.2169492 L191.925776,14.419209 L198.557277,11.2553672 L201.722672,16.5548023 C200.837305,16.4144245 199.932369,16.6305924 199.206183,17.1559322 C198.696314,17.4650426 198.278317,17.9046801 197.99542,18.4293785 C197.75133,18.8072495 197.770316,19.2974868 198.042901,19.6553672 C198.397671,19.9967441 198.897835,20.1416909 199.38028,20.0429379 C199.812355,19.9943907 200.232728,19.8712846 200.622697,19.679096 C200.798949,19.5980357 200.968327,19.5028077 201.12916,19.3943503 C202.30827,18.6350282 202.838473,17.5276836 202.33201,16.9107345 Z" id="Path"></path>
                </g>
                <g id="freepik--character-2--inject-40" transform="translate(190.715013, 40.338983)">
                    <path d="M12.3766921,8.85084746 C8.50699746,10.7333333 7.96888041,16.6180791 8.78396947,22.0677966 C9.59905852,27.5175141 1.66183206,27.9367232 0.166183206,25.0418079 C1.45608142,30.5785311 8.55447837,34.4621469 13.1522137,33.3706215 C9.59905852,34.7548023 3.19704835,33.8135593 3.19704835,33.8135593 C6.91509187,35.6505578 10.9181449,36.843396 15.0356234,37.3412429 C20.7887277,37.8711864 33.671883,34.9050847 35.4603308,29.4949153 C35.6187643,31.1439934 35.3995631,32.8074829 34.8193384,34.359322 C38.3819949,32.3433342 40.1821331,28.2160104 39.2350636,24.2350282 C41.6724173,27.2169492 41.6091094,28.2531073 41.6091094,28.2531073 C41.6091094,28.2531073 43.3500763,17.8361582 39.0767939,11.5322034 C42.3529771,14.9016949 42.8515267,16.0248588 42.8515267,16.0248588 C42.8515267,16.0248588 43.3025954,3.98644068 31.8755216,2.98983051 C29.0424936,-1.27344633 14.6557761,-1.37627119 8.88684478,10.3378531 C9.92111008,9.58206608 11.1149801,9.07336431 12.3766921,8.85084746 Z" id="Path" fill="#263238"></path>
                    <polygon id="Path" fill="#FFC3BD" points="9.44870229 181.216949 13.0018575 187.180791 28.9317048 177.681356 25.3785496 171.709605"></polygon>
                    <path d="M17.1010433,185.361582 L13.286743,178.511864 C13.1540258,178.265945 12.8587822,178.157403 12.5982697,178.258757 L6.74229008,180.497175 C6.44913294,180.622545 6.22306724,180.866496 6.12042405,181.16824 C6.01778086,181.469984 6.04822596,181.801105 6.20417303,182.079096 C7.57320611,184.451977 8.35664122,185.511864 10.0343003,188.525424 C11.0709669,190.376271 13.0809924,194.623729 14.5133333,197.186441 C15.9456743,199.749153 18.5412977,198.467797 18.1772774,197.273446 C16.5391858,191.926554 16.8398982,188.944633 17.2988804,186.587571 C17.3788453,186.168364 17.308817,185.734402 17.1010433,185.361582 Z" id="Path" fill="#263238"></path>
                    <polygon id="Path" fill="#000000" opacity="0.2" points="25.3785496 171.709605 28.9317048 177.681356 21.7225191 181.976271 18.1931043 176.00452"></polygon>
                    <path d="M50.7570992,78.8745763 C50.7570992,78.8745763 84.2232316,136.19548 75.8191094,145.568362 C61.092112,161.99661 27.3964885,180.694915 27.3964885,180.694915 L20.6067176,173.576271 C20.6067176,173.576271 48.7075064,147.079096 59.2561832,136.40113 C55.0382952,123.571751 30.8467684,109.619209 28.8446565,82.1412429 L50.7570992,78.8745763 Z" id="Path" fill="#6558F5"></path>
                    <polygon id="Path" fill="#263238" points="24.9987023 183.629379 19.0240204 173.149153 22.8541476 170.19096 29.1374555 181.509605"></polygon>
                    <path d="M19.4434351,189.672316 C19.3544065,189.687667 19.2634052,189.687667 19.1743766,189.672316 C18.3038931,189.59322 17.4096692,188.232768 16.9586005,187.433898 C16.9279792,187.388479 16.9279792,187.329035 16.9586005,187.283616 C16.9913177,187.239107 17.0468371,187.217527 17.1010433,187.228249 C17.3780153,187.299435 19.8074555,187.924294 20.0844275,188.754802 C20.1423144,188.938682 20.1003487,189.139419 19.9736387,189.284746 C19.8466982,189.47098 19.6594677,189.607842 19.4434351,189.672316 L19.4434351,189.672316 Z M17.3621883,187.60791 C18.0269211,188.707345 18.6995674,189.379661 19.198117,189.419209 C19.4247915,189.430413 19.6408508,189.322436 19.767888,189.134463 C19.8386151,189.064246 19.8631772,188.959909 19.8311959,188.865537 C19.6650127,188.359322 18.2010178,187.845198 17.3621883,187.60791 Z" id="Shape" fill="#6558F5"></path>
                    <path d="M19.2693384,187.497175 C18.5352164,187.667379 17.7718574,187.667379 17.0377354,187.497175 C16.9902504,187.481886 16.9542284,187.442882 16.9427735,187.39435 C16.9247479,187.35134 16.9247479,187.302898 16.9427735,187.259887 C17.0060814,187.20452 18.4779898,185.859887 19.4750891,185.962712 C19.7242163,185.975006 19.9529632,186.10398 20.092341,186.310734 C20.2671129,186.501717 20.2836391,186.789132 20.1319084,186.99887 C19.9055506,187.253451 19.6030335,187.428214 19.2693384,187.497175 Z M17.3701018,187.315254 C18.1614504,187.449718 19.6333588,187.315254 19.9498982,186.864407 C20.0052926,186.79322 20.0448601,186.682486 19.9498982,186.492655 C19.8544697,186.352834 19.6995377,186.26518 19.5304835,186.255367 C18.8103562,186.184181 17.79743,186.959322 17.4096692,187.315254 L17.3701018,187.315254 Z" id="Shape" fill="#6558F5"></path>
                    <path d="M55.8138168,44.3887006 C56.810916,47.5050847 57.9583715,50.7717514 59.2007888,53.880226 C59.8180407,55.4621469 60.490687,56.9649718 61.1949873,58.4282486 C61.8797068,59.8648982 62.6541182,61.2570982 63.5136387,62.5966102 L64.0280153,63.3875706 C64.0845953,63.480979 64.1568771,63.5639286 64.2416794,63.6327684 C64.5041869,63.8302824 64.8231694,63.9384061 65.1517303,63.9412429 C66.4870847,63.9428561 67.8088971,63.6737799 69.0372519,63.1502825 C72.0792862,61.8714797 74.9805626,60.2810666 77.6946056,58.4045198 L80.0686514,61.0621469 C77.5510338,63.8381894 74.6138057,66.2028326 71.3638168,68.0700565 C69.4813301,69.1733891 67.3742526,69.8384556 65.1992112,70.0158192 C63.767143,70.1033789 62.3384524,69.7969903 61.0683715,69.1299435 C60.3926621,68.7637606 59.7785164,68.2940361 59.2482697,67.7378531 C59.1137405,67.6033898 59.0029517,67.4689266 58.8763359,67.3265537 C58.7497201,67.1841808 58.7101527,67.120904 58.6310178,67.0101695 L58.1720356,66.4248588 C57.0073824,64.908248 55.9673268,63.2999945 55.0620356,61.6158192 C54.1440712,59.9864407 53.3448092,58.3333333 52.608855,56.6644068 C51.8729008,54.9954802 51.1844275,53.3107345 50.5750891,51.6101695 C49.9657506,49.9096045 49.3880662,48.2248588 48.8895165,46.3898305 L55.8138168,44.3887006 Z" id="Path" fill="#FFC3BD"></path>
                    <path d="M50.1081934,37.3096045 C57.8317557,40.7186441 59.8496947,50.1706215 59.8496947,50.1706215 L48.8736896,55.7785311 C48.8736896,55.7785311 43.0097964,47.1966102 43.6191349,43.3920904 C44.2601272,39.4135593 45.7636896,35.3875706 50.1081934,37.3096045 Z" id="Path" fill="#263238"></path>
                    <path d="M76.2306107,59.3694915 L80.5118066,54.8372881 L83.0916031,61.6949153 C83.0916031,61.6949153 79.4355725,63.8067797 75.8191094,62.019209 L76.2306107,59.3694915 Z" id="Path" fill="#FFC3BD"></path>
                    <polygon id="Path" fill="#FFC3BD" points="86.5893639 53.9751412 87.5548092 59.3932203 83.0836896 61.6553672 80.5118066 54.8372881"></polygon>
                    <polygon id="Path" fill="#FFC3BD" points="33.624402 227.155932 40.5724427 226.942373 39.9868448 208.410169 33.0388041 208.615819"></polygon>
                    <path d="M40.968117,222.473446 L33.1258524,222.473446 C32.8453423,222.466575 32.6039956,222.67043 32.5639949,222.948023 L31.653944,229.164972 C31.6201587,229.482813 31.7234596,229.799987 31.9379695,230.03704 C32.1524793,230.274093 32.457877,230.408568 32.777659,230.40678 C35.5078117,230.351412 36.8293639,230.19322 40.2796438,230.185311 C42.400458,230.185311 47.0931552,230.477966 50.021145,230.477966 C52.9491349,230.477966 53.0994911,227.575141 51.8808142,227.314124 C46.4046819,226.151412 43.9673282,224.442938 42.0997455,222.900565 C41.7836185,222.631142 41.3835102,222.480127 40.968117,222.473446 L40.968117,222.473446 Z" id="Path" fill="#263238"></path>
                    <polygon id="Path" fill="#000000" opacity="0.2" points="33.0388041 208.615819 39.9868448 208.410169 40.2479898 216.786441 33.3078626 216.984181"></polygon>
                    <path d="M47.9082443,36.819209 C47.9082443,36.819209 51.1686005,37.3966102 50.7570992,78.8745763 L22.7354453,83.1457627 C21.4692875,71.6689266 20.4088804,64.6372881 11.3875064,42.079096 C15.1855826,40.6691042 19.0814243,39.5376701 23.0440712,38.6937853 C27.2345282,37.7479524 31.4868254,37.1003767 35.7689567,36.7559322 C39.8138655,36.5724565 43.8654701,36.5935757 47.9082443,36.819209 Z" id="Path" fill="#263238"></path>
                    <path d="M22.1577608,24.179661 C23.5821883,28.1344633 25.5289059,35.5299435 23.0757252,38.6937853 C26.6931082,40.7151513 30.5583431,42.2572963 34.5740204,43.2813559 C38.5307634,38.8361582 35.8006107,36.7559322 35.8006107,36.7559322 C31.0525191,36.360452 30.6726718,32.959322 30.9812977,29.6372881 L22.1577608,24.179661 Z" id="Path" fill="#FFC3BD"></path>
                    <path d="M25.726743,26.4180791 L30.9496438,29.6531073 C30.8629191,30.4225336 30.8470254,31.1982916 30.9021628,31.9706215 C29.6597455,33.3943503 25.3627226,33.3548023 24.8720865,31.5514124 C24.6425954,30.6576271 25.6396947,26.8926554 25.726743,26.4180791 Z" id="Path" fill="#000000" opacity="0.2"></path>
                    <path d="M32.7301781,13.3039548 C34.3128753,20.0429379 35.1437913,22.8587571 32.8330534,27.2644068 C29.3511196,33.8926554 20.7175064,34.3830508 17.1406107,28.2610169 C13.9198219,22.7242938 11.8464885,12.6553672 17.5283715,8.05988701 C20.0732145,6.01343947 23.4916881,5.41781458 26.579207,6.48289578 C29.666726,7.54797698 31.9899294,10.1242707 32.7301781,13.3039548 Z" id="Path" fill="#FFC3BD"></path>
                    <path d="M30.1741221,6.10621469 C33.0150636,10.0610169 17.4017557,18.0497175 11.9256234,19.2361582 C10.9601781,12.6237288 13.4054453,6.58079096 17.829084,4.78531073 C22.2527226,2.98983051 28.2432316,3.44067797 30.1741221,6.10621469 Z" id="Path" fill="#263238"></path>
                    <path d="M25.5605598,8.70056497 C24.4368448,14.8384181 36.0221883,17.9943503 36.2358524,25.579661 C38.3329262,21.1977401 38.9026972,10.8361582 35.8797455,8.5819209 C32.8567939,6.32768362 26.3519084,4.34237288 25.5605598,8.70056497 Z" id="Path" fill="#263238"></path>
                    <path d="M36.4020356,17.7570621 C36.4030717,19.0963092 35.8739225,20.3815679 34.9301272,21.3322034 C33.671883,22.5819209 32.1762341,21.6564972 31.8043003,20.019209 C31.4719338,18.540113 31.7330789,16.1118644 33.3395165,15.479096 C34.0620796,15.2130664 34.870183,15.3297073 35.4879227,15.7891951 C36.1056624,16.2486829 36.4494977,16.9888781 36.4020356,17.7570621 L36.4020356,17.7570621 Z" id="Path" fill="#FFC3BD"></path>
                    <path d="M35.4761578,21.7909605 C35.394097,22.1508537 35.0738953,22.4061656 34.7045929,22.4061656 C34.3352904,22.4061656 34.0150888,22.1508537 33.933028,21.7909605 C33.860722,21.4738486 33.990001,21.1448217 34.258881,20.9616349 C34.527761,20.778448 34.8814248,20.778448 35.1503048,20.9616349 C35.4191847,21.1448217 35.5484638,21.4738486 35.4761578,21.7909605 Z" id="Path" fill="#6558F5"></path>
                    <path d="M55.6555471,101.416949 L37.3595674,101.155932 C38.150916,103.99548 38.9818321,107.048588 39.7890076,110.244068 C42.3608906,113.819209 45.0989567,117.085876 47.7024936,120.123164 C48.8895165,109.152542 57.6813995,106.937853 55.6555471,101.416949 Z" id="Path" fill="#000000" opacity="0.2"></path>
                    <path d="M37.3674809,157.662147 C38.1588295,162.645198 38.9501781,168.015819 39.5595165,173.481356 L40.7544529,172.729944 C41.9652163,171.938983 43.2234606,171.148023 44.5133588,170.357062 C45.2516553,164.010371 45.0998336,157.591733 44.0622901,151.287006 L37.3674809,157.662147 Z" id="Path" fill="#000000" opacity="0.2"></path>
                    <path d="M44.6558015,79.8870056 C44.6558015,79.8870056 42.970229,122.337853 42.9781425,149.649718 C42.9781425,171.709605 41.9019084,212.301695 41.9019084,212.301695 L32.1524936,213.654237 C32.1524936,213.654237 25.2281934,170.103955 25.9087532,155.123164 C27.5943257,118.351412 15.6687023,97.0271186 22.7433588,83.1457627 L44.6558015,79.8870056 Z" id="Path" fill="#6558F5"></path>
                    <polygon id="Path" fill="#263238" points="43.278855 214.729944 31.2107888 214.872316 30.4906616 210.087006 43.4371247 210.087006"></polygon>
                    <path d="M22.062799,81.5638418 L21.184402,84.2610169 C21.1131807,84.4745763 21.3743257,84.640678 21.6987786,84.5853107 L51.0894656,80.1084746 C51.3426972,80.0689266 51.5326209,79.9107345 51.5249459,79.7525424 L51.3980916,77.2056497 C51.3980916,77.0316384 51.1448601,76.9129944 50.867888,76.960452 L22.4901272,81.2870056 C22.3097688,81.3003985 22.1486807,81.4047563 22.062799,81.5638418 L22.062799,81.5638418 Z" id="Path" fill="#6558F5"></path>
                    <path d="M22.062799,81.5638418 L21.184402,84.2610169 C21.1131807,84.4745763 21.3743257,84.640678 21.6987786,84.5853107 L51.0894656,80.1084746 C51.3426972,80.0689266 51.5326209,79.9107345 51.5249459,79.7525424 L51.3980916,77.2056497 C51.3980916,77.0316384 51.1448601,76.9129944 50.867888,76.960452 L22.4901272,81.2870056 C22.3097688,81.3003985 22.1486807,81.4047563 22.062799,81.5638418 L22.062799,81.5638418 Z" id="Path" fill="#000000" opacity="0.3"></path>
                    <path d="M26.3598219,84.1581921 L25.5684733,84.2689266 C25.418117,84.2689266 25.2915013,84.2689266 25.2835878,84.1344633 L25.1490585,80.8282486 C25.1490585,80.7254237 25.2598473,80.6305085 25.4102036,80.6067797 L26.2015522,80.4881356 C26.3598219,80.4881356 26.4864377,80.5276836 26.4864377,80.6225989 L26.6288804,83.9367232 C26.6367939,84.0316384 26.5101781,84.1344633 26.3598219,84.1581921 Z" id="Path" fill="#6558F5"></path>
                    <path d="M48.9923919,80.6779661 L48.2010433,80.7966102 C48.050687,80.7966102 47.9240712,80.7570621 47.9240712,80.6621469 L47.7816285,77.3480226 C47.7816285,77.2531073 47.9003308,77.1581921 48.050687,77.1344633 L48.8420356,77.0158192 C48.9923919,77.0158192 49.1190076,77.0158192 49.1269211,77.1502825 L49.2614504,80.4644068 C49.2693639,80.5830508 49.1506616,80.6779661 48.9923919,80.6779661 Z" id="Path" fill="#6558F5"></path>
                    <path d="M37.6761069,82.4259887 L36.8847583,82.5446328 C36.734402,82.5446328 36.6077863,82.5050847 36.6077863,82.4101695 L36.4653435,79.0960452 C36.4653435,79.0011299 36.5761323,78.9062147 36.734402,78.8824859 L37.5257506,78.7638418 C37.6761069,78.7638418 37.8027226,78.7638418 37.8027226,78.8983051 L37.9451654,82.2124294 C37.9847328,82.3073446 37.8264631,82.4101695 37.6761069,82.4259887 Z" id="Path" fill="#6558F5"></path>
                    <path d="M22.600916,18.4214689 C22.7591858,18.959322 22.600916,19.4813559 22.2527226,19.5920904 C21.9045293,19.7028249 21.461374,19.3468927 21.3189313,18.8011299 C21.1764885,18.2553672 21.3189313,17.7412429 21.6671247,17.6305085 C22.0153181,17.519774 22.4347328,17.8836158 22.600916,18.4214689 Z" id="Path" fill="#263238"></path>
                    <path d="M16.5075318,20.2644068 C16.673715,20.8022599 16.5075318,21.3242938 16.1672519,21.4350282 C15.826972,21.5457627 15.3759033,21.1898305 15.2334606,20.6440678 C15.0910178,20.0983051 15.2334606,19.5841808 15.5737405,19.4734463 C15.9140204,19.3627119 16.3413486,19.7265537 16.5075318,20.2644068 Z" id="Path" fill="#263238"></path>
                    <path d="M15.7399237,19.4655367 L14.3313232,19.4655367 C14.3313232,19.4655367 15.3046819,20.2960452 15.7399237,19.4655367 Z" id="Path" fill="#263238"></path>
                    <path d="M19.0477608,20.4779661 C18.9515386,21.8575675 18.6666412,23.2174849 18.2010178,24.519774 C18.8762557,24.7452074 19.6163514,24.6642991 20.2268702,24.2983051 L19.0477608,20.4779661 Z" id="Path" fill="#ED847E"></path>
                    <path d="M23.6929771,25.3977401 C24.7265008,24.8661001 25.5187527,23.9611134 25.9087532,22.8666667 C25.9184253,22.832047 25.9138271,22.7949979 25.8959851,22.7637897 C25.878143,22.7325814 25.8485426,22.7098123 25.8137913,22.700565 C25.780248,22.6882586 25.7430638,22.6906913 25.7114115,22.7072629 C25.6797593,22.7238345 25.656586,22.7530022 25.6476081,22.7875706 C25.1394866,24.1257867 24.0267837,25.1440413 22.6483969,25.5322034 C22.6017479,25.5463325 22.5661839,25.5842632 22.5551015,25.6317072 C22.5440192,25.6791513 22.5591022,25.7289008 22.594669,25.7622157 C22.6302357,25.7955306 22.6808827,25.8073495 22.7275318,25.7932203 C23.0607562,25.6911425 23.3839222,25.5587624 23.6929771,25.3977401 Z" id="Path" fill="#263238"></path>
                    <path d="M24.9037405,14.7751412 C24.9494958,14.7517986 24.9878545,14.7161972 25.0145293,14.6723164 C25.0931314,14.5412558 25.0506281,14.3713259 24.9195674,14.2926554 C24.0305834,13.739169 22.9300583,13.6450526 21.9599237,14.039548 C21.8263728,14.1067811 21.7703277,14.2678316 21.8333079,14.4033898 C21.9008879,14.5409419 22.0652619,14.6003671 22.2052417,14.5378531 C23.0042203,14.2150918 23.9103041,14.3006408 24.6346819,14.7672316 C24.7177682,14.8133588 24.8180855,14.8163079 24.9037405,14.7751412 Z" id="Path" fill="#263238"></path>
                    <path d="M13.5083206,18.3186441 C13.549787,18.2957861 13.5850878,18.2632167 13.6111959,18.2237288 C14.0570456,17.4893085 14.8279606,17.0128697 15.6845293,16.9423729 C15.8374967,16.9423729 15.9615013,16.8184291 15.9615013,16.6655367 C15.9615013,16.5126443 15.8374967,16.3887006 15.6845293,16.3887006 C14.6408497,16.4576965 13.6960997,17.0301703 13.1522137,17.9231638 C13.1108786,17.983566 13.0959561,18.0581967 13.1108888,18.1298387 C13.1258216,18.2014806 13.1693198,18.2639463 13.2313486,18.3028249 C13.3123135,18.3626723 13.421062,18.3688835 13.5083206,18.3186441 Z" id="Path" fill="#263238"></path>
                    <path d="M56.1857506,103.307345 C57.9417718,102.495807 59.5683676,101.42971 61.0129771,100.143503 C69.2350891,92.8666667 67.6682188,81.9039548 60.1504071,73.9073446 C52.9174809,66.2112994 42.970229,63.719774 35.0013486,70.7435028 C33.5501387,72.0258708 32.2967829,73.515833 31.2820102,75.1649718 C29.0782577,78.8311615 25.4075416,81.3769397 21.200229,82.1570621 C16.3357639,83.0334662 11.8687313,85.412502 8.4278626,88.959322 C0.300712468,97.2960452 2.69058524,107.768362 9.79689567,116.99096 C18.2405852,127.969492 30.8784224,132.153672 41.0789059,123.128814 C44.3456734,120.249446 46.7483073,116.519933 48.0190331,112.355932 C49.3211595,108.311084 52.2939909,105.017236 56.1857506,103.307345 L56.1857506,103.307345 Z" id="Path" fill="#6558F5"></path>
                    <path d="M56.1857506,103.307345 C57.9417718,102.495807 59.5683676,101.42971 61.0129771,100.143503 C69.2350891,92.8666667 67.6682188,81.9039548 60.1504071,73.9073446 C52.9174809,66.2112994 42.970229,63.719774 35.0013486,70.7435028 C33.5501387,72.0258708 32.2967829,73.515833 31.2820102,75.1649718 C29.0782577,78.8311615 25.4075416,81.3769397 21.200229,82.1570621 C16.3357639,83.0334662 11.8687313,85.412502 8.4278626,88.959322 C0.300712468,97.2960452 2.69058524,107.768362 9.79689567,116.99096 C18.2405852,127.969492 30.8784224,132.153672 41.0789059,123.128814 C44.3456734,120.249446 46.7483073,116.519933 48.0190331,112.355932 C49.3211595,108.311084 52.2939909,105.017236 56.1857506,103.307345 L56.1857506,103.307345 Z" id="Path" fill="#FFFFFF" opacity="0.7"></path>
                    <polygon id="Rectangle" fill="#6558F5" transform="translate(63.216479, 71.971034) rotate(48.500000) translate(-63.216479, -71.971034) " points="59.3989968 40.6096621 67.0492324 40.6077993 67.0339609 103.332405 59.3837253 103.334268"></polygon>
                    <polygon id="Rectangle" fill="#FFFFFF" opacity="0.3" transform="translate(63.216479, 71.971034) rotate(48.500000) translate(-63.216479, -71.971034) " points="59.3989968 40.6096621 67.0492324 40.6077993 67.0339609 103.332405 59.3837253 103.334268"></polygon>
                    <path d="M46.9744529,96.3627119 C44.7017941,98.3724042 41.4416733,98.8157679 38.7144211,97.486044 C35.9871689,96.15632 34.329933,93.315405 34.5155517,90.2881364 C34.7011704,87.2608678 36.6930851,84.6434832 39.5623828,83.6565784 C42.4316804,82.6696736 45.6132366,83.5076251 47.6233588,85.779661 C50.3675123,88.8813708 50.077013,93.6191451 46.9744529,96.3627119 L46.9744529,96.3627119 Z" id="Path" fill="#263238"></path>
                    <path d="M83.6692875,57.0282486 L80.5592875,53.5242938 C79.5685303,52.3894406 79.6743213,50.6694183 80.7966921,49.6644068 L86.818855,44.3412429 C88.9195828,42.493088 92.1192134,42.6874453 93.9805598,44.7762712 L93.9805598,44.7762712 C95.8032164,46.8703237 95.6095243,50.0382767 93.5453181,51.8949153 L87.5231552,57.2259887 C86.4024461,58.2298274 84.6812623,58.1415143 83.6692875,57.0282486 Z" id="Path" fill="#6558F5"></path>
                    <path d="M32.0575318,106.890395 L24.7612977,98.6564972 C24.5554747,98.4237104 24.4506697,98.1186967 24.4699654,97.8086333 C24.4892611,97.49857 24.6310748,97.2088886 24.864173,97.0033898 L24.864173,97.0033898 C25.3486004,96.5773953 26.0856289,96.6196919 26.5180916,97.0983051 L33.8064122,105.340113 C34.0132,105.571889 34.1193729,105.876293 34.101563,106.18633 C34.0837532,106.496366 33.9434202,106.786624 33.7114504,106.99322 L33.7114504,106.99322 C33.4785494,107.198942 33.173386,107.303696 32.8631705,107.28441 C32.552955,107.265124 32.2631315,107.123379 32.0575318,106.890395 Z" id="Path" fill="#6558F5" opacity="0.3"></path>
                    <path d="M28.8288295,101.685876 C28.7732074,101.684151 28.7211406,101.65813 28.6863868,101.614689 C28.6109825,101.537799 28.6109825,101.414743 28.6863868,101.337853 L89.9051145,47.1966102 C89.9553481,47.1384901 90.0347084,47.114701 90.1086514,47.1355978 C90.1825944,47.1564946 90.2377423,47.2182968 90.2500902,47.2941028 C90.262438,47.3699089 90.2297519,47.4460041 90.1662595,47.4892655 L28.9633588,101.638418 C28.9252799,101.669175 28.8777881,101.685876 28.8288295,101.685876 L28.8288295,101.685876 Z" id="Path" fill="#FFFFFF"></path>
                    <path d="M27.9266921,100.657823 C27.8696011,100.66022 27.8143769,100.636979 27.7763359,100.59435 C27.7380832,100.558467 27.7163838,100.508367 27.7163838,100.455932 C27.7163838,100.403497 27.7380832,100.353397 27.7763359,100.317514 L82.4743511,51.9344633 C82.510252,51.8962293 82.5603763,51.8745406 82.6128372,51.8745406 C82.665298,51.8745406 82.7154223,51.8962293 82.7513232,51.9344633 C82.8267274,52.0113532 82.8267274,52.1344095 82.7513232,52.2112994 L28.0612214,100.610169 C28.0231425,100.640927 27.9756507,100.657823 27.9266921,100.657823 L27.9266921,100.657823 Z" id="Path" fill="#FFFFFF"></path>
                    <path d="M29.7388804,102.706215 C29.682361,102.70583 29.6282967,102.683077 29.5885242,102.642938 C29.5121502,102.563371 29.5121502,102.437759 29.5885242,102.358192 L90.8309924,48.2485876 C90.9130827,48.1926542 91.023944,48.2062481 91.0900729,48.2803562 C91.1562017,48.3544644 91.1570852,48.4660986 91.0921374,48.5412429 L29.8654962,102.690395 C29.8265836,102.711164 29.7816127,102.716386 29.7388804,102.706215 Z" id="Path" fill="#FFFFFF"></path>
                    <path d="M30.6410178,103.726738 C30.5862142,103.729072 30.533429,103.705623 30.4985751,103.663277 C30.4580275,103.628713 30.4346722,103.578124 30.4346722,103.524859 C30.4346722,103.471594 30.4580275,103.421005 30.4985751,103.386441 L85.1965903,55.0033898 C85.273518,54.9280226 85.3966346,54.9280226 85.4735623,55.0033898 C85.5122498,55.0406605 85.5341056,55.0920565 85.5341056,55.1457627 C85.5341056,55.1994689 85.5122498,55.2508649 85.4735623,55.2881356 L30.7755471,103.663277 C30.7397291,103.699786 30.6919939,103.722239 30.6410178,103.726738 Z" id="Path" fill="#FFFFFF"></path>
                    <path d="M17.6470738,51.3649718 C16.9427735,53.5717514 16.1989059,55.8497175 15.5183461,58.0960452 C14.8377863,60.3423729 14.1413995,62.6124294 13.5558015,64.8587571 C12.9702036,67.1050847 12.424173,69.3672316 12.0522392,71.5107345 C11.9572774,72.0564972 11.9177099,72.5548023 11.8464885,73.0926554 C11.8071279,73.4554337 11.8071279,73.8214025 11.8464885,74.1841808 C11.9802679,75.0303004 12.2473638,75.8498824 12.6378372,76.6124294 C13.6410805,78.4542429 14.9132931,80.1363654 16.41257,81.6033898 C18.0259594,83.2118273 19.7386302,84.7176044 21.5405089,86.1118644 C23.3606107,87.5435028 25.2915013,88.880226 27.2619593,90.1694915 C29.2324173,91.4587571 31.2661832,92.7084746 33.2682952,93.8553672 L31.7726463,97.0983051 C27.1630013,95.2677768 22.7379178,93.0033512 18.5571247,90.3355932 C16.4031764,88.9811208 14.3603407,87.4576801 12.4479135,85.779661 C10.3717175,84.0095936 8.59241063,81.9187318 7.17753181,79.5864407 C6.3803743,78.2497332 5.81829544,76.7863697 5.51569975,75.259887 C5.36057658,74.4335975 5.29688547,73.5927567 5.32577608,72.7525424 C5.36534351,72.080226 5.38117048,71.3762712 5.45239186,70.7276836 C5.71412157,68.1996522 6.13169216,65.6901744 6.70272265,63.2135593 C7.80542003,58.412479 9.18735117,53.6797717 10.8414758,49.039548 L17.6470738,51.3649718 Z" id="Path" fill="#FFC3BD"></path>
                    <path d="M31.1237405,93.5785311 L37.3595674,93.5785311 L34.6452417,99.1152542 C34.6452417,99.1152542 30.5856234,98.5299435 29.422341,95.880226 L31.1237405,93.5785311 Z" id="Path" fill="#FFC3BD"></path>
                    <polygon id="Path" fill="#FFC3BD" points="40.1134606 95.5638418 36.8135369 99.9774011 34.6452417 99.1073446 37.3595674 93.6022599"></polygon>
                    <path d="M11.3875064,42.079096 C8.16671756,43.4870056 5.78475827,54.2757062 5.78475827,54.2757062 L18.4463359,60.7774011 C18.4463359,60.7774011 21.1131807,50.8983051 19.6966667,46.6033898 C18.4621628,42.9570621 15.4866921,40.2836158 11.3875064,42.079096 Z" id="Path" fill="#263238"></path>
                    <path d="M44.8378117,223.050847 C44.7911698,223.130599 44.7324402,223.202641 44.663715,223.264407 C44.0227226,223.857627 42.416285,223.588701 41.4983206,223.383051 C41.4445583,223.370711 41.4037804,223.326818 41.3954453,223.272316 C41.3799402,223.217815 41.4025692,223.159655 41.4508397,223.129944 C41.6882443,222.971751 43.8248855,221.611299 44.6162341,221.967232 C44.7931395,222.047996 44.9137119,222.216715 44.9327735,222.410169 C44.9698669,222.628391 44.9366124,222.852749 44.8378117,223.050847 Z M41.9098219,223.185311 C43.1680662,223.438418 44.1176845,223.39887 44.4817048,223.066667 C44.6430698,222.905236 44.7089901,222.671633 44.6558015,222.449718 C44.6550538,222.350394 44.5962519,222.260688 44.5054453,222.220339 C44.0148092,222.030508 42.6536896,222.758192 41.9414758,223.216949 L41.9098219,223.185311 Z" id="Shape" fill="#6558F5"></path>
                    <path d="M43.1126718,221.745763 C42.7451671,222.402439 42.23387,222.967565 41.6170229,223.39887 C41.5753994,223.42289 41.5241171,223.42289 41.4824936,223.39887 C41.4408674,223.373247 41.4143034,223.328995 41.4112723,223.280226 C41.4112723,223.19322 41.4112723,221.19209 42.1630534,220.535593 C42.3454317,220.363888 42.595053,220.282656 42.8436132,220.314124 C43.1032293,220.317002 43.3249166,220.502202 43.3738168,220.757062 C43.3986781,221.106437 43.3068289,221.45418 43.1126718,221.745763 Z M41.6961578,223.011299 C42.3371501,222.512994 43.2155471,221.334463 43.1047583,220.80452 C43.1047583,220.717514 43.0414504,220.614689 42.8119593,220.59096 C42.6451722,220.564955 42.4757283,220.617515 42.3529771,220.733333 C41.8386005,221.19209 41.7198982,222.457627 41.6961578,223.050847 L41.6961578,223.011299 Z" id="Shape" fill="#6558F5"></path>
                    <path d="M21.8253944,17.6225989 L20.4247074,17.6225989 C20.4247074,17.6225989 21.3664122,18.4531073 21.8253944,17.6225989 Z" id="Path" fill="#263238"></path>
                </g>
                <g id="freepik--Piano--inject-40" transform="translate(21.366412, 115.480226)">
                    <rect id="Rectangle" fill="#6558F5" x="6.53653944" y="7.75932203" width="173.11542" height="144.99887"></rect>
                    <polygon id="Path" fill="#FFFFFF" opacity="0.05" points="97.9293893 9.20677966 71.3638168 9.20677966 32.1604071 152.758192 58.7338931 152.758192"></polygon>
                    <polygon id="Path" fill="#FFFFFF" opacity="0.05" points="114.626845 9.20677966 103.381781 9.20677966 64.1783715 152.758192 75.4234351 152.758192"></polygon>
                    <polygon id="Path" fill="#FFFFFF" opacity="0.05" points="169.50687 9.20677966 158.253893 9.20677966 119.050483 152.758192 130.303461 152.758192"></polygon>
                    <rect id="Rectangle" fill="#6558F5" x="17.7182952" y="55.359322" width="173.11542" height="11.500565"></rect>
                    <rect id="Rectangle" fill="#000000" opacity="0.1" x="17.7182952" y="66.8677966" width="161.933664" height="3.63050847"></rect>
                    <polygon id="Path" fill="#000000" opacity="0.1" points="21.8016539 55.359322 17.7182952 55.359322 17.7182952 66.8677966 27.5151908 66.8677966 27.5151908 59.5039548 21.8016539 59.5039548"></polygon>
                    <rect id="Rectangle" fill="#FFFFFF" opacity="0.8" x="21.8016539" y="55.359322" width="165.866667" height="4.14463277"></rect>
                    <rect id="Rectangle" fill="#6558F5" x="33.4977863" y="0.435028249" width="18.0031807" height="1"></rect>
                    <rect id="Rectangle" fill="#6558F5" x="21.9599237" y="0.435028249" width="4.7480916" height="1"></rect>
                    <path d="M183.379211,7.75932203 L2.80928753,7.75932203 C1.55058421,7.75932203 0.530203562,6.73944187 0.530203562,5.48135593 L0.530203562,5.48135593 C0.530203562,4.22326999 1.55058421,3.20338983 2.80928753,3.20338983 L183.379211,3.20338983 C184.637915,3.20338983 185.658295,4.22326999 185.658295,5.48135593 L185.658295,5.48135593 C185.658295,6.08551011 185.418178,6.6649197 184.990767,7.09212121 C184.563356,7.51932272 183.983662,7.75932203 183.379211,7.75932203 L183.379211,7.75932203 Z" id="Path" fill="#6558F5"></path>
                    <rect id="Rectangle" fill="#000000" opacity="0.1" x="6.53653944" y="7.75932203" width="11.1817557" height="144.99887"></rect>
                    <rect id="Rectangle" fill="#000000" opacity="0.1" transform="translate(98.677214, 8.483051) rotate(180.000000) translate(-98.677214, -8.483051) " x="17.7103817" y="7.75932203" width="161.933664" height="1.44745763"></rect>
                    <rect id="Rectangle" fill="#000000" opacity="0.1" transform="translate(98.677214, 142.060452) rotate(180.000000) translate(-98.677214, -142.060452) " x="17.7103817" y="141.336723" width="161.933664" height="1.44745763"></rect>
                    <g id="Group" opacity="0.1" transform="translate(79.926209, 12.655367)" fill="#000000">
                        <path d="M0.664732824,1.51864407 C7.56939225,0.355896773 14.6200225,0.355896773 21.5246819,1.51864407 C22.1366582,12.6659134 22.7407209,23.8079096 23.3368702,34.9446328 C16.4322108,33.7818855 9.38158054,33.7818855 2.47692112,34.9446328 C1.88077184,23.7762712 1.27670908,12.634275 0.664732824,1.51864407 Z" id="Path"></path>
                        <path d="M42.384631,1.51864407 C35.4799716,0.355896773 28.4293414,0.355896773 21.5246819,1.51864407 C22.1366582,12.6659134 22.7407209,23.8079096 23.3368702,34.9446328 C30.2415297,33.7818855 37.2921599,33.7818855 44.1968193,34.9446328 C43.5953944,23.7762712 42.9913316,12.634275 42.384631,1.51864407 Z" id="Path"></path>
                    </g>
                    <path d="M80.5909415,14.1186441 C87.5013724,13.0270331 94.5404597,13.0270331 101.450891,14.1186441 C102.458541,24.6067797 103.460916,35.0949153 104.458015,45.5830508 C97.5482082,44.4835288 90.5078732,44.4835288 83.5980662,45.5830508 C82.6009669,35.0949153 81.598592,24.6067797 80.5909415,14.1186441 Z" id="Path" fill="#FFFFFF"></path>
                    <path d="M122.31084,14.1186441 C115.400409,13.0270331 108.361322,13.0270331 101.450891,14.1186441 C102.458541,24.6067797 103.460916,35.0949153 104.458015,45.5830508 C111.370473,44.4834861 118.41342,44.4834861 125.325878,45.5830508 L122.31084,14.1186441 Z" id="Path" fill="#FFFFFF"></path>
                    <path d="M78.6837913,151.429379 L69.0135115,150.638418 C68.1272928,150.588203 67.4335783,149.856693 67.4308142,148.969492 L67.4308142,148.265537 C67.4315075,147.799972 67.6267335,147.355859 67.9693458,147.04045 C68.3119581,146.725041 68.7708097,146.567009 69.2350891,146.60452 L78.8183206,147.39548 C79.6096692,147.458757 80.2031807,148.344633 80.2031807,149.420339 L80.2031807,149.420339 C80.2427481,150.575141 79.5305344,151.500565 78.6837913,151.429379 Z" id="Path" fill="#000000" opacity="0.3"></path>
                    <path d="M94.3920611,151.429379 L84.7138677,150.638418 C83.827649,150.588203 83.1339346,149.856693 83.1311705,148.969492 L83.1311705,148.265537 C83.1318637,147.799972 83.3270898,147.355859 83.6697021,147.04045 C84.0123143,146.725041 84.4711659,146.567009 84.9354453,146.60452 L94.5186768,147.39548 C95.3100254,147.458757 95.9035369,148.344633 95.9035369,149.420339 L95.9035369,149.420339 C95.9431043,150.575141 95.2308906,151.500565 94.3920611,151.429379 Z" id="Path" fill="#000000" opacity="0.3"></path>
                </g>
                <g id="freepik--character-1--inject-40" transform="translate(94.170483, 79.887006)">
                    <path d="M92.730229,44.459887 C94.0755216,46.2237288 95.2071501,47.9084746 96.3625191,49.6881356 C97.517888,51.4677966 98.5862087,53.239548 99.6070483,55.0903955 C101.716969,58.8084155 103.483699,62.7107876 104.885344,66.7491525 C105.598832,68.8615105 106.128367,71.0315405 106.468041,73.2350282 C106.563003,73.7966102 106.618397,74.3819209 106.681705,74.959322 C106.737442,75.6410483 106.737442,76.3261833 106.681705,77.0079096 C106.574054,78.4026624 106.223215,79.7678563 105.645038,81.0418079 C104.563567,83.3366835 102.90258,85.3103523 100.825725,86.7683616 C99.893177,87.4466726 98.8997436,88.0371446 97.8581679,88.5322034 C96.8272893,89.0347509 95.7550025,89.4475773 94.6532061,89.7661017 L93.1496438,86.1514124 C96.0697201,84.1265537 98.8631807,81.2632768 99.4804326,78.6610169 C99.6514645,78.0463834 99.7157046,77.4069729 99.6703562,76.7706215 C99.6470826,76.4415269 99.6048069,76.114051 99.5437405,75.7898305 C99.4646056,75.3627119 99.4092112,74.9435028 99.3063359,74.5084746 C98.9125177,72.730623 98.383413,70.985434 97.7236387,69.2881356 C96.301578,65.73597 94.6083778,62.2983441 92.6590076,59.0056497 C91.6777354,57.3235405 90.6595335,55.659887 89.604402,54.0146893 C88.5598219,52.3932203 87.4123664,50.7242938 86.3519593,49.2293785 L92.730229,44.459887 Z" id="Path" fill="#FF8B7B"></path>
                    <path d="M93.4740967,85.6451977 L88.5044275,86.6576271 L91.4403308,91.3084746 C91.4403308,91.3084746 96.5920102,92.2655367 97.1301272,88.9988701 L93.4740967,85.6451977 Z" id="Path" fill="#FF8B7B"></path>
                    <polygon id="Path" fill="#FF8B7B" points="83.1865649 89.4971751 85.7505344 92.0045198 91.4403308 91.3084746 88.5044275 86.6576271"></polygon>
                    <path d="M80.7175573,13.6282486 C80.875827,14.1581921 81.2873282,14.4983051 81.6276081,14.419209 C81.967888,14.340113 82.1261578,13.8101695 81.967888,13.280226 C81.8096183,12.7502825 81.4060305,12.4022599 81.0578372,12.4892655 C80.7096438,12.5762712 80.567201,13.0983051 80.7175573,13.6282486 Z" id="Path" fill="#263238"></path>
                    <path d="M81.2398473,14.5141243 C82.3509538,15.9428011 83.6530043,17.2122765 85.109542,18.2870056 C84.4368957,19.4338983 82.7354962,19.5129944 82.7354962,19.5129944 L81.2398473,14.5141243 Z" id="Path" fill="#FF5652"></path>
                    <path d="M77.9715776,10.5909605 C78.0372488,10.5828177 78.099828,10.5583422 78.1535878,10.519774 C78.7875071,9.98815974 79.6386212,9.79388298 80.4405852,9.99774011 C80.5538001,10.0536738 80.6891998,10.0388631 80.7876313,9.95977852 C80.8860627,9.88069392 80.9296379,9.75170746 80.89932,9.62917035 C80.869002,9.50663324 80.7703005,9.41281418 80.6463359,9.38870056 C79.6406646,9.10524729 78.5598308,9.33610671 77.7579135,10.0056497 C77.6412927,10.0908852 77.5951075,10.2429238 77.6446276,10.378579 C77.6941476,10.5142342 77.8274411,10.6008194 77.9715776,10.5909605 L77.9715776,10.5909605 Z" id="Path" fill="#263238"></path>
                    <path d="M77.5521628,19.9717514 C76.5708906,24.9706215 75.5896183,34.1299435 79.0952926,37.4677966 C79.0952926,37.4677966 77.7262595,42.5378531 68.4279135,42.5378531 C58.2036896,42.5378531 63.5452926,37.4677966 63.5452926,37.4677966 C69.1243003,36.1389831 68.973944,32.0022599 68.0084987,28.1186441 L77.5521628,19.9717514 Z" id="Path" fill="#FF8B7B"></path>
                    <path d="M80.5592875,39.1446328 C81.1923664,37.2067797 81.8729262,34.9841808 80.1715267,34.3988701 C78.2960305,33.7502825 65.8243766,33.6079096 62.4453181,35.2372881 C59.0662595,36.8666667 62.6510687,40.5446328 62.6510687,40.5446328 L80.5592875,39.1446328 Z" id="Path" fill="#263238"></path>
                    <path d="M55.0541221,51.4836158 C54.0649364,54.1412429 53.0045293,56.7118644 51.9441221,59.3141243 C50.883715,61.9163842 49.7362595,64.4711864 48.5888041,67.0418079 C47.4413486,69.6124294 46.2147583,72.1672316 44.940687,74.6983051 C43.6444392,77.3342095 42.188283,79.8884969 40.5803562,82.3468927 L40.3666921,82.6632768 L40.2163359,82.8214689 C38.6965137,84.2917452 36.9105717,85.4594199 34.9538677,86.2621469 C33.2380585,86.9858543 31.4610181,87.5549695 29.6439186,87.9627119 C27.9027644,88.3506441 26.1402894,88.6358824 24.3656234,88.8169492 C22.6068141,88.9958925 20.8392756,89.0751154 19.0715013,89.0542373 L18.6995674,85.1548023 C20.2189567,84.7514124 21.8649618,84.3638418 23.3764377,83.8418079 C24.8879135,83.319774 26.4468702,82.8451977 27.9029517,82.259887 C29.3187671,81.714931 30.6916574,81.0645161 32.0100509,80.3141243 C33.123663,79.6994542 34.1223356,78.8966263 34.9617812,77.9412429 L34.5898473,78.4158192 C35.8897627,76.1333497 37.0730297,73.786456 38.1350891,71.3841808 C39.2535284,68.9111111 40.3508651,66.4090395 41.4270992,63.8779661 C42.4954198,61.3468927 43.524173,58.7920904 44.5924936,56.2451977 L47.6945802,48.5966102 L55.0541221,51.4836158 Z" id="Path" fill="#FF8B7B"></path>
                    <path d="M91.3374555,39.0180791 C97.7473791,40.4813559 105.099008,57.9536723 105.099008,57.9536723 L92.2237659,66.7728814 C89.0206808,62.1831391 86.1791069,57.3516594 83.7246819,52.3220339 C79.9262087,44.2937853 84.7850891,37.5152542 91.3374555,39.0180791 Z" id="Path" fill="#6558F5"></path>
                    <path d="M91.3374555,39.0180791 C97.7473791,40.4813559 105.099008,57.9536723 105.099008,57.9536723 L92.2237659,66.7728814 C89.0206808,62.1831391 86.1791069,57.3516594 83.7246819,52.3220339 C79.9262087,44.2937853 84.7850891,37.5152542 91.3374555,39.0180791 Z" id="Path" fill="#FFFFFF" opacity="0.6"></path>
                    <path d="M86.7476336,50.1548023 L92.8331043,66.3536723 L92.2237659,66.7728814 C92.2237659,66.7728814 89.5964885,63.079096 86.7476336,58.0723164 L86.7476336,50.1548023 Z" id="Path" fill="#000000" opacity="0.2"></path>
                    <path d="M53.0203562,39.3661017 C53.0203562,39.3661017 46.5471247,48.3909605 53.423944,99.2576271 L90.0000763,99.2576271 C90.2533079,93.6418079 85.924631,65.459887 91.3374555,39.0180791 C87.2949773,38.2284246 83.2057797,37.7000223 79.0952926,37.4361582 C73.9162132,37.1393219 68.724372,37.1393219 63.5452926,37.4361582 C59.9924079,37.80703 56.4735818,38.4522724 53.0203562,39.3661017 L53.0203562,39.3661017 Z" id="Path" fill="#6558F5"></path>
                    <path d="M53.0203562,39.3661017 C53.0203562,39.3661017 46.5471247,48.3909605 53.423944,99.2576271 L90.0000763,99.2576271 C90.2533079,93.6418079 85.924631,65.459887 91.3374555,39.0180791 C87.2949773,38.2284246 83.2057797,37.7000223 79.0952926,37.4361582 C73.9162132,37.1393219 68.724372,37.1393219 63.5452926,37.4361582 C59.9924079,37.80703 56.4735818,38.4522724 53.0203562,39.3661017 L53.0203562,39.3661017 Z" id="Path" fill="#FFFFFF" opacity="0.6"></path>
                    <path d="M57.0799746,54.0779661 L50.2585496,60.3265537 C50.2585496,63.9412429 50.4009924,68.1412429 50.7096183,72.9819209 C59.8655216,66.3774011 56.9770992,54.220339 57.0799746,54.0779661 Z" id="Path" fill="#000000" opacity="0.2"></path>
                    <path d="M60.9338422,43.8745763 C62.7064631,50.2022599 52.3081425,68.2836158 52.3081425,68.2836158 L38.4041476,61.2836158 C38.4041476,61.2836158 40.691145,51.7920904 45.8111705,45.0451977 C51.6513232,37.3649718 58.9950382,37.0327684 60.9338422,43.8745763 Z" id="Path" fill="#6558F5"></path>
                    <path d="M60.9338422,43.8745763 C62.7064631,50.2022599 52.3081425,68.2836158 52.3081425,68.2836158 L38.4041476,61.2836158 C38.4041476,61.2836158 40.691145,51.7920904 45.8111705,45.0451977 C51.6513232,37.3649718 58.9950382,37.0327684 60.9338422,43.8745763 Z" id="Path" fill="#FFFFFF" opacity="0.6"></path>
                    <path d="M23.2339949,83.8418079 L14.9327481,84.3638418 L15.7240967,91.2689266 C18.5857169,91.5778435 21.3847734,90.2854353 23.0045038,87.9073446 L23.2339949,83.8418079 Z" id="Path" fill="#FF8B7B"></path>
                    <polygon id="Path" fill="#FF8B7B" points="10.8889567 88.160452 10.8889567 91.4033898 15.7478372 91.2531073 14.9327481 84.3480226"></polygon>
                    <polygon id="Path" fill="#FF8B7B" points="52.00743 186.848588 45.1701781 186.848588 41.7357252 171.021469 48.5729771 171.021469"></polygon>
                    <path d="M44.6874555,184.293785 L52.3635369,184.293785 C52.6436454,184.294059 52.8864791,184.487575 52.9491349,184.760452 L54.302341,190.842938 C54.365142,191.142708 54.2876869,191.454738 54.0919757,191.6904 C53.8962646,191.926062 53.6036807,192.059609 53.2973282,192.053107 C50.6146565,192.00565 49.3405852,191.855367 45.9377863,191.855367 C43.8565394,191.855367 41.1896947,192.068927 38.3170992,192.068927 C35.4445038,192.068927 35.07257,189.229379 36.2437659,188.976271 C41.5141476,187.821469 41.8860814,186.231638 43.5716539,184.712994 C43.8808414,184.443342 44.2771139,184.294462 44.6874555,184.293785 Z" id="Path" fill="#263238"></path>
                    <g id="Group" opacity="0.2" transform="translate(41.150127, 170.847458)" fill="#000000">
                        <polygon id="Path" points="7.42284987 0.174011299 0.585597964 0.174011299 2.49274809 8.94576271 9.20338422 8.33672316"></polygon>
                    </g>
                    <path d="M62.753944,17.7333333 C65.0805089,24.1084746 66.1171756,27.960452 70.390458,30.3175141 C76.8082952,33.8689266 83.9462595,28.5141243 83.5743257,21.5774011 C83.2340458,15.3288136 79.4909669,5.9559322 72.360916,5.25988701 C69.169746,4.93279686 66.0365679,6.28004344 64.0797386,8.82074045 C62.1229093,11.3614375 61.6212958,14.7335112 62.753944,17.7333333 L62.753944,17.7333333 Z" id="Path" fill="#FF8B7B"></path>
                    <path d="M75.3047328,28.719774 C77.6787786,26.1966102 78.1140204,20.5175141 77.3226718,17.0135593 C78.1140204,13.8497175 81.983715,7.5220339 78.8183206,4.35819209 C75.6529262,1.19435028 70.5882952,-0.292655367 64.5740458,0.276836158 C64.4236896,1.20225989 66.156743,2.08813559 66.156743,2.08813559 C66.156743,2.08813559 52.0707379,-0.0395480226 56.0591349,8.81129944 C50.3060305,18.1762712 60.8072265,22.4237288 57.4439949,26.0384181 C58.0295929,27.8022599 62.0100763,30.3887006 66.1013486,27.4937853 C66.7512767,28.8194748 66.4804087,30.4120341 65.4287023,31.4485876 C69.1955216,31.4090395 72.9227735,31.2350282 75.3047328,28.719774 Z" id="Path" fill="#263238"></path>
                    <path d="M57.2778117,8.62937853 C57.2778117,8.62937853 54.1124173,8.16271186 53.2102799,11.0734463 C54.4031051,10.0141676 55.7823182,9.18543645 57.2778117,8.62937853 Z" id="Path" fill="#263238"></path>
                    <path d="M56.8030025,8.98531073 C56.8030025,8.98531073 54.1994656,9.73672316 53.6850891,6.50960452 C54.5098475,7.57367676 55.5794593,8.42297702 56.8030025,8.98531073 Z" id="Path" fill="#263238"></path>
                    <path d="M73.8803053,16.9344633 C74.633968,18.4426422 75.8669242,19.6583026 77.3859796,20.3909605 C79.3880916,21.340113 80.4405852,19.8056497 79.9182952,17.8519774 C79.4513995,16.0960452 77.8449618,13.4937853 75.8111959,13.3514124 C73.77743,13.2090395 72.9860814,15.1073446 73.8803053,16.9344633 Z" id="Path" fill="#FF8B7B"></path>
                    <path d="M64.3841221,99.2576271 C64.3841221,99.2576271 32.6273028,110.734463 31.653944,126 C29.9288041,154.055367 41.3875318,175.711864 41.3875318,175.711864 L51.6750636,175.711864 C51.6750636,175.711864 50.0923664,166.109605 48.6995929,140.696045 C46.942799,108.757062 101.173919,141.439548 90.0000763,99.2576271 L64.3841221,99.2576271 Z" id="Path" fill="#6558F5"></path>
                    <path d="M64.3841221,99.2576271 C64.3841221,99.2576271 32.6273028,110.734463 31.653944,126 C29.9288041,154.055367 41.3875318,175.711864 41.3875318,175.711864 L51.6750636,175.711864 C51.6750636,175.711864 50.0923664,166.109605 48.6995929,140.696045 C46.942799,108.757062 101.173919,141.439548 90.0000763,99.2576271 L64.3841221,99.2576271 Z" id="Path" fill="#000000" opacity="0.5"></path>
                    <path d="M39.2825445,173.141243 C39.2350636,173.141243 40.8652417,177.815819 40.8652417,177.815819 L52.7354707,176.653107 L52.0944784,172.40565 L39.2825445,173.141243 Z" id="Path" fill="#FFFFFF"></path>
                    <polygon id="Path" fill="#FF8B7B" points="22.0944529 184.246328 15.257201 184.246328 13.2550891 168.419209 20.092341 168.419209"></polygon>
                    <path d="M14.9248346,179.255367 L22.1181934,181.264407 C22.3880501,181.335523 22.5702002,181.587098 22.5534351,181.865537 L22.2210687,188.082486 C22.2065309,188.38729 22.0530857,188.668639 21.8046527,188.846004 C21.5562197,189.023369 21.2401823,189.077201 20.9469975,188.99209 C18.3592875,188.20113 14.6557761,187.030508 11.3954198,186.120904 C7.58111959,185.053107 6.78977099,185.061017 2.3186514,183.811299 C-0.387760814,183.059887 -0.371933842,180.117514 0.823002545,180.180791 C6.29122137,180.497175 7.94513995,180.829379 13.1917812,179.326554 C13.7521555,179.145271 14.3514677,179.120654 14.9248346,179.255367 Z" id="Path" fill="#263238"></path>
                    <polygon id="Path" fill="#000000" opacity="0.2" points="13.2550891 168.419209 14.3471501 177.040678 21.1290076 176.581921 20.1002545 168.419209"></polygon>
                    <path d="M53.423944,99.2576271 C53.423944,99.2576271 1.37694656,103.868927 1.93880407,129.99435 C2.52440204,157.163842 11.9651908,173.109605 11.9651908,173.109605 L22.1577608,173.109605 C22.1577608,173.109605 20.939084,161.39548 21.2793639,134.645198 C21.3822392,126.632768 37.581145,123.983051 53.408117,123.049718 C67.0747074,122.258757 79.8708142,114.451977 85.1807634,101.836158 L86.2649109,99.2576271 L53.423944,99.2576271 Z" id="Path" fill="#6558F5"></path>
                    <path d="M53.423944,99.2576271 C53.423944,99.2576271 1.37694656,103.868927 1.93880407,129.99435 C2.52440204,157.163842 11.9651908,173.109605 11.9651908,173.109605 L22.1577608,173.109605 C22.1577608,173.109605 20.939084,161.39548 21.2793639,134.645198 C21.3822392,126.632768 37.581145,123.983051 53.408117,123.049718 C67.0747074,122.258757 79.8708142,114.451977 85.1807634,101.836158 L86.2649109,99.2576271 L53.423944,99.2576271 Z" id="Path" fill="#000000" opacity="0.5"></path>
                    <path d="M9.59114504,170.380791 C9.54366412,170.380791 11.332112,175.071186 11.332112,175.071186 L23.5980153,174.20113 L22.8858015,169.945763 L9.59114504,170.380791 Z" id="Path" fill="#FFFFFF"></path>
                </g>
                <g id="freepik--Chair--inject-40" transform="translate(121.867684, 198.531073)">
                    <rect id="Rectangle" fill="#6558F5" x="1.88340967" y="6.35141243" width="66.6711196" height="6.41468927"></rect>
                    <rect id="Rectangle" fill="#FFFFFF" opacity="0.6" x="1.88340967" y="6.35141243" width="66.6711196" height="6.41468927"></rect>
                    <rect id="Rectangle" fill="#6558F5" opacity="0.4" x="1.88340967" y="6.35141243" width="15.6370483" height="6.41468927"></rect>
                    <polygon id="Path" fill="#6558F5" points="20.9944784 76.9841808 14.0385242 76.9841808 13.1680407 12.7661017 21.8649618 12.7661017"></polygon>
                    <polygon id="Path" fill="#FFFFFF" opacity="0.6" points="20.9944784 76.9841808 14.0385242 76.9841808 13.1680407 12.7661017 21.8649618 12.7661017"></polygon>
                    <polygon id="Path" fill="#6558F5" opacity="0.4" points="17.520458 76.9841808 14.0385242 76.9841808 13.1680407 12.7661017 17.520458 12.7661017"></polygon>
                    <polygon id="Path" fill="#6558F5" points="9.70984733 76.9841808 2.75389313 76.9841808 1.88340967 12.7661017 10.5803308 12.7661017"></polygon>
                    <polygon id="Path" fill="#FFFFFF" opacity="0.6" points="9.70984733 76.9841808 2.75389313 76.9841808 1.88340967 12.7661017 10.5803308 12.7661017"></polygon>
                    <polygon id="Path" fill="#6558F5" opacity="0.4" points="6.22791349 76.9841808 2.75389313 76.9841808 1.88340967 12.7661017 6.22791349 12.7661017"></polygon>
                    <polygon id="Path" fill="#6558F5" points="67.6840458 76.9841808 60.7280916 76.9841808 59.8576081 12.7661017 68.5545293 12.7661017"></polygon>
                    <polygon id="Path" fill="#FFFFFF" opacity="0.6" points="67.6840458 76.9841808 60.7280916 76.9841808 59.8576081 12.7661017 68.5545293 12.7661017"></polygon>
                    <polygon id="Path" fill="#6558F5" opacity="0.4" points="64.202112 76.9841808 60.7280916 76.9841808 59.8576081 12.7661017 64.202112 12.7661017"></polygon>
                    <polygon id="Path" fill="#6558F5" points="56.3994148 76.9841808 49.4434606 76.9841808 48.5729771 12.7661017 57.2698982 12.7661017"></polygon>
                    <polygon id="Path" fill="#FFFFFF" opacity="0.6" points="56.3994148 76.9841808 49.4434606 76.9841808 48.5729771 12.7661017 57.2698982 12.7661017"></polygon>
                    <polygon id="Path" fill="#6558F5" opacity="0.4" points="52.9174809 76.9841808 49.4434606 76.9841808 48.5729771 12.7661017 52.9174809 12.7661017"></polygon>
                    <path d="M68.4279135,1.09152542 C57.0245802,-0.174011299 13.4133588,-0.174011299 2.01002545,1.09152542 C1.48585613,1.14971533 1.02000291,1.45200205 0.753490254,1.90687647 C0.486977597,2.36175089 0.451137409,2.9157368 0.656819338,3.40112994 L1.37694656,5.14915254 C1.68873278,5.85986349 2.38900786,6.32132282 3.1653944,6.32769082 L67.264631,6.32769082 C68.0543643,6.32982471 68.7671397,5.85487417 69.0689059,5.12542373 L69.7969466,3.37740113 C69.9935708,2.8921806 69.9510115,2.34286045 69.6819935,1.89368077 C69.4129754,1.44450108 68.9486754,1.14751783 68.4279135,1.09152542 L68.4279135,1.09152542 Z" id="Path" fill="#263238"></path>
                </g>
            </g>
        </g>
    </g>
</svg>