<svg width="40" height="40" viewBox="0 0 40 40" fill="none" xmlns="http://www.w3.org/2000/svg">
<g filter="url(#filter0_d)">
<path fill-rule="evenodd" clip-rule="evenodd" d="M20 2C11.168 2 4 9.168 4 18C4 26.832 11.168 34 20 34C28.832 34 36 26.832 36 18C36 9.168 28.832 2 20 2Z" fill="#392396"/>
</g>
<path fill-rule="evenodd" clip-rule="evenodd" d="M18 15C18.55 15 19 14.55 19 14C19 13.45 18.55 13 18 13H16V11C16 10.45 15.55 10 15 10C14.45 10 14 10.45 14 11V13H12C11.45 13 11 13.45 11 14C11 14.55 11.45 15 12 15H14V17C14 17.55 14.45 18 15 18C15.55 18 16 17.55 16 17V15H18ZM22 20.55V12C22 10.9 22.9 10 24 10H26C27.1 10 28 10.9 28 12C28 13.1 27.1 14 26 14H24V23.85C24 25.84 22.61 27.64 20.65 27.95C17.92 28.38 15.6 26.04 16.06 23.3C16.3 21.9 17.33 20.71 18.67 20.23C19.9 19.8 21.06 20.01 22 20.55Z" fill="white"/>
<defs>
<filter id="filter0_d" x="0" y="0" width="40" height="40" filterUnits="userSpaceOnUse" color-interpolation-filters="sRGB">
<feFlood flood-opacity="0" result="BackgroundImageFix"/>
<feColorMatrix in="SourceAlpha" type="matrix" values="0 0 0 0 0 0 0 0 0 0 0 0 0 0 0 0 0 0 127 0" result="hardAlpha"/>
<feOffset dy="2"/>
<feGaussianBlur stdDeviation="2"/>
<feColorMatrix type="matrix" values="0 0 0 0 0.223529 0 0 0 0 0.137255 0 0 0 0 0.588235 0 0 0 0.158494 0"/>
<feBlend mode="normal" in2="BackgroundImageFix" result="effect1_dropShadow"/>
<feBlend mode="normal" in="SourceGraphic" in2="effect1_dropShadow" result="shape"/>
</filter>
</defs>
</svg>
