<?xml version="1.0" encoding="UTF-8"?>
<svg width="106px" height="90px" viewBox="0 0 106 90" version="1.1" xmlns="http://www.w3.org/2000/svg" xmlns:xlink="http://www.w3.org/1999/xlink">
    <title>Icon / Drums</title>
    <g id="Icon-/-Drums" stroke="none" stroke-width="1" fill="none" fill-rule="evenodd">
        <path d="M43.7517737,88.2486701 C36.758741,90.0829061 29.1640249,89.4748591 22.5434187,86.5503642 C15.9228125,83.6258694 10.3190118,78.4034734 6.89524044,71.9675657 C4.6599853,67.7659374 3.34454241,62.7379286 4.82612697,58.2080957 C5.36863985,56.548996 6.32975547,54.9558659 7.81412452,54.062342 C9.8546969,52.8338053 12.5408085,53.1695224 14.6038889,54.3590877 C16.6669693,55.5481835 18.2149177,57.4648228 19.5892992,59.423955 C23.7507302,65.3553479 26.7909371,72.0861232 31.4556661,77.6207596 C36.120163,83.1556307 43.1057704,87.5042233 50.1969566,86.3071454 L43.7517737,88.2486701 Z" id="shape-blob-yellow" fill="#FFBC65" transform="translate(27.196957, 71.288611) rotate(-40.000000) translate(-27.196957, -71.288611) "></path>
        <path d="M51,40 C50.5922499,26.6113356 44.209254,13.5290987 33.974636,5.10657041 C30.9073042,2.58202842 27.3576777,0.405502137 23.4288166,0.0440045424 C19.4999556,-0.317493052 15.1703049,1.55991797 13.6091338,5.24687352 C11.9199795,9.23591492 13.9484017,14.0263293 17.1807645,16.8627829 C20.4129027,19.6994651 24.6046908,21.0645641 28.6202212,22.5368327 C33.5666613,24.3502619 38.4713385,26.453666 42.7259955,29.5972326 C45.5627329,31.6927914 48.3207344,35.1603805 51,40 Z" id="shape-blob-red2" fill="#FF6F6F"></path>
        <path d="M80.8961249,53.5366007 C78.7665991,49.2372796 78.1698144,44.2398454 79.2294251,39.5817865 C80.2890358,34.9237277 82.9984644,30.6346198 86.7949094,27.604924 C89.2736924,25.6271852 92.4185415,24.1409555 95.6021969,24.5296944 C96.7683606,24.6720406 97.9457058,25.0939724 98.7306026,25.9429425 C99.8092876,27.1102233 99.9406153,28.8928479 99.4269245,30.3795032 C98.9136722,31.8659457 97.8523075,33.1106764 96.7402973,34.2481687 C93.3733531,37.6919236 89.3317923,40.5103344 86.2928386,44.2302706 C83.2538848,47.9502068 81.302605,53.0242397 83.0243353,57.4676092 L80.8961249,53.5366007 Z" id="shape-blob-green" fill="#00A19E" transform="translate(89.216923, 40.967609) rotate(34.000000) translate(-89.216923, -40.967609) "></path>
        <g id="iOS-/-Icon-/-Drums" transform="translate(21.000000, 13.000000)">
            <polygon id="Path" points="0 0 64 0 64 64 0 64"></polygon>
            <path d="M32,-8.52651283e-14 C32.690375,-8.52651283e-14 33.25,0.559625 33.25,1.25 L33.25,1.25 L33.25,2.53575 C38.172,2.808125 42.4035,4.677875 44.4605,7.5 L44.4605,7.5 L47,7.5 C47.690375,7.5 48.25,8.059625 48.25,8.75 C48.25,9.440375 47.690375,9.9875 47,9.9875 L47,9.9875 L33.25,9.9875 L33.25,12.5 L47,12.5 C47.690375,12.5 48.25,13.059625 48.25,13.75 C48.25,14.440375 47.690375,15 47,15 L47,15 L44.4605,15 C42.4035,17.822125 38.172,19.691875 33.25,19.96425 L33.25,19.96425 L33.25,25.80025 C34.972,25.933375 36.6615,26.339125 38.25,27.002125 L38.25,27.002125 C38.25,24.93225 39.93225,23.25 42,23.25 L42,23.25 L60.25,23.25 C62.31775,23.25 64,24.93225 64,27 L64,27 L64,37 C64,39.06775 62.31775,40.75 60.25,40.75 L60.25,40.75 L53.25,40.75 L53.25,54.732125 L60.384,61.866125 C60.872125,62.354375 60.872125,63.145875 60.384,63.634 C59.89575,64.122125 59.10425,64.122125 58.616125,63.634 L58.616125,63.634 L52,57.017875 L45.384,63.634 C44.89575,64.122125 44.104375,64.122125 43.616125,63.634 C43.128,63.14575 43.128,62.35425 43.616125,61.866125 L43.616125,61.866125 L50.75,54.73225 L50.75,40.75 L48.20125,40.75 C48.233125,41.16475 48.25,41.582125 48.25,42 C48.25,47.741125 45.25725,52.796375 40.75,55.68775 L40.75,55.68775 L40.75,62.75 C40.75,63.440375 40.190375,64.0000937 39.5,64.0000937 C38.809625,64.0000937 38.25,63.440375 38.25,62.75 L38.25,62.75 L38.25,56.99925 C36.325,57.804375 34.213625,58.25 32,58.25 C29.786375,58.25 27.675,57.804375 25.75,56.99925 L25.75,56.99925 L25.75,62.75 C25.75,63.440375 25.190375,64.0000937 24.5,64.0000937 C23.809625,64.0000937 23.25,63.440375 23.25,62.75 L23.25,62.75 L23.25,55.68775 C18.74275,52.796375 15.75,47.741125 15.75,42 C15.75,41.582125 15.766875,41.15225 15.79875,40.7375 L15.79875,40.7375 L13.25,40.7375 L13.25,54.732125 L20.384,61.866125 C20.872125,62.354375 20.872125,63.145875 20.384,63.634 C19.89575,64.122125 19.10425,64.122125 18.616125,63.634 L18.616125,63.634 L12,57.017875 L5.384,63.634 C4.89575,64.122125 4.104375,64.122125 3.616125,63.634 C3.128,63.14575 3.128,62.35425 3.616125,61.866125 L3.616125,61.866125 L10.75,54.73225 L10.75,40.75 L3.75,40.75 C1.68225,40.75 0,39.06775 0,37 L0,37 L0,27 C0,24.93225 1.68225,23.25 3.75,23.25 L3.75,23.25 L22,23.25 C24.06775,23.25 25.75,24.93225 25.75,27 L25.75,27 C27.338125,26.33925 29.027625,25.9335 30.75,25.80025 L30.75,25.80025 L30.75,19.96425 C25.828,19.691875 21.5965,17.822125 19.5395,15 L19.5395,15 L17,15 C16.309625,15 15.75,14.440375 15.75,13.75 C15.75,13.059625 16.309625,12.5 17,12.5 L17,12.5 L30.75,12.5 L30.75,10 L17,10 C16.309625,10 15.75,9.440375 15.75,8.75 C15.75,8.059625 16.309625,7.5 17,7.5 L17,7.5 L19.5395,7.5 C21.5965,4.677875 25.828,2.808125 30.75,2.53575 L30.75,2.53575 L30.75,1.25 C30.75,0.559625 31.309625,-8.52651283e-14 32,-8.52651283e-14 Z M32,28.25 C24.435125,28.25 18.25,34.40025 18.25,42 C18.25,49.58175 24.41825,55.75 32,55.75 C39.58175,55.75 45.75,49.58175 45.75,42 C45.75,34.507 39.656625,28.25 32,28.25 Z M32,30.75 C38.20325,30.75 43.25,35.79675 43.25,42 C43.25,48.20325 38.20325,53.25 32,53.25 C25.79675,53.25 20.75,48.20325 20.75,42 C20.75,40.9435 20.89675,39.897875 21.18625,38.891875 C21.377125,38.228375 22.069875,37.84525 22.733125,38.03625 C23.396625,38.227125 23.779625,38.91975 23.58875,39.583125 C23.364,40.364375 23.25,41.1775 23.25,42 C23.25,46.82475 27.17525,50.75 32,50.75 C36.82475,50.75 40.75,46.82475 40.75,42 C40.75,37.17525 36.82475,33.25 32,33.25 C31.1775,33.25 30.364375,33.364 29.583125,33.58875 C28.91975,33.77975 28.227125,33.396625 28.03625,32.733125 C27.845375,32.06975 28.228375,31.377125 28.891875,31.18625 C29.897875,30.89675 30.9435,30.75 32,30.75 Z M20.289125,30.7375 L2.5,30.7375 L2.5,37 C2.5,37.68925 3.06075,38.25 3.75,38.25 L3.75,38.25 L16.189875,38.25 C16.859875,35.430125 18.287125,32.823625 20.289125,30.7375 L20.289125,30.7375 Z M61.5,30.75 L43.7115,30.75 C45.71175,32.83475 47.13925,35.428625 47.809875,38.25 L47.809875,38.25 L60.25,38.25 C60.93925,38.25 61.5,37.68925 61.5,37 L61.5,37 L61.5,30.75 Z M24.045,34.045 C24.53375,33.5575 25.325,33.5575 25.8125,34.045 C26.30125,34.53375 26.30125,35.325 25.8125,35.8125 C25.325,36.30125 24.53375,36.30125 24.045,35.8125 C23.5575,35.325 23.5575,34.53375 24.045,34.045 Z M22,25.75 L3.75,25.75 C3.06075,25.75 2.5,26.31075 2.5,27 L2.5,27 L2.5,28.25 L23.25,28.25 L23.25,27 C23.25,26.31075 22.68925,25.75 22,25.75 L22,25.75 Z M60.25,25.75 L42,25.75 C41.31075,25.75 40.75,26.31075 40.75,27 L40.75,27 L40.75,28.25 L61.5,28.25 L61.5,27 C61.5,26.31075 60.93925,25.75 60.25,25.75 L60.25,25.75 Z M40.91775,14.9875 L23.08225,14.9875 C25.1955,16.5195 28.49475,17.5 32,17.5 C35.50525,17.5 38.8045,16.5195 40.91775,14.9875 L40.91775,14.9875 Z M32,5 C28.49475,5 25.1955,5.968 23.08225,7.5 L23.08225,7.5 L40.91775,7.5 C38.8045,5.968 35.50525,5 32,5 Z" id="Combined-Shape" fill="#FFFFFF"></path>
        </g>
    </g>
</svg>