<?xml version="1.0" encoding="UTF-8"?>
<svg width="24px" height="24px" viewBox="0 0 24 24" version="1.1" xmlns="http://www.w3.org/2000/svg" xmlns:xlink="http://www.w3.org/1999/xlink">
    <title>iOS / Icon / Instrument / Drums</title>
    <g id="iOS-/-Icon-/-Instrument-/-Drums" stroke="none" stroke-width="1" fill="none" fill-rule="evenodd">
        <polygon id="Path" points="0 0 24 0 24 24 0 24"></polygon>
        <path d="M12,-3.19744231e-14 C12.2588906,-3.19744231e-14 12.46875,0.209859375 12.46875,0.46875 L12.46875,0.46875 L12.46875,0.95090625 C14.3145,1.05304687 15.9013125,1.75420312 16.6726875,2.8125 L16.6726875,2.8125 L17.625,2.8125 C17.8838906,2.8125 18.09375,3.02235937 18.09375,3.28125 C18.09375,3.54014062 17.8838906,3.7453125 17.625,3.7453125 L17.625,3.7453125 L12.46875,3.7453125 L12.46875,4.6875 L17.625,4.6875 C17.8838906,4.6875 18.09375,4.89735937 18.09375,5.15625 C18.09375,5.41514062 17.8838906,5.625 17.625,5.625 L17.625,5.625 L16.6726875,5.625 C15.9013125,6.68329687 14.3145,7.38445312 12.46875,7.48659375 L12.46875,7.48659375 L12.46875,9.67509375 C13.1145,9.72501562 13.7480625,9.87717187 14.34375,10.1257969 L14.34375,10.1257969 C14.34375,9.34959375 14.9745937,8.71875 15.75,8.71875 L15.75,8.71875 L22.59375,8.71875 C23.3691562,8.71875 24,9.34959375 24,10.125 L24,10.125 L24,13.875 C24,14.6504062 23.3691563,15.28125 22.59375,15.28125 L22.59375,15.28125 L19.96875,15.28125 L19.96875,20.5245469 L22.644,23.1997969 C22.8270469,23.3828906 22.8270469,23.6797031 22.644,23.86275 C22.4609063,24.0457969 22.1640937,24.0457969 21.9810469,23.86275 L21.9810469,23.86275 L19.5,21.3817031 L17.019,23.86275 C16.8359063,24.0457969 16.5391406,24.0457969 16.3560469,23.86275 C16.173,23.6796562 16.173,23.3828437 16.3560469,23.1997969 L16.3560469,23.1997969 L19.03125,20.5245937 L19.03125,15.28125 L18.0754687,15.28125 C18.0874219,15.4367812 18.09375,15.5932969 18.09375,15.75 C18.09375,17.9029219 16.9714687,19.7986406 15.28125,20.8829062 L15.28125,20.8829062 L15.28125,23.53125 C15.28125,23.7901406 15.0713906,24.0000352 14.8125,24.0000352 C14.5536094,24.0000352 14.34375,23.7901406 14.34375,23.53125 L14.34375,23.53125 L14.34375,21.3747187 C13.621875,21.6766406 12.8301094,21.84375 12,21.84375 C11.1698906,21.84375 10.378125,21.6766406 9.65625,21.3747187 L9.65625,21.3747187 L9.65625,23.53125 C9.65625,23.7901406 9.44639062,24.0000352 9.1875,24.0000352 C8.92860938,24.0000352 8.71875,23.7901406 8.71875,23.53125 L8.71875,23.53125 L8.71875,20.8829062 C7.02853125,19.7986406 5.90625,17.9029219 5.90625,15.75 C5.90625,15.5932969 5.91257813,15.4320937 5.92453125,15.2765625 L5.92453125,15.2765625 L4.96875,15.2765625 L4.96875,20.5245469 L7.644,23.1997969 C7.82704688,23.3828906 7.82704688,23.6797031 7.644,23.86275 C7.46090625,24.0457969 7.16409375,24.0457969 6.98104688,23.86275 L6.98104688,23.86275 L4.5,21.3817031 L2.019,23.86275 C1.83590625,24.0457969 1.53914062,24.0457969 1.35604688,23.86275 C1.173,23.6796562 1.173,23.3828437 1.35604688,23.1997969 L1.35604688,23.1997969 L4.03125,20.5245937 L4.03125,15.28125 L1.40625,15.28125 C0.63084375,15.28125 0,14.6504062 0,13.875 L0,13.875 L0,10.125 C0,9.34959375 0.63084375,8.71875 1.40625,8.71875 L1.40625,8.71875 L8.25,8.71875 C9.02540625,8.71875 9.65625,9.34959375 9.65625,10.125 L9.65625,10.125 C10.2517969,9.87721875 10.8853594,9.7250625 11.53125,9.67509375 L11.53125,9.67509375 L11.53125,7.48659375 C9.6855,7.38445312 8.0986875,6.68329687 7.3273125,5.625 L7.3273125,5.625 L6.375,5.625 C6.11610938,5.625 5.90625,5.41514062 5.90625,5.15625 C5.90625,4.89735937 6.11610938,4.6875 6.375,4.6875 L6.375,4.6875 L11.53125,4.6875 L11.53125,3.75 L6.375,3.75 C6.11610938,3.75 5.90625,3.54014062 5.90625,3.28125 C5.90625,3.02235937 6.11610938,2.8125 6.375,2.8125 L6.375,2.8125 L7.3273125,2.8125 C8.0986875,1.75420312 9.6855,1.05304687 11.53125,0.95090625 L11.53125,0.95090625 L11.53125,0.46875 C11.53125,0.209859375 11.7411094,-3.19744231e-14 12,-3.19744231e-14 Z M12,10.59375 C9.16317187,10.59375 6.84375,12.9000937 6.84375,15.75 C6.84375,18.5931562 9.15684375,20.90625 12,20.90625 C14.8431562,20.90625 17.15625,18.5931562 17.15625,15.75 C17.15625,12.940125 14.8712344,10.59375 12,10.59375 Z M12,11.53125 C14.3262187,11.53125 16.21875,13.4237812 16.21875,15.75 C16.21875,18.0762187 14.3262187,19.96875 12,19.96875 C9.67378125,19.96875 7.78125,18.0762187 7.78125,15.75 C7.78125,15.3538125 7.83628125,14.9617031 7.94484375,14.5844531 C8.01642187,14.3356406 8.27620313,14.1919687 8.52492188,14.2635937 C8.77373438,14.3351719 8.91735938,14.5949062 8.84578125,14.8436719 C8.7615,15.1366406 8.71875,15.4415625 8.71875,15.75 C8.71875,17.5592812 10.1907187,19.03125 12,19.03125 C13.8092813,19.03125 15.28125,17.5592812 15.28125,15.75 C15.28125,13.9407187 13.8092813,12.46875 12,12.46875 C11.6915625,12.46875 11.3866406,12.5115 11.0936719,12.5957812 C10.8449063,12.6674062 10.5851719,12.5237344 10.5135938,12.2749219 C10.4420156,12.0261562 10.5856406,11.7664219 10.8344531,11.6948437 C11.2117031,11.5862812 11.6038125,11.53125 12,11.53125 Z M7.60842187,11.5265625 L0.9375,11.5265625 L0.9375,13.875 C0.9375,14.1334687 1.14778125,14.34375 1.40625,14.34375 L1.40625,14.34375 L6.07120313,14.34375 C6.32245312,13.2862969 6.85767187,12.3088594 7.60842187,11.5265625 L7.60842187,11.5265625 Z M23.0625,11.53125 L16.3918125,11.53125 C17.1419062,12.3130312 17.6772187,13.2857344 17.9287031,14.34375 L17.9287031,14.34375 L22.59375,14.34375 C22.8522187,14.34375 23.0625,14.1334687 23.0625,13.875 L23.0625,13.875 L23.0625,11.53125 Z M9.016875,12.766875 C9.20015625,12.5840625 9.496875,12.5840625 9.6796875,12.766875 C9.86296875,12.9501562 9.86296875,13.246875 9.6796875,13.4296875 C9.496875,13.6129687 9.20015625,13.6129687 9.016875,13.4296875 C8.8340625,13.246875 8.8340625,12.9501562 9.016875,12.766875 Z M8.25,9.65625 L1.40625,9.65625 C1.14778125,9.65625 0.9375,9.86653125 0.9375,10.125 L0.9375,10.125 L0.9375,10.59375 L8.71875,10.59375 L8.71875,10.125 C8.71875,9.86653125 8.50846875,9.65625 8.25,9.65625 L8.25,9.65625 Z M22.59375,9.65625 L15.75,9.65625 C15.4915312,9.65625 15.28125,9.86653125 15.28125,10.125 L15.28125,10.125 L15.28125,10.59375 L23.0625,10.59375 L23.0625,10.125 C23.0625,9.86653125 22.8522187,9.65625 22.59375,9.65625 L22.59375,9.65625 Z M15.3441562,5.6203125 L8.65584375,5.6203125 C9.4483125,6.1948125 10.6855313,6.5625 12,6.5625 C13.3144687,6.5625 14.5516875,6.1948125 15.3441562,5.6203125 L15.3441562,5.6203125 Z M12,1.875 C10.6855312,1.875 9.4483125,2.238 8.65584375,2.8125 L8.65584375,2.8125 L15.3441562,2.8125 C14.5516875,2.238 13.3144688,1.875 12,1.875 Z" id="Combined-Shape" fill="#FFFFFF"></path>
    </g>
</svg>