<?xml version="1.0" encoding="UTF-8"?>
<svg width="52px" height="20px" viewBox="0 0 52 20" version="1.1" xmlns="http://www.w3.org/2000/svg" xmlns:xlink="http://www.w3.org/1999/xlink">
    <title>iOS-/-DBS-Verified</title>
    <g id="Page-1" stroke="none" stroke-width="1" fill="none" fill-rule="evenodd">
        <g id="DBS-Verified" transform="translate(-162.000000, -181.000000)" fill-rule="nonzero">
            <g id="iOS-/-DBS-Verified" transform="translate(162.000000, 181.000000)">
                <rect id="Rectangle" fill="#416DFE" x="0" y="0" width="52" height="20" rx="10"></rect>
                <path d="M8.926,15 C11.76,15 13.58,13.388 13.58,10.151 C13.58,6.901 11.76,5.367 8.822,5.367 L6.183,5.367 L6.183,15 L8.926,15 Z M8.705,13.453 L8.107,13.453 L8.107,6.914 L8.705,6.914 C10.499,6.914 11.617,7.798 11.617,10.151 C11.617,12.491 10.499,13.453 8.705,13.453 Z M18.697,15 C20.816,15 22.428,14.103 22.428,12.166 C22.428,10.866 21.661,10.138 20.621,9.891 L20.621,9.826 C21.44,9.54 21.934,8.63 21.934,7.746 C21.934,5.952 20.426,5.367 18.45,5.367 L15.265,5.367 L15.265,15 L18.697,15 Z M18.307,9.293 L17.189,9.293 L17.189,6.849 L18.333,6.849 C19.49,6.849 20.062,7.187 20.062,8.032 C20.062,8.799 19.529,9.293 18.307,9.293 Z M18.528,13.518 L17.189,13.518 L17.189,10.71 L18.528,10.71 C19.854,10.71 20.556,11.113 20.556,12.049 C20.556,13.05 19.841,13.518 18.528,13.518 Z M26.544,15.182 C28.767,15.182 30.08,13.843 30.08,12.27 C30.08,10.879 29.313,10.138 28.143,9.657 L26.882,9.124 C26.063,8.799 25.387,8.552 25.387,7.863 C25.387,7.226 25.92,6.849 26.765,6.849 C27.558,6.849 28.195,7.135 28.806,7.642 L29.781,6.433 C29.001,5.64 27.883,5.198 26.765,5.198 C24.815,5.198 23.437,6.407 23.437,7.98 C23.437,9.384 24.412,10.164 25.387,10.567 L26.674,11.113 C27.532,11.477 28.117,11.698 28.117,12.413 C28.117,13.089 27.584,13.518 26.583,13.518 C25.738,13.518 24.828,13.089 24.139,12.452 L23.034,13.778 C23.97,14.675 25.257,15.182 26.544,15.182 Z" id="DBS" fill="#FFFFFF"></path>
                <g id="check" transform="translate(33.000000, 2.000000)" fill="#FFFFFF">
                    <path d="M10.0999534,0.37281933 C10.5696476,0.161367404 11.1231252,0.341294044 11.3786947,0.788517465 L11.3786947,0.788517465 L12.3378543,2.46695992 L14.222012,2.86877456 C14.7221267,2.9754288 15.0612039,3.44220089 15.0080192,3.95078833 L15.0080192,3.95078833 L14.8056276,5.88619116 L16.0996681,7.33344975 C16.43905,7.71301538 16.4390475,8.28698242 16.0996624,8.66654513 L16.0996624,8.66654513 L14.805595,10.1138088 L15.0079865,12.0492117 C15.0611712,12.5577991 14.722094,13.0245712 14.2219793,13.1312254 L14.2219793,13.1312254 L12.3378217,13.5330401 L11.3786668,15.2114741 C11.1230954,15.6587011 10.5696115,15.8386265 10.0999159,15.6271679 L10.0999159,15.6271679 L8.34780976,14.8383638 L6.59570365,15.6271679 C6.12600801,15.8386265 5.57252417,15.6587011 5.31695268,15.2114741 L5.31695268,15.2114741 L4.35779784,13.5330401 L2.47363008,13.1312233 C1.97351969,13.02457 1.63444328,12.5578046 1.68762171,12.0492209 L1.68762171,12.0492209 L1.8899919,10.1138088 L0.595968022,8.66654385 C0.256593804,8.2869802 0.256596267,7.713022 0.595973743,7.33346127 L0.595973743,7.33346127 L1.89002455,5.88619116 L1.68765436,3.95077913 C1.63447593,3.44219542 1.97355234,2.97543004 2.47366273,2.86877671 L2.47366273,2.86877671 L4.35783049,2.46695992 L5.31699013,0.788517465 C5.5725596,0.341294044 6.12603725,0.161367404 6.59573144,0.37281933 L6.59573144,0.37281933 L8.34784241,1.16160329 L10.0999534,0.37281933 Z M11.5192308,5 L6.61538462,9.57692308 L4.98076923,7.94230769 L4,8.92307692 L6.61538462,11.5384615 L12.5,5.98076923 L11.5192308,5 Z" id="Combined-Shape"></path>
                </g>
            </g>
        </g>
    </g>
</svg>