<?xml version="1.0" encoding="UTF-8"?>
<svg width="32px" height="32px" viewBox="0 0 32 32" version="1.1" xmlns="http://www.w3.org/2000/svg" xmlns:xlink="http://www.w3.org/1999/xlink">
    <title>Group</title>
    <g id="Page-1" stroke="none" stroke-width="1" fill="none" fill-rule="evenodd">
        <g id="Skip-Lesson" transform="translate(-36.000000, -512.000000)" fill="#6558F5" fill-rule="nonzero">
            <g id="iOS-/-Card-/-Policy-Feature-with-Icon" transform="translate(24.000000, 500.000000)">
                <g id="Group" transform="translate(12.000000, 12.000000)">
                    <path d="M30.6666667,14.6666667 C29.9306667,14.6666667 29.3333333,15.264 29.3333333,16 C29.3333333,23.352 23.352,29.3333333 16,29.3333333 C8.648,29.3333333 2.66666667,23.352 2.66666667,16 C2.66666667,8.648 8.648,2.66666667 16,2.66666667 C19.5793333,2.66666667 22.9393333,4.06533333 25.4613333,6.60533333 C25.98,7.12733333 26.8246667,7.13066667 27.3466667,6.612 C27.8693333,6.09333333 27.872,5.24866667 27.3533333,4.726 C24.3273333,1.67866667 20.2946667,0 16,0 C7.17733333,0 0,7.17733333 0,16 C0,24.8226667 7.17733333,32 16,32 C24.822,32 32,24.8226667 32,16 C32,15.264 31.4026667,14.6666667 30.6666667,14.6666667 Z" id="Path"></path>
                    <path d="M17.7219228,15.0706073 L11.9891751,11.1469515 C11.730453,10.9700811 11.394912,10.9506785 11.1177052,11.0967517 C10.8400554,11.2434263 10.6666667,11.5312681 10.6666667,11.8445262 L10.6666667,19.5953947 C10.6666667,19.9100455 10.8410049,20.198457 11.1201741,20.344087 C11.3987735,20.4902235 11.7348526,20.46927 11.9935747,20.2899941 L17.7258477,16.3156637 C17.930002,16.1738952 18.0517666,15.9405895 18.050797,15.6921543 C18.0502473,15.443276 17.9270584,15.2109199 17.7219228,15.0706073 Z" id="XMLID_245_"></path>
                    <path d="M20.3357943,10.6905005 C19.7848625,10.6905005 19.3381919,11.1371711 19.3381919,11.6881345 L19.3381919,19.7580851 C19.3381919,20.3090485 19.7848309,20.7557191 20.3357943,20.7557191 C20.8867577,20.7557191 21.3333966,20.3090801 21.3333966,19.7580851 L21.3333966,11.6881345 C21.3333966,11.1372028 20.8867893,10.6905005 20.3357943,10.6905005 Z" id="XMLID_244_"></path>
                </g>
            </g>
        </g>
    </g>
</svg>