<?xml version="1.0" encoding="UTF-8"?>
<svg width="106px" height="90px" viewBox="0 0 106 90" version="1.1" xmlns="http://www.w3.org/2000/svg" xmlns:xlink="http://www.w3.org/1999/xlink">
    <title>Icon / Trumpet</title>
    <g id="Icon-/-Trumpet" stroke="none" stroke-width="1" fill="none" fill-rule="evenodd">
        <path d="M87.6383318,88.3483636 C79.4291195,90.4883057 70.5135831,89.7789175 62.7415671,86.3670068 C54.9695511,82.9550962 48.3911765,76.8623008 44.3719666,69.3537419 C41.7479714,64.4518422 40.2037559,58.5858319 41.9430073,53.3010269 C42.5798702,51.3654106 43.7081364,49.5067588 45.4506566,48.4643142 C47.8461111,47.0310214 50.9993726,47.4226913 53.4212496,48.8105176 C55.8431266,50.197796 57.6602834,52.4338752 59.2736877,54.7195294 C64.1588459,61.6394878 67.7277844,69.4920589 73.2037706,75.9491347 C78.6794844,82.4064844 86.87998,87.4798424 95.204416,86.0832516 L87.6383318,88.3483636 Z" id="shape-blob-yellow" fill="#FFBC65" transform="translate(68.204416, 68.561628) scale(-1, 1) rotate(-63.000000) translate(-68.204416, -68.561628) "></path>
        <path d="M101.05,38 C100.662637,25.2807688 94.5987913,12.8526438 84.8759042,4.85124189 C81.961939,2.452927 78.5897938,0.38522703 74.8573758,0.0418043153 C71.1249578,-0.301618399 67.0117896,1.48192207 65.5286771,4.98452984 C63.9239805,8.77411918 65.8509816,13.3250128 68.9217262,16.0196438 C71.9922576,18.7144918 75.9744562,20.0113359 79.7892101,21.4099911 C84.4883283,23.1327488 89.1477716,25.1309827 93.1896957,28.117371 C95.8845963,30.1081518 98.5046977,33.4023615 101.05,38 Z" id="shape-blob-red2" fill="#FF6F6F" transform="translate(83.000000, 19.000000) scale(-1, 1) translate(-83.000000, -19.000000) "></path>
        <path d="M15.3441019,53.9060376 C12.4105713,48.0433271 11.58847,41.2286441 13.0481378,34.8767457 C14.5078056,28.5248472 18.2401818,22.6760637 23.4699784,18.5446603 C26.8846285,15.8477438 31.2168186,13.8210669 35.6024664,14.3511655 C37.2089164,14.5452739 38.8307695,15.1206354 39.9120048,16.278322 C41.3979485,17.8700685 41.5788591,20.3009202 40.8712237,22.3281774 C40.1641924,24.3551444 38.7021085,26.0525045 37.1702577,27.6036304 C32.5321203,32.2996599 26.9646641,36.1429472 22.7783502,41.2155875 C18.5920363,46.2882278 15.9040489,53.2073636 18.2758203,59.2665038 L15.3441019,53.9060376 Z" id="shape-blob-green" fill="#00A19E" transform="translate(26.806425, 36.766504) scale(-1, 1) rotate(24.000000) translate(-26.806425, -36.766504) "></path>
        <g id="iOS-/-Icon-/-Drums" transform="translate(21.000000, 13.000000)">
            <polygon id="Path" points="0 0 64 0 64 64 0 64"></polygon>
            <path d="M40.6162869,1.099125 C42.1109801,-0.36675 44.5303586,-0.36625 46.0249243,1.099125 L46.0249243,1.099125 L62.7803028,17.527625 C64.275251,18.9935 64.2751235,21.365125 62.7800478,22.830875 C61.3978008,24.186125 59.2334024,24.283625 57.7380717,23.1465 L57.7380717,23.1465 L54.0857371,22.749375 C49.9789004,22.301875 46.9284462,23.389875 44.1389641,25.304125 C46.24,25.431125 48.301259,26.282875 49.9016414,27.852 C53.3896414,31.272 53.389259,36.807125 49.9016414,40.226625 L49.9016414,40.226625 L49.0001594,41.110625 L49.9020239,41.9955 C51.3968446,43.46125 51.3959522,45.833125 49.9016414,47.29825 C48.4105179,48.760375 45.984255,48.760125 44.4931315,47.29825 L44.4931315,47.29825 L43.5917769,46.4145 L41.7883028,48.182125 L42.6894024,49.065625 C44.1862629,50.5315 44.1848606,52.9055 42.6888924,54.3705 C41.1975139,55.83275 38.770996,55.831125 37.2807649,54.37 L37.2807649,54.37 L36.3792829,53.486125 L34.5764462,55.253125 L35.4778008,56.136875 C36.9735139,57.603375 36.972494,59.97625 35.4780558,61.4415 C33.9833625,62.907375 31.5627092,62.906875 30.0681434,61.4415 L30.0681434,61.4415 L29.1669163,60.557875 L28.2656892,61.4415 C24.7858486,64.8535 19.1236335,64.852375 15.6435378,61.441625 C13.8832829,59.715125 13.0150757,57.43075 13.0410837,55.153875 L13.0410837,55.153875 L10.9832669,57.171625 C11.6481275,58.533375 11.4377689,60.2625 10.2352829,61.4415 C8.74058964,62.907375 6.31993625,62.906875 4.82537052,61.4415 L4.82537052,61.4415 L1.21969721,57.905 C-0.275250996,56.439125 -0.274868526,54.0675 1.21931474,52.602625 C2.41976096,51.42575 4.18078088,51.215375 5.5730996,51.869125 L5.5730996,51.869125 L12.9387092,44.647375 L12.0374821,43.76375 C10.8627888,42.6105 10.6145657,40.889 11.2911554,39.4955 L11.2911554,39.4955 L9.33278088,37.575375 L8.43053386,38.46 C7.9321753,38.948125 7.12503586,38.947375 6.62744223,38.45925 C6.12972112,37.970875 6.1299761,37.17925 6.62807968,36.69125 L6.62807968,36.69125 L10.2343904,33.155125 C10.7319841,32.666875 11.5393785,32.666625 12.0374821,33.154375 C12.5354582,33.6425 12.5358406,34.434125 12.0381195,34.922375 L12.0381195,34.922375 L11.1358725,35.807 L13.0928446,37.72575 C14.4879681,37.070375 16.2450359,37.284125 17.4450996,38.457625 L17.4450996,38.457625 L18.348239,39.343 L20.1513307,37.575125 L19.2502311,36.691625 C18.0749004,35.538875 17.8265498,33.81725 18.5036494,32.423375 L18.5036494,32.423375 L16.5451474,30.503875 L15.6435378,31.3875 C15.1456892,31.875625 14.3384223,31.875625 13.8404462,31.3875 C13.3424701,30.899125 13.3425976,30.107625 13.8404462,29.6195 C15.174247,28.312125 16.2293546,27.278125 17.4475219,26.084125 C17.945498,25.596125 18.7528924,25.5965 19.2506135,26.08475 C19.7483347,26.573125 19.7480797,27.36475 19.2499761,27.852625 L19.2499761,27.852625 L18.348494,28.73625 L20.3044462,30.653375 C21.6945976,30.00075 23.4600797,30.208625 24.6600159,31.388375 L24.6600159,31.388375 L25.5606056,32.271375 L27.3638247,30.503375 L26.4627251,29.619875 C25.2630438,28.443375 25.0482231,26.715625 25.7146135,25.350125 L25.7146135,25.350125 L23.7577689,23.432125 L22.8561594,24.31575 C22.3583108,24.80375 21.5510438,24.803875 21.0530677,24.31575 C20.5552191,23.8275 20.5552191,23.035875 21.0530677,22.54775 C21.7991678,21.8165 22.4576381,21.1711682 23.1022139,20.5394167 L23.8737546,19.7832037 C24.1318578,19.5302191 24.3924568,19.2747778 24.6602709,19.01225 C25.158247,18.524375 25.9655139,18.5245 26.4633625,19.012875 C26.9610837,19.50125 26.9608287,20.292875 26.4627251,20.78075 L26.4627251,20.78075 L25.561243,21.664375 L27.5179602,23.58225 C28.9134661,22.9265 30.6707888,23.14075 31.8704701,24.314375 L31.8704701,24.314375 L32.7729721,25.19925 C37.8761434,20.18225 41.4614183,16.3405 40.6994104,9.624 L40.6994104,9.624 L40.2943745,6.042625 C39.1335777,4.57575 39.2345498,2.453875 40.6162869,1.099125 Z M18.3486215,49.9505 L17.4041753,50.875875 C14.9656733,53.312625 14.9841594,57.25825 17.4466295,59.673625 C19.9326853,62.11 23.9774343,62.11025 26.4627251,59.673375 L26.4627251,59.673375 L27.3639522,58.78975 L25.5600956,57.021125 L24.6588685,57.90475 C23.1663426,59.37025 20.742757,59.368125 19.2502311,57.90475 C17.7559203,56.4415 17.7573227,54.063625 19.250741,52.60125 L19.250741,52.60125 L20.1514582,51.718125 L18.3486215,49.9505 Z M4.72146417,54.2782698 C4.22039062,53.8829539 3.4880425,53.913575 3.02278884,54.369625 C2.52455777,54.8585 2.52468526,55.6485 3.02278884,56.137 L3.02278884,56.137 L6.62858964,59.6735 C7.12682072,60.162 7.93421514,60.161625 8.43219124,59.673375 C8.9305498,59.184875 8.93042231,58.3935 8.43231873,57.90475 L8.43231873,57.90475 L4.82549801,54.369875 L4.82549801,54.369875 Z M21.9545498,53.486125 L21.0533227,54.36975 C20.5550916,54.85775 20.5580239,55.651875 21.0528127,56.1365 C21.5510438,56.625 22.3602231,56.62375 22.8553944,56.137625 L22.8553944,56.137625 L23.7571315,55.2535 L21.9545498,53.486125 Z M14.7421833,46.414375 L7.53007171,53.485625 L9.33354582,55.25325 L15.5833625,49.1255 L15.5833625,49.1255 L15.6402231,49.0685 L16.5446375,48.181625 L14.7421833,46.414375 Z M32.7728446,49.949875 L30.9705179,51.717625 L32.7734821,53.48525 L34.5764462,51.71825 L32.7728446,49.949875 Z M22.8560319,33.155 C22.3518088,32.659375 21.5436494,32.673125 21.0545976,33.153875 C20.556239,33.6425 20.556239,34.436 21.0534502,34.923625 C23.4348367,37.258625 36.3729084,49.94375 39.0839841,52.601875 C39.5808127,53.08925 40.3896096,53.089 40.8865657,52.601875 C41.388494,52.110375 41.3831394,51.31975 40.8873307,50.834125 L40.8873307,50.834125 L39.0838566,49.06575 C35.602996,45.653 26.3459442,36.57675 22.8560319,33.155 Z M29.1671713,46.414375 L27.3643347,48.182 L29.1674263,49.94975 L30.9698805,48.181875 L29.1671713,46.414375 Z M39.9854661,42.878125 L38.1826295,44.6465 L39.9854661,46.414125 L41.7890677,44.6465 L39.9854661,42.878125 Z M25.5613705,42.879125 L23.7581514,44.6465 L25.561243,46.41425 L27.3640797,44.646625 L25.5613705,42.879125 Z M30.0680159,26.083 C29.5770518,25.602875 28.774757,25.587 28.2659442,26.08325 C28.2655618,26.083625 28.2650518,26.084 28.2646693,26.084375 C27.769498,26.570125 27.7660558,27.361875 28.2658167,27.851875 C28.5919052,28.1715945 31.9401455,31.4544395 35.6673083,35.1088062 L36.2915574,35.7208629 C36.3960326,35.8232976 36.5006868,35.9259078 36.6054635,36.0286381 L37.5502294,36.9549514 C41.7502818,41.0729716 45.8742653,45.1164085 46.2963506,45.53025 C46.7934343,46.0175 47.6021036,46.0175 48.0989323,45.53025 C48.5972908,45.041625 48.5970359,44.251375 48.0989323,43.763 C47.7608131,43.4314268 44.0792668,39.8215399 40.1258769,35.945105 L39.4998461,35.3312603 L39.4998461,35.3312603 L38.8719841,34.7156201 C34.6861041,30.6112213 30.5572667,26.5627561 30.0680159,26.083 Z M21.9545498,39.343 L20.1515857,41.11075 L21.9549323,42.878875 L23.7581514,41.111375 L21.9545498,39.343 Z M36.3794104,39.34275 L34.5759363,41.1105 L36.3795378,42.878875 L38.1823745,41.1105 L36.3794104,39.34275 Z M48.0989323,29.61975 C45.7021195,27.2695 41.8589323,27.167 39.3403665,29.381625 C39.0051952,29.703 38.6674741,30.0305 38.3260558,30.363875 C38.278757,30.41 38.2305657,30.457375 38.1831394,30.50375 L38.1831394,30.50375 L39.9852112,32.270625 L40.8864382,31.387 C42.3780717,29.926 44.8045896,29.926125 46.2958406,31.3865 C47.7878566,32.849375 47.7878566,35.22875 46.2963506,36.69125 L46.2963506,36.69125 L45.3951235,37.574875 L47.1977052,39.34225 L48.0989323,38.458625 C50.5903426,36.016 50.5899602,32.062 48.0989323,29.61975 Z M32.7728446,35.806375 L30.970008,37.57475 L32.7729721,39.3425 L34.5764462,37.57475 L32.7728446,35.806375 Z M44.493259,33.155 C43.9963028,32.66825 43.1866135,32.668375 42.6888924,33.1555 L42.6888924,33.1555 L41.7883028,34.0385 L43.5920319,35.807125 L44.493259,34.9235 C44.9904701,34.436 44.9904701,33.6425 44.493259,33.155 Z M29.1671713,32.27125 L27.3639522,34.03925 L29.1670438,35.807125 L30.9698805,34.03875 L29.1671713,32.27125 Z M44.2217052,2.866875 C43.7233466,2.378375 42.9173546,2.378375 42.4191235,2.866875 C41.9208924,3.3555 41.9210199,4.145625 42.4191235,4.634125 L42.4191235,4.634125 L47.1901833,9.313375 C47.6880319,9.80175 47.6879044,10.59325 47.1899283,11.081375 C46.6919522,11.5695 45.8846853,11.56925 45.3868367,11.081125 L45.3868367,11.081125 L43.1853386,8.922125 L43.2335299,9.348125 C43.6638088,13.140875 42.9422151,16.398 40.9624223,19.598 C39.3639522,22.181625 37.1458805,24.440625 34.5758088,26.967125 L34.5758088,26.967125 L36.3799203,28.736 C36.4276016,28.689375 36.4759203,28.64175 36.5234741,28.5955 C36.5236016,28.595375 36.5238566,28.595125 36.5239841,28.595 L37.28,27.852625 C37.3758725,27.758625 37.479012,27.662625 37.5861036,27.566625 C40.1424064,25.118875 42.3737371,23.2195 44.9517131,21.905875 C47.8533865,20.427375 50.9332908,19.89025 54.3672351,20.264375 L54.3672351,20.264375 L54.8017211,20.311625 L52.5995857,18.153 C52.1017371,17.66475 52.1016096,16.87325 52.5994582,16.385 C53.0971793,15.896875 53.9047012,15.89675 54.4025498,16.38475 L54.4025498,16.38475 L59.174757,21.0625 C59.6733705,21.55125 60.4793625,21.551 60.9774661,21.062625 C61.4756972,20.574125 61.4756972,19.783875 60.9772112,19.29525 L60.9772112,19.29525 Z M48.9940398,12.848625 C49.491251,12.361125 50.2983904,12.361125 50.7968765,12.848625 C51.2942151,13.3375 51.2942151,14.12875 50.7968765,14.61625 C50.2983904,15.105 49.491251,15.105 48.9940398,14.61625 C48.4955538,14.12875 48.4955538,13.337375 48.9940398,12.848625 Z M33.5990184,57.8299426 L33.5636711,57.7954038 C33.3796776,57.6151796 32.9221712,57.16694 31.8712351,56.13725 C30.3411661,54.6370652 27.303782,51.6589764 24.196497,48.6123508 L23.3484026,47.7808125 C20.2402879,44.7333733 17.1929465,41.7455217 15.6437928,40.226625 C15.1451793,39.739125 14.342502,39.73575 13.8396813,40.227625 C13.344,40.71375 13.344255,41.5075 13.8414661,41.995625 C17.6456414,45.725375 25.69651,53.619 31.87149,59.673375 C32.3697211,60.161875 33.176988,60.161875 33.6752191,59.673375 C34.1735777,59.184875 34.1735777,58.3935 33.6753466,57.904625 L33.6753466,57.904625 L33.6730518,57.9025 L33.6615817,57.8919062 L33.6108409,57.8415343 C33.6058462,57.8366385 33.6017041,57.8325775 33.5990184,57.8299426 Z" id="Combined-Shape" fill="#FFFFFF"></path>
        </g>
    </g>
</svg>