<?xml version="1.0" encoding="UTF-8"?>
<svg width="24px" height="24px" viewBox="0 0 24 24" version="1.1" xmlns="http://www.w3.org/2000/svg" xmlns:xlink="http://www.w3.org/1999/xlink">
    <title>iOS / Icon / Instrument / Trumpet</title>
    <g id="iOS-/-Icon-/-Instrument-/-Trumpet" stroke="none" stroke-width="1" fill="none" fill-rule="evenodd">
        <polygon id="Path" points="0 0 24 0 24 24 0 24"></polygon>
        <path d="M15.2311076,0.412171875 C15.7916175,-0.13753125 16.6988845,-0.13734375 17.2593466,0.412171875 L17.2593466,0.412171875 L23.5426135,6.57285937 C24.1032191,7.1225625 24.1031713,8.01192187 23.5425179,8.56157812 C23.0241753,9.06979687 22.2125259,9.10635937 21.6517769,8.6799375 L21.6517769,8.6799375 L20.2821514,8.53101562 C18.7420876,8.36320312 17.5981673,8.77120312 16.5521116,9.48904687 C17.34,9.53667187 18.1129721,9.85607812 18.7131155,10.4445 C20.0211155,11.727 20.0209721,13.8026719 18.7131155,15.0849844 L18.7131155,15.0849844 L18.3750598,15.4164844 L18.713259,15.7483125 C19.2738167,16.2979687 19.2734821,17.1874219 18.7131155,17.7368437 C18.1539442,18.2851406 17.2440956,18.2850469 16.6849243,17.7368437 L16.6849243,17.7368437 L16.3469163,17.4054375 L15.6706135,18.0682969 L16.0085259,18.3996094 C16.5698486,18.9493125 16.5693227,19.8395625 16.0083347,20.3889375 C15.4490677,20.9372812 14.5391235,20.9366719 13.9802869,20.38875 L13.9802869,20.38875 L13.6422311,20.0572969 L12.9661673,20.7199219 L13.3041753,21.0513281 C13.8650677,21.6012656 13.8646853,22.4910937 13.3042709,23.0405625 C12.743761,23.5902656 11.8360159,23.5900781 11.2755538,23.0405625 L11.2755538,23.0405625 L10.9375936,22.7092031 L10.5996335,23.0405625 C9.29469323,24.3200625 7.17136255,24.3196406 5.86632669,23.0406094 C5.20623108,22.3931719 4.88065339,21.5365312 4.89040637,20.6827031 L4.89040637,20.6827031 L4.1187251,21.4393594 C4.36804781,21.9500156 4.28916335,22.5984375 3.83823108,23.0405625 C3.27772112,23.5902656 2.3699761,23.5900781 1.80951394,23.0405625 L1.80951394,23.0405625 L0.457386454,21.714375 C-0.103219124,21.1646719 -0.103075697,20.2753125 0.457243028,19.7259844 C0.907410359,19.2846562 1.56779283,19.2057656 2.08991235,19.4509219 L2.08991235,19.4509219 L4.85201594,16.7427656 L4.51405578,16.4114062 C4.07354582,15.9789375 3.98046215,15.333375 4.23418327,14.8108125 L4.23418327,14.8108125 L3.49979283,14.0907656 L3.1614502,14.4225 C2.97456574,14.6055469 2.67188845,14.6052656 2.48529084,14.4222187 C2.29864542,14.2390781 2.29874104,13.9422187 2.48552988,13.7592187 L2.48552988,13.7592187 L3.83789641,12.4331719 C4.02449402,12.2500781 4.32726693,12.2499844 4.51405578,12.4328906 C4.70079681,12.6159375 4.70094024,12.9127969 4.51429482,13.0958906 L4.51429482,13.0958906 L4.17595219,13.427625 L4.90981673,14.1471562 C5.43298805,13.9013906 6.09188845,13.9815469 6.54191235,14.4216094 L6.54191235,14.4216094 L6.88058964,14.753625 L7.556749,14.0906719 L7.21883665,13.7593594 C6.77808765,13.3270781 6.68495618,12.6814687 6.93886853,12.1587656 L6.93886853,12.1587656 L6.20443028,11.4389531 L5.86632669,11.7703125 C5.67963347,11.9533594 5.37690837,11.9533594 5.19016733,11.7703125 C5.00342629,11.5871719 5.0034741,11.2903594 5.19016733,11.1073125 C5.69034263,10.6170469 6.08600797,10.2292969 6.54282072,9.78154687 C6.72956175,9.59854687 7.03233466,9.5986875 7.21898008,9.78178125 C7.4056255,9.96492187 7.40552988,10.2617812 7.21874104,10.4447344 L7.21874104,10.4447344 L6.88068526,10.7760937 L7.61416733,11.4950156 C8.1354741,11.2502812 8.79752988,11.3282344 9.24750598,11.7706406 L9.24750598,11.7706406 L9.58522709,12.1017656 L10.2614343,11.4387656 L9.92352191,11.1074531 C9.47364143,10.6662656 9.39308367,10.0183594 9.64298008,9.50629687 L9.64298008,9.50629687 L8.90916335,8.78704687 L8.57105976,9.11840625 C8.38436653,9.30140625 8.08164143,9.30145312 7.8949004,9.11840625 C7.70820717,8.9353125 7.70820717,8.63845312 7.8949004,8.45540625 C8.39851793,7.9618125 8.79566534,7.57260937 9.24760159,7.12959375 C9.43434263,6.94664062 9.73706773,6.9466875 9.92376096,7.12982812 C10.1104064,7.31296875 10.1103108,7.60982812 9.92352191,7.79278125 L9.92352191,7.79278125 L9.58546614,8.12414062 L10.3192351,8.84334375 C10.8425498,8.5974375 11.5015458,8.67778125 11.9514263,9.11789062 L11.9514263,9.11789062 L12.2898645,9.44971875 C14.2035538,7.56834375 15.5480319,6.1276875 15.2622789,3.609 L15.2622789,3.609 L15.1103904,2.26598437 C14.6750916,1.71590625 14.7129562,0.920203125 15.2311076,0.412171875 Z M6.88073307,18.7314375 L6.52656574,19.0784531 C5.61212749,19.9922344 5.61905976,21.4718437 6.54248606,22.3776094 C7.47475697,23.29125 8.99153785,23.2913437 9.92352191,22.3775156 L9.92352191,22.3775156 L10.2614821,22.0461562 L9.58503586,21.3829219 L9.2470757,21.7142812 C8.68737849,22.2638437 7.77853386,22.2630469 7.21883665,21.7142812 C6.65847012,21.1655625 6.65899602,20.2738594 7.21902789,19.7254687 L7.21902789,19.7254687 L7.55679681,19.3942969 L6.88073307,18.7314375 Z M1.73434661,20.3284273 C1.54870891,20.2081663 1.29711155,20.2282793 1.13354582,20.3886094 C0.946709163,20.5719375 0.946756972,20.8681875 1.13354582,21.051375 L1.13354582,21.051375 L2.48572112,22.3775625 C2.67255777,22.56075 2.97533068,22.5606094 3.16207171,22.3775156 C3.34895618,22.1943281 3.34890837,21.8975625 3.16211952,21.7142812 L3.16211952,21.7142812 L3.16188048,21.7140469 L1.80956175,20.3887031 L1.80956175,20.3887031 Z M5.86642231,15.0849844 C5.67944223,14.9021719 5.37843825,14.9009062 5.18988048,15.0853594 C5.004,15.2676562 5.00409562,15.5653125 5.1905498,15.7483594 C6.61711554,17.1470156 9.63619124,20.107125 11.9518088,22.3775156 C12.1386454,22.5607031 12.4413705,22.5607031 12.6282072,22.3775156 C12.8150916,22.1943281 12.8150916,21.8975625 12.628255,21.7142344 L12.628255,21.7142344 L12.6154691,21.7017688 C12.6120686,21.6984393 12.6078836,21.6943411 12.6027969,21.6893593 L12.560519,21.6479471 C12.4780606,21.56717 12.3035891,21.396231 11.9517131,21.0514687 C10.752,19.8751875 7.0810996,16.2759375 5.86642231,15.0849844 Z M8.23295618,20.0572969 L7.89499602,20.3886562 C7.70815936,20.5716562 7.70925896,20.8694531 7.89480478,21.0511875 C8.08164143,21.234375 8.38508367,21.2339062 8.57077291,21.0516094 L8.57077291,21.0516094 L8.9089243,20.7200625 L8.23295618,20.0572969 Z M5.52831873,17.4053906 L2.82377689,20.0571094 L3.50007968,20.7199687 L5.84376096,18.4220625 L5.84376096,18.4220625 L5.86508367,18.4006875 L6.20423904,18.0681094 L5.52831873,17.4053906 Z M12.2898167,18.7312031 L11.6139442,19.3941094 L12.2900558,20.0569687 L12.9661673,19.3943437 L12.2898167,18.7312031 Z M8.57101195,12.433125 C8.38192829,12.2472656 8.07886853,12.2524219 7.8954741,12.4327031 C7.70858964,12.6159375 7.70858964,12.9135 7.89504382,13.0963594 C8.78806375,13.9719844 13.6398406,18.7289062 14.656494,19.7257031 C14.8428048,19.9084687 15.1461036,19.908375 15.3324622,19.7257031 C15.5206853,19.5413906 15.5186773,19.2449062 15.332749,19.0627969 L15.332749,19.0627969 L14.6564462,18.3996562 C13.3511235,17.119875 9.87972908,13.7162812 8.57101195,12.433125 Z M10.9376892,17.4053906 L10.2616255,18.06825 L10.9377849,18.7311562 L11.6137052,18.0682031 L10.9376892,17.4053906 Z M14.9945498,16.0792969 L14.3184861,16.7424375 L14.9945498,17.4052969 L15.6709004,16.7424375 L14.9945498,16.0792969 Z M9.58551394,16.0796719 L8.90930677,16.7424375 L9.58546614,17.4053437 L10.2615299,16.7424844 L9.58551394,16.0796719 Z M11.275506,9.781125 C11.0913944,9.60107812 10.7905339,9.595125 10.5997291,9.78121875 L10.5997291,9.78121875 L10.5382696,9.854883 C10.4161875,10.0362554 10.4356972,10.2836719 10.5996813,10.4444531 C10.7326179,10.5747933 12.2049336,12.0183528 13.743125,13.5265015 L14.1833007,13.95808 C15.7224889,15.467206 17.2062669,16.9220039 17.3611315,17.0738437 C17.5475378,17.2565625 17.8507888,17.2565625 18.0370996,17.0738437 C18.2239841,16.8906094 18.2238884,16.5942656 18.0370996,16.411125 C17.9065132,16.2830668 16.4460333,14.8510147 14.9139598,13.3487641 L14.4753634,12.9187052 C12.9410663,11.4142743 11.4550138,9.95714915 11.275506,9.781125 Z M8.23295618,14.753625 L7.55684462,15.4165312 L8.2330996,16.0795781 L8.90930677,15.4167656 L8.23295618,14.753625 Z M13.6422789,14.7535312 L12.9659761,15.4164375 L13.6423267,16.0795781 L14.3183904,15.4164375 L13.6422789,14.7535312 Z M18.0370996,11.1074062 C17.1382948,10.2260625 15.6970996,10.187625 14.7526375,11.0181094 C14.6269482,11.138625 14.5003028,11.2614375 14.3722709,11.3864531 L14.3722709,11.3864531 L14.3186773,11.4389062 L14.9944542,12.1014844 L15.3324143,11.770125 C15.8917769,11.22225 16.8017211,11.2222969 17.3609402,11.7699375 C17.9204462,12.3185156 17.9204462,13.2107812 17.3611315,13.7592187 L17.3611315,13.7592187 L17.0231713,14.0905781 L17.6991394,14.7533437 L18.0370996,14.4219844 C18.9713785,13.506 18.9712351,12.02325 18.0370996,11.1074062 Z M12.2898167,13.4273906 L11.613753,14.0905312 L12.2898645,14.7534375 L12.9661673,14.0905312 L12.2898167,13.4273906 Z M16.6849721,12.433125 C16.4986135,12.2505937 16.1949801,12.2506406 16.0083347,12.4333125 L16.0083347,12.4333125 L15.6706135,12.7644375 L16.347012,13.4276719 L16.6849721,13.0963125 C16.8714263,12.9135 16.8714263,12.6159375 16.6849721,12.433125 Z M10.9376892,12.1017187 L10.2614821,12.7647187 L10.9376414,13.4276719 L11.6137052,12.7645312 L10.9376892,12.1017187 Z M16.5831394,1.07507812 C16.396255,0.891890625 16.094008,0.891890625 15.9071713,1.07507812 C15.7203347,1.2583125 15.7203825,1.55460937 15.9071713,1.73779687 L15.9071713,1.73779687 L17.6963187,3.49251562 C17.883012,3.67565625 17.8829641,3.97246875 17.6962231,4.15551562 C17.5094821,4.3385625 17.206757,4.33846875 17.0200637,4.15542187 L17.0200637,4.15542187 L16.194502,3.34579687 L16.2125737,3.50554687 C16.3739283,4.92782812 16.1033307,6.14925 15.3609084,7.34925 C14.7614821,8.31810937 13.9297052,9.16523437 12.9659283,10.1126719 L12.9659283,10.1126719 L13.6424701,10.776 C13.6603506,10.7585156 13.6784701,10.7406562 13.6963028,10.7233125 L13.6963028,10.7233125 L13.98,10.4447344 C14.0159522,10.4094844 14.0546295,10.3734844 14.0947888,10.3374844 C15.0534024,9.41957812 15.8901514,8.7073125 16.8568924,8.21470312 C17.9450199,7.66026562 19.0999841,7.45884375 20.3877131,7.59914062 L20.3877131,7.59914062 L20.5506454,7.61685937 L19.7248446,6.807375 C19.5381514,6.62428125 19.5381036,6.32746875 19.7247968,6.144375 C19.9114422,5.96132812 20.2142629,5.96128125 20.4009562,6.14428125 L20.4009562,6.14428125 L22.1905339,7.8984375 C22.3775139,8.08171875 22.679761,8.081625 22.8665498,7.89848437 C23.0533865,7.71529687 23.0533865,7.41895312 22.8664542,7.23571875 L22.8664542,7.23571875 Z M18.3727649,4.81823437 C18.5592191,4.63542187 18.8618964,4.63542187 19.0488287,4.81823437 C19.2353307,5.0015625 19.2353307,5.29828125 19.0488287,5.48109375 C18.8618964,5.664375 18.5592191,5.664375 18.3727649,5.48109375 C18.1858327,5.29828125 18.1858327,5.00151562 18.3727649,4.81823437 Z" id="Combined-Shape" fill="#150F2F"></path>
    </g>
</svg>