<?xml version="1.0" encoding="UTF-8"?>
<svg width="24px" height="24px" viewBox="0 0 24 24" version="1.1" xmlns="http://www.w3.org/2000/svg" xmlns:xlink="http://www.w3.org/1999/xlink">
    <title>iOS / Icon / Resume Lesson</title>
    <g id="iOS-/-Icon-/-Resume-Lesson" stroke="none" stroke-width="1" fill="none" fill-rule="evenodd">
        <path d="M12,0 C15.221,0 18.2455,1.259 20.515,3.5445 C20.904,3.9365 20.902,4.57 20.51,4.959 C20.1185,5.348 19.485,5.3455 19.096,4.954 C17.2045,3.049 14.6845,2 12,2 C6.486,2 2,6.486 2,12 C2,17.514 6.486,22 12,22 C17.514,22 22,17.514 22,12 C22,11.448 22.448,11 23,11 C23.552,11 24,11.448 24,12 C24,18.617 18.6165,24 12,24 C5.383,24 0,18.617 0,12 C0,5.383 5.383,0 12,0 Z M9.63218149,8.08253826 C9.86706889,7.95876509 10.1513851,7.9752056 10.3706098,8.12507439 L10.3706098,8.12507439 L15.2281767,11.4497315 C15.4019956,11.5686235 15.506378,11.7655073 15.506839,11.976391 C15.5076654,12.1868993 15.4044898,12.3845877 15.2315024,12.5047133 L15.2315024,12.5047133 L10.3743377,15.8723089 C10.155113,16.024216 9.8703409,16.0419706 9.63427343,15.9181438 C9.3977232,15.7947462 9.25,15.5503646 9.25,15.2837494 L9.25,15.2837494 L9.25,8.71615494 C9.25,8.45071983 9.39691861,8.20682099 9.63218149,8.08253826 Z" id="Combined-Shape" fill="#141E29"></path>
    </g>
</svg>