<?xml version="1.0" encoding="UTF-8"?>
<svg width="308px" height="280px" viewBox="0 0 308 280" version="1.1" xmlns="http://www.w3.org/2000/svg" xmlns:xlink="http://www.w3.org/1999/xlink">
    <title>onboard-3</title>
    <g id="High-Fidelity" stroke="none" stroke-width="1" fill="none" fill-rule="evenodd">
        <g id="3.3.0-Third-Sign-Up-Screen" transform="translate(-34.000000, -76.000000)" fill-rule="nonzero">
            <g id="Group" transform="translate(32.000000, 76.000000)">
                <g id="Music-festival-rafiki" transform="translate(2.000000, 0.000000)">
                    <g id="freepik--background-simple--inject-78">
                        <path d="M187.731593,45.5091384 C127.637598,82.0626632 32.2036554,8.6924282 3.91122715,103.709661 C-23.1968668,194.749869 97.7075718,221.843342 162.495039,218.034465 C237.612533,213.611488 309.118538,164.9953 307.334726,84.248564 C306.64752,53.0318538 295.35248,19.9143603 264.64752,6.57963446 C215.512272,-14.7749347 219.577023,26.1357702 187.731593,45.5091384 Z" id="Path" fill="#6558F5"></path>
                        <path d="M187.731593,45.5091384 C127.637598,82.0626632 32.2036554,8.6924282 3.91122715,103.709661 C-23.1968668,194.749869 97.7075718,221.843342 162.495039,218.034465 C237.612533,213.611488 309.118538,164.9953 307.334726,84.248564 C306.64752,53.0318538 295.35248,19.9143603 264.64752,6.57963446 C215.512272,-14.7749347 219.577023,26.1357702 187.731593,45.5091384 Z" id="Path" fill="#FFFFFF" opacity="0.9"></path>
                    </g>
                    <g id="freepik--Shadow--inject-78" transform="translate(5.117493, 262.454308)" fill="#F5F5F5">
                        <ellipse id="freepik--path--inject-78" cx="141.827676" cy="8.94830287" rx="141.747258" ry="8.27571802"></ellipse>
                    </g>
                    <g id="freepik--character-1--inject-78" transform="translate(42.402089, 72.375979)">
                        <path d="M110.567102,22.4584856 C113.87154,17.4652742 112.475196,9.65744125 104.923238,8.74360313 C97.3712794,7.82976501 94.7394256,10.9368146 90.7989556,6.55039164 C86.8584856,2.16396867 79.5697128,0.804177546 76.4699739,9.84020888 C73.370235,18.8762402 65.9791123,12.8375979 63.5885117,22.7874674 C60.9712794,33.673107 68.6109661,45.2898172 83.5759791,44.1347258 C97.8391645,43.0381201 98.2558747,32.9932115 105.113316,31.245953 C111.970757,29.4986945 111.766057,26.1942559 110.567102,22.4584856 Z" id="Path" fill="#263238"></path>
                        <path d="M64.5389034,16.5368146 C63.2311135,16.5220031 61.936408,16.2744495 60.7154047,15.8057441 C60.6070124,15.7665662 60.5277549,15.6725376 60.5074879,15.5590782 C60.4872208,15.4456187 60.5290232,15.3299654 60.6171484,15.2556839 C60.7052737,15.1814024 60.8263335,15.1597777 60.9347258,15.1989556 C65.5477807,16.9096606 71.9958225,15.5937337 76.243342,6.75509138 C78.4877285,2.09817232 81.3608355,0.906527415 83.3932115,0.760313316 C86.3174935,0.526370757 89.3660574,2.22245431 91.4349869,5.14673629 C93.5039164,8.07101828 95.9164491,8.07101828 99.3817232,8.17336815 C101.941706,8.16702474 104.49115,8.501378 106.962924,9.16762402 C107.132646,9.22040152 107.229759,9.39844314 107.182245,9.56971279 C107.158524,9.65245507 107.10263,9.72223837 107.027064,9.76345586 C106.951499,9.80467336 106.862566,9.81388619 106.780157,9.78903394 C104.3605,9.1386254 101.865334,8.81167259 99.3597911,8.81671018 C95.8506527,8.70704961 93.0725849,8.61201044 90.9086162,5.51958225 C88.9859008,2.77075718 86.1420366,1.19895561 83.4663185,1.41827676 C80.7906005,1.63759791 78.5096606,3.61148825 76.8428198,7.04751958 C73.4652742,14.0657963 68.7206266,16.5368146 64.5389034,16.5368146 Z" id="Path" fill="#263238"></path>
                        <path d="M46.4741514,139.634465 C54.9472585,125.839164 69.8684073,110.998433 69.1373368,95.5436031 L41.8537859,87.7284595 C41.8537859,87.7284595 28.8407311,122.439687 24.9587467,136.125326 C20.9232376,150.359269 14.248564,181.554047 14.248564,181.554047 L23.4673629,185.172846 C23.4673629,185.172846 43.3963446,155.842298 46.4741514,139.634465 Z" id="Path" fill="#6558F5"></path>
                        <path d="M49.2449086,135.357702 C53.4704961,129.143603 58.5441253,122.739426 62.4992167,116.167102 C57.8861619,113.564491 49.5007833,121.518538 49.2449086,135.357702 Z" id="Path" fill="#000000" opacity="0.2"></path>
                        <path d="M14.248564,181.524804 C12.3770235,188.681984 7.09138381,187.928982 4.43759791,187.548825 C4.43759791,187.548825 2.59530026,188.440731 2.33942559,189.742037 C5.26370757,192.154569 11.4924282,194.391645 18.0281984,195.919582 C18.8128758,196.109676 19.6126972,195.668505 19.8704961,194.903394 C20.6015666,192.710183 22.0637076,188.32376 23.4673629,185.143603 L14.248564,181.524804 Z" id="Path" fill="#263238"></path>
                        <path d="M74.2182768,145.70235 C79.2041775,131.08094 92.4950392,110.121149 89.4537859,101.896606 L59.1362924,92.5827676 C59.1362924,92.5827676 52.183812,129.998956 51.2845953,144.569191 C50.6339426,155.030809 62.616188,186.788512 62.616188,186.788512 L72.3906005,186.788512 C72.3906005,186.788512 74.2182768,163.423499 74.2182768,145.70235 Z" id="Path" fill="#6558F5"></path>
                        <path d="M76.1556136,46.2402089 L74.3644909,47.1321149 C73.7869452,47.4099217 73.2020888,47.6657963 72.6245431,47.9289817 C71.462141,48.4480418 70.2851175,48.9159269 69.1007833,49.3911227 C66.6820483,50.3311953 64.2148261,51.1414008 61.7096606,51.8182768 C59.0027954,52.5809888 56.2291365,53.0828424 53.4266319,53.3169713 C51.7384697,53.4570961 50.0402097,53.4178866 48.3603133,53.2 C47.3079943,53.0584705 46.2721809,52.8135973 45.2678851,52.4689295 C43.9925293,52.0279401 42.7992705,51.3781947 41.7368146,50.5462141 L41.4005222,50.2830287 C40.4944335,49.5779611 39.8239225,48.6142608 39.4778068,47.5195822 C38.9589987,45.9474727 38.7117728,44.2984758 38.7467363,42.643342 C38.7781566,41.3673917 38.9126237,40.0960662 39.1488251,38.8417755 C39.3444881,37.7215264 39.6131192,36.6152548 39.9530026,35.5300261 C40.2673629,34.4772846 40.6036554,33.4610966 40.983812,32.4814621 C41.7349129,30.5557092 42.5940676,28.6738676 43.5571802,26.8449086 C44.5054837,25.0290773 45.5651194,23.2735979 46.7300261,21.5885117 C47.740269,20.1584002 49.6043507,19.6155576 51.2244592,20.2796798 C52.8445677,20.9438019 53.79128,22.6388577 53.5070496,24.3665796 L53.5070496,24.5347258 L52.5932115,29.9738903 C52.3007833,31.7723238 52.0229765,33.5561358 51.862141,35.2814621 C51.6521878,36.8932734 51.5544765,38.5177245 51.5697128,40.1430809 C51.5733986,40.7857217 51.6345649,41.4267446 51.7524804,42.0584856 C51.862141,42.5556136 52.0156658,42.891906 52.05953,42.7895561 L49.8224543,39.8140992 C49.5958225,39.5947781 49.4496084,39.5143603 49.4715405,39.4851175 C49.4934726,39.4558747 49.6250653,39.4851175 49.8590078,39.4851175 C50.5478178,39.452291 51.233915,39.3766006 51.9133159,39.2584856 C52.8251012,39.095177 53.7279347,38.8853292 54.6182768,38.629765 C55.5686684,38.381201 56.5556136,38.0887728 57.5425587,37.7524804 C59.5310705,37.0725849 61.5707572,36.2903394 63.6104439,35.4934726 C64.6339426,35.0840731 65.6428198,34.6454308 66.6663185,34.2214099 L69.5906005,32.9493473 L69.8976501,32.8104439 C73.5781622,31.2815975 77.8093048,32.9299251 79.4856474,36.545643 C81.16199,40.1613609 79.6860078,44.4556626 76.1409922,46.2767624 L76.1556136,46.2402089 Z" id="Path" fill="#FF8B7B"></path>
                        <path d="M48.1409922,23.0725849 L52.4177546,23.3357702 C56.7237598,22.0125326 54.0553525,16.7561358 54.0553525,16.7561358 L53.7921671,13.7221932 C53.6286308,12.6306077 52.7024747,11.8155904 51.5989556,11.7921671 L48.6088773,11.5801567 C47.3369001,11.4096459 46.1616058,12.2862467 45.9624021,13.554047 L45.7577023,16.2078329 C45.7001039,16.978114 45.8305665,17.7508539 46.137859,18.45953 L48.1409922,23.0725849 Z" id="Path" fill="#FF8B7B"></path>
                        <path d="M75.7096606,31.8600522 C85.0209832,33.5622247 94.1149665,36.2911553 102.825065,39.9968668 C105.217574,41.0636788 107.063663,43.0706995 107.927253,45.5438341 C108.790844,48.0169688 108.595348,50.7368878 107.386945,53.0610966 C97.1519582,73.1874674 91.9321149,99.4986945 90.3018277,103.592689 C90.3018277,103.592689 62.7477807,104.272585 48.1921671,96.8156658 C42.7616128,94.0243342 39.9645304,87.8640931 41.4370757,81.9383812 C47.227154,58.6245431 60.7007833,42.124282 66.9368146,34.9817232 C69.1161152,32.4817457 72.441014,31.2986359 75.7096606,31.8600522 L75.7096606,31.8600522 Z" id="Path" fill="#FF8B7B"></path>
                        <path d="M40.3185379,87.2751958 C39.7058443,88.2336079 39.3974689,89.354973 39.4339426,90.491906 C39.4269729,90.5354934 39.4269729,90.5799113 39.4339426,90.6234987 C39.6020888,91.2302872 41.1519582,95.7848564 50.1148825,100.127415 C60.7958225,105.244909 81.273107,106.136815 90.3237598,105.478851 C90.509858,105.467517 90.680089,105.370242 90.7843342,105.215666 C91.2056581,104.379465 91.4542897,103.466987 91.5154047,102.532637 C91.53768,102.354844 91.479257,102.176409 91.3561428,102.046219 C91.2330286,101.916029 91.0581324,101.847736 90.8793734,101.860052 C86.7707572,102.086684 65.1310705,102.942037 51.2626632,96.3770235 C44.4417755,93.1530026 42.0804178,89.1759791 41.3347258,87.443342 C41.254446,87.2498177 41.08001,87.1113995 40.8733057,87.0771967 C40.6666013,87.0429938 40.4568761,87.1178457 40.3185379,87.2751958 L40.3185379,87.2751958 Z" id="Path" fill="#263238"></path>
                        <path d="M82.464752,43.65953 C81.2475634,43.6862744 80.0401898,43.4363006 78.9336815,42.9284595 C77.7146172,42.4402918 76.7783875,41.4316317 76.3822454,40.1796345 C75.7754569,37.8694517 77.5665796,35.2522193 78.7509138,33.526893 C79.0546253,33.1173045 79.3259434,32.6846621 79.5624021,32.2328982 C79.6328893,32.069219 79.8208897,31.9914257 79.986423,32.0574413 C80.0651064,32.0911874 80.1270909,32.1549082 80.1586507,32.2344938 C80.1902105,32.3140794 80.1887416,32.4029628 80.1545692,32.4814621 C79.9070898,32.976706 79.6159457,33.4488976 79.2845953,33.8924282 C78.1660574,35.5227154 76.4699739,37.986423 77.0036554,40.0114883 C77.3549255,41.0743207 78.1575792,41.9278091 79.1968668,42.3436031 C84.7018277,45.0412533 93.4673629,39.2 96.7425587,37.0067885 L96.8522193,36.9336815 C96.94746,36.8637005 97.0734063,36.8515835 97.180242,36.902123 C97.2870777,36.9526626 97.3575945,37.0577182 97.3639004,37.1757366 C97.3702064,37.2937551 97.3112858,37.4057267 97.2104439,37.4673629 L97.1007833,37.54047 C94.3958225,39.3535248 87.9258486,43.65953 82.464752,43.65953 Z" id="Path" fill="#FFFFFF"></path>
                        <path d="M82.018799,33.1321149 C75.4391645,38.6224543 53.397389,61.4684073 47.3368146,100.061619 C36.1441253,95.3315927 40.7571802,85.5718016 34.6015666,80.4762402 C37.1091384,78.6120104 53.2219321,52.2057441 56.5921671,45.4579634 C59.9624021,38.7101828 69.9415144,30.8365535 74.5911227,30.9535248 C76.9581552,31.0135526 79.3169085,31.257983 81.645953,31.6845953 C81.9642004,31.7387861 82.220901,31.9749151 82.3014254,32.2875393 C82.3819498,32.6001635 82.2712657,32.9309219 82.018799,33.1321149 L82.018799,33.1321149 Z" id="Path" fill="#263238"></path>
                        <path d="M82.018799,33.1321149 C75.4391645,38.6224543 53.397389,61.4684073 47.3368146,100.061619 C36.1441253,95.3315927 40.7571802,85.5718016 34.6015666,80.4762402 C37.1091384,78.6120104 53.2219321,52.2057441 56.5921671,45.4579634 C59.9624021,38.7101828 69.9415144,30.8365535 74.5911227,30.9535248 C76.9581552,31.0135526 79.3169085,31.257983 81.645953,31.6845953 C81.9642004,31.7387861 82.220901,31.9749151 82.3014254,32.2875393 C82.3819498,32.6001635 82.2712657,32.9309219 82.018799,33.1321149 L82.018799,33.1321149 Z" id="Path" fill="#FFFFFF" opacity="0.1"></path>
                        <path d="M55.3127937,86.675718 C55.1885117,87.2020888 54.8302872,87.5603133 54.5086162,87.4872063 C54.1869452,87.4140992 54.0334204,86.924282 54.1577023,86.4052219 C54.2819843,85.8861619 54.6402089,85.5206266 54.9618799,85.6010444 C55.2835509,85.6814621 55.4370757,86.156658 55.3127937,86.675718 Z" id="Path" fill="#000000" opacity="0.2"></path>
                        <path d="M79.2041775,35.8955614 C80.1199293,34.8035539 81.376618,34.0516008 82.7718016,33.7608355 C83.5804545,32.5902703 84.0092631,31.1991948 84,29.7765013 L98.767624,28.7895561 C96.2746736,33.4464752 94.3154047,37.1310705 95.2877285,40.0041775 C92.1368146,41.0642298 86.3906005,42.9284595 81.1707572,41.2762402 C75.9509138,39.6240209 77.756658,37.7305483 79.2041775,35.8955614 Z" id="Path" fill="#FF8B7B"></path>
                        <path d="M103.70235,39.572846 C101.960947,38.4107208 100.295587,37.1385027 98.7164491,35.7639687 C97.8897212,35.0483474 96.6798293,34.9939023 95.7921671,35.632376 C91.3399478,38.8563969 78.6046997,48.8355091 72.6830287,61.3879896 C65.4308094,76.74047 62.1117493,102.327937 63.4715405,106.378068 C77.0109661,103.607311 86.3101828,111.546736 99.2281984,109.967624 C95.8579634,107.810966 98.2997389,85.0673629 100.880418,77.6762402 C103.461097,70.2851175 116.576501,47.1467363 103.70235,39.572846 Z" id="Path" fill="#263238"></path>
                        <path d="M103.70235,39.572846 C101.960947,38.4107208 100.295587,37.1385027 98.7164491,35.7639687 C97.8897212,35.0483474 96.6798293,34.9939023 95.7921671,35.632376 C91.3399478,38.8563969 78.6046997,48.8355091 72.6830287,61.3879896 C65.4308094,76.74047 62.1117493,102.327937 63.4715405,106.378068 C77.0109661,103.607311 86.3101828,111.546736 99.2281984,109.967624 C95.8579634,107.810966 98.2997389,85.0673629 100.880418,77.6762402 C103.461097,70.2851175 116.576501,47.1467363 103.70235,39.572846 Z" id="Path" fill="#FFFFFF" opacity="0.1"></path>
                        <path d="M83.9707572,30.2736292 L94.2057441,32.4668407 C89.9947781,35.3399478 84.818799,35.3911227 83.0788512,33.2637076 C83.5995702,32.3477675 83.9046021,31.3251605 83.9707572,30.2736292 L83.9707572,30.2736292 Z" id="Path" fill="#000000" opacity="0.2"></path>
                        <path d="M104.236031,25.4558747 C99.8496084,30.4856397 96.735248,33.797389 91.9467363,33.6584856 C82.4428198,33.3806789 80.9806789,27.678329 83.8318538,21.4203655 C86.3759791,15.7911227 93.1530026,8.51697128 99.9154047,10.4543081 C102.967375,11.3255176 105.355161,13.7076752 106.233569,16.7575816 C107.111978,19.8074879 106.357061,23.0947807 104.236031,25.4558747 L104.236031,25.4558747 Z" id="Path" fill="#FF8B7B"></path>
                        <path d="M85.2281984,22.970235 C85.2281984,22.970235 87.0778068,23.1018277 91.756658,25.2073107 C90.5357702,27.2177546 89.154047,27.5101828 86.7707572,26.3989556 C85.4276897,25.8469777 84.7503535,24.3414294 85.2281984,22.970235 L85.2281984,22.970235 Z" id="Path" fill="#263238"></path>
                        <path d="M85.462141,22.9994778 C85.3597911,23.4015666 85.2866841,23.862141 85.7618799,24.1399478 C87.1959219,24.6535023 88.6609819,25.0759279 90.1483029,25.4046997 C90.6088773,25.4851175 91.0840731,25.7629243 91.5738903,25.1195822 C89.629084,24.1702207 87.5770759,23.4583997 85.462141,22.9994778 Z" id="Path" fill="#FFFFFF"></path>
                        <path d="M104.162924,14.7091384 C100.792689,16.1712794 98.8553525,23.2480418 100.829243,27.305483 C106.246475,27.4443864 108.724804,19.4830287 108.724804,19.4830287 L104.162924,14.7091384 Z" id="Path" fill="#263238" opacity="0.6"></path>
                        <path d="M102.444909,31.172846 C101.174957,31.8260924 99.6986291,31.9521844 98.3362924,31.5237598 C96.5671018,30.9462141 96.786423,29.089295 98.2120104,27.9342037 C99.4840731,26.8960836 101.947781,25.9530026 103.278329,27.1665796 C104.608877,28.3801567 104.024021,30.3467363 102.444909,31.172846 Z" id="Path" fill="#FF8B7B"></path>
                        <path d="M91.5154047,18.335248 L88.7519582,21.9906005 C88.7519582,21.9906005 87.1289817,21.25953 86.7853786,20.0093995 C88.1836165,19.0377098 89.8172264,18.4595079 91.5154047,18.335248 L91.5154047,18.335248 Z" id="Path" fill="#FF5652"></path>
                        <path d="M94.6151436,16.8146214 C94.564177,16.8350807 94.5189967,16.8677109 94.4835509,16.9096606 C94.4275827,16.9734953 94.4005416,17.0576536 94.4088519,17.1421418 C94.4171622,17.2266299 94.4600822,17.3039069 94.5274151,17.3556136 C95.3129618,18.0280008 96.375356,18.2786168 97.3785901,18.0281984 C97.4592879,18.0047609 97.5268537,17.9492739 97.5655353,17.8746737 C97.6042169,17.8000735 97.6106338,17.7128796 97.5832898,17.6334204 C97.5306866,17.4639366 97.3507661,17.3690694 97.181201,17.4214099 L97.181201,17.4214099 C96.3849738,17.6065216 95.5482251,17.4000512 94.9295039,16.8657963 C94.8405088,16.7957704 94.7217541,16.7764383 94.6151436,16.8146214 Z" id="Path" fill="#263238"></path>
                        <path d="M95.0976501,21.4057441 C95.1383197,21.4169495 95.1812625,21.4169495 95.2219321,21.4057441 C95.2881772,21.3967329 95.3479995,21.361416 95.3878922,21.3077672 C95.4277849,21.2541184 95.4443843,21.1866614 95.4339426,21.1206266 C95.3338734,20.3098773 94.8495023,19.5969266 94.1326371,19.2052219 C94.0717595,19.1757006 94.0014785,19.172271 93.9380158,19.1957246 C93.8745531,19.2191782 93.8233933,19.2674882 93.7963446,19.3295039 C93.7391866,19.4567385 93.7944633,19.6063109 93.9206266,19.6657963 L93.9206266,19.6657963 C94.48475,19.9827137 94.8626664,20.5509477 94.9368146,21.1937337 C94.9481176,21.288299 95.0096274,21.3693801 95.0976501,21.4057441 L95.0976501,21.4057441 Z" id="Path" fill="#263238"></path>
                        <path d="M95.9383812,20.6015666 C95.9802818,20.5921342 96.0199877,20.5747629 96.0553525,20.5503916 C96.1624329,20.4613872 96.1816585,20.3043783 96.0992167,20.1921671 C95.6052894,19.539773 94.8262834,19.1666128 94.0083551,19.1906005 C93.9415403,19.1941507 93.8792006,19.2252892 93.8362303,19.2765763 C93.79326,19.3278634 93.7735188,19.3946925 93.7817232,19.4610966 C93.7970635,19.6007149 93.9193378,19.7036826 94.05953,19.6950392 L94.05953,19.6950392 C94.7047303,19.6838011 95.3152663,19.9863435 95.6971279,20.5065274 C95.757655,20.5750576 95.8473766,20.6104024 95.9383812,20.6015666 Z" id="Path" fill="#263238"></path>
                        <path d="M87.889295,15.7618799 C87.8784627,15.7186844 87.8784627,15.6734827 87.889295,15.6302872 C87.9218853,15.4966678 88.0542737,15.4127142 88.1890339,15.4402089 C88.9973831,15.6027915 89.6762878,16.1480965 90.0093995,16.9023499 C90.0407418,16.9859295 90.0251142,17.0798812 89.9684033,17.1488143 C89.9116924,17.2177474 89.822514,17.2511893 89.7344607,17.2365428 C89.6464075,17.2218962 89.5728567,17.1613864 89.5415144,17.0778068 L89.5415144,17.0778068 C89.2569032,16.4959776 88.7154019,16.0817291 88.0793734,15.9592689 C87.9821916,15.9374932 87.9073894,15.8598139 87.889295,15.7618799 Z" id="Path" fill="#263238"></path>
                        <path d="M88.7519582,14.9723238 C88.760854,14.9310345 88.781111,14.8930527 88.8104439,14.8626632 C88.9099391,14.7651384 89.0691732,14.7651384 89.1686684,14.8626632 C89.7849014,15.3984118 90.1036388,16.1993415 90.0240209,17.0120104 C90.0015362,17.1479018 89.8755147,17.2416101 89.7389034,17.2240209 C89.6019419,17.198073 89.508968,17.0698332 89.526893,16.9315927 L89.526893,16.9315927 C89.57268,16.2811273 89.3001495,15.6488564 88.7958225,15.2355091 C88.7359409,15.1615965 88.7192851,15.0616622 88.7519582,14.9723238 L88.7519582,14.9723238 Z" id="Path" fill="#263238"></path>
                        <path d="M89.724282,13.0203655 C89.7939784,13.103743 89.9017945,13.1452107 90.0093995,13.1300261 C90.8101422,12.9876389 91.6297853,13.2471925 92.202611,13.8245431 C92.3280405,13.9490689 92.5304451,13.9490689 92.6558747,13.8245431 C92.715252,13.7655339 92.748641,13.6852789 92.748641,13.6015666 C92.748641,13.5178542 92.715252,13.4375993 92.6558747,13.3785901 C91.9419891,12.6414233 90.9126283,12.3001233 89.8997389,12.464752 C89.8151085,12.4736124 89.7379499,12.5171958 89.6866727,12.5851035 C89.6353954,12.6530113 89.6145981,12.7391532 89.6292428,12.8229765 C89.6368509,12.8978663 89.6704823,12.9677162 89.724282,13.0203655 L89.724282,13.0203655 Z" id="Path" fill="#263238"></path>
                        <path d="M107.832898,48.1921671 L108.066841,49.3691906 L108.256919,50.4511749 C108.37389,51.1822454 108.46893,51.9133159 108.563969,52.6005222 C108.761358,54.0626632 108.89295,55.4590078 109.002611,56.8992167 C109.226773,59.8181922 109.260962,62.7486519 109.104961,65.6720627 C109.017232,67.1707572 108.88564,68.6840731 108.68094,70.2193211 C108.447199,71.8019014 108.129959,73.3710187 107.730548,74.9201044 C106.87895,78.5360407 105.224896,81.914109 102.890862,84.8041775 L102.583812,85.1770235 C102.019588,85.8513487 101.295852,86.3740468 100.478329,86.6976501 C98.3767671,87.5084009 96.176249,88.0345583 93.935248,88.262141 C91.9936725,88.4785158 90.0397378,88.5640004 88.0866841,88.5180157 C86.1859008,88.4668407 84.3143603,88.335248 82.464752,88.1013055 C80.6012369,87.8709411 78.7531931,87.5291629 76.9305483,87.0778068 C75.2490902,86.6628578 74.0676004,85.1543562 74.0676004,83.4224543 C74.0676004,81.6905525 75.2490902,80.1820508 76.9305483,79.7671018 L77.1571802,79.7086162 C78.7509138,79.2992167 80.4762402,78.9775457 82.1065274,78.5608355 C83.7368146,78.1441253 85.3744125,77.829765 86.9462141,77.3911227 C88.5180157,76.9524804 90.0386423,76.5357702 91.4349869,76.0678851 C92.6395243,75.6850223 93.7970533,75.1675676 94.8856397,74.5253264 L92.473107,76.4261097 C93.2330209,74.9777526 93.7398787,73.4102024 93.9718016,71.7911227 C94.3073853,69.614152 94.4711631,67.4141518 94.4616188,65.2114883 C94.4616188,62.8866841 94.3519582,60.4887728 94.1253264,58.0762402 C94.0302872,56.8626632 93.8913838,55.6563969 93.7597911,54.4208877 L93.5331593,52.6224543 L93.416188,51.737859 L93.3065274,50.9483029 L93.2553525,50.6193211 C92.7706755,46.6780337 95.474748,43.0537189 99.3908457,42.3958145 C103.306943,41.7379101 107.046909,44.2796264 107.876762,48.1629243 L107.832898,48.1921671 Z" id="Path" fill="#FF8B7B"></path>
                        <path d="M104.499217,48.5430809 C103.619768,47.7281572 102.248904,47.7704879 101.42141,48.6381201 C101.003237,48.236378 100.440476,48.0206508 99.8609122,48.0399237 C99.2813488,48.0591966 98.7341625,48.3118342 98.3436031,48.74047 C97.6178898,49.7191309 97.7990148,51.0969752 98.7530026,51.8548303 L102.232898,54.8741514 L104.901305,51.6574413 C105.628687,50.6806551 105.450833,49.303095 104.499217,48.5430809 L104.499217,48.5430809 Z" id="Path" fill="#263238" opacity="0.6"></path>
                        <path d="M72.3759791,186.817755 L62.6015666,186.817755 C63.6396867,195.020366 54.7133159,195.992689 54.7133159,195.992689 C54.2552343,196.945206 54.0584434,198.002327 54.1430809,199.055875 L71.0819843,199.055875 C71.5026877,199.056042 71.905558,198.885974 72.1988802,198.58439 C72.4922025,198.282805 72.6510153,197.875367 72.6391645,197.45483 C72.5806789,195.122715 72.4563969,190.743603 72.3759791,186.817755 Z" id="Path" fill="#263238"></path>
                        <polygon id="Rectangle" fill="#263238" transform="translate(91.581899, 138.887947) rotate(-18.160000) translate(-91.581899, -138.887947) " points="90.0027863 96.2190171 93.1610109 96.2190171 93.1610109 181.556876 90.0027863 181.556876"></polygon>
                        <path d="M76.0197426,87.3250907 L77.7265833,87.3250907 C78.4887363,87.3250907 79.1065833,87.9429378 79.1065833,88.7050907 L79.1065833,99.3967878 C79.1065833,100.158941 78.4887363,100.776788 77.7265833,100.776788 L76.0197426,100.776788 C75.2575896,100.776788 74.6397426,100.158941 74.6397426,99.3967878 L74.6397426,88.7050907 C74.6397426,87.9429378 75.2575896,87.3250907 76.0197426,87.3250907 Z" id="Rectangle" fill="#263238" transform="translate(76.873163, 94.050939) rotate(-18.160000) translate(-76.873163, -94.050939) "></path>
                        <path d="M48.5822048,4.8161349 L49.8135364,4.8161349 C50.3658211,4.8161349 50.8135364,5.26385015 50.8135364,5.8161349 L50.8135364,13.5393725 C50.8135364,14.0916572 50.3658211,14.5393725 49.8135364,14.5393725 L48.5822048,14.5393725 C48.02992,14.5393725 47.5822048,14.0916572 47.5822048,13.5393725 L47.5822048,5.8161349 C47.5822048,5.26385015 48.02992,4.8161349 48.5822048,4.8161349 Z" id="Rectangle" fill="#263238" transform="translate(49.197871, 9.677754) rotate(-18.160000) translate(-49.197871, -9.677754) "></path>
                        <path d="M47.2313976,1.82816247 L49.3948962,1.82816247 C49.8532926,1.82816247 50.2248962,2.19976613 50.2248962,2.65816247 L50.2248962,6.70051234 C50.2248962,7.15890868 49.8532926,7.53051234 49.3948962,7.53051234 L47.2313976,7.53051234 C46.7730012,7.53051234 46.4013976,7.15890868 46.4013976,6.70051234 L46.4013976,2.65816247 C46.4013976,2.19976613 46.7730012,1.82816247 47.2313976,1.82816247 Z" id="Rectangle" fill="#263238" transform="translate(48.313147, 4.679337) rotate(99.210000) translate(-48.313147, -4.679337) "></path>
                        <polygon id="Rectangle" fill="#263238" transform="translate(63.977548, 54.729204) rotate(-18.160000) translate(-63.977548, -54.729204) " points="62.8297672 5.27594051 65.1253285 5.27594051 65.1253285 104.182468 62.8297672 104.182468"></polygon>
                        <path d="M104.097128,179.170757 C103.939292,179.1723 103.804785,179.056561 103.782768,178.900261 C103.767939,178.815882 103.787383,178.729073 103.836789,178.659082 C103.886194,178.58909 103.96148,178.541699 104.045953,178.527415 C104.089817,178.527415 108.505483,177.74517 109.002611,175.347258 C109.397389,173.424543 107.138381,170.814621 102.481462,167.809922 C90.0532637,159.768146 90.2140992,151.185379 90.4699739,138.150392 C90.5065274,136.074151 90.5503916,133.924804 90.5503916,131.621932 C90.5503916,118.184856 84.5556136,107.840209 78.2245431,96.8814621 C76.6015666,94.0741514 74.9201044,91.1644909 73.3336815,88.1817232 C66.754047,75.797389 66.754047,72.3174935 66.7174935,67.9237598 C66.7174935,67.1926893 66.7174935,66.381201 66.6736292,65.5185379 C66.4908616,61.1979112 64.6997389,59.0046997 62.4261097,56.2339426 C61.0802781,54.6588937 59.8581883,52.9821864 58.7707572,51.218799 C55.6490862,46.0062663 56.4386423,42.8261097 57.3086162,39.4558747 C58.0396867,36.4365535 58.9096606,33.0151436 57.089295,27.4736292 C54.4720627,19.4976501 49.705483,15.9446475 45.494517,12.8083551 C43.5501468,11.4729462 41.7559026,9.93117074 40.1430809,8.20992167 C37.6939948,5.38067885 36.7874674,3.3848564 37.3723238,2.09086162 C37.7671018,1.22819843 38.7759791,0.782245431 40.3843342,0.774934726 L40.3843342,0.774934726 C40.5619882,0.774934726 40.7060052,0.918951746 40.7060052,1.09660574 C40.7060052,1.27425974 40.5619882,1.41827676 40.3843342,1.41827676 C39.4704961,1.41827676 38.3007833,1.59373368 37.9498695,2.3613577 C37.5989556,3.12898172 37.8402089,4.55456919 40.6255875,7.78590078 C42.208744,9.47090502 43.9685626,10.9807215 45.8746736,12.289295 C50.1587467,15.4840731 55.0130548,19.0955614 57.6960836,27.2762402 C59.567624,32.9932115 58.6976501,36.5096606 57.9227154,39.6093995 C57.089295,42.9869452 56.3655352,45.9039164 59.3409922,50.8898172 C60.4118263,52.6243966 61.6143192,54.2741581 62.937859,55.8245431 C65.1895561,58.5806789 67.1342037,60.9420366 67.324282,65.489295 C67.324282,66.3665796 67.3681462,67.1561358 67.3681462,67.9237598 C67.3681462,72.229765 67.3681462,75.6292428 73.9477807,87.8819843 C75.526893,90.8501305 77.2083551,93.7305483 78.8313316,96.5597911 C85.1989556,107.591645 91.2229765,118.009399 91.25953,131.651175 C91.25953,133.961358 91.2229765,136.110705 91.1791123,138.194256 C90.9159269,151.470496 90.7624021,159.475718 102.87624,167.298172 C107.84752,170.507572 110.13577,173.263708 109.675196,175.508094 C109.09765,178.337337 104.396867,179.163446 104.199478,179.2 L104.097128,179.170757 Z" id="Path" fill="#263238"></path>
                        <path d="M62.2140992,7.99791123 L40.5013055,3.03394256 C39.9524394,2.90660987 39.5951041,2.37698781 39.6825065,1.82036554 L39.8214099,0.97232376 C39.8661555,0.690295543 40.0220438,0.437956908 40.2542243,0.271721194 C40.4864047,0.10548548 40.7755143,0.039216132 41.0569191,0.0877284595 L62.8720627,3.82349869 L62.2140992,7.99791123 Z" id="Path" fill="#263238"></path>
                        <path d="M64.1441253,9.5843342 L62.4699739,9.05796345 C60.9831679,8.58218414 60.0688794,7.08946821 60.3206266,5.54882507 L60.3206266,5.54882507 C60.5674897,4.00631298 61.9095726,2.87908794 63.4715405,2.90234987 L65.2261097,2.90234987 C66.1425405,2.91355836 67.0084472,3.32414451 67.5971082,4.02660397 C68.1857693,4.72906344 68.4385612,5.65343981 68.289295,6.55770235 L68.2088773,7.0694517 C68.0663925,7.97685796 67.5350488,8.77691758 66.7539393,9.26019394 C65.9728299,9.7434703 65.0197251,9.86184641 64.1441253,9.5843342 Z" id="Path" fill="#263238"></path>
                        <path d="M101.925849,173.819321 L100.098172,182.555614 C99.9885632,182.991878 100.126214,183.45316 100.456979,183.758013 C100.787745,184.062866 101.258701,184.162512 101.684595,184.017755 L110.172324,181.239687 C110.590149,181.101361 110.902841,180.751208 110.993208,180.320458 C111.083575,179.889708 110.937971,179.443408 110.610966,179.148825 L103.958225,173.190601 C103.634692,172.896901 103.180088,172.795937 102.762647,172.925073 C102.345206,173.05421 102.027023,173.394237 101.925849,173.819321 Z" id="Path" fill="#263238"></path>
                        <polygon id="Path" fill="#263238" points="109.528982 188.506527 106.531593 189.486162 103.219843 178.110705 105.46423 177.379634"></polygon>
                        <polygon id="Path" fill="#263238" points="86.9681462 195.904961 85.4694517 194.069974 105.05483 178.849086 106.348825 180.069974"></polygon>
                        <polygon id="Path" fill="#263238" points="129.099739 182.087728 129.21671 179.71906 104.418799 179.053786 104.097128 180.808355"></polygon>
                        <path d="M79.2334204,81.0391645 L79.1310705,85.3232376 C77.4349869,89.4976501 72.4490862,86.3906005 72.4490862,86.3906005 L69.4443864,85.8642298 C68.3634719,85.6025811 67.6304687,84.5974079 67.7117493,83.4882507 L67.7629243,80.4908616 C67.7040564,79.2091149 68.6764633,78.1135365 69.9561358,78.0198433 L72.6172324,78.0198433 C73.3848088,78.0280701 74.1383667,78.226507 74.8104439,78.597389 L79.2334204,81.0391645 Z" id="Path" fill="#FF8B7B"></path>
                        <path d="M4.50339426,191.189556 C2.7926893,190.209922 1.52062663,189.508094 0.782245431,188.440731 C0.0438642298,187.373368 2.77806789,185.933159 5.81201044,186.861619 C8.97754569,187.833943 8.78746736,190.29765 8.36344648,191.730548 C8.27863363,192.028075 8.06807447,192.273703 7.78700651,192.402994 C7.50593855,192.532285 7.18241404,192.532336 6.90130548,192.403133 C6.08053556,192.042498 5.28004327,191.63737 4.50339426,191.189556 L4.50339426,191.189556 Z" id="Path" fill="#6558F5"></path>
                        <path d="M58.602611,199.026657 L51.6281984,199.026657 C51.195062,199.029447 50.7958281,198.792679 50.5905652,198.411258 C50.3853023,198.029836 50.4076176,197.566211 50.648564,197.206266 C51.6267986,195.857212 53.2006207,195.068937 54.8668407,195.093473 C57.8349869,194.976501 58.9535248,196.760313 59.3629243,197.96658 C59.4451514,198.211574 59.4046297,198.481158 59.2540124,198.691154 C59.103395,198.901149 58.8610354,199.025967 58.602611,199.026657 Z" id="Path" fill="#6558F5"></path>
                        <path d="M53.0099217,145.70235 C52.6809399,146.959791 52.2203655,150.863708 53.0099217,152.194256 C53.2584856,151.368146 53.4558747,151.316971 53.4558747,151.316971 C53.7499947,152.739877 54.6642313,153.957072 55.9488251,154.636031 C56.0095016,154.379206 56.1472515,154.147072 56.3436031,153.970757 C57.2096727,154.619872 58.1128595,155.217928 59.048564,155.76188 C58.5806789,154.93577 59.9112272,152.910705 59.9112272,152.910705 C60.0241611,153.279983 60.0241611,153.674586 59.9112272,154.043864 C60.5399478,153.663708 61.5853786,150.205744 61.227154,148.231854 C59.2167102,148.136815 53.0099217,145.70235 53.0099217,145.70235 Z" id="Path" fill="#263238"></path>
                        <ellipse id="Oval" fill="#FF8B7B" transform="translate(57.106043, 147.241726) rotate(-8.080000) translate(-57.106043, -147.241726) " cx="57.1060425" cy="147.241726" rx="4.08668407" ry="5.99477807"></ellipse>
                        <path d="M24.5859008,138.384334 C23.2985202,139.388725 22.4518138,140.854077 22.2245431,142.471018 C22.6266319,141.878851 23.8913838,141.849608 23.8913838,141.849608 C23.1974763,142.831539 22.7009005,143.938903 22.4292428,145.110183 C23.8913838,144.949347 27.429765,143.158225 29.0088773,140.087728 C26.7937337,139.159269 24.5859008,138.384334 24.5859008,138.384334 Z" id="Path" fill="#263238"></path>
                        <path d="M30.3613577,136.9953 C29.5206266,140.197389 27.5613577,142.456397 25.9749347,142.039687 C24.3885117,141.622977 23.7817232,138.698695 24.6590078,135.460052 C25.5362924,132.22141 27.4590078,130.006266 29.0454308,130.415666 C30.6318538,130.825065 31.2093995,133.785901 30.3613577,136.9953 Z" id="Path" fill="#FF8B7B"></path>
                        <path d="M65.2041775,152.998433 C64.845953,154.160836 63.9028721,154.906527 63.1133159,154.657963 C62.3237598,154.409399 61.9655352,153.26893 62.3310705,152.106527 C62.6966057,150.944125 63.632376,150.198433 64.4219321,150.446997 C65.2114883,150.695561 65.5697128,151.836031 65.2041775,152.998433 Z" id="Path" fill="#FF8B7B"></path>
                        <path d="M61.1321149,194.267363 C60.9639096,194.271682 60.8221275,194.142789 60.8104439,193.974935 C60.8023254,193.889547 60.8286456,193.804452 60.8835562,193.73856 C60.9384669,193.672667 61.0174198,193.631433 61.1028721,193.624021 L63.9467363,193.41201 L62.0240209,192.315405 C61.9066542,192.254081 61.8418244,192.124421 61.8631854,191.993734 C61.8810694,191.865355 61.9726688,191.759443 62.0971279,191.723238 L64.7509138,190.992167 L63.1206266,190.012533 C63.0190486,189.953918 62.9574198,189.844667 62.9597911,189.727415 C62.961555,189.611242 63.0258301,189.505048 63.1279373,189.449608 L64.970235,188.440731 L63.186423,187.863185 C63.0159571,187.807341 62.9216499,187.625231 62.9744125,187.453786 C63.001103,187.372029 63.0594215,187.304364 63.1363455,187.265902 C63.2132694,187.22744 63.302392,187.221384 63.383812,187.249086 L65.8840731,188.053264 C66.0061352,188.093706 66.0923849,188.202955 66.1033943,188.33107 C66.1192587,188.458914 66.0555182,188.583497 65.9425587,188.645431 L63.9321149,189.749347 L65.737859,190.831332 C65.8477173,190.899143 65.9077583,191.024943 65.8913838,191.153003 C65.8726077,191.279414 65.7807795,191.382721 65.6574413,191.416188 L63.0255875,192.147258 L65.218799,193.375457 C65.3426136,193.445378 65.407493,193.586933 65.3796345,193.726371 C65.3443746,193.863881 65.2281804,193.965551 65.0872063,193.982245 L61.1832898,194.274674 L61.1321149,194.267363 Z" id="Path" fill="#6558F5"></path>
                        <path d="M13.4224543,189.683551 C13.3788574,189.690399 13.3344586,189.690399 13.2908616,189.683551 L9.8767624,188.11906 C9.71569123,188.045977 9.64384353,187.85656 9.71592689,187.695039 C9.74945778,187.616295 9.81364508,187.554627 9.89366748,187.524274 C9.97368989,187.49392 10.0626289,187.497506 10.1399478,187.534204 L12.7498695,188.718538 L11.8360313,186.825065 C11.7740712,186.724157 11.7740712,186.596992 11.8360313,186.496084 C11.9034221,186.399555 12.0190989,186.34877 12.1357702,186.364491 L14.3947781,186.67154 L13.5394256,184.770757 C13.4845765,184.675756 13.4845765,184.558709 13.5394256,184.463708 C13.597059,184.366495 13.7044708,184.309962 13.8172324,184.317493 L15.6741514,184.38329 L14.4898172,182.840731 C14.4083673,182.697469 14.4454842,182.516045 14.576654,182.416282 C14.7078239,182.316519 14.8925704,182.329202 15.0088773,182.445953 L16.602611,184.536815 C16.6689065,184.641756 16.6689065,184.775477 16.602611,184.880418 C16.5429678,184.989964 16.4275921,185.057501 16.3028721,185.055875 L14.2851175,184.982768 L15.1697128,186.942037 C15.2148451,187.050161 15.1990652,187.17413 15.1282846,187.2675 C15.0575041,187.36087 14.942406,187.409549 14.8261097,187.3953 L12.5890339,187.088251 L13.627154,189.244909 C13.6867473,189.366888 13.6633455,189.513148 13.5686684,189.610444 C13.5272302,189.64728 13.4767865,189.672502 13.4224543,189.683551 L13.4224543,189.683551 Z" id="Path" fill="#6558F5"></path>
                        <path d="M109.441253,21.9321149 C109.243864,26.3185379 107.832898,15.8788512 100.544125,13.9342037 C95.7409922,12.6475196 91.5154047,12.4720627 90.689295,9.98642298 C94.2057441,9.8767624 95.9530026,9.08720627 100.288251,9.80365535 C104.623499,10.5201044 109.799478,14.0657963 109.441253,21.9321149 Z" id="Path" fill="#263238"></path>
                    </g>
                    <g id="freepik--character-2--inject-78" transform="translate(168.877285, 67.989556)">
                        <path d="M37.7451697,22.8971279 C33.2563969,25.4997389 32.1305483,19.7535248 33.1467363,17.048564 C34.1629243,14.3436031 33.3660574,13.8318538 31.4725849,11.126893 C28.7383812,7.2156658 33.1467363,2.00313316 37.8402089,3.20208877 C41.4955614,4.13785901 45.8234987,5.18328982 50.6339426,1.65953003 C59.2532637,-4.64229765 60.3718016,14.0438642 66.0449086,6.55039164 C69.627154,14.2778068 62.2725849,23.7524804 51.4746736,24.6516971 C38.0156658,25.7848564 37.7451697,22.8971279 37.7451697,22.8971279 Z" id="Path" fill="#6558F5"></path>
                        <path d="M37.4381201,3.12898172 L41.5248042,4.73002611 C44.7853786,4.51070496 47.4172324,2.63185379 48.2798956,1.07467363 C45.1070496,4.05744125 39.9968668,3.51644909 37.4381201,3.12898172 Z" id="Path" fill="#6558F5"></path>
                        <path d="M32.7300261,20.2872063 C32.2255875,19.3221932 31.9989556,16.0177546 32.4083551,14.6287206 C32.2986945,15.6814621 33.6292428,16.9754569 33.6292428,16.9754569 C33.6292428,16.9754569 33.6292428,22.0344648 32.7300261,20.2872063 Z" id="Path" fill="#6558F5"></path>
                        <path d="M60.3571802,5.84856397 L61.5780679,8.20992167 C63.9101828,8.56814621 64.8240209,7.55926893 64.4365535,6.58694517 C63.9686684,7.89556136 61.9070496,7.20104439 60.3571802,5.84856397 Z" id="Path" fill="#6558F5"></path>
                        <path d="M35.186423,24.4396867 C31.6699739,22.9336815 30.9900783,19.1321149 31.2751958,16.6610966 C31.5988945,18.3730765 32.5770806,19.891494 34.0020888,20.8939948 L35.186423,24.4396867 Z" id="Path" fill="#6558F5"></path>
                        <path d="M48.0167102,23.0214099 L50.8240209,26.1577023 C57.7399478,25.6240209 62.1921671,23.1968668 66.1765013,18.4083551 C62.616188,21.705483 55.1300261,24.505483 48.0167102,23.0214099 Z" id="Path" fill="#6558F5"></path>
                        <path d="M71.1477807,73.6553525 L74.9639687,71.3232376 L75.5488251,78.5754569 C75.5488251,78.5754569 71.5718016,79.1091384 68.9691906,77.6981723 L69.0715405,76.8720627 C69.2396526,75.5403222 70.0034435,74.3569841 71.1477807,73.6553525 Z" id="Path" fill="#7F3E3B"></path>
                        <path d="M78.721671,74.386423 L78.5900783,76.7185379 C78.5259352,77.7323686 77.6975465,78.5290183 76.6819843,78.5535248 L75.5488251,78.5535248 L74.9639687,71.3013055 L77.5738903,72.4710183 C78.3184784,72.8076622 78.7759424,73.5710733 78.721671,74.386423 L78.721671,74.386423 Z" id="Path" fill="#7F3E3B"></path>
                        <path d="M51.1749347,52.1765013 L51.2407311,53.2950392 L51.3357702,54.5086162 C51.4015666,55.3201044 51.489295,56.1462141 51.5916449,56.9577023 C51.8109661,58.5879896 52.0302872,60.2182768 52.3227154,61.8193211 C52.9073032,64.977367 53.8162072,68.0666605 55.0349869,71.0381201 L55.5174935,72.105483 C55.5686684,72.2443864 55.7660574,72.6099217 55.5613577,72.3028721 C55.4875581,72.1972149 55.3930401,72.1076715 55.2835509,72.0396867 C55.0642298,71.9446475 55.4955614,72.2809399 56.0584856,72.4490862 C56.7217127,72.6631452 57.4014801,72.8220836 58.0908616,72.924282 C58.8219321,73.0558747 59.6407311,73.1582245 60.45953,73.2313316 C63.7274151,73.5383812 67.2511749,73.5456919 70.694517,73.5895561 L70.7603133,73.5895561 C71.8648471,73.5685565 72.8125939,74.3723575 72.9722039,75.4655 C73.1318138,76.5586425 72.4534601,77.5998708 71.3890339,77.8955614 C67.819494,78.9875283 64.1431054,79.6933949 60.4229765,80.0010444 C58.3726337,80.1924826 56.3061645,80.1187679 54.2746736,79.7817232 C52.8037913,79.5511768 51.4125818,78.9610428 50.2245431,78.0637076 C49.7821199,77.7054277 49.3866572,77.292771 49.0475196,76.8355091 C48.8301301,76.5240131 48.632358,76.1992762 48.4553525,75.8631854 L47.724282,74.5618799 C46.8130095,72.8299191 46.0287018,71.0340744 45.3775457,69.1885117 C44.7287163,67.3789571 44.1843903,65.5336187 43.7472585,63.6616188 C43.3154591,61.81134 42.9811431,59.9396582 42.7456919,58.0543081 C42.6287206,57.1112272 42.5263708,56.1681462 42.4532637,55.2177546 C42.4167102,54.7425587 42.3801567,54.2673629 42.3655352,53.7556136 C42.3509138,53.2438642 42.3655352,52.8125326 42.3655352,52.2203655 C42.2827646,49.797811 44.1795343,47.7668437 46.6020888,47.6840731 C49.0246433,47.6013025 51.0556106,49.4980721 51.1383812,51.9206266 L51.1749347,52.1765013 Z" id="Path" fill="#7F3E3B"></path>
                        <path d="M50.9994778,55.4224543 C50.0929504,57.6960836 51.8694517,64.3122715 46.2913838,65.8328982 C44.0981723,70.3143603 40.1503916,68.7571802 38.8344648,76.8720627 L13.9780679,76.8720627 C15.0015666,69.8610966 20.1921671,59.7796345 22.2903394,43.8057441 C22.5235493,42.0430071 23.4922527,40.4614447 24.9565435,39.452742 C26.4208344,38.4440393 28.2437709,38.1025309 29.9738903,38.5127937 C30.9462141,38.7467363 31.9624021,39.0172324 33.0005222,39.324282 C36.6380632,40.3107715 40.2001974,41.5567855 43.65953,43.0527415 C44.7780679,43.5571802 45.9185379,44.1201044 47.0005222,44.6830287 C50.8971715,46.7015809 52.6269264,51.3469372 50.9994778,55.4224543 Z" id="Path" fill="#263238"></path>
                        <path d="M29.2428198,44.6976501 C28.2120104,47.6219321 23.6428198,52.5639687 20.6527415,54.0480418 C21.0548303,51.8548303 21.4422977,49.4861619 21.8224543,46.8616188 L29.2428198,44.6976501 Z" id="Path" fill="#000000" opacity="0.2"></path>
                        <path d="M38.2496084,27.678329 C37.7232376,31.3336815 36.1953003,37.8694517 32.9932115,39.324282 C38.1797278,43.6078927 41.3673588,49.8429518 41.802611,56.5556136 C46.2328982,51.737859 43.6522193,43.0527415 43.6522193,43.0527415 C40.1503916,40.8010444 41.2396867,37.9937337 42.8407311,35.5592689 L38.2496084,27.678329 Z" id="Path" fill="#7F3E3B"></path>
                        <path d="M40.1211488,30.8950392 L42.8407311,35.5592689 C42.4564457,36.1202586 42.1236723,36.7148464 41.8464752,37.3357702 C40.4574413,36.6046997 39.0099217,34.3091384 39.3900783,32.7227154 C39.5218272,32.0744687 39.7694865,31.4553205 40.1211488,30.8950392 Z" id="Path" fill="#000000" opacity="0.2"></path>
                        <path d="M36.8313316,20.1190601 C36.2172324,26.1723238 35.829765,28.7164491 38.2934726,32.2767624 C42,37.6281984 49.0913838,36.8678851 51.4527415,31.1143603 C53.5874674,25.9383812 54.5671018,17.0704961 49.2010444,13.751436 C43.8349869,10.432376 37.4454308,14.073107 36.8313316,20.1190601 Z" id="Path" fill="#7F3E3B"></path>
                        <polygon id="Path" fill="#FFFFFF" points="44.7780679 24.4543081 42.8407311 25.2950392 43.3159269 23.2992167 41.8684073 21.7785901 43.9958225 21.6104439 45.048564 19.8266319 45.8819843 21.7201044 47.9801567 22.1368146 46.3718016 23.4746736 46.6130548 25.5143603"></polygon>
                        <path d="M47.7827676,29.3013055 C45.859385,28.3590736 43.8586514,27.5837281 41.802611,26.983812 C41.9634465,28.3801567 42.6506527,29.7033943 44.9535248,30.4344648 C47.2563969,31.1655352 47.7827676,29.3013055 47.7827676,29.3013055 Z" id="Path" fill="#263238"></path>
                        <path d="M44.1712794,29.1258486 C45.0664912,29.3660457 45.8751781,29.8553139 46.5033943,30.5368146 C45.9902682,30.6543478 45.4539349,30.6187617 44.9608355,30.4344648 C44.0656616,30.1990892 43.2580537,29.7089373 42.6360313,29.0234987 C43.1467294,28.9061324 43.6806804,28.9417292 44.1712794,29.1258486 L44.1712794,29.1258486 Z" id="Path" fill="#630F0F"></path>
                        <path d="M47.5853786,29.2428198 C47.3913087,29.5288139 47.0494789,29.6769402 46.708094,29.6229765 C45.3775305,29.1861293 44.0822172,28.6484521 42.8334204,28.0146214 C42.4223026,27.8552354 42.1106214,27.511031 41.9926893,27.0861619 C43.9057175,27.6714719 45.7746678,28.3921782 47.5853786,29.2428198 L47.5853786,29.2428198 Z" id="Path" fill="#FFFFFF"></path>
                        <path d="M36.2318538,23.7671018 C39.7263708,23.3284595 42.2997389,19.4610966 41.7587467,16.4563969 C43.6960836,17.1874674 47.526893,16.1712794 47.7535248,14.8041775 C50.0856397,16.0981723 55.0642298,16.8511749 55.4882507,14.1535248 C55.9122715,11.4558747 52.8125326,6.6381201 46.2402089,8.15143603 C39.6678851,9.66475196 32.8981723,17.4287206 36.2318538,23.7671018 Z" id="Path" fill="#6558F5"></path>
                        <path d="M38.8344648,76.8720627 C38.8344648,76.8720627 38.8344648,109.470496 36.326893,130.167102 C35.9101828,149.606266 33.6292428,194.983812 33.6292428,194.983812 L28.7237598,194.983812 C28.7237598,194.983812 18.9712794,161.690862 24.1765013,130.167102 C14.2412533,97.2689295 17.1436031,76.8720627 17.1436031,76.8720627 L38.8344648,76.8720627 Z" id="Path" fill="#000000"></path>
                        <path d="M44.3028721,22.8532637 C44.2224543,23.3430809 44.4125326,23.7817232 44.7342037,23.8328982 C45.0558747,23.8840731 45.3775457,23.5331593 45.4652742,23.043342 C45.5530026,22.5535248 45.3483029,22.1148825 45.0266319,22.0637076 C44.7049608,22.0125326 44.3832898,22.3707572 44.3028721,22.8532637 Z" id="Path" fill="#263238"></path>
                        <path d="M50.2830287,23.9133159 C50.202611,24.4031332 50.4,24.8417755 50.721671,24.8929504 C51.043342,24.9441253 51.3577023,24.5932115 51.4527415,24.1033943 C51.5477807,23.613577 51.3430809,23.1822454 51.0214099,23.1310705 C50.6997389,23.0798956 50.3634465,23.4308094 50.2830287,23.9133159 Z" id="Path" fill="#263238"></path>
                        <path d="M50.8605744,23.1310705 L52.0887728,22.9848564 C52.0887728,22.9848564 51.3357702,23.8036554 50.8605744,23.1310705 Z" id="Path" fill="#263238"></path>
                        <path d="M49.2668407,24.6663185 C49.5173952,25.8483993 49.9307348,26.990004 50.4950392,28.0584856 C49.9338117,28.3370565 49.2781073,28.3531146 48.7039164,28.1023499 L49.2668407,24.6663185 Z" id="Path" fill="#630F0F"></path>
                        <path d="M34.2506527,23.3430809 C34.4011877,24.5312943 35.0565751,25.5969649 36.0490862,26.2673629 C37.3138381,27.0642298 38.4469974,25.7556136 38.5201044,24.0741514 C38.5859008,22.6120104 38.0010444,20.3822454 36.524282,20.2652742 C35.0475196,20.1483029 34.0167102,21.7932115 34.2506527,23.3430809 Z" id="Path" fill="#7F3E3B"></path>
                        <path d="M44.478329,18.8908616 C44.5567027,18.9062744 44.6379978,18.8905399 44.7049608,18.8469974 C45.3083789,18.4191651 46.0797787,18.3050849 46.781201,18.5399478 C46.9285831,18.601045 47.0977363,18.5327332 47.1613577,18.386423 C47.222455,18.2390409 47.1541431,18.0698877 47.0078329,18.0062663 C46.1267126,17.6924715 45.1480875,17.8260443 44.3832898,18.3644909 C44.2512631,18.454127 44.2154766,18.6330591 44.3028721,18.7665796 C44.3457868,18.8264895 44.4075741,18.8702555 44.478329,18.8908616 L44.478329,18.8908616 Z" id="Path" fill="#263238"></path>
                        <path d="M53.9603133,21.4203655 C54.0280393,21.4492144 54.1045978,21.4492144 54.1723238,21.4203655 C54.2447727,21.3941441 54.3035252,21.3397174 54.3352003,21.2694814 C54.3668754,21.1992453 54.3687763,21.1191797 54.34047,21.0475196 C54.0198824,20.170914 53.300088,19.5000113 52.4031332,19.2417755 C52.3273641,19.224564 52.2478527,19.2390207 52.1829915,19.2818015 C52.1181302,19.3245824 52.0735381,19.3919812 52.05953,19.4684073 C52.0276111,19.6234203 52.1248086,19.7756963 52.2788512,19.8120104 C52.9948393,20.0205214 53.5630599,20.5668874 53.7994778,21.2741514 C53.8316796,21.342215 53.8894979,21.3947771 53.9603133,21.4203655 L53.9603133,21.4203655 Z" id="Path" fill="#263238"></path>
                        <path d="M44.873107,22.0710183 L46.1013055,21.9248042 C46.1013055,21.9248042 45.3263708,22.7436031 44.873107,22.0710183 Z" id="Path" fill="#263238"></path>
                        <path d="M13.9488251,76.8720627 C13.9488251,76.8720627 24.6151436,83.7953003 23.6208877,101.31906 C26.7279373,101.757702 39.3315927,88.064752 38.8344648,76.8720627 C34.8866841,70.2266319 13.9488251,76.8720627 13.9488251,76.8720627 Z" id="Path" fill="#263238"></path>
                        <path d="M43.6522193,43.0527415 C43.4475196,51.664752 38.3958225,71.2062663 28.1096606,76.045953 L30.032376,76.8720627 C40.0699739,71.5425587 45.1143603,52.4469974 45.3263708,43.8349869 C45.0193211,43.089295 43.6522193,43.0527415 43.6522193,43.0527415 Z" id="Path" fill="#FFFFFF"></path>
                        <path d="M13.9488251,76.8720627 C13.9488251,76.8720627 -6.09712794,102.76658 50.1879896,131.592689 L52.9441253,127.827676 C55.8196289,123.914994 55.5697788,118.524934 52.3446475,114.895039 C47.2835269,109.216163 42.7903924,103.055549 38.9295039,96.5013055 C33.4608241,87.136917 24.668083,80.1737133 14.2997389,76.9963446 L13.9488251,76.8720627 Z" id="Path" fill="#263238"></path>
                        <path d="M39.7556136,123.550914 C29.2062663,130.167102 14.1681462,163.759791 14.1681462,163.759791 L17.3117493,168.599478 C29.0088773,154.606789 40.289295,146.257963 51.5185379,129.852742 L39.7556136,123.550914 Z" id="Path" fill="#263238"></path>
                        <path d="M8.43655352,167.459008 C10.0229765,166.874151 11.7409922,166.947258 15.016188,162.158747 C15.016188,162.158747 20.2798956,165.178068 18.9127937,166.706005 C16.427154,169.476762 12.7060052,176.568146 14.248564,180.676762 C15.1258486,183.023499 12.2454308,182.73107 11.3754569,181.108094 C9.18224543,177.057963 10.4250653,176.378068 8.97023499,174.228721 C7.73472585,172.393734 6.99634465,172.24752 6.1848564,170.653786 C5.47571802,169.330548 6.84281984,168.051175 8.43655352,167.459008 Z" id="Path" fill="#263238"></path>
                        <path d="M11.4558747,105.230287 C10.0552402,105.538423 8.59298708,105.131492 7.55287904,104.144122 C6.51277099,103.156752 6.03037121,101.717632 6.26527415,100.302872 L8.45848564,86.8657963 L0.782245431,75.6073107 C-0.219902834,74.1411215 -0.222792662,72.2110369 0.774960602,70.7418533 C1.77271387,69.2726697 3.56786114,68.5636696 5.3002611,68.9545692 L38.0156658,76.3310705 C39.6508867,76.6981682 40.926313,77.9777834 41.288047,79.6141992 C41.649781,81.250615 41.0325621,82.9486044 39.7044386,83.9707572 L13.1373368,104.440731 C12.6345998,104.832139 12.0497294,105.104579 11.4266319,105.237598 L11.4558747,105.230287 Z" id="Path" fill="#6558F5"></path>
                        <path d="M37.3650131,79.3430809 L4.64960836,71.9665796 C4.15560843,71.8583377 3.64551817,72.0620809 3.36202879,72.480872 C3.07853942,72.8996632 3.07889418,73.4489383 3.36292428,73.8673629 L11.4558747,85.7399478 C11.6325072,86.0014129 11.7030748,86.3202741 11.6532637,86.6318538 L9.30652742,100.807311 C9.22500475,101.307845 9.45762654,101.807364 9.89319635,102.067093 C10.3287662,102.326822 10.8788173,102.294007 11.2804178,101.984334 L37.8475196,81.5143603 C38.2248141,81.2233918 38.3997827,80.740466 38.2964241,80.2753522 C38.1930655,79.8102385 37.8300312,79.4468689 37.3650131,79.3430809 Z" id="Path" fill="#FFFFFF" opacity="0.3"></path>
                        <polygon id="Rectangle" fill="#263238" transform="translate(16.278759, 85.147205) rotate(-12.450000) translate(-16.278759, -85.147205) " points="15.6025185 80.3075182 16.9549989 80.3075182 16.9549989 89.9868916 15.6025185 89.9868916"></polygon>
                        <path d="M91.8809399,67.9895561 L85.535248,66.3665796 C81.3681462,65.2992167 79.1749347,66.4031332 77.8078329,68.5963446 L26.4428198,79.935248 L27.6929504,85.5937337 L79.5624021,74.137859 L79.7159269,74.3937337 C80.2370457,75.2628395 81.2857419,75.6617671 82.2527415,75.3587467 L92.0417755,72.1420366 C92.9206595,71.8066278 93.4877665,70.9480907 93.4513578,70.0080851 C93.4149491,69.0680795 92.7831344,68.2559794 91.8809399,67.9895561 L91.8809399,67.9895561 Z" id="Path" fill="#6558F5"></path>
                        <path d="M91.8809399,67.9895561 L85.535248,66.3665796 C81.3681462,65.2992167 79.1749347,66.4031332 77.8078329,68.5963446 L26.4428198,79.935248 L27.6929504,85.5937337 L79.5624021,74.137859 L79.7159269,74.3937337 C80.2370457,75.2628395 81.2857419,75.6617671 82.2527415,75.3587467 L92.0417755,72.1420366 C92.9206595,71.8066278 93.4877665,70.9480907 93.4513578,70.0080851 C93.4149491,69.0680795 92.7831344,68.2559794 91.8809399,67.9895561 L91.8809399,67.9895561 Z" id="Path" fill="#000000" opacity="0.4"></path>
                        <path d="M16.1493473,84.7456919 C16.0598822,84.743917 15.9837702,84.6799829 15.9665796,84.5921671 C15.9535469,84.5425553 15.9619622,84.4897503 15.9897707,84.4466473 C16.0175791,84.4035442 16.0622206,84.374111 16.1127937,84.3655352 L83.1738903,69.554047 C83.7446079,69.4292388 84.2419463,69.0818914 84.5556136,68.5890339 L86.1785901,66.0375979 C86.2399241,65.9508736 86.3574032,65.9254727 86.4490862,65.9791123 C86.5391083,66.038225 86.5651323,66.1585858 86.5075718,66.2496084 L84.8772846,68.7937337 C84.5104333,69.3754983 83.9259673,69.7862042 83.2543081,69.9342037 L16.1932115,84.7383812 L16.1493473,84.7456919 Z" id="Path" fill="#FFFFFF"></path>
                        <path d="M15.9007833,83.6125326 C15.8328748,83.6190623 15.7666413,83.5888672 15.7270322,83.5333216 C15.6874232,83.477776 15.6804561,83.4053186 15.7087555,83.3432433 C15.7370549,83.281168 15.7963213,83.2389056 15.8642298,83.232376 L79.2845953,69.2250653 C79.8553129,69.1002571 80.3526512,68.7529097 80.6663185,68.2600522 L82.537859,65.3357702 C82.5649058,65.2909027 82.6092717,65.2591877 82.6604776,65.2481161 C82.7116835,65.2370446 82.7651886,65.2475983 82.8083551,65.2772846 C82.8942514,65.3359623 82.9196252,65.4510174 82.8668407,65.54047 L80.9879896,68.464752 C80.6185271,69.042611 80.0347877,69.4501768 79.3650131,69.5979112 L15.9446475,83.6052219 L15.9007833,83.6125326 Z" id="Path" fill="#FFFFFF"></path>
                        <path d="M16.4125326,85.9227154 C16.3075553,85.9348282 16.212635,85.8595466 16.2005222,85.7545692 C16.1884094,85.6495918 16.263691,85.5546715 16.3686684,85.5425587 L83.4370757,70.7383812 C84.1050721,70.5847042 84.8068365,70.7087002 85.3817232,71.0819843 L88.9859008,73.3775457 C89.075923,73.4366585 89.1019469,73.5570192 89.0443864,73.6480418 C89.0173433,73.690817 88.9743589,73.7210421 88.9249572,73.7320203 C88.8755555,73.7429984 88.8238155,73.7338232 88.781201,73.7065274 L85.1770235,71.4036554 C84.6831079,71.0935987 84.0876405,70.9886705 83.5174935,71.1112272 L16.4563969,85.9227154 L16.4125326,85.9227154 Z" id="Path" fill="#FFFFFF"></path>
                        <path d="M16.6610966,87.0558747 C16.5707935,87.0522706 16.4935401,86.9898736 16.4710183,86.9023499 C16.4601786,86.8528926 16.4695187,86.8011546 16.4969672,86.7586094 C16.5244158,86.7160642 16.5677041,86.6862282 16.6172324,86.675718 L80.0449086,72.6684073 C80.7130768,72.5222177 81.4119422,72.6457014 81.9895561,73.0120104 L84.9138381,74.8908616 C85.0021521,74.9473879 85.02885,75.06522 84.9723237,75.154047 C84.9157975,75.2428739 84.7979654,75.2690589 84.7091384,75.2125326 L81.7848564,73.3409922 C81.292691,73.026417 80.6953731,72.9211627 80.1253264,73.048564 L16.7049608,87.048564 L16.6610966,87.0558747 Z" id="Path" fill="#FFFFFF"></path>
                        <path d="M20.2798956,78.6997389 L24.2788512,80.7028721 L18.4302872,85.0308094 C18.4302872,85.0308094 15.8788512,81.9456919 15.6960836,78.9775457 L16.427154,78.6339426 C17.6528006,78.0604228 19.074547,78.0847031 20.2798956,78.6997389 Z" id="Path" fill="#7F3E3B"></path>
                        <path d="M23.6720627,85.535248 L21.6177546,86.6610966 C20.7275489,87.1465174 19.6137706,86.8664817 19.0590078,86.0177546 L18.4302872,85.0600522 L24.2788512,80.7321149 L24.6663185,83.5686684 C24.7762917,84.3672022 24.3803276,85.1503959 23.6720627,85.535248 Z" id="Path" fill="#7F3E3B"></path>
                        <path d="M28.4605744,46.956658 L27.4663185,47.6219321 L26.4062663,48.3530026 C25.6751958,48.8501305 24.9953003,49.3765013 24.308094,49.9101828 C22.9190601,50.9775457 21.581201,52.1033943 20.2872063,53.2438642 C18.9932115,54.3843342 17.7869452,55.6198433 16.6318538,56.8553525 C16.0835509,57.4986945 15.4986945,58.1201044 15.0015666,58.7853786 C14.7456919,59.1143603 14.4605744,59.4360313 14.2193211,59.7723238 L13.4882507,60.781201 C13.3859008,60.9127937 13.1665796,61.2856397 13.3493473,60.8981723 C13.3990042,60.7957016 13.4240383,60.6830482 13.4224543,60.5691906 C13.4224543,60.5180157 13.3712794,60.6861619 13.3785901,60.9347258 C13.4142008,61.6178445 13.5270163,62.2947377 13.7148825,62.9524804 C14.1688975,64.6084808 14.7255882,66.2346038 15.3817232,67.8214099 C16.6976501,71.1550914 18.3060052,74.5399478 19.8339426,77.8809399 L19.8339426,77.9321149 C20.2811397,78.9241719 19.9333001,80.0941095 19.0167469,80.6807035 C18.1001936,81.2672976 16.8921314,81.0931372 16.1785901,80.2715405 C13.6582522,77.2982948 11.3913235,74.1192147 9.40156658,70.767624 C8.3467913,69.0099474 7.43254507,67.1716769 6.66736292,65.2699739 C6.22202745,64.1548979 5.89610001,62.9957725 5.69503916,61.8120104 C5.56438821,61.0019809 5.54716453,60.1777044 5.64386423,59.3629243 C5.71978284,58.7848295 5.8722055,58.2193906 6.09712794,57.6814621 C6.26906279,57.3078201 6.4618827,56.9441472 6.67467363,56.5921671 C8.74487252,53.0055733 11.3147395,49.7317006 14.3070496,46.8689295 C15.7505673,45.4600943 17.2710908,44.132382 18.8616188,42.891906 C19.6560487,42.2778068 20.467537,41.678329 21.2960836,41.0934726 C21.7127937,40.8083551 22.1295039,40.5159269 22.5608355,40.2381201 C22.9921671,39.9603133 23.4015666,39.7044386 23.9425587,39.3827676 C25.9936549,38.0826634 28.7103396,38.6914626 30.0104439,40.7425587 C31.3105481,42.7936549 30.7017489,45.5103396 28.6506527,46.8104439 L28.4605744,46.956658 Z" id="Path" fill="#7F3E3B"></path>
                        <path d="M26.3916449,196.840731 C26.8156658,195.181201 28.2046997,194.267363 26.9545692,187.841253 C26.9545692,187.841253 34.045953,188.031332 33.8704961,190.100261 C33.5561358,193.857963 35.0986945,199.706527 40.5305483,200.810444 C42.9503916,201.300261 42.321671,203.201044 40.5305483,203.201044 C35.9979112,203.201044 34.8281984,201.461097 32.3206266,200.971279 C30.1785901,200.554569 29.3305483,200.737337 27.5979112,200.422977 C26.1357702,200.159791 25.9603133,198.507572 26.3916449,196.840731 Z" id="Path" fill="#000000"></path>
                    </g>
                </g>
                <g id="freepik--Notes--inject-40" transform="translate(38.055980, 39.920904)" fill="#6558F5">
                    <path d="M5.34160305,72.7954802 C4.8894778,72.500245 4.35297386,72.3613225 3.81430025,72.4 C3.19756955,72.4422988 2.58984737,72.2341206 2.12872774,71.8225989 L2.06541985,71.6327684 C2.05298174,71.5990856 2.02758294,71.5717737 1.9948813,71.5569166 C1.96217966,71.5420595 1.9248915,71.5408913 1.89132316,71.5536723 C1.81879329,71.569491 1.77057921,71.6383345 1.78053435,71.7118644 L4.15458015,78.9966102 C3.95155914,78.9088099 3.73449389,78.8579184 3.51358779,78.8463277 C2.94796009,78.8249542 2.38493476,78.9331752 1.8675827,79.1627119 C0.704300254,79.6689266 0.023740458,80.5943503 0.348193384,81.219209 C0.67264631,81.8440678 1.5826972,81.9073446 2.57979644,81.6146893 C2.74731189,81.5685419 2.91128201,81.5103875 3.07043257,81.440678 C3.57994172,81.2376901 4.02931431,80.9083118 4.37615776,80.4836158 C4.6550859,80.1997203 4.74177925,79.7788449 4.59773537,79.4079096 L4.59773537,79.4079096 L2.95964377,74.2983051 C3.42341096,74.6161107 3.98156381,74.766738 4.54234097,74.7254237 C5.19204226,74.671688 5.83307354,74.9025769 6.29913486,75.3581921 C6.33341304,75.3779729 6.37564549,75.3779729 6.40992366,75.3581921 L6.40992366,75.3581921 C6.45016325,75.3373374 6.47004692,75.2909649 6.45740458,75.2474576 L5.8797201,73.4440678 C5.78087198,73.1721293 5.59068351,72.9428969 5.34160305,72.7954802 L5.34160305,72.7954802 Z" id="Path"></path>
                    <path d="M237.133664,19.8440678 C236.642586,19.2017567 235.938216,18.755781 235.147379,18.5864407 C234.238653,18.4041812 233.459988,17.8233732 233.026565,17.0045198 L233.026565,16.6960452 C233.026742,16.6407417 233.003741,16.5878912 232.963141,16.5503174 C232.922541,16.5127436 232.868054,16.4938805 232.812901,16.4983051 C232.692837,16.4926426 232.587482,16.5775642 232.567583,16.6960452 L231.712926,28.8214689 C231.470282,28.5939671 231.181497,28.4213206 230.866183,28.3152542 C230.038581,28.0376817 229.155528,27.9670721 228.2943,28.1096045 C226.300102,28.3864407 224.772799,29.5016949 224.891501,30.6011299 C224.986463,31.5502825 226.268448,32.1830508 227.898626,32.1830508 C228.163541,32.179948 228.427936,32.1588067 228.689975,32.119774 C229.56739,32.0167289 230.40799,31.7077566 231.143155,31.2180791 C231.718798,30.8972599 232.08045,30.294803 232.092774,29.6361582 L232.092774,29.6361582 L232.694198,21.1412429 C233.18163,21.8076935 233.896885,22.2720993 234.704224,22.4463277 C235.661154,22.6395366 236.47073,23.2728075 236.888346,24.1548023 C236.917328,24.2096579 236.977054,24.2410772 237.038702,24.2338983 L237.07827,24.2338983 C237.155498,24.2213156 237.216037,24.1608058 237.228626,24.0836158 L237.434377,21.0858757 C237.488379,20.6491724 237.381487,20.2077536 237.133664,19.8440678 L237.133664,19.8440678 Z" id="Path"></path>
                    <path d="M30.4247328,59.0655367 C31.1730542,59.3471342 31.7292799,59.9863314 31.9045547,60.7661017 C31.9204388,60.8148591 31.9641891,60.8492174 32.0153435,60.8531073 L32.0153435,60.8531073 C32.0800061,60.8530129 32.1373665,60.8116062 32.1577863,60.7502825 L32.6009415,59.1683616 C32.7026131,58.8196654 32.6745015,58.4459644 32.5218066,58.1163842 C32.2422671,57.5188635 31.7436202,57.0516113 31.1290331,56.8112994 C30.4249192,56.5424186 29.8903902,55.9553122 29.6887786,55.2293785 L29.76,54.9762712 C29.7722199,54.9315219 29.7630799,54.88364 29.7352346,54.8465311 C29.7073892,54.8094221 29.6639592,54.7872452 29.6175573,54.7864407 C29.5169212,54.7714662 29.4190149,54.8269192 29.3801527,54.920904 L26.5946056,64.9186441 C26.4393059,64.6995008 26.2364008,64.5183278 26.0010941,64.3887006 C25.3661698,64.0573983 24.6598149,63.8863271 23.9435878,63.8903955 C23.203343,63.8714774 22.4689316,64.0258719 21.7990331,64.3412429 C21.2688219,64.5381938 20.8752466,64.9911795 20.7544529,65.5435028 C20.7437222,66.0751398 21.0567689,66.5601243 21.5458015,66.7694915 C21.9694082,67.0051981 22.4340126,67.1582007 22.9148346,67.220339 C23.1406842,67.2482217 23.3678591,67.2640634 23.5953944,67.2677966 C25.249313,67.2677966 26.665827,66.5559322 26.7607888,65.6384181 L26.7607888,65.6384181 L27.9557252,61.3672316 C28.233099,61.9792089 28.7384928,62.4588137 29.3643257,62.7039548 C30.112647,62.9855523 30.6688728,63.6247495 30.8441476,64.4045198 C30.8570481,64.4520524 30.8979876,64.4866766 30.9470229,64.4915254 L30.9865903,64.4915254 C31.0504941,64.4891602 31.1066952,64.4485904 31.1290331,64.3887006 L31.5642748,62.8067797 C31.6684241,62.4590311 31.6431255,62.0853563 31.4930534,61.7548023 C31.2115289,61.1587234 30.7135554,60.6921022 30.1002799,60.4497175 C29.396166,60.1808366 28.861637,59.5937303 28.6600254,58.8677966 L28.9607379,57.7762712 C29.2637452,58.3789467 29.7884032,58.8409862 30.4247328,59.0655367 Z" id="Path"></path>
                    <path d="M15.1912723,49.6734463 L15.1912723,49.6734463 L14.5581934,43.519774 L14.3287023,41.2259887 L14.3287023,41.0915254 L6.90585242,42.1118644 L6.90585242,42.2384181 L7.13534351,44.5322034 L7.71302799,50.1638418 C6.98100972,49.7785247 6.12297896,49.7099159 5.33898219,49.9740113 C4.05699746,50.3220339 3.17068702,51.1683616 3.36852417,51.8723164 C3.56636132,52.5762712 4.46849873,52.7819209 5.53681934,52.6632768 C5.71574878,52.6377791 5.89284975,52.6007911 6.0670229,52.5525424 C7.34900763,52.2124294 8.22740458,51.3819209 8.0453944,50.6779661 L8.0453944,50.6779661 L7.50727735,45.3943503 L14.3445293,44.4293785 L14.8272519,49.1751412 C14.6401321,49.051067 14.4303867,48.9650599 14.21,48.9220339 C13.6373965,48.8092793 13.0462162,48.8336738 12.4848601,48.9932203 C11.1949618,49.3412429 10.3086514,50.1875706 10.514402,50.8915254 C10.7201527,51.5954802 11.6064631,51.7932203 12.6826972,51.6824859 C12.8699883,51.6493419 13.0550031,51.6044318 13.2366412,51.5480226 C14.486972,51.2079096 15.365369,50.3694915 15.1912723,49.6734463 Z M7.49936387,45.1016949 L7.43605598,44.4926554 L14.2574809,43.559322 L14.3207888,44.1762712 L7.49936387,45.1016949 Z" id="Shape"></path>
                    <path d="M222.33201,8.91073446 L222.33201,8.91073446 L218.85799,3.12090395 L217.560178,0.953672316 L217.488957,0.835028249 L210.271858,4.29943503 L210.343079,4.4180791 L211.640891,6.58531073 L214.806285,11.8847458 C213.923532,11.747406 213.022195,11.9633935 212.29771,12.4858757 C211.118601,13.2768362 210.59631,14.3683616 211.126514,14.9853107 C211.656718,15.6022599 212.709211,15.5073446 213.714224,14.9853107 C213.886319,14.9011319 214.052843,14.806022 214.212774,14.700565 C215.376056,13.9491525 215.90626,12.8338983 215.399796,12.2169492 L215.399796,12.2169492 L211.925776,6.41920904 L218.557277,3.25536723 L221.722672,8.55480226 C220.837305,8.41442449 219.932369,8.63059236 219.206183,9.1559322 C218.696314,9.46504257 218.278317,9.90468013 217.99542,10.4293785 C217.75133,10.8072495 217.770316,11.2974868 218.042901,11.6553672 C218.397671,11.9967441 218.897835,12.1416909 219.38028,12.0429379 C219.812355,11.9943907 220.232728,11.8712846 220.622697,11.679096 C220.798949,11.5980357 220.968327,11.5028077 221.12916,11.3943503 C222.30827,10.6350282 222.838473,9.52768362 222.33201,8.91073446 Z" id="Path"></path>
                </g>
            </g>
        </g>
    </g>
</svg>