<svg width="311" height="280" viewBox="0 0 311 280" fill="none" xmlns="http://www.w3.org/2000/svg">
<path d="M189.316 45.0847C129.03 81.7547 33.2924 8.15067 4.90981 103.471C-22.2847 194.801 99.005 221.981 163.999 218.16C239.356 213.723 311.09 164.952 309.3 83.9475C308.611 52.6314 297.28 19.4084 266.477 6.03114C217.185 -15.3915 221.263 25.6496 189.316 45.0847Z" fill="#FFBC65"/>
<path opacity="0.9" d="M189.316 45.0847C129.03 81.7547 33.2924 8.15067 4.90981 103.471C-22.2847 194.801 99.005 221.981 163.999 218.16C239.356 213.723 311.09 164.952 309.3 83.9475C308.611 52.6314 297.28 19.4084 266.477 6.03114C217.185 -15.3915 221.263 25.6496 189.316 45.0847Z" fill="white"/>
<ellipse cx="148.4" cy="271.698" rx="142.199" ry="8.30209" fill="#F5F5F5"/>
<path d="M154.443 94.5672C157.758 89.558 156.357 81.7253 148.781 80.8086C141.205 79.8918 138.565 83.0088 134.612 78.6084C130.659 74.208 123.347 72.8439 120.237 81.9087C117.127 90.9735 109.713 84.9156 107.314 94.8972C104.689 105.818 112.353 117.471 127.366 116.312C141.674 115.212 142.092 105.135 148.972 103.383C155.851 101.63 155.645 98.3148 154.443 94.5672Z" fill="#263238"/>
<path d="M108.268 88.6266C106.956 88.6117 105.657 88.3634 104.432 87.8932C104.323 87.8539 104.244 87.7596 104.224 87.6457C104.203 87.5319 104.245 87.4159 104.334 87.3414C104.422 87.2669 104.543 87.2452 104.652 87.2845C109.28 89.0006 115.748 87.6805 120.01 78.8137C122.261 74.1419 125.143 72.9465 127.182 72.7998C130.116 72.5651 133.174 74.2666 135.25 77.2002C137.325 80.1338 139.745 80.1338 143.222 80.2365C145.79 80.2301 148.347 80.5655 150.827 81.2339C150.997 81.2869 151.095 81.4655 151.047 81.6373C151.023 81.7203 150.967 81.7903 150.891 81.8316C150.816 81.873 150.726 81.8822 150.644 81.8573C148.216 81.2048 145.713 80.8768 143.2 80.8819C139.679 80.7719 136.892 80.6765 134.722 77.5742C132.793 74.8167 129.94 73.2399 127.256 73.4599C124.571 73.6799 122.283 75.6601 120.611 79.1071C117.223 86.1477 112.463 88.6266 108.268 88.6266Z" fill="#263238"/>
<path d="M90.1456 212.116C98.6458 198.277 113.614 183.389 112.881 167.885L85.5106 160.045C85.5106 160.045 72.456 194.867 68.5617 208.596C64.5133 222.875 57.8174 254.169 57.8174 254.169L67.0656 257.8C67.0656 257.8 87.058 228.376 90.1456 212.116Z" fill="#FFBC65"/>
<path opacity="0.2" d="M92.925 207.826C97.1641 201.592 102.254 195.167 106.222 188.574C101.594 185.963 93.1817 193.942 92.925 207.826Z" fill="black"/>
<path d="M57.8172 254.14C55.9397 261.32 50.6372 260.565 47.975 260.183C47.975 260.183 46.1268 261.078 45.8701 262.384C48.8037 264.804 55.0523 267.048 61.6089 268.581C62.3961 268.771 63.1984 268.329 63.457 267.561C64.1904 265.361 65.6572 260.961 67.0654 257.77L57.8172 254.14Z" fill="#263238"/>
<path d="M117.978 218.203C122.98 203.535 136.313 182.509 133.262 174.258L102.848 164.915C102.848 164.915 95.8733 202.45 94.9712 217.067C94.3185 227.562 106.339 259.42 106.339 259.42H116.144C116.144 259.42 117.978 235.981 117.978 218.203Z" fill="#FFBC65"/>
<path d="M119.921 118.424L118.125 119.319C117.545 119.598 116.959 119.855 116.379 120.119C115.213 120.639 114.032 121.109 112.844 121.585C110.418 122.528 107.943 123.341 105.429 124.02C102.714 124.785 99.9315 125.289 97.1201 125.524C95.4265 125.664 93.7229 125.625 92.0376 125.406C90.9819 125.264 89.9428 125.019 88.9353 124.673C87.6559 124.231 86.4588 123.579 85.393 122.744L85.0556 122.48C84.1467 121.773 83.474 120.806 83.1268 119.708C82.6063 118.131 82.3583 116.476 82.3934 114.816C82.4249 113.536 82.5598 112.261 82.7968 111.002C82.9931 109.879 83.2625 108.769 83.6035 107.68C83.9189 106.624 84.2562 105.605 84.6376 104.622C85.3911 102.69 86.253 100.802 87.2192 98.9673C88.1705 97.1457 89.2335 95.3846 90.4021 93.6941C91.4156 92.2595 93.2856 91.7149 94.9109 92.3811C96.5361 93.0474 97.4859 94.7478 97.2007 96.4811V96.6497L96.284 102.106C95.9906 103.91 95.7119 105.7 95.5506 107.431C95.34 109.048 95.2419 110.677 95.2572 112.308C95.2609 112.953 95.3223 113.596 95.4406 114.229C95.5506 114.728 95.7046 115.065 95.7486 114.963L93.5044 111.978C93.2771 111.758 93.1304 111.677 93.1524 111.648C93.1744 111.618 93.3064 111.648 93.5411 111.648C94.2321 111.615 94.9204 111.539 95.6019 111.42C96.5166 111.257 97.4223 111.046 98.3155 110.79C99.2689 110.54 100.259 110.247 101.249 109.91C103.244 109.228 105.29 108.443 107.336 107.643C108.363 107.233 109.375 106.793 110.402 106.367L113.336 105.091L113.644 104.952C117.336 103.418 121.58 105.072 123.262 108.699C124.944 112.326 123.463 116.634 119.907 118.461L119.921 118.424Z" fill="#FF8B7B"/>
<path d="M91.8178 95.1831L96.1082 95.4471C100.428 94.1197 97.751 88.8465 97.751 88.8465L97.487 85.8029C97.3229 84.7079 96.3938 83.8903 95.2868 83.8668L92.2871 83.6541C91.0111 83.483 89.8321 84.3624 89.6322 85.6343L89.4269 88.2965C89.3691 89.0692 89.5 89.8444 89.8083 90.5554L91.8178 95.1831Z" fill="#FF8B7B"/>
<path d="M119.474 103.999C128.815 105.706 137.938 108.444 146.676 112.161C149.076 113.232 150.928 115.245 151.794 117.726C152.661 120.207 152.465 122.936 151.252 125.267C140.985 145.458 135.748 171.853 134.113 175.96C134.113 175.96 106.471 176.642 91.869 169.161C86.4211 166.361 83.6152 160.181 85.0924 154.237C90.9009 130.848 104.417 114.296 110.673 107.13C112.86 104.622 116.195 103.435 119.474 103.999Z" fill="#7F5D32"/>
<path d="M83.9703 159.59C83.3556 160.552 83.0463 161.677 83.0829 162.817C83.0759 162.861 83.0759 162.905 83.0829 162.949C83.2516 163.558 84.8064 168.127 93.7979 172.483C104.513 177.617 125.055 178.512 134.135 177.852C134.322 177.84 134.492 177.743 134.597 177.588C135.02 176.749 135.269 175.833 135.33 174.896C135.353 174.718 135.294 174.539 135.171 174.408C135.047 174.278 134.872 174.209 134.692 174.221C130.571 174.449 108.862 175.307 94.9493 168.721C88.1067 165.487 85.7378 161.497 84.9897 159.759C84.9092 159.565 84.7342 159.426 84.5268 159.391C84.3195 159.357 84.1091 159.432 83.9703 159.59Z" fill="#263238"/>
<path d="M126.251 115.835C125.03 115.862 123.818 115.612 122.708 115.102C121.485 114.612 120.546 113.6 120.149 112.344C119.54 110.027 121.337 107.401 122.525 105.671C122.83 105.26 123.102 104.826 123.339 104.372C123.41 104.208 123.598 104.13 123.765 104.196C123.843 104.23 123.906 104.294 123.937 104.374C123.969 104.454 123.967 104.543 123.933 104.622C123.685 105.119 123.393 105.592 123.06 106.037C121.938 107.673 120.237 110.144 120.772 112.176C121.125 113.242 121.93 114.098 122.972 114.515C128.495 117.222 137.288 111.362 140.574 109.162L140.684 109.088C140.78 109.018 140.906 109.006 141.013 109.057C141.12 109.107 141.191 109.213 141.197 109.331C141.204 109.449 141.145 109.562 141.043 109.624L140.933 109.697C138.22 111.516 131.729 115.835 126.251 115.835Z" fill="white"/>
<path d="M125.803 105.275C119.203 110.783 97.0908 133.701 91.0109 172.417C79.7826 167.672 84.4103 157.881 78.2351 152.77C80.7507 150.9 96.9148 124.409 100.296 117.64C103.677 110.871 113.688 102.972 118.352 103.089C120.727 103.149 123.093 103.395 125.429 103.823C125.749 103.877 126.006 104.114 126.087 104.427C126.168 104.741 126.057 105.073 125.803 105.275Z" fill="#263238"/>
<path opacity="0.1" d="M125.803 105.275C119.203 110.783 97.0908 133.701 91.0109 172.417C79.7826 167.672 84.4103 157.881 78.2351 152.77C80.7507 150.9 96.9148 124.409 100.296 117.64C103.677 110.871 113.688 102.972 118.352 103.089C120.727 103.149 123.093 103.395 125.429 103.823C125.749 103.877 126.006 104.114 126.087 104.427C126.168 104.741 126.057 105.073 125.803 105.275Z" fill="white"/>
<path opacity="0.2" d="M99.0125 158.989C98.8878 159.517 98.5284 159.876 98.2057 159.803C97.883 159.729 97.729 159.238 97.8537 158.717C97.9784 158.197 98.3377 157.83 98.6604 157.911C98.9831 157.991 99.1372 158.468 99.0125 158.989Z" fill="black"/>
<path d="M122.98 108.047C123.899 106.952 125.159 106.197 126.559 105.906C127.37 104.731 127.8 103.336 127.791 101.909L142.606 100.918C140.105 105.59 138.139 109.287 139.115 112.169C135.954 113.232 130.189 115.102 124.953 113.445C119.716 111.787 121.528 109.888 122.98 108.047Z" fill="#FF8B7B"/>
<path d="M147.556 111.736C145.809 110.57 144.139 109.294 142.554 107.915C141.725 107.197 140.511 107.142 139.621 107.783C135.154 111.017 122.379 121.028 116.438 133.62C109.163 149.022 105.833 174.691 107.197 178.754C120.78 175.974 130.109 183.939 143.068 182.355C139.687 180.191 142.136 157.375 144.725 149.961C147.314 142.546 160.471 119.334 147.556 111.736Z" fill="#263238"/>
<path opacity="0.1" d="M147.556 111.736C145.809 110.57 144.139 109.294 142.554 107.915C141.725 107.197 140.511 107.142 139.621 107.783C135.154 111.017 122.379 121.028 116.438 133.62C109.163 149.022 105.833 174.691 107.197 178.754C120.78 175.974 130.109 183.939 143.068 182.355C139.687 180.191 142.136 157.375 144.725 149.961C147.314 142.546 160.471 119.334 147.556 111.736Z" fill="white"/>
<path opacity="0.2" d="M127.762 102.407L138.029 104.607C133.805 107.49 128.612 107.541 126.867 105.407C127.389 104.488 127.695 103.462 127.762 102.407V102.407Z" fill="black"/>
<path d="M148.092 97.574C143.691 102.62 140.567 105.942 135.763 105.803C126.229 105.524 124.762 99.8036 127.622 93.5257C130.175 87.8785 136.973 80.5812 143.757 82.5247C146.819 83.3987 149.214 85.7884 150.095 88.848C150.977 91.9077 150.219 95.2054 148.092 97.574Z" fill="#FF8B7B"/>
<path d="M129.023 95.0806C129.023 95.0806 130.879 95.2126 135.572 97.3248C134.347 99.3416 132.961 99.635 130.57 98.5202C129.223 97.9665 128.544 96.4561 129.023 95.0806Z" fill="#263238"/>
<path d="M129.258 95.1099C129.155 95.5132 129.082 95.9753 129.558 96.254C130.997 96.7692 132.467 97.1929 133.959 97.5227C134.421 97.6034 134.898 97.8821 135.389 97.2367C133.438 96.2843 131.379 95.5702 129.258 95.1099Z" fill="white"/>
<path opacity="0.6" d="M148.018 86.793C144.637 88.2598 142.694 95.3591 144.674 99.4294C150.108 99.5688 152.595 91.5821 152.595 91.5821L148.018 86.793Z" fill="#263238"/>
<path d="M146.295 103.309C145.021 103.965 143.54 104.091 142.173 103.661C140.398 103.082 140.618 101.219 142.048 100.06C143.324 99.0188 145.796 98.0727 147.131 99.2902C148.465 100.508 147.879 102.48 146.295 103.309Z" fill="#FF8B7B"/>
<path d="M135.33 90.4307L132.558 94.0977C132.558 94.0977 130.93 93.3643 130.585 92.1101C131.988 91.1354 133.627 90.5553 135.33 90.4307V90.4307Z" fill="#FF5652"/>
<path d="M138.44 88.9051C138.389 88.9256 138.343 88.9583 138.308 89.0004C138.252 89.0645 138.225 89.1489 138.233 89.2336C138.241 89.3184 138.284 89.3959 138.352 89.4478C139.14 90.1223 140.206 90.3737 141.212 90.1225C141.293 90.099 141.361 90.0433 141.4 89.9685C141.438 89.8937 141.445 89.8062 141.417 89.7265C141.365 89.5565 141.184 89.4613 141.014 89.5138C140.215 89.6995 139.376 89.4924 138.755 88.9564C138.666 88.8862 138.547 88.8668 138.44 88.9051Z" fill="#263238"/>
<path d="M138.924 93.5108C138.965 93.5221 139.008 93.5221 139.049 93.5108C139.115 93.5018 139.175 93.4664 139.215 93.4126C139.255 93.3587 139.272 93.2911 139.261 93.2248C139.161 92.4115 138.675 91.6963 137.956 91.3033C137.895 91.2737 137.824 91.2703 137.761 91.2938C137.697 91.3173 137.646 91.3658 137.619 91.428C137.561 91.5556 137.617 91.7057 137.743 91.7654C138.309 92.0833 138.688 92.6533 138.763 93.2982C138.774 93.393 138.836 93.4744 138.924 93.5108Z" fill="#263238"/>
<path d="M139.767 92.7042C139.809 92.6947 139.849 92.6773 139.885 92.6528C139.992 92.5635 140.011 92.406 139.929 92.2934C139.433 91.639 138.652 91.2646 137.831 91.2887C137.764 91.2923 137.702 91.3235 137.659 91.3749C137.615 91.4264 137.596 91.4934 137.604 91.56C137.619 91.7001 137.742 91.8034 137.883 91.7947C138.53 91.7835 139.142 92.087 139.525 92.6088C139.586 92.6776 139.676 92.713 139.767 92.7042Z" fill="#263238"/>
<path d="M131.693 87.8489C131.682 87.8056 131.682 87.7602 131.693 87.7169C131.725 87.5829 131.858 87.4986 131.993 87.5262C132.804 87.6893 133.485 88.2364 133.82 88.993C133.851 89.0769 133.835 89.1711 133.778 89.2403C133.722 89.3094 133.632 89.343 133.544 89.3283C133.455 89.3136 133.382 89.2529 133.35 89.169C133.065 88.5854 132.521 88.1698 131.883 88.0469C131.786 88.0251 131.711 87.9472 131.693 87.8489Z" fill="#263238"/>
<path d="M132.558 87.0569C132.567 87.0155 132.587 86.9774 132.617 86.9469C132.717 86.8491 132.876 86.8491 132.976 86.9469C133.594 87.4844 133.914 88.2878 133.834 89.1031C133.812 89.2394 133.685 89.3334 133.548 89.3158C133.411 89.2898 133.317 89.1611 133.335 89.0224C133.381 88.3699 133.108 87.7356 132.602 87.3209C132.542 87.2468 132.525 87.1465 132.558 87.0569Z" fill="#263238"/>
<path d="M133.534 85.0987C133.603 85.1823 133.712 85.2239 133.82 85.2087C134.623 85.0658 135.445 85.3262 136.02 85.9054C136.146 86.0303 136.349 86.0303 136.474 85.9054C136.534 85.8462 136.568 85.7657 136.568 85.6817C136.568 85.5977 136.534 85.5172 136.474 85.458C135.758 84.7185 134.726 84.3761 133.71 84.5413C133.625 84.5502 133.547 84.5939 133.496 84.662C133.444 84.7301 133.424 84.8166 133.438 84.9006C133.446 84.9758 133.48 85.0458 133.534 85.0987Z" fill="#263238"/>
<path d="M151.7 120.383L151.934 121.563L152.125 122.649C152.243 123.382 152.338 124.116 152.433 124.805C152.631 126.272 152.763 127.673 152.873 129.117C153.098 132.046 153.132 134.985 152.976 137.918C152.888 139.422 152.756 140.94 152.551 142.48C152.316 144.068 151.998 145.642 151.597 147.196C150.743 150.823 149.083 154.212 146.742 157.111L146.434 157.485C145.868 158.162 145.142 158.686 144.322 159.011C142.214 159.824 140.006 160.352 137.758 160.58C135.81 160.797 133.85 160.883 131.891 160.837C129.984 160.786 128.106 160.654 126.251 160.419C124.381 160.188 122.527 159.845 120.699 159.392C119.012 158.976 117.827 157.463 117.827 155.725C117.827 153.988 119.012 152.474 120.699 152.058L120.926 151.999C122.525 151.589 124.256 151.266 125.891 150.848C127.527 150.43 129.17 150.115 130.747 149.675C132.323 149.235 133.849 148.817 135.25 148.347C136.458 147.963 137.619 147.444 138.711 146.8L136.291 148.706C137.053 147.254 137.562 145.681 137.795 144.057C138.131 141.873 138.295 139.666 138.286 137.456C138.286 135.124 138.176 132.718 137.949 130.298C137.853 129.081 137.714 127.871 137.582 126.631L137.354 124.827L137.237 123.94L137.127 123.148L137.076 122.817C136.59 118.864 139.302 115.228 143.231 114.568C147.159 113.908 150.911 116.458 151.744 120.353L151.7 120.383Z" fill="#FF8B7B"/>
<path opacity="0.6" d="M148.355 120.735C147.473 119.917 146.098 119.96 145.268 120.83C144.848 120.427 144.284 120.211 143.702 120.23C143.121 120.249 142.572 120.503 142.18 120.933C141.452 121.915 141.634 123.297 142.591 124.057L146.082 127.086L148.759 123.859C149.489 122.879 149.31 121.497 148.355 120.735Z" fill="#263238"/>
<path d="M116.13 259.45H106.324C107.366 267.678 98.4109 268.654 98.4109 268.654C97.9513 269.609 97.7539 270.67 97.8388 271.727H114.832C115.254 271.727 115.658 271.556 115.952 271.254C116.246 270.951 116.406 270.543 116.394 270.121C116.335 267.781 116.21 263.388 116.13 259.45Z" fill="#263238"/>
<path d="M120.551 171.188L123.561 170.201L150.243 251.547L147.233 252.534L120.551 171.188Z" fill="#263238"/>
<path d="M116.84 161.986C116.602 161.262 116.997 160.482 117.721 160.245L119.356 159.708C120.08 159.471 120.86 159.865 121.098 160.589L124.443 170.789C124.681 171.514 124.286 172.293 123.562 172.531L121.927 173.067C121.203 173.305 120.423 172.91 120.185 172.186L116.84 161.986Z" fill="#263238"/>
<path d="M90.1295 78.5669C89.9574 78.0421 90.2433 77.4772 90.7681 77.305L91.9478 76.918C92.4726 76.7459 93.0376 77.0318 93.2097 77.5566L95.6265 84.9245C95.7986 85.4493 95.5127 86.0143 94.988 86.1864L93.8082 86.5734C93.2834 86.7455 92.7184 86.4596 92.5463 85.9349L90.1295 78.5669Z" fill="#263238"/>
<path d="M94.3015 75.1631C94.754 75.2364 95.0614 75.6627 94.988 76.1152L94.6398 78.2628C94.5664 78.7153 94.1401 79.0227 93.6876 78.9493L89.6795 78.2994C89.227 78.226 88.9196 77.7997 88.993 77.3472L89.3412 75.1996C89.4146 74.7471 89.8409 74.4398 90.2934 74.5132L94.3015 75.1631Z" fill="#263238"/>
<path d="M91.1484 80.1597L93.3366 79.4419L124.261 173.721L122.073 174.439L91.1484 80.1597Z" fill="#263238"/>
<path d="M147.952 251.779C147.794 251.78 147.659 251.664 147.637 251.507C147.622 251.423 147.641 251.336 147.691 251.265C147.741 251.195 147.816 251.148 147.901 251.133C147.945 251.133 152.375 250.349 152.873 247.943C153.269 246.014 151.003 243.396 146.331 240.382C133.864 232.314 134.025 223.704 134.282 210.628C134.318 208.545 134.362 206.389 134.362 204.078C134.362 190.598 128.348 180.221 121.997 169.227C120.369 166.411 118.682 163.492 117.091 160.5C110.49 148.076 110.49 144.585 110.453 140.177C110.453 139.444 110.453 138.63 110.409 137.764C110.226 133.43 108.429 131.23 106.148 128.45C104.798 126.87 103.572 125.188 102.481 123.419C99.3497 118.19 100.142 115 101.015 111.619C101.748 108.59 102.621 105.157 100.795 99.5982C98.1689 91.5968 93.3872 88.0325 89.1628 84.8862C87.2122 83.5466 85.4123 81.9999 83.7943 80.2731C81.3374 77.4349 80.428 75.4327 81.0147 74.1346C81.4107 73.2692 82.4228 72.8218 84.0363 72.8145C84.2145 72.8145 84.359 72.9589 84.359 73.1371C84.359 73.3154 84.2145 73.4598 84.0363 73.4598C83.1196 73.4598 81.9461 73.6359 81.5941 74.4059C81.2421 75.176 81.4841 76.6061 84.2783 79.8478C85.8665 81.5381 87.632 83.0528 89.5441 84.3655C93.8419 87.5705 98.7116 91.1935 101.403 99.4002C103.281 105.135 102.408 108.663 101.631 111.773C100.795 115.161 100.068 118.087 103.053 123.089C104.128 124.829 105.334 126.484 106.662 128.039C108.921 130.804 110.871 133.173 111.062 137.735C111.062 138.615 111.106 139.407 111.106 140.177C111.106 144.497 111.106 147.907 117.707 160.199C119.291 163.177 120.978 166.066 122.606 168.905C128.994 179.972 135.037 190.422 135.074 204.108C135.074 206.425 135.037 208.581 134.993 210.672C134.729 223.99 134.575 232.021 146.727 239.868C151.714 243.088 154.01 245.853 153.548 248.104C152.969 250.943 148.253 251.771 148.055 251.808L147.952 251.779Z" fill="#263238"/>
<path d="M105.936 80.0603L84.1537 75.0805C83.6031 74.9528 83.2446 74.4215 83.3323 73.8631L83.4716 73.0124C83.5165 72.7294 83.6729 72.4763 83.9058 72.3095C84.1387 72.1428 84.4288 72.0763 84.7111 72.1249L106.596 75.8726L105.936 80.0603Z" fill="#263238"/>
<path d="M107.872 81.6519L106.192 81.1238C104.701 80.6465 103.784 79.1491 104.036 77.6035C104.284 76.0561 105.63 74.9253 107.197 74.9486H108.957C109.877 74.9598 110.745 75.3717 111.336 76.0764C111.926 76.7811 112.18 77.7085 112.03 78.6156L111.949 79.129C111.807 80.0393 111.273 80.8419 110.49 81.3267C109.706 81.8115 108.75 81.9303 107.872 81.6519Z" fill="#263238"/>
<path d="M145.774 246.41L143.94 255.174C143.83 255.612 143.969 256.075 144.3 256.38C144.632 256.686 145.105 256.786 145.532 256.641L154.047 253.854C154.466 253.715 154.779 253.364 154.87 252.932C154.961 252.5 154.815 252.052 154.487 251.756L147.813 245.779C147.488 245.485 147.032 245.383 146.613 245.513C146.195 245.642 145.875 245.984 145.774 246.41Z" fill="#263238"/>
<path d="M153.401 261.144L150.394 262.127L147.072 250.715L149.324 249.982L153.401 261.144Z" fill="#263238"/>
<path d="M130.769 268.566L129.265 266.725L148.913 251.456L150.211 252.681L130.769 268.566Z" fill="#263238"/>
<path d="M173.034 254.705L173.152 252.329L148.275 251.661L147.952 253.421L173.034 254.705Z" fill="#263238"/>
<path d="M123.009 153.334L122.906 157.632C121.205 161.82 116.203 158.703 116.203 158.703L113.189 158.175C112.105 157.912 111.369 156.904 111.451 155.791L111.502 152.784C111.443 151.498 112.419 150.399 113.702 150.305H116.372C117.142 150.313 117.898 150.512 118.572 150.885L123.009 153.334Z" fill="#FF8B7B"/>
<path d="M48.0411 263.836C46.3249 262.853 45.0488 262.149 44.3081 261.078C43.5673 260.007 46.3102 258.563 49.3538 259.494C52.5295 260.469 52.3388 262.941 51.9134 264.378C51.8283 264.677 51.6171 264.923 51.3351 265.053C51.0532 265.183 50.7286 265.183 50.4466 265.053C49.6232 264.691 48.8202 264.285 48.0411 263.836Z" fill="#FFBC65"/>
<path d="M102.313 271.698H95.3161C94.8816 271.701 94.4811 271.463 94.2751 271.08C94.0692 270.698 94.0916 270.233 94.3333 269.872C95.3147 268.518 96.8935 267.727 98.565 267.752C101.543 267.635 102.665 269.424 103.075 270.634C103.158 270.88 103.117 271.151 102.966 271.361C102.815 271.572 102.572 271.697 102.313 271.698Z" fill="#FFBC65"/>
<path d="M96.7022 218.204C96.3722 219.465 95.9102 223.381 96.7022 224.716C96.9516 223.887 97.1496 223.836 97.1496 223.836C97.4447 225.264 98.3618 226.485 99.6505 227.166C99.7114 226.908 99.8496 226.675 100.047 226.498C100.915 227.15 101.821 227.75 102.76 228.295C102.291 227.466 103.626 225.435 103.626 225.435C103.739 225.805 103.739 226.201 103.626 226.572C104.256 226.19 105.305 222.721 104.946 220.741C102.929 220.646 96.7022 218.204 96.7022 218.204Z" fill="#263238"/>
<ellipse cx="100.811" cy="219.748" rx="4.09971" ry="6.01388" transform="rotate(-8.08 100.811 219.748)" fill="#FF8B7B"/>
<path d="M68.1875 210.862C66.896 211.87 66.0466 213.34 65.8186 214.962C66.222 214.368 67.4908 214.339 67.4908 214.339C66.7946 215.324 66.2965 216.435 66.024 217.61C67.4908 217.448 71.0404 215.651 72.6246 212.571C70.4024 211.64 68.1875 210.862 68.1875 210.862Z" fill="#263238"/>
<path d="M73.9813 209.469C73.1379 212.681 71.1724 214.947 69.5809 214.529C67.9894 214.111 67.3807 211.178 68.2608 207.929C69.1409 204.68 71.0697 202.457 72.6612 202.868C74.2527 203.279 74.8321 206.249 73.9813 209.469Z" fill="#FF8B7B"/>
<path d="M108.935 225.523C108.576 226.689 107.63 227.437 106.838 227.188C106.046 226.939 105.686 225.794 106.053 224.628C106.42 223.462 107.358 222.714 108.15 222.963C108.943 223.213 109.302 224.357 108.935 225.523Z" fill="#FF8B7B"/>
<path d="M104.85 266.923C104.682 266.927 104.539 266.798 104.528 266.63C104.519 266.544 104.546 266.459 104.601 266.393C104.656 266.326 104.735 266.285 104.821 266.278L107.674 266.065L105.745 264.965C105.627 264.903 105.562 264.773 105.584 264.642C105.602 264.513 105.694 264.407 105.818 264.371L108.481 263.637L106.845 262.655C106.743 262.596 106.681 262.486 106.684 262.369C106.686 262.252 106.75 262.146 106.852 262.09L108.701 261.078L106.911 260.498C106.74 260.442 106.646 260.26 106.698 260.088C106.725 260.006 106.784 259.938 106.861 259.899C106.938 259.861 107.027 259.855 107.109 259.882L109.617 260.689C109.74 260.73 109.826 260.839 109.837 260.968C109.853 261.096 109.789 261.221 109.676 261.283L107.659 262.391L109.471 263.476C109.581 263.544 109.641 263.67 109.625 263.799C109.606 263.926 109.514 264.029 109.39 264.063L106.75 264.796L108.95 266.028C109.074 266.098 109.139 266.24 109.111 266.38C109.076 266.518 108.959 266.62 108.818 266.637L104.902 266.93L104.85 266.923Z" fill="#FFBC65"/>
<path d="M56.9886 262.325C56.9449 262.332 56.9003 262.332 56.8566 262.325L53.4316 260.756C53.27 260.682 53.198 260.492 53.2703 260.33C53.3039 260.251 53.3683 260.189 53.4486 260.159C53.5289 260.128 53.6181 260.132 53.6957 260.169L56.3139 261.357L55.3971 259.457C55.335 259.356 55.335 259.229 55.3971 259.127C55.4647 259.031 55.5808 258.98 55.6978 258.995L57.964 259.303L57.106 257.397C57.0509 257.301 57.0509 257.184 57.106 257.089C57.1638 256.991 57.2715 256.934 57.3847 256.942L59.2475 257.008L58.0594 255.46C57.9777 255.317 58.0149 255.135 58.1465 255.035C58.2781 254.935 58.4634 254.947 58.5801 255.064L60.1789 257.162C60.2454 257.267 60.2454 257.401 60.1789 257.507C60.1191 257.617 60.0033 257.684 59.8782 257.683L57.854 257.609L58.7414 259.575C58.7867 259.683 58.7709 259.808 58.6999 259.901C58.6289 259.995 58.5134 260.044 58.3967 260.03L56.1525 259.721L57.194 261.885C57.2538 262.007 57.2303 262.154 57.1353 262.252C57.0937 262.289 57.0431 262.314 56.9886 262.325Z" fill="#FFBC65"/>
<path d="M153.313 94.0391C153.115 98.4395 151.7 87.9665 144.388 86.0157C139.569 84.7249 135.33 84.5489 134.502 82.0553C138.029 81.9453 139.782 81.1532 144.131 81.872C148.48 82.5907 153.673 86.1477 153.313 94.0391Z" fill="#263238"/>
<path d="M208.267 90.607C203.764 93.2179 202.634 87.4534 203.654 84.7398C204.673 82.0262 203.874 81.5128 201.974 78.7992C199.231 74.8755 203.654 69.6464 208.362 70.8492C212.029 71.7879 216.371 72.8367 221.197 69.3017C229.844 62.9798 230.966 81.7255 236.657 74.2081C240.25 81.9602 232.872 91.465 222.04 92.3671C208.538 93.5039 208.267 90.607 208.267 90.607Z" fill="#FFBC65"/>
<path d="M207.959 70.7757L212.059 72.3818C215.33 72.1618 217.97 70.277 218.835 68.7148C215.652 71.7071 210.526 71.1644 207.959 70.7757Z" fill="#FFBC65"/>
<path d="M203.236 87.9885C202.73 87.0204 202.502 83.7055 202.913 82.312C202.803 83.3681 204.138 84.6662 204.138 84.6662C204.138 84.6662 204.138 89.7414 203.236 87.9885Z" fill="#FFBC65"/>
<path d="M230.951 73.5039L232.176 75.8728C234.515 76.2322 235.432 75.2201 235.043 74.2446C234.574 75.5574 232.506 74.8607 230.951 73.5039Z" fill="#FFBC65"/>
<path d="M205.7 92.1544C202.172 90.6436 201.49 86.83 201.776 84.3511C202.101 86.0685 203.082 87.5918 204.512 88.5975L205.7 92.1544Z" fill="#FFBC65"/>
<path d="M218.571 90.7318L221.387 93.878C228.325 93.3427 232.792 90.9078 236.789 86.104C233.217 89.4116 225.707 92.2206 218.571 90.7318Z" fill="#FFBC65"/>
<path d="M241.776 141.527L245.604 139.188L246.191 146.463C246.191 146.463 242.201 146.998 239.59 145.583L239.693 144.754C239.862 143.418 240.628 142.231 241.776 141.527Z" fill="#7F3E3B"/>
<path d="M249.374 142.26L249.242 144.6C249.178 145.617 248.347 146.416 247.328 146.441H246.191L245.604 139.166L248.222 140.339C248.969 140.677 249.428 141.443 249.374 142.26Z" fill="#7F3E3B"/>
<path d="M221.739 119.98L221.806 121.102L221.901 122.319C221.967 123.133 222.055 123.962 222.158 124.776C222.378 126.411 222.598 128.047 222.891 129.653C223.477 132.821 224.389 135.92 225.612 138.901L226.096 139.972C226.147 140.111 226.345 140.478 226.14 140.17C226.066 140.064 225.971 139.974 225.861 139.906C225.641 139.811 226.074 140.148 226.639 140.317C227.304 140.531 227.986 140.691 228.677 140.793C229.411 140.925 230.232 141.028 231.054 141.101C234.332 141.41 237.867 141.417 241.321 141.461H241.387C242.495 141.44 243.446 142.246 243.606 143.343C243.766 144.439 243.086 145.484 242.018 145.781C238.437 146.876 234.749 147.584 231.017 147.893C228.96 148.085 226.887 148.011 224.849 147.673C223.374 147.441 221.978 146.849 220.786 145.949C220.342 145.59 219.946 145.176 219.605 144.717C219.387 144.405 219.189 144.079 219.011 143.742L218.278 142.436C217.364 140.699 216.577 138.897 215.924 137.046C215.273 135.23 214.727 133.379 214.288 131.501C213.855 129.645 213.52 127.767 213.283 125.876C213.166 124.93 213.063 123.984 212.99 123.031C212.953 122.554 212.917 122.077 212.902 121.564C212.887 121.05 212.902 120.618 212.902 120.024C212.819 117.593 214.722 115.556 217.152 115.473C219.582 115.39 221.62 117.293 221.703 119.723L221.739 119.98Z" fill="#7F3E3B"/>
<path d="M221.563 123.236C220.654 125.517 222.436 132.154 216.84 133.679C214.64 138.175 210.68 136.613 209.36 144.754H184.424C185.451 137.72 190.658 127.607 192.763 111.582C192.997 109.814 193.969 108.227 195.438 107.215C196.906 106.203 198.735 105.861 200.471 106.272C201.446 106.507 202.466 106.778 203.507 107.086C207.156 108.076 210.73 109.326 214.2 110.827C215.322 111.333 216.466 111.897 217.552 112.462C221.461 114.487 223.196 119.147 221.563 123.236Z" fill="#263238"/>
<path opacity="0.2" d="M199.737 112.477C198.703 115.411 194.12 120.368 191.12 121.857C191.523 119.657 191.912 117.281 192.293 114.648L199.737 112.477Z" fill="black"/>
<path d="M208.773 95.4033C208.245 99.0703 206.712 105.627 203.5 107.086C208.703 111.384 211.901 117.639 212.337 124.373C216.782 119.54 214.193 110.827 214.193 110.827C210.68 108.568 211.773 105.752 213.379 103.309L208.773 95.4033Z" fill="#7F3E3B"/>
<path opacity="0.2" d="M210.65 98.6304L213.379 103.309C212.993 103.872 212.659 104.469 212.381 105.092C210.988 104.358 209.536 102.055 209.917 100.464C210.049 99.8136 210.298 99.1924 210.65 98.6304Z" fill="black"/>
<path d="M207.35 87.8198C206.734 93.8924 206.345 96.4446 208.817 100.016C212.535 105.385 219.649 104.622 222.018 98.8501C224.16 93.6577 225.142 84.7615 219.759 81.4319C214.376 78.1023 207.966 81.7546 207.35 87.8198Z" fill="#7F3E3B"/>
<path d="M215.322 92.1693L213.379 93.0127L213.855 91.0105L212.403 89.485L214.538 89.3164L215.594 87.5269L216.43 89.4264L218.535 89.8444L216.921 91.1865L217.163 93.2327L215.322 92.1693Z" fill="white"/>
<path d="M218.336 97.0314C216.407 96.0862 214.4 95.3084 212.337 94.7065C212.499 96.1073 213.188 97.4348 215.498 98.1682C217.808 98.9016 218.336 97.0314 218.336 97.0314Z" fill="#263238"/>
<path d="M214.713 96.8557C215.612 97.0967 216.423 97.5875 217.053 98.2712C216.538 98.3891 216 98.3534 215.506 98.1685C214.608 97.9324 213.797 97.4407 213.173 96.7531C213.686 96.6353 214.221 96.671 214.713 96.8557Z" fill="#630F0F"/>
<path d="M218.138 96.9731C217.944 97.26 217.601 97.4086 217.258 97.3545C215.924 96.9162 214.624 96.3768 213.371 95.741C212.959 95.5811 212.646 95.2358 212.528 94.8096C214.447 95.3967 216.322 96.1197 218.138 96.9731Z" fill="white"/>
<path d="M206.749 91.4795C210.254 91.0395 212.836 87.1598 212.293 84.1455C214.237 84.8789 218.08 83.8595 218.307 82.488C220.647 83.7862 225.641 84.5416 226.067 81.8353C226.492 79.1291 223.382 74.296 216.789 75.8141C210.196 77.3322 203.404 85.1209 206.749 91.4795Z" fill="#FFBC65"/>
<path d="M209.36 144.754C209.36 144.754 209.36 177.456 206.844 198.219C206.426 217.72 204.138 263.242 204.138 263.242H199.217C199.217 263.242 189.433 229.843 194.655 198.219C184.688 165.216 187.6 144.754 187.6 144.754H209.36Z" fill="black"/>
<path d="M214.846 90.5631C214.765 91.0544 214.956 91.4945 215.278 91.5458C215.601 91.5972 215.924 91.2451 216.012 90.7538C216.1 90.2624 215.894 89.8223 215.572 89.771C215.249 89.7197 214.926 90.079 214.846 90.5631Z" fill="#263238"/>
<path d="M220.845 91.6266C220.764 92.118 220.962 92.558 221.285 92.6094C221.607 92.6607 221.923 92.3087 222.018 91.8173C222.113 91.3259 221.908 90.8932 221.585 90.8419C221.263 90.7905 220.925 91.1426 220.845 91.6266Z" fill="#263238"/>
<path d="M221.424 90.8417L222.656 90.695C222.656 90.695 221.901 91.5164 221.424 90.8417Z" fill="#263238"/>
<path d="M219.825 92.3818C220.077 93.5677 220.491 94.7129 221.057 95.7848C220.494 96.0643 219.837 96.0804 219.26 95.8288L219.825 92.3818Z" fill="#630F0F"/>
<path d="M204.761 91.0545C204.912 92.2465 205.57 93.3155 206.565 93.9881C207.834 94.7875 208.971 93.4747 209.044 91.7879C209.11 90.3211 208.524 88.0842 207.042 87.9669C205.561 87.8495 204.527 89.4997 204.761 91.0545Z" fill="#7F3E3B"/>
<path d="M215.022 86.5881C215.1 86.6036 215.182 86.5878 215.249 86.5441C215.854 86.1149 216.628 86.0005 217.332 86.2361C217.48 86.2974 217.649 86.2288 217.713 86.0821C217.774 85.9342 217.706 85.7645 217.559 85.7007C216.675 85.3859 215.693 85.5199 214.926 86.0601C214.794 86.15 214.758 86.3295 214.846 86.4634C214.889 86.5235 214.951 86.5674 215.022 86.5881Z" fill="#263238"/>
<path d="M224.534 89.1257C224.602 89.1547 224.678 89.1547 224.746 89.1257C224.819 89.0994 224.878 89.0448 224.91 88.9744C224.942 88.9039 224.943 88.8236 224.915 88.7517C224.593 87.8723 223.871 87.1993 222.972 86.9402C222.895 86.9229 222.816 86.9374 222.751 86.9804C222.686 87.0233 222.641 87.0909 222.627 87.1676C222.595 87.3231 222.692 87.4758 222.847 87.5123C223.565 87.7214 224.135 88.2695 224.372 88.9791C224.405 89.0473 224.463 89.1001 224.534 89.1257Z" fill="#263238"/>
<path d="M215.417 89.7782L216.65 89.6315C216.65 89.6315 215.872 90.4529 215.417 89.7782Z" fill="#263238"/>
<path d="M184.395 144.754C184.395 144.754 195.095 151.699 194.098 169.279C197.215 169.719 209.858 155.982 209.36 144.754C205.399 138.087 184.395 144.754 184.395 144.754Z" fill="#263238"/>
<path d="M214.193 110.827C213.987 119.466 208.92 139.07 198.601 143.925L200.53 144.754C210.599 139.407 215.66 120.251 215.872 111.611C215.564 110.863 214.193 110.827 214.193 110.827Z" fill="white"/>
<path d="M184.395 144.754C184.395 144.754 164.285 170.731 220.749 199.649L223.514 195.872C226.399 191.947 226.148 186.539 222.913 182.898C217.836 177.201 213.328 171.021 209.455 164.446C203.969 155.051 195.148 148.066 184.747 144.879L184.395 144.754Z" fill="#263238"/>
<path d="M210.284 191.582C199.701 198.219 184.615 231.919 184.615 231.919L187.768 236.774C199.503 222.736 210.819 214.361 222.084 197.903L210.284 191.582Z" fill="#263238"/>
<path d="M178.865 235.63C180.456 235.043 182.18 235.116 185.466 230.312C185.466 230.312 190.746 233.341 189.375 234.874C186.881 237.654 183.148 244.768 184.695 248.89C185.576 251.244 182.686 250.95 181.813 249.322C179.613 245.259 180.86 244.577 179.4 242.421C178.161 240.58 177.42 240.433 176.606 238.835C175.895 237.507 177.266 236.224 178.865 235.63Z" fill="#263238"/>
<path d="M181.894 173.202C180.489 173.512 179.022 173.103 177.978 172.113C176.935 171.122 176.451 169.679 176.687 168.259L178.887 154.779L171.186 143.485C170.181 142.014 170.178 140.078 171.179 138.604C172.18 137.13 173.981 136.419 175.719 136.811L208.538 144.211C210.179 144.579 211.458 145.863 211.821 147.505C212.184 149.146 211.565 150.85 210.232 151.875L183.581 172.41C183.076 172.803 182.49 173.076 181.864 173.21L181.894 173.202Z" fill="#FFBC65"/>
<path opacity="0.3" d="M207.886 147.233L175.066 139.833C174.57 139.724 174.059 139.929 173.774 140.349C173.49 140.769 173.49 141.32 173.775 141.74L181.894 153.65C182.071 153.913 182.142 154.232 182.092 154.545L179.738 168.766C179.656 169.268 179.889 169.769 180.326 170.029C180.763 170.29 181.315 170.257 181.718 169.946L208.37 149.411C208.748 149.119 208.924 148.635 208.82 148.168C208.716 147.702 208.352 147.337 207.886 147.233Z" fill="white"/>
<path d="M185.023 148.461L186.348 148.168L188.441 157.65L187.116 157.943L185.023 148.461Z" fill="#263238"/>
<path d="M262.575 135.843L256.209 134.215C252.029 133.144 249.829 134.252 248.457 136.452L196.928 147.827L198.183 153.503L250.217 142.011L250.371 142.268C250.894 143.139 251.946 143.54 252.916 143.236L262.736 140.009C263.618 139.672 264.187 138.811 264.151 137.868C264.114 136.925 263.48 136.11 262.575 135.843Z" fill="#FFBC65"/>
<path opacity="0.4" d="M262.575 135.843L256.209 134.215C252.029 133.144 249.829 134.252 248.457 136.452L196.928 147.827L198.183 153.503L250.217 142.011L250.371 142.268C250.894 143.139 251.946 143.54 252.916 143.236L262.736 140.009C263.618 139.672 264.187 138.811 264.151 137.868C264.114 136.925 263.48 136.11 262.575 135.843Z" fill="black"/>
<path d="M186.602 152.652C186.512 152.651 186.436 152.586 186.419 152.498C186.406 152.449 186.414 152.396 186.442 152.352C186.47 152.309 186.515 152.28 186.566 152.271L253.84 137.412C254.413 137.287 254.912 136.939 255.226 136.444L256.855 133.885C256.916 133.798 257.034 133.772 257.126 133.826C257.216 133.885 257.242 134.006 257.185 134.097L255.549 136.65C255.181 137.233 254.595 137.645 253.921 137.794L186.646 152.645L186.602 152.652Z" fill="white"/>
<path d="M186.353 151.516C186.285 151.522 186.218 151.492 186.179 151.436C186.139 151.38 186.132 151.308 186.16 151.245C186.189 151.183 186.248 151.141 186.316 151.134L249.939 137.082C250.511 136.957 251.01 136.609 251.325 136.114L253.202 133.181C253.229 133.136 253.274 133.104 253.325 133.093C253.377 133.082 253.43 133.092 253.474 133.122C253.56 133.181 253.585 133.296 253.532 133.386L251.647 136.32C251.277 136.899 250.691 137.308 250.019 137.456L186.397 151.508L186.353 151.516Z" fill="white"/>
<path d="M186.866 153.833C186.761 153.846 186.666 153.77 186.654 153.665C186.641 153.559 186.717 153.464 186.822 153.452L254.104 138.601C254.775 138.447 255.479 138.571 256.055 138.945L259.671 141.248C259.761 141.308 259.787 141.428 259.73 141.52C259.702 141.563 259.659 141.593 259.61 141.604C259.56 141.615 259.508 141.606 259.466 141.578L255.85 139.268C255.354 138.957 254.757 138.852 254.185 138.975L186.91 153.833H186.866Z" fill="white"/>
<path d="M187.116 154.97C187.025 154.966 186.948 154.904 186.925 154.816C186.914 154.766 186.923 154.715 186.951 154.672C186.979 154.629 187.022 154.599 187.072 154.589L250.701 140.537C251.372 140.39 252.073 140.514 252.652 140.881L255.586 142.766C255.675 142.823 255.701 142.941 255.645 143.03C255.588 143.119 255.47 143.146 255.381 143.089L252.447 141.211C251.953 140.896 251.354 140.79 250.782 140.918L187.16 154.963L187.116 154.97Z" fill="white"/>
<path d="M190.746 146.587L194.758 148.597L188.89 152.938C188.89 152.938 186.331 149.844 186.148 146.866L186.881 146.521C188.111 145.946 189.537 145.97 190.746 146.587Z" fill="#7F3E3B"/>
<path d="M194.149 153.445L192.088 154.574C191.195 155.061 190.078 154.78 189.521 153.929L188.891 152.968L194.758 148.626L195.146 151.472C195.257 152.273 194.86 153.059 194.149 153.445Z" fill="#7F3E3B"/>
<path d="M198.953 114.743L197.955 115.41L196.892 116.144C196.158 116.642 195.476 117.171 194.787 117.706C193.393 118.777 192.051 119.906 190.753 121.05C189.455 122.194 188.245 123.434 187.086 124.673C186.536 125.319 185.949 125.942 185.451 126.609C185.194 126.939 184.908 127.262 184.666 127.599L183.933 128.612C183.83 128.744 183.61 129.118 183.793 128.729C183.843 128.626 183.868 128.513 183.867 128.399C183.867 128.348 183.815 128.516 183.823 128.766C183.858 129.451 183.972 130.13 184.16 130.79C184.615 132.451 185.174 134.082 185.832 135.674C187.152 139.019 188.766 142.414 190.299 145.766V145.817C190.747 146.812 190.398 147.986 189.479 148.574C188.559 149.163 187.347 148.988 186.632 148.164C184.103 145.181 181.829 141.992 179.833 138.63C178.775 136.867 177.858 135.022 177.09 133.115C176.643 131.996 176.316 130.833 176.115 129.646C175.984 128.833 175.966 128.006 176.063 127.189C176.139 126.609 176.292 126.042 176.518 125.502C176.69 125.127 176.884 124.762 177.097 124.409C179.174 120.811 181.752 117.527 184.754 114.655C186.202 113.242 187.728 111.91 189.323 110.665C190.12 110.049 190.934 109.448 191.765 108.861C192.183 108.575 192.601 108.282 193.034 108.003C193.467 107.724 193.878 107.468 194.42 107.145C196.478 105.841 199.203 106.451 200.507 108.509C201.812 110.567 201.201 113.292 199.143 114.596L198.953 114.743Z" fill="#7F3E3B"/>
<path d="M196.877 265.105C197.303 263.44 198.696 262.523 197.442 256.077C197.442 256.077 204.556 256.267 204.38 258.343C204.065 262.113 205.612 267.98 211.061 269.087C213.489 269.579 212.858 271.485 211.061 271.485C206.514 271.485 205.341 269.74 202.825 269.249C200.676 268.83 199.825 269.014 198.087 268.698C196.621 268.434 196.445 266.777 196.877 265.105Z" fill="black"/>
<path d="M43.3976 112.716C42.9454 112.421 42.4089 112.282 41.8703 112.321C41.2535 112.363 40.6458 112.155 40.1847 111.744L40.1214 111.554C40.1089 111.52 40.0835 111.493 40.0508 111.478C40.0181 111.463 39.9808 111.462 39.9473 111.475C39.8747 111.49 39.8265 111.559 39.8365 111.633L42.2105 118.918C42.0075 118.83 41.7904 118.779 41.5695 118.767C41.0039 118.746 40.4409 118.854 39.9235 119.084C38.7603 119.59 38.0797 120.515 38.4041 121.14C38.7286 121.765 39.6387 121.828 40.6358 121.536C40.8033 121.489 40.9672 121.431 41.1264 121.362C41.6359 121.159 42.0853 120.829 42.4321 120.405C42.711 120.121 42.7977 119.7 42.6537 119.329L41.0156 114.219C41.4794 114.537 42.0375 114.688 42.5983 114.646C43.248 114.593 43.889 114.824 44.3551 115.279C44.3894 115.299 44.4316 115.299 44.4659 115.279C44.5061 115.258 44.526 115.212 44.5134 115.168L43.9357 113.365C43.8368 113.093 43.6466 112.864 43.3976 112.716Z" fill="#FFBC65"/>
<path d="M275.19 59.7649C274.698 59.1225 273.994 58.6766 273.203 58.5072C272.295 58.325 271.516 57.7442 271.082 56.9253V56.6168C271.083 56.5615 271.06 56.5087 271.019 56.4711C270.978 56.4335 270.924 56.4147 270.869 56.4191C270.749 56.4134 270.643 56.4984 270.623 56.6168L269.769 68.7423C269.526 68.5148 269.237 68.3421 268.922 68.236C268.094 67.9585 267.211 67.8879 266.35 68.0304C264.356 68.3072 262.829 69.4225 262.947 70.5219C263.042 71.4711 264.324 72.1038 265.955 72.1038C266.219 72.1007 266.484 72.0796 266.746 72.0406C267.623 71.9375 268.464 71.6285 269.199 71.1389C269.775 70.818 270.136 70.2156 270.149 69.5569L270.75 61.062C271.238 61.7285 271.953 62.1929 272.76 62.3671C273.717 62.5603 274.527 63.1936 274.944 64.0756C274.973 64.1304 275.033 64.1619 275.095 64.1547H275.134C275.211 64.1421 275.272 64.0816 275.285 64.0044L275.49 61.0067C275.544 60.57 275.437 60.1285 275.19 59.7649Z" fill="#FFBC65"/>
<path d="M68.4806 98.9866C69.2289 99.2682 69.7852 99.9074 69.9604 100.687C69.9763 100.736 70.0201 100.77 70.0712 100.774C70.1359 100.774 70.1932 100.733 70.2137 100.671L70.6568 99.0894C70.7585 98.7407 70.7304 98.367 70.5777 98.0374C70.2981 97.4399 69.7995 96.9727 69.1849 96.7324C68.4808 96.4635 67.9463 95.8764 67.7447 95.1504L67.8159 94.8973C67.8281 94.8526 67.819 94.8047 67.7911 94.7676C67.7633 94.7305 67.7198 94.7083 67.6734 94.7075C67.5728 94.6925 67.4749 94.748 67.436 94.842L64.6505 104.84C64.4952 104.621 64.2923 104.439 64.057 104.31C63.422 103.978 62.7157 103.807 61.9995 103.811C61.2592 103.793 60.5248 103.947 59.8549 104.262C59.3247 104.459 58.9311 104.912 58.8103 105.465C58.7996 105.996 59.1126 106.481 59.6017 106.691C60.0253 106.926 60.4899 107.079 60.9707 107.141C61.1966 107.169 61.4237 107.185 61.6513 107.189C63.3052 107.189 64.7217 106.477 64.8167 105.559L66.0116 101.288C66.289 101.9 66.7944 102.38 67.4202 102.625C68.1685 102.907 68.7247 103.546 68.9 104.326C68.9129 104.373 68.9539 104.408 69.0029 104.413H69.0425C69.1064 104.41 69.1626 104.37 69.1849 104.31L69.6201 102.728C69.7243 102.38 69.699 102.006 69.5489 101.676C69.2674 101.08 68.7694 100.613 68.1562 100.371C67.452 100.102 66.9175 99.5148 66.7159 98.7889L67.0166 97.6973C67.3196 98.3 67.8443 98.7621 68.4806 98.9866Z" fill="#FFBC65"/>
<path fill-rule="evenodd" clip-rule="evenodd" d="M52.6143 83.4405L53.2473 89.5941C53.4214 90.2902 52.543 91.1286 51.2927 91.4687C51.1111 91.5251 50.9261 91.57 50.7388 91.6032C49.6625 91.7139 48.7762 91.5162 48.5705 90.8122C48.3647 90.1083 49.251 89.2619 50.5409 88.9139C51.1023 88.7544 51.6935 88.73 52.2661 88.8427C52.4865 88.8857 52.6962 88.9717 52.8833 89.0958L52.4006 84.3501L45.5633 85.315L46.1015 90.5986C46.2835 91.3026 45.4051 92.1331 44.1231 92.4732C43.9489 92.5215 43.7718 92.5585 43.5929 92.584C42.5246 92.7026 41.6224 92.497 41.4246 91.793C41.2268 91.089 42.1131 90.2427 43.3951 89.8947C44.1791 89.6306 45.0371 89.6992 45.7691 90.0845L45.1914 84.4529L44.9619 82.1591V82.0325L52.3848 81.0122V81.1467L52.6143 83.4405ZM45.4921 84.4133L45.5554 85.0224L52.3769 84.097L52.3136 83.48L45.4921 84.4133Z" fill="#FFBC65"/>
<path d="M260.388 48.8316L256.914 43.0417L255.616 40.8745L255.545 40.7559L248.328 44.2203L248.399 44.3389L249.697 46.5061L252.862 51.8056C251.98 51.6682 251.078 51.8842 250.354 52.4067C249.175 53.1977 248.652 54.2892 249.183 54.9061C249.713 55.5231 250.765 55.4282 251.77 54.9061C251.942 54.822 252.109 54.7269 252.269 54.6214C253.432 53.87 253.962 52.7547 253.456 52.1378L249.982 46.34L256.613 43.1762L259.779 48.4756C258.893 48.3353 257.988 48.5514 257.262 49.0768C256.752 49.3859 256.334 49.8255 256.051 50.3502C255.807 50.7281 255.826 51.2183 256.099 51.5762C256.454 51.9176 256.954 52.0625 257.436 51.9638C257.868 51.9152 258.289 51.7921 258.679 51.5999C258.855 51.5189 259.024 51.4236 259.185 51.3152C260.364 50.5559 260.894 49.4485 260.388 48.8316Z" fill="#FFBC65"/>
</svg>
