<?xml version="1.0" encoding="UTF-8"?>
<svg width="32px" height="32px" viewBox="0 0 32 32" version="1.1" xmlns="http://www.w3.org/2000/svg" xmlns:xlink="http://www.w3.org/1999/xlink">
    <title>close</title>
    <g id="Page-1" stroke="none" stroke-width="1" fill="none" fill-rule="evenodd">
        <g id="Cancel-Anytime" transform="translate(-36.000000, -616.000000)" fill="#6558F5" fill-rule="nonzero">
            <g id="iOS-/-Card-/-Policy-Feature-with-Icon" transform="translate(24.000000, 604.000000)">
                <g id="close" transform="translate(12.000000, 12.000000)">
                    <path d="M30.6666667,14.6666667 C29.9306667,14.6666667 29.3333333,15.264 29.3333333,16 C29.3333333,23.352 23.352,29.3333333 16,29.3333333 C8.648,29.3333333 2.66666667,23.352 2.66666667,16 C2.66666667,8.648 8.648,2.66666667 16,2.66666667 C19.5793333,2.66666667 22.9393333,4.06533333 25.4613333,6.60533333 C25.98,7.12733333 26.8246667,7.13066667 27.3466667,6.612 C27.8693333,6.09333333 27.872,5.24866667 27.3533333,4.726 C24.3273333,1.67866667 20.2946667,0 16,0 C7.17733333,0 0,7.17733333 0,16 C0,24.8226667 7.17733333,32 16,32 C24.822,32 32,24.8226667 32,16 C32,15.264 31.4026667,14.6666667 30.6666667,14.6666667 Z" id="Path"></path>
                    <path d="M17.8853333,16 L20.9426667,12.9426667 C21.4633333,12.422 21.4633333,11.578 20.9426667,11.0573333 C20.422,10.5366667 19.578,10.5366667 19.0573333,11.0573333 L16,14.1146667 L12.9426667,11.0573333 C12.4226667,10.5366667 11.5773333,10.5366667 11.0573333,11.0573333 C10.5366667,11.578 10.5366667,12.422 11.0573333,12.9426667 L14.1146667,16 L11.0573333,19.0573333 C10.5366667,19.578 10.5366667,20.422 11.0573333,20.9426667 C11.3173333,21.2033333 11.6586667,21.3333333 12,21.3333333 C12.3413333,21.3333333 12.6826667,21.2033333 12.9426667,20.9426667 L16,17.8853333 L19.0573333,20.9426667 C19.318,21.2033333 19.6586667,21.3333333 20,21.3333333 C20.3413333,21.3333333 20.682,21.2033333 20.9426667,20.9426667 C21.4633333,20.422 21.4633333,19.578 20.9426667,19.0573333 L17.8853333,16 Z" id="Path"></path>
                </g>
            </g>
        </g>
    </g>
</svg>