<?xml version="1.0" encoding="UTF-8"?>
<svg width="40px" height="40px" viewBox="0 0 40 40" version="1.1" xmlns="http://www.w3.org/2000/svg" xmlns:xlink="http://www.w3.org/1999/xlink">
    <title>rythmico-saxophone-icon</title>
    <g id="High-Fidelity" stroke="none" stroke-width="1" fill="none" fill-rule="evenodd">
        <g id="rythmico-saxophone-icon" transform="translate(0.000000, 0.000000)">
            <polygon id="Path" points="0 0 40 0 40 40 0 40"></polygon>
            <path d="M29.4298437,0.47171875 C30.766875,0.01703125 32.4817187,-0.116796875 34.0457031,0.106875 C34.4625,0.0984375 36.2517969,0.6628125 39.4386719,1.59304687 C39.7714062,1.69070312 40,1.99601562 40,2.34273437 L40,2.34273437 L40,5.46773437 C40,5.89914062 39.6502344,6.24898437 39.21875,6.24898437 L39.21875,6.24898437 L32.03125,6.24898437 C31.6004687,6.24898437 31.25,6.59945312 31.25,7.03023437 L31.25,7.03023437 L31.25,7.94585937 C32.1592969,8.26835937 32.8125,9.13671875 32.8125,10.1552344 C32.8125,11.17375 32.1592969,12.0421094 31.25,12.3646094 L31.25,12.3646094 L31.25,14.4302344 C32.1592969,14.7527344 32.8125,15.6210937 32.8125,16.6396094 C32.8125,17.658125 32.1592969,18.5264844 31.25,18.8489844 L31.25,18.8489844 L31.25,20.9146094 C32.1592969,21.2371094 32.8125,22.1054687 32.8125,23.1239844 C32.8125,24.1425 32.1592969,25.0108594 31.25,25.3333594 L31.25,25.3333594 L31.25,26.2896094 C31.25,33.3919531 25.8816406,39.5152344 18.85125,39.9701562 C15.1328906,40.2109375 11.5953125,38.9473437 8.88804688,36.4098437 C6.21851563,33.9077344 4.6875,30.3750781 4.6875,26.7178125 L4.6875,26.7178125 L4.6875,24.6928125 C4.6875,24.4392969 4.68039063,24.1757031 4.66742188,23.9053125 L4.66742188,23.9053125 L3.90625,23.9053125 C3.47476563,23.9053125 3.125,23.5554687 3.125,23.1240625 C3.125,22.6926562 3.47476563,22.3428125 3.90625,22.3428125 L3.90625,22.3428125 L4.53242187,22.3428125 C4.15695313,19.2514062 3.16601563,16.2451562 1.92664063,14.5092187 L1.92664063,14.5092187 L1.9128125,14.4898437 C0.825703125,14.286875 0,13.3315625 0,12.1864844 C0,10.8914844 1.04890625,9.84273437 2.34375,9.84273437 L2.34375,9.84273437 L17.9688281,9.84273437 C19.2611719,9.84273437 20.3125781,10.8941406 20.3125781,12.1864844 C20.3125781,13.3475 19.4744531,14.2916406 18.399375,14.4903906 L18.399375,14.4903906 L18.3882031,14.5060156 C17.5884375,15.6267187 16.8640625,17.4214062 16.3485937,19.5594531 C16.1309375,20.4634375 15.9551562,21.4114062 15.830625,22.3427344 L15.830625,22.3427344 L16.40625,22.3427344 C16.8377344,22.3427344 17.1875,22.6925781 17.1875,23.1239844 C17.1875,23.5553906 16.8377344,23.9052344 16.40625,23.9052344 L16.40625,23.9052344 L15.6708594,23.9052344 C15.640625,24.3460937 15.625,24.7648437 15.625,25.1552344 C15.625,27.3728125 17.4751562,29.1750781 19.7428125,29.0563281 C21.78,28.9495312 23.4375,27.0803906 23.4375,24.8896094 L23.4375,24.8896094 L23.4375,23.9052344 L22.65625,23.9052344 C22.2247656,23.9052344 21.875,23.5553906 21.875,23.1239844 C21.875,22.6925781 22.2247656,22.3427344 22.65625,22.3427344 L22.65625,22.3427344 L23.4375,22.3427344 L23.4375,17.4208594 L22.65625,17.4208594 C22.2247656,17.4208594 21.875,17.0710156 21.875,16.6396094 C21.875,16.2082031 22.2247656,15.8583594 22.65625,15.8583594 L22.65625,15.8583594 L23.4375,15.8583594 L23.4375,10.9364844 L22.65625,10.9364844 C22.2247656,10.9364844 21.875,10.5866406 21.875,10.1552344 C21.875,9.72382812 22.2247656,9.37398437 22.65625,9.37398437 L22.65625,9.37398437 L23.4375,9.37398437 L23.4375,9.21929687 C23.4375,7.32796875 24.0080469,5.43226562 25.0440625,3.88148437 C26.1292187,2.25703125 27.6458594,1.07796875 29.4298437,0.47171875 Z M14.1048437,23.8974219 L6.23203125,23.8974219 C6.24390625,24.1667187 6.25,24.43 6.25,24.6849219 L6.25,24.6849219 L6.25,26.7177344 C6.25,29.9922656 7.56632812,33.0294531 9.9565625,35.2697656 C12.3446094,37.5080469 15.4680469,38.6239844 18.7502344,38.4107812 C24.8833594,38.0141406 29.6875,32.6899219 29.6875,26.2896094 L29.6875,26.2896094 L29.6875,25.3333594 C29.0227344,25.0975781 28.4951563,24.57 28.259375,23.9052344 L28.259375,23.9052344 L25,23.9052344 L25,24.8896094 C25,27.8536719 22.7696094,30.4622656 19.8244531,30.6166406 C16.6573437,30.7821094 14.0625,28.2645312 14.0625,25.1552344 C14.0625,24.7614844 14.0767969,24.3353906 14.1048437,23.8974219 L14.1048437,23.8974219 Z M24.0452344,32.7941406 C24.3503125,32.4891406 24.845,32.4891406 25.1500781,32.7941406 C25.4551562,33.0992969 25.4551562,33.5939844 25.1500781,33.8990625 C23.2392969,35.8097656 20.6672656,36.8732812 17.9683594,36.8732812 C17.1554687,36.8732812 16.3425781,36.7764844 15.5497656,36.5828125 C15.130625,36.4803906 14.8738281,36.0576562 14.97625,35.6385156 C15.0785937,35.2194531 15.5011719,34.9621875 15.9205469,35.065 C18.8663281,35.7846875 21.90375,34.9357812 24.0452344,32.7941406 Z M12.890625,33.7489844 C13.321875,33.7489844 13.671875,34.0989844 13.671875,34.5302344 C13.671875,34.9614844 13.321875,35.3114844 12.890625,35.3114844 C12.459375,35.3114844 12.109375,34.9614844 12.109375,34.5302344 C12.109375,34.0989844 12.459375,33.7489844 12.890625,33.7489844 Z M30.46875,22.3427344 C30.0379687,22.3427344 29.6875,22.6932031 29.6875,23.1239844 C29.6875,23.5547656 30.0379687,23.9052344 30.46875,23.9052344 C30.8995313,23.9052344 31.25,23.5547656 31.25,23.1239844 C31.25,22.6932031 30.8995313,22.3427344 30.46875,22.3427344 Z M28.259375,17.4208594 L25,17.4208594 L25,22.3427344 L28.259375,22.3427344 C28.4951563,21.6779687 29.0227344,21.1503906 29.6875,20.9146094 L29.6875,20.9146094 L29.6875,18.8489844 C29.0227344,18.6132031 28.4951563,18.085625 28.259375,17.4208594 L28.259375,17.4208594 Z M17.96875,11.4052344 L2.34375,11.4052344 C1.91234375,11.4052344 1.5625,11.7552344 1.5625,12.1864844 C1.5625,12.6172656 1.91296875,12.9677344 2.34375,12.9677344 L2.34375,12.9677344 L7.0328125,12.9677344 C7.46429687,12.9677344 7.8140625,13.3175781 7.8140625,13.7489844 C7.8140625,14.1803906 7.46429687,14.5302344 7.0328125,14.5302344 L7.0328125,14.5302344 L3.78625,14.5302344 C5.09085937,16.8432812 5.82539062,19.9564062 6.10476563,22.3427344 L6.10476563,22.3427344 L14.2557031,22.3427344 C14.3884375,21.2914062 14.5833594,20.2160156 14.8295312,19.1934375 C15.1559375,17.8395312 15.7,16.0314062 16.5334375,14.5224219 L16.5334375,14.5224219 L13.2796875,14.5224219 C12.8482031,14.5224219 12.4984375,14.1803906 12.4984375,13.7489844 C12.4984375,13.3175781 12.8482031,12.9677344 13.2796875,12.9677344 L13.2796875,12.9677344 L17.96875,12.9677344 C18.4001562,12.9677344 18.75,12.6177344 18.75,12.1864844 C18.75,11.7557031 18.3995313,11.4052344 17.96875,11.4052344 L17.96875,11.4052344 Z M30.46875,15.8583594 C30.0379687,15.8583594 29.6875,16.2088281 29.6875,16.6396094 C29.6875,17.0703906 30.0379687,17.4208594 30.46875,17.4208594 C30.8995313,17.4208594 31.25,17.0703906 31.25,16.6396094 C31.25,16.2088281 30.8995313,15.8583594 30.46875,15.8583594 Z M28.259375,10.9364844 L25,10.9364844 L25,15.8583594 L28.259375,15.8583594 C28.4951563,15.1935937 29.0227344,14.6660156 29.6875,14.4302344 L29.6875,14.4302344 L29.6875,12.3646094 C29.0227344,12.1288281 28.4951563,11.60125 28.259375,10.9364844 L28.259375,10.9364844 Z M9.60390625,13.1966406 C9.90859375,12.8911719 10.4039062,12.8911719 10.7085937,13.1966406 C11.0140625,13.5013281 11.0140625,13.9966406 10.7085937,14.3013281 C10.4039062,14.6067969 9.90859375,14.6067969 9.60390625,14.3013281 C9.2984375,13.9966406 9.2984375,13.5013281 9.60390625,13.1966406 Z M30.46875,9.37398437 C30.0379687,9.37398437 29.6875,9.72445312 29.6875,10.1552344 C29.6875,10.5860156 30.0379687,10.9364844 30.46875,10.9364844 C30.8995313,10.9364844 31.25,10.5860156 31.25,10.1552344 C31.25,9.72445312 30.8995313,9.37398437 30.46875,9.37398437 Z M33.28125,1.59265625 C32.1102344,1.49734375 30.8978906,1.62296875 29.9328125,1.95117187 C26.9822656,2.95375 25,5.87453125 25,9.21929687 L25,9.21929687 L25,9.37398437 L28.259375,9.37398437 C28.4951563,8.70921875 29.0227344,8.18164062 29.6875,7.94585937 L29.6875,7.94585937 L29.6875,7.03023437 C29.6875,5.73789062 30.7389062,4.68648437 32.03125,4.68648437 L32.03125,4.68648437 L33.28125,4.68648437 Z M34.84375,1.86992187 L34.84375,4.68648437 L38.4375,4.68648437 L38.4375,2.9278125 C35.2949808,2.00570902 34.917529,1.89324921 34.9035604,1.88814388 L34.9064675,1.88875501 L34.9128262,1.89048112 C34.8952901,1.88499107 34.8752123,1.87911409 34.84375,1.86992187 L34.84375,1.86992187 Z" id="Combined-Shape" fill="#141E29" fill-rule="nonzero"></path>
        </g>
    </g>
</svg>