<?xml version="1.0" encoding="UTF-8"?>
<svg width="106px" height="90px" viewBox="0 0 106 90" version="1.1" xmlns="http://www.w3.org/2000/svg" xmlns:xlink="http://www.w3.org/1999/xlink">
    <title>Icon / Saxo</title>
    <g id="Icon-/-Saxo" stroke="none" stroke-width="1" fill="none" fill-rule="evenodd">
        <path d="M56.6383318,85.3483636 C48.4291195,87.4883057 39.5135831,86.7789175 31.7415671,83.3670068 C23.9695511,79.9550962 17.3911765,73.8623008 13.3719666,66.3537419 C10.7479714,61.4518422 9.20375586,55.5858319 10.9430073,50.3010269 C11.5798702,48.3654106 12.7081364,46.5067588 14.4506566,45.4643142 C16.8461111,44.0310214 19.9993726,44.4226913 22.4212496,45.8105176 C24.8431266,47.197796 26.6602834,49.4338752 28.2736877,51.7195294 C33.1588459,58.6394878 36.7277844,66.4920589 42.2037706,72.9491347 C47.6794844,79.4064844 55.87998,84.4798424 64.204416,83.0832516 L56.6383318,85.3483636 Z" id="shape-blob-yellow" fill-opacity="0.6" fill="#FFBC65" transform="translate(37.204416, 65.561628) rotate(-40.000000) translate(-37.204416, -65.561628) "></path>
        <path d="M46.05,46 C45.6626374,33.2807688 39.5987913,20.8526438 29.8759042,12.8512419 C26.961939,10.452927 23.5897938,8.38522703 19.8573758,8.04180432 C16.1249578,7.6983816 12.0117896,9.48192207 10.5286771,12.9845298 C8.92398053,16.7741192 10.8509816,21.3250128 13.9217262,24.0196438 C16.9922576,26.7144918 20.9744562,28.0113359 24.7892101,29.4099911 C29.4883283,31.1327488 34.1477716,33.1309827 38.1896957,36.117371 C40.8845963,38.1081518 43.5046977,41.4023615 46.05,46 Z" id="shape-blob-red2" fill-opacity="0.6" fill="#FF6F6F"></path>
        <path d="M74.4432717,56.8660126 C72.6179638,53.2181038 72.1064341,48.9778566 73.0146719,45.0255642 C73.9229096,41.0732719 76.245277,37.4340288 79.4993727,34.8633778 C81.6240439,33.1852964 84.3196288,31.924253 87.0484763,32.2540922 C88.0480452,32.3748707 89.0571982,32.7328734 89.7299669,33.4532117 C90.654554,34.4436318 90.7671206,35.9561617 90.3268142,37.2175662 C89.8868836,38.4787902 88.9771425,39.5349253 88.0239909,40.5000703 C85.1380387,43.4220442 81.6738438,45.813423 79.0690263,48.9697325 C76.4642087,52.126042 74.7916832,56.4312821 76.2674521,60.2014137 L74.4432717,56.8660126 Z" id="shape-blob-green" fill-opacity="0.6" fill="#00A19E" transform="translate(81.575384, 46.201414) rotate(34.000000) translate(-81.575384, -46.201414) "></path>
        <g id="iOS-/-Icon-/-Guitar" transform="translate(21.000000, 13.000000)">
            <polygon id="Path" points="0 0 64 0 64 64 0 64"></polygon>
            <path d="M47.08775,0.75475 C49.227,0.02725 51.97075,-0.186875 54.473125,0.171 C55.14,0.1575 58.002875,1.0605 63.101875,2.548875 C63.63425,2.705125 64,3.193625 64,3.748375 L64,3.748375 L64,8.748375 C64,9.438625 63.440375,9.998375 62.75,9.998375 L62.75,9.998375 L51.25,9.998375 C50.56075,9.998375 50,10.559125 50,11.248375 L50,11.248375 L50,12.713375 C51.454875,13.229375 52.5,14.61875 52.5,16.248375 C52.5,17.878 51.454875,19.267375 50,19.783375 L50,19.783375 L50,23.088375 C51.454875,23.604375 52.5,24.99375 52.5,26.623375 C52.5,28.253 51.454875,29.642375 50,30.158375 L50,30.158375 L50,33.463375 C51.454875,33.979375 52.5,35.36875 52.5,36.998375 C52.5,38.628 51.454875,40.017375 50,40.533375 L50,40.533375 L50,42.063375 C50,53.427125 41.410625,63.224375 30.162,63.95225 C24.212625,64.3375 18.5525,62.31575 14.220875,58.25575 C9.949625,54.252375 7.5,48.600125 7.5,42.7485 L7.5,42.7485 L7.5,39.5085 C7.5,39.102875 7.488625,38.681125 7.467875,38.2485 L7.467875,38.2485 L6.25,38.2485 C5.559625,38.2485 5,37.68875 5,36.9985 C5,36.30825 5.559625,35.7485 6.25,35.7485 L6.25,35.7485 L7.251875,35.7485 C6.651125,30.80225 5.065625,25.99225 3.082625,23.21475 L3.082625,23.21475 L3.0605,23.18375 C1.321125,22.859 0,21.3305 0,19.498375 C0,17.426375 1.67825,15.748375 3.75,15.748375 L3.75,15.748375 L28.750125,15.748375 C30.817875,15.748375 32.500125,17.430625 32.500125,19.498375 C32.500125,21.356 31.159125,22.866625 29.439,23.184625 L29.439,23.184625 L29.421125,23.209625 C28.1415,25.00275 26.9825,27.87425 26.15775,31.295125 C25.8095,32.7415 25.52825,34.25825 25.329,35.748375 L25.329,35.748375 L26.25,35.748375 C26.940375,35.748375 27.5,36.308125 27.5,36.998375 C27.5,37.688625 26.940375,38.248375 26.25,38.248375 L26.25,38.248375 L25.073375,38.248375 C25.025,38.95375 25,39.62375 25,40.248375 C25,43.7965 27.96025,46.680125 31.5885,46.490125 C34.848,46.31925 37.5,43.328625 37.5,39.823375 L37.5,39.823375 L37.5,38.248375 L36.25,38.248375 C35.559625,38.248375 35,37.688625 35,36.998375 C35,36.308125 35.559625,35.748375 36.25,35.748375 L36.25,35.748375 L37.5,35.748375 L37.5,27.873375 L36.25,27.873375 C35.559625,27.873375 35,27.313625 35,26.623375 C35,25.933125 35.559625,25.373375 36.25,25.373375 L36.25,25.373375 L37.5,25.373375 L37.5,17.498375 L36.25,17.498375 C35.559625,17.498375 35,16.938625 35,16.248375 C35,15.558125 35.559625,14.998375 36.25,14.998375 L36.25,14.998375 L37.5,14.998375 L37.5,14.750875 C37.5,11.72475 38.412875,8.691625 40.0705,6.210375 C41.80675,3.61125 44.233375,1.72475 47.08775,0.75475 Z M22.56775,38.235875 L9.97125,38.235875 C9.99025,38.66675 10,39.088 10,39.495875 L10,39.495875 L10,42.748375 C10,47.987625 12.106125,52.847125 15.9305,56.431625 C19.751375,60.012875 24.748875,61.798375 30.000375,61.45725 C39.813375,60.822625 47.5,52.303875 47.5,42.063375 L47.5,42.063375 L47.5,40.533375 C46.436375,40.156125 45.59225,39.312 45.215,38.248375 L45.215,38.248375 L40,38.248375 L40,39.823375 C40,44.565875 36.431375,48.739625 31.719125,48.986625 C26.65175,49.251375 22.5,45.22325 22.5,40.248375 C22.5,39.618375 22.522875,38.936625 22.56775,38.235875 L22.56775,38.235875 Z M38.472375,52.470625 C38.9605,51.982625 39.752,51.982625 40.240125,52.470625 C40.72825,52.958875 40.72825,53.750375 40.240125,54.2385 C37.182875,57.295625 33.067625,58.99725 28.749375,58.99725 C27.44875,58.99725 26.148125,58.842375 24.879625,58.5325 C24.209,58.368625 23.798125,57.69225 23.962,57.021625 C24.12575,56.351125 24.801875,55.9395 25.472875,56.104 C30.186125,57.2555 35.046,55.89725 38.472375,52.470625 Z M20.625,53.998375 C21.315,53.998375 21.875,54.558375 21.875,55.248375 C21.875,55.938375 21.315,56.498375 20.625,56.498375 C19.935,56.498375 19.375,55.938375 19.375,55.248375 C19.375,54.558375 19.935,53.998375 20.625,53.998375 Z M48.75,35.748375 C48.06075,35.748375 47.5,36.309125 47.5,36.998375 C47.5,37.687625 48.06075,38.248375 48.75,38.248375 C49.43925,38.248375 50,37.687625 50,36.998375 C50,36.309125 49.43925,35.748375 48.75,35.748375 Z M45.215,27.873375 L40,27.873375 L40,35.748375 L45.215,35.748375 C45.59225,34.68475 46.436375,33.840625 47.5,33.463375 L47.5,33.463375 L47.5,30.158375 C46.436375,29.781125 45.59225,28.937 45.215,27.873375 L45.215,27.873375 Z M28.75,18.248375 L3.75,18.248375 C3.05975,18.248375 2.5,18.808375 2.5,19.498375 C2.5,20.187625 3.06075,20.748375 3.75,20.748375 L3.75,20.748375 L11.2525,20.748375 C11.942875,20.748375 12.5025,21.308125 12.5025,21.998375 C12.5025,22.688625 11.942875,23.248375 11.2525,23.248375 L11.2525,23.248375 L6.058,23.248375 C8.145375,26.94925 9.320625,31.93025 9.767625,35.748375 L9.767625,35.748375 L22.809125,35.748375 C23.0215,34.06625 23.333375,32.345625 23.72725,30.7095 C24.2495,28.54325 25.12,25.65025 26.4535,23.235875 L26.4535,23.235875 L21.2475,23.235875 C20.557125,23.235875 19.9975,22.688625 19.9975,21.998375 C19.9975,21.308125 20.557125,20.748375 21.2475,20.748375 L21.2475,20.748375 L28.75,20.748375 C29.44025,20.748375 30,20.188375 30,19.498375 C30,18.809125 29.43925,18.248375 28.75,18.248375 L28.75,18.248375 Z M48.75,25.373375 C48.06075,25.373375 47.5,25.934125 47.5,26.623375 C47.5,27.312625 48.06075,27.873375 48.75,27.873375 C49.43925,27.873375 50,27.312625 50,26.623375 C50,25.934125 49.43925,25.373375 48.75,25.373375 Z M45.215,17.498375 L40,17.498375 L40,25.373375 L45.215,25.373375 C45.59225,24.30975 46.436375,23.465625 47.5,23.088375 L47.5,23.088375 L47.5,19.783375 C46.436375,19.406125 45.59225,18.562 45.215,17.498375 L45.215,17.498375 Z M15.36625,21.114625 C15.85375,20.625875 16.64625,20.625875 17.13375,21.114625 C17.6225,21.602125 17.6225,22.394625 17.13375,22.882125 C16.64625,23.370875 15.85375,23.370875 15.36625,22.882125 C14.8775,22.394625 14.8775,21.602125 15.36625,21.114625 Z M48.75,14.998375 C48.06075,14.998375 47.5,15.559125 47.5,16.248375 C47.5,16.937625 48.06075,17.498375 48.75,17.498375 C49.43925,17.498375 50,16.937625 50,16.248375 C50,15.559125 49.43925,14.998375 48.75,14.998375 Z M53.25,2.54825 C51.376375,2.39575 49.436625,2.59675 47.8925,3.121875 C43.171625,4.726 40,9.39925 40,14.750875 L40,14.750875 L40,14.998375 L45.215,14.998375 C45.59225,13.93475 46.436375,13.090625 47.5,12.713375 L47.5,12.713375 L47.5,11.248375 C47.5,9.180625 49.18225,7.498375 51.25,7.498375 L51.25,7.498375 L53.25,7.498375 Z M55.75,2.991875 L55.75,7.498375 L61.5,7.498375 L61.5,4.6845 C56.7973125,3.30459926 55.9647243,3.0579083 55.858381,3.02507777 C55.8562737,3.02360537 55.8576854,3.02399127 55.859127,3.02438672 L55.871,3.0272308 C55.8666717,3.02605387 55.8640712,3.02528502 55.8610337,3.02438923 L55.852,3.0212308 L55.8549342,3.02324144 C55.8484757,3.0219808 55.8464507,3.02131288 55.8455634,3.02098099 L55.8481035,3.02142072 C55.8307987,3.01549822 55.7990441,3.00620404 55.75,2.991875 L55.75,2.991875 Z" id="Combined-Shape" fill="#E7E8E9" fill-rule="nonzero"></path>
        </g>
    </g>
</svg>
