<?xml version="1.0" encoding="UTF-8"?>
<svg width="305px" height="280px" viewBox="0 0 305 280" version="1.1" xmlns="http://www.w3.org/2000/svg" xmlns:xlink="http://www.w3.org/1999/xlink">
    <title>iOS/Sign-Up/Pending</title>
    <g id="Page-1" stroke="none" stroke-width="1" fill="none" fill-rule="evenodd">
        <g id="Pending" transform="translate(-35.000000, -127.000000)" fill-rule="nonzero">
            <g id="iOS/Sign-Up/Pending" transform="translate(35.000000, 127.000000)">
                <g id="freepik--background-simple--inject-85">
                    <path d="M283.323577,18.4314363 C234.592954,-50.7642276 160.19187,99.1913279 132.275339,99.4644986 C89.8883469,99.8818428 97.8861789,32.7577236 52.6536585,32.901897 C-10.9799458,33.099187 -0.766395664,99.6162602 4.22655827,124.156098 C9.27262873,148.938753 28.6222222,205.098103 81.0710027,206.797832 C161.185908,209.400542 147.489431,151.230352 193.920867,132.935501 C215.820054,124.307859 228.977778,154.455285 263.624932,141.608672 C324.056369,119.21626 300.730623,43.1533875 283.323577,18.4314363 Z" id="Path" fill="#6558F5"></path>
                    <path d="M283.323577,18.4314363 C234.592954,-50.7642276 160.19187,99.1913279 132.275339,99.4644986 C89.8883469,99.8818428 97.8861789,32.7577236 52.6536585,32.901897 C-10.9799458,33.099187 -0.766395664,99.6162602 4.22655827,124.156098 C9.27262873,148.938753 28.6222222,205.098103 81.0710027,206.797832 C161.185908,209.400542 147.489431,151.230352 193.920867,132.935501 C215.820054,124.307859 228.977778,154.455285 263.624932,141.608672 C324.056369,119.21626 300.730623,43.1533875 283.323577,18.4314363 Z" id="Path" fill="#FFFFFF" opacity="0.9"></path>
                </g>
                <g id="freepik--Shadow--inject-85" transform="translate(9.864499, 261.788618)" fill="#F5F5F5">
                    <ellipse id="freepik--path--inject-85" cx="147.208672" cy="9.28780488" rx="147.125203" ry="8.5897019"></ellipse>
                </g>
                <g id="freepik--character-1--inject-85" transform="translate(12.899729, 45.528455)">
                    <path d="M46.9474255,4.79566396 C45.4298103,7.01897019 45.9078591,8.63523035 47.1902439,13.0514905 C47.7214092,14.8802168 48.5409214,16.701355 51.0601626,14.0075881 C53.5794038,11.3138211 56.0303523,6.19186992 52.797832,5.32682927 C50.8941118,4.80707971 48.9136231,4.6272688 46.9474255,4.79566396 L46.9474255,4.79566396 Z" id="Path" fill="#263238"></path>
                    <polygon id="Path" fill="#FFC3BD" points="46.8791328 218.453117 41.2487805 218.453117 41.0059621 205.394038 46.6439024 205.394038"></polygon>
                    <polygon id="Path" fill="#FFC3BD" points="80.7295393 218.453117 75.0915989 218.453117 72.5799458 205.394038 78.2178862 205.394038"></polygon>
                    <path d="M74.704607,217.777762 L81.0406504,217.777762 C81.2676639,217.776496 81.4642699,217.935049 81.5111111,218.157182 L82.5051491,223.1729 C82.5477647,223.42272 82.4776847,223.678596 82.3137217,223.871838 C82.1497587,224.06508 81.9087102,224.175892 81.6552846,224.174526 C79.4395664,224.174526 78.3696477,224.007588 75.5848238,224.007588 C73.8699187,224.007588 70.3414634,224.182114 67.996748,224.182114 C65.6520325,224.182114 65.3788618,221.844986 66.3501355,221.63252 C70.7208672,220.684011 72.4205962,219.356098 73.8092141,218.119241 C74.0583867,217.903917 74.3753297,217.783049 74.704607,217.777762 L74.704607,217.777762 Z" id="Path" fill="#263238"></path>
                    <path d="M41.301897,217.777762 L47.4558266,217.777762 C47.6828401,217.776496 47.8794461,217.935049 47.9262873,218.157182 L48.9127371,223.1729 C48.9605445,223.420976 48.89447,223.677412 48.732733,223.871496 C48.570996,224.06558 48.3306796,224.176814 48.0780488,224.174526 C45.8623306,224.174526 42.6525745,224.007588 39.8601626,224.007588 C36.59729,224.007588 33.7897019,224.182114 29.9501355,224.182114 C27.6737127,224.182114 27.0514905,221.844986 28.0227642,221.63252 C32.4542005,220.668835 36.0585366,220.562602 39.9284553,218.217886 C40.3367362,217.946945 40.812183,217.794592 41.301897,217.777762 Z" id="Path" fill="#263238"></path>
                    <path d="M42.7663957,40.1485095 L35.0720867,37.6823848 C35.0720867,37.6823848 27.1197832,56.0910569 24.4487805,57.2368564 C20.8292683,58.7544715 15.7680217,63.7094851 12.1712737,66.7067751 C12.0574526,67.6552846 12.497561,70.1517615 13.0666667,70.804336 C19.5544715,69.2867209 27.6433604,65.5685637 30.2915989,63.1176152 C36.3468835,57.5252033 42.7663957,40.1485095 42.7663957,40.1485095 Z" id="Path" fill="#FFC3BD"></path>
                    <path d="M44.5647696,35.9143631 C46.7273713,40.8466125 38.0390244,56.5084011 38.0390244,56.5084011 L26.5430894,51.196748 C27.9556945,46.4217062 29.8657115,41.808163 32.2417344,37.4319783 C35.8536585,31.1111111 42.1897019,30.496477 44.5647696,35.9143631 Z" id="Path" fill="#6558F5"></path>
                    <path d="M44.5647696,35.9143631 C46.7273713,40.8466125 38.0390244,56.5084011 38.0390244,56.5084011 L26.5430894,51.196748 C27.9556945,46.4217062 29.8657115,41.808163 32.2417344,37.4319783 C35.8536585,31.1111111 42.1897019,30.496477 44.5647696,35.9143631 Z" id="Path" fill="#FFFFFF" opacity="0.7"></path>
                    <path d="M34.9051491,44.504065 C33.7903351,47.5538268 32.9200173,50.6874783 32.302439,53.8753388 L38.0390244,56.5311653 C38.0390244,56.5311653 44.1550136,45.5132791 44.8682927,39.0785908 C41.5219512,36.8476965 36.999458,38.9495935 34.9051491,44.504065 Z" id="Path" fill="#000000" opacity="0.2"></path>
                    <path d="M12.9528455,66.1604336 L6.24498645,67.2303523 L7.98265583,74.3100271 C10.328007,73.3073294 12.5057853,71.9510162 14.4401084,70.2883469 L12.9528455,66.1604336 Z" id="Path" fill="#FFC3BD"></path>
                    <polygon id="Path" fill="#FFC3BD" points="0.440108401 70.2276423 2.88346883 74.1279133 7.98265583 74.3100271 6.24498645 67.2303523"></polygon>
                    <polygon id="Path" fill="#000000" opacity="0.2" points="41.0059621 205.401626 41.1273713 212.132249 46.7653117 212.132249 46.6439024 205.401626"></polygon>
                    <polygon id="Path" fill="#000000" opacity="0.2" points="78.2178862 205.401626 72.5799458 205.401626 73.8775068 212.132249 79.5154472 212.132249"></polygon>
                    <path d="M37.1815718,32.7121951 C37.1815718,32.7121951 30.1094851,52.0845528 35.6639566,83.7875339 L65.8113821,83.7875339 C66.1300813,79.1588076 63.7777778,54.2319783 68.7783198,32.4238482 C65.4558275,31.7796465 62.0947005,31.3538023 58.7165312,31.1490515 C54.4480086,30.9022613 50.1687936,30.9022613 45.900271,31.1490515 C42.9583237,31.4462523 40.0435289,31.9688351 37.1815718,32.7121951 L37.1815718,32.7121951 Z" id="Path" fill="#6558F5"></path>
                    <path d="M37.1815718,32.7121951 C37.1815718,32.7121951 30.1094851,52.0845528 35.6639566,83.7875339 L65.8113821,83.7875339 C66.1300813,79.1588076 63.7777778,54.2319783 68.7783198,32.4238482 C65.4558275,31.7796465 62.0947005,31.3538023 58.7165312,31.1490515 C54.4480086,30.9022613 50.1687936,30.9022613 45.900271,31.1490515 C42.9583237,31.4462523 40.0435289,31.9688351 37.1815718,32.7121951 L37.1815718,32.7121951 Z" id="Path" fill="#FFFFFF" opacity="0.7"></path>
                    <path d="M62.100813,37.8113821 C61.5165312,41.400542 62.4346883,49.9523035 65.6065041,59.9078591 C65.7593514,51.4075668 66.6581953,42.9371058 68.2926829,34.5940379 L68.2926829,34.5485095 C66.3349593,34.3512195 62.6699187,34.4422764 62.100813,37.8113821 Z" id="Path" fill="#000000" opacity="0.2"></path>
                    <path d="M57.3430894,19.1598916 C56.4325203,23.2878049 55.9089431,28.3945799 58.7241192,31.1490515 C58.7241192,31.1490515 56.9636856,35.3300813 49.299729,35.3300813 C42.295935,35.3300813 45.9078591,31.1490515 45.9078591,31.1490515 C50.5289973,30.0487805 50.4607046,24.3653117 49.701897,21.1631436 L57.3430894,19.1598916 Z" id="Path" fill="#FFC3BD"></path>
                    <path d="M48.9355014,35.003794 L47.2813008,36.8401084 C47.1607632,36.9678451 47.1199751,37.1513915 47.1750678,37.3181572 L47.7062331,38.9344173 C47.7667662,39.119438 47.9365962,39.2468105 48.1311653,39.2531165 L49.9143631,39.3441734 C50.0874785,39.3532765 50.2523194,39.2694101 50.3468835,39.1241192 L51.4168022,37.5533875 C51.5523976,37.3822279 51.5523976,37.1402654 51.4168022,36.9691057 L49.6867209,34.996206 C49.5949209,34.8819818 49.4558032,34.816172 49.3092692,34.817604 C49.1627353,34.8191323 49.0249752,34.8877388 48.9355014,35.003794 L48.9355014,35.003794 Z" id="Path" fill="#263238"></path>
                    <path d="M49.3224932,34.5940379 C50.1685589,36.0186235 50.6385641,37.634919 50.6883469,39.2910569 C50.6883469,39.2910569 60.3707317,35.9067751 60.0444444,30.9441734 C60.0444444,30.9441734 58.701355,30.1322493 57.8514905,29.4720867 C57.8363144,29.4796748 57.4341463,32.6287263 49.3224932,34.5940379 Z" id="Path" fill="#FFFFFF"></path>
                    <path d="M49.3224932,34.5940379 C48.408432,35.9330605 47.7379775,37.4229593 47.3420054,38.995122 C47.3420054,38.995122 43.0623306,36.0509485 44.4888889,31.1490515 C45.2949071,30.8317141 46.1245449,30.5780022 46.9701897,30.3902439 C46.9701897,30.3902439 46.2872629,33.5317073 49.3224932,34.5940379 Z" id="Path" fill="#FFFFFF"></path>
                    <path d="M48.5636856,38.3115875 C48.2905149,38.2211382 44.8227642,58.5571816 45.2097561,62.2222222 C45.3609605,65.6038834 46.0712033,68.9371528 47.3116531,72.0867209 C47.3116531,72.0867209 48.8292683,68.3382114 48.9658537,61.9718157 C48.9658537,55.6888889 49.0341463,41.9848238 49.5880759,38.4487805 L48.5636856,38.3115875 Z" id="Path" fill="#263238"></path>
                    <path d="M49.701897,21.1631436 C50.2710967,23.3933092 50.2027397,25.7384819 49.504607,27.9317073 C50.2296159,27.8331701 50.9356421,27.6259668 51.598916,27.3170732 C54.2243902,26.095393 55.5447154,24.1756098 56.9485095,21.3149051 C57.0699187,20.5560976 57.2065041,19.8731707 57.3658537,19.1750678 L49.701897,21.1631436 Z" id="Path" fill="#000000" opacity="0.2"></path>
                    <path d="M43.1837398,16.6937669 C43.6217677,18.028072 44.5869575,19.1248786 45.8547425,19.7289973 C47.5241192,20.4878049 48.6926829,19.0536585 48.502981,17.300813 C48.3360434,15.7149051 47.2585366,13.400542 45.4677507,13.3626016 C44.6621865,13.3673311 43.9100446,13.7664098 43.4544968,14.4308135 C42.9989489,15.0952171 42.8977955,15.9406455 43.1837398,16.6937669 Z" id="Path" fill="#FFC3BD"></path>
                    <path d="M43.1837398,16.6937669 C43.6217677,18.028072 44.5869575,19.1248786 45.8547425,19.7289973 C47.5241192,20.4878049 48.6926829,19.0536585 48.502981,17.300813 C48.3360434,15.7149051 47.2585366,13.400542 45.4677507,13.3626016 C44.6621865,13.3673311 43.9100446,13.7664098 43.4544968,14.4308135 C42.9989489,15.0952171 42.8977955,15.9406455 43.1837398,16.6937669 Z" id="Path" fill="#000000" opacity="0.2"></path>
                    <path d="M60.8108401,14.1365854 C59.1794038,19.5392954 58.5344173,22.7869919 55.097019,25.00271 C49.9826558,28.3338753 43.897019,24.3728997 43.897019,18.6211382 C43.897019,13.4460705 46.5680217,5.47859079 52.3804878,4.44661247 C54.9748687,3.96820831 57.6289856,4.89580793 59.3605661,6.88611241 C61.0921466,8.8764169 61.6436012,11.6333491 60.8108401,14.1365854 L60.8108401,14.1365854 Z" id="Path" fill="#FFC3BD"></path>
                    <path d="M57.6693767,7.42113821 C56.1517615,9.64444444 56.6373984,11.2607046 57.9197832,15.6769648 C58.4509485,17.5056911 59.2704607,19.3268293 61.7821138,16.6330623 C64.2937669,13.9392954 66.7598916,8.81734417 63.5197832,7.95230352 C61.616063,7.43255396 59.6355743,7.25274305 57.6693767,7.42113821 L57.6693767,7.42113821 Z" id="Path" fill="#263238"></path>
                    <path d="M58.2840108,9.10569106 C54.7934959,8.68075881 46.1430894,7.95230352 46.7880759,3.44498645 C47.4330623,-1.06233062 53.298645,0.295934959 53.298645,0.295934959 C53.298645,0.295934959 50.3924119,1.81355014 56.4932249,2.9897019 C62.5940379,4.16585366 65.6823848,7.77777778 62.9279133,9.22710027 C61.4928682,10.1112421 59.6708975,10.0636089 58.2840108,9.10569106 Z" id="Path" fill="#263238"></path>
                    <path d="M61.8276423,20.7078591 C60.8244008,21.7222036 59.4602319,22.2978829 58.0336043,22.3089431 C56.1745257,22.3089431 55.7571816,20.5257453 56.7436314,19.0233062 C57.6086721,17.6650407 59.6195122,16.0260163 61.296477,16.7468835 C62.9734417,17.4677507 63.0417344,19.4558266 61.8276423,20.7078591 Z" id="Path" fill="#FFC3BD"></path>
                    <path d="M43.396206,18.6287263 C43.2368564,21.4439024 43.502439,25.2303523 45.6726287,25.9815718 C47.8428184,26.7327913 53.5338753,26.4899729 55.3398374,25.503523 C58.1626016,23.9859079 59.4222222,17.5284553 60.7349593,16.3067751 C62.0476965,15.0850949 59.5663957,14.500813 59.5663957,14.500813 C59.5663957,14.500813 57.897019,18.6287263 55.1728997,18.8184282 C52.4487805,19.0081301 43.5934959,15.0699187 43.396206,18.6287263 Z" id="Path" fill="#263238"></path>
                    <path d="M55.4840108,83.7875339 C55.4840108,83.7875339 54.8845528,90.8747967 54.1257453,100.481301 C53.2531165,111.37019 52.1831978,125.521951 51.5457995,136.274255 C51.5457995,136.334959 51.5457995,136.380488 51.5457995,136.426016 C51.4243902,138.467209 51.3181572,140.386992 51.2271003,142.139837 C50.3772358,159.706233 48.6168022,210.8271 48.6168022,210.8271 L39.0558266,210.8271 C39.0558266,210.8271 34.2525745,158.659079 34.0476965,140.781572 C33.8579946,123.586992 35.6639566,83.7875339 35.6639566,83.7875339 L55.4840108,83.7875339 Z" id="Path" fill="#6558F5"></path>
                    <path d="M49.3224932,207.913279 C49.3604336,207.913279 49.2390244,211.031978 49.2390244,211.031978 L38.2363144,211.031978 L37.8569106,207.526287 L49.3224932,207.913279 Z" id="Path" fill="#263238"></path>
                    <path d="M54.1257453,100.481301 C53.2531165,111.37019 52.1831978,125.521951 51.5457995,136.274255 C51.5457995,136.334959 51.5457995,136.380488 51.5457995,136.426016 C49.2086721,126.212466 48.2601626,113.510027 48.5940379,92.59729 L54.1257453,100.481301 Z" id="Path" fill="#000000" opacity="0.2"></path>
                    <path d="M46.3631436,83.7875339 C46.3631436,83.7875339 51.6747967,124.520325 54.8238482,140.698103 C58.2384824,158.370732 71.2823848,210.865041 71.2823848,210.865041 L81.6097561,210.865041 C81.6097561,210.865041 73.4601626,159.79729 71.6921409,142.299187 C69.7799458,123.328997 65.8189702,83.8254743 65.8189702,83.8254743 L46.3631436,83.7875339 Z" id="Path" fill="#6558F5"></path>
                    <path d="M81.6704607,208.133333 C81.7159892,208.133333 82.1181572,211.016802 82.1181572,211.016802 L70.7360434,211.016802 L69.8102981,207.708401 L81.6704607,208.133333 Z" id="Path" fill="#263238"></path>
                    <path d="M77.595664,204.726287 C77.549492,204.723264 77.5116267,204.688554 77.504607,204.642818 C77.4287263,204.119241 70.0834688,158.643902 68.497561,142.921409 C66.7750678,125.855827 63.1859079,88.0292683 63.1859079,87.6498645 C63.1813111,87.5979674 63.2178655,87.5514437 63.2693767,87.5436314 C63.2947514,87.5392793 63.3207825,87.5458722 63.3410264,87.5617782 C63.3612703,87.5776841 63.3738348,87.6014163 63.3756098,87.6271003 C63.4135501,88.0065041 66.995122,125.833062 68.6872629,142.898645 C70.2731707,158.61355 77.6184282,204.088889 77.6943089,204.612466 C77.6993547,204.666078 77.6634894,204.714985 77.6108401,204.726287 L77.595664,204.726287 Z" id="Path" fill="#FFFFFF" opacity="0.3"></path>
                    <path d="M52.2363144,13.8785908 C52.1300813,14.3262873 51.8113821,14.6373984 51.5230352,14.5766938 C51.2346883,14.5159892 51.0905149,14.098645 51.196748,13.6585366 C51.302981,13.2184282 51.6216802,12.899729 51.9100271,12.9604336 C52.198374,13.0211382 52.3577236,13.4384824 52.2363144,13.8785908 Z" id="Path" fill="#263238"></path>
                    <path d="M47.2585366,12.801084 C47.1523035,13.2411924 46.8336043,13.5598916 46.5452575,13.4915989 C46.2569106,13.4233062 46.1051491,13.0211382 46.2113821,12.5734417 C46.3176152,12.1257453 46.6363144,11.8146341 46.9246612,11.8753388 C47.2130081,11.9360434 47.3571816,12.3533875 47.2585366,12.801084 Z" id="Path" fill="#263238"></path>
                    <path d="M48.7837398,13.3626016 C47.928217,14.6148573 46.9072146,15.7456174 45.7485095,16.7241192 C46.2566892,17.2964678 46.9945241,17.6110917 47.7593496,17.5815718 L48.7837398,13.3626016 Z" id="Path" fill="#ED847E"></path>
                    <path d="M48.7761518,20.6319783 C48.7414306,20.6248172 48.711187,20.603682 48.6925267,20.5735384 C48.6738664,20.5433949 48.6684344,20.5069002 48.6775068,20.4726287 C48.6864376,20.4373338 48.70909,20.407065 48.740434,20.3885435 C48.771778,20.370022 48.8092194,20.3647809 48.8444444,20.3739837 C49.9550558,20.6663976 51.1385266,20.4190213 52.0390244,19.7062331 C52.0919451,19.6551586 52.1758056,19.6551586 52.2287263,19.7062331 C52.2761863,19.7605618 52.2761863,19.8416062 52.2287263,19.895935 C51.2650011,20.6859811 49.9782961,20.9602897 48.7761518,20.6319783 Z" id="Path" fill="#FFC3BD"></path>
                    <path d="M54.1257453,12.5810298 C54.0438923,12.5683842 53.9747213,12.5136238 53.9436314,12.4368564 C53.6918097,11.8094461 53.1466828,11.3466561 52.4867209,11.2 C52.4177849,11.1889389 52.356275,11.1504109 52.3162371,11.0932139 C52.2761993,11.036017 52.2610522,10.9650351 52.2742547,10.896477 C52.2976384,10.751253 52.4318153,10.6506203 52.5777778,10.6688347 C53.4094303,10.8342415 54.1038497,11.4034377 54.4292683,12.1864499 C54.4882042,12.3226943 54.4275506,12.4810676 54.2926829,12.5430894 C54.2429772,12.5743679 54.1840875,12.5877519 54.1257453,12.5810298 L54.1257453,12.5810298 Z" id="Path" fill="#263238"></path>
                    <path d="M45.4373984,10.5246612 C45.399971,10.5129646 45.3660614,10.4920972 45.3387534,10.4639566 C45.2375285,10.3606865 45.2375285,10.195411 45.3387534,10.0921409 C45.9028697,9.43243646 46.7503135,9.08498449 47.6151762,9.15880759 C47.6854994,9.16801416 47.7489312,9.20576453 47.7905609,9.26318479 C47.8321906,9.32060505 47.8483463,9.39263063 47.8352304,9.46233062 C47.8082395,9.60866731 47.6717628,9.70852826 47.5241192,9.6899729 L47.5241192,9.6899729 C46.8400869,9.64134805 46.1741889,9.92350819 45.7333333,10.4487805 C45.6605656,10.5339585 45.5421743,10.5643152 45.4373984,10.5246612 L45.4373984,10.5246612 Z" id="Path" fill="#263238"></path>
                    <path d="M63.8612466,41.7344173 L71.6921409,39.1848238 C71.6921409,39.1848238 78.900813,57.5479675 81.5566396,58.6178862 C85.1913279,60.0672087 92.5745257,63.9295393 97.1653117,64.8552846 C97.6888889,65.6140921 98.3945799,68.0119241 98.1745257,68.8542005 C91.595664,70.5615176 78.20271,66.9571816 75.5620596,64.5897019 C69.5674797,59.1869919 63.8612466,41.7344173 63.8612466,41.7344173 Z" id="Path" fill="#FFC3BD"></path>
                    <path d="M68.7859079,32.4238482 C74.097561,33.1826558 79.7582656,51.6823848 79.7582656,51.6823848 L68.3761518,58.0108401 C68.3761518,58.0108401 63.6563686,49.2162602 61.3875339,42.6905149 C59.0276423,35.8536585 63.0872629,31.5891599 68.7859079,32.4238482 Z" id="Path" fill="#6558F5"></path>
                    <path d="M68.7859079,32.4238482 C74.097561,33.1826558 79.7582656,51.6823848 79.7582656,51.6823848 L68.3761518,58.0108401 C68.3761518,58.0108401 63.6563686,49.2162602 61.3875339,42.6905149 C59.0276423,35.8536585 63.0872629,31.5891599 68.7859079,32.4238482 Z" id="Path" fill="#FFFFFF" opacity="0.7"></path>
                    <path d="M72.8455285,218.779404 C72.4624899,218.811194 72.0799848,218.712224 71.7604336,218.498645 C71.5618371,218.318136 71.4652686,218.051152 71.502439,217.785366 C71.5087186,217.626164 71.6020139,217.483306 71.7452575,217.41355 C72.3674797,217.094851 74.1658537,218.210298 74.3707317,218.339295 C74.4119819,218.371759 74.4323279,218.424078 74.4238482,218.475881 C74.4140224,218.52726 74.3757149,218.568514 74.3252033,218.582114 C73.8404365,218.700516 73.3443825,218.766657 72.8455285,218.779404 L72.8455285,218.779404 Z M72.0336043,217.618428 C71.9761304,217.605653 71.9165525,217.605653 71.8590786,217.618428 C71.8022236,217.65125 71.767434,217.712132 71.7680217,217.777778 C71.7398423,217.958801 71.8055855,218.141739 71.9425474,218.263415 C72.5708968,218.549389 73.2847227,218.584673 73.9382114,218.36206 C73.3519804,217.987723 72.696581,217.734852 72.0108401,217.618428 L72.0336043,217.618428 Z" id="Shape" fill="#6558F5"></path>
                    <path d="M74.2644986,218.582114 C74.2447668,218.588495 74.2235259,218.588495 74.203794,218.582114 C73.6271003,218.263415 72.5344173,217.064499 72.6861789,216.404336 C72.7350712,216.200566 72.9167374,216.056486 73.1262873,216.055285 C73.3288829,216.025908 73.5341627,216.086937 73.6878049,216.222222 C74.3327913,216.760976 74.4466125,218.384824 74.4466125,218.453117 C74.4553629,218.502545 74.4307005,218.551869 74.3859079,218.574526 C74.3492462,218.597176 74.3036953,218.600023 74.2644986,218.582114 L74.2644986,218.582114 Z M73.1869919,216.305691 L73.1262873,216.305691 C72.9517615,216.305691 72.9365854,216.404336 72.9289973,216.434688 C72.8455285,216.806504 73.5436314,217.739837 74.1127371,218.179946 C74.0877018,217.54147 73.8708703,216.925351 73.4905149,216.411924 C73.4060191,216.339225 73.2984553,216.298888 73.1869919,216.298103 L73.1869919,216.305691 Z" id="Shape" fill="#6558F5"></path>
                    <path d="M38.9268293,218.779404 C38.4484467,218.822974 37.9694685,218.70256 37.5685637,218.43794 C37.3894966,218.271083 37.3019088,218.028098 37.3333333,217.785366 C37.3447091,217.635868 37.4301639,217.501989 37.5609756,217.428726 C38.2590786,217.049322 40.497561,218.187534 40.7479675,218.331707 C40.7981294,218.357424 40.825784,218.412733 40.8162602,218.468293 C40.8080565,218.524677 40.7657128,218.570046 40.7100271,218.582114 C40.1226081,218.700329 39.5258832,218.76635 38.9268293,218.779404 L38.9268293,218.779404 Z M37.9403794,217.618428 C37.8545439,217.614506 37.7689344,217.630072 37.6899729,217.663957 C37.636611,217.692906 37.602127,217.747506 37.598916,217.80813 C37.575369,217.968481 37.632101,218.130167 37.7506775,218.24065 C38.0921409,218.544173 39.0178862,218.59729 40.2699187,218.392412 C39.5431298,218.003681 38.7552921,217.741924 37.9403794,217.618428 Z" id="Shape" fill="#6558F5"></path>
                    <path d="M40.6796748,218.582114 L40.6265583,218.582114 C39.9512195,218.271003 38.6384824,217.064499 38.7523035,216.419512 C38.7523035,216.267751 38.896477,216.078049 39.2607046,216.047696 C39.5350496,216.00494 39.8140077,216.088627 40.0195122,216.275339 C40.7176152,216.859621 40.8390244,218.377236 40.8390244,218.445528 C40.8454158,218.494586 40.821401,218.542616 40.7783198,218.566938 C40.7488063,218.585027 40.7132608,218.590496 40.6796748,218.582114 L40.6796748,218.582114 Z M39.3593496,216.305691 L39.2834688,216.305691 C39.0406504,216.305691 39.0254743,216.419512 39.0178862,216.449864 C38.9420054,216.836856 39.8373984,217.792954 40.5355014,218.210298 C40.4917656,217.571973 40.2474318,216.963795 39.8373984,216.472629 C39.7053018,216.357021 39.5348596,216.294796 39.3593496,216.298103 L39.3593496,216.305691 Z" id="Shape" fill="#6558F5"></path>
                    <path d="M97.6813008,68.9452575 L103.04607,69.203252 L100.200542,63.3528455 C100.200542,63.3528455 95.495935,63.2845528 94.7295393,66.896477 L97.6813008,68.9452575 Z" id="Path" fill="#FFC3BD"></path>
                    <polygon id="Path" fill="#FFC3BD" points="107.394038 66.3728997 104.548509 61.2054201 100.200542 63.3528455 103.04607 69.203252"></polygon>
                </g>
                <g id="freepik--character-2--inject-85" transform="translate(79.674797, 63.739837)">
                    <path d="M46.2265583,4.77289973 C45.6878049,0.842276423 35.1859079,-2.19295393 30.2915989,2.29918699 C23.6899729,8.33170732 24.7447154,27.2411924 24.7447154,37.4850949 C34.5181572,35.0796748 49.3756098,35.6563686 51.9707317,37.0753388 C52.5246612,32.3631436 52.395664,5.92628726 46.2265583,4.77289973 Z" id="Path" fill="#263238"></path>
                    <path d="M25.9815718,41.3929539 C25.8753388,43.1837398 25.6780488,44.8151762 25.4579946,46.5073171 C25.2379404,48.199458 24.9420054,49.8536585 24.6157182,51.5230352 C23.959699,54.8725262 23.0593709,58.1695023 21.9219512,61.3875339 C21.6336043,62.199458 21.2921409,63.003794 20.9810298,63.8081301 C20.6699187,64.6124661 20.298103,65.3940379 19.8655827,66.2211382 C19.0041806,67.8100403 17.9874711,69.3096868 16.8303523,70.698103 C14.6352784,73.3439111 12.1223757,75.708996 9.34850949,77.7398374 L7.26937669,75.4634146 C9.25262738,73.002684 11.0944402,70.4312397 12.7859079,67.7615176 C13.5774758,66.5069757 14.2652198,65.189857 14.8422764,63.8233062 C15.1230352,63.1707317 15.3886179,62.4119241 15.6693767,61.7062331 C15.9501355,61.000542 16.1626016,60.2417344 16.4281843,59.5056911 C17.3271113,56.4918979 18.0517078,53.428831 18.598374,50.3317073 C18.8639566,48.7685637 19.099187,47.197832 19.3192412,45.6195122 C19.5392954,44.0411924 19.7138211,42.4325203 19.8428184,40.9528455 L25.9815718,41.3929539 Z" id="Path" fill="#FFB573"></path>
                    <path d="M22.1495935,34.0401084 C20.0173442,34.5864499 18.8184282,48.6926829 18.8184282,48.6926829 L24.4867209,52.1073171 C24.4867209,52.1073171 27.9165312,41.6813008 27.3929539,37.1815718 C27.0135501,33.9111111 23.7582656,33.6303523 22.1495935,34.0401084 Z" id="Path" fill="#FFB573"></path>
                    <path d="M6.82926829,75.5165312 L1.9501355,79.1815718 L7.93712737,80.5550136 C7.93712737,80.5550136 10.5170732,77.6639566 9.6596206,75.304065 L6.82926829,75.5165312 Z" id="Path" fill="#FFB573"></path>
                    <polygon id="Path" fill="#FFB573" points="0.652574526 84.0834688 5.72899729 84.9636856 7.9598916 80.5550136 1.97289973 79.1815718"></polygon>
                    <polygon id="Path" fill="#FFB573" points="33.5468835 199.82439 28.6753388 199.82439 25.6704607 177.644444 33.9642276 177.644444"></polygon>
                    <polygon id="Path" fill="#000000" opacity="0.2" points="33.7441734 189.132791 27.2260163 189.132791 25.6704607 177.644444 33.9642276 177.644444"></polygon>
                    <polygon id="Path" fill="#FFB573" points="71.2672087 191.826558 66.5626016 193.04065 57.0168022 172.826016 65.1132791 170.534417"></polygon>
                    <polygon id="Path" fill="#000000" opacity="0.2" points="68.3685637 181.787534 61.9338753 183.236856 57.0168022 172.826016 65.1132791 170.534417"></polygon>
                    <path d="M65.4319783,192.21355 L71.6845528,189.565312 C71.9032516,189.462306 72.1643868,189.544943 72.2840108,189.755014 L75.099187,194.391328 C75.2329299,194.632223 75.2580657,194.918585 75.1683343,195.179096 C75.0786029,195.439607 74.8824493,195.649747 74.6287263,195.757182 C72.4357724,196.644986 71.3279133,196.963686 68.5582656,198.132249 C66.8737127,198.853117 64.4758808,200.074797 62.1387534,201.068835 C59.801626,202.062873 58.701355,199.801626 59.5891599,199.179404 C63.5425474,196.39458 63.6867209,194.808672 64.6276423,192.949593 C64.8034125,192.619266 65.0873914,192.359398 65.4319783,192.21355 Z" id="Path" fill="#263238"></path>
                    <path d="M28.0303523,199.126287 L34.8140921,199.126287 C35.0577485,199.123868 35.2654752,199.302383 35.299729,199.543631 L36.0585366,204.908401 C36.0863839,205.183316 35.9967403,205.457195 35.8117311,205.662439 C35.626722,205.867684 35.3635836,205.985173 35.0872629,205.985908 C32.7197832,205.940379 31.5815718,205.803794 28.599458,205.803794 C26.7631436,205.803794 22.9615176,205.993496 20.4271003,205.993496 C17.8926829,205.993496 17.7560976,203.489431 18.8108401,203.261789 C23.5457995,202.244986 25.4124661,200.841192 27.0059621,199.467751 C27.2960233,199.235859 27.6591684,199.114811 28.0303523,199.126287 L28.0303523,199.126287 Z" id="Path" fill="#263238"></path>
                    <path d="M21.7777778,34.0325203 C21.7777778,34.0325203 18.8943089,35.0417344 24.6612466,70.4932249 L49.1934959,70.4932249 C48.7837398,60.5073171 48.7685637,54.3457995 53.5414634,33.8579946 C50.1069738,33.1456643 46.6247925,32.686615 43.1230352,32.4845528 C39.4146961,32.2186811 35.6920789,32.2186811 31.9837398,32.4845528 C27.203252,32.9170732 21.7777778,34.0325203 21.7777778,34.0325203 Z" id="Path" fill="#6558F5"></path>
                    <path d="M39.8449864,46.5528455 L39.8449864,46.5528455 C39.8449864,46.5528455 39.7918699,46.5528455 39.7842818,46.5073171 C38.2666667,43.8818428 34.4119241,41.8178862 34.3739837,41.795122 C34.3509973,41.7839004 34.3337907,41.763528 34.3265731,41.7389881 C34.3193555,41.7144483 34.3228914,41.6880042 34.3360434,41.6661247 C34.3730851,41.6341147 34.4279989,41.6341147 34.4650407,41.6661247 C34.4650407,41.6661247 38.2590786,43.7300813 39.8829268,46.3479675 C41.4915989,44.9365854 46.6514905,38.5474255 46.0292683,33.0536585 C46.0271697,33.0294901 46.0348021,33.0054834 46.0504723,32.9869641 C46.0661424,32.9684449 46.0885547,32.9569442 46.1127371,32.9550136 L46.1127371,32.9550136 C46.1369056,32.952915 46.1609123,32.9605474 46.1794315,32.9762175 C46.1979508,32.9918877 46.2094514,33.0143 46.2113821,33.0384824 C46.8487805,38.7067751 41.4308943,45.300813 39.9132791,46.5680217 C39.8893909,46.5732071 39.8644302,46.5676602 39.8449864,46.5528455 L39.8449864,46.5528455 Z" id="Path" fill="#FFFFFF"></path>
                    <path d="M27.1197832,45.5284553 C27.1002655,45.5360742 27.0785963,45.5360742 27.0590786,45.5284553 C26.4929551,44.8848414 26.1967184,44.047769 26.2319783,43.1913279 C26.0271003,40.2168022 27.2487805,35.2921409 29.1837398,33.1674797 C29.221906,33.130863 29.2821591,33.130863 29.3203252,33.1674797 C29.3374701,33.1845652 29.347107,33.2077737 29.347107,33.2319783 C29.347107,33.2561829 29.3374701,33.2793915 29.3203252,33.296477 C27.4157182,35.398374 26.2168022,40.2471545 26.4140921,43.1609756 C26.3931375,43.9263019 26.6340646,44.6758527 27.097019,45.2856369 C28.3566396,43.5783198 31.8775068,41.4915989 32.0292683,41.4233062 C32.0592042,41.394332 32.1041154,41.3872884 32.1414842,41.405707 C32.178853,41.4241256 32.2006217,41.4640349 32.1958759,41.505425 C32.1911301,41.5468152 32.1608931,41.5807615 32.1203252,41.5902439 C32.0823848,41.5902439 28.3262873,43.7907859 27.1880759,45.4829268 C27.1717661,45.5060682 27.1474175,45.5223007 27.1197832,45.5284553 L27.1197832,45.5284553 Z" id="Path" fill="#FFFFFF"></path>
                    <path d="M42.0227642,19.9414634 C41.3170732,23.5230352 40.6189702,30.0943089 43.1230352,32.4845528 C43.1230352,32.4845528 44.5116531,40.9149051 33.0764228,40.9149051 C23.6292683,40.9149051 31.9837398,32.4845528 31.9837398,32.4845528 C35.9826558,31.5284553 35.8764228,28.5615176 35.1859079,25.7766938 L42.0227642,19.9414634 Z" id="Path" fill="#FFB573"></path>
                    <path d="M39.2303523,22.3241192 L35.1859079,25.799458 C35.3571944,26.4458425 35.4714534,27.1060056 35.5273713,27.7723577 C37.0449864,27.5523035 39.1544715,25.8753388 39.3214092,24.2818428 C39.4164047,23.6294437 39.385495,22.9648841 39.2303523,22.3241192 L39.2303523,22.3241192 Z" id="Path" fill="#000000" opacity="0.2"></path>
                    <path d="M45.801626,13.3626016 C44.397832,19.1902439 43.9273713,21.7094851 40.4140921,24.1831978 C35.102439,27.9392954 28.2731707,24.9420054 27.9165312,18.8108401 C27.5902439,13.2943089 29.9425474,4.68943089 36.1268293,3.36151762 C38.8959564,2.75667728 41.7808419,3.62846851 43.7515673,5.66565749 C45.7222926,7.70284647 46.49795,10.6150518 45.801626,13.3626016 L45.801626,13.3626016 Z" id="Path" fill="#FFB573"></path>
                    <path d="M41.2411924,6.55609756 C41.9165312,12.2471545 42.1897019,17.9837398 46.2265583,16.5875339 C50.2634146,15.1913279 46.6211382,6.55609756 46.6211382,6.55609756 L41.2411924,6.55609756 Z" id="Path" fill="#263238"></path>
                    <path d="M28.1365854,8.40758808 C33.9277086,6.59983521 40.1656505,6.84913844 45.7940379,9.11327913 C45.0352304,6.33604336 44.5723577,4.09756098 41.1501355,3.04281843 C37.7279133,1.98807588 29.8514905,3.22493225 28.1365854,8.40758808 Z" id="Path" fill="#263238"></path>
                    <path d="M24.6612466,70.4932249 C24.6612466,70.4932249 19.895935,117.023306 20.2905149,135.447154 C20.700271,154.607046 25.0482385,185.452575 25.0482385,185.452575 L34.9127371,185.141463 C34.9127371,185.141463 34.601626,155.730081 35.3224932,136.911653 C36.0813008,116.423848 42.6298103,70.4932249 42.6298103,70.4932249 L24.6612466,70.4932249 Z" id="Path" fill="#263238"></path>
                    <polygon id="Path" fill="#6558F5" points="35.9523035 186.856369 24.0769648 186.856369 23.204336 183.798374 36.5062331 183.426558"></polygon>
                    <path d="M35.2466125,82.0650407 C29.2140921,94.2059621 34.0325203,116.302439 36.1647696,124.558266 C37.2574526,112.19729 39.101355,97.097019 40.5355014,86.003252 C39.6249322,79.6747967 38.0238482,76.4802168 35.2466125,82.0650407 Z" id="Path" fill="#000000" opacity="0.2"></path>
                    <path d="M31.1111111,70.4932249 C31.1111111,70.4932249 36.6655827,118.867209 40.8617886,134.4 C45.8471545,152.839024 59.2856369,180.285095 59.2856369,180.285095 L68.4596206,177.644444 C68.4596206,177.644444 60.6439024,145.36477 56.8346883,135.652033 C48.700271,114.921409 55.6661247,84.0531165 49.1631436,70.4932249 L31.1111111,70.4932249 Z" id="Path" fill="#263238"></path>
                    <polygon id="Path" fill="#6558F5" points="70.1517615 178.828184 59.202168 181.863415 57.2292683 179.055827 69.3777778 175.003794"></polygon>
                    <path d="M35.9598916,13.4840108 C35.8688347,13.9620596 35.5501355,14.303523 35.2390244,14.2428184 C34.9279133,14.1821138 34.7382114,13.7495935 34.8216802,13.2715447 C34.9051491,12.7934959 35.2314363,12.4520325 35.5804878,12.5127371 C35.9295393,12.5734417 36.0433604,12.998374 35.9598916,13.4840108 Z" id="Path" fill="#263238"></path>
                    <path d="M30.5344173,12.5203252 C30.4509485,12.998374 30.1246612,13.3474255 29.7756098,13.2791328 C29.4265583,13.2108401 29.2747967,12.7934959 29.3582656,12.3154472 C29.4417344,11.8373984 29.7680217,11.4883469 30.0791328,11.5566396 C30.3902439,11.6249322 30.6178862,12.0422764 30.5344173,12.5203252 Z" id="Path" fill="#263238"></path>
                    <path d="M30.2536585,11.602168 L29.1609756,11.0634146 C29.1609756,11.0634146 29.5934959,12.0726287 30.2536585,11.602168 Z" id="Path" fill="#263238"></path>
                    <path d="M32.0747967,13.5447154 C31.4445728,14.5642434 30.6787625,15.4934267 29.798374,16.3067751 C30.2321233,16.7463041 30.8366806,16.9737063 31.4525745,16.9289973 L32.0747967,13.5447154 Z" id="Path" fill="#ED893E"></path>
                    <path d="M34.0097561,19.1902439 C33.7348547,19.1897434 33.4605636,19.164346 33.1902439,19.1143631 C33.1521583,19.1090022 33.118098,19.0878323 33.0964315,19.0560547 C33.0747649,19.0242771 33.0675004,18.9848373 33.0764228,18.9474255 C33.0917311,18.8703175 33.1659894,18.8196869 33.2433604,18.8336043 C34.4483583,19.0701227 35.6943107,18.7241811 36.604878,17.900271 C36.6372554,17.8530913 36.69447,17.8295244 36.7506836,17.8402132 C36.8068972,17.850902 36.8514693,17.8938233 36.864271,17.9495937 C36.8770728,18.0053641 36.8556809,18.063427 36.8097561,18.097561 C36.0535844,18.8113433 35.0495223,19.2031725 34.0097561,19.1902439 Z" id="Path" fill="#263238"></path>
                    <path d="M46.0520325,17.7560976 C45.6042589,18.8263225 44.750038,19.6750851 43.6769648,20.1159892 C42.2504065,20.6926829 41.400542,19.4558266 41.6281843,18.0216802 C41.8558266,16.7317073 42.8726287,14.8802168 44.3750678,14.9181572 C45.0399344,14.9463018 45.6453971,15.3089847 45.9839371,15.8818987 C46.3224772,16.4548127 46.3481034,17.1601262 46.0520325,17.7560976 L46.0520325,17.7560976 Z" id="Path" fill="#FFB573"></path>
                    <path d="M38.0617886,10.2742547 C37.9815508,10.2739611 37.9048716,10.2410985 37.8493225,10.1831978 C37.3658134,9.63569016 36.648941,9.35345693 35.9219512,9.42439024 C35.7657167,9.4476491 35.6187554,9.34410819 35.5880759,9.18915989 C35.5749697,9.1145604 35.5925605,9.03783014 35.6368546,8.97638999 C35.6811487,8.91494983 35.7483879,8.87401258 35.8233062,8.86287263 C36.7377057,8.74817531 37.6503475,9.08829024 38.2666667,9.77344173 C38.37558,9.88537619 38.37558,10.0636753 38.2666667,10.1756098 C38.2137362,10.2337969 38.1402835,10.269163 38.0617886,10.2742547 L38.0617886,10.2742547 Z" id="Path" fill="#263238"></path>
                    <path d="M29.1837398,9.53821138 C29.109355,9.53841017 29.0381059,9.50826631 28.9864499,9.45474255 C28.8775366,9.34280809 28.8775366,9.16450898 28.9864499,9.05257453 C29.6059103,8.36785061 30.5217686,8.03042914 31.4373984,8.1495935 C31.5135696,8.16031538 31.5816902,8.20265527 31.6250233,8.26621043 C31.6683563,8.32976558 31.6828854,8.40864519 31.6650407,8.48346883 C31.6522173,8.55858708 31.6094098,8.62526579 31.5464472,8.66819483 C31.4834846,8.71112386 31.4057764,8.72661493 31.3311653,8.71111111 C30.6041755,8.64017779 29.8873031,8.92241103 29.403794,9.4699187 C29.3435923,9.52311904 29.2634838,9.5479803 29.1837398,9.53821138 Z" id="Path" fill="#263238"></path>
                    <path d="M56.19729,40.3154472 C57.5939713,43.7143834 58.7874034,47.1933266 59.7712737,50.7338753 C60.838191,54.3190677 61.5747765,57.9943754 61.9718157,61.7138211 C62.0325203,62.1842818 62.0552846,62.6775068 62.070506,63.1631436 L62.070506,63.9219512 L62.070506,64.104065 C62.070506,64.1799458 62.070506,64.1875339 62.070506,64.3392954 C62.0711658,64.5677188 62.0559528,64.7959138 62.0249322,65.0222222 C61.819696,66.3292047 61.29877,67.5664039 60.5073171,68.6265583 C59.3378153,70.2254126 57.9827228,71.6798446 56.4704607,72.9593496 C53.6711641,75.3652242 50.6531655,77.5042434 47.4558266,79.3485095 L45.6802168,76.8596206 C48.2525745,74.499729 50.8552846,72.0791328 53.1165312,69.5523035 C54.2050406,68.3859207 55.175948,67.1150994 56.0151762,65.7582656 C56.2730729,65.3645312 56.4414397,64.9190067 56.5084011,64.4531165 C56.5084011,64.4531165 56.5084011,64.4531165 56.5084011,64.4531165 L56.5084011,64.195122 L56.4401084,63.595664 C56.402168,63.1934959 56.3642276,62.798916 56.2883469,62.3891599 C55.7203103,59.0277402 54.9139403,55.7109729 53.8753388,52.4639566 C52.8433604,49.1783198 51.6747967,45.8319783 50.4531165,42.6525745 L56.19729,40.3154472 Z" id="Path" fill="#FFB573"></path>
                    <path d="M53.5186992,33.8579946 C55.9241192,34.8368564 58.9365854,48.0097561 58.9365854,48.0097561 L53.8222222,52.2059621 C53.8222222,52.2059621 49.003794,42.3869919 48.7913279,37.8569106 C48.6243902,34.4574526 51.3940379,32.9853659 53.5186992,33.8579946 Z" id="Path" fill="#FFB573"></path>
                    <path d="M62.6775068,194.118157 C62.4538381,194.004641 62.2944707,193.794947 62.2449864,193.549051 C62.1898938,193.382286 62.2306819,193.198739 62.3512195,193.071003 C62.8747967,192.501897 65.0222222,192.873713 65.2726287,192.919241 C65.3280718,192.929361 65.3725346,192.97086 65.3864499,193.025474 C65.3944501,193.081062 65.3710978,193.136524 65.3257453,193.169648 C64.6807588,193.647696 63.4894309,194.406504 62.7609756,194.156098 L62.6775068,194.118157 Z M64.8780488,193.139295 C64.0130081,193.017886 62.8368564,192.96477 62.5636856,193.260705 C62.5222942,193.325479 62.5222942,193.408396 62.5636856,193.473171 C62.5912615,193.660716 62.7194512,193.818039 62.897561,193.882927 C63.2466125,194.019512 63.9902439,193.746341 64.8780488,193.139295 Z" id="Shape" fill="#6558F5"></path>
                    <path d="M64.2710027,192.873713 C63.6411924,192.57019 62.996206,192.114905 62.9051491,191.674797 C62.8602831,191.445498 62.9799338,191.215642 63.1934959,191.120867 C63.3845797,191.009895 63.6145448,190.98773 63.8233062,191.060163 C64.6579946,191.333333 65.3409214,192.934417 65.3409214,193.00271 C65.3638556,193.04535 65.3638556,193.096655 65.3409214,193.139295 C65.3140258,193.183612 65.2632146,193.207523 65.2119241,193.2 C64.8839095,193.138233 64.5668368,193.02828 64.2710027,192.873713 Z M63.8233062,191.356098 L63.7322493,191.318157 C63.6014296,191.273107 63.4575082,191.286946 63.3376694,191.356098 C63.1783198,191.447154 63.1707317,191.538211 63.1859079,191.606504 C63.2769648,192.023848 64.2861789,192.653659 64.9918699,192.850949 C64.7388768,192.261673 64.3359946,191.748914 63.8233062,191.363686 L63.8233062,191.356098 Z" id="Shape" fill="#6558F5"></path>
                    <path d="M25.799458,200.18103 C25.2831975,200.227439 24.7665573,200.096272 24.3349593,199.809214 C24.1354289,199.63908 24.0378775,199.377987 24.0769648,199.118699 C24.0856337,198.956422 24.1774379,198.810109 24.3197832,198.731707 C25.0785908,198.329539 27.4688347,199.558808 27.7344173,199.702981 C27.792988,199.724415 27.8257909,199.78674 27.8102981,199.847154 C27.8019019,199.907647 27.7563025,199.956286 27.696477,199.968564 C27.0719181,200.096952 26.4369447,200.168069 25.799458,200.18103 L25.799458,200.18103 Z M24.7219512,198.936585 C24.6311609,198.932181 24.5405079,198.947721 24.4563686,198.982114 C24.3977131,199.014146 24.3602402,199.074679 24.3577236,199.141463 C24.3341484,199.311548 24.396727,199.482217 24.5246612,199.596748 C24.8888889,199.930623 25.8829268,199.98374 27.2260163,199.763686 C26.4321139,199.344885 25.5723512,199.065141 24.6840108,198.936585 L24.7219512,198.936585 Z" id="Shape" fill="#6558F5"></path>
                    <path d="M27.6357724,199.968564 L27.5750678,199.968564 C26.8162602,199.642276 25.4276423,198.337127 25.5414634,197.692141 C25.5414634,197.525203 25.6856369,197.327913 26.0802168,197.289973 C26.3554586,197.266077 26.628789,197.353542 26.8390244,197.532791 C27.597832,198.162602 27.7420054,199.809214 27.7495935,199.862331 C27.7541591,199.902463 27.7407274,199.942559 27.7129078,199.971842 C27.6850882,200.001126 27.6457339,200.016595 27.6054201,200.014092 L27.6357724,199.968564 Z M26.1940379,197.525203 L26.1105691,197.525203 C25.8449864,197.525203 25.8298103,197.654201 25.8222222,197.692141 C25.7615176,198.101897 26.7252033,199.126287 27.4612466,199.573984 C27.4061034,198.888578 27.1411526,198.2368 26.702439,197.707317 C26.5610381,197.586322 26.3801034,197.52151 26.1940379,197.525203 L26.1940379,197.525203 Z" id="Shape" fill="#6558F5"></path>
                    <path d="M49.5653117,69.0514905 L50.1875339,71.2444444 C50.2785908,71.4189702 50.0737127,71.5934959 49.7929539,71.5934959 L24.5398374,71.5934959 C24.3197832,71.5934959 24.1376694,71.4796748 24.1224932,71.3430894 L23.902439,69.1501355 C23.902439,68.998374 24.0769648,68.8693767 24.3197832,68.8693767 L49.1631436,68.8693767 C49.3198917,68.8551687 49.4725869,68.9243137 49.5653117,69.0514905 L49.5653117,69.0514905 Z" id="Path" fill="#6558F5"></path>
                    <path d="M49.5653117,69.0514905 L50.1875339,71.2444444 C50.2785908,71.4189702 50.0737127,71.5934959 49.7929539,71.5934959 L24.5398374,71.5934959 C24.3197832,71.5934959 24.1376694,71.4796748 24.1224932,71.3430894 L23.902439,69.1501355 C23.902439,68.998374 24.0769648,68.8693767 24.3197832,68.8693767 L49.1631436,68.8693767 C49.3198917,68.8551687 49.4725869,68.9243137 49.5653117,69.0514905 L49.5653117,69.0514905 Z" id="Path" fill="#263238" opacity="0.8"></path>
                    <path d="M46.2265583,71.8287263 L46.8943089,71.8287263 C47.0233062,71.8287263 47.1219512,71.7604336 47.1143631,71.6769648 L46.803252,68.8238482 C46.803252,68.7403794 46.6818428,68.6720867 46.5452575,68.6720867 L45.8775068,68.6720867 C45.7485095,68.6720867 45.6498645,68.7403794 45.6574526,68.8238482 L45.9685637,71.6769648 C45.9761518,71.7604336 46.0899729,71.8287263 46.2265583,71.8287263 Z" id="Path" fill="#6558F5"></path>
                    <path d="M26.4065041,71.8287263 L27.0742547,71.8287263 C27.2108401,71.8287263 27.3094851,71.7604336 27.301897,71.6769648 L26.9907859,68.8238482 C26.9907859,68.7403794 26.8617886,68.6720867 26.7327913,68.6720867 L26.0650407,68.6720867 C25.9284553,68.6720867 25.8298103,68.7403794 25.8373984,68.8238482 L26.1485095,71.6769648 C26.1636856,71.7604336 26.2775068,71.8287263 26.4065041,71.8287263 Z" id="Path" fill="#6558F5"></path>
                    <path d="M36.3165312,71.8287263 L36.9842818,71.8287263 C37.1132791,71.8287263 37.2195122,71.7604336 37.204336,71.6769648 L36.8932249,68.8238482 C36.8932249,68.7403794 36.7718157,68.6720867 36.6352304,68.6720867 L35.9750678,68.6720867 C35.8384824,68.6720867 35.7398374,68.7403794 35.7474255,68.8238482 L36.0585366,71.6769648 C36.0661247,71.7604336 36.1875339,71.8287263 36.3165312,71.8287263 Z" id="Path" fill="#6558F5"></path>
                    <path d="M46.401084,76.3132791 L39.898103,76.8747967 L44.2460705,81.2151762 C44.2460705,81.2151762 47.9718157,80.1300813 48.4878049,77.6791328 L46.401084,76.3132791 Z" id="Path" fill="#FFB573"></path>
                    <polygon id="Path" fill="#FFB573" points="36.1799458 80.3349593 40.0119241 83.7723577 45.1642276 80.8737127 39.898103 76.8747967"></polygon>
                    <path d="M35.6639566,12.5658537 L34.5712737,12.0271003 C34.5712737,12.0271003 35.0189702,13.0287263 35.6639566,12.5658537 Z" id="Path" fill="#263238"></path>
                </g>
                <g id="freepik--character-3--inject-85" transform="translate(160.108401, 61.463415)">
                    <path d="M41.4840108,15.6314363 C41.4840108,16.1246612 41.7116531,16.5495935 42.0379404,16.5799458 C42.3642276,16.6102981 42.6449864,16.2384824 42.6601626,15.7452575 C42.6753388,15.2520325 42.4325203,14.8271003 42.1062331,14.796748 C41.7799458,14.7663957 41.499187,15.1761518 41.4840108,15.6314363 Z" id="Path" fill="#263238"></path>
                    <path d="M41.9620596,14.804336 L43.1685637,14.5842818 C43.1685637,14.5842818 42.4932249,15.4493225 41.9620596,14.804336 Z" id="Path" fill="#263238"></path>
                    <path d="M41.8861789,16.1474255 C42.2870074,17.3240503 42.8433351,18.4418095 43.5403794,19.4710027 C42.9961194,19.7854828 42.3408295,19.8437925 41.7495935,19.6303523 L41.8861789,16.1474255 Z" id="Path" fill="#A02724"></path>
                    <path d="M42.2807588,12.4065041 C42.2333319,12.417517 42.1840122,12.417517 42.1365854,12.4065041 C41.4498136,12.0905647 40.6544691,12.1158584 39.9891599,12.4747967 C39.8525391,12.5582041 39.6743607,12.5178618 39.5869919,12.3837398 C39.5413193,12.3211195 39.5235652,12.2424042 39.5379355,12.1662414 C39.5523059,12.0900785 39.5975221,12.0232444 39.6628726,11.9815718 C40.4893973,11.5192556 41.4863804,11.4770106 42.3490515,11.8677507 C42.4958337,11.9306183 42.5688056,12.0964634 42.5159892,12.2471545 C42.472226,12.3389537 42.382242,12.3999106 42.2807588,12.4065041 Z" id="Path" fill="#263238"></path>
                    <path d="M24.8357724,12.6341463 C24.9799458,18.704607 24.9116531,21.3073171 27.8710027,24.7219512 C32.3479675,29.8514905 39.8601626,28.804336 41.5295393,22.900813 C43.0471545,17.5891599 42.5691057,8.48346883 36.6579946,5.50894309 C30.7468835,2.53441734 24.6915989,6.54092141 24.8357724,12.6341463 Z" id="Path" fill="#B55B52"></path>
                    <path d="M16.0336043,42.7208672 C15.0471545,45.4525745 14.0758808,48.3739837 13.1804878,51.2346883 C12.2850949,54.095393 11.4655827,57.0092141 10.7447154,59.9154472 L10.5170732,60.8639566 C10.4888762,60.9203539 10.4758031,60.9831052 10.4791328,61.0460705 C10.4665761,61.1341528 10.4665761,61.2235708 10.4791328,61.3116531 C10.4986115,61.826608 10.5853449,62.336805 10.7371274,62.8292683 C11.1468934,64.1172354 11.6805547,65.3624452 12.3306233,66.5474255 C13.7628411,69.1463769 15.3490452,71.6574443 17.0807588,74.0672087 L14.6298103,76.4119241 C12.1277507,74.3277169 9.87666518,71.9594935 7.92195122,69.3550136 C6.8615843,67.9465415 5.97020987,66.4184711 5.26612466,64.802168 C4.85479978,63.8529188 4.57401525,62.8523049 4.43143631,61.8276423 C4.38701712,61.5313111 4.36671564,61.2318643 4.37073171,60.9322493 C4.35643435,60.6077807 4.37167326,60.2826841 4.41626016,59.9609756 C4.45420054,59.5663957 4.49214092,59.4298103 4.52249322,59.202168 L4.61355014,58.6102981 C5.12791133,55.4814277 5.80415787,52.3813312 6.6395664,49.3224932 C7.48184565,46.2333789 8.49515153,43.1934612 9.67479675,40.2168022 L16.0336043,42.7208672 Z" id="Path" fill="#B55B52"></path>
                    <path d="M12.0422764,33.8276423 C8.24823848,35.6943089 6.07804878,46.1430894 6.07804878,46.1430894 L15.7680217,50.900813 C15.7680217,50.900813 21.6639566,43.1609756 19.8731707,37.1056911 C18.9701897,34.0856369 15.7680217,31.9913279 12.0422764,33.8276423 Z" id="Path" fill="#263238"></path>
                    <path d="M16.5192412,73.1945799 L20.3815718,78.8173442 L15.4569106,78.6504065 C15.4569106,78.6504065 12.9907859,76.1842818 14.4401084,74.097561 L16.5192412,73.1945799 Z" id="Path" fill="#B55B52"></path>
                    <polygon id="Path" fill="#B55B52" points="19.79729 81.2303523 16.7924119 82.8542005 15.4569106 78.6504065 20.3815718 78.8173442"></polygon>
                    <path d="M25.602168,20.3739837 C26.497561,24.0238482 26.201626,30.2384824 23.7430894,32.6135501 C23.7430894,32.6135501 26.4368564,36.2330623 33.2661247,36.3165312 C40.7859079,36.4075881 36.6807588,32.6666667 36.6807588,32.6666667 C32.5376694,31.6498645 32.4921409,28.6449864 33.0764228,25.8373984 L25.602168,20.3739837 Z" id="Path" fill="#B55B52"></path>
                    <path d="M22.0585366,4.73495935 C18.4693767,4.91707317 15.8439024,6.42710027 18.8108401,15.403794 C21.0872629,22.2330623 13.2411924,32.097561 20.6699187,29.4493225 C23.2592944,30.3824938 26.0469569,30.6256951 28.7588076,30.1550136 C28.7588076,30.1550136 43.8059621,35.1403794 41.4536585,24.9268293 C39.101355,14.7132791 43.4417344,7.39078591 40.2243902,3.26287263 C37.0070461,-0.86504065 22.900813,-0.500813008 22.0585366,4.73495935 Z" id="Path" fill="#263238"></path>
                    <path d="M21.5653117,33.7365854 C20.8089056,33.7036485 20.1071282,33.333266 19.6531165,32.7273713 C18.9929539,31.801626 19.6531165,31.3615176 20.2146341,30.4509485 C20.9279133,29.2672087 18.8943089,27.6888889 21.1707317,26.9452575 C23.4471545,26.201626 33.0688347,30.2764228 36.4758808,29.2216802 C38.8661247,28.4628726 39.3214092,30.4281843 38.8054201,31.7560976 C37.9631436,33.9414634 40.3230352,36.1799458 38.3197832,36.6655827 C36.59729,37.0677507 25.0406504,33.9794038 21.5653117,33.7365854 Z" id="Path" fill="#6558F5"></path>
                    <polygon id="Path" fill="#B55B52" points="35.6108401 201.691057 41.7799458 202.138753 43.1533875 188.002168 36.9842818 187.546883"></polygon>
                    <polygon id="Path" fill="#B55B52" points="3.50569106 193.852575 9.39403794 196.128997 15.8211382 183.676965 9.93279133 181.400542"></polygon>
                    <path d="M10.7143631,194.679675 L4.76531165,190.749051 C4.56439462,190.603871 4.28638397,190.633308 4.1203252,190.817344 L0.569105691,194.846612 C0.398848295,195.071674 0.331432887,195.358117 0.383440286,195.63549 C0.435447684,195.912863 0.602051825,196.155427 0.842276423,196.303523 C2.94417344,197.639024 4.01409214,198.177778 6.63197832,199.907859 C8.24065041,200.97019 10.4943089,202.685095 12.702439,204.149593 C14.9105691,205.614092 16.3826558,203.603252 15.5783198,202.806504 C11.9739837,199.217344 12.0650407,197.61626 11.3897019,195.575068 C11.2677264,195.211222 11.0306827,194.896939 10.7143631,194.679675 L10.7143631,194.679675 Z" id="Path" fill="#263238"></path>
                    <path d="M42.1365854,201.266125 L35.2162602,201.266125 C34.9697354,201.259832 34.7576338,201.439303 34.7230352,201.683469 L33.9642276,207.16206 C33.9364207,207.443024 34.0284845,207.722676 34.2177569,207.932176 C34.4070292,208.141675 34.6759295,208.261564 34.9582656,208.262331 C37.3712737,208.216802 38.5322493,208.080217 41.5826558,208.080217 C43.4493225,208.080217 47.3268293,208.269919 49.9295393,208.269919 C52.5322493,208.269919 52.6384824,205.712737 51.5609756,205.485095 C46.7197832,204.445528 44.8151762,203.011382 43.1761518,201.645528 C42.8860807,201.398933 42.5173049,201.264343 42.1365854,201.266125 Z" id="Path" fill="#263238"></path>
                    <polygon id="Path" fill="#000000" opacity="0.2" points="43.1533875 188.002168 42.3945799 195.863415 36.2710027 194.846612 36.9766938 187.546883"></polygon>
                    <polygon id="Path" fill="#000000" opacity="0.2" points="9.93279133 181.40813 15.8211382 183.684553 13.1577236 188.829268 7.18590786 186.712195"></polygon>
                    <path d="M19.1674797,70.7056911 L44.3371274,71.0092141 C48.5333333,35.1100271 45.5663957,34.5105691 45.5663957,34.5105691 C43.5884857,33.8698287 41.5740556,33.3478506 39.5338753,32.9474255 L39.1848238,32.8867209 C37.5154472,32.6059621 37.1739837,32.5756098 34.9734417,32.3479675 C31.2325203,32.1506775 27.7723577,32.0672087 23.5457995,32.2189702 L22.7338753,32.2189702 C21.9750678,32.2644986 21.2162602,32.3176152 20.495393,32.3783198 C20.002168,32.3783198 19.5165312,32.4693767 19.0536585,32.5224932 L17.4753388,32.7197832 C14.804336,33.0764228 12.9224932,33.4785908 12.9224932,33.4785908 C18.8184282,54.3382114 19.099187,60.5831978 19.1674797,70.7056911 Z" id="Path" fill="#263238"></path>
                    <path d="M42.8802168,45.695393 C42.9519656,49.3792575 43.9767582,52.9817173 45.8547425,56.1517615 C46.4466125,49.1707317 46.6135501,44.4433604 46.5756098,41.2336043 C44.6785908,41.3550136 42.8271003,42.3186992 42.8802168,45.695393 Z" id="Path" fill="#000000" opacity="0.2"></path>
                    <path d="M37.697561,70.9257453 C37.697561,70.9257453 32.2644986,108.957182 29.5707317,132.647154 C26.7252033,157.649864 15.2292683,187.736585 15.2292683,187.736585 L6.72303523,184.807588 C6.72303523,184.807588 12.3457995,156.989702 14.204878,133.504607 C17.998916,85.8287263 11.6401084,81.7235772 19.1674797,70.7132791 L37.697561,70.9257453 Z" id="Path" fill="#6558F5"></path>
                    <path d="M37.697561,70.9257453 C37.697561,70.9257453 32.2644986,108.957182 29.5707317,132.647154 C26.7252033,157.649864 15.2292683,187.736585 15.2292683,187.736585 L6.72303523,184.807588 C6.72303523,184.807588 12.3457995,156.989702 14.204878,133.504607 C17.998916,85.8287263 11.6401084,81.7235772 19.1674797,70.7132791 L37.697561,70.9257453 Z" id="Path" fill="#000000" opacity="0.5"></path>
                    <path d="M31.7940379,82.7100271 C28.1593496,90.7382114 29.798374,103.744173 32.0444444,112.440108 C33.4254743,101.816802 34.897561,90.9886179 35.9902439,83.0894309 C34.6319783,80.4791328 33.1750678,79.6747967 31.7940379,82.7100271 Z" id="Path" fill="#000000" opacity="0.2"></path>
                    <polygon id="Path" fill="#263238" points="16.1322493 188.328455 5.51653117 184.663415 6.32086721 181.590244 18.6135501 184.807588"></polygon>
                    <path d="M13.3701897,197.092683 C13.3021557,197.12335 13.2308846,197.146259 13.1577236,197.160976 C12.398916,197.274797 11.2758808,196.265583 10.6840108,195.64336 C10.6394875,195.603284 10.6243845,195.539851 10.6460705,195.484011 C10.6662468,195.426633 10.7219317,195.38951 10.7826558,195.392954 C11.0406504,195.392954 13.2943089,195.476423 13.7268293,196.151762 C13.8149354,196.304366 13.8149354,196.492382 13.7268293,196.644986 C13.659163,196.828674 13.5341021,196.985666 13.3701897,197.092683 Z M11.1468835,195.719241 C11.9663957,196.478049 12.6644986,196.933333 13.104607,196.872629 C13.2820739,196.837988 13.427088,196.710376 13.4840108,196.538753 C13.5233197,196.470668 13.5233197,196.386784 13.4840108,196.318699 C13.2563686,195.96206 12.0498645,195.772358 11.1468835,195.719241 Z" id="Shape" fill="#6558F5"></path>
                    <path d="M44.0108401,71.0699187 C44.0108401,71.0699187 53.1620596,116.598374 52.2287263,135.219512 C51.2498645,154.59187 43.7756098,193.920867 43.7756098,193.920867 L34.8596206,192.775068 C34.8596206,192.775068 36.9842818,154.470461 36.7794038,135.340921 C36.5669377,114.488889 25.5718157,70.8422764 25.5718157,70.8422764 L44.0108401,71.0699187 Z" id="Path" fill="#6558F5"></path>
                    <path d="M44.0108401,71.0699187 C44.0108401,71.0699187 53.1620596,116.598374 52.2287263,135.219512 C51.2498645,154.59187 43.7756098,193.920867 43.7756098,193.920867 L34.8596206,192.775068 C34.8596206,192.775068 36.9842818,154.470461 36.7794038,135.340921 C36.5669377,114.488889 25.5718157,70.8422764 25.5718157,70.8422764 L44.0108401,71.0699187 Z" id="Path" fill="#000000" opacity="0.5"></path>
                    <path d="M48.3056911,36.6579946 C50.4846063,40.0242883 52.4683613,43.5129609 54.2471545,47.1067751 C55.1501355,48.9051491 56.0075881,50.7338753 56.7663957,52.6384824 C57.5787087,54.5690833 58.2457831,56.5576248 58.7620596,58.5875339 L58.9593496,59.3463415 L58.9593496,59.4449864 L58.9593496,59.596748 L59.0200542,59.900271 C59.0200542,60.1051491 59.0731707,60.302439 59.095935,60.499729 C59.1507713,61.2323018 59.1150912,61.9688408 58.9897019,62.6926829 C58.7676898,63.9100222 58.3822727,65.0917979 57.8439024,66.2059621 C56.8967576,68.1397052 55.7334103,69.9598219 54.3761518,71.6314363 C51.8246943,74.7863107 48.9396392,77.6561009 45.7712737,80.1907859 L43.4265583,77.7398374 C45.8516155,74.8522152 48.0871849,71.8106242 50.1192412,68.6341463 C52.001084,65.598916 53.7463415,62.0097561 52.699187,60.2872629 C52.1262769,58.5743968 51.4522842,56.8970166 50.6807588,55.2639566 C49.9219512,53.5794038 49.0569106,51.8948509 48.1615176,50.2254743 C47.2661247,48.5560976 46.3327913,46.9094851 45.3842818,45.2628726 C44.4357724,43.6162602 43.4341463,41.9544715 42.4856369,40.3837398 L48.3056911,36.6579946 Z" id="Path" fill="#B55B52"></path>
                    <path d="M45.4677507,77.5273713 L49.1176152,81.2758808 L45.2856369,83.6737127 C45.2856369,83.6737127 41.3474255,80.4943089 43.502439,77.6867209 L45.4677507,77.5273713 Z" id="Path" fill="#B55B52"></path>
                    <polygon id="Path" fill="#B55B52" points="48.9355014 84.2124661 45.801626 87.4525745 45.2856369 83.6737127 49.1176152 81.2834688"></polygon>
                    <path d="M45.3387534,34.4346883 C49.9371274,36.3468835 53.7615176,41.7647696 55.1653117,45.0124661 L47.4482385,54.3913279 C47.4482385,54.3913279 40.4368564,43.7680217 40.4368564,40.3609756 C40.4444444,36.7945799 43.601084,33.7138211 45.3387534,34.4346883 Z" id="Path" fill="#263238"></path>
                    <polygon id="Path" fill="#263238" points="45.1338753 194.429268 32.9398374 192.790244 33.000542 189.785366 46.2796748 190.384824"></polygon>
                    <path d="M12.6569106,195.271545 C12.0698901,195.554697 11.4268083,195.702502 10.7750678,195.704065 C10.723393,195.697745 10.6780638,195.666581 10.6536585,195.620596 C10.626229,195.576452 10.626229,195.520567 10.6536585,195.476423 C10.6915989,195.415718 11.6249322,193.958808 12.5051491,193.860163 C12.7375291,193.826203 12.9731442,193.895502 13.1501355,194.049864 C13.3499351,194.184555 13.4340386,194.436866 13.3550136,194.664499 C13.2000112,194.941893 12.9531409,195.156563 12.6569106,195.271545 L12.6569106,195.271545 Z M11.0634146,195.40813 C11.8222222,195.362602 12.9376694,194.945257 13.0894309,194.550678 C13.0894309,194.489973 13.1273713,194.398916 12.9756098,194.269919 C12.8592725,194.173472 12.7081843,194.129519 12.5582656,194.148509 C12.0346883,194.254743 11.3821138,194.952846 11.0634146,195.40813 Z" id="Shape" fill="#6558F5"></path>
                    <path d="M44.4585366,202.343631 C43.8055695,202.331105 43.155212,202.257432 42.5159892,202.123577 C42.4561636,202.1113 42.4105642,202.06266 42.402168,202.002168 C42.387928,201.941952 42.4159482,201.879684 42.4704607,201.850407 C42.7512195,201.706233 45.2097561,200.446612 45.9609756,200.863957 C46.1035311,200.947054 46.1968916,201.094167 46.2113821,201.258537 C46.2542593,201.524219 46.1532043,201.792737 45.9457995,201.964228 C45.5089153,202.259055 44.9832638,202.393149 44.4585366,202.343631 Z M43.001626,201.918699 C44.3674797,202.138753 45.3766938,202.078049 45.7485095,201.744173 C45.8839174,201.628239 45.9474944,201.449067 45.9154472,201.273713 C45.9166144,201.209875 45.8812671,201.150963 45.8243902,201.121951 C45.4070461,200.894309 44.0108401,201.433062 43.001626,201.918699 L43.001626,201.918699 Z" id="Shape" fill="#6558F5"></path>
                    <path d="M42.5463415,202.123577 C42.5190654,202.131379 42.4901487,202.131379 42.4628726,202.123577 C42.4183549,202.092631 42.392626,202.041174 42.3945799,201.986992 C42.3945799,201.873171 42.6070461,199.361518 43.9880759,199.361518 L44.1094851,199.361518 C44.5116531,199.407046 44.6330623,199.604336 44.6634146,199.771274 C44.7924119,200.461789 43.3506775,201.79729 42.6070461,202.138753 L42.5463415,202.123577 Z M44.003252,199.6271 C43.1154472,199.6271 42.8119241,201.091599 42.7208672,201.713821 C43.4796748,201.258537 44.4585366,200.196206 44.3750678,199.794038 C44.3750678,199.756098 44.3750678,199.657453 44.0867209,199.634688 L44.003252,199.6271 Z" id="Shape" fill="#6558F5"></path>
                    <path d="M18.7197832,69.2411924 L17.695393,71.4569106 C17.6119241,71.6314363 17.8319783,71.8135501 18.1203252,71.8135501 L44.5192412,72.1246612 C44.7468835,72.1246612 44.9289973,72.0184282 44.9365854,71.8742547 L45.0579946,69.6509485 C45.0579946,69.499187 44.8607046,69.3626016 44.6178862,69.3626016 L19.1219512,69.0590786 C18.9652032,69.0448706 18.8125079,69.1140156 18.7197832,69.2411924 L18.7197832,69.2411924 Z" id="Path" fill="#6558F5"></path>
                    <path d="M22.2785908,72.0867209 L21.595664,72.0867209 C21.4590786,72.0867209 21.3528455,72.0184282 21.3604336,71.9349593 L21.5425474,69.0363144 C21.5425474,68.9528455 21.6639566,68.8845528 21.800542,68.8921409 L22.4834688,68.8921409 C22.6200542,68.8921409 22.7262873,68.9604336 22.7186992,69.0439024 L22.5365854,71.9349593 C22.5289973,72.0411924 22.4151762,72.0867209 22.2785908,72.0867209 Z" id="Path" fill="#6558F5"></path>
                    <path d="M22.2785908,72.0867209 L21.595664,72.0867209 C21.4590786,72.0867209 21.3528455,72.0184282 21.3604336,71.9349593 L21.5425474,69.0363144 C21.5425474,68.9528455 21.6639566,68.8845528 21.800542,68.8921409 L22.4834688,68.8921409 C22.6200542,68.8921409 22.7262873,68.9604336 22.7186992,69.0439024 L22.5365854,71.9349593 C22.5289973,72.0411924 22.4151762,72.0867209 22.2785908,72.0867209 Z" id="Path" fill="#000000" opacity="0.5"></path>
                    <path d="M39.5338753,72.3447154 L38.8509485,72.3447154 C38.7143631,72.3447154 38.6081301,72.2764228 38.6081301,72.1853659 L38.7902439,69.2943089 C38.7902439,69.2108401 38.9116531,69.1425474 39.0482385,69.1425474 L39.7311653,69.1425474 C39.8677507,69.1425474 39.9739837,69.2108401 39.9663957,69.2943089 L39.7842818,72.1853659 C39.7842818,72.2764228 39.6628726,72.3447154 39.5338753,72.3447154 Z" id="Path" fill="#6558F5"></path>
                    <path d="M39.5338753,72.3447154 L38.8509485,72.3447154 C38.7143631,72.3447154 38.6081301,72.2764228 38.6081301,72.1853659 L38.7902439,69.2943089 C38.7902439,69.2108401 38.9116531,69.1425474 39.0482385,69.1425474 L39.7311653,69.1425474 C39.8677507,69.1425474 39.9739837,69.2108401 39.9663957,69.2943089 L39.7842818,72.1853659 C39.7842818,72.2764228 39.6628726,72.3447154 39.5338753,72.3447154 Z" id="Path" fill="#000000" opacity="0.5"></path>
                </g>
                <g id="freepik--character-4--inject-85" transform="translate(216.260163, 44.769648)">
                    <polygon id="Path" fill="#FFC3BD" points="20.0401084 217.368022 14.3718157 216.556098 14.7436314 203.231436 20.404336 204.04336"></polygon>
                    <polygon id="Path" fill="#FFC3BD" points="59.8850949 219.128455 54.1712737 219.128455 52.7447154 205.879675 58.4661247 205.879675"></polygon>
                    <path d="M53.700813,218.460705 L60.704607,218.460705 C60.9378406,218.465239 61.1380616,218.627918 61.1902439,218.855285 L62.3208672,223.939295 C62.3742339,224.190958 62.3096623,224.45321 62.1455518,224.651326 C61.9814413,224.849441 61.7357884,224.961694 61.4785908,224.956098 C59.202168,224.956098 57.601084,224.781572 54.7783198,224.781572 C53.0330623,224.781572 47.79729,224.963686 45.3918699,224.963686 C42.9864499,224.963686 42.6753388,222.588618 43.6617886,222.376152 C48.0704607,221.412466 51.3864499,220.099729 52.7674797,218.817344 C53.0250637,218.589241 53.3567528,218.462498 53.700813,218.460705 L53.700813,218.460705 Z" id="Path" fill="#263238"></path>
                    <path d="M14.5084011,215.911111 L20.6926829,216.791328 C20.921581,216.828424 21.0963749,217.015703 21.1176152,217.246612 L21.5197832,222.444444 C21.5392262,222.699167 21.4409514,222.948768 21.2530658,223.121859 C21.0651801,223.294951 20.808375,223.372471 20.5560976,223.332249 C18.3327913,222.97561 15.1306233,222.38374 12.3230352,221.981572 C9.04498645,221.511111 6.19186992,221.283469 2.34471545,220.737127 C0.0227642276,220.403252 -0.288346883,217.959892 0.720867209,217.884011 C5.27371274,217.550136 8.91598916,217.96748 13.0818428,216.15393 C13.5247207,215.939367 14.0194773,215.855154 14.5084011,215.911111 Z" id="Path" fill="#263238"></path>
                    <path d="M32.6894309,43.8287263 C32.3934959,47.7897019 31.9306233,51.6444444 31.3463415,55.5447154 C31.0579946,57.4872629 30.7165312,59.4298103 30.3523035,61.3723577 C30.1701897,62.3436314 29.9804878,63.3149051 29.7680217,64.2861789 L29.4417344,65.7430894 L29.2823848,66.501897 C29.2216802,66.7447154 29.1306233,67.0634146 29.0623306,67.3441734 C28.4772397,69.4040849 27.7156109,71.4097073 26.7859079,73.3387534 C25.9158085,75.170009 24.9925926,76.9405601 24.0162602,78.6504065 C22.0863835,82.094471 19.966021,85.4282786 17.6650407,88.6363144 L13.8937669,86.504065 L18.1430894,75.8807588 C18.8336043,74.1127371 19.4785908,72.3447154 20.0780488,70.5691057 C20.6594369,68.9394218 21.1259802,67.2710224 21.4742547,65.5761518 C21.4742547,65.3788618 21.5425474,65.2271003 21.5804878,64.999458 L21.6715447,64.2937669 L21.8612466,62.897561 L22.2102981,60.0823848 L22.8401084,54.4140921 L24.0542005,43.0319783 L32.6894309,43.8287263 Z" id="Path" fill="#FFC3BD"></path>
                    <path d="M28.0758808,37.9403794 C22.7642276,39.2910569 20.298103,58.0943089 20.298103,58.0943089 L33.4254743,60.0444444 C33.4254743,60.0444444 34.6775068,54.9831978 36.695935,48.0552846 C37.9403794,43.7149051 34.6699187,36.2482385 28.0758808,37.9403794 Z" id="Path" fill="#6558F5"></path>
                    <path d="M14.8802168,85.4872629 L10.2363144,89.4406504 L16.2081301,92.3317073 C17.4575157,91.1090625 18.125599,89.4112477 18.0444444,87.6650407 L14.8802168,85.4872629 Z" id="Path" fill="#FFC3BD"></path>
                    <polygon id="Path" fill="#FFC3BD" points="7.67913279 93.0601626 12.9300813 95.0861789 16.2081301 92.3317073 10.2363144 89.4406504"></polygon>
                    <polygon id="Path" fill="#000000" opacity="0.2" points="14.7512195 203.231436 14.5539295 210.106233 20.2222222 210.918157 20.4119241 204.04336"></polygon>
                    <polygon id="Path" fill="#000000" opacity="0.2" points="58.4661247 205.879675 52.7447154 205.879675 53.4807588 212.708943 59.202168 212.708943"></polygon>
                    <path d="M59.8699187,39.2834688 C58.3165778,45.489313 57.2284622,51.8024126 56.6146341,58.1701897 C56.1593496,62.6092141 55.9241192,66.8433604 55.795122,70.6829268 C55.5067751,79.6823848 55.8406504,86.5344173 55.6205962,88.8563686 C51.1436314,88.6363144 34.2677507,87.8092141 25.0634146,87.3387534 C24.1604336,42.3869919 27.8558266,37.9783198 27.8558266,37.9783198 C30.2598049,37.47774 32.6927385,37.1280057 35.1403794,36.9311653 C35.6563686,36.8856369 36.1799458,36.8552846 36.7111111,36.8325203 C41.0501861,36.7969063 45.3876895,37.0122614 49.701897,37.4775068 C50.5214092,37.5533875 51.3485095,37.6596206 52.1528455,37.7734417 C56.2504065,38.3653117 59.8699187,39.2834688 59.8699187,39.2834688 Z" id="Path" fill="#6558F5"></path>
                    <path d="M34.1463415,36.8932249 C34.8596206,40.300271 42.0834688,63.8233062 56.2352304,71.7300813 C56.3555895,71.7958447 56.4331649,71.9193907 56.4401084,72.0563686 C56.4856369,72.7696477 56.500813,73.6878049 56.5084299,74.2265583 C56.5094018,74.345094 56.45902,74.4582545 56.3702618,74.5368274 C56.2815036,74.6154002 56.1630677,74.6516849 56.0455285,74.6363144 C54.3837398,74.4086721 48.1235772,72.4054201 39.2075881,58.0943089 C34.8140921,51.0373984 31.7712737,39.9512195 31.2780488,37.6065041 C31.2299095,37.3770795 31.3700492,37.1501866 31.596748,37.0905149 L33.6075881,36.5593496 C33.7235624,36.5275651 33.8475338,36.5454968 33.9497484,36.608841 C34.0519629,36.6721852 34.1231925,36.7752231 34.1463415,36.8932249 Z" id="Path" fill="#263238"></path>
                    <path d="M35.5425474,49.6791328 C36.3848238,51.5609756 32.3631436,59.6498645 37.4926829,67.8905149 C42.6222222,76.1311653 47.0915989,69.3550136 52.3349593,72.3750678 C46.2872629,65.7506775 35.5425474,49.6791328 35.5425474,49.6791328 Z" id="Path" fill="#263238"></path>
                    <path d="M47.3571816,70.5691057 L47.2813008,70.5691057 C37.902439,66.2363144 36.2785908,52.9344173 36.2634146,52.8054201 C36.2570009,52.7550411 36.2710551,52.7041941 36.3024316,52.6642605 C36.333808,52.6243269 36.3798862,52.5986416 36.4303523,52.5929539 C36.4799157,52.586566 36.5299265,52.600826 36.5686676,52.6323928 C36.6074087,52.6639596 36.6314759,52.7100594 36.6352304,52.7598916 C36.6352304,52.896477 38.2514905,65.9859079 47.4406504,70.2124661 C47.5254969,70.2482747 47.5723689,70.3398489 47.5517975,70.4296153 C47.531226,70.5193816 47.4491543,70.5814063 47.3571816,70.5766938 L47.3571816,70.5691057 Z" id="Path" fill="#FFFFFF"></path>
                    <path d="M52.3577236,47.6682927 C52.4016517,52.3512031 53.806891,56.9202084 56.402168,60.8184282 C56.4704607,59.9457995 56.5539295,59.0579946 56.6449864,58.1701897 C56.9864499,54.8314363 57.4417344,51.3788618 58.0639566,47.8807588 L52.3577236,47.6682927 Z" id="Path" fill="#000000" opacity="0.2"></path>
                    <path d="M49.1403794,22.7642276 C48.1159892,26.899729 46.9170732,34.5181572 49.701897,37.4547425 C46.9616991,40.0621274 43.2221539,41.3474229 39.4579946,40.9756098 C35.8688347,40.7252033 35.8081301,38.198374 36.6807588,36.8476965 C41.400542,35.9674797 41.4460705,32.499729 40.801084,29.2140921 L49.1403794,22.7642276 Z" id="Path" fill="#FFC3BD"></path>
                    <path d="M45.7485095,25.4124661 L40.8314363,29.2065041 C40.997445,29.970197 41.0939548,30.7473543 41.1197832,31.5284553 C42.9105691,31.3615176 45.4525745,29.5252033 45.7333333,27.6737127 C45.8768072,26.9272515 45.8819513,26.1607858 45.7485095,25.4124661 L45.7485095,25.4124661 Z" id="Path" fill="#000000" opacity="0.2"></path>
                    <path d="M48.9810298,15.3430894 C49.3680217,21.003794 49.8764228,24.304607 47.4178862,27.5523035 C43.7073171,32.4466125 36.4379404,30.7696477 34.3739837,25.3365854 C32.5073171,20.4422764 32.196206,12.004336 37.4092141,9.05257453 C39.738459,7.71985089 42.5918298,7.68877167 44.949551,8.97044437 C47.3072722,10.2521171 48.8328412,12.6636167 48.9810298,15.3430894 Z" id="Path" fill="#FFC3BD"></path>
                    <path d="M39.6628726,24.5626016 L39.6628726,24.5626016 C41.0094467,24.4148185 42.2005232,23.6226535 42.8574526,22.4379404 C42.8860513,22.3665369 42.8567084,22.285029 42.7891599,22.2482385 C42.7541026,22.2301473 42.7131633,22.2272119 42.6758835,22.2401164 C42.6386038,22.253021 42.6082404,22.2806381 42.5918699,22.3165312 C41.9686332,23.4007931 40.8674543,24.1245859 39.6249322,24.2666667 C39.5459794,24.2818066 39.4906683,24.3533857 39.495935,24.4336043 C39.507708,24.5145748 39.581551,24.5716352 39.6628726,24.5626016 Z" id="Path" fill="#263238"></path>
                    <path d="M43.8590786,11.4731707 C44.0943089,13.9620596 46.097561,16.4813008 45.8471545,18.0899729 C45.7465911,18.7977905 45.5067398,19.4786585 45.1414634,20.0932249 L48.8140921,20.9430894 C48.8140921,20.9430894 59.3084011,9.72791328 51.0070461,7.57289973 C47.1674797,0.159349593 31.2401084,-2.03360434 27.9468835,4.53766938 C24.4487805,11.4655827 34.0552846,13.104607 34.0552846,13.104607 C34.0552846,13.104607 37.8113821,10.4184282 43.8590786,11.4731707 Z" id="Path" fill="#263238"></path>
                    <path d="M52.3577236,21.2466125 C51.7557287,22.5426618 50.6641294,23.546933 49.3224932,24.0390244 C47.5468835,24.6840108 46.5149051,23.1208672 46.901897,21.3680217 C47.2433604,19.7897019 48.5788618,17.5739837 50.4227642,17.6726287 C51.2393456,17.7405884 51.9665754,18.2158063 52.3566961,18.9363822 C52.7468167,19.656958 52.7472031,20.5256899 52.3577236,21.2466125 Z" id="Path" fill="#FFC3BD"></path>
                    <path d="M12.6189702,208.489973 L22.2102981,209.863415 C22.2102981,209.863415 27.7723577,174.958266 30.6482385,154.705691 C31.4070461,149.340921 32.6666667,141.768022 34.3056911,133.686721 C36.3620596,123.503523 38.9875339,112.493225 41.1349593,103.865583 C43.4113821,94.7598916 45.1490515,88.3403794 45.1490515,88.3403794 L25.0406504,87.3463415 C25.0406504,87.3463415 15.1761518,134.582114 14.0455285,151.996748 C12.899729,170.109485 12.6189702,208.489973 12.6189702,208.489973 Z" id="Path" fill="#263238"></path>
                    <path d="M34.3056911,133.686721 C36.3620596,123.503523 38.9875339,112.493225 41.1349593,103.865583 L38.9647696,99.403794 C34.1463415,105.474255 33.1371274,123.761518 34.3056911,133.686721 Z" id="Path" fill="#000000" opacity="0.2"></path>
                    <path d="M35.899187,87.8850949 C35.899187,87.8850949 39.0634146,136.957182 41.4764228,153.537127 C44.1246612,171.695393 50.8401084,211.388618 50.8401084,211.388618 L61.3116531,211.388618 C61.3116531,211.388618 60.3783198,173.979404 57.6921409,156.177778 C54.6569106,136.023848 55.6130081,88.8639566 55.6130081,88.8639566 L35.899187,87.8850949 Z" id="Path" fill="#263238"></path>
                    <polygon id="Path" fill="#6558F5" points="49.5804878 211.61626 61.9186992 211.61626 61.9186992 207.928455 48.1311653 207.693225"></polygon>
                    <polygon id="Path" fill="#6558F5" points="11.9891599 208.626558 22.8097561 210.182114 23.8569106 206.388076 11.5186992 204.59729"></polygon>
                    <path d="M40.6644986,18.0216802 C40.7252033,18.4769648 40.5279133,18.8791328 40.2319783,18.9170732 C39.9360434,18.9550136 39.6401084,18.6135501 39.5794038,18.1582656 C39.5186992,17.702981 39.7159892,17.300813 40.0195122,17.2628726 C40.3230352,17.2249322 40.603794,17.5588076 40.6644986,18.0216802 Z" id="Path" fill="#263238"></path>
                    <path d="M35.497019,18.6894309 C35.5501355,19.1447154 35.3604336,19.5468835 35.0569106,19.5848238 C34.7533875,19.6227642 34.4726287,19.2888889 34.4119241,18.8260163 C34.3512195,18.3631436 34.5485095,17.9685637 34.8444444,17.9306233 C35.1403794,17.8926829 35.4363144,18.2113821 35.497019,18.6894309 Z" id="Path" fill="#263238"></path>
                    <path d="M37.1815718,18.704607 C36.8163473,20.1732039 36.2521391,21.5850009 35.504607,22.900813 C36.4075881,23.5533875 37.7810298,22.900813 37.7810298,22.900813 L37.1815718,18.704607 Z" id="Path" fill="#ED847E"></path>
                    <path d="M42.0531165,16.1398374 C41.9564923,16.1711894 41.8504485,16.1446785 41.7799458,16.0715447 C41.3111957,15.5655231 40.6285423,15.3144646 39.9436314,15.396206 C39.873053,15.4117962 39.799169,15.3979465 39.7390285,15.3578529 C39.6788881,15.3177592 39.6376868,15.2548854 39.6249322,15.1837398 C39.609342,15.1131614 39.6231917,15.0392774 39.6632853,14.9791369 C39.703379,14.9189965 39.7662528,14.8777952 39.8373984,14.8650407 C40.7019088,14.7484337 41.5695198,15.056478 42.1669377,15.6921409 C42.2179209,15.7420941 42.2466512,15.8104663 42.2466512,15.8818428 C42.2466512,15.9532193 42.2179209,16.0215916 42.1669377,16.0715447 C42.134211,16.1020452 42.0954296,16.1253141 42.0531165,16.1398374 Z" id="Path" fill="#263238"></path>
                    <path d="M33.0460705,17.1945799 C32.9914637,17.2097881 32.9337396,17.2097881 32.8791328,17.1945799 C32.7374168,17.1475803 32.6596901,16.9955063 32.704607,16.8531165 C32.9621348,16.016433 33.6101774,15.3570709 34.4422764,15.0850949 C34.5407831,15.0441628 34.6541046,15.0643149 34.7324601,15.1366988 C34.8108156,15.2090826 34.8398692,15.3204548 34.806858,15.4218908 C34.7738468,15.5233268 34.6848106,15.596268 34.5788618,15.6086721 L34.5788618,15.6086721 C33.928139,15.8374796 33.4242855,16.361037 33.2205962,17.0200542 C33.1971228,17.104851 33.1308673,17.1711066 33.0460705,17.1945799 L33.0460705,17.1945799 Z" id="Path" fill="#263238"></path>
                    <path d="M51.803794,219.462331 C51.4152347,219.490609 51.0282707,219.389197 50.703523,219.173984 C50.4975111,218.994187 50.392626,218.724888 50.4227642,218.453117 C50.4230799,218.29233 50.5141195,218.145492 50.6579946,218.073713 C51.295393,217.747425 53.1317073,218.878049 53.3441734,219.007046 C53.3897345,219.036482 53.4135596,219.090088 53.404878,219.143631 C53.3998595,219.198822 53.3601504,219.244641 53.3062331,219.257453 C52.8148618,219.382766 52.3107772,219.451505 51.803794,219.462331 Z M50.9539295,218.278591 C50.8964556,218.265816 50.8368777,218.265816 50.7794038,218.278591 C50.7242413,218.312173 50.6921325,218.373472 50.695935,218.43794 C50.6683385,218.62267 50.737025,218.808696 50.8780488,218.931165 C51.5170802,219.226584 52.2453193,219.264626 52.9116531,219.037398 C52.3137601,218.661293 51.6491161,218.403679 50.9539295,218.278591 Z" id="Shape" fill="#6558F5"></path>
                    <path d="M53.2682927,219.295393 C53.2485609,219.301774 53.2273199,219.301774 53.2075881,219.295393 C52.6157182,218.976694 51.4699187,217.724661 51.5913279,217.087263 C51.6313511,216.880061 51.8128165,216.730432 52.0238482,216.730623 C52.2319278,216.706715 52.4406356,216.769877 52.600542,216.905149 C53.2607046,217.443902 53.404878,219.098103 53.404878,219.181572 C53.412401,219.232862 53.3884898,219.283674 53.3441734,219.310569 L53.2682927,219.295393 Z M52.1149051,216.98103 L52.0542005,216.98103 C51.8796748,216.98103 51.8644986,217.087263 51.8569106,217.117615 C51.7886179,217.497019 52.5170732,218.445528 53.101355,218.893225 C53.0645464,218.241306 52.8288532,217.616322 52.4260163,217.102439 C52.3471251,217.010702 52.2354498,216.953503 52.1149051,216.943089 L52.1149051,216.98103 Z" id="Shape" fill="#6558F5"></path>
                    <path d="M13.8482385,216.609214 L13.8482385,216.609214 C12.9073171,216.654743 11.2531165,216.609214 10.7067751,216.009756 C10.5455002,215.818651 10.4887326,215.560358 10.5550136,215.319241 C10.5825694,215.170109 10.6862207,215.046303 10.8281843,214.992954 C11.5869919,214.719783 13.6737127,216.19187 13.9165312,216.358808 C13.9634203,216.393909 13.9844133,216.453889 13.9696477,216.510569 C13.9538798,216.565665 13.9053952,216.605059 13.8482385,216.609214 Z M10.9344173,215.24336 L10.896477,215.24336 C10.8405438,215.264266 10.8000358,215.313454 10.7902439,215.372358 C10.7454697,215.5323 10.7855405,215.704032 10.896477,215.827642 C11.2,216.184282 12.1181572,216.373984 13.400542,216.343631 C12.5582656,215.79729 11.3821138,215.137127 10.9344173,215.24336 L10.9344173,215.24336 Z" id="Shape" fill="#6558F5"></path>
                    <path d="M13.8482385,216.609214 C13.8137722,216.620782 13.7764717,216.620782 13.7420054,216.609214 C13.104607,216.199458 11.9208672,214.788076 12.1181572,214.158266 C12.1636856,214.014092 12.300271,213.839566 12.6720867,213.854743 C12.946181,213.867657 13.2034203,213.990803 13.3853659,214.196206 C14.0151762,214.886721 13.9544715,216.434688 13.9468835,216.472629 C13.9439769,216.519415 13.9185053,216.561868 13.8785908,216.58645 L13.8482385,216.609214 Z M12.5051491,214.120325 C12.398916,214.120325 12.3837398,214.203794 12.3761518,214.226558 C12.2623306,214.598374 13.0439024,215.691057 13.6813008,216.214634 C13.7094374,215.560576 13.5344991,214.913834 13.1804878,214.363144 C13.0516953,214.210393 12.8641881,214.119397 12.6644986,214.112737 L12.5051491,214.120325 Z" id="Shape" fill="#6558F5"></path>
                    <path d="M60.704607,42.402168 C61.4178862,43.2823848 62.0249322,44.0791328 62.6395664,44.9365854 C63.2542005,45.7940379 63.8460705,46.6287263 64.4379404,47.4861789 C65.5963866,49.2061427 66.6966576,50.9766938 67.7387534,52.797832 C69.8849218,56.4969037 71.617829,60.4207551 72.9062331,64.498645 L72.9669377,64.7111111 L73.0504065,65.0070461 L73.1945799,65.6065041 C73.2552846,65.9631436 73.3235772,66.3653117 73.3615176,66.6840108 C73.42558,67.3243859 73.4534472,67.9678663 73.4449864,68.6113821 C73.4184872,69.7544029 73.3221922,70.8947378 73.1566396,72.0260163 C72.8433841,74.1237821 72.4075889,76.2014104 71.8514905,78.2482385 C70.7734396,82.2167878 69.4090678,86.1019506 67.7691057,89.8731707 L63.6639566,88.598374 C64.3241192,84.7360434 64.9615176,80.8130081 65.4319783,76.9886179 C65.6823848,75.0840108 65.8417344,73.1945799 65.9100271,71.3734417 C65.9453108,70.5183672 65.9301082,69.6619556 65.8644986,68.8086721 C65.8265583,68.4216802 65.7734417,68.0498645 65.7127371,67.7463415 C65.7127371,67.5945799 65.6444444,67.4807588 65.6140921,67.3517615 L65.5609756,67.2303523 L65.5609756,67.1696477 L65.500271,67.0254743 C64.8401084,65.3712737 64.0281843,63.7170732 63.1707317,62.0704607 C62.3132791,60.4238482 61.3344173,58.8 60.3327913,57.1837398 C59.3311653,55.5674797 58.2688347,53.9739837 57.1913279,52.395664 C56.6525745,51.6368564 56.098645,50.8173442 55.5447154,50.0433604 L53.8753388,47.804878 L60.704607,42.402168 Z" id="Path" fill="#FFC3BD"></path>
                    <path d="M59.8699187,39.2834688 C65.2498645,40.2547425 70.2124661,53.2758808 70.2124661,53.2758808 L59.1869919,62.6092141 C59.1869919,62.6092141 55.3929539,56.0227642 52.3197832,49.6487805 C49.0189702,42.7132791 53.3517615,38.1073171 59.8699187,39.2834688 Z" id="Path" fill="#6558F5"></path>
                    <path d="M64.2482385,87.4753388 L60.4542005,91.8915989 L67.4807588,93.8796748 C67.4807588,93.8796748 69.8558266,89.4102981 67.6249322,87.8850949 L64.2482385,87.4753388 Z" id="Path" fill="#FFC3BD"></path>
                    <polygon id="Path" fill="#FFC3BD" points="60.2417344 96.6569106 66.1300813 98.0379404 67.503523 93.8796748 60.4769648 91.8915989"></polygon>
                </g>
                <g id="freepik--Barrier--inject-85" transform="translate(20.487805, 153.279133)">
                    <path d="M136.775068,30.4813008 C136.819296,31.3080792 136.646652,32.1320593 136.274255,32.8715447 C135.916676,33.5935687 135.453809,34.2584605 134.900813,34.8444444 C133.808255,35.9539616 132.579283,36.9203113 131.24336,37.7203252 C128.619519,39.2520556 125.851805,40.5228148 122.979946,41.5143631 C117.294971,43.4752241 111.457545,44.9624986 105.527371,45.9609756 C93.7489518,47.9896436 81.8151137,48.9798982 69.8634146,48.9203252 C57.9243813,48.9776772 46.0033359,47.9874306 34.2373984,45.9609756 C28.307425,44.9615499 22.470077,43.4742951 16.7848238,41.5143631 C13.9154086,40.5227642 11.1502176,39.2519963 8.52899729,37.7203252 C7.19064345,36.9205048 5.95913666,35.9541671 4.86395664,34.8444444 C4.31334627,34.2565263 3.85073594,33.5920032 3.49051491,32.8715447 C3.12173537,32.1307982 2.94929384,31.3077818 2.9897019,30.4813008 C2.97922495,30.2717619 3.14059657,30.0934038 3.3501355,30.0829268 C3.55967443,30.0724499 3.73803254,30.2338215 3.74850949,30.4433604 L3.74850949,30.4813008 C4.01232916,31.8049233 4.78644826,32.9715535 5.90352304,33.7289973 C7.02363754,34.570909 8.24468243,35.2693772 9.53821138,35.8081301 C12.1821549,36.9315901 14.9225624,37.8128889 17.7257453,38.4411924 C20.5788618,39.1190605 23.4522132,39.6856369 26.3457995,40.1409214 C29.2140921,40.596206 32.097561,41.0211382 34.9886179,41.3322493 C46.5951743,42.5630032 58.2601401,43.1608169 69.9317073,43.1230352 C81.6032792,43.1610121 93.2682556,42.5631979 104.874797,41.3322493 C107.773442,41.0211382 110.649322,40.5734417 113.517615,40.1409214 C116.385908,39.7084011 119.239024,39.1317073 122.039024,38.4411924 C124.842207,37.8128889 127.582615,36.9315901 130.226558,35.8081301 C131.522483,35.2694427 132.746047,34.5709917 133.868835,33.7289973 C134.98128,32.9683901 135.752017,31.8027525 136.01626,30.4813008 L136.01626,30.4433604 C136.043794,30.2360867 136.233837,30.090161 136.441192,30.1170732 C136.625594,30.1423922 136.765849,30.2953979 136.775068,30.4813008 Z" id="Path" fill="#6558F5"></path>
                    <path d="M136.775068,30.4813008 C136.819296,31.3080792 136.646652,32.1320593 136.274255,32.8715447 C135.916676,33.5935687 135.453809,34.2584605 134.900813,34.8444444 C133.808255,35.9539616 132.579283,36.9203113 131.24336,37.7203252 C128.619519,39.2520556 125.851805,40.5228148 122.979946,41.5143631 C117.294971,43.4752241 111.457545,44.9624986 105.527371,45.9609756 C93.7489518,47.9896436 81.8151137,48.9798982 69.8634146,48.9203252 C57.9243813,48.9776772 46.0033359,47.9874306 34.2373984,45.9609756 C28.307425,44.9615499 22.470077,43.4742951 16.7848238,41.5143631 C13.9154086,40.5227642 11.1502176,39.2519963 8.52899729,37.7203252 C7.19064345,36.9205048 5.95913666,35.9541671 4.86395664,34.8444444 C4.31334627,34.2565263 3.85073594,33.5920032 3.49051491,32.8715447 C3.12173537,32.1307982 2.94929384,31.3077818 2.9897019,30.4813008 C2.97922495,30.2717619 3.14059657,30.0934038 3.3501355,30.0829268 C3.55967443,30.0724499 3.73803254,30.2338215 3.74850949,30.4433604 L3.74850949,30.4813008 C4.01232916,31.8049233 4.78644826,32.9715535 5.90352304,33.7289973 C7.02363754,34.570909 8.24468243,35.2693772 9.53821138,35.8081301 C12.1821549,36.9315901 14.9225624,37.8128889 17.7257453,38.4411924 C20.5788618,39.1190605 23.4522132,39.6856369 26.3457995,40.1409214 C29.2140921,40.596206 32.097561,41.0211382 34.9886179,41.3322493 C46.5951743,42.5630032 58.2601401,43.1608169 69.9317073,43.1230352 C81.6032792,43.1610121 93.2682556,42.5631979 104.874797,41.3322493 C107.773442,41.0211382 110.649322,40.5734417 113.517615,40.1409214 C116.385908,39.7084011 119.239024,39.1317073 122.039024,38.4411924 C124.842207,37.8128889 127.582615,36.9315901 130.226558,35.8081301 C131.522483,35.2694427 132.746047,34.5709917 133.868835,33.7289973 C134.98128,32.9683901 135.752017,31.8027525 136.01626,30.4813008 L136.01626,30.4433604 C136.043794,30.2360867 136.233837,30.090161 136.441192,30.1170732 C136.625594,30.1423922 136.765849,30.2953979 136.775068,30.4813008 Z" id="Path" fill="#FFFFFF" opacity="0.5"></path>
                    <path d="M270.082385,30.4813008 C270.122793,31.3077818 269.950351,32.1307982 269.581572,32.8715447 C269.223993,33.5935687 268.761126,34.2584605 268.20813,34.8444444 C267.11295,35.9541671 265.881443,36.9205048 264.543089,37.7203252 C261.921869,39.2519963 259.156678,40.5227642 256.287263,41.5143631 C250.60201,43.4742951 244.764662,44.9615499 238.834688,45.9609756 C215.247897,49.9068156 191.169447,49.9068156 167.582656,45.9609756 C161.652482,44.9624986 155.815056,43.4752241 150.130081,41.5143631 C147.260666,40.5227642 144.495475,39.2519963 141.874255,37.7203252 C140.534493,36.9225554 139.302737,35.9560222 138.209214,34.8444444 C137.656218,34.2584605 137.193351,33.5935687 136.835772,32.8715447 C136.463375,32.1320593 136.290731,31.3080792 136.334959,30.4813008 C136.324482,30.2717619 136.485854,30.0934038 136.695393,30.0829269 C136.904932,30.0724499 137.08329,30.2338215 137.093767,30.4433604 L137.093767,30.4813008 C137.35801,31.8027525 138.128747,32.9683901 139.241192,33.7289973 C140.36398,34.5709917 141.587544,35.2694427 142.883469,35.8081301 C145.527412,36.9315901 148.26782,37.8128889 151.071003,38.4411924 C153.871003,39.1317073 156.724119,39.6932249 159.592412,40.1409214 C162.460705,40.5886179 165.336585,41.0211382 168.23523,41.3322493 C179.829188,42.5618226 191.481462,43.1596349 203.140379,43.1230352 C214.811947,43.1608169 226.476912,42.5630032 238.083469,41.3322493 C240.974526,41.0211382 243.857995,40.5734417 246.726287,40.1409214 C249.59458,39.7084011 252.440108,39.1317073 255.247696,38.4411924 C258.050879,37.8128889 260.791287,36.9315901 263.43523,35.8081301 C264.729576,35.2710388 265.950823,34.5724552 267.069919,33.7289973 C268.186993,32.9715535 268.961113,31.8049233 269.224932,30.4813008 L269.224932,30.4433604 C269.252466,30.2360867 269.442509,30.090161 269.649864,30.1170732 C269.755828,30.1065577 269.861543,30.139316 269.942993,30.2079058 C270.024443,30.2764957 270.074714,30.3750939 270.082385,30.4813008 Z" id="Path" fill="#6558F5"></path>
                    <path d="M270.082385,30.4813008 C270.122793,31.3077818 269.950351,32.1307982 269.581572,32.8715447 C269.223993,33.5935687 268.761126,34.2584605 268.20813,34.8444444 C267.11295,35.9541671 265.881443,36.9205048 264.543089,37.7203252 C261.921869,39.2519963 259.156678,40.5227642 256.287263,41.5143631 C250.60201,43.4742951 244.764662,44.9615499 238.834688,45.9609756 C215.247897,49.9068156 191.169447,49.9068156 167.582656,45.9609756 C161.652482,44.9624986 155.815056,43.4752241 150.130081,41.5143631 C147.260666,40.5227642 144.495475,39.2519963 141.874255,37.7203252 C140.534493,36.9225554 139.302737,35.9560222 138.209214,34.8444444 C137.656218,34.2584605 137.193351,33.5935687 136.835772,32.8715447 C136.463375,32.1320593 136.290731,31.3080792 136.334959,30.4813008 C136.324482,30.2717619 136.485854,30.0934038 136.695393,30.0829269 C136.904932,30.0724499 137.08329,30.2338215 137.093767,30.4433604 L137.093767,30.4813008 C137.35801,31.8027525 138.128747,32.9683901 139.241192,33.7289973 C140.36398,34.5709917 141.587544,35.2694427 142.883469,35.8081301 C145.527412,36.9315901 148.26782,37.8128889 151.071003,38.4411924 C153.871003,39.1317073 156.724119,39.6932249 159.592412,40.1409214 C162.460705,40.5886179 165.336585,41.0211382 168.23523,41.3322493 C179.829188,42.5618226 191.481462,43.1596349 203.140379,43.1230352 C214.811947,43.1608169 226.476912,42.5630032 238.083469,41.3322493 C240.974526,41.0211382 243.857995,40.5734417 246.726287,40.1409214 C249.59458,39.7084011 252.440108,39.1317073 255.247696,38.4411924 C258.050879,37.8128889 260.791287,36.9315901 263.43523,35.8081301 C264.729576,35.2710388 265.950823,34.5724552 267.069919,33.7289973 C268.186993,32.9715535 268.961113,31.8049233 269.224932,30.4813008 L269.224932,30.4433604 C269.252466,30.2360867 269.442509,30.090161 269.649864,30.1170732 C269.755828,30.1065577 269.861543,30.139316 269.942993,30.2079058 C270.024443,30.2764957 270.074714,30.3750939 270.082385,30.4813008 Z" id="Path" fill="#FFFFFF" opacity="0.5"></path>
                    <rect id="Rectangle" fill="#6558F5" x="1.57073171" y="5.56205962" width="4.17344173" height="111.673713"></rect>
                    <path d="M1.51761518,115.672629 L5.76693767,115.672629 C6.38298212,115.672629 6.88238482,116.172031 6.88238482,116.788076 L6.88238482,117.228184 L0.432520169,117.228184 L0.432520169,116.788076 C0.432296532,116.183693 0.913455722,115.689074 1.51761518,115.672629 Z" id="Path" fill="#6558F5"></path>
                    <rect id="Rectangle" fill="#6558F5" x="1.2596206" y="29.2368564" width="4.80325203" height="2.49647696"></rect>
                    <rect id="Rectangle" fill="#000000" opacity="0.3" x="1.57073171" y="31.7333333" width="4.17344173" height="1"></rect>
                    <circle id="Oval" fill="#6558F5" cx="3.65745257" cy="4.0899729" r="3.49051491"></circle>
                    <rect id="Rectangle" fill="#6558F5" x="267.426558" y="5.56205962" width="4.17344173" height="111.673713"></rect>
                    <path d="M267.403794,115.672629 L271.653117,115.672629 C272.269161,115.672629 272.768564,116.172031 272.768564,116.788076 L272.768564,117.228184 L266.318699,117.228184 L266.318699,116.788076 C266.318475,116.183693 266.799635,115.689074 267.403794,115.672629 Z" id="Path" fill="#6558F5"></path>
                    <rect id="Rectangle" fill="#6558F5" x="267.107859" y="29.2368564" width="4.80325203" height="2.49647696"></rect>
                    <rect id="Rectangle" fill="#000000" opacity="0.3" x="267.426558" y="31.7333333" width="4.17344173" height="1"></rect>
                    <circle id="Oval" fill="#6558F5" cx="269.513279" cy="4.0899729" r="3.49051491"></circle>
                    <rect id="Rectangle" fill="#6558F5" x="134.498645" y="5.56205962" width="4.17344173" height="111.673713"></rect>
                    <path d="M134.475881,115.672629 L138.694851,115.672629 C139.310895,115.672629 139.810298,116.172031 139.810298,116.788076 L139.810298,117.228184 L133.360434,117.228184 L133.360434,116.788076 C133.360434,116.172031 133.859836,115.672629 134.475881,115.672629 L134.475881,115.672629 Z" id="Path" fill="#6558F5"></path>
                    <rect id="Rectangle" fill="#6558F5" x="134.179946" y="29.2368564" width="4.80325203" height="2.49647696"></rect>
                    <rect id="Rectangle" fill="#000000" opacity="0.3" x="134.498645" y="31.7333333" width="4.17344173" height="1"></rect>
                    <circle id="Oval" fill="#6558F5" cx="136.585366" cy="4.0899729" r="3.49051491"></circle>
                </g>
            </g>
        </g>
    </g>
</svg>