<?xml version="1.0" encoding="UTF-8"?>
<svg width="24px" height="24px" viewBox="0 0 24 24" version="1.1" xmlns="http://www.w3.org/2000/svg" xmlns:xlink="http://www.w3.org/1999/xlink">
    <title>iOS / Icon / Pause Lesson Plan</title>
    <g id="iOS-/-Icon-/-Pause-Lesson-Plan" stroke="none" stroke-width="1" fill="none" fill-rule="evenodd">
        <path d="M12,0 C15.221,0 18.2455,1.259 20.515,3.5445 C20.904,3.9365 20.902,4.57 20.51,4.959 C20.1185,5.348 19.485,5.3455 19.096,4.954 C17.2045,3.049 14.6845,2 12,2 C6.486,2 2,6.486 2,12 C2,17.514 6.486,22 12,22 C17.514,22 22,17.514 22,12 C22,11.448 22.448,11 23,11 C23.552,11 24,11.448 24,12 C24,18.617 18.6165,24 12,24 C5.383,24 0,18.617 0,12 C0,5.383 5.383,0 12,0 Z M14.5,8 C15.0522847,8 15.5,8.44771525 15.5,9 L15.5,15 C15.5,15.5522847 15.0522847,16 14.5,16 C13.9477153,16 13.5,15.5522847 13.5,15 L13.5,9 C13.5,8.44771525 13.9477153,8 14.5,8 Z M9.5,8 C10.0522847,8 10.5,8.44771525 10.5,9 L10.5,15 C10.5,15.5522847 10.0522847,16 9.5,16 C8.94771525,16 8.5,15.5522847 8.5,15 L8.5,9 C8.5,8.44771525 8.94771525,8 9.5,8 Z" id="Combined-Shape" fill="#141E29"></path>
    </g>
</svg>