<?xml version="1.0" encoding="UTF-8"?>
<svg width="24px" height="24px" viewBox="0 0 24 24" version="1.1" xmlns="http://www.w3.org/2000/svg" xmlns:xlink="http://www.w3.org/1999/xlink">
    <title>iOS / Icon / Skip Lesson</title>
    <g id="iOS-/-Icon-/-Skip-Lesson" stroke="none" stroke-width="1" fill="none" fill-rule="evenodd">
        <path d="M12,0 C15.221,0 18.2455,1.259 20.515,3.5445 C20.904,3.9365 20.902,4.57 20.51,4.959 C20.1185,5.348 19.485,5.3455 19.096,4.954 C17.2045,3.049 14.6845,2 12,2 C6.486,2 2,6.486 2,12 C2,17.514 6.486,22 12,22 C17.514,22 22,17.514 22,12 C22,11.448 22.448,11 23,11 C23.552,11 24,11.448 24,12 C24,18.617 18.6165,24 12,24 C5.383,24 0,18.617 0,12 C0,5.383 5.383,0 12,0 Z M15.2518457,8.01787537 C15.665092,8.01787537 16.0000475,8.35290208 16.0000475,8.76610089 L16.0000475,8.76610089 L16.0000475,14.8185638 C16.0000475,15.2318101 15.6650682,15.5667893 15.2518457,15.5667893 C14.8386231,15.5667893 14.5036439,15.2317864 14.5036439,14.8185638 L14.5036439,14.8185638 L14.5036439,8.76610089 C14.5036439,8.35287834 14.8386469,8.01787537 15.2518457,8.01787537 Z M8.33827893,8.3225638 C8.54618398,8.2130089 8.79783976,8.22756083 8.99188131,8.36021365 L8.99188131,8.36021365 L13.2914421,11.3029555 C13.4452938,11.4081899 13.5376855,11.582457 13.5380934,11.7691157 C13.5388249,11.9554421 13.4475015,12.1304214 13.2943858,12.2367478 L13.2943858,12.2367478 L8.99518101,15.2174955 C8.80113947,15.3519525 8.54908012,15.3676677 8.34013056,15.2580653 C8.13075371,15.1488427 8,14.9325341 8,14.696546 L8,14.696546 L8,8.88339466 C8,8.64845104 8.13004154,8.43256973 8.33827893,8.3225638 Z" id="Combined-Shape" fill="#141E29"></path>
    </g>
</svg>