<svg width="24" height="24" viewBox="0 0 24 24" fill="none" xmlns="http://www.w3.org/2000/svg">
<g clip-path="url(#clip0)">
<path fill-rule="evenodd" clip-rule="evenodd" d="M12 0C15.221 0 18.2455 1.259 20.515 3.5445C20.904 3.9365 20.902 4.57 20.51 4.959C20.1185 5.348 19.485 5.3455 19.096 4.954C17.2045 3.049 14.6845 2 12 2C6.486 2 2 6.486 2 12C2 17.514 6.486 22 12 22C17.514 22 22 17.514 22 12C22 11.448 22.448 11 23 11C23.552 11 24 11.448 24 12C24 18.617 18.6165 24 12 24C5.383 24 0 18.617 0 12C0 5.383 5.383 0 12 0ZM15.2518 8.01788C15.6651 8.01788 16 8.3529 16 8.7661V14.8186C16 15.2318 15.6651 15.5668 15.2518 15.5668C14.8386 15.5668 14.5036 15.2318 14.5036 14.8186V8.7661C14.5036 8.35288 14.8386 8.01788 15.2518 8.01788ZM8.33828 8.32256C8.54618 8.21301 8.79784 8.22756 8.99188 8.36021L13.2914 11.303C13.4453 11.4082 13.5377 11.5825 13.5381 11.7691C13.5388 11.9554 13.4475 12.1304 13.2944 12.2367L8.99518 15.2175C8.80114 15.352 8.54908 15.3677 8.34013 15.2581C8.13075 15.1488 8 14.9325 8 14.6965V8.88339C8 8.64845 8.13004 8.43257 8.33828 8.32256Z" fill="#141E29"/>
</g>
<defs>
<clipPath id="clip0">
<rect width="24" height="24" fill="white"/>
</clipPath>
</defs>
</svg>
