<svg xmlns="http://www.w3.org/2000/svg" width="16" height="16" viewBox="0 0 16 16">
    <g fill="none" fill-rule="evenodd">
        <g fill="#4B5C6B">
            <g>
                <path d="M7.992 0C12.416 0 16 3.584 16 8s-3.584 8-8.008 8C3.576 16 0 12.416 0 8s3.576-8 7.992-8zM8 1.6C4.464 1.6 1.6 4.464 1.6 8c0 3.536 2.864 6.4 6.4 6.4 3.536 0 6.4-2.864 6.4-6.4 0-3.536-2.864-6.4-6.4-6.4zM8.4 4v4.2l3.6 2.136-.6.984L7.2 8.8V4h1.2z" transform="translate(-218 -254) translate(218 254)"/>
            </g>
        </g>
    </g>
</svg>
