<svg width="16" height="16" viewBox="0 0 16 16" fill="none" xmlns="http://www.w3.org/2000/svg">
<path fill-rule="evenodd" clip-rule="evenodd" d="M0.666656 8.00008C0.666656 3.94999 3.9499 0.666748 7.99999 0.666748C12.0501 0.666748 15.3333 3.94999 15.3333 8.00008C15.3333 12.0502 12.0501 15.3334 7.99999 15.3334C3.9499 15.3334 0.666656 12.0502 0.666656 8.00008ZM14 8.00008C14 4.68637 11.3137 2.00008 7.99999 2.00008C4.68628 2.00008 1.99999 4.68637 1.99999 8.00008C1.99999 11.3138 4.68628 14.0001 7.99999 14.0001C11.3137 14.0001 14 11.3138 14 8.00008ZM8.66217 3.92233C8.62366 3.59077 8.34188 3.33341 7.99999 3.33341C7.6318 3.33341 7.33332 3.63189 7.33332 4.00008V8.00008L7.33853 8.08332C7.36605 8.30244 7.50109 8.49599 7.70185 8.59637L10.3685 9.9297L10.4401 9.96046C10.7538 10.0743 11.11 9.93735 11.2629 9.63156L11.2937 9.56001C11.4075 9.24623 11.2706 8.89003 10.9648 8.73713L8.66666 7.58808V4.00008L8.66217 3.92233Z" fill="#150F2F"/>
</svg>
