<svg width="24" height="24" viewBox="0 0 24 24" fill="none" xmlns="http://www.w3.org/2000/svg">
<g clip-path="url(#clip0)">
<path fill-rule="evenodd" clip-rule="evenodd" d="M12 0C15.221 0 18.2455 1.259 20.515 3.5445C20.904 3.9365 20.902 4.57 20.51 4.959C20.1185 5.348 19.485 5.3455 19.096 4.954C17.2045 3.049 14.6845 2 12 2C6.486 2 2 6.486 2 12C2 17.514 6.486 22 12 22C17.514 22 22 17.514 22 12C22 11.448 22.448 11 23 11C23.552 11 24 11.448 24 12C24 18.617 18.6165 24 12 24C5.383 24 0 18.617 0 12C0 5.383 5.383 0 12 0ZM11.7 6C12.1971 6 12.6 6.40294 12.6 6.9V12.3L17.2566 15.0629C17.2596 15.0647 17.2625 15.0665 17.2655 15.0682C17.6682 15.3138 17.7955 15.8393 17.55 16.242C17.301 16.6504 16.769 16.7814 16.3588 16.5353L10.8 13.2V6.9C10.8 6.40294 11.2029 6 11.7 6Z" fill="#FFFFFF"/>
</g>
<defs>
<clipPath id="clip0">
<rect width="24" height="24" fill="white"/>
</clipPath>
</defs>
</svg>
