<?xml version="1.0" encoding="UTF-8"?>
<svg width="24px" height="24px" viewBox="0 0 24 24" version="1.1" xmlns="http://www.w3.org/2000/svg" xmlns:xlink="http://www.w3.org/1999/xlink">
    <title>iOS / Icon / Reschedule Lesson</title>
    <g id="iOS-/-Icon-/-Reschedule-Lesson" stroke="none" stroke-width="1" fill="none" fill-rule="evenodd">
        <path d="M12,0 C15.221,0 18.2455,1.259 20.515,3.5445 C20.904,3.9365 20.902,4.57 20.51,4.959 C20.1185,5.348 19.485,5.3455 19.096,4.954 C17.2045,3.049 14.6845,2 12,2 C6.486,2 2,6.486 2,12 C2,17.514 6.486,22 12,22 C17.514,22 22,17.514 22,12 C22,11.448 22.448,11 23,11 C23.552,11 24,11.448 24,12 C24,18.617 18.6165,24 12,24 C5.383,24 0,18.617 0,12 C0,5.383 5.383,0 12,0 Z M11.7,6 C12.1970563,6 12.6,6.40294373 12.6,6.9 L12.6,6.9 L12.6,12.3 L17.2566272,15.0629321 C17.2595795,15.0646838 17.2625213,15.0664533 17.2654523,15.0682405 C17.6681527,15.3137896 17.795549,15.8392996 17.55,16.242 C17.3009536,16.6504361 16.7690091,16.7814055 16.3588046,16.5352828 L16.3588046,16.5352828 L10.8,13.2 L10.8,6.9 C10.8,6.40294373 11.2029437,6 11.7,6 Z" id="Combined-Shape" fill="#FFFFFF"></path>
    </g>
</svg>