<?xml version="1.0" encoding="UTF-8"?>
<svg width="24px" height="24px" viewBox="0 0 24 24" version="1.1" xmlns="http://www.w3.org/2000/svg" xmlns:xlink="http://www.w3.org/1999/xlink">
    <title>iOS / Icon / Instrument / Piano</title>
    <g id="iOS-/-Icon-/-Instrument-/-Piano" stroke="none" stroke-width="1" fill="none" fill-rule="evenodd">
        <polygon id="Path" points="0 0 24 0 24 24 0 24"></polygon>
        <path d="M8.25,0 C11.0931562,0 13.40625,2.31309375 13.40625,5.15625 C13.40625,6.96553125 14.8782187,8.4375 16.6875,8.4375 L16.6875,8.4375 L19.78125,8.4375 C22.1074687,8.4375 24,10.3300312 24,12.65625 L24,12.65625 L24,22.59375 C24,23.3691562 23.3691563,24 22.59375,24 L22.59375,24 L1.40625,24 C0.63084375,24 0,23.3691563 0,22.59375 L0,22.59375 L0,5.15625 C0,2.31309375 2.31309375,0 5.15625,0 L5.15625,0 Z M2.015625,17.15625 L0.9375,17.15625 L0.9375,22.59375 C0.9375,22.8522187 1.14778125,23.0625 1.40625,23.0625 L1.40625,23.0625 L2.953125,23.0625 L2.953125,21.1875 L2.484375,21.1875 C2.22548438,21.1875 2.015625,20.9776406 2.015625,20.71875 L2.015625,20.71875 L2.015625,17.15625 Z M5.765625,17.15625 L4.828125,17.15625 L4.828125,20.71875 C4.828125,20.9776406 4.61826562,21.1875 4.359375,21.1875 L4.359375,21.1875 L3.890625,21.1875 L3.890625,23.0625 L6.703125,23.0625 L6.703125,21.1875 L6.234375,21.1875 C5.97548438,21.1875 5.765625,20.9776406 5.765625,20.71875 L5.765625,20.71875 L5.765625,17.15625 Z M9.515625,17.15625 L8.578125,17.15625 L8.578125,20.71875 C8.578125,20.9776406 8.36826562,21.1875 8.109375,21.1875 L8.109375,21.1875 L7.640625,21.1875 L7.640625,23.0625 L10.453125,23.0625 L10.453125,21.1875 L9.984375,21.1875 C9.72548438,21.1875 9.515625,20.9776406 9.515625,20.71875 L9.515625,20.71875 L9.515625,17.15625 Z M13.40625,17.15625 L12.328125,17.15625 L12.328125,20.71875 C12.328125,20.9776406 12.1182656,21.1875 11.859375,21.1875 L11.859375,21.1875 L11.390625,21.1875 L11.390625,23.0625 L13.40625,23.0625 L13.40625,17.15625 Z M15.421875,17.15625 L14.34375,17.15625 L14.34375,23.0625 L16.359375,23.0625 L16.359375,21.1875 L15.890625,21.1875 C15.6317344,21.1875 15.421875,20.9776406 15.421875,20.71875 L15.421875,20.71875 L15.421875,17.15625 Z M19.171875,17.15625 L18.234375,17.15625 L18.234375,20.71875 C18.234375,20.9776406 18.0245156,21.1875 17.765625,21.1875 L17.765625,21.1875 L17.296875,21.1875 L17.296875,23.0625 L20.109375,23.0625 L20.109375,21.1875 L19.640625,21.1875 C19.3817344,21.1875 19.171875,20.9776406 19.171875,20.71875 L19.171875,20.71875 L19.171875,17.15625 Z M23.0625,17.15625 L21.984375,17.15625 L21.984375,20.71875 C21.984375,20.9776406 21.7745156,21.1875 21.515625,21.1875 L21.515625,21.1875 L21.046875,21.1875 L21.046875,23.0625 L22.59375,23.0625 C22.8522187,23.0625 23.0625,22.8522187 23.0625,22.59375 L23.0625,22.59375 L23.0625,17.15625 Z M3.890625,17.15625 L2.953125,17.15625 L2.953125,20.25 L3.890625,20.25 L3.890625,17.15625 Z M7.640625,17.15625 L6.703125,17.15625 L6.703125,20.25 L7.640625,20.25 L7.640625,17.15625 Z M11.390625,17.15625 L10.453125,17.15625 L10.453125,20.25 L11.390625,20.25 L11.390625,17.15625 Z M17.296875,17.15625 L16.359375,17.15625 L16.359375,20.25 L17.296875,20.25 L17.296875,17.15625 Z M21.046875,17.15625 L20.109375,17.15625 L20.109375,20.25 L21.046875,20.25 L21.046875,17.15625 Z M23.0625,14.0625 L0.9375,14.0625 L0.9375,16.21875 L23.0625,16.21875 L23.0625,14.0625 Z M8.25,0.9375 L5.15625,0.9375 C2.83003125,0.9375 0.9375,2.83003125 0.9375,5.15625 L0.9375,5.15625 L0.9375,13.125 L23.0625,13.125 L23.0625,12.65625 C23.0625,10.8469687 21.5905313,9.375 19.78125,9.375 L19.78125,9.375 L16.6875,9.375 C14.3612813,9.375 12.46875,7.48246875 12.46875,5.15625 L12.463577,4.94601089 C12.3536529,2.71707025 10.5057273,0.9375 8.25,0.9375 L8.25,0.9375 Z M8.25,1.875 C10.0592813,1.875 11.53125,3.34696875 11.53125,5.15625 C11.53125,5.41514062 11.3213906,5.625 11.0625,5.625 C10.8036094,5.625 10.59375,5.41514062 10.59375,5.15625 C10.59375,3.86390625 9.54234375,2.8125 8.25,2.8125 L8.25,2.8125 L7.3125,2.8125 C7.05360938,2.8125 6.84375,2.60264062 6.84375,2.34375 C6.84375,2.08485938 7.05360938,1.875 7.3125,1.875 L7.3125,1.875 Z M5.4375,1.875 C5.69625,1.875 5.90625,2.085 5.90625,2.34375 C5.90625,2.6025 5.69625,2.8125 5.4375,2.8125 C5.17875,2.8125 4.96875,2.6025 4.96875,2.34375 C4.96875,2.085 5.17875,1.875 5.4375,1.875 Z" id="Combined-Shape" fill="#150F2F"></path>
    </g>
</svg>