<?xml version="1.0" encoding="UTF-8"?>
<svg width="308px" height="262px" viewBox="0 0 308 262" version="1.1" xmlns="http://www.w3.org/2000/svg" xmlns:xlink="http://www.w3.org/1999/xlink">
    <title>iOS/Sign-Up/Pending</title>
    <g id="Page-1" stroke="none" stroke-width="1" fill="none" fill-rule="evenodd">
        <g id="DBS-Success" transform="translate(-34.000000, -145.000000)" fill-rule="nonzero">
            <g id="iOS/Sign-Up/Pending" transform="translate(34.000000, 145.000000)">
                <g id="freepik--background-simple--inject-78" transform="translate(0.000000, 2.000000)">
                    <path d="M187.731593,45.5091384 C127.637598,82.0626632 32.2036554,8.6924282 3.91122715,103.709661 C-23.1968668,194.749869 97.7075718,221.843342 162.495039,218.034465 C237.612533,213.611488 309.118538,164.9953 307.334726,84.248564 C306.64752,53.0318538 295.35248,19.9143603 264.64752,6.57963446 C215.512272,-14.7749347 219.577023,26.1357702 187.731593,45.5091384 Z" id="Path" fill="#6558F5"></path>
                    <path d="M187.731593,45.5091384 C127.637598,82.0626632 32.2036554,8.6924282 3.91122715,103.709661 C-23.1968668,194.749869 97.7075718,221.843342 162.495039,218.034465 C237.612533,213.611488 309.118538,164.9953 307.334726,84.248564 C306.64752,53.0318538 295.35248,19.9143603 264.64752,6.57963446 C215.512272,-14.7749347 219.577023,26.1357702 187.731593,45.5091384 Z" id="Path" fill="#FFFFFF" opacity="0.9"></path>
                </g>
                <g id="freepik--Shadow--inject-1" transform="translate(8.037534, 243.983914)" fill="#F5F5F5">
                    <ellipse id="freepik--path--inject-1" cx="145.630027" cy="9.18820375" rx="145.547453" ry="8.49758713"></ellipse>
                </g>
                <g id="freepik--Confetti--inject-1" transform="translate(8.037534, 0.766756)">
                    <path d="M53.0048257,88.2337802 C48.0428954,88.2337802 45.708311,83.2418231 45.6107239,83.0316354 C45.4345792,82.5471257 45.6593789,82.008495 46.1276931,81.7929529 C46.5960073,81.5774108 47.1513578,81.7569766 47.4048257,82.2058981 C47.4048257,82.2734584 49.3790885,86.3646113 53.1549598,86.2595174 C53.6695789,86.2885214 54.0760219,86.7072148 54.0897359,87.2224681 C54.1034499,87.7377215 53.7198544,88.1774425 53.2075067,88.2337802 L53.0048257,88.2337802 Z" id="Path" fill="#6558F5"></path>
                    <path d="M117.855228,18.9093834 C117.423465,18.9112907 116.992077,18.8837019 116.564075,18.8268097 C116.21543,18.7745129 115.921168,18.5401886 115.792136,18.2121046 C115.663104,17.8840206 115.718904,17.5120205 115.938517,17.2362333 C116.15813,16.960446 116.508191,16.8227702 116.856836,16.875067 L116.856836,16.875067 C116.901877,16.875067 121.420912,17.5131367 123.402681,14.2927614 C123.686671,13.8284276 124.293307,13.68223 124.757641,13.9662198 C125.221975,14.2502097 125.368172,14.8568459 125.084182,15.3211796 C123.10992,18.4439678 119.69437,18.9093834 117.855228,18.9093834 Z" id="Path" fill="#6558F5"></path>
                    <path d="M117.855228,18.9093834 C117.423465,18.9112907 116.992077,18.8837019 116.564075,18.8268097 C116.21543,18.7745129 115.921168,18.5401886 115.792136,18.2121046 C115.663104,17.8840206 115.718904,17.5120205 115.938517,17.2362333 C116.15813,16.960446 116.508191,16.8227702 116.856836,16.875067 L116.856836,16.875067 C116.901877,16.875067 121.420912,17.5131367 123.402681,14.2927614 C123.686671,13.8284276 124.293307,13.68223 124.757641,13.9662198 C125.221975,14.2502097 125.368172,14.8568459 125.084182,15.3211796 C123.10992,18.4439678 119.69437,18.9093834 117.855228,18.9093834 Z" id="Path" fill="#FFFFFF" opacity="0.6"></path>
                    <path d="M6.45576408,56.5029491 C4.55122443,56.4380995 2.70161212,55.8484057 1.11099196,54.7989276 C0.805316307,54.6030537 0.632427705,54.254696 0.661282294,53.892796 C0.690136883,53.530896 0.916040066,53.2143343 1.24889098,53.0693707 C1.58174189,52.9244071 1.9673862,52.9746268 2.25201072,53.2 L2.25201072,53.2 C2.28954424,53.2 6.07292225,55.7597855 9.26327078,53.7254692 C9.56100493,53.5089588 9.95422809,53.4753551 10.2843816,53.6382079 C10.614535,53.8010608 10.827191,54.1335229 10.8366006,54.5015363 C10.8460102,54.8695496 10.6506222,55.2124449 10.3292225,55.3919571 C9.17278821,56.1293267 7.82722409,56.5152637 6.45576408,56.5029491 L6.45576408,56.5029491 Z" id="Path" fill="#6558F5"></path>
                    <path d="M6.45576408,56.5029491 C4.55122443,56.4380995 2.70161212,55.8484057 1.11099196,54.7989276 C0.805316307,54.6030537 0.632427705,54.254696 0.661282294,53.892796 C0.690136883,53.530896 0.916040066,53.2143343 1.24889098,53.0693707 C1.58174189,52.9244071 1.9673862,52.9746268 2.25201072,53.2 L2.25201072,53.2 C2.28954424,53.2 6.07292225,55.7597855 9.26327078,53.7254692 C9.56100493,53.5089588 9.95422809,53.4753551 10.2843816,53.6382079 C10.614535,53.8010608 10.827191,54.1335229 10.8366006,54.5015363 C10.8460102,54.8695496 10.6506222,55.2124449 10.3292225,55.3919571 C9.17278821,56.1293267 7.82722409,56.5152637 6.45576408,56.5029491 L6.45576408,56.5029491 Z" id="Path" fill="#FFFFFF" opacity="0.6"></path>
                    <path d="M263.958177,30.1769437 C262.056724,30.1256943 260.205641,29.5545329 258.605898,28.5254692 C258.158148,28.2166043 258.045559,27.6032464 258.354424,27.155496 C258.663288,26.7077456 259.276646,26.5951566 259.724397,26.9040214 L259.724397,26.9040214 C259.76193,26.9040214 263.552815,29.4563003 266.743164,27.4294906 C267.039512,27.2404176 267.414219,27.2238069 267.726135,27.3859157 C268.038051,27.5480245 268.23979,27.8642246 268.255357,28.2154064 C268.270925,28.5665882 268.097957,28.8993989 267.801609,29.0884718 C266.653111,29.8162998 265.317762,30.1944749 263.958177,30.1769437 Z" id="Path" fill="#6558F5"></path>
                    <path d="M263.958177,30.1769437 C262.056724,30.1256943 260.205641,29.5545329 258.605898,28.5254692 C258.158148,28.2166043 258.045559,27.6032464 258.354424,27.155496 C258.663288,26.7077456 259.276646,26.5951566 259.724397,26.9040214 L259.724397,26.9040214 C259.76193,26.9040214 263.552815,29.4563003 266.743164,27.4294906 C267.039512,27.2404176 267.414219,27.2238069 267.726135,27.3859157 C268.038051,27.5480245 268.23979,27.8642246 268.255357,28.2154064 C268.270925,28.5665882 268.097957,28.8993989 267.801609,29.0884718 C266.653111,29.8162998 265.317762,30.1944749 263.958177,30.1769437 Z" id="Path" fill="#FFFFFF" opacity="0.6"></path>
                    <path d="M143.235389,107.713673 C138.63378,107.713673 136.126542,103.254692 136.013941,103.052011 C135.75068,102.575239 135.923765,101.975325 136.400536,101.712064 C136.877307,101.448804 137.477222,101.621888 137.740483,102.09866 C137.740483,102.158713 139.992493,106.092225 143.745845,105.709383 C144.266602,105.691378 144.712334,106.079776 144.765749,106.5981 C144.819164,107.116424 144.462011,107.587563 143.948525,107.676139 C143.723324,107.69866 143.475603,107.713673 143.235389,107.713673 Z" id="Path" fill="#6558F5"></path>
                    <path d="M143.235389,107.713673 C138.63378,107.713673 136.126542,103.254692 136.013941,103.052011 C135.75068,102.575239 135.923765,101.975325 136.400536,101.712064 C136.877307,101.448804 137.477222,101.621888 137.740483,102.09866 C137.740483,102.158713 139.992493,106.092225 143.745845,105.709383 C144.266602,105.691378 144.712334,106.079776 144.765749,106.5981 C144.819164,107.116424 144.462011,107.587563 143.948525,107.676139 C143.723324,107.69866 143.475603,107.713673 143.235389,107.713673 Z" id="Path" fill="#FFFFFF" opacity="0.6"></path>
                    <path d="M17.2654155,127.764075 C16.7708681,127.759899 16.3563649,127.389079 16.2973648,126.898046 C16.2383646,126.407013 16.5532262,125.948557 17.0327078,125.827346 L17.0327078,125.827346 C17.077748,125.827346 21.4841823,124.663807 22.0847185,120.925469 C22.1410381,120.578165 22.3783642,120.287289 22.7072984,120.162411 C23.0362325,120.037533 23.4068018,120.097625 23.6794163,120.320051 C23.9520309,120.542478 24.085274,120.893446 24.0289544,121.240751 C23.2257373,126.277748 17.7383378,127.681501 17.50563,127.741555 C17.4264308,127.756499 17.3460124,127.764075 17.2654155,127.764075 L17.2654155,127.764075 Z" id="Path" fill="#6558F5"></path>
                    <path d="M17.2654155,127.764075 C16.7708681,127.759899 16.3563649,127.389079 16.2973648,126.898046 C16.2383646,126.407013 16.5532262,125.948557 17.0327078,125.827346 L17.0327078,125.827346 C17.077748,125.827346 21.4841823,124.663807 22.0847185,120.925469 C22.1410381,120.578165 22.3783642,120.287289 22.7072984,120.162411 C23.0362325,120.037533 23.4068018,120.097625 23.6794163,120.320051 C23.9520309,120.542478 24.085274,120.893446 24.0289544,121.240751 C23.2257373,126.277748 17.7383378,127.681501 17.50563,127.741555 C17.4264308,127.756499 17.3460124,127.764075 17.2654155,127.764075 L17.2654155,127.764075 Z" id="Path" fill="#000000" opacity="0.6"></path>
                    <path d="M236.461126,59.3404826 C235.952089,59.3578988 235.513998,58.9837524 235.451543,58.4782612 C235.389089,57.97277 235.722943,57.5032481 236.220912,57.3962466 L236.220912,57.3962466 C236.265952,57.3962466 240.672386,56.2402145 241.272922,52.5018767 C241.306609,52.1330499 241.54317,51.8137969 241.886216,51.6742003 C242.229262,51.5346037 242.621523,51.5979688 242.903167,51.8384771 C243.184812,52.0789853 243.308821,52.4564842 243.224665,52.8171582 C242.413941,57.8541555 236.926542,59.2579088 236.693834,59.3104558 C236.618089,59.3314907 236.539729,59.3416017 236.461126,59.3404826 Z" id="Path" fill="#6558F5"></path>
                    <path d="M236.461126,59.3404826 C235.952089,59.3578988 235.513998,58.9837524 235.451543,58.4782612 C235.389089,57.97277 235.722943,57.5032481 236.220912,57.3962466 L236.220912,57.3962466 C236.265952,57.3962466 240.672386,56.2402145 241.272922,52.5018767 C241.306609,52.1330499 241.54317,51.8137969 241.886216,51.6742003 C242.229262,51.5346037 242.621523,51.5979688 242.903167,51.8384771 C243.184812,52.0789853 243.308821,52.4564842 243.224665,52.8171582 C242.413941,57.8541555 236.926542,59.2579088 236.693834,59.3104558 C236.618089,59.3314907 236.539729,59.3416017 236.461126,59.3404826 Z" id="Path" fill="#000000" opacity="0.6"></path>
                    <path d="M276.794638,96.7689008 L276.629491,96.7689008 C276.389276,96.7238606 270.819303,95.7029491 269.670777,90.7635389 C269.610468,90.5065232 269.656031,90.2360521 269.797216,90.01298 C269.938401,89.789908 270.163349,89.6329713 270.421448,89.5774799 C270.678309,89.5192867 270.947769,89.5657459 271.170312,89.7065958 C271.392855,89.8474457 271.550169,90.0710969 271.607507,90.3281501 C272.463271,94.0064343 276.937265,94.8321716 276.982306,94.8321716 C277.471547,94.9368137 277.806034,95.3897465 277.762116,95.8881225 C277.718198,96.3864986 277.309654,96.7739536 276.809651,96.7914209 L276.794638,96.7689008 Z" id="Path" fill="#6558F5"></path>
                    <path d="M259.198928,132.958713 C257.479944,132.985743 255.807929,132.397343 254.484718,131.299732 C254.183879,131.084797 254.029023,130.719281 254.083895,130.353643 C254.138767,129.988006 254.394093,129.684047 254.744771,129.566886 C255.095449,129.449726 255.482208,129.539167 255.745845,129.798391 C258.650938,132.21555 262.727078,130.18874 262.772118,130.16622 C263.257181,129.91747 263.852054,130.109039 264.100804,130.594102 C264.349554,131.079165 264.157985,131.674038 263.672922,131.922788 C262.274253,132.588149 260.747698,132.941613 259.198928,132.958713 L259.198928,132.958713 Z" id="Path" fill="#6558F5"></path>
                    <path d="M213.190349,9.75871314 C213.019287,9.76002014 212.850931,9.71598873 212.702413,9.6310992 C212.499732,9.51849866 207.597855,6.68096515 208.198391,1.61394102 C208.260579,1.07290928 208.749585,0.684729384 209.290617,0.746916941 C209.831648,0.809104497 210.219828,1.29811034 210.157641,1.83914209 C209.729759,5.5924933 213.663271,7.89705094 213.700804,7.91957105 C214.094077,8.14182083 214.285352,8.60341775 214.164541,9.0386915 C214.043731,9.47396526 213.641911,9.77094828 213.190349,9.75871314 Z" id="Path" fill="#6558F5"></path>
                    <path d="M17.1077748,13.7597855 C16.5646702,13.7825876 16.1059121,13.360799 16.08311,12.8176944 C16.0603079,12.2745897 16.4820964,11.8158316 17.0252011,11.7930295 C20.7785523,11.4627346 22.2798928,7.1538874 22.2798928,7.10884718 C22.4611249,6.61092813 23.004281,6.34613186 23.5081664,6.51004639 C24.0120518,6.67396092 24.2954627,7.20764042 24.1490617,7.71689008 C24.0815013,7.94959786 22.2798928,13.3168901 17.1978552,13.722252 L17.1077748,13.7597855 Z" id="Path" fill="#6558F5"></path>
                </g>
                <g id="freepik--character-1--inject-1" transform="translate(57.581769, 16.530831)">
                    <path d="M40.8064343,27.6997319 C38.141555,28.9458445 35.7919571,34.936193 36.5576408,43.538874 C37.3233244,52.141555 19.5024129,46.1061662 17.077748,55.7447721 C12.7013405,73.1903485 42.0450402,83.6772118 54.5512064,73.1903485 C62.2906166,66.7045576 69.5646113,45.3254692 68.4986595,33.6600536 C67.3576408,21.1163539 47.9002681,12.7013405 40.8064343,27.6997319 Z" id="Path" fill="#263238"></path>
                    <path d="M68.9640751,49.7093834 C69.29437,49.6117962 69.7747989,49.4691689 70.1876676,49.3340483 L71.4788204,48.8986595 C72.3420912,48.5983914 73.1978552,48.2680965 74.0461126,47.9152815 C75.7361296,47.2214692 77.3852688,46.4319876 78.9855228,45.5506702 C82.1214665,43.8774815 84.9433032,41.6728421 87.3254692,39.0348525 C89.449866,36.5126005 90.9737265,33.0745308 92.1672922,29.5463807 C92.7753351,27.7747989 93.2857909,25.9506702 93.7211796,24.0965147 C94.1565684,22.2423592 94.569437,20.3431635 94.8847185,18.5190349 L97.9475374,18.7067024 C97.9524813,22.7662379 97.5119529,26.8140639 96.6337802,30.7774799 C96.1870751,32.808386 95.5821918,34.8012382 94.8246649,36.7378016 C94.0396262,38.7819473 92.9870226,40.7129826 91.69437,42.480429 C89.0502619,45.870554 85.7713854,48.7134368 82.0407507,50.8504021 C80.2431812,51.9130324 78.377468,52.8559198 76.4557641,53.6729223 C75.4949062,54.0782842 74.5265416,54.4235925 73.5356568,54.7914209 C73.0477212,54.9640751 72.5522788,55.1292225 72.0343164,55.2793566 C71.5163539,55.4294906 71.058445,55.572118 70.4428954,55.722252 L68.9640751,49.7093834 Z" id="Path" fill="#7F3E3B"></path>
                    <path d="M97.9324397,19.7351206 L99.2085791,15.1485255 L94.141555,15.538874 C94.141555,15.538874 93.7812332,18.541555 95.5302949,20.3506702 L97.9324397,19.7351206 Z" id="Path" fill="#7F3E3B"></path>
                    <polygon id="Path" fill="#7F3E3B" points="99.966756 9.81126005 95.3426273 11.0198391 94.141555 15.538874 99.2085791 15.1485255"></polygon>
                    <path d="M63.2289544,50.880429 C65.5635389,48.7560322 71.4863271,47.1270777 71.4863271,47.1270777 L77.9796247,56.8857909 C77.9796247,56.8857909 70.5705094,61.8327078 67.4252011,60.6841823 C64.1522788,59.5431635 61.0520107,52.8546917 63.2289544,50.880429 Z" id="Path" fill="#6558F5"></path>
                    <polygon id="Path" fill="#7F3E3B" points="41.8423592 189.686863 45.8884718 194.130831 57.5013405 185.858445 53.4552279 181.414477"></polygon>
                    <polygon id="Path" fill="#7F3E3B" points="19.0069705 207.24504 24.4343164 209.939946 32.413941 198.236997 26.9865952 195.542091"></polygon>
                    <path d="M25.2975871,209.27185 L21.1088472,203.904558 C20.9630719,203.710966 20.6959374,203.656252 20.4857909,203.776944 L15.7640751,206.479357 C15.5277323,206.623766 15.3645369,206.862464 15.3157489,207.135103 C15.266961,207.407741 15.3372508,207.688221 15.5088472,207.90563 C17.0101877,209.752279 17.8134048,210.570509 19.6600536,212.935121 C20.786059,214.383914 23.0831099,217.76193 24.644504,219.76622 C26.2058981,221.770509 28.277748,220.336729 27.8048257,219.360858 C25.6879357,214.98445 25.552815,212.387131 25.627882,210.300268 C25.6429818,209.929173 25.5259423,209.564755 25.2975871,209.27185 L25.2975871,209.27185 Z" id="Path" fill="#263238"></path>
                    <path d="M47.0970509,194.213405 L44.3345845,187.57748 C44.2342026,187.332969 43.9807516,187.187698 43.7190349,187.224665 L37.863807,187.975335 C37.5811077,188.005447 37.3300413,188.169421 37.1888297,188.416169 C37.0476182,188.662918 37.0334243,188.962452 37.1506702,189.221448 C38.1565684,191.526005 38.7646113,192.599464 39.9806971,195.519571 C40.7313673,197.313673 42.4729223,202.027882 43.5013405,204.527614 C44.5297587,207.027346 47.172118,206.434316 46.9769437,205.338338 C46.0986595,200.428954 46.3989276,197.261126 47.1270777,195.331903 C47.2664096,194.969947 47.255602,194.567364 47.0970509,194.213405 Z" id="Path" fill="#263238"></path>
                    <polygon id="Path" fill="#000000" opacity="0.2" points="57.4938338 185.858445 51.510992 190.122252 46.9844504 186.023592 53.4477212 181.414477"></polygon>
                    <polygon id="Path" fill="#000000" opacity="0.2" points="26.9865952 195.542091 32.413941 198.236997 28.2927614 204.272386 22.8654155 201.569973"></polygon>
                    <path d="M71.4037534,51.6386059 C71.4037534,51.6386059 71.5839142,51.3683646 68.2959786,87.2353887 L43.7490617,88.9544236 C43.463807,78.9404826 44.2144772,71.8691689 39.5378016,51.2932976 C42.9865792,50.5987837 46.4814977,50.1572147 49.9946381,49.972118 C53.7145768,49.7239818 57.4475556,49.7440516 61.1646113,50.0321716 C65.9613941,50.4900804 71.4037534,51.6386059 71.4037534,51.6386059 Z" id="Path" fill="#6558F5"></path>
                    <path d="M41.3844504,57.2386059 C39.5603217,56.3978552 37.9613941,55.4970509 36.3024129,54.5436997 C34.6434316,53.5903485 33.0745308,52.569437 31.5131367,51.4884718 C28.3350727,49.3308632 25.3803016,46.861429 22.6927614,44.1168901 L21.7018767,43.0434316 L21.4466488,42.7731903 C21.3003272,42.6050468 21.1625312,42.4296701 21.0337802,42.2477212 C20.8016453,41.9166619 20.6006112,41.5648522 20.433244,41.1967828 C19.9362163,40.0237297 19.6809019,38.7624763 19.6825575,37.4884718 C19.6992686,35.4605615 19.9716593,33.4428529 20.4932976,31.4831099 C21.4462912,27.8154297 22.7692521,24.2539989 24.4418231,20.8536193 L27.3093834,21.9646113 C26.8664879,23.6686327 26.4461126,25.4402145 26.0707775,27.1742627 C25.6954424,28.908311 25.3801609,30.6573727 25.1699732,32.3689008 C24.9262826,33.9782424 24.8608288,35.6095518 24.9747989,37.233244 C25.0123039,37.7952574 25.1548944,38.3452495 25.3951743,38.8546917 C25.3951743,38.9072386 25.4702413,38.9672922 25.4927614,38.9747989 C25.5152815,38.9823056 25.4927614,38.9747989 25.4927614,38.9747989 L25.7254692,39.1924933 L26.6487936,40.0707775 C29.2256323,42.4044529 31.9871032,44.5257646 34.9061662,46.413941 C36.3699732,47.3823056 37.9088472,48.2680965 39.4101877,49.1613941 C40.9115282,50.0546917 42.5254692,50.9029491 43.9892761,51.6461126 L41.3844504,57.2386059 Z" id="Path" fill="#7F3E3B"></path>
                    <path d="M49.1989276,52.6670241 C46.413941,48.786059 40.941555,48.8460045 40.941555,48.8460045 L34.3431635,58.6048257 C34.3431635,58.6048257 41.7072386,63.6193029 44.8525469,62.5008043 C48.1855228,61.3147453 50.9179625,55.0541555 49.1989276,52.6670241 Z" id="Path" fill="#6558F5"></path>
                    <path d="M61.1646113,50.0321716 L49.9946381,49.972118 C48.2831099,50.6627346 47.2922252,55.1142091 58.6273458,58.8825737 C66.4868633,54.4160858 62.30563,50.4450402 61.1646113,50.0321716 Z" id="Path" fill="#FFFFFF"></path>
                    <path d="M51.1656836,37.3983914 C51.8487936,40.9941019 52.5168901,47.5849866 49.9946381,49.972118 C49.9946381,49.972118 50.9705094,53.627882 58.6273458,58.8825737 C63.9946381,53.5002681 61.1646113,50.0321716 61.1646113,50.0321716 C57.1635389,49.0487936 57.2836461,46.0761394 57.9967828,43.2761394 L51.1656836,37.3983914 Z" id="Path" fill="#7F3E3B"></path>
                    <path d="M74.3163539,73.1002681 L74.1962466,73.1002681 C73.3719547,73.0325102 72.7577095,72.310856 72.8225201,71.4863271 C73.0927614,68.1383378 70.5705094,65.6085791 67.6729223,62.6734584 C64.3474531,59.3179625 60.5715818,55.5120643 60.4214477,49.5892761 C60.4007185,48.7601087 61.0560872,48.0711313 61.8852547,48.0504021 C62.7144221,48.029673 63.4033995,48.6850417 63.4241287,49.5142091 C63.5442359,54.2434316 66.7270777,57.4563003 69.8048257,60.5640751 C72.8825737,63.6718499 76.1930295,67.0048257 75.8101877,71.7265416 C75.7439816,72.5026268 75.0952572,73.0991924 74.3163539,73.1002681 L74.3163539,73.1002681 Z" id="Path" fill="#263238"></path>
                    <path d="M52.3742627,80.6970801 C52.2527756,80.6966714 52.1317836,80.6815474 52.013941,80.6520107 C51.2100477,80.4524693 50.7196271,79.6395805 50.9179625,78.8353887 C52.366756,72.950134 50.4675603,68.3260054 48.4557641,63.4616622 C46.6541555,59.0927614 44.7924933,54.5737265 45.6932976,49.289008 C45.8549819,48.4933963 46.6198582,47.9704523 47.4199045,48.1085314 C48.2199508,48.2466104 48.7652913,48.9956832 48.6509383,49.7994638 C47.9002681,54.2284182 49.5142091,58.1619303 51.2257373,62.3206434 C53.2375335,67.1924933 55.5120643,72.7174263 53.830563,79.586059 C53.6534346,80.2439186 53.0555444,80.700041 52.3742627,80.6970801 Z" id="Path" fill="#263238"></path>
                    <path d="M56.5855228,42.0375335 L53.5828418,42.3903485 C53.7282874,43.1987286 54.0181714,43.9742955 54.4386059,44.6798928 C55.0316354,45.5731903 56.352815,45.9635389 57.6589812,46.0010724 C57.6575177,45.0723765 57.7838132,44.1478935 58.0343164,43.2536193 L56.5855228,42.0375335 Z" id="Path" fill="#000000" opacity="0.2"></path>
                    <path d="M44.522252,33.7801609 C46.7217158,39.3801609 47.524933,41.797319 51.3608579,43.7941019 C57.1260054,46.7967828 63.5217158,42.8857909 63.0412869,36.7453083 C62.6134048,31.2128686 59.0927614,22.9855228 52.7646113,22.5201072 C49.9311131,22.2992509 47.1851235,23.5604938 45.5064024,25.8538287 C43.8276813,28.1471635 43.4553489,31.1459234 44.522252,33.7801609 L44.522252,33.7801609 Z" id="Path" fill="#7F3E3B"></path>
                    <path d="M50.550134,21.7093834 C54.8214477,24.3367292 51.1656836,39.7930295 43.9367292,38.9747989 C36.7077748,38.1565684 44.2369973,17.8284182 50.550134,21.7093834 Z" id="Path" fill="#263238"></path>
                    <path d="M50.3924933,21.769437 C47.172118,23.9088472 49.3715818,27.6321716 60.2262735,25.4252011 C60.2262735,25.4176944 55.7372654,18.2112601 50.3924933,21.769437 Z" id="Path" fill="#263238"></path>
                    <path d="M45.3029491,39.2225201 C45.777669,40.2833533 46.6516253,41.1141513 47.7351206,41.5345845 C49.1839142,42.075067 50.0321716,40.7839142 49.7469169,39.3801609 C49.4841823,38.0965147 48.4182306,36.2573727 46.9168901,36.3324397 C46.2502992,36.3773497 45.6516453,36.756341 45.3259007,37.3396512 C45.0001561,37.9229613 44.9915199,38.631443 45.3029491,39.2225201 L45.3029491,39.2225201 Z" id="Path" fill="#7F3E3B"></path>
                    <path d="M68.310992,87.2353887 C68.310992,87.2353887 81.4477212,130.12118 82.5061662,148.572654 C83.6021448,167.767292 55.0991957,190.542627 55.0991957,190.542627 L48.0053619,182.758177 C48.0053619,182.758177 71.1635389,163.090617 67.9882038,148.842895 C63.5967828,129.205362 50.2949062,88.4965147 50.2949062,88.4965147 L68.310992,87.2353887 Z" id="Path" fill="#263238"></path>
                    <path d="M60.1211796,101.272922 C58.9201072,97.519571 56.2477212,100.041823 55.3168901,104.020375 C57.1710456,110.025737 59.3179625,117.052011 61.3597855,124.085791 C62.1479893,117.855228 62.4707775,108.629491 60.1211796,101.272922 Z" id="Path" fill="#000000" opacity="0.2"></path>
                    <polygon id="Path" fill="#6558F5" points="46.0836461 182.382842 55.0841823 191.668633 58.9276139 189.544236 49.416622 179.192493"></polygon>
                    <path d="M61.8176944,87.6932976 C61.8176944,87.6932976 58.0643432,129.730831 54.310992,153.144236 C51.2707775,172.061126 30.6198391,202.958713 30.6198391,202.958713 L23.0530831,199.43807 C23.0530831,199.43807 36.9329759,166.356032 39.0949062,153.497051 C46.0310992,112.337802 36.6627346,100.462198 43.7565684,88.9394102 L61.8176944,87.6932976 Z" id="Path" fill="#263238"></path>
                    <polygon id="Path" fill="#6558F5" points="22.5201072 199.520643 31.0552279 203.709383 33.8552279 200.23378 23.8713137 195.527078"></polygon>
                    <path d="M43.2836461,87.5431635 L42.3302949,89.7951743 C42.2552279,89.9678284 42.4654155,90.1329759 42.7506702,90.1104558 L68.4986595,88.3088472 C68.7163539,88.3088472 68.8965147,88.1737265 68.8965147,88.0310992 L68.9640751,85.7790885 C68.9640751,85.6289544 68.7689008,85.5163539 68.5286863,85.5313673 L43.6664879,87.2729223 C43.4965047,87.2789038 43.3462051,87.3849976 43.2836461,87.5431635 Z" id="Path" fill="#FFFFFF"></path>
                    <path d="M46.8117962,90.080429 L46.1512064,90.1254692 C46.0160858,90.1254692 45.910992,90.0729223 45.910992,89.9903485 L46.0235925,87.1152815 C46.0235925,87.0327078 46.1436997,86.950134 46.2713137,86.9426273 L46.9394102,86.8975871 C47.0745308,86.8975871 47.1796247,86.950134 47.172118,87.0327078 L47.0595174,89.9077748 C47.0595174,90.0053619 46.9469169,90.080429 46.8117962,90.080429 Z" id="Path" fill="#263238"></path>
                    <path d="M66.644504,88.6991957 L65.9764075,88.7442359 C65.8412869,88.7442359 65.736193,88.691689 65.7436997,88.6091153 L65.8563003,85.7340483 C65.8563003,85.6514745 65.9689008,85.5764075 66.1040214,85.5613941 L66.7646113,85.5163539 C66.8997319,85.5163539 67.0048257,85.5689008 67.0048257,85.6514745 L66.8922252,88.5340483 C66.8847185,88.616622 66.8096515,88.691689 66.644504,88.6991957 Z" id="Path" fill="#263238"></path>
                    <path d="M56.7281501,89.397319 L56.0600536,89.4423592 C55.9324397,89.4423592 55.8273458,89.3898123 55.8273458,89.3072386 L55.9399464,86.4246649 C55.9399464,86.3420912 56.0525469,86.2670241 56.1876676,86.2595174 L56.8557641,86.2144772 C56.983378,86.2144772 57.0884718,86.2670241 57.0884718,86.3495979 L56.9758713,89.2246649 C56.9758713,89.3297587 56.8632708,89.3823056 56.7281501,89.397319 Z" id="Path" fill="#263238"></path>
                    <path d="M53.5678284,31.6782842 C53.2075067,31.7983914 53.0573727,32.338874 53.2375335,32.89437 L54.5512064,32.4739946 C54.3710456,31.9184987 53.9281501,31.5281501 53.5678284,31.6782842 Z" id="Path" fill="#263238"></path>
                    <path d="M59.3029491,29.8616622 C58.9351206,29.9817694 58.7849866,30.5297587 58.9651475,31.0852547 L60.2863271,30.6573727 C60.0536193,30.1018767 59.6257373,29.7490617 59.3029491,29.8616622 Z" id="Path" fill="#263238"></path>
                    <path d="M59.1152815,29.9442359 L60.3238606,29.1335121 C60.3238606,29.1335121 59.9785523,30.3946381 59.1152815,29.9442359 Z" id="Path" fill="#263238"></path>
                    <path d="M57.8016086,32.1286863 C58.5562937,33.05578 59.4353719,33.8742322 60.413941,34.5608579 C60.0468164,35.0593855 59.4779332,35.3699352 58.8600536,35.4091153 L57.8016086,32.1286863 Z" id="Path" fill="#630F0F"></path>
                    <path d="M57.891689,37.7436997 C57.9366008,37.7047121 57.9542646,37.6428886 57.9367292,37.586059 C57.9117652,37.5115112 57.831185,37.4712211 57.7565684,37.4959786 C56.5920961,37.8991379 55.3054502,37.7264711 54.2884718,37.030563 C54.2616854,37.0035156 54.2251981,36.9882983 54.1871314,36.9882983 C54.1490646,36.9882983 54.1125774,37.0035156 54.0857909,37.030563 C54.0567061,37.0562134 54.0400441,37.0931238 54.0400441,37.1319035 C54.0400441,37.1706832 54.0567061,37.2075936 54.0857909,37.233244 C55.1749516,38.0135173 56.577579,38.2098851 57.8391421,37.7587131 L57.891689,37.7436997 Z" id="Path" fill="#263238"></path>
                    <path d="M51.6686327,31.3404826 C51.7066381,31.3087652 51.7352017,31.2672182 51.7512064,31.2203753 C51.9607005,30.5111798 52.5050191,29.9500266 53.2075067,29.7190349 C53.3609027,29.6817223 53.4550069,29.5271225 53.4176944,29.3737265 C53.3803818,29.2203306 53.225782,29.1262263 53.0723861,29.1635389 C52.1895869,29.4415971 51.495921,30.1296689 51.2107239,31.0101877 C51.161209,31.159421 51.2417891,31.3205813 51.3908847,31.3705094 C51.4818619,31.4128424 51.5888048,31.401281 51.6686327,31.3404826 Z" id="Path" fill="#263238"></path>
                    <path d="M60.6616622,27.6321716 C60.6776592,27.6237142 60.6907383,27.6106351 60.6991957,27.5946381 C60.7478023,27.5352412 60.7704231,27.4587632 60.7619475,27.3824824 C60.7534719,27.3062017 60.7146149,27.2365546 60.6541555,27.1892761 C59.941592,26.599832 58.9884974,26.3902071 58.09437,26.6262735 C58.0209776,26.6501507 57.9603926,26.7027479 57.9264441,26.7720593 C57.8924957,26.8413707 57.8880815,26.9214802 57.9142091,26.9941019 C57.9673387,27.1403814 58.1256295,27.2195268 58.2745308,27.1742627 C58.9832709,26.9921086 59.7363269,27.1656754 60.2938338,27.6396783 C60.4018919,27.727141 60.5572625,27.7239702 60.6616622,27.6321716 Z" id="Path" fill="#263238"></path>
                    <path d="M30.5898123,23.0681608 C30.407521,23.0676499 30.228674,23.0184022 30.0718499,22.9254692 L7.23646113,8.85790885 C6.82141111,8.55217064 6.71011481,7.97926711 6.98050671,7.5403701 C7.25089862,7.10147309 7.81264471,6.94321174 8.27238606,7.17640751 L31.1077748,21.2439678 C31.4861973,21.4735178 31.6646372,21.927592 31.5437394,22.3533625 C31.4228416,22.779133 31.0324002,23.0716729 30.5898123,23.0681608 L30.5898123,23.0681608 Z" id="Path" fill="#6558F5"></path>
                    <path d="M12.4085791,10.4117962 C13.6922252,10.3592493 15.0134048,10.2991957 15.186059,9.14316354 C15.3587131,7.98713137 14.1201072,7.54423592 12.9340483,7.10884718 L12.6112601,6.98873995 C12.6112601,6.87613941 12.5587131,6.76353887 12.5286863,6.65844504 L12.7914209,6.36568365 C13.6321716,5.43485255 14.5104558,4.47399464 13.8273458,3.55817694 C13.1442359,2.64235925 11.9731903,3.18284182 10.8246649,3.71581769 L10.4718499,3.88096515 C10.3742627,3.81340483 10.2766756,3.76085791 10.1715818,3.70080429 C10.0664879,3.64075067 10.1715818,3.46058981 10.1715818,3.35549598 C10.1115282,2.07935657 10.0514745,0.758176944 8.90294906,0.585522788 C7.75442359,0.412868633 7.30402145,1.65147453 6.86863271,2.83753351 C6.8310992,2.93512064 6.79356568,3.04772118 6.74852547,3.16032172 L6.41072386,3.24289544 L6.12546917,2.98766756 C5.19463807,2.13941019 4.23378016,1.26863271 3.31796247,1.94423592 C2.40214477,2.61983914 2.94262735,3.79839142 3.47560322,4.94691689 L3.64075067,5.2997319 C3.57530299,5.39389506 3.51515603,5.49163386 3.46058981,5.5924933 L3.1152815,5.5924933 C1.83914209,5.65254692 0.510455764,5.71260054 0.337801609,6.86863271 C0.165147453,8.02466488 1.41126005,8.46756032 2.58981233,8.90294906 L2.91260054,9.0230563 C2.91260054,9.13565684 2.96514745,9.24825737 2.99517426,9.35335121 C2.90509383,9.45844504 2.8150134,9.56353887 2.73243968,9.6461126 C1.89168901,10.5769437 1.02091153,11.5302949 1.69651475,12.4536193 C2.37211796,13.3769437 3.55067024,12.8214477 4.69919571,12.2959786 L5.05951743,12.1308311 L5.35227882,12.310992 C5.35227882,12.4310992 5.35227882,12.5512064 5.35227882,12.6563003 C5.41233244,13.9324397 5.47238606,15.2536193 6.62091153,15.4262735 C7.769437,15.5989276 8.22734584,14.3603217 8.66273458,13.1742627 C8.66273458,13.0841823 8.73780161,12.9715818 8.77533512,12.8514745 C8.88955397,12.8310521 9.00237678,12.8034732 9.11313673,12.7689008 L9.40589812,13.0316354 C10.3292225,13.8723861 11.2900804,14.7506702 12.2134048,14.075067 C13.1367292,13.3994638 12.5812332,12.2209115 12.0482574,11.0723861 C12.0032172,10.9747989 11.9431635,10.847185 11.8906166,10.719571 L12.0707775,10.4268097 L12.4085791,10.4117962 Z" id="Path" fill="#6558F5"></path>
                    <path d="M12.4085791,10.4117962 C13.6922252,10.3592493 15.0134048,10.2991957 15.186059,9.14316354 C15.3587131,7.98713137 14.1201072,7.54423592 12.9340483,7.10884718 L12.6112601,6.98873995 C12.6112601,6.87613941 12.5587131,6.76353887 12.5286863,6.65844504 L12.7914209,6.36568365 C13.6321716,5.43485255 14.5104558,4.47399464 13.8273458,3.55817694 C13.1442359,2.64235925 11.9731903,3.18284182 10.8246649,3.71581769 L10.4718499,3.88096515 C10.3742627,3.81340483 10.2766756,3.76085791 10.1715818,3.70080429 C10.0664879,3.64075067 10.1715818,3.46058981 10.1715818,3.35549598 C10.1115282,2.07935657 10.0514745,0.758176944 8.90294906,0.585522788 C7.75442359,0.412868633 7.30402145,1.65147453 6.86863271,2.83753351 C6.8310992,2.93512064 6.79356568,3.04772118 6.74852547,3.16032172 L6.41072386,3.24289544 L6.12546917,2.98766756 C5.19463807,2.13941019 4.23378016,1.26863271 3.31796247,1.94423592 C2.40214477,2.61983914 2.94262735,3.79839142 3.47560322,4.94691689 L3.64075067,5.2997319 C3.57530299,5.39389506 3.51515603,5.49163386 3.46058981,5.5924933 L3.1152815,5.5924933 C1.83914209,5.65254692 0.510455764,5.71260054 0.337801609,6.86863271 C0.165147453,8.02466488 1.41126005,8.46756032 2.58981233,8.90294906 L2.91260054,9.0230563 C2.91260054,9.13565684 2.96514745,9.24825737 2.99517426,9.35335121 C2.90509383,9.45844504 2.8150134,9.56353887 2.73243968,9.6461126 C1.89168901,10.5769437 1.02091153,11.5302949 1.69651475,12.4536193 C2.37211796,13.3769437 3.55067024,12.8214477 4.69919571,12.2959786 L5.05951743,12.1308311 L5.35227882,12.310992 C5.35227882,12.4310992 5.35227882,12.5512064 5.35227882,12.6563003 C5.41233244,13.9324397 5.47238606,15.2536193 6.62091153,15.4262735 C7.769437,15.5989276 8.22734584,14.3603217 8.66273458,13.1742627 C8.66273458,13.0841823 8.73780161,12.9715818 8.77533512,12.8514745 C8.88955397,12.8310521 9.00237678,12.8034732 9.11313673,12.7689008 L9.40589812,13.0316354 C10.3292225,13.8723861 11.2900804,14.7506702 12.2134048,14.075067 C13.1367292,13.3994638 12.5812332,12.2209115 12.0482574,11.0723861 C12.0032172,10.9747989 11.9431635,10.847185 11.8906166,10.719571 L12.0707775,10.4268097 L12.4085791,10.4117962 Z" id="Path" fill="#FFFFFF" opacity="0.7"></path>
                    <path d="M23.7737265,23.308311 L22.8353887,17.3029491 L28.9608579,20.30563 C28.7300444,21.3166268 28.2081025,22.2378542 27.4595174,22.955496 C26.8307956,23.6713971 25.8472042,23.963264 24.9297587,23.7061662 L23.7737265,23.308311 Z" id="Path" fill="#7F3E3B"></path>
                    <polygon id="Path" fill="#7F3E3B" points="26.2734584 14.3603217 29.4112601 17.1152815 28.9608579 20.2680965 22.8353887 17.2954424"></polygon>
                    <path d="M27.2643432,212.146917 C27.3280074,212.101371 27.3882245,212.05119 27.444504,211.996783 C27.5756522,211.877526 27.630476,211.695742 27.5871314,211.523861 C27.4069705,210.77319 25.3351206,210.02252 25.1024129,209.969973 C25.0496258,209.947251 24.9881631,209.962617 24.9522788,210.007507 C24.9206014,210.05528 24.9206014,210.117375 24.9522788,210.165147 C25.2900804,210.915818 25.9656836,212.146917 26.7238606,212.274531 C26.9137106,212.302648 27.1071197,212.256982 27.2643432,212.146917 Z M25.3351206,210.360322 C26.1533512,210.668097 27.2117962,211.193566 27.3093834,211.591421 C27.3236746,211.667657 27.2948189,211.745567 27.2343164,211.794102 C27.1180271,211.941974 26.9332151,212.018742 26.7463807,211.996783 C26.3335121,211.921716 25.8230563,211.32118 25.3351206,210.360322 Z" id="Shape" fill="#6558F5"></path>
                    <path d="M27.647185,210.142627 C27.6961821,210.11312 27.73942,210.074968 27.7747989,210.030027 C27.9258169,209.846965 27.9258169,209.582525 27.7747989,209.399464 C27.6618304,209.207294 27.4692976,209.075271 27.2493298,209.039142 C26.386059,208.881501 24.997319,209.947453 24.9447721,209.992493 C24.9052293,210.025532 24.8853925,210.076541 24.8922252,210.127614 C24.9007195,210.175956 24.9312459,210.217583 24.9747989,210.240214 C25.8479734,210.532699 26.797669,210.498019 27.647185,210.142627 L27.647185,210.142627 Z M25.3951743,210.030027 C25.9092159,209.610786 26.5421418,209.363919 27.2042895,209.324397 C27.3443799,209.341495 27.4674924,209.425435 27.5345845,209.549598 C27.6321716,209.707239 27.5871314,209.789812 27.5345845,209.842359 C27.2643432,210.165147 26.033244,210.225201 25.350134,210.052547 L25.3951743,210.030027 Z" id="Shape" fill="#6558F5"></path>
                    <path d="M47.2321716,197.613941 C47.3847933,198.083753 47.681606,198.493512 48.080429,198.784987 C48.3077809,198.919184 48.5834392,198.943993 48.8310992,198.852547 C48.9800605,198.810623 49.0930708,198.68892 49.1238606,198.537265 C49.2815013,197.786595 47.3147453,195.93244 46.9168901,195.534584 C46.8667855,195.501588 46.8018472,195.501588 46.7517426,195.534584 C46.6978147,195.563548 46.6700949,195.625148 46.6841823,195.684718 C46.7949522,196.346076 46.9787391,196.993106 47.2321716,197.613941 L47.2321716,197.613941 Z M48.7935657,198.176944 C48.8361223,198.262989 48.8542956,198.359047 48.8461126,198.454692 C48.8461126,198.492225 48.8461126,198.529759 48.7410188,198.559786 C48.5634314,198.628086 48.3643692,198.611497 48.2005362,198.514745 C47.7426273,198.244504 47.322252,197.3437 47.0520107,196.06756 C47.7356826,196.678743 48.3228578,197.389933 48.7935657,198.176944 Z" id="Shape" fill="#6558F5"></path>
                    <path d="M46.7142091,195.737265 C46.7120533,195.752201 46.7120533,195.76737 46.7142091,195.782306 C47.3297587,196.405362 49.1689008,197.41126 49.7619303,197.065952 C49.8895442,196.990885 50.0246649,196.825737 49.919571,196.465416 C49.5367292,195.084182 46.9168901,195.519571 46.7892761,195.542091 C46.7355778,195.549116 46.6912614,195.587524 46.6766756,195.639678 C46.6770898,195.675654 46.6904093,195.710284 46.7142091,195.737265 L46.7142091,195.737265 Z M49.6418231,196.450402 L49.6793566,196.540483 C49.6793566,196.690617 49.6793566,196.780697 49.6793566,196.818231 C49.3340483,197.013405 47.9453083,196.367828 47.2096515,195.782306 C47.8252011,195.714745 49.3115282,195.654692 49.6418231,196.450402 Z" id="Shape" fill="#6558F5"></path>
                    <path d="M53.4176944,31.7608579 L54.6262735,30.9426273 C54.6262735,30.9426273 54.2809651,32.2112601 53.4176944,31.7608579 Z" id="Path" fill="#263238"></path>
                </g>
                <g id="freepik--character-2--inject-1" transform="translate(153.667560, 24.037534)">
                    <polygon id="Path" fill="#FFC3BD" points="55.4670241 220.899732 49.6493298 220.907239 48.080429 207.440214 53.8981233 207.432708"></polygon>
                    <polygon id="Path" fill="#FFC3BD" points="105.544236 195.902413 101.137802 199.708311 91.1613941 190.527614 95.5603217 186.721716"></polygon>
                    <path d="M100.282038,199.558177 L105.641823,194.919035 C105.822475,194.769176 106.084227,194.769176 106.264879,194.919035 L110.348525,198.176944 C110.549951,198.346675 110.6662,198.596651 110.6662,198.860054 C110.6662,199.123456 110.549951,199.373432 110.348525,199.543164 C108.599464,201.006971 107.255764,201.990349 105.093834,203.867024 C103.757641,205.023056 99.8391421,208.6563 97.9924933,210.255228 C96.1458445,211.854155 94.3967828,210.165147 94.9898123,209.33941 C97.7672922,205.646113 99.4938338,202.37319 99.7640751,200.428954 C99.8306136,200.087446 100.013699,199.779649 100.282038,199.558177 Z" id="Path" fill="#263238"></path>
                    <path d="M49.6868633,220.231635 L56.0450402,220.231635 C56.2826601,220.232772 56.4880685,220.397721 56.5404826,220.629491 L57.6965147,225.801609 C57.7538239,226.054197 57.6925915,226.319127 57.5302559,226.52095 C57.3679203,226.722773 57.1222724,226.839369 56.8632708,226.837576 C54.5662198,226.8 51.2557641,226.672386 48.3731903,226.672386 C45.0101877,226.672386 43.0359249,226.762466 39.0873995,226.769973 C36.7002681,226.769973 36.0321716,224.360322 37.030563,224.142627 C41.5796247,223.136729 44.3571046,223.129223 48.2906166,220.697051 C48.7036554,220.415008 49.1872064,220.253824 49.6868633,220.231635 Z" id="Path" fill="#263238"></path>
                    <path d="M30.7774799,53.680429 C29.6064343,53.2300268 28.6005362,52.8171582 27.5495979,52.3367292 C26.4986595,51.8563003 25.4852547,51.383378 24.4643432,50.880429 C22.4275246,49.8795353 20.4257373,48.7635389 18.4589812,47.5324397 C16.4796224,46.3194489 14.5768267,44.985737 12.7613941,43.538874 C12.3034853,43.1635389 11.8380697,42.7882038 11.3876676,42.4053619 L10.0514745,41.1817694 C9.60857909,40.7764075 9.18820375,40.310992 8.76032172,39.8756032 C8.54262735,39.6353887 8.35495979,39.4627346 8.10723861,39.1774799 C7.85951743,38.8922252 7.61930295,38.6144772 7.40160858,38.3292225 C6.58080913,37.2439681 5.883394,36.0706993 5.32225201,34.8310992 C4.80039002,33.6991726 4.35646119,32.532919 3.99356568,31.3404826 C3.3036063,29.0888513 2.80144081,26.7839117 2.4922252,24.4493298 C1.89999545,19.954997 1.78675986,15.4104756 2.15442359,10.8922252 L6.5233244,10.8922252 C6.82359249,12.9265416 7.13887399,15.0659517 7.55174263,17.1227882 C7.96461126,19.1796247 8.4,21.2364611 8.93297587,23.2182306 C9.43708881,25.1540211 10.0741692,27.0527213 10.8396783,28.9008043 C11.475063,30.5348502 12.3698415,32.0557202 13.4895442,33.4048257 L13.8573727,33.7801609 C13.9699732,33.9002681 14.1951743,34.080429 14.3603217,34.230563 C14.7206434,34.5383378 15.0509383,34.861126 15.4337802,35.1538874 C16.1844504,35.7544236 16.9351206,36.3474531 17.7758713,36.9179625 C19.397319,38.0439678 21.1088472,39.1174263 22.8954424,40.1233244 C24.6820375,41.1292225 26.5061662,42.0825737 28.3603217,42.983378 C29.2911528,43.4412869 30.2294906,43.891689 31.1678284,44.3120643 C32.1061662,44.7324397 33.0895442,45.1753351 33.9302949,45.5356568 L30.7774799,53.680429 Z" id="Path" fill="#FFC3BD"></path>
                    <path d="M31.708311,58.6348525 C28.3955182,56.5755261 25.2661787,54.2348003 22.3549598,51.6386059 L24.6745308,39.7855228 C28.9873276,41.0123607 33.3721819,41.970059 37.8037534,42.6530831 C45.1227882,43.5989276 36.9254692,61.7426273 31.708311,58.6348525 Z" id="Path" fill="#263238"></path>
                    <path d="M6.67345845,11.9131367 L7.08632708,4.50402145 L0.930831099,6.47828418 C0.930831099,6.47828418 -0.502949062,11.7855228 3.49061662,13.1817694 L6.67345845,11.9131367 Z" id="Path" fill="#FFC3BD"></path>
                    <polygon id="Path" fill="#FFC3BD" points="6.34316354 0.517962466 1.26112601 2.63485255 0.930831099 6.47828418 7.08632708 4.50402145"></polygon>
                    <polygon id="Path" fill="#000000" opacity="0.2" points="48.0879357 207.440214 48.8911528 214.383914 54.7088472 214.376408 53.90563 207.432708"></polygon>
                    <polygon id="Path" fill="#000000" opacity="0.2" points="95.5678284 186.721716 91.1613941 190.527614 96.310992 195.256836 100.70992 191.450938"></polygon>
                    <path d="M60.1737265,42.4128686 C60.1999741,41.5807443 59.8928591,40.7725882 59.3205983,40.1679086 C58.7483374,39.5632291 57.9583128,39.2120924 57.1260054,39.1924933 C40.5211796,38.8847185 29.7190349,43.538874 28.9758713,43.8391421 C28.4123028,44.0665289 28.0063016,44.5690619 27.9024129,45.1678284 C27.2117962,49.3265416 25.2525469,66.7571046 34.8536193,94.0364611 L65.6310992,89.6300268 C65.2182306,85.0884718 59.4831099,64.249866 60.1737265,42.4128686 Z" id="Path" fill="#263238"></path>
                    <path d="M35.2815013,41.7447721 C33.4573727,44.1844504 32.6316354,49.8069705 38.6745308,53.9206434 C46.1061662,48.3731903 49.9345845,42.4053619 51.0680965,39.2975871 C45.7354182,39.5650818 40.4448897,40.3852018 35.2815013,41.7447721 L35.2815013,41.7447721 Z" id="Path" fill="#FFFFFF"></path>
                    <path d="M33.9002681,44.0268097 C33.0711006,44.0268097 32.3989276,43.3546366 32.3989276,42.5254692 C32.3989276,41.2868633 33.4723861,40.2209115 34.3806971,39.5227882 C37.4284182,37.2707775 43.3887399,35.5517426 50.8954424,37.7211796 C51.6621355,37.9741769 52.0914656,38.7882108 51.8672676,39.5638145 C51.6430697,40.3394183 50.8456315,40.7988394 50.0621984,40.6037534 C41.3544236,38.089008 35.9871314,41.6621984 35.4091153,42.6906166 C35.3242818,43.4575821 34.6718638,44.0353453 33.9002681,44.0268097 L33.9002681,44.0268097 Z" id="Path" fill="#6558F5"></path>
                    <path d="M46.3764075,25.0273458 C46.1512064,29.3587131 46.4289544,37.1957105 49.7769437,39.5828418 C47.8101877,42.1876676 45.1903485,45.2428954 40.2134048,46.136193 C37.2107239,46.6691689 36.1823056,45.5581769 36.0546917,44.1544236 C35.9685909,42.7726848 36.6801117,41.4633699 37.8863271,40.7839142 C41.1217158,38.9072386 40.4761394,35.8895442 39.3126005,33.0369973 L46.3764075,25.0273458 Z" id="Path" fill="#FFC3BD"></path>
                    <path d="M33.4423592,78.4676479 C33.2732053,78.4668398 33.1054987,78.4363477 32.9469169,78.3774799 C32.1657675,78.1014023 31.7559103,77.2447337 32.0310992,76.4632708 C32.4525961,75.401289 32.4090214,74.2111567 31.910992,73.1828418 L31.7533512,72.7549598 C31.4971389,72.2507513 31.156983,71.7938255 30.7474531,71.4037534 C28.9365474,69.9512811 28.3997061,67.4240458 29.463807,65.3608579 C29.6484991,64.9324338 29.7577045,64.4752948 29.7865952,64.0096515 C29.6433247,63.4749288 29.4124993,62.9676204 29.1034853,62.508311 C28.4839124,61.6224298 28.117941,60.5842132 28.0450402,59.50563 C28.1298705,58.3777048 28.5391721,57.2983997 29.2235925,56.3978552 C29.4816482,56.0563779 29.68431,55.6763869 29.8241287,55.2718499 C29.8295114,54.8541925 29.7476968,54.4400061 29.5839142,54.0557641 C29.22296,53.2026397 29.1338355,52.2589683 29.3286863,51.3533512 C29.6332987,50.3321387 30.2600162,49.4368279 31.1152815,48.8010724 C31.3568312,48.6184069 31.5672352,48.3978629 31.7383378,48.1479893 C31.8455352,47.7854161 31.8455352,47.3995705 31.7383378,47.0369973 C31.5100094,46.1675731 31.6312695,45.2433022 32.0761394,44.4621984 C32.6016086,43.6364611 32.5490617,43.4262735 32.5040214,43.2536193 C32.4281926,42.9903668 32.3952419,42.7166227 32.4064343,42.4428954 C32.4064343,41.613728 33.0786073,40.941555 33.9077748,40.941555 C34.7369423,40.941555 35.4091153,41.613728 35.4091153,42.4428954 L35.4091153,42.4879357 C35.6193029,43.336193 35.6793566,44.3495979 34.658445,46.0085791 C34.6708051,46.1848926 34.693363,46.3603425 34.7260054,46.5340483 C35.1896397,48.2254381 34.5444121,50.0260735 33.1120643,51.0380697 C32.6316354,51.458445 32.3613941,51.7136729 32.2563003,52.0815013 C32.2409575,52.4283014 32.310533,52.7736021 32.4589812,53.0873995 C32.7779437,53.8902287 32.9039346,54.7567376 32.8268097,55.6171582 C32.6606009,56.4795231 32.301307,57.293067 31.7758713,57.9967828 C31.4275641,58.4358287 31.1860059,58.9497825 31.0702413,59.4981233 C31.1914976,60.0236104 31.4132662,60.5206779 31.7233244,60.9619303 C32.2629889,61.7684375 32.6285863,62.6785959 32.7967828,63.6343164 C32.8384821,64.537945 32.6821999,65.4397701 32.338874,66.2766756 C32.0945674,66.810451 31.9788682,67.3940891 32.0010724,67.9806971 C32.2376758,68.5013354 32.5773039,68.9686432 32.9994638,69.3544236 C33.6942571,70.0336008 34.2456331,70.8453488 34.6209115,71.741555 L34.7560322,72.1319035 C35.4949224,73.8100983 35.5407904,75.7122707 34.8836461,77.4241287 C34.6832788,78.049835 34.099345,78.4725787 33.4423592,78.4676479 Z" id="Path" fill="#6558F5"></path>
                    <path d="M59.8959786,42.1651475 C60.7142091,42.9158177 61.397319,43.5463807 62.0879357,44.2670241 C62.7785523,44.9876676 63.4541555,45.6857909 64.122252,46.4064343 C65.458445,47.8477212 66.719571,49.3640751 67.9356568,50.9104558 C70.4692001,54.1155292 72.5901765,57.6261108 74.2487936,61.3597855 C74.6669116,62.3584777 75.0327333,63.3782682 75.3447721,64.4150134 C75.5024129,64.9404826 75.6375335,65.4884718 75.7651475,66.0439678 L75.8101877,66.2466488 L75.877748,66.5994638 C75.9227882,66.8321716 75.9453083,67.0798928 75.9678284,67.350134 C76.0038675,67.8508113 75.9887761,68.3538581 75.9227882,68.8514745 C75.8118144,69.748621 75.5397073,70.6183465 75.119571,71.4187668 C74.7683952,72.0852629 74.3428007,72.7098039 73.8509383,73.280429 C73.0374351,74.2096353 72.1003818,75.0229269 71.0659517,75.6975871 C69.3008135,76.8529112 67.399738,77.7857997 65.4058981,78.475067 C64.4600536,78.8203753 63.5067024,79.1131367 62.5458445,79.3608579 C61.5849866,79.6085791 60.6541555,79.8412869 59.6107239,80.013941 L58.2595174,75.8627346 C59.0101877,75.4423592 59.8134048,74.9994638 60.5715818,74.5490617 C61.3297587,74.0986595 62.0729223,73.6257373 62.8235925,73.152815 C64.2190996,72.2708783 65.5329944,71.2659874 66.7495979,70.150134 C67.2161494,69.7005264 67.6269607,69.1964635 67.9731903,68.6487936 C68.2359249,68.2209115 68.2134048,67.9356568 68.1383378,68.0257373 C68.1328323,68.0504568 68.1328323,68.0760848 68.1383378,68.1008043 C68.1383378,68.1008043 68.1383378,68.1008043 68.1383378,68.1008043 C68.1383378,68.1008043 68.1383378,68.1008043 68.1383378,68.1008043 L68.0932976,67.9656836 C67.9806971,67.6203753 67.8756032,67.2675603 67.7254692,66.9072386 C67.4472995,66.1746572 67.1290347,65.4579351 66.772118,64.7603217 C66.0183885,63.2776584 65.160473,61.8503077 64.2048257,60.489008 C63.2514745,59.077748 62.2005362,57.6965147 61.0895442,56.3453083 C59.9785523,54.9941019 58.8375335,53.6654155 57.6289544,52.3517426 C57.0359249,51.6986595 56.427882,51.0605898 55.8123324,50.4300268 C55.1967828,49.7994638 54.5512064,49.138874 54.0032172,48.6134048 L59.8959786,42.1651475 Z" id="Path" fill="#FFC3BD"></path>
                    <path d="M57.9592493,39.3201072 C61.3522788,39.8230563 66.6745308,48.3281501 66.6745308,48.3281501 L58.0343164,59.910992 C58.0343164,59.910992 53.4252011,55.519571 52.0815013,51.6536193 C49.5442359,44.2369973 51.2932976,38.3442359 57.9592493,39.3201072 Z" id="Path" fill="#263238"></path>
                    <path d="M53.4327078,68.4764445 C52.9022536,68.4702718 52.4142725,68.1849028 52.1490617,67.7254692 C51.6329476,66.7160165 51.4093388,65.5823721 51.5034853,64.4525469 C51.5434852,63.9861711 51.5028555,63.5163901 51.383378,63.063807 C51.0826201,62.5976287 50.7043315,62.186335 50.2648794,61.8477212 C49.4005785,61.2046137 48.7283167,60.3376815 48.3206434,59.3404826 C48.0421522,58.244401 48.0917474,57.0906599 48.4632708,56.0225201 C48.5997742,55.6157189 48.6731895,55.1904162 48.6809651,54.7613941 C48.4921375,54.2463823 48.2180774,53.7667772 47.8702413,53.3426273 C46.2687674,51.6967167 46.1620439,49.1094815 47.6225201,47.3372654 C47.8262144,47.0314939 47.9901762,46.7010479 48.1104558,46.3538874 C48.0713737,45.7841712 47.9342396,45.225477 47.7050938,44.7024129 C47.2762117,43.817032 47.1294764,42.8213283 47.2847185,41.849866 C47.5649367,40.4680798 48.2618074,39.2053291 49.2815013,38.2316354 L49.3790885,38.1340483 C49.961167,37.581208 50.8751566,37.5840825 51.4537462,38.1405732 C52.0323358,38.6970639 52.0707837,39.610249 51.5410188,40.2134048 L51.3683646,40.386059 C50.754837,40.9776737 50.342592,41.7470227 50.1898123,42.5855228 C50.2711203,42.962212 50.3841231,43.3313544 50.5276139,43.689008 C50.9214019,44.5983551 51.1183854,45.5807143 51.10563,46.5715818 C50.9889508,47.3935812 50.6831696,48.1773062 50.2123324,48.861126 C49.8871135,49.304287 49.673403,49.8192522 49.5892761,50.3624665 C49.7661234,50.8269529 50.0198918,51.2583591 50.3399464,51.6386059 C50.9465794,52.3919849 51.3889363,53.2639137 51.6386059,54.1983914 C51.7533781,55.0692799 51.6686701,55.9548643 51.3908847,56.7882038 C51.2006218,57.3165992 51.1313598,57.880956 51.1882038,58.4396783 C51.4732969,58.8998994 51.8425642,59.3022734 52.2766756,59.6257373 C53.0400004,60.225977 53.67122,60.9773072 54.1308311,61.8327078 C54.4555622,62.676194 54.588889,63.5812776 54.5211796,64.4825737 C54.4654489,65.0671006 54.5397918,65.656717 54.738874,66.2091153 C55.1629189,66.920259 54.9311898,67.8404588 54.2209115,68.2659517 C53.9826113,68.4074174 53.7098058,68.4801656 53.4327078,68.4764445 Z" id="Path" fill="#6558F5"></path>
                    <path d="M43.4938338,28.2927614 L39.3201072,33.0294906 C39.634807,33.757108 39.8859668,34.5105876 40.0707775,35.2815013 C41.8273458,34.7635389 44.0117962,32.4439678 43.9367292,30.5372654 C43.9250334,29.7685765 43.7750075,29.0082758 43.4938338,28.2927614 Z" id="Path" fill="#000000" opacity="0.2"></path>
                    <path d="M34.7184987,12.7088472 C32.8643432,15.9367292 34.0504021,20.5308311 34.0504021,20.5308311 C35.0632274,21.1893952 36.3535442,21.2468703 37.4209115,20.6809651 L36.8954424,12.1233244 L34.7184987,12.7088472 Z" id="Path" fill="#263238"></path>
                    <path d="M49.3340483,20.9061662 C47.9152815,26.5061662 47.3672922,29.8541555 43.9592493,32.2187668 C38.8321716,35.7769437 32.3313673,31.858445 32.0536193,25.9506702 C31.7983914,20.6284182 34.1630027,12.3710456 40.1383378,11.1699732 C42.8108898,10.616332 45.5794386,11.4874338 47.4534819,13.4716249 C49.3275252,15.4558161 50.0392596,18.2695529 49.3340483,20.9061662 Z" id="Path" fill="#FFC3BD"></path>
                    <path d="M32.9844504,27.4219839 L32.7817694,27.4219839 L20.0579088,24.7270777 C18.6172304,24.4223587 17.6963533,23.0074345 18.0010724,21.566756 C18.3057914,20.1260776 19.7207157,19.2052005 21.1613941,19.5099196 C21.4156748,19.5638793 21.6379191,19.7170587 21.7788411,19.9354878 C21.9197631,20.1539169 21.9677156,20.4195426 21.9120643,20.6734584 C21.7959754,21.2006117 21.2766636,21.5356516 20.7485255,21.4241287 C20.5674677,21.3802178 20.3762752,21.415725 20.2230563,21.5217158 C20.0691589,21.6212521 19.961139,21.7778809 19.9227882,21.9571046 C19.8897513,22.1383016 19.9244834,22.3253207 20.0203753,22.4825737 C20.1242723,22.6321677 20.2790134,22.7388858 20.4557641,22.7828418 L33.1796247,25.477748 C33.669316,25.5843365 34.0005155,26.0421327 33.9485529,26.5405889 C33.8965903,27.0390452 33.4780903,27.4186874 32.9769437,27.4219839 L32.9844504,27.4219839 Z" id="Path" fill="#6558F5"></path>
                    <path d="M32.9319035,27.647185 L31.3930295,27.3168901 L31.8809651,25.0648794 L33.3823056,25.3876676 C34.0143543,25.5226855 34.4175175,26.1442287 34.2831099,26.7764075 L34.2831099,26.7764075 C34.128079,27.3741668 33.5403153,27.7529478 32.9319035,27.647185 Z" id="Path" fill="#FFFFFF"></path>
                    <path d="M45.858445,17.8284182 C45.858445,15.6965147 44.2520107,14.1426273 38.8922252,14.555496 C34.5158177,14.8857909 32.3839142,12.8439678 33.6375335,9.99892761 C37.1806971,11.8455764 36.5951743,9.42841823 43.3512064,9.13565684 C50.1072386,8.84289544 52.0664879,11.3876676 52.7796247,15.3436997 C56.9158177,21.4766756 49.7769437,24.0214477 49.7769437,24.0214477 L46.9844504,26.461126 C45.8061248,26.7289484 44.5753645,26.3349901 43.7715818,25.4327078 C43.7715818,25.4327078 43.2235925,20.4557641 45.858445,17.8284182 Z" id="Path" fill="#263238"></path>
                    <path d="M38.6820375,8.0772118 L38.5093834,8.16729223 C38.1824533,8.34139356 37.9733545,8.67680059 37.9609632,9.04699108 C37.9485719,9.41718158 38.1347737,9.76582043 38.4493298,9.9613941 L54.1233244,19.6525469 C54.422833,19.8361847 54.7950036,19.8555072 55.1119189,19.703873 C55.4288343,19.5522389 55.6472989,19.2503159 55.6922252,18.9018767 L55.6922252,18.9018767 C55.8420295,17.912344 55.3871965,16.9288414 54.536193,16.4021448 L41.1742627,8.14477212 C40.4143849,7.68154139 39.4658959,7.65582934 38.6820375,8.0772118 Z" id="Path" fill="#6558F5"></path>
                    <path d="M41.5045576,9.11313673 L45.5131367,3.24289544 C45.7509704,2.89558972 46.2181512,2.79359955 46.5790885,3.01018767 L57.6439678,9.6386059 C57.8399253,9.75311421 57.9770121,9.94653537 58.0201398,10.1693615 C58.0632674,10.3921877 58.0082497,10.6227903 57.8691689,10.8021448 L53.0723861,17.1378016 L41.5045576,9.11313673 Z" id="Path" fill="#6558F5"></path>
                    <polygon id="Path" fill="#6558F5" points="41.5045576 9.11313673 43.1034853 6.25308311 55.4595174 14.4203753 53.0723861 17.1378016"></polygon>
                    <polygon id="Path" fill="#FFFFFF" opacity="0.6" points="41.5045576 9.11313673 43.1034853 6.25308311 55.4595174 14.4203753 53.0723861 17.1378016"></polygon>
                    <path d="M50.047185,27.7747989 C48.9495928,28.5239972 47.6027993,28.8149046 46.2938338,28.5855228 C44.5898123,28.2552279 44.5898123,26.5286863 45.7683646,25.3050938 C46.8268097,24.2016086 48.9962466,23.0530831 50.3624665,24.0064343 C51.7286863,24.9597855 51.4058981,26.8364611 50.047185,27.7747989 Z" id="Path" fill="#FFC3BD"></path>
                    <path d="M46.7067024,213.047721 L56.555496,213.047721 C56.555496,213.047721 55.0091153,178.021448 52.8847185,160.020375 C52.2391421,154.540483 52.9372654,147.03378 53.0048257,138.648794 C53.0949062,128.086863 53.5828418,116.579088 54.0632708,107.548525 C54.5737265,98.0375335 55.0016086,91.1839142 55.0016086,91.1839142 L34.8536193,94.0589812 C34.8536193,94.0589812 32.8568365,143.926005 35.9871314,161.401609 C39.2450402,179.552815 46.7067024,213.047721 46.7067024,213.047721 Z" id="Path" fill="#6558F5"></path>
                    <path d="M53.0048257,138.626273 C53.0949062,128.064343 53.5828418,116.556568 54.0632708,107.526005 L51.0605898,103.50992 C47.3522788,110.453619 49.9270777,128.942627 53.0048257,138.626273 Z" id="Path" fill="#000000" opacity="0.2"></path>
                    <path d="M44.4546917,92.6627346 C44.4546917,92.6627346 56.9683646,142.079357 62.9136729,158.061126 C69.4219839,175.551743 93.3908847,196 93.3908847,196 L99.4487936,189.334048 C99.4487936,189.334048 86.7699732,169.568901 77.4241287,150.554424 C72.9576408,125.864879 65.661126,89.6300268 65.661126,89.6300268 L44.4546917,92.6627346 Z" id="Path" fill="#6558F5"></path>
                    <polygon id="Path" fill="#263238" points="92.5801609 197.005898 102.076139 188.801072 99.6214477 185.971046 88.8493298 194.956568"></polygon>
                    <polygon id="Path" fill="#263238" points="45.4680965 213.272922 57.2085791 213.257909 57.2010724 209.467024 44.0868633 209.286863"></polygon>
                    <path d="M40.6863271,19.8101877 C40.310992,19.6975871 39.8680965,20.0579088 39.6879357,20.6209115 L41.0241287,21.0487936 C41.2042895,20.4857909 41.0541555,19.9302949 40.6863271,19.8101877 Z" id="Path" fill="#263238"></path>
                    <path d="M34.8310992,18.7067024 C34.4482574,18.7067024 34.080429,19.1420912 34.080429,19.7351206 L35.4766756,19.8252011 C35.4991957,19.2321716 35.2214477,18.766756 34.8310992,18.7067024 Z" id="Path" fill="#263238"></path>
                    <path d="M36.8504021,20.4182306 C36.0327165,21.7234555 35.0401144,22.9105369 33.9002681,23.9463807 C34.4549138,24.5217153 35.2346901,24.8237413 36.0321716,24.772118 L36.8504021,20.4182306 Z" id="Path" fill="#ED847E"></path>
                    <path d="M42.5930295,19.2096515 C42.6399161,19.2208194 42.6887702,19.2208194 42.7356568,19.2096515 C42.8798732,19.1629916 42.9600481,19.0093231 42.9158177,18.8643432 C42.6788089,18.00918 42.0402317,17.3229896 41.2042895,17.0252011 C41.1345874,17.0021674 41.0584274,17.0093451 40.994256,17.0449959 C40.9300846,17.0806467 40.8837548,17.1415188 40.8664879,17.2128686 C40.8457289,17.2825636 40.8539347,17.3576837 40.8892511,17.4212531 C40.9245674,17.4848226 40.9840135,17.5314759 41.0541555,17.5506702 L41.0541555,17.5506702 C41.7162617,17.805404 42.2141451,18.3648235 42.3903485,19.0520107 C42.4300324,19.1329622 42.5048005,19.1911151 42.5930295,19.2096515 Z" id="Path" fill="#263238"></path>
                    <path d="M33.0970509,17.9184987 C33.1882218,17.9339252 33.2810914,17.9029687 33.3447721,17.8359249 C33.8034756,17.3073496 34.4863514,17.0286248 35.1839142,17.0852547 C35.3351424,17.1076755 35.4760572,17.003667 35.4991957,16.8525469 C35.5216657,16.7054508 35.4209941,16.5678662 35.2739946,16.5447721 C34.3908126,16.4575069 33.5202629,16.804607 32.9394102,17.4756032 C32.8861835,17.5265776 32.8560843,17.597079 32.8560843,17.6707775 C32.8560843,17.7444759 32.8861835,17.8149774 32.9394102,17.8659517 C32.9861454,17.8975895 33.0406801,17.9157677 33.0970509,17.9184987 L33.0970509,17.9184987 Z" id="Path" fill="#263238"></path>
                    <path d="M99.4563003,201.615013 C99.8383745,201.265908 100.180751,200.875699 100.477212,200.451475 C100.507573,200.406035 100.507573,200.34678 100.477212,200.30134 C100.453745,200.249768 100.397429,200.22161 100.342091,200.23378 C100.101877,200.23378 97.9624665,200.586595 97.6847185,201.269705 C97.6222533,201.422209 97.6450948,201.596375 97.7447721,201.727614 C97.8892259,201.962842 98.1443501,202.107412 98.4203753,202.110456 C98.8126044,202.070134 99.1787123,201.895039 99.4563003,201.615013 L99.4563003,201.615013 Z M100.056836,200.564075 C99.4337802,201.367292 98.833244,201.832708 98.427882,201.832708 C98.2407015,201.827996 98.0697219,201.725409 97.9774799,201.562466 C97.941839,201.507701 97.941839,201.437071 97.9774799,201.382306 C98.0825737,201.029491 99.2010724,200.714209 100.056836,200.564075 Z" id="Shape" fill="#6558F5"></path>
                    <path d="M100.454692,200.481501 C100.47465,200.462702 100.490055,200.439595 100.499732,200.413941 C100.522469,200.369117 100.522469,200.316138 100.499732,200.271314 C100.447185,200.218767 99.2986595,198.995174 98.4428954,199.002681 C98.2310726,199.003182 98.0293205,199.093152 97.8873995,199.250402 L97.8873995,199.250402 C97.7236409,199.392811 97.6800408,199.629498 97.7823056,199.820912 C98.0900804,200.406434 99.7640751,200.646649 100.424665,200.511528 L100.454692,200.481501 Z M98.0975871,199.400536 C98.1850762,199.325195 98.2974461,199.285063 98.4128686,199.287936 C98.9608579,199.287936 99.7115282,199.926005 100.07185,200.263807 C99.3211796,200.30134 98.1726542,200.031099 97.9849866,199.685791 C97.9849866,199.648257 97.9324397,199.57319 98.0525469,199.445576 L98.0525469,199.445576 L98.0975871,199.400536 Z" id="Shape" fill="#6558F5"></path>
                    <path d="M49.1163539,221.042359 C49.1655727,221.025324 49.2006185,220.981517 49.2064343,220.929759 C49.2195359,220.872321 49.1916163,220.81338 49.138874,220.787131 C48.8686327,220.652011 46.5340483,219.465952 45.8284182,219.863807 C45.6907307,219.936065 45.6020307,220.076268 45.5957105,220.231635 L45.5957105,220.231635 C45.564222,220.484492 45.6631525,220.736058 45.858445,220.899732 C46.4965147,221.462735 48.1630027,221.230027 49.1013405,221.042359 L49.1163539,221.042359 Z M46.0085791,220.081501 C46.4514745,219.931367 47.7201072,220.411796 48.6434316,220.832172 C47.3597855,221.049866 46.3914209,220.997319 46.0386059,220.674531 C45.9109496,220.565197 45.8485519,220.397857 45.8734584,220.231635 C45.873382,220.170675 45.9084604,220.115134 45.9635389,220.089008 L46.0085791,220.081501 Z" id="Shape" fill="#6558F5"></path>
                    <path d="M49.1163539,221.042359 L49.1538874,221.042359 C49.1928791,221.011647 49.2151295,220.964365 49.213941,220.914745 C49.213941,220.854692 49.0412869,219.285791 48.30563,218.662735 C48.0977439,218.4858 47.8264747,218.401707 47.5549598,218.430027 L47.5549598,218.430027 C47.172118,218.430027 47.0670241,218.662735 47.044504,218.812869 C46.9394102,219.473458 48.3281501,220.727078 49.0337802,221.064879 C49.0629068,221.065544 49.0915974,221.057719 49.1163539,221.042359 L49.1163539,221.042359 Z M47.4273458,218.722788 L47.5699732,218.722788 L47.5699732,218.722788 C47.7724669,218.699808 47.9750078,218.765496 48.1254692,218.902949 C48.5540339,219.406765 48.8162441,220.030825 48.8761394,220.689544 C48.1630027,220.261662 47.2096515,219.278284 47.2772118,218.880429 C47.2922252,218.827882 47.2922252,218.760322 47.4273458,218.722788 Z" id="Shape" fill="#6558F5"></path>
                    <path d="M58.9651475,75.4723861 L53.3651475,77.2439678 L57.7115282,81.5678284 C57.7115282,81.5678284 62.786059,79.3683646 61.1946381,77.1313673 L58.9651475,75.4723861 Z" id="Path" fill="#FFC3BD"></path>
                    <polygon id="Path" fill="#FFC3BD" points="51.0605898 82.183378 55.0466488 84.6005362 57.7115282 81.5678284 53.3651475 77.2439678"></polygon>
                </g>
            </g>
        </g>
    </g>
</svg>