<svg width="16" height="16" viewBox="0 0 16 16" fill="none" xmlns="http://www.w3.org/2000/svg">
<path fill-rule="evenodd" clip-rule="evenodd" d="M6.35008 4.01675C6.78767 3.57916 7.38116 3.33333 8 3.33333C8.61884 3.33333 9.21233 3.57916 9.64992 4.01675C10.0875 4.45433 10.3333 5.04782 10.3333 5.66666V7H5.66667V5.66666C5.66667 5.04782 5.9125 4.45433 6.35008 4.01675ZM3.66667 7V5.66666C3.66667 4.51739 4.12321 3.41519 4.93587 2.60253C5.74853 1.78987 6.85073 1.33333 8 1.33333C9.14927 1.33333 10.2515 1.78987 11.0641 2.60253C11.8768 3.41519 12.3333 4.51739 12.3333 5.66666V7H12.6667C13.403 7 14 7.59695 14 8.33333V13C14 13.7364 13.403 14.3333 12.6667 14.3333H3.33333C2.59695 14.3333 2 13.7364 2 13V8.33333C2 7.59695 2.59695 7 3.33333 7H3.66667Z" fill="#150F2F"/>
</svg>
