<?xml version="1.0" encoding="UTF-8"?>
<svg width="17px" height="16px" viewBox="0 0 17 16" version="1.1" xmlns="http://www.w3.org/2000/svg" xmlns:xlink="http://www.w3.org/1999/xlink">
    <title>iOS-/-DBS-Verified-Small</title>
    <g id="Page-1" stroke="none" stroke-width="1" fill="none" fill-rule="evenodd">
        <g id="DBS-Verified-Small" transform="translate(-94.000000, -310.000000)" fill-rule="nonzero">
            <g id="iOS-/-Card-/-Tutor" transform="translate(24.000000, 238.000000)">
                <g id="iOS-/-DBS-Verified-Small" transform="translate(70.000000, 71.000000)">
                    <path d="M16.5485461,8.33374952 L15.1856302,6.80824453 L15.1856302,6.80824453 L15.3987869,4.76827259 C15.4519199,4.259774 15.1129359,3.79309083 14.6129303,3.68637479 L12.6288924,3.2629222 L12.6288924,3.2629222 L11.6189297,1.49416915 C11.3633919,1.04664439 10.8096011,0.866602217 10.3397458,1.07829541 L8.49503846,1.9094279 L8.49503846,1.9094279 L6.65033109,1.07829541 C6.18047581,0.866602217 5.62668501,1.04664439 5.37114719,1.49416915 L4.36118451,3.2629222 L4.36118451,3.2629222 L2.37713658,3.68637694 C1.87713523,3.79309207 1.53815202,4.25976855 1.59127878,4.7682634 L1.80441288,6.80824453 L1.80441288,6.80824453 L0.44148671,8.33376103 C0.102461277,8.71323052 0.102458816,9.28678038 0.441480992,9.66625278 L1.80437905,11.1917642 L1.80437905,11.1917642 L1.59124495,13.2317453 C1.53811819,13.7402402 1.8771014,14.2069166 2.37710275,14.3136318 L4.36115069,14.7370865 L4.36115069,14.7370865 L5.37110856,16.5058311 C5.6266484,16.9533594 6.18044539,17.1334004 6.65030213,16.9217005 L8.49500464,16.0905467 L8.49500464,16.0905467 L10.3397071,16.9217005 C10.8095639,17.1334004 11.3633609,16.9533594 11.6189007,16.5058311 L12.6288586,14.7370865 L12.6288586,14.7370865 L14.6128964,14.3136339 C15.112902,14.2069179 15.4518861,13.7402347 15.398753,13.2317361 L15.1855964,11.1917642 L15.1855964,11.1917642 L16.5485404,9.66625407 C16.8875734,9.28678261 16.8875759,8.7132239 16.5485461,8.33374952 Z" id="Combined-Shape" fill="#416DFE"></path>
                    <polygon id="Checkmark" fill="#FFFFFF" points="5.00658052 8.94018452 3.99045405 9.95712161 6.70012465 12.6689538 12.7968835 6.90631035 11.780757 5.88937327 6.70012465 10.6350797"></polygon>
                </g>
            </g>
        </g>
    </g>
</svg>