<svg width="17" height="19" viewBox="0 0 17 19" fill="none" xmlns="http://www.w3.org/2000/svg">
<path fill-rule="evenodd" clip-rule="evenodd" d="M7 5C7.55 5 8 4.55 8 4C8 3.45 7.55 3 7 3H5V1C5 0.45 4.55 0 4 0C3.45 0 3 0.45 3 1V3H1C0.45 3 0 3.45 0 4C0 4.55 0.45 5 1 5H3V7C3 7.55 3.45 8 4 8C4.55 8 5 7.55 5 7V5H7ZM11 10.55V2C11 0.9 11.9 0 13 0H15C16.1 0 17 0.9 17 2C17 3.1 16.1 4 15 4H13V13.85C13 15.84 11.61 17.64 9.65 17.95C6.92 18.38 4.6 16.04 5.06 13.3C5.3 11.9 6.33 10.71 7.67 10.23C8.9 9.8 10.06 10.01 11 10.55Z" fill="white"/>
</svg>
